<svg xmlns="http://www.w3.org/2000/svg" xmlns:xlink="http://www.w3.org/1999/xlink" width="505" height="514" viewBox="0 0 505 514">
  <defs>
    <clipPath id="clip-path">
      <rect id="Rectángulo_413343" data-name="Rectángulo 413343" width="505" height="514" transform="translate(180 609)" fill="#fff" stroke="#707070" stroke-width="1" opacity="0.7"/>
    </clipPath>
  </defs>
  <g id="Enmascarar_grupo_1098797" data-name="Enmascarar grupo 1098797" transform="translate(-180 -609)" clip-path="url(#clip-path)">
    <g id="Grupo_1165164" data-name="Grupo 1165164" transform="translate(2581.85 -1080.512)">
      <g id="OBJECTS" transform="translate(-2452.098 1656.554)">
        <g id="Grupo_1165138" data-name="Grupo 1165138" transform="translate(301.993 43.993)">
          <line id="Línea_625" data-name="Línea 625" y2="78.519" transform="translate(22.261 27.582)" fill="none" stroke="#2d1a14" stroke-linecap="round" stroke-linejoin="round" stroke-miterlimit="10" stroke-width="1.614"/>
          <circle id="Elipse_12159" data-name="Elipse 12159" cx="23.64" cy="23.64" r="23.64" fill="#c6c3fc"/>
        </g>
        <path id="Trazado_1014231" data-name="Trazado 1014231" d="M492.039,251.1c-45.824-26.661-110.827-20.471-156.333-47.594-27.561-16.427-46.416-52.587-69.171-75.206-31.481-31.291-78.8-58.521-121.683-48-59.167,14.512-83.3,60-83.593,106.409-.308,48.255,28.153,84.9,70.931,104.291,41.488,18.809,69.421,36.815,75.094,85.347,2.3,19.692,2.764,39.992,10.132,58.4,7.228,18.052,22.665,33.662,42.8,35.121,23.457,1.7,44.679-13.432,68.03-13.809,21.229-.341,40.707,11.2,61.5,15.5,43.7,9.051,94.2-5.124,125.211-37.66C562.849,383.65,549.835,284.73,492.039,251.1Z" transform="translate(-9.883 -39.571)" fill="#c2f1f8"/>
        <line id="Línea_626" data-name="Línea 626" x2="46.612" y2="31.562" transform="translate(202.548 152.529)" fill="none" stroke="#2d1a14" stroke-linecap="round" stroke-linejoin="round" stroke-miterlimit="10" stroke-width="1.614"/>
        <circle id="Elipse_12160" data-name="Elipse 12160" cx="23.64" cy="23.64" r="23.64" transform="translate(157.561 133.7) rotate(-34.097)" fill="#c6c3fc"/>
        <circle id="Elipse_12161" data-name="Elipse 12161" cx="53.44" cy="53.44" r="53.44" transform="translate(530.02 392.265)" fill="#e1f5f7"/>
        <g id="Grupo_1165139" data-name="Grupo 1165139" transform="translate(46.362 203.221)">
          <circle id="Elipse_12162" data-name="Elipse 12162" cx="5.975" cy="5.975" r="5.975" fill="#1d0e21"/>
          <path id="Trazado_1014232" data-name="Trazado 1014232" d="M63.783,225.412a5.975,5.975,0,1,1,5.975-5.975A5.975,5.975,0,0,1,63.783,225.412Z" transform="translate(-57.808 -181.417)" fill="#1d0e21"/>
          <circle id="Elipse_12163" data-name="Elipse 12163" cx="5.975" cy="5.975" r="5.975" transform="translate(0 67.222)" fill="#1d0e21"/>
        </g>
        <g id="Grupo_1165140" data-name="Grupo 1165140" transform="translate(567.692 302.986)">
          <path id="Trazado_1014233" data-name="Trazado 1014233" d="M437.554,272.017a5.975,5.975,0,1,1,5.975-5.975A5.975,5.975,0,0,1,437.554,272.017Z" transform="translate(-431.579 -260.067)" fill="#1d0e21"/>
          <path id="Trazado_1014234" data-name="Trazado 1014234" d="M437.554,294.07a5.975,5.975,0,1,1,5.975-5.975A5.975,5.975,0,0,1,437.554,294.07Z" transform="translate(-431.579 -250.075)" fill="#1d0e21"/>
          <path id="Trazado_1014235" data-name="Trazado 1014235" d="M437.554,318.279a5.975,5.975,0,1,1,5.975-5.975A5.975,5.975,0,0,1,437.554,318.279Z" transform="translate(-431.579 -239.107)" fill="#1d0e21"/>
        </g>
        <g id="Grupo_1165141" data-name="Grupo 1165141" transform="translate(348.286 520.436)">
          <path id="Trazado_1014236" data-name="Trazado 1014236" d="M311.851,415.689a5.975,5.975,0,1,1,5.975,5.975A5.975,5.975,0,0,1,311.851,415.689Z" transform="translate(-244.63 -409.714)" fill="#1d0e21"/>
          <path id="Trazado_1014237" data-name="Trazado 1014237" d="M289.8,415.689a5.975,5.975,0,1,1,5.975,5.975A5.975,5.975,0,0,1,289.8,415.689Z" transform="translate(-254.622 -409.714)" fill="#1d0e21"/>
          <path id="Trazado_1014238" data-name="Trazado 1014238" d="M265.59,415.689a5.975,5.975,0,1,1,5.975,5.975A5.975,5.975,0,0,1,265.59,415.689Z" transform="translate(-265.59 -409.714)" fill="#1d0e21"/>
        </g>
        <g id="Grupo_1165142" data-name="Grupo 1165142" transform="translate(329.223 15.485)">
          <path id="Trazado_1014239" data-name="Trazado 1014239" d="M298.733,68.186a5.975,5.975,0,1,1,5.975,5.975A5.975,5.975,0,0,1,298.733,68.186Z" transform="translate(-231.511 -62.211)" fill="#1d0e21"/>
          <circle id="Elipse_12164" data-name="Elipse 12164" cx="5.975" cy="5.975" r="5.975" transform="translate(35.178)" fill="#1d0e21"/>
          <circle id="Elipse_12165" data-name="Elipse 12165" cx="5.975" cy="5.975" r="5.975" fill="#1d0e21"/>
        </g>
        <ellipse id="Elipse_12166" data-name="Elipse 12166" cx="84.192" cy="82.034" rx="84.192" ry="82.034" transform="translate(230.498 146.879)" fill="#c6c3fc"/>
        <ellipse id="Elipse_12167" data-name="Elipse 12167" cx="84.192" cy="82.034" rx="84.192" ry="82.034" transform="translate(126.179 308.068)" fill="#c6c3fc"/>
        <g id="Grupo_1165143" data-name="Grupo 1165143" transform="translate(164.059 343.786)">
          <path id="Trazado_1014240" data-name="Trazado 1014240" d="M231.43,334.461c0,1.008-.035,2-.1,2.992a46.309,46.309,0,1,1-46.212-49.307h.267a46.169,46.169,0,0,1,34.383,15.589.164.164,0,0,1,.055.068A46.135,46.135,0,0,1,231.43,334.461Z" transform="translate(-138.806 -288.145)" fill="#f5f5ff"/>
          <path id="Trazado_1014241" data-name="Trazado 1014241" d="M205.38,303.8l-21.971,19.4L170.675,334.46V334.1l.1-16.647.171-29.312a46.169,46.169,0,0,1,34.383,15.589A.176.176,0,0,1,205.38,303.8Z" transform="translate(-124.367 -288.145)" fill="#9898ea"/>
          <path id="Trazado_1014242" data-name="Trazado 1014242" d="M218.373,329.6c0,1.008-.035,2-.1,2.992l-29.532.315-21.113.227,4.432-3.89L184.667,318.2l22.039-19.322a.163.163,0,0,1,.055.068A46.122,46.122,0,0,1,218.373,329.6Z" transform="translate(-125.749 -283.284)" fill="#8383dd"/>
          <path id="Trazado_1014243" data-name="Trazado 1014243" d="M218.269,322.078a46.322,46.322,0,0,1-26.808,39.076l-17.325-25.195-4.452-6.478-2.059-6.861,21.113-.227Z" transform="translate(-125.749 -272.771)" fill="#6060cc"/>
          <circle id="Elipse_12168" data-name="Elipse 12168" cx="17.001" cy="17.001" r="17.001" transform="translate(29.31 29.314)" fill="#c6c3fc"/>
        </g>
        <g id="Grupo_1165146" data-name="Grupo 1165146" transform="translate(0 362.442)">
          <g id="Grupo_1165144" data-name="Grupo 1165144" transform="translate(0 61.276)">
            <path id="Trazado_1014244" data-name="Trazado 1014244" d="M65.157,467.143q8.392,7.171,16.94,14.157l74.478-86.913a23.74,23.74,0,0,0-.144-31.052c-8.621-9.874-10.018-19.407-19.891-10.786L33.781,438.91C43.954,448.631,54.46,458,65.157,467.143Z" transform="translate(-23.219 -349.185)" fill="#ff8b6b"/>
            <path id="Trazado_1014245" data-name="Trazado 1014245" d="M80.479,474.2l51.885-61.458c-13.922-11.6-28.228-22.732-43.018-33.209L26.512,426.516Z" transform="translate(-26.512 -335.436)" fill="#a530fe"/>
          </g>
          <g id="Grupo_1165145" data-name="Grupo 1165145" transform="translate(95.886)">
            <path id="Trazado_1014246" data-name="Trazado 1014246" d="M111.314,369.108c-2.286-8.807,2.373-17.841,7.492-25.363s11.081-15.164,11.814-24.233c.206-2.547-.013-5.16.689-7.617s2.682-4.817,5.238-4.878c3.913-.095,5.857,4.718,6.21,8.617a47.754,47.754,0,0,1-4.59,25.038,26.6,26.6,0,0,0-2.523,6.081,6.58,6.58,0,0,0,1.516,6.132c1.7,1.59,4.41,1.677,6.575.812a17.608,17.608,0,0,0,5.568-4.15c12.544-12.385,10.764-10.224,21.3-25.118,2.068-2.924,7.909-12.154,11.1-13.775s8-.548,8.881,2.924c.607,2.4-.82,4.792-2.183,6.856-6.7,10.135-6.311,9.66-13.007,19.8a14.507,14.507,0,0,1,1.308,18.416c3.39,8.705.439,18.751-5.125,26.254s-13.605,12.762-21.756,17.329-16.655,8.65-23.944,14.495c-7.037-13.442-28.5-15.44-33.38-29.81C94.241,384.78,109.574,371.241,111.314,369.108Z" transform="translate(-92.5 -307.015)" fill="#ff8b6b"/>
            <path id="Trazado_1014247" data-name="Trazado 1014247" d="M153.4,329.873c-1.162,2.238-7.812,12.946-7.812,12.946s-.263,10.549-4.551,18.1" transform="translate(-70.507 -296.659)" fill="none" stroke="#2d1a14" stroke-linecap="round" stroke-linejoin="round" stroke-miterlimit="10" stroke-width="1.594"/>
          </g>
        </g>
        <g id="Grupo_1165147" data-name="Grupo 1165147" transform="translate(53.973 341.712)">
          <circle id="Elipse_12169" data-name="Elipse 12169" cx="23.64" cy="23.64" r="23.64" fill="#c6c3fc"/>
          <line id="Línea_627" data-name="Línea 627" x2="29.062" transform="translate(47.28 23.64)" fill="none" stroke="#2d1a14" stroke-linecap="round" stroke-linejoin="round" stroke-miterlimit="10" stroke-width="1.614"/>
        </g>
        <path id="Trazado_1014248" data-name="Trazado 1014248" d="M78.408,398.6s-24.3,8.891-40.9,31.414" transform="translate(-20.642 105.687)" fill="none" stroke="#2d1a14" stroke-linecap="round" stroke-linejoin="round" stroke-miterlimit="10" stroke-width="1.755"/>
        <path id="Trazado_1014249" data-name="Trazado 1014249" d="M68.906,420.624a6.52,6.52,0,1,1-6.52-6.52A6.52,6.52,0,0,1,68.906,420.624Z" transform="translate(-12.326 112.711)" fill="none" stroke="#2d1a14" stroke-linecap="round" stroke-linejoin="round" stroke-miterlimit="10" stroke-width="1.755"/>
        <path id="Trazado_1014250" data-name="Trazado 1014250" d="M366.469,121.321s26.246-8.374,44.9-31.591" transform="translate(128.403 -34.257)" fill="none" stroke="#2d1a14" stroke-linecap="round" stroke-linejoin="round" stroke-miterlimit="10" stroke-width="1.868"/>
        <path id="Trazado_1014251" data-name="Trazado 1014251" d="M368.23,92.322a6.942,6.942,0,1,1,6.645,7.226A6.943,6.943,0,0,1,368.23,92.322Z" transform="translate(129.198 -36.096)" fill="none" stroke="#2d1a14" stroke-linecap="round" stroke-linejoin="round" stroke-miterlimit="10" stroke-width="1.868"/>
        <g id="Grupo_1165149" data-name="Grupo 1165149" transform="translate(276.376 172.649)">
          <path id="Trazado_1014252" data-name="Trazado 1014252" d="M247.3,257.386h0a13.168,13.168,0,0,1-13.129-13.129V224.431A13.168,13.168,0,0,1,247.3,211.3h0a13.168,13.168,0,0,1,13.129,13.129v19.827A13.167,13.167,0,0,1,247.3,257.386Z" transform="translate(-207.915 -151.824)" fill="#f5f5ff"/>
          <line id="Línea_628" data-name="Línea 628" x2="26.257" transform="translate(26.256 92.433)" fill="#8ddae2"/>
          <path id="Trazado_1014253" data-name="Trazado 1014253" d="M243.857,251.32h0a2.688,2.688,0,0,1-2.679-2.679v-5.9a2.688,2.688,0,0,1,2.679-2.679h0a2.688,2.688,0,0,1,2.679,2.679v5.9A2.687,2.687,0,0,1,243.857,251.32Z" transform="translate(-204.74 -138.792)" fill="#2d1a14"/>
          <path id="Trazado_1014254" data-name="Trazado 1014254" d="M254.415,247h0A38.426,38.426,0,0,1,216.1,208.683h0a38.426,38.426,0,0,1,38.313-38.313h0a38.426,38.426,0,0,1,38.313,38.313h0A38.427,38.427,0,0,1,254.415,247Z" transform="translate(-216.102 -170.37)" fill="#f5f5ff"/>
          <g id="Grupo_1165148" data-name="Grupo 1165148" transform="translate(32.151 42.331)">
            <path id="Trazado_1014255" data-name="Trazado 1014255" d="M240.639,248.8h0a2.418,2.418,0,0,1-2.411-2.411V201.914a2.419,2.419,0,0,1,2.411-2.412h0a2.419,2.419,0,0,1,2.412,2.412V246.39A2.418,2.418,0,0,1,240.639,248.8Z" transform="translate(-238.228 -199.502)" fill="none" stroke="#472a1c" stroke-linecap="round" stroke-linejoin="round" stroke-miterlimit="10" stroke-width="0.435"/>
            <path id="Trazado_1014256" data-name="Trazado 1014256" d="M246.171,248.8h0a2.419,2.419,0,0,1-2.412-2.411V201.914a2.419,2.419,0,0,1,2.412-2.412h0a2.419,2.419,0,0,1,2.412,2.412V246.39A2.42,2.42,0,0,1,246.171,248.8Z" transform="translate(-235.722 -199.502)" fill="none" stroke="#472a1c" stroke-linecap="round" stroke-linejoin="round" stroke-miterlimit="10" stroke-width="0.435"/>
          </g>
          <path id="Trazado_1014257" data-name="Trazado 1014257" d="M234.171,228.635v7.77a13.129,13.129,0,0,0,26.257,0v-7.77Z" transform="translate(-207.915 -143.971)" fill="#9898ea"/>
        </g>
        <g id="Grupo_1165150" data-name="Grupo 1165150" transform="translate(187.924 471.88)">
          <line id="Línea_629" data-name="Línea 629" y2="46.897" transform="translate(25.823)" fill="none" stroke="#2d1a14" stroke-linecap="round" stroke-linejoin="round" stroke-miterlimit="10" stroke-width="1.614"/>
          <circle id="Elipse_12170" data-name="Elipse 12170" cx="23.64" cy="23.64" r="23.64" transform="translate(0 31.436)" fill="#c6c3fc"/>
        </g>
        <g id="Grupo_1165153" data-name="Grupo 1165153" transform="translate(422.991 0)">
          <g id="Grupo_1165152" data-name="Grupo 1165152">
            <g id="Grupo_1165151" data-name="Grupo 1165151">
              <path id="Trazado_1014258" data-name="Trazado 1014258" d="M424.266,72.079q-8.607-8-17.388-15.814l-83.093,89.126a25.266,25.266,0,0,0,34.285,36.942l98.31-78.825C446,92.716,435.238,82.277,424.266,72.079Z" transform="translate(-317.001 -49.42)" fill="#c75434"/>
              <path id="Trazado_1014259" data-name="Trazado 1014259" d="M400.717,51.554l-57.929,63.058c14.291,12.964,29.011,25.438,44.277,37.241l68.928-47.177Z" transform="translate(-305.318 -51.554)" fill="#3ad1e9"/>
            </g>
          </g>
        </g>
        <g id="Grupo_1165154" data-name="Grupo 1165154" transform="translate(461.525 256.26)">
          <path id="Trazado_1014260" data-name="Trazado 1014260" d="M358.218,270.808a23.64,23.64,0,1,1,32.97-5.539A23.64,23.64,0,0,1,358.218,270.808Z" transform="translate(-341.358 -227.91)" fill="#c6c3fc"/>
          <line id="Línea_630" data-name="Línea 630" x1="16.86" y2="23.671" transform="translate(0 42.897)" fill="none" stroke="#2d1a14" stroke-linecap="round" stroke-linejoin="round" stroke-miterlimit="10" stroke-width="1.614"/>
        </g>
        <g id="Grupo_1165155" data-name="Grupo 1165155" transform="translate(454.321 457.83)">
          <circle id="Elipse_12171" data-name="Elipse 12171" cx="23.64" cy="23.64" r="23.64" transform="matrix(0.153, -0.988, 0.988, 0.153, 4.255, 62.154)" fill="#c6c3fc"/>
          <line id="Línea_631" data-name="Línea 631" x1="17.247" y1="23.39" fill="none" stroke="#2d1a14" stroke-linecap="round" stroke-linejoin="round" stroke-miterlimit="10" stroke-width="1.614"/>
        </g>
        <ellipse id="Elipse_12172" data-name="Elipse 12172" cx="84.192" cy="82.034" rx="84.192" ry="82.034" transform="translate(336.907 305.189)" fill="#c6c3fc"/>
        <g id="Grupo_1165157" data-name="Grupo 1165157" transform="translate(365.34 345.586)">
          <g id="Grupo_1165156" data-name="Grupo 1165156" transform="translate(17.325)">
            <rect id="Rectángulo_413340" data-name="Rectángulo 413340" width="18.992" height="48.343" transform="translate(0 32.147)" fill="#6060cc"/>
            <rect id="Rectángulo_413341" data-name="Rectángulo 413341" width="19.079" height="67.478" transform="translate(25.898 13.009)" fill="#9898ea"/>
            <rect id="Rectángulo_413342" data-name="Rectángulo 413342" width="20.641" height="79.625" transform="translate(53.523)" fill="#8383dd"/>
          </g>
          <line id="Línea_632" data-name="Línea 632" x2="101.971" transform="translate(0 79.994)" fill="none" stroke="#2d1a14" stroke-linecap="round" stroke-linejoin="round" stroke-miterlimit="10" stroke-width="1.465"/>
        </g>
        <g id="Grupo_1165158" data-name="Grupo 1165158" transform="translate(76.236 184.203)">
          <path id="Trazado_1014261" data-name="Trazado 1014261" d="M190.481,229.205h-9.313a42.046,42.046,0,0,0-8.047-17.309l6.792-6.875a7.241,7.241,0,0,0-.2-10.423,7.717,7.717,0,0,0-10.708.211l-6.976,7.043a44.135,44.135,0,0,0-16.244-6.222v-9.939a7.573,7.573,0,0,0-15.141,0v9.939a44.226,44.226,0,0,0-16.256,6.222l-6.965-7.043a7.717,7.717,0,0,0-10.708-.211,7.233,7.233,0,0,0-.2,10.423L103.3,211.9a41.789,41.789,0,0,0-8.047,17.309H85.938a7.373,7.373,0,1,0,0,14.74h8.934A41.748,41.748,0,0,0,102.4,262.17l-5.9,5.969a7.22,7.22,0,0,0,.2,10.413,7.711,7.711,0,0,0,10.708-.2l5.711-5.77a44.221,44.221,0,0,0,17.51,7.055v7.834a7.573,7.573,0,0,0,15.141,0v-7.834a44.2,44.2,0,0,0,17.51-7.055l5.711,5.77a7.709,7.709,0,0,0,10.706.2,7.229,7.229,0,0,0,.2-10.413l-5.9-5.969a41.78,41.78,0,0,0,7.528-18.225h8.934a7.373,7.373,0,1,0,0-14.74ZM137.67,256.232a19.311,19.311,0,1,1,19.824-19.31A19.567,19.567,0,0,1,137.67,256.232Z" transform="translate(-78.367 -178.321)" fill="#c6c3fc"/>
          <ellipse id="Elipse_12173" data-name="Elipse 12173" cx="10.801" cy="10.514" rx="10.801" ry="10.514" transform="translate(49.078 48.252)" fill="none" stroke="#472a1c" stroke-miterlimit="10" stroke-width="1.522"/>
          <ellipse id="Elipse_12174" data-name="Elipse 12174" cx="34.479" cy="33.565" rx="34.479" ry="33.565" transform="translate(25.4 25.201)" fill="none" stroke="#472a1c" stroke-miterlimit="10" stroke-width="1.522"/>
        </g>
        <g id="Grupo_1165159" data-name="Grupo 1165159" transform="translate(441.664 157.694)">
          <path id="Trazado_1014262" data-name="Trazado 1014262" d="M404.923,195.077h-6.235a29.291,29.291,0,0,0-5.388-11.905l4.548-4.728a5.068,5.068,0,1,0-7.308-7.024l-4.672,4.845a29.1,29.1,0,0,0-10.876-4.279v-6.837a5.07,5.07,0,1,0-10.14,0v6.837a29.142,29.142,0,0,0-10.885,4.279l-4.663-4.845A5.068,5.068,0,1,0,342,178.444l4.548,4.728a29.1,29.1,0,0,0-5.388,11.905h-6.235a5.07,5.07,0,1,0,0,10.14H340.9a29.132,29.132,0,0,0,5.041,12.536L342,221.859a5.068,5.068,0,1,0,7.307,7.024l3.823-3.968a29.15,29.15,0,0,0,11.725,4.852v5.388a5.07,5.07,0,1,0,10.14,0v-5.388a29.188,29.188,0,0,0,11.725-4.852l3.824,3.968a5.068,5.068,0,0,0,7.308-7.024l-3.947-4.106a29.168,29.168,0,0,0,5.041-12.536h5.982a5.07,5.07,0,1,0,0-10.14ZM369.56,213.666a13.278,13.278,0,1,1,13.274-13.281A13.275,13.275,0,0,1,369.56,213.666Z" transform="translate(-329.852 -160.078)" fill="#8383dd"/>
          <path id="Trazado_1014263" data-name="Trazado 1014263" d="M366.932,190.15a7.232,7.232,0,1,1-7.232-7.232A7.231,7.231,0,0,1,366.932,190.15Z" transform="translate(-319.605 -149.73)" fill="none" stroke="#472a1c" stroke-miterlimit="10" stroke-width="1.033"/>
          <path id="Trazado_1014264" data-name="Trazado 1014264" d="M379.444,193.124a16.77,16.77,0,1,1-16.77-16.77A16.77,16.77,0,0,1,379.444,193.124Z" transform="translate(-322.579 -152.704)" fill="none" stroke="#472a1c" stroke-miterlimit="10" stroke-width="1.033"/>
        </g>
        <path id="Trazado_1014265" data-name="Trazado 1014265" d="M92.539,268.893a8.179,8.179,0,1,1-8.179-8.179A8.179,8.179,0,0,1,92.539,268.893Z" transform="translate(-3.122 43.213)" fill="none" stroke="#2d1a14" stroke-linecap="round" stroke-linejoin="round" stroke-miterlimit="10" stroke-width="1.614"/>
        <path id="Trazado_1014266" data-name="Trazado 1014266" d="M135.872,149.832a5.453,5.453,0,1,1-5.453-5.453A5.453,5.453,0,0,1,135.872,149.832Z" transform="translate(18.982 -9.497)" fill="none" stroke="#2d1a14" stroke-linecap="round" stroke-linejoin="round" stroke-miterlimit="10" stroke-width="1.614"/>
        <path id="Trazado_1014267" data-name="Trazado 1014267" d="M83.134,156.863a2.726,2.726,0,1,1-2.726-2.726A2.726,2.726,0,0,1,83.134,156.863Z" transform="translate(-2.441 -5.076)" fill="none" stroke="#2d1a14" stroke-linecap="round" stroke-linejoin="round" stroke-miterlimit="10" stroke-width="1.614"/>
        <circle id="Elipse_12175" data-name="Elipse 12175" cx="8.179" cy="8.179" r="8.179" transform="translate(223.563 59.632)" fill="none" stroke="#2d1a14" stroke-linecap="round" stroke-linejoin="round" stroke-miterlimit="10" stroke-width="1.614"/>
        <circle id="Elipse_12176" data-name="Elipse 12176" cx="2.726" cy="2.726" r="2.726" transform="translate(194.116 38.911)" fill="none" stroke="#2d1a14" stroke-linecap="round" stroke-linejoin="round" stroke-miterlimit="10" stroke-width="1.614"/>
        <circle id="Elipse_12177" data-name="Elipse 12177" cx="5.998" cy="5.998" r="5.998" transform="translate(307.538 483.876)" fill="none" stroke="#2d1a14" stroke-linecap="round" stroke-linejoin="round" stroke-miterlimit="10" stroke-width="1.614"/>
        <circle id="Elipse_12178" data-name="Elipse 12178" cx="4.362" cy="4.362" r="4.362" transform="translate(352.253 474.062)" fill="none" stroke="#2d1a14" stroke-linecap="round" stroke-linejoin="round" stroke-miterlimit="10" stroke-width="1.614"/>
        <circle id="Elipse_12179" data-name="Elipse 12179" cx="4.362" cy="4.362" r="4.362" transform="translate(294.451 556.947)" fill="none" stroke="#2d1a14" stroke-linecap="round" stroke-linejoin="round" stroke-miterlimit="10" stroke-width="1.614"/>
        <path id="Trazado_1014268" data-name="Trazado 1014268" d="M129.937,412.934a4.362,4.362,0,1,1-4.362-4.362A4.362,4.362,0,0,1,129.937,412.934Z" transform="translate(17.282 110.204)" fill="none" stroke="#2d1a14" stroke-linecap="round" stroke-linejoin="round" stroke-miterlimit="10" stroke-width="1.614"/>
        <path id="Trazado_1014269" data-name="Trazado 1014269" d="M394.469,282.134a4.907,4.907,0,1,1-4.907-4.908A4.907,4.907,0,0,1,394.469,282.134Z" transform="translate(136.642 50.694)" fill="none" stroke="#2d1a14" stroke-linecap="round" stroke-linejoin="round" stroke-miterlimit="10" stroke-width="1.614"/>
        <path id="Trazado_1014270" data-name="Trazado 1014270" d="M402.046,303.184a3.817,3.817,0,1,1-3.817-3.817A3.817,3.817,0,0,1,402.046,303.184Z" transform="translate(141.063 60.726)" fill="none" stroke="#2d1a14" stroke-linecap="round" stroke-linejoin="round" stroke-miterlimit="10" stroke-width="1.614"/>
        <circle id="Elipse_12180" data-name="Elipse 12180" cx="3.817" cy="3.817" r="3.817" transform="translate(206.657 283.206)" fill="none" stroke="#2d1a14" stroke-linecap="round" stroke-linejoin="round" stroke-miterlimit="10" stroke-width="1.614"/>
        <path id="Trazado_1014271" data-name="Trazado 1014271" d="M420.117,179.373a8.724,8.724,0,1,1-8.724-8.724A8.724,8.724,0,0,1,420.117,179.373Z" transform="translate(144.804 2.406)" fill="none" stroke="#2d1a14" stroke-linecap="round" stroke-linejoin="round" stroke-miterlimit="10" stroke-width="1.614"/>
        <path id="Trazado_1014272" data-name="Trazado 1014272" d="M107.612,118.283l4.153,7.594,7.594,4.153-7.594,4.153-4.153,7.592-4.153-7.592-7.592-4.153,7.592-4.153Z" transform="translate(5.798 -21.32)" fill="#ff9e00"/>
        <path id="Trazado_1014273" data-name="Trazado 1014273" d="M139.459,107.529l1.966,3.595,3.595,1.966-3.595,1.966-1.966,3.595-1.966-3.595L133.9,113.09l3.595-1.966Z" transform="translate(23.029 -26.193)" fill="#ff9e00"/>
        <path id="Trazado_1014274" data-name="Trazado 1014274" d="M215.831,388.922l4.311,7.883,7.882,4.311-7.882,4.31-4.311,7.883-4.311-7.883-7.883-4.31,7.883-4.311Z" transform="translate(54.627 101.301)" fill="#ff9e00"/>
        <path id="Trazado_1014275" data-name="Trazado 1014275" d="M206.178,428.033l2.726,4.984,4.986,2.727L208.9,438.47l-2.726,4.986-2.727-4.986-4.984-2.726,4.984-2.727Z" transform="translate(52.284 119.022)" fill="#ff9e00"/>
        <path id="Trazado_1014276" data-name="Trazado 1014276" d="M438.917,345.911l3.659,6.689,6.689,3.657-6.689,3.659-3.659,6.688-3.657-6.688-6.689-3.659,6.689-3.657Z" transform="translate(156.54 81.814)" fill="#ff9e00"/>
        <path id="Trazado_1014277" data-name="Trazado 1014277" d="M457.358,330.422l1.59,2.908,2.908,1.59-2.908,1.59-1.59,2.908-1.59-2.908-2.908-1.59,2.908-1.59Z" transform="translate(167.545 74.796)" fill="#ff9e00"/>
        <path id="Trazado_1014278" data-name="Trazado 1014278" d="M410.072,222.193l2.438,4.458,4.46,2.44-4.46,2.438-2.438,4.46-2.438-4.46-4.46-2.438,4.46-2.44Z" transform="translate(145.033 25.759)" fill="#ff9e00"/>
        <path id="Trazado_1014279" data-name="Trazado 1014279" d="M430.662,201.962l2.807,5.132L438.6,209.9l-5.132,2.806-2.807,5.134-2.807-5.134-5.132-2.806,5.132-2.807Z" transform="translate(153.89 16.593)" fill="#ff9e00"/>
        <path id="Trazado_1014280" data-name="Trazado 1014280" d="M325.032,230.2l2.183,3.989,3.987,2.181-3.987,2.181-2.183,3.989-2.181-3.989-3.987-2.181,3.987-2.181Z" transform="translate(106.834 29.387)" fill="#ff9e00"/>
        <path id="Trazado_1014281" data-name="Trazado 1014281" d="M166.445,184.159l1.927,3.525,3.525,1.927-3.525,1.928-1.927,3.525-1.928-3.525-3.525-1.928,3.525-1.927Z" transform="translate(35.305 8.527)" fill="#ff9e00"/>
        <path id="Trazado_1014282" data-name="Trazado 1014282" d="M202.2,130.567l2.469,4.515,4.515,2.469-4.515,2.469-2.469,4.515-2.469-4.515-4.515-2.469,4.515-2.469Z" transform="translate(50.81 -15.755)" fill="#ff9e00"/>
        <path id="Trazado_1014283" data-name="Trazado 1014283" d="M207.949,55.322l2.181,3.989,3.987,2.181-3.987,2.181-2.181,3.989-2.183-3.989-3.987-2.181,3.987-2.181Z" transform="translate(53.785 -49.847)" fill="#ff9e00"/>
        <path id="Trazado_1014284" data-name="Trazado 1014284" d="M303.069,90.881l2.807,5.132,5.132,2.807-5.132,2.807-2.807,5.132-2.807-5.132-5.132-2.807,5.132-2.807Z" transform="translate(96.08 -33.736)" fill="#ff9e00"/>
        <path id="Trazado_1014285" data-name="Trazado 1014285" d="M332.017,75.237l1.59,2.908,2.908,1.59-2.908,1.59-1.59,2.906-1.59-2.906-2.908-1.59,2.908-1.59Z" transform="translate(110.756 -40.824)" fill="#ff9e00"/>
        <path id="Trazado_1014286" data-name="Trazado 1014286" d="M417.258,131.331l2.077,3.8,3.8,2.076-3.8,2.076-2.077,3.8-2.076-3.8-3.8-2.076,3.8-2.076Z" transform="translate(148.753 -15.409)" fill="#ff9e00"/>
        <circle id="Elipse_12181" data-name="Elipse 12181" cx="15.269" cy="15.269" r="15.269" transform="translate(64.332 410.805)" fill="#e1f5f7"/>
        <g id="Grupo_1165162" data-name="Grupo 1165162" transform="translate(479.38 375.892)">
          <g id="Grupo_1165161" data-name="Grupo 1165161" transform="translate(31.933 57.524)">
            <g id="Grupo_1165160" data-name="Grupo 1165160">
              <path id="Trazado_1014287" data-name="Trazado 1014287" d="M474.911,461.761q-8.392,7.169-16.94,14.157L383.493,389a23.734,23.734,0,0,1,33.632-33.322l89.164,77.845C496.116,443.247,485.609,452.621,474.911,461.761Z" transform="translate(-377.784 -349.827)" fill="#15da7e"/>
              <path id="Trazado_1014288" data-name="Trazado 1014288" d="M452.526,470.691l-51.885-61.458c13.922-11.6,28.227-22.732,43.019-33.209l62.834,46.987Z" transform="translate(-367.428 -337.958)" fill="#15da7e"/>
            </g>
          </g>
          <line id="Línea_633" data-name="Línea 633" y1="31.628" x2="39.262" transform="translate(50.278 79.507)" fill="none" stroke="#ff9e00" stroke-linecap="round" stroke-linejoin="round" stroke-miterlimit="10" stroke-width="0.751"/>
          <path id="Trazado_1014289" data-name="Trazado 1014289" d="M431.14,363.612c-1.886-9.307-9.791-15.56-17.656-13.966a13.477,13.477,0,0,0-9.105,7.047l-36.635-41.667c-1.6-1.824-3.315-3.72-5.612-4.5s-5.333.045-6.123,2.339c-.734,2.132.68,4.349,2.021,6.16,6.86,9.258,13.312,18.32,20.172,27.578a12.4,12.4,0,0,0-8.736,7.053,10.161,10.161,0,0,0,.555,10.083c-4.474-.466-7.976,4.558-7.607,9.041s3.354,8.277,6.383,11.6a127.008,127.008,0,0,0,27.4,22.671c5.392,3.31,8.755,6.991,14.68,9.207l18.005-30.987c2.624-3.364,3.739-1.024,2.523-5.148C432.324,377.186,431.827,367,431.14,363.612Z" transform="translate(-355.808 -310.24)" fill="#732d19"/>
          <path id="Trazado_1014290" data-name="Trazado 1014290" d="M388.479,341.888a29.328,29.328,0,0,1,15.612,6.359" transform="translate(-341.005 -295.901)" fill="none" stroke="#2d1a14" stroke-linecap="round" stroke-linejoin="round" stroke-miterlimit="10" stroke-width="1.594"/>
        </g>
        <path id="Trazado_1014291" data-name="Trazado 1014291" d="M345.762,119.167c-1.136,0-37.818,12.145-53.757,17.44a13.062,13.062,0,0,0-8.713,9.948l-7.342,38.377a13.785,13.785,0,0,0,6.844,14.64h0l-.936,2.807c-.742,2.411-.254,4.117.928,5.363a6.012,6.012,0,0,0,8,.334l.966-.756,25.066-36.812,30.394,4.843,29.062-22.28Z" transform="translate(87.279 -20.92)" fill="#c75434"/>
        <path id="Trazado_1014292" data-name="Trazado 1014292" d="M359.591,133.561a1.653,1.653,0,0,1,.164.209,3.022,3.022,0,0,1,.378,1.176c1.312,7.43,2.525,15,1.574,22.489s-4.374,14.987-10.624,19.216c-4.651,3.147-10.36,4.207-15.888,5.195l-21.161,3.781a32.114,32.114,0,0,1-8.562.748c-1.922-.177-3.976-.82-5.047-2.428-1.425-2.14-.469-5.2,1.43-6.933s4.48-2.464,6.96-3.143c7.726-2.111,14.93-5.124,22.657-7.235-1.482.31-4.294-1.042-5.109-2.318-8.548-13.4,6.373-29.051,19.441-33.037.635-.193,1.277-.36,1.925-.5a19.918,19.918,0,0,1,2.193-.339c.222-.022.446-.039.668-.054,2.807-.177,5.464,1.162,7.957,2.464A3.739,3.739,0,0,1,359.591,133.561Z" transform="translate(98.169 -15.841)" fill="#c75434"/>
        <g id="Grupo_1165163" data-name="Grupo 1165163" transform="translate(368.002 105.733)">
          <path id="Trazado_1014293" data-name="Trazado 1014293" d="M345.333,127.981l-56.493,65.89a27.621,27.621,0,0,0-5.036,8.246,10.392,10.392,0,0,0-.615,2.717,3.058,3.058,0,0,0,.836,2.658,2.641,2.641,0,0,0,1.967.509c2.755-.218,7.037-3.086,10.778-7.47l55.525-64.922Z" transform="translate(-277.338 -122.66)" fill="#e0860e"/>
          <path id="Trazado_1014294" data-name="Trazado 1014294" d="M345.748,130.418,283.19,203.732a3.058,3.058,0,0,0,.836,2.658,2.642,2.642,0,0,0,1.967.509l63.283-74.154Z" transform="translate(-277.337 -121.555)" fill="#fab919"/>
          <path id="Trazado_1014295" data-name="Trazado 1014295" d="M279.164,192.862l14.526-9.882-6.938-5.825S278.912,193.571,279.164,192.862Z" transform="translate(-279.158 -100.38)" fill="#f6c8b0"/>
          <path id="Trazado_1014296" data-name="Trazado 1014296" d="M282.092,183.836c-1.455,3.022-2.732,5.66-2.918,5.987l5.551-3.777Z" transform="translate(-279.151 -97.353)" fill="#2d1a14"/>
          <path id="Trazado_1014297" data-name="Trazado 1014297" d="M334.094,135.883l1.989-2.325a6.423,6.423,0,0,0,1.254-6.677,4.384,4.384,0,0,0-1.131-1.5,4.439,4.439,0,0,0-2.254-1.007,6.552,6.552,0,0,0-5.775,2.438l-1.989,2.323Z" transform="translate(-257.849 -124.319)" fill="#fc9090"/>
          <path id="Trazado_1014298" data-name="Trazado 1014298" d="M335.289,124.784a4.575,4.575,0,0,0-1.337-.41,6.552,6.552,0,0,0-5.775,2.438l-1.989,2.323,3.1,2.648Z" transform="translate(-257.849 -124.318)" fill="#ee4954"/>
          <path id="Trazado_1014299" data-name="Trazado 1014299" d="M324.921,130.552l7.826,6.571c.525.44.1,1.8-.937,3.015l-.061.071c-1.04,1.219-2.319,1.856-2.842,1.415l-7.826-6.571c-.525-.44-.1-1.8.937-3.015l.061-.071C323.117,130.75,324.4,130.112,324.921,130.552Z" transform="translate(-260.266 -121.558)" fill="#e0dede"/>
          <path id="Trazado_1014300" data-name="Trazado 1014300" d="M327.452,127.615l7.94,6.667c.493.414.031,1.766-1.024,3h0c-1.056,1.238-2.323,1.912-2.816,1.5l-7.94-6.667c-.493-.414-.032-1.766,1.026-3h0C325.692,127.875,326.959,127.2,327.452,127.615Z" transform="translate(-259.106 -122.881)" fill="#fff"/>
        </g>
        <path id="Trazado_1014301" data-name="Trazado 1014301" d="M334,160.69c-.773-1.59-1.646-3.124-2.556-4.64l-23.267,6.784a17.761,17.761,0,0,0-6.6,2.954c-1.863,1.558-3.049,4.2-2.185,6.465,1.466,3.852,6.879,3.758,10.923,2.963l25.195-4.951q.979-.192,1.96-.391A58.2,58.2,0,0,0,334,160.69Z" transform="translate(97.883 -4.209)" fill="#c75434"/>
        <path id="Trazado_1014302" data-name="Trazado 1014302" d="M297.905,134.587a12.827,12.827,0,0,0,1.234,16.15c-6.8,12.839-12.3,26.185-17.594,39.716" transform="translate(89.925 -13.933)" fill="none" stroke="#2d1a14" stroke-linecap="round" stroke-linejoin="round" stroke-miterlimit="10" stroke-width="1.594"/>
        <path id="Trazado_1014303" data-name="Trazado 1014303" d="M343.286,148.991a41.593,41.593,0,0,0-2.826-16.007" transform="translate(116.619 -14.66)" fill="none" stroke="#2d1a14" stroke-linecap="round" stroke-linejoin="round" stroke-miterlimit="10" stroke-width="1.594"/>
      </g>
    </g>
  </g>
</svg>
