<svg xmlns="http://www.w3.org/2000/svg" xmlns:xlink="http://www.w3.org/1999/xlink" width="113" height="113" viewBox="0 0 113 113">
  <defs>
    <filter id="Trazado_982547" x="0" y="0" width="113" height="113" filterUnits="userSpaceOnUse">
      <feOffset dy="3" input="SourceAlpha"/>
      <feGaussianBlur stdDeviation="3" result="blur"/>
      <feFlood flood-opacity="0.161"/>
      <feComposite operator="in" in2="blur"/>
      <feComposite in="SourceGraphic"/>
    </filter>
  </defs>
  <g id="Grupo_1224695" data-name="Grupo 1224695" transform="translate(-355.49 -1614.135)">
    <g id="Grupo_1224582" data-name="Grupo 1224582" transform="translate(0 -5449.616)">
      <g id="Grupo_1224449" data-name="Grupo 1224449" transform="translate(364.49 7069.751)">
        <g id="Grupo_1224084" data-name="Grupo 1224084" transform="translate(0 0)">
          <g id="Grupo_1223183" data-name="Grupo 1223183">
            <g id="Grupo_1211217" data-name="Grupo 1211217">
              <g id="Grupo_1210736" data-name="Grupo 1210736">
                <g id="Grupo_1210537" data-name="Grupo 1210537">
                  <g id="Grupo_1164202" data-name="Grupo 1164202">
                    <g id="Grupo_1158168" data-name="Grupo 1158168">
                      <g id="Grupo_1152576" data-name="Grupo 1152576">
                        <g id="Grupo_1148633" data-name="Grupo 1148633">
                          <g id="Grupo_1148525" data-name="Grupo 1148525">
                            <g transform="matrix(1, 0, 0, 1, -9, -6)" filter="url(#Trazado_982547)">
                              <g id="Trazado_982547-2" data-name="Trazado 982547" transform="translate(9 6)" fill="#fef9e5">
                                <path d="M 47.49999618530273 93.5 C 41.28936767578125 93.5 35.26533126831055 92.28396606445312 29.59518241882324 89.88570404052734 C 24.11771583557129 87.56893157958984 19.19812965393066 84.251953125 14.97308921813965 80.02690124511719 C 10.74803638458252 75.80186462402344 7.431062698364258 70.88227844238281 5.114289283752441 65.40480804443359 C 2.716022968292236 59.73466110229492 1.499996185302734 53.71062469482422 1.499996185302734 47.49999618530273 C 1.499996185302734 41.28936767578125 2.716022968292236 35.26533126831055 5.114289283752441 29.59518241882324 C 7.431062698364258 24.11771583557129 10.74803638458252 19.19812965393066 14.97308921813965 14.97308921813965 C 19.19812965393066 10.74803638458252 24.11771583557129 7.431062698364258 29.59518241882324 5.114289283752441 C 35.26533126831055 2.716022968292236 41.28936767578125 1.499996185302734 47.49999618530273 1.499996185302734 C 53.71062469482422 1.499996185302734 59.73466110229492 2.716022968292236 65.40480804443359 5.114289283752441 C 70.88227844238281 7.431062698364258 75.80186462402344 10.74803638458252 80.02690124511719 14.97308921813965 C 84.251953125 19.19812965393066 87.56893157958984 24.11771583557129 89.88570404052734 29.59518241882324 C 92.28396606445312 35.26533126831055 93.5 41.28936767578125 93.5 47.49999618530273 C 93.5 53.71062469482422 92.28396606445312 59.73466110229492 89.88570404052734 65.40480804443359 C 87.56893157958984 70.88227844238281 84.251953125 75.80186462402344 80.02690124511719 80.02690124511719 C 75.80186462402344 84.251953125 70.88227844238281 87.56893157958984 65.40480804443359 89.88570404052734 C 59.73466110229492 92.28396606445312 53.71062469482422 93.5 47.49999618530273 93.5 Z" stroke="none"/>
                                <path d="M 47.49999618530273 2.999992370605469 C 41.4912109375 2.999992370605469 35.66376495361328 4.1761474609375 30.17950439453125 6.495796203613281 C 24.88084411621094 8.736953735351562 20.12152099609375 11.94598388671875 16.03375244140625 16.03375244140625 C 11.94598388671875 20.12152099609375 8.736953735351562 24.88084411621094 6.495796203613281 30.17950439453125 C 4.1761474609375 35.66376495361328 2.999992370605469 41.4912109375 2.999992370605469 47.49999618530273 C 2.999992370605469 53.50878143310547 4.1761474609375 59.33622741699219 6.495796203613281 64.82048797607422 C 8.736953735351562 70.11914825439453 11.94598388671875 74.87847137451172 16.03375244140625 78.96623992919922 C 20.12152099609375 83.05400848388672 24.88084411621094 86.26304626464844 30.17950439453125 88.50419616699219 C 35.66376495361328 90.82384490966797 41.4912109375 92 47.49999618530273 92 C 53.50878143310547 92 59.33622741699219 90.82384490966797 64.82048797607422 88.50419616699219 C 70.11914825439453 86.26304626464844 74.87847137451172 83.05400848388672 78.96623992919922 78.96623992919922 C 83.05400848388672 74.87847137451172 86.26304626464844 70.11914825439453 88.50419616699219 64.82048797607422 C 90.82384490966797 59.33622741699219 92 53.50878143310547 92 47.49999618530273 C 92 41.4912109375 90.82384490966797 35.66376495361328 88.50419616699219 30.17950439453125 C 86.26304626464844 24.88084411621094 83.05400848388672 20.12152099609375 78.96623992919922 16.03375244140625 C 74.87847137451172 11.94598388671875 70.11914825439453 8.736953735351562 64.82048797607422 6.495796203613281 C 59.33622741699219 4.1761474609375 53.50878143310547 2.999992370605469 47.49999618530273 2.999992370605469 M 47.49999618530273 -7.62939453125e-06 C 73.7335205078125 -7.62939453125e-06 95 21.26647186279297 95 47.49999618530273 C 95 73.7335205078125 73.7335205078125 95 47.49999618530273 95 C 21.26647186279297 95 -7.62939453125e-06 73.7335205078125 -7.62939453125e-06 47.49999618530273 C -7.62939453125e-06 21.26647186279297 21.26647186279297 -7.62939453125e-06 47.49999618530273 -7.62939453125e-06 Z" stroke="none" fill="#f6c810"/>
                              </g>
                            </g>
                          </g>
                        </g>
                      </g>
                    </g>
                  </g>
                </g>
              </g>
            </g>
          </g>
        </g>
      </g>
    </g>
    <g id="memory_7070926" transform="translate(372.561 1626.661)">
      <g id="Grupo_1224685" data-name="Grupo 1224685" transform="translate(7.5 9.273)">
        <path id="Trazado_1051630" data-name="Trazado 1051630" d="M303.625,204.092l-10.942,13.847.6,7.291a2.122,2.122,0,0,1-2.115,2.3H278.115a2.122,2.122,0,0,1-2.122-2.122V219.89a8.539,8.539,0,0,1,3.609-6.973l19-13.438.681-10.555a2.107,2.107,0,0,1,4.171-.269l1.747,8.922A8.022,8.022,0,0,1,303.625,204.092Z" transform="translate(-241.495 -164.122)" fill="#ffdfcf"/>
        <path id="Trazado_1051631" data-name="Trazado 1051631" d="M391.822,204.092l-10.942,13.847.6,7.291a2.122,2.122,0,0,1-2.115,2.3h-2.169a2.279,2.279,0,0,0,1.706-2.394l-.514-6.29a2.3,2.3,0,0,1,.488-1.613l10.38-13.136a8.022,8.022,0,0,0,1.579-6.514l-1.747-8.922a2.085,2.085,0,0,0-.783-1.264,1.947,1.947,0,0,1,.28-.184,2.108,2.108,0,0,1,3.072,1.448l1.747,8.922A8.021,8.021,0,0,1,391.822,204.092Z" transform="translate(-329.693 -164.122)" fill="#ffcebf"/>
        <path id="Trazado_1051632" data-name="Trazado 1051632" d="M334.227,285.848l3.633-10.667a2.26,2.26,0,0,1,1.573-1.459h0a2.26,2.26,0,0,1,2.81,2.466l-.826,6.658-3.119,8.413Z" transform="translate(-292.247 -239.68)" fill="#ffdfcf"/>
        <path id="Trazado_1051633" data-name="Trazado 1051633" d="M334.227,285.848l3.633-10.667a2.26,2.26,0,0,1,1.573-1.459h0a2.26,2.26,0,0,1,2.81,2.466l-.826,6.658-3.119,8.413Z" transform="translate(-292.247 -239.68)" fill="#ffdfcf"/>
        <path id="Trazado_1051634" data-name="Trazado 1051634" d="M334.227,285.848l3.633-10.667a2.26,2.26,0,0,1,1.573-1.459h0a2.26,2.26,0,0,1,2.81,2.466l-.826,6.658-3.119,8.413Z" transform="translate(-292.247 -239.68)" fill="#ffdfcf"/>
        <g id="Grupo_1224682" data-name="Grupo 1224682" transform="translate(0 22.829)">
          <g id="Grupo_1224681" data-name="Grupo 1224681">
            <g id="Grupo_1224680" data-name="Grupo 1224680">
              <path id="Trazado_1051635" data-name="Trazado 1051635" d="M36.861,219.89V225.4a2.122,2.122,0,0,1-2.122,2.122H21.69a2.122,2.122,0,0,1-2.115-2.3l.6-7.291L9.229,204.092a8.022,8.022,0,0,1-1.579-6.514L9.4,188.655a2.107,2.107,0,0,1,4.171.269l.681,10.555,19,13.438A8.539,8.539,0,0,1,36.861,219.89Z" transform="translate(-7.5 -186.952)" fill="#ffdfcf"/>
              <path id="Trazado_1051636" data-name="Trazado 1051636" d="M55.035,219.891V225.4a2.122,2.122,0,0,1-2.122,2.122H51a1.854,1.854,0,0,0,1.467-1.813v-5.822a8.539,8.539,0,0,0-3.609-6.973L30.765,200.124a2.34,2.34,0,0,1-.984-1.76l-.609-9.44a2.108,2.108,0,0,0-.818-1.533,2.108,2.108,0,0,1,3.388,1.533l.681,10.555,19,13.438A8.539,8.539,0,0,1,55.035,219.891Z" transform="translate(-25.675 -186.952)" fill="#ffcebf"/>
              <path id="Trazado_1051637" data-name="Trazado 1051637" d="M123.292,285.848l-3.633-10.667a2.26,2.26,0,0,0-1.573-1.459h0a2.26,2.26,0,0,0-2.81,2.466l.826,6.658,3.119,8.413Z" transform="translate(-101.414 -262.509)" fill="#ffdfcf"/>
              <path id="Trazado_1051638" data-name="Trazado 1051638" d="M129.91,285.852l-.837,1.113-.8-.513a3.181,3.181,0,0,1-1.292-1.651l-3.276-9.616a2.247,2.247,0,0,0-.854-1.129,2.229,2.229,0,0,1,1.278-.4,2.285,2.285,0,0,1,.573.073,2.259,2.259,0,0,1,1.573,1.46Z" transform="translate(-108.031 -262.512)" fill="#ffcebf"/>
            </g>
          </g>
        </g>
        <path id="Trazado_1051639" data-name="Trazado 1051639" d="M145.179,30.539V60.276a2.4,2.4,0,0,1-2.405,2.405h0a3.238,3.238,0,0,1-3.066-2.195L139,58.4s-7.5-.216-7.4-8.574c0,0-4.061-3.612-2.33-10.589,1.49-6.005,7.5-7.489,9.232-7.054a4.9,4.9,0,0,1,4.633-3.69A2.045,2.045,0,0,1,145.179,30.539Z" transform="translate(-113.25 -26.024)" fill="#fe76a8"/>
        <path id="Trazado_1051640" data-name="Trazado 1051640" d="M225.491,30.537V60.274a2.4,2.4,0,0,1-2.405,2.405,3.235,3.235,0,0,1-1.885-.605c-.072-.051-.141-.105-.208-.163a2.394,2.394,0,0,0,.644-1.637V30.537a2.044,2.044,0,0,0-.544-1.39,4.433,4.433,0,0,1,2.354-.655A2.045,2.045,0,0,1,225.491,30.537Z" transform="translate(-193.562 -26.022)" fill="#fe5694"/>
        <path id="Trazado_1051641" data-name="Trazado 1051641" d="M271.885,45.824a9.11,9.11,0,0,1-2.3,4c.105,8.358-7.4,8.574-7.4,8.574l-.709,2.084a3.238,3.238,0,0,1-3.066,2.2A2.4,2.4,0,0,1,256,60.274V30.537a2.045,2.045,0,0,1,2.044-2.045,4.9,4.9,0,0,1,4.633,3.69,4.539,4.539,0,0,1,1.772.037,9.435,9.435,0,0,1,7.46,7.018A12.373,12.373,0,0,1,271.885,45.824Z" transform="translate(-224.074 -26.022)" fill="#fe76a8"/>
        <path id="Trazado_1051642" data-name="Trazado 1051642" d="M273.269,49.823c.105,8.358-7.4,8.574-7.4,8.574l-.709,2.084a3.238,3.238,0,0,1-3.066,2.2,2.394,2.394,0,0,1-1.762-.768,3.234,3.234,0,0,0,.973-1.427l.192-.565a2.655,2.655,0,0,1,1.893-1.73,7.5,7.5,0,0,0,5.99-7.253,3.576,3.576,0,0,1,.731-1.9c1.077-1.413,2.895-4.711,1.633-9.8a9.44,9.44,0,0,0-7.829-7.076,2.638,2.638,0,0,1-1.941-1.25,5.109,5.109,0,0,0-1.741-1.765,2.045,2.045,0,0,1,1.5-.655,4.9,4.9,0,0,1,4.633,3.69c1.736-.434,7.741,1.05,9.232,7.055C277.33,46.212,273.269,49.823,273.269,49.823Z" transform="translate(-227.761 -26.02)" fill="#fe5694"/>
        <path id="Trazado_1051643" data-name="Trazado 1051643" d="M324.15,71.108A9.988,9.988,0,0,1,316.717,57.5a9.435,9.435,0,0,1,7.46,7.018A12.373,12.373,0,0,1,324.15,71.108Z" transform="translate(-276.339 -51.306)" fill="#fe5694"/>
        <g id="Grupo_1224684" data-name="Grupo 1224684" transform="translate(43.488 0)">
          <circle id="Elipse_12848" data-name="Elipse 12848" cx="9.983" cy="9.983" r="9.983" transform="translate(0 0)" fill="#5de1c4"/>
          <path id="Trazado_1051644" data-name="Trazado 1051644" d="M421.55,19.256a10,10,0,0,1-11.767,9.824,9.985,9.985,0,0,0,0-19.649,10,10,0,0,1,11.767,9.825Z" transform="translate(-401.584 -9.273)" fill="#0ed2b3"/>
          <g id="Grupo_1224683" data-name="Grupo 1224683" transform="translate(4.125 5.459)">
            <path id="Trazado_1051645" data-name="Trazado 1051645" d="M382.5,60.8a1.738,1.738,0,0,1-1.233-.511l-2.687-2.72a1.744,1.744,0,0,1,2.466-2.466l1.454,1.487,4.307-4.327a1.744,1.744,0,1,1,2.466,2.466l-5.54,5.56A1.738,1.738,0,0,1,382.5,60.8Z" transform="translate(-378.072 -51.756)" fill="#f2fbff"/>
          </g>
        </g>
      </g>
      <g id="Grupo_1224694" data-name="Grupo 1224694" transform="translate(7.5 9.273)">
        <circle id="Elipse_12849" data-name="Elipse 12849" cx="9.983" cy="9.983" r="9.983" transform="translate(43.488 0)" fill="none" stroke="#000" stroke-linecap="round" stroke-linejoin="round" stroke-miterlimit="10" stroke-width="1"/>
        <g id="Grupo_1224686" data-name="Grupo 1224686" transform="translate(47.613 5.459)">
          <path id="Trazado_1051646" data-name="Trazado 1051646" d="M382.5,60.8a1.738,1.738,0,0,1-1.233-.511l-2.687-2.72a1.744,1.744,0,0,1,2.466-2.466l1.454,1.487,4.307-4.327a1.744,1.744,0,1,1,2.466,2.466l-5.54,5.56A1.738,1.738,0,0,1,382.5,60.8Z" transform="translate(-378.072 -51.756)" fill="none" stroke="#000" stroke-linecap="round" stroke-linejoin="round" stroke-miterlimit="10" stroke-width="1"/>
        </g>
        <path id="Trazado_1051647" data-name="Trazado 1051647" d="M131.96,34.626c2.347-2.171,5.388-2.73,6.542-2.441a4.9,4.9,0,0,1,4.633-3.69,2.045,2.045,0,0,1,2.045,2.045V60.276a2.4,2.4,0,0,1-2.405,2.405h0a3.238,3.238,0,0,1-3.066-2.195L139,58.4s-7.5-.216-7.4-8.574c0,0-4.061-3.612-2.33-10.589q.116-.467.267-.9" transform="translate(-113.25 -26.025)" fill="none" stroke="#000" stroke-linecap="round" stroke-linejoin="round" stroke-miterlimit="10" stroke-width="1"/>
        <path id="Trazado_1051648" data-name="Trazado 1051648" d="M267.86,33.578a7.923,7.923,0,0,0-5.18-1.394,4.9,4.9,0,0,0-4.633-3.69A2.045,2.045,0,0,0,256,30.539V60.276a2.4,2.4,0,0,0,2.405,2.405h0a3.238,3.238,0,0,0,3.066-2.195l.71-2.085s7.5-.216,7.4-8.574a9.559,9.559,0,0,0,2.617-5.388" transform="translate(-224.074 -26.025)" fill="none" stroke="#000" stroke-linecap="round" stroke-linejoin="round" stroke-miterlimit="10" stroke-width="1"/>
        <g id="Grupo_1224693" data-name="Grupo 1224693" transform="translate(0 22.829)">
          <g id="Grupo_1224689" data-name="Grupo 1224689" transform="translate(34.498)">
            <g id="Grupo_1224688" data-name="Grupo 1224688">
              <g id="Grupo_1224687" data-name="Grupo 1224687">
                <path id="Trazado_1051649" data-name="Trazado 1051649" d="M392.5,204.883l7.642-5.4.681-10.555a2.107,2.107,0,0,1,4.171-.269l1.747,8.922a8.022,8.022,0,0,1-1.579,6.514l-2.513,3.18" transform="translate(-377.533 -186.952)" fill="none" stroke="#000" stroke-linecap="round" stroke-linejoin="round" stroke-miterlimit="10" stroke-width="1"/>
                <path id="Trazado_1051650" data-name="Trazado 1051650" d="M283.525,367.453l-3.923,2.774a8.539,8.539,0,0,0-3.609,6.973v5.513a2.122,2.122,0,0,0,2.122,2.122h13.049a2.122,2.122,0,0,0,2.115-2.3l-.6-7.291,5.629-7.124" transform="translate(-275.993 -344.261)" fill="none" stroke="#000" stroke-linecap="round" stroke-linejoin="round" stroke-miterlimit="10" stroke-width="1"/>
                <path id="Trazado_1051651" data-name="Trazado 1051651" d="M341.753,282.85l.3-2.405.527-4.253a2.26,2.26,0,0,0-2.236-2.539,2.284,2.284,0,0,0-.573.073,2.259,2.259,0,0,0-1.573,1.46L334.613,285.7" transform="translate(-327.081 -262.513)" fill="none" stroke="#000" stroke-linecap="round" stroke-linejoin="round" stroke-miterlimit="10" stroke-width="1"/>
              </g>
            </g>
          </g>
          <g id="Grupo_1224692" data-name="Grupo 1224692">
            <g id="Grupo_1224691" data-name="Grupo 1224691">
              <g id="Grupo_1224690" data-name="Grupo 1224690">
                <path id="Trazado_1051652" data-name="Trazado 1051652" d="M178.067,384.835H182.8a2.122,2.122,0,0,0,2.122-2.122V377.2a8.539,8.539,0,0,0-3.609-6.973l-3.923-2.774" transform="translate(-155.564 -344.261)" fill="none" stroke="#000" stroke-linecap="round" stroke-linejoin="round" stroke-miterlimit="10" stroke-width="1"/>
                <path id="Trazado_1051653" data-name="Trazado 1051653" d="M21.891,204.883l-7.642-5.4-.681-10.555a2.107,2.107,0,0,0-4.171-.269L7.65,197.578a8.022,8.022,0,0,0,1.579,6.514l10.942,13.847-.6,7.291a2.122,2.122,0,0,0,2.115,2.3h3.8" transform="translate(-7.5 -186.952)" fill="none" stroke="#000" stroke-linecap="round" stroke-linejoin="round" stroke-miterlimit="10" stroke-width="1"/>
                <path id="Trazado_1051654" data-name="Trazado 1051654" d="M116.107,282.85l-.3-2.405-.527-4.253a2.26,2.26,0,0,1,2.236-2.539,2.284,2.284,0,0,1,.573.073,2.259,2.259,0,0,1,1.573,1.46l3.583,10.519" transform="translate(-101.418 -262.513)" fill="none" stroke="#000" stroke-linecap="round" stroke-linejoin="round" stroke-miterlimit="10" stroke-width="1"/>
              </g>
            </g>
          </g>
        </g>
        <line id="Línea_1811" data-name="Línea 1811" x1="1.076" y1="3.679" transform="translate(24.673 28.698)" fill="none" stroke="#000" stroke-linecap="round" stroke-linejoin="round" stroke-miterlimit="10" stroke-width="1"/>
        <path id="Trazado_1051655" data-name="Trazado 1051655" d="M150.318,160.007a6.009,6.009,0,0,1,3.067-5.09" transform="translate(-131.968 -136.204)" fill="none" stroke="#000" stroke-linecap="round" stroke-linejoin="round" stroke-miterlimit="10" stroke-width="1"/>
        <path id="Trazado_1051656" data-name="Trazado 1051656" d="M169.8,119.439s-1.881,5.571,3.545,6.584" transform="translate(-148.67 -105.284)" fill="none" stroke="#000" stroke-linecap="round" stroke-linejoin="round" stroke-miterlimit="10" stroke-width="1"/>
        <path id="Trazado_1051657" data-name="Trazado 1051657" d="M202.84,57.215s-.772,2.906.916,4.353" transform="translate(-177.588 -51.055)" fill="none" stroke="#000" stroke-linecap="round" stroke-linejoin="round" stroke-miterlimit="10" stroke-width="1"/>
        <line id="Línea_1812" data-name="Línea 1812" y1="3.679" x2="1.076" transform="translate(38.109 28.698)" fill="none" stroke="#000" stroke-linecap="round" stroke-linejoin="round" stroke-miterlimit="10" stroke-width="1"/>
        <path id="Trazado_1051658" data-name="Trazado 1051658" d="M333.764,160.5s-.214-4.722-4.117-5.017" transform="translate(-288.256 -136.697)" fill="none" stroke="#000" stroke-linecap="round" stroke-linejoin="round" stroke-miterlimit="10" stroke-width="1"/>
        <path id="Trazado_1051659" data-name="Trazado 1051659" d="M304.752,143.278c.032,1.712-.675,3.9-3.914,3.714" transform="translate(-263.148 -126.06)" fill="none" stroke="#000" stroke-linecap="round" stroke-linejoin="round" stroke-miterlimit="10" stroke-width="1"/>
        <path id="Trazado_1051660" data-name="Trazado 1051660" d="M301.754,57.215s.772,2.906-.916,4.353" transform="translate(-263.148 -51.055)" fill="none" stroke="#000" stroke-linecap="round" stroke-linejoin="round" stroke-miterlimit="10" stroke-width="1"/>
      </g>
    </g>
  </g>
</svg>
