<svg xmlns="http://www.w3.org/2000/svg" xmlns:xlink="http://www.w3.org/1999/xlink" width="113" height="113" viewBox="0 0 113 113">
  <defs>
    <filter id="Trazado_982547" x="0" y="0" width="113" height="113" filterUnits="userSpaceOnUse">
      <feOffset dy="3" input="SourceAlpha"/>
      <feGaussianBlur stdDeviation="3" result="blur"/>
      <feFlood flood-opacity="0.161"/>
      <feComposite operator="in" in2="blur"/>
      <feComposite in="SourceGraphic"/>
    </filter>
  </defs>
  <g id="Grupo_1224778" data-name="Grupo 1224778" transform="translate(-8016 -1614.135)">
    <g id="Grupo_1224589" data-name="Grupo 1224589" transform="translate(7342 -5449.616)">
      <g id="Grupo_1224450" data-name="Grupo 1224450" transform="translate(683 7069.751)">
        <g id="Grupo_1224085" data-name="Grupo 1224085" transform="translate(0 0)">
          <g id="Grupo_1223184" data-name="Grupo 1223184">
            <g id="Grupo_1211216" data-name="Grupo 1211216">
              <g id="Grupo_1210737" data-name="Grupo 1210737">
                <g id="Grupo_1210537" data-name="Grupo 1210537">
                  <g id="Grupo_1164202" data-name="Grupo 1164202">
                    <g id="Grupo_1158168" data-name="Grupo 1158168">
                      <g id="Grupo_1152576" data-name="Grupo 1152576">
                        <g id="Grupo_1148633" data-name="Grupo 1148633">
                          <g id="Grupo_1148525" data-name="Grupo 1148525">
                            <g transform="matrix(1, 0, 0, 1, -9, -6)" filter="url(#Trazado_982547)">
                              <g id="Trazado_982547-2" data-name="Trazado 982547" transform="translate(9 6)" fill="#fef9e5">
                                <path d="M 47.49999618530273 93.5 C 41.28936767578125 93.5 35.26533126831055 92.28396606445312 29.59518241882324 89.88570404052734 C 24.11771583557129 87.56893157958984 19.19812965393066 84.251953125 14.97308921813965 80.02690124511719 C 10.74803638458252 75.80186462402344 7.431062698364258 70.88227844238281 5.114289283752441 65.40480804443359 C 2.716022968292236 59.73466110229492 1.499996185302734 53.71062469482422 1.499996185302734 47.49999618530273 C 1.499996185302734 41.28936767578125 2.716022968292236 35.26533126831055 5.114289283752441 29.59518241882324 C 7.431062698364258 24.11771583557129 10.74803638458252 19.19812965393066 14.97308921813965 14.97308921813965 C 19.19812965393066 10.74803638458252 24.11771583557129 7.431062698364258 29.59518241882324 5.114289283752441 C 35.26533126831055 2.716022968292236 41.28936767578125 1.499996185302734 47.49999618530273 1.499996185302734 C 53.71062469482422 1.499996185302734 59.73466110229492 2.716022968292236 65.40480804443359 5.114289283752441 C 70.88227844238281 7.431062698364258 75.80186462402344 10.74803638458252 80.02690124511719 14.97308921813965 C 84.251953125 19.19812965393066 87.56893157958984 24.11771583557129 89.88570404052734 29.59518241882324 C 92.28396606445312 35.26533126831055 93.5 41.28936767578125 93.5 47.49999618530273 C 93.5 53.71062469482422 92.28396606445312 59.73466110229492 89.88570404052734 65.40480804443359 C 87.56893157958984 70.88227844238281 84.251953125 75.80186462402344 80.02690124511719 80.02690124511719 C 75.80186462402344 84.251953125 70.88227844238281 87.56893157958984 65.40480804443359 89.88570404052734 C 59.73466110229492 92.28396606445312 53.71062469482422 93.5 47.49999618530273 93.5 Z" stroke="none"/>
                                <path d="M 47.49999618530273 2.999992370605469 C 41.4912109375 2.999992370605469 35.66376495361328 4.1761474609375 30.17950439453125 6.495796203613281 C 24.88084411621094 8.736953735351562 20.12152099609375 11.94598388671875 16.03375244140625 16.03375244140625 C 11.94598388671875 20.12152099609375 8.736953735351562 24.88084411621094 6.495796203613281 30.17950439453125 C 4.1761474609375 35.66376495361328 2.999992370605469 41.4912109375 2.999992370605469 47.49999618530273 C 2.999992370605469 53.50878143310547 4.1761474609375 59.33622741699219 6.495796203613281 64.82048797607422 C 8.736953735351562 70.11914825439453 11.94598388671875 74.87847137451172 16.03375244140625 78.96623992919922 C 20.12152099609375 83.05400848388672 24.88084411621094 86.26304626464844 30.17950439453125 88.50419616699219 C 35.66376495361328 90.82384490966797 41.4912109375 92 47.49999618530273 92 C 53.50878143310547 92 59.33622741699219 90.82384490966797 64.82048797607422 88.50419616699219 C 70.11914825439453 86.26304626464844 74.87847137451172 83.05400848388672 78.96623992919922 78.96623992919922 C 83.05400848388672 74.87847137451172 86.26304626464844 70.11914825439453 88.50419616699219 64.82048797607422 C 90.82384490966797 59.33622741699219 92 53.50878143310547 92 47.49999618530273 C 92 41.4912109375 90.82384490966797 35.66376495361328 88.50419616699219 30.17950439453125 C 86.26304626464844 24.88084411621094 83.05400848388672 20.12152099609375 78.96623992919922 16.03375244140625 C 74.87847137451172 11.94598388671875 70.11914825439453 8.736953735351562 64.82048797607422 6.495796203613281 C 59.33622741699219 4.1761474609375 53.50878143310547 2.999992370605469 47.49999618530273 2.999992370605469 M 47.49999618530273 -7.62939453125e-06 C 73.7335205078125 -7.62939453125e-06 95 21.26647186279297 95 47.49999618530273 C 95 73.7335205078125 73.7335205078125 95 47.49999618530273 95 C 21.26647186279297 95 -7.62939453125e-06 73.7335205078125 -7.62939453125e-06 47.49999618530273 C -7.62939453125e-06 21.26647186279297 21.26647186279297 -7.62939453125e-06 47.49999618530273 -7.62939453125e-06 Z" stroke="none" fill="#f6c810"/>
                              </g>
                            </g>
                          </g>
                        </g>
                      </g>
                    </g>
                  </g>
                </g>
              </g>
            </g>
          </g>
        </g>
      </g>
    </g>
    <g id="sun_550799" transform="translate(8035.574 1612.756)">
      <path id="Trazado_1051700" data-name="Trazado 1051700" d="M166.848,174.874l-2.286,2.718.253,3.542a2.048,2.048,0,0,1-1.551,2.134l-3.448.852-1.873,3.015a2.048,2.048,0,0,1-2.512.816l-3.289-1.339-3.288,1.339a2.048,2.048,0,0,1-2.512-.816l-1.873-3.015-3.448-.852a2.048,2.048,0,0,1-1.551-2.134l.253-3.542-2.286-2.718a2.048,2.048,0,0,1,0-2.637l2.286-2.718-.253-3.542a2.048,2.048,0,0,1,1.551-2.134l3.448-.852,1.873-3.015a2.048,2.048,0,0,1,2.512-.816l3.289,1.339,3.288-1.339a2.048,2.048,0,0,1,2.512.816l1.873,3.015,3.448.852a2.048,2.048,0,0,1,1.551,2.134l-.253,3.542,2.286,2.718A2.048,2.048,0,0,1,166.848,174.874Z" transform="translate(-116.517 -117.882)" fill="#ff8c5a"/>
      <path id="Trazado_1051701" data-name="Trazado 1051701" d="M139.555,181.079a3.531,3.531,0,0,1-3-1.674l-1.553-2.5-2.859-.707a3.533,3.533,0,0,1-2.682-3.689l.21-2.938-1.9-2.254a3.533,3.533,0,0,1,0-4.558l1.9-2.254-.21-2.938a3.533,3.533,0,0,1,2.682-3.689l2.859-.707,1.553-2.5a3.532,3.532,0,0,1,4.342-1.41l2.726,1.11,2.726-1.11a3.532,3.532,0,0,1,4.342,1.41l1.553,2.5,2.859.707a3.533,3.533,0,0,1,2.682,3.689l-.21,2.938,1.9,2.254a3.533,3.533,0,0,1,0,4.558h0l-1.9,2.254.21,2.938A3.533,3.533,0,0,1,155.1,176.2l-2.859.707-1.553,2.5a3.532,3.532,0,0,1-4.342,1.41l-2.726-1.11-2.726,1.11A3.549,3.549,0,0,1,139.555,181.079Zm0-29.094a.555.555,0,0,0-.472.263l-1.873,3.015a1.493,1.493,0,0,1-.909.661l-3.448.852a.555.555,0,0,0-.421.579l.253,3.542a1.492,1.492,0,0,1-.347,1.067l-2.286,2.718a.555.555,0,0,0,0,.716l2.286,2.718a1.492,1.492,0,0,1,.347,1.067l-.253,3.542a.555.555,0,0,0,.421.579l3.448.852a1.492,1.492,0,0,1,.909.661l1.873,3.015a.555.555,0,0,0,.682.221l3.288-1.339a1.494,1.494,0,0,1,1.125,0l3.289,1.339a.554.554,0,0,0,.682-.221l1.873-3.015a1.492,1.492,0,0,1,.909-.661l3.448-.852a.555.555,0,0,0,.421-.579l-.253-3.542a1.492,1.492,0,0,1,.346-1.067l2.286-2.718h0a.555.555,0,0,0,0-.716l-2.286-2.718a1.492,1.492,0,0,1-.347-1.067l.253-3.542a.555.555,0,0,0-.421-.579l-3.448-.852a1.493,1.493,0,0,1-.909-.661l-1.873-3.015a.554.554,0,0,0-.682-.221l-3.288,1.339a1.494,1.494,0,0,1-1.125,0l-3.289-1.339A.556.556,0,0,0,139.558,151.984Z" transform="translate(-107.996 -109.365)"/>
      <circle id="Elipse_12852" data-name="Elipse 12852" cx="8.325" cy="8.325" r="8.325" transform="translate(27.299 47.349)" fill="#f9d973"/>
      <path id="Trazado_1051702" data-name="Trazado 1051702" d="M182.762,210.336a9.817,9.817,0,1,1,9.817-9.817A9.828,9.828,0,0,1,182.762,210.336Zm0-16.649a6.832,6.832,0,1,0,6.832,6.832A6.84,6.84,0,0,0,182.762,193.687Z" transform="translate(-147.138 -144.846)"/>
      <path id="Trazado_1051703" data-name="Trazado 1051703" d="M359.92,219.817a1.469,1.469,0,0,1-.291-.03,1.4,1.4,0,0,1-.279-.085,1.464,1.464,0,0,1-.258-.137,1.428,1.428,0,0,1-.227-.185,1.5,1.5,0,0,1-.437-1.055,1.472,1.472,0,0,1,.03-.291,1.506,1.506,0,0,1,.085-.279,1.47,1.47,0,0,1,.137-.258,1.45,1.45,0,0,1,.412-.412,1.474,1.474,0,0,1,.258-.137,1.508,1.508,0,0,1,.279-.085,1.469,1.469,0,0,1,.582,0,1.556,1.556,0,0,1,.281.085,1.514,1.514,0,0,1,.257.137,1.431,1.431,0,0,1,.227.185,1.524,1.524,0,0,1,.186.227,1.463,1.463,0,0,1,.136.258,1.4,1.4,0,0,1,.085.279,1.469,1.469,0,0,1,.03.291,1.5,1.5,0,0,1-.437,1.055,1.429,1.429,0,0,1-.227.185,1.512,1.512,0,0,1-.257.137,1.445,1.445,0,0,1-.281.085A1.469,1.469,0,0,1,359.92,219.817Z" transform="translate(-304.944 -167.077)"/>
      <path id="Trazado_1051704" data-name="Trazado 1051704" d="M111.63,154.186a1.5,1.5,0,0,1-.242-.02,21.615,21.615,0,1,1,22.417-31.8,1.492,1.492,0,1,1-2.61,1.448,18.631,18.631,0,1,0-19.327,27.408,1.492,1.492,0,0,1-.238,2.965Z" transform="translate(-79.362 -77.226)"/>
      <path id="Trazado_1051705" data-name="Trazado 1051705" d="M63.011,64.622l10.2,13.749,10.2-13.749h-6.1v-.609a33.509,33.509,0,0,0-9.793-23.736,33.212,33.212,0,0,0-47.193.03A33.385,33.385,0,0,0,10,64.03v.193a33.754,33.754,0,0,0,9.836,23.711,33.092,33.092,0,0,0,45.939,1.092l-5.56-5.362a25.862,25.862,0,0,1-16.869,6.408h-.119a25.075,25.075,0,0,1-18.119-7.681,25.973,25.973,0,0,1-7.372-18.2,25.5,25.5,0,0,1,8.2-18.608,25.716,25.716,0,0,1,18-7.46h.118A25.7,25.7,0,0,1,69.546,63.973v.65H63.012Z" transform="translate(-8.508 -8.508)" fill="#59c671"/>
      <path id="Trazado_1051706" data-name="Trazado 1051706" d="M34.833,90.748a34.4,34.4,0,0,1-24.564-10.27A35.239,35.239,0,0,1,0,55.724v-.2A34.874,34.874,0,0,1,10.769,30.74a34.7,34.7,0,0,1,49.3-.023A34.973,34.973,0,0,1,70.287,54.622h4.62A1.492,1.492,0,0,1,76.106,57L65.9,70.753a1.492,1.492,0,0,1-2.4,0L53.305,57a1.492,1.492,0,0,1,1.2-2.381h5.029A24.194,24.194,0,0,0,35.546,31.11h-.115A24.214,24.214,0,0,0,18.49,38.131l-.027.026A24.029,24.029,0,0,0,10.72,55.679a24.49,24.49,0,0,0,6.95,17.164,23.6,23.6,0,0,0,17.049,7.229h.116a24.441,24.441,0,0,0,15.882-6.033,1.492,1.492,0,0,1,2.025.043l5.56,5.362a1.492,1.492,0,0,1-.027,2.174A34.6,34.6,0,0,1,34.833,90.748Zm.6-67.311a31.6,31.6,0,0,0-22.555,9.416l-.015.015A31.908,31.908,0,0,0,2.984,55.533v.181a32.265,32.265,0,0,0,9.4,22.661,31.6,31.6,0,0,0,42.674,2.089l-3.424-3.3a27.54,27.54,0,0,1-16.791,5.894h-.124a26.557,26.557,0,0,1-19.192-8.134A27.454,27.454,0,0,1,7.736,55.686a26.977,26.977,0,0,1,8.652-19.674,27.224,27.224,0,0,1,19.032-7.886h.123A27.2,27.2,0,0,1,62.531,55.464v.65a1.492,1.492,0,0,1-1.492,1.492H57.469l7.237,9.753,7.237-9.753H68.808a1.492,1.492,0,0,1-1.492-1.49v-.609a32.025,32.025,0,0,0-9.359-22.685A31.559,31.559,0,0,0,35.433,23.437Z"/>
    </g>
  </g>
</svg>
