<svg xmlns="http://www.w3.org/2000/svg" xmlns:xlink="http://www.w3.org/1999/xlink" width="113" height="113" viewBox="0 0 113 113">
  <defs>
    <filter id="Trazado_982547" x="0" y="0" width="113" height="113" filterUnits="userSpaceOnUse">
      <feOffset dy="3" input="SourceAlpha"/>
      <feGaussianBlur stdDeviation="3" result="blur"/>
      <feFlood flood-opacity="0.161"/>
      <feComposite operator="in" in2="blur"/>
      <feComposite in="SourceGraphic"/>
    </filter>
  </defs>
  <g id="Grupo_1224786" data-name="Grupo 1224786" transform="translate(-8016 -2015.135)">
    <g id="Grupo_1224591" data-name="Grupo 1224591" transform="translate(7342 -5048.616)">
      <g id="Grupo_1224450" data-name="Grupo 1224450" transform="translate(683 7069.751)">
        <g id="Grupo_1224085" data-name="Grupo 1224085" transform="translate(0 0)">
          <g id="Grupo_1223184" data-name="Grupo 1223184">
            <g id="Grupo_1211216" data-name="Grupo 1211216">
              <g id="Grupo_1210737" data-name="Grupo 1210737">
                <g id="Grupo_1210537" data-name="Grupo 1210537">
                  <g id="Grupo_1164202" data-name="Grupo 1164202">
                    <g id="Grupo_1158168" data-name="Grupo 1158168">
                      <g id="Grupo_1152576" data-name="Grupo 1152576">
                        <g id="Grupo_1148633" data-name="Grupo 1148633">
                          <g id="Grupo_1148525" data-name="Grupo 1148525">
                            <g transform="matrix(1, 0, 0, 1, -9, -6)" filter="url(#Trazado_982547)">
                              <g id="Trazado_982547-2" data-name="Trazado 982547" transform="translate(9 6)" fill="#fef9e5">
                                <path d="M 47.49999618530273 93.5 C 41.28936767578125 93.5 35.26533126831055 92.28396606445312 29.59518241882324 89.88570404052734 C 24.11771583557129 87.56893157958984 19.19812965393066 84.251953125 14.97308921813965 80.02690124511719 C 10.74803638458252 75.80186462402344 7.431062698364258 70.88227844238281 5.114289283752441 65.40480804443359 C 2.716022968292236 59.73466110229492 1.499996185302734 53.71062469482422 1.499996185302734 47.49999618530273 C 1.499996185302734 41.28936767578125 2.716022968292236 35.26533126831055 5.114289283752441 29.59518241882324 C 7.431062698364258 24.11771583557129 10.74803638458252 19.19812965393066 14.97308921813965 14.97308921813965 C 19.19812965393066 10.74803638458252 24.11771583557129 7.431062698364258 29.59518241882324 5.114289283752441 C 35.26533126831055 2.716022968292236 41.28936767578125 1.499996185302734 47.49999618530273 1.499996185302734 C 53.71062469482422 1.499996185302734 59.73466110229492 2.716022968292236 65.40480804443359 5.114289283752441 C 70.88227844238281 7.431062698364258 75.80186462402344 10.74803638458252 80.02690124511719 14.97308921813965 C 84.251953125 19.19812965393066 87.56893157958984 24.11771583557129 89.88570404052734 29.59518241882324 C 92.28396606445312 35.26533126831055 93.5 41.28936767578125 93.5 47.49999618530273 C 93.5 53.71062469482422 92.28396606445312 59.73466110229492 89.88570404052734 65.40480804443359 C 87.56893157958984 70.88227844238281 84.251953125 75.80186462402344 80.02690124511719 80.02690124511719 C 75.80186462402344 84.251953125 70.88227844238281 87.56893157958984 65.40480804443359 89.88570404052734 C 59.73466110229492 92.28396606445312 53.71062469482422 93.5 47.49999618530273 93.5 Z" stroke="none"/>
                                <path d="M 47.49999618530273 2.999992370605469 C 41.4912109375 2.999992370605469 35.66376495361328 4.1761474609375 30.17950439453125 6.495796203613281 C 24.88084411621094 8.736953735351562 20.12152099609375 11.94598388671875 16.03375244140625 16.03375244140625 C 11.94598388671875 20.12152099609375 8.736953735351562 24.88084411621094 6.495796203613281 30.17950439453125 C 4.1761474609375 35.66376495361328 2.999992370605469 41.4912109375 2.999992370605469 47.49999618530273 C 2.999992370605469 53.50878143310547 4.1761474609375 59.33622741699219 6.495796203613281 64.82048797607422 C 8.736953735351562 70.11914825439453 11.94598388671875 74.87847137451172 16.03375244140625 78.96623992919922 C 20.12152099609375 83.05400848388672 24.88084411621094 86.26304626464844 30.17950439453125 88.50419616699219 C 35.66376495361328 90.82384490966797 41.4912109375 92 47.49999618530273 92 C 53.50878143310547 92 59.33622741699219 90.82384490966797 64.82048797607422 88.50419616699219 C 70.11914825439453 86.26304626464844 74.87847137451172 83.05400848388672 78.96623992919922 78.96623992919922 C 83.05400848388672 74.87847137451172 86.26304626464844 70.11914825439453 88.50419616699219 64.82048797607422 C 90.82384490966797 59.33622741699219 92 53.50878143310547 92 47.49999618530273 C 92 41.4912109375 90.82384490966797 35.66376495361328 88.50419616699219 30.17950439453125 C 86.26304626464844 24.88084411621094 83.05400848388672 20.12152099609375 78.96623992919922 16.03375244140625 C 74.87847137451172 11.94598388671875 70.11914825439453 8.736953735351562 64.82048797607422 6.495796203613281 C 59.33622741699219 4.1761474609375 53.50878143310547 2.999992370605469 47.49999618530273 2.999992370605469 M 47.49999618530273 -7.62939453125e-06 C 73.7335205078125 -7.62939453125e-06 95 21.26647186279297 95 47.49999618530273 C 95 73.7335205078125 73.7335205078125 95 47.49999618530273 95 C 21.26647186279297 95 -7.62939453125e-06 73.7335205078125 -7.62939453125e-06 47.49999618530273 C -7.62939453125e-06 21.26647186279297 21.26647186279297 -7.62939453125e-06 47.49999618530273 -7.62939453125e-06 Z" stroke="none" fill="#f6c810"/>
                              </g>
                            </g>
                          </g>
                        </g>
                      </g>
                    </g>
                  </g>
                </g>
              </g>
            </g>
          </g>
        </g>
      </g>
    </g>
    <g id="reputation_13340313" transform="translate(8032.635 2008.132)">
      <path id="Trazado_1051727" data-name="Trazado 1051727" d="M283.91,62.888a2.3,2.3,0,0,0,3.228-.171l8.265-9.225a1.094,1.094,0,0,1,1.55-.086l2.393,2.148a.459.459,0,0,0,.513.082.464.464,0,0,0,.283-.443l-.039-9.831a.461.461,0,0,0-.155-.35.48.48,0,0,0-.318-.12.251.251,0,0,0-.054,0L289.8,45.918a.478.478,0,0,0-.268.831l2.393,2.144a1.094,1.094,0,0,1,.086,1.55l-8.273,9.225a2.283,2.283,0,0,0,.175,3.22Z" transform="translate(-238.856 -13.837)" fill="#66f2bf"/>
      <path id="Trazado_1051728" data-name="Trazado 1051728" d="M101.1,63.854h4.929a1.08,1.08,0,0,0,0-2.16H97.065a1.094,1.094,0,0,1-1.1-1.1l.027-5.158V55.4a4.172,4.172,0,0,0-2.1-3.907,3.206,3.206,0,0,0-2.012-.528v1.864a22.464,22.464,0,0,1-.691,6.525,4.337,4.337,0,0,1-2.816,3.158V75.32c.217.128.423.253.629.373a5.976,5.976,0,0,0,3.414,1.223h12.4a1.08,1.08,0,0,0,0-2.16H101.1a1.1,1.1,0,1,1,0-2.195h4.929a1.08,1.08,0,1,0,0-2.159h-4.983a1.1,1.1,0,0,1,0-2.195h4.983a1.08,1.08,0,1,0,0-2.159H101.1a1.1,1.1,0,1,1,0-2.195Z" transform="translate(-70.768 -19.057)" fill="#ffddcf"/>
      <path id="Trazado_1051729" data-name="Trazado 1051729" d="M26.908,135.278a1.1,1.1,0,1,1-2.195,0v-3.053a1.1,1.1,0,1,1,2.195,0Zm1.627-14.954H23.09a.713.713,0,0,0-.7.7v16.309a.713.713,0,0,0,.7.7h5.445a.7.7,0,0,0,.7-.7V121.027a.7.7,0,0,0-.7-.7Z" transform="translate(-13.821 -78.933)" fill="#ccc4cc"/>
      <path id="Trazado_1051730" data-name="Trazado 1051730" d="M168.116,296.242h5.993v14.907h-5.993Z" transform="translate(-139.582 -230.746)" fill="#66f2bf"/>
      <path id="Trazado_1051731" data-name="Trazado 1051731" d="M70.462,341.71h6v8.677h-6Z" transform="translate(-55.308 -269.984)" fill="#f37467"/>
      <path id="Trazado_1051732" data-name="Trazado 1051732" d="M342.974,324.352a1.524,1.524,0,0,1-.563,1.709l-2.132,1.546.82,2.5a1.534,1.534,0,0,1-.559,1.717,1.465,1.465,0,0,1-.889.3,1.536,1.536,0,0,1-.9-.291l-2.14-1.561-2.144,1.569a1.531,1.531,0,0,1-2.338-1.728l.816-2.5-2.128-1.546a1.527,1.527,0,0,1,.889-2.769l2.641.008.812-2.509a1.525,1.525,0,0,1,2.905,0l.812,2.509,2.637-.008a1.532,1.532,0,0,1,1.46,1.06Zm-6.362-5.574a7.687,7.687,0,1,0,7.687,7.683A7.7,7.7,0,0,0,336.612,318.778Z" transform="translate(-278.356 -250.194)" fill="#e8ecf9"/>
      <path id="Trazado_1051733" data-name="Trazado 1051733" d="M368.148,213.362l1.216,1.1v-9.151h-6v9.1l1.161-1.045a2.688,2.688,0,0,1,3.62,0Z" transform="translate(-308.079 -152.271)" fill="#6ac9eb"/>
      <path id="Trazado_1051734" data-name="Trazado 1051734" d="M297.563,298.564a9.881,9.881,0,1,1,9.881-9.885A9.9,9.9,0,0,1,297.563,298.564Zm13.691-12.235-2.929-2.284a2.662,2.662,0,0,1-1.01-1.748l-.517-3.678a.506.506,0,0,0-.52-.439l-3.713.128a2.656,2.656,0,0,1-1.9-.7l-2.758-2.482a.5.5,0,0,0-.68,0l-2.758,2.482a2.687,2.687,0,0,1-1.911.7l-3.705-.128a.5.5,0,0,0-.524.439l-.517,3.674a2.623,2.623,0,0,1-1.018,1.756l-2.921,2.28a.511.511,0,0,0-.116.676l1.965,3.146a2.666,2.666,0,0,1,.354,1.993l-.769,3.632a.5.5,0,0,0,.342.594l3.527,1.146a2.645,2.645,0,0,1,1.55,1.293l1.744,3.286a.511.511,0,0,0,.641.233l3.445-1.391a2.647,2.647,0,0,1,1.01-.2,2.682,2.682,0,0,1,1.006.2l3.445,1.394a.51.51,0,0,0,.645-.233l1.744-3.278a2.665,2.665,0,0,1,1.554-1.3l3.527-1.142a.508.508,0,0,0,.342-.594l-.773-3.628a2.689,2.689,0,0,1,.35-2L311.371,287a.507.507,0,0,0-.117-.676Z" transform="translate(-239.308 -212.412)" fill="#f37467"/>
      <path id="Trazado_1051735" data-name="Trazado 1051735" d="M367.446,353.738l0-.023-.326-1.006-.326,1.006a1.525,1.525,0,0,1-1.453,1.06l-1.064,0,.854.621a1.511,1.511,0,0,1,.559,1.717l-.33,1.006.858-.625a1.547,1.547,0,0,1,.9-.291,1.527,1.527,0,0,1,.9.291l.862.625-.33-1.01a1.522,1.522,0,0,1,.559-1.713l.854-.621-1.06,0a1.542,1.542,0,0,1-1.453-1.037Z" transform="translate(-308.861 -279.476)" fill="#ffd675"/>
      <path id="Trazado_1051736" data-name="Trazado 1051736" d="M266.417,267.264a2.7,2.7,0,0,1,.625-3.566l2.929-2.284a.455.455,0,0,0,.19-.326l.517-3.678a2.685,2.685,0,0,1,1.06-1.787v-4.847h-6v21.137h2.47l.237-1.122a.455.455,0,0,0-.07-.384l-1.961-3.142Z" transform="translate(-223.83 -191.51)" fill="#ffee93"/>
      <g id="Grupo_1224785" data-name="Grupo 1224785" transform="translate(6.372 28.859)">
        <path id="Trazado_1051737" data-name="Trazado 1051737" d="M269.937,45.831l8.273-9.225a1.094,1.094,0,0,0-.085-1.55l-2.393-2.144a.478.478,0,0,1,.268-.831l9.776-1.021a.251.251,0,0,1,.054,0,.48.48,0,0,1,.318.12.461.461,0,0,1,.155.35l.039,9.831a.465.465,0,0,1-.283.443.46.46,0,0,1-.513-.082l-2.393-2.148a1.094,1.094,0,0,0-1.55.086L273.34,48.88a2.284,2.284,0,0,1-3.4-3.049Zm-1.289,4.855a4.431,4.431,0,0,0,2.983,1.142c.082,0,.163,0,.249-.008a4.453,4.453,0,0,0,3.092-1.476l7.535-8.405,1.577,1.414a2.672,2.672,0,0,0,4.455-2l-.039-9.831a2.669,2.669,0,0,0-2.952-2.645L275.771,29.9a2.672,2.672,0,0,0-1.5,4.649l1.573,1.41L268.3,44.366a4.489,4.489,0,0,0,.346,6.319Z" transform="translate(-231.431 -28.859)" fill="#030403"/>
        <path id="Trazado_1051738" data-name="Trazado 1051738" d="M160.288,297.328h-5.993V282.421h5.993Zm.606-17.1h-7.2a1.594,1.594,0,0,0-1.589,1.592v16.115a1.593,1.593,0,0,0,1.589,1.589h7.2a1.593,1.593,0,0,0,1.589-1.589V281.818A1.594,1.594,0,0,0,160.894,280.226Z" transform="translate(-132.132 -245.783)" fill="#030403"/>
        <path id="Trazado_1051739" data-name="Trazado 1051739" d="M40.465,199.156a1.1,1.1,0,0,0-1.1,1.1v3.053a1.1,1.1,0,1,0,2.195,0v-3.053A1.1,1.1,0,0,0,40.465,199.156Z" transform="translate(-34.845 -175.822)" fill="#030403"/>
        <path id="Trazado_1051740" data-name="Trazado 1051740" d="M62.638,336.566h-6v-8.677h6Zm.6-10.872h-7.2a1.6,1.6,0,0,0-1.6,1.592v9.885a1.6,1.6,0,0,0,1.6,1.589h7.2a1.594,1.594,0,0,0,1.592-1.589v-9.885A1.6,1.6,0,0,0,63.24,325.694Z" transform="translate(-47.86 -285.021)" fill="#030403"/>
        <path id="Trazado_1051741" data-name="Trazado 1051741" d="M30.333,52.252h4.929a1.08,1.08,0,0,1,0,2.159H30.278a1.1,1.1,0,0,0,0,2.195h4.983a1.08,1.08,0,0,1,0,2.159H30.333a1.1,1.1,0,1,0,0,2.195H34.05a1.08,1.08,0,0,1,0,2.16h-12.4A5.976,5.976,0,0,1,18.238,61.9c-.206-.12-.412-.245-.629-.373V48.714a4.337,4.337,0,0,0,2.816-3.158,22.464,22.464,0,0,0,.691-6.525V37.166a3.206,3.206,0,0,1,2.012.528,4.172,4.172,0,0,1,2.1,3.907v.035L25.2,46.795a1.094,1.094,0,0,0,1.1,1.1h8.964a1.08,1.08,0,0,1,0,2.16H30.333a1.1,1.1,0,1,0,0,2.195Zm-14.919,9.9v1.511a.7.7,0,0,1-.7.7H9.269a.713.713,0,0,1-.7-.7V47.354a.713.713,0,0,1,.7-.7h5.445a.7.7,0,0,1,.7.7ZM35.262,45.7H27.4l.019-4.039a6.361,6.361,0,0,0-3.088-5.807,4.652,4.652,0,0,0-4.4-.567,1.929,1.929,0,0,0-1.014,1.721v2.02a20.73,20.73,0,0,1-.583,5.838,3.021,3.021,0,0,1-.905,1.507,2.9,2.9,0,0,0-2.719-1.919H9.269a2.9,2.9,0,0,0-2.9,2.9V63.663a2.9,2.9,0,0,0,2.9,2.9h5.445a2.9,2.9,0,0,0,2.863-2.5,7.474,7.474,0,0,0,4.074,1.255h12.4a3.276,3.276,0,0,0,3.274-3.27,3.238,3.238,0,0,0-.388-1.546,3.267,3.267,0,0,0,.769-4.987,3.272,3.272,0,0,0,0-4.358A3.271,3.271,0,0,0,35.262,45.7Z" transform="translate(-6.372 -34.118)" fill="#030403"/>
        <path id="Trazado_1051742" data-name="Trazado 1051742" d="M282.073,213.042l-1.969,3.146a2.689,2.689,0,0,0-.349,2l.773,3.628a.508.508,0,0,1-.342.594l-3.527,1.142a2.665,2.665,0,0,0-1.554,1.3l-1.744,3.278a.51.51,0,0,1-.645.233l-3.445-1.394a2.681,2.681,0,0,0-1.006-.2,2.648,2.648,0,0,0-1.01.2l-3.445,1.391a.511.511,0,0,1-.641-.233l-1.744-3.286a2.645,2.645,0,0,0-1.55-1.293l-3.527-1.146a.5.5,0,0,1-.342-.594l.769-3.632a2.666,2.666,0,0,0-.354-1.993l-1.965-3.146a.511.511,0,0,1,.116-.676l2.921-2.28a2.624,2.624,0,0,0,1.018-1.756l.517-3.674a.5.5,0,0,1,.524-.439l3.705.128a2.687,2.687,0,0,0,1.911-.7l2.758-2.482a.5.5,0,0,1,.68,0l2.758,2.482a2.656,2.656,0,0,0,1.9.7l3.713-.128a.506.506,0,0,1,.52.439l.517,3.678a2.662,2.662,0,0,0,1.01,1.748l2.929,2.284a.507.507,0,0,1,.116.676Zm-27.445,4.688-.237,1.122h-2.47V197.716h6v4.847a2.686,2.686,0,0,0-1.06,1.787l-.517,3.678a.456.456,0,0,1-.19.326l-2.929,2.284a2.7,2.7,0,0,0-.625,3.566l1.961,3.142a.455.455,0,0,1,.07.384Zm10.67-26.245h6v9.151l-1.216-1.1a2.688,2.688,0,0,0-3.62,0l-1.161,1.045v-9.1ZM283.3,210.638l-2.929-2.288a.463.463,0,0,1-.187-.326l-.517-3.67a2.689,2.689,0,0,0-2.769-2.33l-3.414.12V190.88a1.594,1.594,0,0,0-1.592-1.589h-7.2a1.6,1.6,0,0,0-1.6,1.589v11.264l-2.991-.1v-4.925a1.6,1.6,0,0,0-1.6-1.592h-7.2a1.6,1.6,0,0,0-1.592,1.592v22.345a1.594,1.594,0,0,0,1.592,1.589h2.606l-.066.307a2.7,2.7,0,0,0,1.81,3.138l3.531,1.146a.469.469,0,0,1,.291.245l1.74,3.278a2.689,2.689,0,0,0,3.4,1.235l3.438-1.387a.458.458,0,0,1,.384,0L271.9,230.4a2.7,2.7,0,0,0,3.4-1.235l1.744-3.278a.458.458,0,0,1,.291-.245l3.531-1.146a2.7,2.7,0,0,0,1.81-3.134l-.773-3.624a.477.477,0,0,1,.066-.384l1.965-3.146a2.7,2.7,0,0,0-.629-3.566Z" transform="translate(-216.381 -167.308)" fill="#030403"/>
        <path id="Trazado_1051743" data-name="Trazado 1051743" d="M322.791,320.33a7.687,7.687,0,1,1,7.687-7.69A7.7,7.7,0,0,1,322.791,320.33Zm0-17.568a9.881,9.881,0,1,0,9.881,9.877A9.893,9.893,0,0,0,322.791,302.762Z" transform="translate(-270.908 -265.231)" fill="#030403"/>
        <path id="Trazado_1051744" data-name="Trazado 1051744" d="M346.484,332.1a1.523,1.523,0,0,0-.559,1.713l.33,1.01-.862-.625a1.527,1.527,0,0,0-.9-.291,1.547,1.547,0,0,0-.9.291l-.858.625.33-1.006a1.511,1.511,0,0,0-.559-1.717l-.854-.621,1.064,0a1.525,1.525,0,0,0,1.453-1.06l.326-1.006.326,1.006,0,.023a1.542,1.542,0,0,0,1.453,1.037l1.06,0-.854.621Zm.276-2.812-.812-2.509a1.525,1.525,0,0,0-2.905,0l-.812,2.509-2.641-.008a1.527,1.527,0,0,0-.889,2.769l2.128,1.546-.816,2.5a1.531,1.531,0,0,0,2.338,1.728l2.144-1.569,2.14,1.561a1.536,1.536,0,0,0,.9.291,1.466,1.466,0,0,0,.889-.3,1.534,1.534,0,0,0,.559-1.717l-.82-2.5,2.132-1.546a1.528,1.528,0,0,0-.9-2.769l-2.637.008Z" transform="translate(-292.612 -285.045)" fill="#030403"/>
      </g>
    </g>
  </g>
</svg>
