<svg xmlns="http://www.w3.org/2000/svg" xmlns:xlink="http://www.w3.org/1999/xlink" width="108" height="108" viewBox="0 0 108 108">
  <defs>
    <filter id="Trazado_982547" x="0" y="0" width="108" height="108" filterUnits="userSpaceOnUse">
      <feOffset dy="3" input="SourceAlpha"/>
      <feGaussianBlur stdDeviation="3" result="blur"/>
      <feFlood flood-opacity="0.161"/>
      <feComposite operator="in" in2="blur"/>
      <feComposite in="SourceGraphic"/>
    </filter>
  </defs>
  <g id="Grupo_1165361" data-name="Grupo 1165361" transform="translate(-745 -5572)">
    <g id="Grupo_1161018" data-name="Grupo 1161018" transform="translate(-0.244 2303.776)">
      <g id="Grupo_1160771" data-name="Grupo 1160771" transform="translate(754.244 3274.224)">
        <g id="Grupo_1149836" data-name="Grupo 1149836">
          <g id="Grupo_1149674" data-name="Grupo 1149674">
            <g id="Grupo_1148534" data-name="Grupo 1148534">
              <g id="Grupo_1147066" data-name="Grupo 1147066">
                <g transform="matrix(1, 0, 0, 1, -9, -6)" filter="url(#Trazado_982547)">
                  <g id="Trazado_982547-2" data-name="Trazado 982547" transform="translate(9 6)" fill="#f5e9fe">
                    <path d="M 45 88.5 C 39.12687683105469 88.5 33.43022537231445 87.35007476806641 28.06830024719238 85.08217620849609 C 22.88852500915527 82.89131164550781 18.23629951477051 79.75458526611328 14.2408504486084 75.75914764404297 C 10.24541282653809 71.76370239257812 7.108687400817871 67.11147308349609 4.917825222015381 61.93170166015625 C 2.649924993515015 56.56977462768555 1.5 50.87312316894531 1.5 45 C 1.5 39.12687683105469 2.649924993515015 33.43022537231445 4.917825222015381 28.06830024719238 C 7.108687400817871 22.88852500915527 10.24541282653809 18.23629951477051 14.2408504486084 14.2408504486084 C 18.23629951477051 10.24541282653809 22.88852500915527 7.108687400817871 28.06830024719238 4.917825222015381 C 33.43022537231445 2.649924993515015 39.12687683105469 1.5 45 1.5 C 50.87312316894531 1.5 56.56977462768555 2.649924993515015 61.93170166015625 4.917825222015381 C 67.11147308349609 7.108687400817871 71.76370239257812 10.24541282653809 75.75914764404297 14.2408504486084 C 79.75458526611328 18.23629951477051 82.89131164550781 22.88852500915527 85.08217620849609 28.06830024719238 C 87.35007476806641 33.43022537231445 88.5 39.12687683105469 88.5 45 C 88.5 50.87312316894531 87.35007476806641 56.56977462768555 85.08217620849609 61.93170166015625 C 82.89131164550781 67.11147308349609 79.75458526611328 71.76370239257812 75.75914764404297 75.75914764404297 C 71.76370239257812 79.75458526611328 67.11147308349609 82.89131164550781 61.93170166015625 85.08217620849609 C 56.56977462768555 87.35007476806641 50.87312316894531 88.5 45 88.5 Z" stroke="none"/>
                    <path d="M 45 3 C 39.32871246337891 3 33.82865524291992 4.110054016113281 28.65262985229492 6.299339294433594 C 23.65165710449219 8.414573669433594 19.15968322753906 11.44334411621094 15.301513671875 15.301513671875 C 11.44334411621094 19.15968322753906 8.414573669433594 23.65165710449219 6.299339294433594 28.65262985229492 C 4.110054016113281 33.82865524291992 3 39.32871246337891 3 45 C 3 50.67128753662109 4.110054016113281 56.17134475708008 6.299339294433594 61.34737396240234 C 8.414573669433594 66.34834289550781 11.44334411621094 70.84031677246094 15.301513671875 74.698486328125 C 19.15968322753906 78.55665588378906 23.65165710449219 81.58542633056641 28.65262985229492 83.70066070556641 C 33.82865524291992 85.88994598388672 39.32871246337891 87 45 87 C 50.67128753662109 87 56.17134475708008 85.88994598388672 61.34737396240234 83.70066070556641 C 66.34834289550781 81.58542633056641 70.84031677246094 78.55665588378906 74.698486328125 74.698486328125 C 78.55665588378906 70.84031677246094 81.58542633056641 66.34834289550781 83.70066070556641 61.34737396240234 C 85.88994598388672 56.17134475708008 87 50.67128753662109 87 45 C 87 39.32871246337891 85.88994598388672 33.82865524291992 83.70066070556641 28.65262985229492 C 81.58542633056641 23.65165710449219 78.55665588378906 19.15968322753906 74.698486328125 15.301513671875 C 70.84031677246094 11.44334411621094 66.34834289550781 8.414573669433594 61.34737396240234 6.299339294433594 C 56.17134475708008 4.110054016113281 50.67128753662109 3 45 3 M 45 0 C 69.85281372070312 0 90 20.14718627929688 90 45 C 90 69.85281372070312 69.85281372070312 90 45 90 C 20.14718627929688 90 0 69.85281372070312 0 45 C 0 20.14718627929688 20.14718627929688 0 45 0 Z" stroke="none" fill="#a530fe"/>
                  </g>
                </g>
              </g>
            </g>
          </g>
        </g>
      </g>
    </g>
    <g id="tecnologia_4_" data-name="tecnologia (4)" transform="translate(770 5594)">
      <g id="Grupo_1165359" data-name="Grupo 1165359" transform="translate(0.933 0.933)">
        <g id="Grupo_1165348" data-name="Grupo 1165348" transform="translate(38.261)">
          <path id="Trazado_1014685" data-name="Trazado 1014685" d="M51.332,1V8.466H42V1Z" transform="translate(-42 -1)" fill="#f0d0b4"/>
        </g>
        <g id="Grupo_1165349" data-name="Grupo 1165349" transform="translate(8.399)">
          <path id="Trazado_1014686" data-name="Trazado 1014686" d="M19.332,1V8.466H10V1Z" transform="translate(-10 -1)" fill="#f0d0b4"/>
        </g>
        <g id="Grupo_1165350" data-name="Grupo 1165350" transform="translate(23.33)">
          <path id="Trazado_1014687" data-name="Trazado 1014687" d="M35.332,1V8.466H26V1Z" transform="translate(-26 -1)" fill="#f0d0b4"/>
        </g>
        <g id="Grupo_1165351" data-name="Grupo 1165351" transform="translate(3.733 13.065)">
          <path id="Trazado_1014688" data-name="Trazado 1014688" d="M53.526,50.461H5V18.733A3.733,3.733,0,0,1,8.733,15h41.06a3.733,3.733,0,0,1,3.733,3.733Z" transform="translate(-5 -15)" fill="#ccd1d9"/>
        </g>
        <g id="Grupo_1165352" data-name="Grupo 1165352" transform="translate(7.466 16.797)">
          <path id="Trazado_1014689" data-name="Trazado 1014689" d="M49.127,47H9.933A.934.934,0,0,1,9,46.062V19.933A.934.934,0,0,1,9.933,19H49.127a.934.934,0,0,1,.933.933V46.062A.934.934,0,0,1,49.127,47Z" transform="translate(-9 -19)" fill="#69d6f4"/>
        </g>
        <g id="Grupo_1165353" data-name="Grupo 1165353" transform="translate(0 48.526)">
          <path id="Trazado_1014690" data-name="Trazado 1014690" d="M55.125,53H2.866a1.825,1.825,0,0,0-1.316.551A1.825,1.825,0,0,0,1,54.866a5.6,5.6,0,0,0,5.6,5.6H51.392a5.608,5.608,0,0,0,5.6-5.6A1.872,1.872,0,0,0,55.125,53Z" transform="translate(-1 -53)" fill="#969faa"/>
        </g>
        <g id="Grupo_1165354" data-name="Grupo 1165354" transform="translate(46.659 52.259)">
          <path id="Trazado_1014691" data-name="Trazado 1014691" d="M51,57h3.733v3.733H51Z" transform="translate(-51 -57)" fill="#ff826e"/>
        </g>
        <g id="Grupo_1165355" data-name="Grupo 1165355" transform="translate(39.194 52.259)">
          <path id="Trazado_1014692" data-name="Trazado 1014692" d="M43,57h3.733v3.733H43Z" transform="translate(-43 -57)" fill="#ff826e"/>
        </g>
        <g id="Grupo_1165356" data-name="Grupo 1165356" transform="translate(21.463 48.526)">
          <path id="Trazado_1014693" data-name="Trazado 1014693" d="M37.065,53v1.866A1.872,1.872,0,0,1,35.2,56.733H25.866A1.872,1.872,0,0,1,24,54.866V53Z" transform="translate(-24 -53)" fill="#ff826e"/>
        </g>
        <g id="Grupo_1165357" data-name="Grupo 1165357" transform="translate(13.065 27.062)">
          <path id="Trazado_1014694" data-name="Trazado 1014694" d="M44.862,42.131v5.6H38.843V47.7A9.332,9.332,0,1,0,20.6,44.931a9.246,9.246,0,0,0,.429,2.8H15v-5.6l2.37-.756a13.558,13.558,0,0,1,1.157-2.818l-1.138-2.2,3.966-3.966,2.2,1.138a13.558,13.558,0,0,1,2.818-1.157L27.131,30h5.6l.756,2.37A13.558,13.558,0,0,1,36.3,33.527l2.2-1.138,3.966,3.966-1.138,2.2a13.559,13.559,0,0,1,1.157,2.818Z" transform="translate(-15 -30)" fill="#ffc729"/>
        </g>
        <g id="Grupo_1165358" data-name="Grupo 1165358" transform="translate(18.664 32.662)">
          <path id="Trazado_1014695" data-name="Trazado 1014695" d="M39.664,45.332a9.354,9.354,0,0,1-.42,2.772v.028H32.8a3.685,3.685,0,0,0,1.269-2.8,3.733,3.733,0,0,0-7.466,0,3.685,3.685,0,0,0,1.269,2.8H21.429a9.332,9.332,0,1,1,18.234-2.8Z" transform="translate(-21 -36)" fill="#fcd770"/>
        </g>
      </g>
      <g id="Grupo_1165360" data-name="Grupo 1165360">
        <path id="Trazado_1014696" data-name="Trazado 1014696" d="M55.058,49.461h-.933v-30.8A4.671,4.671,0,0,0,49.459,14h-2.8v1.866h2.8a2.8,2.8,0,0,1,2.8,2.8v30.8H5.6v-30.8a2.8,2.8,0,0,1,2.8-2.8h2.8V14H8.4a4.671,4.671,0,0,0-4.666,4.666v30.8H2.8a2.8,2.8,0,0,0-2.8,2.8,6.541,6.541,0,0,0,6.532,6.532H51.325a6.541,6.541,0,0,0,6.532-6.532A2.8,2.8,0,0,0,55.058,49.461ZM23.33,51.328h11.2v.933a.934.934,0,0,1-.933.933H24.263a.934.934,0,0,1-.933-.933Zm19.6,5.6H41.06V55.06h1.866Zm7.466,0H48.526V55.06h1.866Zm1.866-.094V53.194h-5.6v3.733H44.793V53.194h-5.6v3.733H6.532a4.671,4.671,0,0,1-4.666-4.666.934.934,0,0,1,.933-.933H21.463v.933a2.8,2.8,0,0,0,2.8,2.8h9.332a2.8,2.8,0,0,0,2.8-2.8v-.933H55.058a.934.934,0,0,1,.933.933,4.675,4.675,0,0,1-3.733,4.572Z" transform="translate(0 -0.935)"/>
        <path id="Trazado_1014697" data-name="Trazado 1014697" d="M21.065,19.866V18H9.866A1.868,1.868,0,0,0,8,19.866V46a1.868,1.868,0,0,0,1.866,1.866H49.06A1.868,1.868,0,0,0,50.927,46V19.866A1.868,1.868,0,0,0,49.06,18h-11.2v1.866h11.2V46H45.328V40.649l-2.551-.817a14.054,14.054,0,0,0-.858-2.08l1.224-2.379-4.922-4.922-2.379,1.224a14.1,14.1,0,0,0-2.08-.858l-.819-2.553H25.983l-.817,2.551a14.054,14.054,0,0,0-2.08.858L20.706,30.45l-4.922,4.922,1.224,2.379a14.1,14.1,0,0,0-.858,2.08l-2.552.819V46H9.866V19.866Zm0,24.263A8.4,8.4,0,1,1,37.63,46H33.736a4.666,4.666,0,1,0-8.546,0H21.3A8.4,8.4,0,0,1,21.065,44.129Zm5.6,0A2.8,2.8,0,1,1,31.528,46H27.4a2.79,2.79,0,0,1-.734-1.866Zm-11.2-2.119,2.2-.7.136-.482a12.029,12.029,0,0,1,1.076-2.61l.244-.438-1.055-2.047,3-3,2.047,1.055.438-.244a12.029,12.029,0,0,1,2.61-1.076l.482-.136.7-2.2h4.238l.7,2.2.482.136a12.029,12.029,0,0,1,2.61,1.076l.438.244,2.047-1.055,3,3-1.055,2.047.244.438a12.029,12.029,0,0,1,1.076,2.61l.136.482,2.2.7V46H39.552a10.265,10.265,0,1,0-20.177,0H15.466Z" transform="translate(-0.534 -1.203)"/>
        <path id="Trazado_1014698" data-name="Trazado 1014698" d="M13,4h3.733V5.866H13Z" transform="translate(-0.869 -0.267)"/>
        <path id="Trazado_1014699" data-name="Trazado 1014699" d="M29,4h3.733V5.866H29Z" transform="translate(-1.938 -0.267)"/>
        <path id="Trazado_1014700" data-name="Trazado 1014700" d="M45,4h3.733V5.866H45Z" transform="translate(-3.007 -0.267)"/>
        <path id="Trazado_1014701" data-name="Trazado 1014701" d="M29.666,25.2h1.866V9.332H36.2V0H25V9.332h4.666Zm-2.8-23.33h7.466v5.6H26.866Z" transform="translate(-1.67)"/>
        <path id="Trazado_1014702" data-name="Trazado 1014702" d="M45.332,13.065H36V25.2h1.866V14.931H47.2v-5.6h4.666V0h-11.2V9.332h4.666Zm-2.8-11.2H50v5.6H42.532Z" transform="translate(-2.405)"/>
        <path id="Trazado_1014703" data-name="Trazado 1014703" d="M13.666,14.931H23V25.2h1.866V13.065H15.532V9.332H20.2V0H9V9.332h4.666Zm-2.8-13.065h7.466v5.6H10.866Z" transform="translate(-0.601)"/>
      </g>
    </g>
  </g>
</svg>
