<svg xmlns="http://www.w3.org/2000/svg" xmlns:xlink="http://www.w3.org/1999/xlink" width="108" height="108" viewBox="0 0 108 108">
  <defs>
    <filter id="Trazado_982548" x="0" y="0" width="108" height="108" filterUnits="userSpaceOnUse">
      <feOffset dy="3" input="SourceAlpha"/>
      <feGaussianBlur stdDeviation="3" result="blur"/>
      <feFlood flood-opacity="0.161"/>
      <feComposite operator="in" in2="blur"/>
      <feComposite in="SourceGraphic"/>
    </filter>
  </defs>
  <g id="Grupo_1165372" data-name="Grupo 1165372" transform="translate(-620 -6364)">
    <g id="Grupo_1163579" data-name="Grupo 1163579" transform="translate(419 4610)">
      <g id="Grupo_1158958" data-name="Grupo 1158958" transform="translate(-419 -1280)">
        <g id="Grupo_1153335" data-name="Grupo 1153335" transform="translate(629 3040)">
          <g id="Grupo_1149263" data-name="Grupo 1149263" transform="translate(0)">
            <g transform="matrix(1, 0, 0, 1, -9, -6)" filter="url(#Trazado_982548)">
              <g id="Trazado_982548-2" data-name="Trazado 982548" transform="translate(9 6)" fill="#eafafc">
                <path d="M 45 88.5 C 39.12687683105469 88.5 33.43022537231445 87.35007476806641 28.06830024719238 85.08217620849609 C 22.88852500915527 82.89131164550781 18.23629951477051 79.75458526611328 14.2408504486084 75.75914764404297 C 10.24541282653809 71.76370239257812 7.108687400817871 67.11147308349609 4.917825222015381 61.93170166015625 C 2.649924993515015 56.56977462768555 1.5 50.87312316894531 1.5 45 C 1.5 39.12687683105469 2.649924993515015 33.43022537231445 4.917825222015381 28.06830024719238 C 7.108687400817871 22.88852500915527 10.24541282653809 18.23629951477051 14.2408504486084 14.2408504486084 C 18.23629951477051 10.24541282653809 22.88852500915527 7.108687400817871 28.06830024719238 4.917825222015381 C 33.43022537231445 2.649924993515015 39.12687683105469 1.5 45 1.5 C 50.87312316894531 1.5 56.56977462768555 2.649924993515015 61.93170166015625 4.917825222015381 C 67.11147308349609 7.108687400817871 71.76370239257812 10.24541282653809 75.75914764404297 14.2408504486084 C 79.75458526611328 18.23629951477051 82.89131164550781 22.88852500915527 85.08217620849609 28.06830024719238 C 87.35007476806641 33.43022537231445 88.5 39.12687683105469 88.5 45 C 88.5 50.87312316894531 87.35007476806641 56.56977462768555 85.08217620849609 61.93170166015625 C 82.89131164550781 67.11147308349609 79.75458526611328 71.76370239257812 75.75914764404297 75.75914764404297 C 71.76370239257812 79.75458526611328 67.11147308349609 82.89131164550781 61.93170166015625 85.08217620849609 C 56.56977462768555 87.35007476806641 50.87312316894531 88.5 45 88.5 Z" stroke="none"/>
                <path d="M 45 3 C 39.32871246337891 3 33.82865524291992 4.110054016113281 28.65262985229492 6.299339294433594 C 23.65165710449219 8.414573669433594 19.15968322753906 11.44334411621094 15.301513671875 15.301513671875 C 11.44334411621094 19.15968322753906 8.414573669433594 23.65165710449219 6.299339294433594 28.65262985229492 C 4.110054016113281 33.82865524291992 3 39.32871246337891 3 45 C 3 50.67128753662109 4.110054016113281 56.17134475708008 6.299339294433594 61.34737396240234 C 8.414573669433594 66.34834289550781 11.44334411621094 70.84031677246094 15.301513671875 74.698486328125 C 19.15968322753906 78.55665588378906 23.65165710449219 81.58542633056641 28.65262985229492 83.70066070556641 C 33.82865524291992 85.88994598388672 39.32871246337891 87 45 87 C 50.67128753662109 87 56.17134475708008 85.88994598388672 61.34737396240234 83.70066070556641 C 66.34834289550781 81.58542633056641 70.84031677246094 78.55665588378906 74.698486328125 74.698486328125 C 78.55665588378906 70.84031677246094 81.58542633056641 66.34834289550781 83.70066070556641 61.34737396240234 C 85.88994598388672 56.17134475708008 87 50.67128753662109 87 45 C 87 39.32871246337891 85.88994598388672 33.82865524291992 83.70066070556641 28.65262985229492 C 81.58542633056641 23.65165710449219 78.55665588378906 19.15968322753906 74.698486328125 15.301513671875 C 70.84031677246094 11.44334411621094 66.34834289550781 8.414573669433594 61.34737396240234 6.299339294433594 C 56.17134475708008 4.110054016113281 50.67128753662109 3 45 3 M 45 0 C 69.85281372070312 0 90 20.14718627929688 90 45 C 90 69.85281372070312 69.85281372070312 90 45 90 C 20.14718627929688 90 0 69.85281372070312 0 45 C 0 20.14718627929688 20.14718627929688 0 45 0 Z" stroke="none" fill="#3ad1e9"/>
              </g>
            </g>
          </g>
        </g>
      </g>
    </g>
    <g id="educacion-a-distancia" transform="translate(643 6384)">
      <g id="Grupo_1154457" data-name="Grupo 1154457">
        <g id="Grupo_1154441" data-name="Grupo 1154441">
          <path id="Trazado_991137" data-name="Trazado 991137" d="M22.67,61H13V51.33A9.671,9.671,0,0,0,22.67,61Z" fill="#fcd770"/>
        </g>
        <g id="Grupo_1154442" data-name="Grupo 1154442">
          <path id="Trazado_991138" data-name="Trazado 991138" d="M22,53h7v8H22.67A9.671,9.671,0,0,1,13,51.33a4.329,4.329,0,0,1,8.6-.71Z" fill="#fcd770"/>
        </g>
        <g id="Grupo_1154443" data-name="Grupo 1154443">
          <path id="Trazado_991139" data-name="Trazado 991139" d="M13,51.33V61H9V50a1,1,0,0,1,1-1h2a1,1,0,0,1,1,1Z" fill="#838f9b"/>
        </g>
        <g id="Grupo_1154444" data-name="Grupo 1154444">
          <path id="Trazado_991140" data-name="Trazado 991140" d="M47,57l-.62,2.49A1.992,1.992,0,0,1,44.44,61H29V57H47Z" fill="#aab2bd"/>
        </g>
        <g id="Grupo_1154445" data-name="Grupo 1154445">
          <path id="Trazado_991141" data-name="Trazado 991141" d="M51,40.78a2.024,2.024,0,0,1-.05.43L47,57H42l4.64-16.7a1.756,1.756,0,0,1,.63-.94A1.8,1.8,0,0,1,48.35,39h.87A1.784,1.784,0,0,1,51,40.78Z" fill="#ccd1d9"/>
        </g>
        <g id="Grupo_1154446" data-name="Grupo 1154446">
          <path id="Trazado_991142" data-name="Trazado 991142" d="M43,1a18,18,0,0,1,3.64,35.63A18.194,18.194,0,0,1,43,37a17.954,17.954,0,0,1-10.19-3.16A1.991,1.991,0,0,0,31,31V25a9.993,9.993,0,0,0-4-8V13h3a1,1,0,0,0,1-1V10a1,1,0,0,0-1-1H28.03A18,18,0,0,1,43,1Z" fill="#69d6f4"/>
        </g>
        <g id="Grupo_1154447" data-name="Grupo 1154447">
          <path id="Trazado_991143" data-name="Trazado 991143" d="M19.49,6.94,20,9H14l.51-2.06a2.568,2.568,0,0,1,4.98,0Z" fill="#969faa"/>
        </g>
        <g id="Grupo_1154448" data-name="Grupo 1154448">
          <path id="Trazado_991144" data-name="Trazado 991144" d="M31,10v2a1,1,0,0,1-1,1H4a1,1,0,0,1-1-1V10A1,1,0,0,1,4,9H30a1,1,0,0,1,1,1Z" fill="#aab2bd"/>
        </g>
        <g id="Grupo_1154449" data-name="Grupo 1154449">
          <path id="Trazado_991145" data-name="Trazado 991145" d="M7,13H27v4H7Z" fill="#ccd1d9"/>
        </g>
        <g id="Grupo_1154450" data-name="Grupo 1154450">
          <path id="Trazado_991146" data-name="Trazado 991146" d="M15.89,26.19a10.223,10.223,0,0,1-3.98.81,2.885,2.885,0,0,1-2.06-.85l-.59-.85-2.37.95A2.986,2.986,0,0,0,5,29.03V31H3V25a10.3,10.3,0,0,1,.2-2.01A2.006,2.006,0,0,0,5,21a1.982,1.982,0,0,0-.48-1.3A9.941,9.941,0,0,1,7,17H27a9.993,9.993,0,0,1,4,8v6H29V29.03a2.986,2.986,0,0,0-1.89-2.78L24,25l-.43.28A10.185,10.185,0,0,1,17.91,27a2.858,2.858,0,0,1-2.02-.81Z" fill="#b27946"/>
        </g>
        <g id="Grupo_1154451" data-name="Grupo 1154451">
          <path id="Trazado_991147" data-name="Trazado 991147" d="M33,57H29V53A4,4,0,0,1,33,57Z" fill="#f0d0b4"/>
        </g>
        <g id="Grupo_1154452" data-name="Grupo 1154452">
          <path id="Trazado_991148" data-name="Trazado 991148" d="M33,33a1.988,1.988,0,0,1-.19.84,1.733,1.733,0,0,1-.4.57A1.955,1.955,0,0,1,31,35H29V31h2A2.006,2.006,0,0,1,33,33Z" fill="#f0d0b4"/>
        </g>
        <g id="Grupo_1154453" data-name="Grupo 1154453">
          <path id="Trazado_991149" data-name="Trazado 991149" d="M5,31v4H3a1.955,1.955,0,0,1-1.41-.59A1.955,1.955,0,0,1,1,33a2.006,2.006,0,0,1,2-2Z" fill="#f0d0b4"/>
        </g>
        <g id="Grupo_1154454" data-name="Grupo 1154454">
          <path id="Trazado_991150" data-name="Trazado 991150" d="M9.26,25.3l.59.85a2.885,2.885,0,0,0,2.06.85,10.223,10.223,0,0,0,3.98-.81,2.858,2.858,0,0,0,2.02.81,10.185,10.185,0,0,0,5.66-1.72L24,25l3.11,1.25A2.986,2.986,0,0,1,29,29.03V35A11.973,11.973,0,0,1,17.33,46.99c-.11.01-.22.01-.33.01A12,12,0,0,1,5,35V29.03a2.986,2.986,0,0,1,1.89-2.78Z" fill="#f0d0b4"/>
        </g>
        <g id="Grupo_1154455" data-name="Grupo 1154455">
          <path id="Trazado_991151" data-name="Trazado 991151" d="M21,39l-.27,1.09a3.846,3.846,0,0,1-7.46,0L13,39Z" fill="#ff826e"/>
        </g>
        <g id="Grupo_1154456" data-name="Grupo 1154456">
          <path id="Trazado_991152" data-name="Trazado 991152" d="M4.52,19.7A1.982,1.982,0,0,1,5,21a2.006,2.006,0,0,1-1.8,1.99A1.275,1.275,0,0,1,3,23a2,2,0,1,1,1.52-3.3Z" fill="#fcd770"/>
        </g>
      </g>
      <g id="Grupo_1154458" data-name="Grupo 1154458">
        <path id="Trazado_991153" data-name="Trazado 991153" d="M12.3,40.332a4.841,4.841,0,0,0,9.394,0L22.281,38H11.719ZM19.715,40a2.843,2.843,0,0,1-5.43,0Z"/>
        <path id="Trazado_991154" data-name="Trazado 991154" d="M12,34h2V33a3,3,0,0,0-6,0v1h2V33a1,1,0,0,1,2,0Z"/>
        <path id="Trazado_991155" data-name="Trazado 991155" d="M23,30a3,3,0,0,0-3,3v1h2V33a1,1,0,0,1,2,0v1h2V33A3,3,0,0,0,23,30Z"/>
        <path id="Trazado_991156" data-name="Trazado 991156" d="M30,44h2v2H30Z"/>
        <path id="Trazado_991157" data-name="Trazado 991157" d="M34,44h2v2H34Z"/>
        <path id="Trazado_991158" data-name="Trazado 991158" d="M38,44h2v2H38Z"/>
        <path id="Trazado_991159" data-name="Trazado 991159" d="M62,19A18.994,18.994,0,0,0,27.517,8H20.78l-.325-1.3a3.561,3.561,0,0,0-6.91,0L13.22,8H4a2,2,0,0,0-2,2v8.184a2.981,2.981,0,0,0,.064,5.652A11.029,11.029,0,0,0,2,25v5.184A2.993,2.993,0,0,0,3,36H4.051A13.01,13.01,0,0,0,13.6,47.533a5.3,5.3,0,0,0-.618.735A1.978,1.978,0,0,0,12,48H10a2,2,0,0,0-2,2V62H44.438a3,3,0,0,0,2.91-2.272l4.569-18.274A2.726,2.726,0,0,0,52,40.781,2.785,2.785,0,0,0,49.219,38h-.865a2.789,2.789,0,0,0-2.68,2.037L41.24,56H33.9A5.009,5.009,0,0,0,29,52H22.848l-.258-1.545a5.311,5.311,0,0,0-1.675-3.06A13.021,13.021,0,0,0,29.95,36H31a2.981,2.981,0,0,0,2.052-.823A18.987,18.987,0,0,0,62,19ZM32,30.184V28h3.794a23.775,23.775,0,0,0,3.422,5.872L40.8,35.849a16.863,16.863,0,0,1-6.837-2.462A2.916,2.916,0,0,0,34,33,3,3,0,0,0,32,30.184ZM6,16.53A10.9,10.9,0,0,0,4.28,18.3,2.735,2.735,0,0,0,4,18.184V14H6ZM8,14H26v2H8Zm20,0h2a2,2,0,0,0,2-2h3.079a23.784,23.784,0,0,0-1.036,6H29.478A10.916,10.916,0,0,0,28,16.539Zm20.832-2a21.811,21.811,0,0,1,1.125,6H36.043a21.811,21.811,0,0,1,1.125-6ZM37.953,10a21.747,21.747,0,0,1,2.826-4.622L43,2.6l2.222,2.776A21.729,21.729,0,0,1,48.048,10Zm22,8H51.957a23.829,23.829,0,0,0-1.036-6h7.554A16.857,16.857,0,0,1,59.949,18ZM37.168,26a21.811,21.811,0,0,1-1.125-6H49.957a21.811,21.811,0,0,1-1.125,6Zm10.879,2a21.747,21.747,0,0,1-2.826,4.622L43,35.4l-2.222-2.776A21.729,21.729,0,0,1,37.952,28Zm3.91-8h7.992a16.858,16.858,0,0,1-1.475,6H50.92A23.786,23.786,0,0,0,51.957,20ZM34.043,20a23.829,23.829,0,0,0,1.036,6H32V25a10.991,10.991,0,0,0-1.215-5ZM45.21,35.839l1.574-1.968A23.775,23.775,0,0,0,50.206,28H57.4a17,17,0,0,1-12.185,7.84ZM57.4,10H50.207a23.775,23.775,0,0,0-3.422-5.872L45.21,2.161A17,17,0,0,1,57.4,10ZM40.8,2.144,39.215,4.128A23.8,23.8,0,0,0,35.794,10H32a2,2,0,0,0-1.961-2A16.973,16.973,0,0,1,40.8,2.144ZM15.484,7.183a1.563,1.563,0,0,1,3.032,0l.2.817H15.28ZM4,10H30v2H4V10ZM3,20a1,1,0,1,1-1,1A1,1,0,0,1,3,20ZM2,33a1,1,0,0,1,1-1H4v2H3A1,1,0,0,1,2,33ZM12,60H10V50h2Zm2,0V57.526A10.738,10.738,0,0,0,16.474,60Zm30.438,0H30V58H45.72l-.311,1.242A1,1,0,0,1,44.438,60ZM47.6,40.571A.781.781,0,0,1,48.354,40h.865a.782.782,0,0,1,.781.781.843.843,0,0,1-.022.189L46.22,56h-2.9ZM31.816,56H30V54.184A3,3,0,0,1,31.816,56ZM28,54v6H22.669A8.679,8.679,0,0,1,14,51.331a3.331,3.331,0,0,1,6.617-.548l.331,1.991-1.781,2.671,1.664,1.109L22.535,54Zm0-19A11,11,0,0,1,6,35V29.031a1.989,1.989,0,0,1,1.257-1.857l1.618-.647A3.88,3.88,0,0,0,11.905,28a11.153,11.153,0,0,0,3.805-.679,3.877,3.877,0,0,0,2.2.679,11.19,11.19,0,0,0,6.212-1.876l2.626,1.05A1.989,1.989,0,0,1,28,29.031Zm-.515-9.683-3.6-1.44-.863.575A9.2,9.2,0,0,1,17.905,26a1.906,1.906,0,0,1-.6-3.714l1.013-.338-.633-1.9-1.013.338a3.892,3.892,0,0,0-2.336,5.275,9.147,9.147,0,0,1-2.43.336,1.906,1.906,0,0,1-.6-3.714l1.013-.338-.633-1.9-1.013.338A3.8,3.8,0,0,0,8.061,24.7l-1.546.619A3.981,3.981,0,0,0,4,29.031V25a9.12,9.12,0,0,1,.092-1.213A2.969,2.969,0,0,0,5.71,19.734,8.964,8.964,0,0,1,7.357,18H26.636A9.038,9.038,0,0,1,30,25v4.031A3.981,3.981,0,0,0,27.485,25.317ZM31,34H30V32h1a1,1,0,0,1,0,2Z"/>
      </g>
    </g>
  </g>
</svg>
