<svg xmlns="http://www.w3.org/2000/svg" xmlns:xlink="http://www.w3.org/1999/xlink" width="108" height="108" viewBox="0 0 108 108">
  <defs>
    <filter id="Trazado_982548" x="0" y="0" width="108" height="108" filterUnits="userSpaceOnUse">
      <feOffset dy="3" input="SourceAlpha"/>
      <feGaussianBlur stdDeviation="3" result="blur"/>
      <feFlood flood-opacity="0.161"/>
      <feComposite operator="in" in2="blur"/>
      <feComposite in="SourceGraphic"/>
    </filter>
  </defs>
  <g id="Grupo_1165313" data-name="Grupo 1165313" transform="translate(-620 -2102.148)">
    <g id="Grupo_1163565" data-name="Grupo 1163565" transform="translate(419 348.149)">
      <g id="Grupo_1158958" data-name="Grupo 1158958" transform="translate(-419 -1280)">
        <g id="Grupo_1153335" data-name="Grupo 1153335" transform="translate(629 3040)">
          <g id="Grupo_1149263" data-name="Grupo 1149263" transform="translate(0)">
            <g transform="matrix(1, 0, 0, 1, -9, -6)" filter="url(#Trazado_982548)">
              <g id="Trazado_982548-2" data-name="Trazado 982548" transform="translate(9 6)" fill="#eafafc">
                <path d="M 45 88.5 C 39.12687683105469 88.5 33.43022537231445 87.35007476806641 28.06830024719238 85.08217620849609 C 22.88852500915527 82.89131164550781 18.23629951477051 79.75458526611328 14.2408504486084 75.75914764404297 C 10.24541282653809 71.76370239257812 7.108687400817871 67.11147308349609 4.917825222015381 61.93170166015625 C 2.649924993515015 56.56977462768555 1.5 50.87312316894531 1.5 45 C 1.5 39.12687683105469 2.649924993515015 33.43022537231445 4.917825222015381 28.06830024719238 C 7.108687400817871 22.88852500915527 10.24541282653809 18.23629951477051 14.2408504486084 14.2408504486084 C 18.23629951477051 10.24541282653809 22.88852500915527 7.108687400817871 28.06830024719238 4.917825222015381 C 33.43022537231445 2.649924993515015 39.12687683105469 1.5 45 1.5 C 50.87312316894531 1.5 56.56977462768555 2.649924993515015 61.93170166015625 4.917825222015381 C 67.11147308349609 7.108687400817871 71.76370239257812 10.24541282653809 75.75914764404297 14.2408504486084 C 79.75458526611328 18.23629951477051 82.89131164550781 22.88852500915527 85.08217620849609 28.06830024719238 C 87.35007476806641 33.43022537231445 88.5 39.12687683105469 88.5 45 C 88.5 50.87312316894531 87.35007476806641 56.56977462768555 85.08217620849609 61.93170166015625 C 82.89131164550781 67.11147308349609 79.75458526611328 71.76370239257812 75.75914764404297 75.75914764404297 C 71.76370239257812 79.75458526611328 67.11147308349609 82.89131164550781 61.93170166015625 85.08217620849609 C 56.56977462768555 87.35007476806641 50.87312316894531 88.5 45 88.5 Z" stroke="none"/>
                <path d="M 45 3 C 39.32871246337891 3 33.82865524291992 4.110054016113281 28.65262985229492 6.299339294433594 C 23.65165710449219 8.414573669433594 19.15968322753906 11.44334411621094 15.301513671875 15.301513671875 C 11.44334411621094 19.15968322753906 8.414573669433594 23.65165710449219 6.299339294433594 28.65262985229492 C 4.110054016113281 33.82865524291992 3 39.32871246337891 3 45 C 3 50.67128753662109 4.110054016113281 56.17134475708008 6.299339294433594 61.34737396240234 C 8.414573669433594 66.34834289550781 11.44334411621094 70.84031677246094 15.301513671875 74.698486328125 C 19.15968322753906 78.55665588378906 23.65165710449219 81.58542633056641 28.65262985229492 83.70066070556641 C 33.82865524291992 85.88994598388672 39.32871246337891 87 45 87 C 50.67128753662109 87 56.17134475708008 85.88994598388672 61.34737396240234 83.70066070556641 C 66.34834289550781 81.58542633056641 70.84031677246094 78.55665588378906 74.698486328125 74.698486328125 C 78.55665588378906 70.84031677246094 81.58542633056641 66.34834289550781 83.70066070556641 61.34737396240234 C 85.88994598388672 56.17134475708008 87 50.67128753662109 87 45 C 87 39.32871246337891 85.88994598388672 33.82865524291992 83.70066070556641 28.65262985229492 C 81.58542633056641 23.65165710449219 78.55665588378906 19.15968322753906 74.698486328125 15.301513671875 C 70.84031677246094 11.44334411621094 66.34834289550781 8.414573669433594 61.34737396240234 6.299339294433594 C 56.17134475708008 4.110054016113281 50.67128753662109 3 45 3 M 45 0 C 69.85281372070312 0 90 20.14718627929688 90 45 C 90 69.85281372070312 69.85281372070312 90 45 90 C 20.14718627929688 90 0 69.85281372070312 0 45 C 0 20.14718627929688 20.14718627929688 0 45 0 Z" stroke="none" fill="#3ad1e9"/>
              </g>
            </g>
          </g>
        </g>
      </g>
    </g>
    <g id="flujo-de-trabajo" transform="translate(641.995 2121.137)">
      <circle id="Elipse_11805" data-name="Elipse 11805" cx="20" cy="20" r="20" transform="translate(3 3)" fill="#4a8cdd"/>
      <circle id="Elipse_11806" data-name="Elipse 11806" cx="16" cy="16" r="16" transform="translate(7 7)" fill="#5cccbc"/>
      <path id="Trazado_994583" data-name="Trazado 994583" d="M33,54H61v6H33Z" fill="#b7b6b7"/>
      <path id="Trazado_994584" data-name="Trazado 994584" d="M47,34H61v6H47Z" fill="#b7b6b7"/>
      <path id="Trazado_994585" data-name="Trazado 994585" d="M47,24H61v6H47Z" fill="#f4f4f2"/>
      <path id="Trazado_994586" data-name="Trazado 994586" d="M47,14H61v6H47Z" transform="translate(108 34) rotate(180)" fill="#b7b6b7"/>
      <path id="Trazado_994587" data-name="Trazado 994587" d="M47,4H61v6H47Z" fill="#f4f4f2"/>
      <path id="Trazado_994588" data-name="Trazado 994588" d="M33,44H61v6H33Z" fill="#f4f4f2"/>
      <path id="Trazado_994589" data-name="Trazado 994589" d="M23,49a3,3,0,0,1,3,3v9H20V52A3,3,0,0,1,23,49Z" transform="translate(46 110) rotate(180)" fill="#bcae73"/>
      <path id="Trazado_994590" data-name="Trazado 994590" d="M23,49v7a3,3,0,0,0,2.82,3A3,3,0,0,1,20,58V49Z" fill="#7f754a"/>
      <path id="Trazado_994591" data-name="Trazado 994591" d="M13,23A16,16,0,0,1,26,7.29,16.41,16.41,0,0,0,23,7a16,16,0,0,0,0,32,16.41,16.41,0,0,0,3-.29A16,16,0,0,1,13,23Z" fill="#3eb5a7"/>
      <ellipse id="Elipse_11807" data-name="Elipse 11807" cx="2.54" cy="1.25" rx="2.54" ry="1.25" transform="translate(11.731 12.978) rotate(-28.821)" fill="#f7f7f7"/>
      <circle id="Elipse_11808" data-name="Elipse 11808" cx="1" cy="1" r="1" transform="translate(10.896 16.482) rotate(-73.795)" fill="#f7f7f7"/>
      <path id="Trazado_994592" data-name="Trazado 994592" d="M33,25V21H30.74a8.28,8.28,0,0,0-.85-2.06l1.6-1.6-2.83-2.83-1.6,1.6A8.28,8.28,0,0,0,25,15.26V13H21v2.26a8.28,8.28,0,0,0-2.06.85l-1.6-1.6-2.83,2.83,1.6,1.6A8.28,8.28,0,0,0,15.26,21H13v4h2.26a8.28,8.28,0,0,0,.85,2.06l-1.6,1.6,2.83,2.83,1.6-1.6a8.28,8.28,0,0,0,2.06.85V33h4V30.74a8.28,8.28,0,0,0,2.06-.85l1.6,1.6,2.83-2.83-1.6-1.6A8.28,8.28,0,0,0,30.74,25Z" fill="#fad55c"/>
      <path id="Trazado_994593" data-name="Trazado 994593" d="M33,25V21H30.74a8.28,8.28,0,0,0-.85-2.06l1.6-1.6-2.83-2.83-1.6,1.6A8.28,8.28,0,0,0,25,15.26V13H23V33h2V30.74a8.28,8.28,0,0,0,2.06-.85l1.6,1.6,2.83-2.83-1.6-1.6A8.28,8.28,0,0,0,30.74,25Z" fill="#edc045"/>
      <circle id="Elipse_11809" data-name="Elipse 11809" cx="4" cy="4" r="4" transform="translate(19 19)" fill="#5cccbc"/>
      <path id="Trazado_994594" data-name="Trazado 994594" d="M23,19a4,4,0,0,1,0,8" fill="#3eb5a7"/>
      <path id="Trazado_994595" data-name="Trazado 994595" d="M23,8V6A17,17,0,0,0,6,23H8A15,15,0,0,1,23,8Z"/>
      <path id="Trazado_994596" data-name="Trazado 994596" d="M23,38v2A17,17,0,0,0,40,23H38A15,15,0,0,1,23,38Z"/>
      <path id="Trazado_994597" data-name="Trazado 994597" d="M23,18a5,5,0,1,0,5,5A5,5,0,0,0,23,18Zm0,8a3,3,0,1,1,3-3A3,3,0,0,1,23,26Z"/>
      <path id="Trazado_994598" data-name="Trazado 994598" d="M61,3H47a1,1,0,0,0-1,1V6H44a1,1,0,0,0-.89.55l-2.51,5A21,21,0,1,0,22,44v4H20a1,1,0,0,0-1,1v9a4,4,0,0,0,8,0V49a1,1,0,0,0-1-1H24V44A21,21,0,0,0,44,23a20.76,20.76,0,0,0-2.22-9.33L44.62,8H46v2a1,1,0,0,0,1,1h6v2H47a1,1,0,0,0-1,1v6a1,1,0,0,0,1,1h6v2H47a1,1,0,0,0-1,1v6a1,1,0,0,0,1,1h6v2H47a1,1,0,0,0-1,1v6a1,1,0,0,0,1,1h6v2H33a1,1,0,0,0-1,1v6a1,1,0,0,0,1,1H46v2H33a1,1,0,0,0-1,1v6a1,1,0,0,0,1,1H61a1,1,0,0,0,1-1V54a1,1,0,0,0-1-1H48V51H61a1,1,0,0,0,1-1V44a1,1,0,0,0-1-1H55V41h6a1,1,0,0,0,1-1V34a1,1,0,0,0-1-1H55V31h6a1,1,0,0,0,1-1V24a1,1,0,0,0-1-1H55V21h6a1,1,0,0,0,1-1V14a1,1,0,0,0-1-1H55V11h6a1,1,0,0,0,1-1V4A1,1,0,0,0,61,3ZM25,58a2,2,0,0,1-4,0V50h4ZM42,23a19,19,0,1,1-2.46-9.32L35.38,22H34V21a1,1,0,0,0-1-1H31.48a9.158,9.158,0,0,0-.36-.87l1.07-1.08a1,1,0,0,0,0-1.41l-2.83-2.83a1,1,0,0,0-1.41,0l-1.08,1.07a9.158,9.158,0,0,0-.87-.36V13a1,1,0,0,0-1-1H21a1,1,0,0,0-1,1v1.52q-.45.17-.87.36l-1.08-1.07a1,1,0,0,0-1.41,0l-2.83,2.83a1,1,0,0,0,0,1.41l1.07,1.08a9.158,9.158,0,0,0-.36.87H13a1,1,0,0,0-1,1v4a1,1,0,0,0,1,1h1.52q.17.45.36.87L13.81,28a1,1,0,0,0,0,1.41l2.83,2.83a1,1,0,0,0,1.41,0l1.08-1.07q.42.19.87.36V33a1,1,0,0,0,1,1h4a1,1,0,0,0,1-1V31.48a9.158,9.158,0,0,0,.87-.36L28,32.19a1,1,0,0,0,1.41,0l2.83-2.83a1,1,0,0,0,0-1.41l-1.07-1.08q.19-.42.36-.87H33a1,1,0,0,0,1-1V24h2a1,1,0,0,0,.89-.55L40.63,16A18.66,18.66,0,0,1,42,23ZM29.18,27.76l.89.9-1.41,1.41-.9-.89A1,1,0,0,0,26.55,29a6.6,6.6,0,0,1-1.8.75,1,1,0,0,0-.75,1V32H22V30.74a1,1,0,0,0-.75-1,6.6,6.6,0,0,1-1.8-.75,1,1,0,0,0-1.21.16l-.9.89-1.41-1.41.89-.9A1,1,0,0,0,17,26.55a6.6,6.6,0,0,1-.75-1.8,1,1,0,0,0-1-.75H14V22h1.26a1,1,0,0,0,1-.75,6.6,6.6,0,0,1,.75-1.8,1,1,0,0,0-.16-1.21l-.89-.9,1.41-1.41.9.89a1,1,0,0,0,1.21.16,6.6,6.6,0,0,1,1.8-.75,1,1,0,0,0,.75-1V14h2v1.26a1,1,0,0,0,.75,1,6.6,6.6,0,0,1,1.8.75,1,1,0,0,0,1.21-.16l.9-.89,1.41,1.41-.89.9A1,1,0,0,0,29,19.45a6.6,6.6,0,0,1,.75,1.8,1,1,0,0,0,1,.75H32v2H30.74a1,1,0,0,0-1,.75,6.6,6.6,0,0,1-.75,1.8,1,1,0,0,0,.19,1.21ZM60,59H34V55H60Zm0-10H34V45H60Zm0-10H48V35H60Zm0-10H48V25H60Zm0-10H48V15H60ZM60,9H48V5H60Z"/>
      <path id="Trazado_994599" data-name="Trazado 994599" d="M25,6h2V8H25Z"/>
      <path id="Trazado_994600" data-name="Trazado 994600" d="M19,38h2v2H19Z"/>
    </g>
  </g>
</svg>
