<svg xmlns="http://www.w3.org/2000/svg" width="362.235" height="374.818" viewBox="0 0 362.235 374.818">
  <g id="Grupo_1165312" data-name="Grupo 1165312" transform="translate(0)">
    <path id="Trazado_994470" data-name="Trazado 994470" d="M454.373,407.664A11.128,11.128,0,0,0,465.1,396.23v-.046c10.986-4,31.837-11.7,49.154-18.755l70.552-8.927a10.689,10.689,0,0,0,8.394-6.2,39.248,39.248,0,0,0,12.33-11.157c18.245-26,27.135-105.193,28.089-114.136a10.69,10.69,0,0,0-8.6-11.629l-.241-.046c.734-3.377,1.667-7.71,2.613-12.195a50.319,50.319,0,0,0,4.145-20.949,11.026,11.026,0,0,0,.579-7.789,55.945,55.945,0,0,0-3.411-9c-1.167-10.93-3.783-14.655-6.517-16.822-.173-.862-.372-1.744-.606-2.62.248-.524.517-1.076.793-1.637.5-1.026,1-2.052,1.462-3.087,4.7-10.606,4.707-23.357.018-34.98a47.614,47.614,0,0,0-19.392-23.1A52.225,52.225,0,0,0,553.1,51.615c-1.564,0-3.133.071-4.7.214A51.9,51.9,0,0,0,521.334,34.4a50.171,50.171,0,0,0-12.409-1.544,52.328,52.328,0,0,0-35.671,14.012C465.439,54.258,460.741,63.2,456.2,71.851c-1.644,3.129-3.2,6.1-4.869,8.916-1.528.135-2.6.256-3.039.308-1.211-.007-4.962-.012-5.475-.011-.987-.939-1.993-1.991-3.03-3.076-1.167-1.22-2.335-2.438-3.55-3.6A58.684,58.684,0,0,0,396.013,58a50.41,50.41,0,0,0-17.542,3.081c-21.4,7.908-34.717,30.812-30.321,52.141.155.757.333,1.517.513,2.278.169.714.4,1.678.517,2.388a41.155,41.155,0,0,1-7.213,2.219l-1.243.3A51.915,51.915,0,0,0,319.4,131.439a52.517,52.517,0,0,0-20.817,98.293c-2.632,8.5-2.67,18.639-.146,30.659,1.681,8.015,4.857,19.727,13.005,28.846.561.629,1.149,1.243,1.756,1.845a272.93,272.93,0,0,0-1.074,58.741c3.29,36.245,11.148,41.258,14.108,43.146,3.16,2.025,8.48,5.43,66.649,10.168,24.584,2,49.18,3.455,57.468,3.927a11.189,11.189,0,0,0,3.649.607S454.254,407.669,454.373,407.664Z" transform="translate(-271.446 -32.855)" fill="#fff"/>
    <g id="Grupo_1160577" data-name="Grupo 1160577" transform="translate(2.08 11.071)">
      <g id="Grupo_1160576" data-name="Grupo 1160576" transform="translate(0)">
        <path id="Trazado_994471" data-name="Trazado 994471" d="M520.791,246.946c2.479-6.237,3.179-13.8,8.5-17.9,6.134-4.723,14.831-2.253,22.563-1.851a38.594,38.594,0,0,0,36.216-56.408c-2.884-5.521-7.247-10.884-6.786-17.1.3-4.022,2.609-7.562,4.243-11.251,8.125-18.338-3.413-42.6-22.762-47.87-13.21-3.6-30.178-.456-38.2-11.548-3.3-4.563-4-10.439-5.73-15.8A40.745,40.745,0,0,0,452.06,50.158c-9.331,8.825-13.917,21.4-20.559,32.39-1.7,2.819-3.683,5.669-6.626,7.153-4.383,2.21-9.837.778-13.892-1.988s-7.149-6.693-10.69-10.1C388.147,65.951,369.436,60.8,353.637,66.637S326.678,90.1,330.077,106.6c.693,3.363,1.925,6.829,1,10.136-1.792,6.4-9.867,7.983-16.316,9.584-12.941,3.213-25.788,13.253-25.932,26.586-.18,16.564,18.87,30.871,13.556,46.561-3.049,9-12.968,13.627-18.441,21.4-6.535,9.276-5.92,21.765-3.591,32.87,1.81,8.624,4.645,17.349,10.516,23.92,7.751,8.677,19.893,12.409,31.528,12.382s22.983-3.38,34.073-6.9c3.436-1.09,6.987-2.212,10.571-1.836,10,1.051,14.89,12.243,21.127,20.128A41.064,41.064,0,0,0,450.356,304c5.144-5.5,8.6-12.243,11.506-19.121,2.317-5.484,3.9-12.231,8.253-16.575,3.468-3.462,7.839-4.21,12.583-3.9,8.022.527,14.886,2.175,22.6-1.338A30.3,30.3,0,0,0,520.791,246.946Z" transform="translate(-245.143 -39.071)" fill="#e9a6fb"/>
        <g id="Grupo_1160541" data-name="Grupo 1160541" transform="translate(247.052 87.692)">
          <g id="Grupo_1160536" data-name="Grupo 1160536" transform="translate(0 90.894)">
            <path id="Trazado_994472" data-name="Trazado 994472" d="M379.792,153.091,308.9,139.343,277.536,275.972s58.862,10.742,76.048-13.748S379.792,153.091,379.792,153.091Z" transform="translate(-277.536 -139.338)" fill="#ffe9e1"/>
            <path id="Trazado_994473" data-name="Trazado 994473" d="M277.54,139.34s6.041,6.6,18.275,12.234c4.862,2.239,12.248-.606,19.1.874,10.551,2.255,17.066,6.647,22.771,5.318,7.286-1.7,10.736-4.679,10.736-4.679l-10.35-2-41.061-7.977Z" transform="translate(-246.17 -139.34)"/>
          </g>
          <g id="Grupo_1160540" data-name="Grupo 1160540" transform="translate(41.46)">
            <g id="Grupo_1160539" data-name="Grupo 1160539">
              <g id="Grupo_1160537" data-name="Grupo 1160537" transform="translate(6.224)">
                <path id="Trazado_994474" data-name="Trazado 994474" d="M278.494,191.435a84.94,84.94,0,0,0,17.584,5.822c10.551,2.255,18.578,1.7,24.283.37l.387-6.681.253-4.223s7.555-34.059,8.33-41.162a4.99,4.99,0,0,0,.05-1.161c-.321-1.986-2.187-6.125-3.03-7.926a.129.129,0,0,0-.034-.084c-.219-.488-.37-.791-.37-.791a.729.729,0,0,0-.016-.118,82.808,82.808,0,0,0-1.783-9.878.684.684,0,0,1-.05-.118,2.5,2.5,0,0,0-.522-1.06,1.931,1.931,0,0,0-.253-.167c-.084-.05-.185-.084-.287-.135a7.619,7.619,0,0,0-3.113-.118s-.016-.269-.084-.707a57.221,57.221,0,0,0-1.767-10.081.121.121,0,0,0-.034-.084,5.689,5.689,0,0,0-.59-1.313.7.7,0,0,0-.169-.219.714.714,0,0,0-.169-.167,1.189,1.189,0,0,0-.185-.118c-1.936-.858-5.806-.42-5.806-.42S302.1,88.77,299.525,88.332c-2.44-.4-5.452,3.988-4.324,11.174.068.42.134.858.235,1.3,1.43,6.6,2.1,10.081,2.3,11.073,0,.034,0,.05.016.068.016.151.034.235.034.235l-2.946,7.589-.068.167-.723,1.868-2.912,7.488v.018l-6.025,15.533-.976,6.816-.707,5.015-1.313,9.137v.034l-2.44,17.13Z" transform="translate(-276.533 -88.307)" fill="#b76059"/>
                <path id="Trazado_994475" data-name="Trazado 994475" d="M317.883,135.661S300.911,99.14,296.829,99.785s4.727,58.433,4.727,58.433l9.881,6.23Z" transform="translate(-295.749 -79.348)" fill="#b76059"/>
              </g>
              <path id="Trazado_994476" data-name="Trazado 994476" d="M302.43,119.515l.258-20.91h-1.548V94.594h18.046V98.6h-2.241l.522,21.626,15.18,28.93-1.574,4.3-44.683-2.292-1.576-4.152Z" transform="translate(-284.814 -83.396)" fill="#fff"/>
              <path id="Trazado_994477" data-name="Trazado 994477" d="M314.726,107.018l-10.955.214-17.187,29,40.387,3.436Z" transform="translate(-282.287 -73.692)" fill="#af78fe"/>
              <g id="Grupo_1160538" data-name="Grupo 1160538" transform="translate(22.454 22.478)">
                <path id="Trazado_994478" data-name="Trazado 994478" d="M280.519,110.073a4.33,4.33,0,0,0,.723.623,21.784,21.784,0,0,0,8.027,3.163h-3.252a3.347,3.347,0,0,0-3.361,3.619,5.159,5.159,0,0,0,1.749,3.534c3,2.575,11.595,2.727,11.595,2.727l-5.29,1.345a3.341,3.341,0,0,0-2.518,3.624c.265,2.1,1.1,4.72,3.516,5.767,4.291,1.868,11.728,1.3,11.728,1.3l6.882,5.436,4.745-5.5a4.985,4.985,0,0,0,.05-1.161c-.42-2.575-3.434-8.8-3.434-8.8s-1.3-10.316-2.372-11.174a9.73,9.73,0,0,0-3.432-1.286s-1.281-10.964-3.217-11.823-5.806-.42-5.806-.42l-13.378.976-1.856.137a3.37,3.37,0,0,0-3.033,4.13A7.985,7.985,0,0,0,280.519,110.073Z" transform="translate(-278.494 -100.927)" fill="#b76059"/>
                <path id="Trazado_994479" data-name="Trazado 994479" d="M311.034,113.209s-.965-11.345-3.892-12.035-21.225,1.09-21.225,1.09-4.474,2.926-.746,7a14.192,14.192,0,0,0,8.661,4.417" transform="translate(-283.649 -100.858)" fill="none" stroke="#000" stroke-linecap="round" stroke-linejoin="round" stroke-miterlimit="10" stroke-width="0.472"/>
                <path id="Trazado_994480" data-name="Trazado 994480" d="M309.227,120.295s-.8-9.924-2.64-11.3-6.195-1.09-10.612-1.033-14.168.8-14.168.8-2.983,2.983-.173,6.195,9.351,3.04,9.351,3.04l3.671.114.057.917" transform="translate(-276.037 -95.483)" fill="none" stroke="#000" stroke-linecap="round" stroke-linejoin="round" stroke-miterlimit="10" stroke-width="0.472"/>
                <path id="Trazado_994481" data-name="Trazado 994481" d="M305.588,124.407s-2.754-9.465-4.934-9.981-17.955-.287-20.765.8-1.2,6.424,1.2,8.375,8.777,1.95,8.777,1.95l5.851-.4" transform="translate(-268.785 -90.59)" fill="none" stroke="#000" stroke-linecap="round" stroke-linejoin="round" stroke-miterlimit="10" stroke-width="0.472"/>
              </g>
            </g>
          </g>
        </g>
        <path id="Trazado_994482" data-name="Trazado 994482" d="M344.916,160.084l-1.16-3.943a8.411,8.411,0,0,0-7.74-6.032l-25.663-1.01a8.415,8.415,0,0,0-7.3,3.694l-3.965,5.861Z" transform="translate(-33.992 46.863)" fill="#7581fe"/>
        <g id="Grupo_1160568" data-name="Grupo 1160568" transform="translate(48.038 47.372)">
          <g id="Grupo_1160558" data-name="Grupo 1160558" transform="translate(60.33)">
            <g id="Grupo_1160556" data-name="Grupo 1160556" transform="translate(0)">
              <g id="Grupo_1160542" data-name="Grupo 1160542" transform="translate(18.825 67.565)">
                <path id="Trazado_994483" data-name="Trazado 994483" d="M369.418,103.6l1.954,47.271L402.906,176.7,427.885,152l-1.7-24.6-31.824-13.34Z" transform="translate(-369.418 -103.604)" fill="#b76059"/>
              </g>
              <g id="Grupo_1160543" data-name="Grupo 1160543" transform="translate(40.347 78.022)">
                <path id="Trazado_994484" data-name="Trazado 994484" d="M373.243,126.953a36.754,36.754,0,0,0,8.464,7.682,56.747,56.747,0,0,0,11.73,6.479c3.32,1.3,8.483,3,12.813,2.55l-1.441-20.847-31.824-13.342a8.365,8.365,0,0,0-2.251,2.5,9.592,9.592,0,0,0-1.156,4.346A16.77,16.77,0,0,0,373.243,126.953Z" transform="translate(-369.564 -109.475)"/>
              </g>
              <g id="Grupo_1160555" data-name="Grupo 1160555">
                <g id="Grupo_1160544" data-name="Grupo 1160544" transform="translate(62.219)">
                  <path id="Trazado_994485" data-name="Trazado 994485" d="M353.959,66.458s39.03-4.958,45.531,9.978c4.743,10.895-7.5,18.017-7.5,18.017s10.608,4.736,5.459,12.528-16.731,14.281-16.731,14.281l-31.9-50.073Z" transform="translate(-348.817 -65.669)"/>
                </g>
                <g id="Grupo_1160554" data-name="Grupo 1160554" transform="translate(0 0.833)">
                  <g id="Grupo_1160545" data-name="Grupo 1160545" transform="translate(17.97 2.584)">
                    <path id="Trazado_994486" data-name="Trazado 994486" d="M357.539,107.892c-.5-21.066,19.447-38.822,39.655-40.218,20.228-1.4,37.889,14.211,40.272,35.174l-.078,4.031.632,30.339a24.638,24.638,0,0,1-7.769,18.623h0a22.328,22.328,0,0,1-13.618,5.929l-38.585,2.668L358.385,131.73Z" transform="translate(-357.53 -67.587)" fill="#b76059"/>
                  </g>
                  <g id="Grupo_1160549" data-name="Grupo 1160549" transform="translate(49.772 51.836)">
                    <g id="Grupo_1160546" data-name="Grupo 1160546" transform="translate(33.61)">
                      <path id="Trazado_994487" data-name="Trazado 994487" d="M361.965,99.089a3.6,3.6,0,1,0,3.343-3.84A3.6,3.6,0,0,0,361.965,99.089Z" transform="translate(-361.956 -95.24)"/>
                    </g>
                    <g id="Grupo_1160547" data-name="Grupo 1160547" transform="translate(0 3.199)">
                      <path id="Trazado_994488" data-name="Trazado 994488" d="M380.836,100.885a3.6,3.6,0,1,0,3.343-3.84A3.6,3.6,0,0,0,380.836,100.885Z" transform="translate(-380.827 -97.036)"/>
                    </g>
                    <g id="Grupo_1160548" data-name="Grupo 1160548" transform="translate(14.271 17.307)">
                      <path id="Trazado_994489" data-name="Trazado 994489" d="M378.05,110.387a5.725,5.725,0,0,0,3.2-1.213.427.427,0,0,0-.536-.664,5.262,5.262,0,0,1-5.145.639,6.941,6.941,0,0,1-3.7-3.92.428.428,0,0,0-.8.312,7.71,7.71,0,0,0,4.177,4.4A6.346,6.346,0,0,0,378.05,110.387Z" transform="translate(-371.035 -104.957)"/>
                    </g>
                  </g>
                  <g id="Grupo_1160550" data-name="Grupo 1160550" transform="translate(0.297)">
                    <path id="Trazado_994490" data-name="Trazado 994490" d="M444.749,66.251s-1.309,28.526-17.987,40.4-23.09,14.063-23.09,14.063l-6.588,12.268-7.733-10.62s-6.494-2.176-13.053,4.184c0,0-9.429-44.626-1.712-53.254S444.749,66.251,444.749,66.251Z" transform="translate(-371.549 -66.136)"/>
                  </g>
                  <g id="Grupo_1160553" data-name="Grupo 1160553" transform="translate(0 54.509)">
                    <g id="Grupo_1160551" data-name="Grupo 1160551">
                      <path id="Trazado_994491" data-name="Trazado 994491" d="M424.015,106.549c-2.752-5.553-9.051-9.807-15.317-9.808a11.678,11.678,0,0,0-11.577,13.183c1.177,8.857,11.835,17.679,20.653,12.945C429.084,116.8,424.028,106.574,424.015,106.549Z" transform="translate(-397.018 -96.741)" fill="#b76059"/>
                    </g>
                    <g id="Grupo_1160552" data-name="Grupo 1160552" transform="translate(2.988 4.014)">
                      <path id="Trazado_994492" data-name="Trazado 994492" d="M418.2,116.781a.631.631,0,0,0,.116-.021.5.5,0,0,0,.33-.63,28.177,28.177,0,0,0-10.67-14.56A13.256,13.256,0,0,0,402.058,99a.5.5,0,0,0-.127,1,12.318,12.318,0,0,1,5.468,2.4,27.166,27.166,0,0,1,10.289,14.038A.5.5,0,0,0,418.2,116.781Z" transform="translate(-401.493 -98.995)"/>
                    </g>
                  </g>
                </g>
              </g>
            </g>
            <g id="Grupo_1160557" data-name="Grupo 1160557" transform="translate(44.842 41.755)">
              <path id="Trazado_994493" data-name="Trazado 994493" d="M372.63,92.95a2.522,2.522,0,0,1,.036,2.162,2.15,2.15,0,0,1-.882.805,5.73,5.73,0,0,1-1.986.536,15.047,15.047,0,0,1-7.582-.743,3.333,3.333,0,0,1-1.38-.907,2.4,2.4,0,0,1-.445-.946,3.814,3.814,0,0,1,2.034-4.073C365.516,88.155,371.269,89.6,372.63,92.95Z" transform="translate(-324.213 -89.113)"/>
              <path id="Trazado_994494" data-name="Trazado 994494" d="M380.834,93.835A2.518,2.518,0,0,0,380.8,96a2.15,2.15,0,0,0,.882.805,5.718,5.718,0,0,0,1.986.536,15.047,15.047,0,0,0,7.582-.743,3.333,3.333,0,0,0,1.38-.907,2.4,2.4,0,0,0,.445-.946,3.815,3.815,0,0,0-2.034-4.073C387.948,89.039,382.2,90.482,380.834,93.835Z" transform="translate(-380.569 -88.422)"/>
            </g>
            <path id="Trazado_994495" data-name="Trazado 994495" d="M369.8,95.685q1.453,2.754,2.754,5.584a8.364,8.364,0,0,1,.72,2.023,5.786,5.786,0,0,1-1.2,4.267,17.178,17.178,0,0,1-3.27,3.147" transform="translate(-294.961 -42.224)" fill="none" stroke="#000" stroke-linecap="round" stroke-linejoin="round" stroke-miterlimit="10" stroke-width="0.472"/>
          </g>
          <g id="Grupo_1160567" data-name="Grupo 1160567" transform="translate(0 105.151)">
            <g id="Grupo_1160564" data-name="Grupo 1160564">
              <path id="Trazado_994496" data-name="Trazado 994496" d="M344.16,289.983c10.3,6.6,111.714,35.228,111.714,35.228V311.462l.135-.05,20.429-8.077,32.709-44.573s14.318-79.348-15.754-97.96c-23.072-14.288-25.369-23.492-29.054-24.737a11.665,11.665,0,0,0-1.6-.47l-2-7.153-18.325,18.04-37.527-21.775-7.32,11.36-.42.673s-10.884,22.345-30.355,61.874C347.3,238.138,333.844,283.4,344.16,289.983Z" transform="translate(-323.596 -124.707)" fill="#7581fe"/>
              <g id="Grupo_1160559" data-name="Grupo 1160559" transform="translate(140.741 11.354)">
                <path id="Trazado_994497" data-name="Trazado 994497" d="M328.032,131.082c.169,1.6.386,3.231.538,4.83.976,10.181,1.548,20.395,1.884,30.627.4,11.511.5,23.038.623,34.565q.278,27.891.556,55.818c0,.775.016,1.548.016,2.323,0,.791.016,1.582.034,2.39.084,7.623.353,15.314,2.205,22.668a45.429,45.429,0,0,0,6.243,14.051l58.494-23.088s-3.163-105.7-33.235-124.309q-4.192-2.6-7.842-4.763c-.235-.135-.47-.287-.707-.42C339.627,135.576,331.229,132.16,328.032,131.082Z" transform="translate(-328.032 -131.082)" fill="#ffe9e1"/>
              </g>
              <g id="Grupo_1160560" data-name="Grupo 1160560" transform="translate(0 11.356)">
                <path id="Trazado_994498" data-name="Trazado 994498" d="M382.6,307.626c10.3,6.6,122.021,12.6,122.021,12.6V306.482l.135-.05c-.42-16.744-1.631-33.623-2.137-50.215H460.144c-.791-42.389-1.616-84.661-13.834-125.134l-.42.673a91.967,91.967,0,0,0-28.759,11.762c-.235.135-.488.287-.723.438a85.217,85.217,0,0,0-31.8,34.784C365.115,218.268,372.284,301.045,382.6,307.626Z" transform="translate(-372.343 -131.083)" fill="#ffe9e1"/>
              </g>
              <g id="Grupo_1160563" data-name="Grupo 1160563" transform="translate(44.065 23.791)">
                <g id="Grupo_1160561" data-name="Grupo 1160561" transform="translate(0)">
                  <path id="Trazado_994499" data-name="Trazado 994499" d="M402.454,143.634c15.347,16.425,30.089,33.2,32.243,35.643l-18.763,18.056a.388.388,0,0,0-.068.5c.167.3,17.586,29.87,24.148,52.032a.445.445,0,0,0,.4.3.238.238,0,0,0,.118-.018.408.408,0,0,0,.287-.522c-6.243-21.1-22.247-48.819-24.064-51.931l18.8-18.106a.4.4,0,0,0,.034-.572c-.167-.185-16-18.275-32.529-35.961-1.733-1.868-3.265-3.518-4.577-5-.235.135-.488.287-.723.438C399.1,140.017,400.669,141.716,402.454,143.634Z" transform="translate(-397.759 -138.065)"/>
                </g>
                <g id="Grupo_1160562" data-name="Grupo 1160562" transform="translate(99.822 2.253)">
                  <path id="Trazado_994500" data-name="Trazado 994500" d="M351.1,254.755a.418.418,0,0,0,.386.454h.034c.034,0,.068,0,.084-.018a.41.41,0,0,0,.337-.37c3.1-36.938,21.2-58.848,21.371-59.049a.431.431,0,0,0,0-.556l-19.536-22.668,23.694-32.8c-.235-.135-.47-.287-.707-.42l-23.863,33a.409.409,0,0,0,.016.522l19.536,22.65c-2.036,2.558-17.1,22.532-20.9,54.978C351.365,251.877,351.214,253.307,351.1,254.755Z" transform="translate(-351.095 -139.33)"/>
                </g>
              </g>
              <path id="Trazado_994501" data-name="Trazado 994501" d="M429.8,126.8l5.445,33.22-23.7-14.966-19.836,23.273-25.079-33.9" transform="translate(-292.665 -123.071)" fill="none" stroke="#000" stroke-linecap="round" stroke-linejoin="round" stroke-miterlimit="10" stroke-width="0.472"/>
              <path id="Trazado_994502" data-name="Trazado 994502" d="M376.5,137.051c4.859,38.035,7.172,75.359,4.958,113.637" transform="translate(-257.297 -115.066)" fill="none" stroke="#000" stroke-linecap="round" stroke-linejoin="round" stroke-miterlimit="10" stroke-width="0.472"/>
            </g>
            <path id="Trazado_994503" data-name="Trazado 994503" d="M419.691,154.812l-107.412-1.719-31.365,124.6,105.264-13.319Z" transform="translate(-124.437 -102.536)" fill="#af78fe"/>
            <g id="Grupo_1160566" data-name="Grupo 1160566" transform="translate(130.482 112.384)">
              <path id="Trazado_994504" data-name="Trazado 994504" d="M319,214.059s42.965-27.5,45.757-26.208-10.742,20.838-10.742,20.838S406,192.362,408.8,195.584s-9.023,10.312-9.023,10.312,14.824-4.941,16.111.429-20.623,13.534-20.623,13.534,18.475-5.8,19.978-.216S381.082,236.4,381.082,236.4s21.483-7.949,22.986-3.222S320.787,268.2,320.787,268.2Z" transform="translate(-318.999 -187.806)" fill="#b76059"/>
              <g id="Grupo_1160565" data-name="Grupo 1160565" transform="translate(26.711 7.011)">
                <path id="Trazado_994505" data-name="Trazado 994505" d="M322.658,208.407s60.294-18.762,63.016-16.47-3.008,8.449-8.952,10.884l-29.646,10.635" transform="translate(-322.658 -191.743)" fill="none" stroke="#000" stroke-linecap="round" stroke-linejoin="round" stroke-miterlimit="10" stroke-width="0.472"/>
                <path id="Trazado_994506" data-name="Trazado 994506" d="M346.558,197.994s10.742-3.651,12.674.645-9.917,9.824-19.442,14.179c-11.278,5.156-20.516,8.485-20.516,8.485" transform="translate(-289.701 -187.991)" fill="none" stroke="#000" stroke-linecap="round" stroke-linejoin="round" stroke-miterlimit="10" stroke-width="0.472"/>
                <path id="Trazado_994507" data-name="Trazado 994507" d="M331.017,209.056s20.945-8.7,23.309-2.686c2.073,5.279-34.8,17.508-34.8,17.508" transform="translate(-285.115 -181.973)" fill="none" stroke="#000" stroke-linecap="round" stroke-linejoin="round" stroke-miterlimit="10" stroke-width="0.472"/>
              </g>
            </g>
            <path id="Trazado_994508" data-name="Trazado 994508" d="M372.419,160.571l22.055,71.9,61.589.716,2,64.013" transform="translate(-325.789 -96.695)" fill="none" stroke="#000" stroke-linecap="round" stroke-linejoin="round" stroke-miterlimit="10" stroke-width="0.472"/>
          </g>
        </g>
        <g id="Grupo_1160572" data-name="Grupo 1160572" transform="translate(0 1.442)">
          <circle id="Elipse_11789" data-name="Elipse 11789" cx="41.819" cy="41.819" r="41.819" transform="translate(279.422 118.282) rotate(-135)" fill="#7581fe"/>
          <ellipse id="Elipse_11790" data-name="Elipse 11790" cx="41.82" cy="41.82" rx="41.82" ry="41.82" transform="matrix(-0.227, -0.974, 0.974, -0.227, 19.028, 189.001)" fill="#af78fe"/>
          <g id="Grupo_1160571" data-name="Grupo 1160571" transform="translate(228.787 22.475)">
            <g id="Grupo_1160570" data-name="Grupo 1160570">
              <g id="Grupo_1160569" data-name="Grupo 1160569">
                <ellipse id="Elipse_11791" data-name="Elipse 11791" cx="14.571" cy="40.183" rx="14.571" ry="40.183" transform="translate(20.002)" fill="none" stroke="#000" stroke-miterlimit="10" stroke-width="0.647"/>
                <path id="Trazado_994509" data-name="Trazado 994509" d="M328.746,98.621c15.693,15.693,33.026,23.8,38.717,18.11s-2.417-23.026-18.11-38.717-33.026-23.8-38.717-18.11S313.055,82.928,328.746,98.621Z" transform="translate(-304.476 -48.135)" fill="none" stroke="#000" stroke-miterlimit="10" stroke-width="0.647"/>
                <path id="Trazado_994510" data-name="Trazado 994510" d="M348.925,98.285C367.5,86.143,378.992,70.84,374.589,64.1s-23.031-2.355-41.607,9.787-30.066,27.444-25.663,34.182S330.349,110.426,348.925,98.285Z" transform="translate(-306.378 -45.905)" fill="none" stroke="#000" stroke-miterlimit="10" stroke-width="0.647"/>
              </g>
              <ellipse id="Elipse_11792" data-name="Elipse 11792" cx="5.446" cy="5.446" rx="5.446" ry="5.446" transform="translate(28.833 35.03)"/>
            </g>
            <path id="Trazado_994511" data-name="Trazado 994511" d="M339.923,61.242a3.729,3.729,0,1,0,3.728-3.73A3.729,3.729,0,0,0,339.923,61.242Z" transform="translate(-337.975 -48.584)"/>
            <path id="Trazado_994512" data-name="Trazado 994512" d="M307.638,92.756a3.729,3.729,0,1,0,3.728-3.73A3.729,3.729,0,0,0,307.638,92.756Z" transform="translate(-248.189 -23.969)"/>
          </g>
        </g>
        <g id="Grupo_1160573" data-name="Grupo 1160573" transform="translate(245.76 124.169)">
          <line id="Línea_670" data-name="Línea 670" y2="26.638" transform="translate(13.321)" fill="none" stroke="#000" stroke-miterlimit="10" stroke-width="0.945"/>
          <line id="Línea_671" data-name="Línea 671" x2="26.639" transform="translate(0 13.319)" fill="none" stroke="#000" stroke-miterlimit="10" stroke-width="0.945"/>
        </g>
        <g id="Grupo_1160574" data-name="Grupo 1160574" transform="translate(67.456 91.944)">
          <line id="Línea_672" data-name="Línea 672" y2="26.639" transform="translate(13.319)" fill="none" stroke="#000" stroke-miterlimit="10" stroke-width="0.945"/>
          <line id="Línea_673" data-name="Línea 673" x2="26.638" transform="translate(0 13.319)" fill="none" stroke="#000" stroke-miterlimit="10" stroke-width="0.945"/>
        </g>
        <g id="Grupo_1160575" data-name="Grupo 1160575" transform="translate(53.619 138.204)">
          <path id="Trazado_994513" data-name="Trazado 994513" d="M351.371,126.283c2.2-2.7,3.309-6.129,4.189-9.513,0-.032.007-.062.011-.1l.005.034c0-.012.007-.027.011-.041,0,.041,0,.08,0,.118.556,3.45,1.332,6.962,3.27,9.858a13.589,13.589,0,0,0,8.991,5.516c-7.023,1.649-12.781,6.989-13.679,14.145-.012.005-.012,0-.02-.012-.217-7.208-5.42-13.062-12.254-15.367A13.587,13.587,0,0,0,351.371,126.283Z" transform="translate(-186.794 -116.667)" fill="#ffe9e1"/>
          <path id="Trazado_994514" data-name="Trazado 994514" d="M438.456,139.55c2.2-2.7,3.309-6.129,4.189-9.513,0-.032.007-.062.011-.1l.005.034c0-.012.007-.027.011-.041,0,.041,0,.08,0,.118.556,3.45,1.332,6.962,3.27,9.858a13.589,13.589,0,0,0,8.991,5.516c-7.021,1.649-12.781,6.989-13.679,14.145-.012.005-.012,0-.02-.014-.217-7.208-5.42-13.062-12.254-15.367A13.571,13.571,0,0,0,438.456,139.55Z" transform="translate(-428.983 -106.305)" fill="#ffe9e1"/>
        </g>
      </g>
    </g>
  </g>
</svg>
