<svg xmlns="http://www.w3.org/2000/svg" xmlns:xlink="http://www.w3.org/1999/xlink" width="562" height="442" viewBox="0 0 562 442">
  <defs>
    <clipPath id="clip-path">
      <rect id="Rectángulo_413421" data-name="Rectángulo 413421" width="562" height="442" transform="translate(0 0.284)" fill="#fff" stroke="#707070" stroke-width="1"/>
    </clipPath>
    <clipPath id="clip-path-2">
      <rect id="Rectángulo_413348" data-name="Rectángulo 413348" width="1054" height="594" transform="translate(0.302 0.146)"/>
    </clipPath>
    <clipPath id="clip-path-4">
      <rect id="Rectángulo_413349" data-name="Rectángulo 413349" width="746.159" height="497.439"/>
    </clipPath>
    <clipPath id="clip-path-5">
      <rect id="Rectángulo_413350" data-name="Rectángulo 413350" width="746.152" height="497.434" transform="translate(0 0)"/>
    </clipPath>
    <linearGradient id="linear-gradient" x1="1.213" y1="1.599" x2="1.213" y2="0.557" gradientUnits="objectBoundingBox">
      <stop offset="0" stop-color="#dbccff"/>
      <stop offset="1" stop-color="#d1bbff"/>
    </linearGradient>
    <linearGradient id="linear-gradient-2" x1="1.24" y1="1.603" x2="1.24" y2="0.561" gradientUnits="objectBoundingBox">
      <stop offset="0" stop-color="#b5a6e7"/>
      <stop offset="1" stop-color="#7760bf"/>
    </linearGradient>
    <linearGradient id="linear-gradient-3" x1="2.315" y1="2.38" x2="2.315" y2="1.336" xlink:href="#linear-gradient-2"/>
    <linearGradient id="linear-gradient-4" x1="4.682" y1="10.747" x2="3.578" y2="10.747" gradientUnits="objectBoundingBox">
      <stop offset="0" stop-color="#8b8be0"/>
      <stop offset="1" stop-color="#a177b7"/>
    </linearGradient>
    <linearGradient id="linear-gradient-5" x1="2.548" y1="4.539" x2="2.548" y2="4.021" gradientUnits="objectBoundingBox">
      <stop offset="0" stop-color="#fff"/>
      <stop offset="1" stop-color="#a177b7"/>
    </linearGradient>
    <linearGradient id="linear-gradient-6" x1="2.899" y1="2.366" x2="2.899" y2="1.285" gradientUnits="objectBoundingBox">
      <stop offset="0"/>
      <stop offset="1" stop-color="#fff"/>
    </linearGradient>
    <linearGradient id="linear-gradient-7" x1="0.5" y1="1" x2="0.5" gradientUnits="objectBoundingBox">
      <stop offset="0" stop-color="#6456c0"/>
      <stop offset="1" stop-color="#5f2c95"/>
    </linearGradient>
    <radialGradient id="radial-gradient" cx="0.5" cy="0.5" r="0.198" gradientTransform="matrix(-2.171, 0.225, 1.294, 2.518, 4.802, -0.206)" gradientUnits="objectBoundingBox">
      <stop offset="0" stop-color="#4b474b"/>
      <stop offset="1"/>
    </radialGradient>
    <radialGradient id="radial-gradient-2" cx="0.5" cy="0.5" r="0.2" gradientTransform="matrix(-2.027, -0.27, -1.467, 2.488, 2.455, 0.245)" xlink:href="#radial-gradient"/>
    <linearGradient id="linear-gradient-8" x1="1" y1="0.5" x2="0" y2="0.5" gradientUnits="objectBoundingBox">
      <stop offset="0" stop-color="#9e8cef"/>
      <stop offset="1" stop-color="#caafee"/>
    </linearGradient>
    <linearGradient id="linear-gradient-9" x1="12.751" y1="0.5" x2="11.751" y2="0.5" xlink:href="#linear-gradient-8"/>
    <linearGradient id="linear-gradient-10" x1="0.5" y1="1" x2="0.5" gradientUnits="objectBoundingBox">
      <stop offset="0" stop-color="#ccf"/>
      <stop offset="1" stop-color="#755cbb"/>
    </linearGradient>
    <linearGradient id="linear-gradient-12" x1="0.5" x2="0.5" y2="0" xlink:href="#linear-gradient-10"/>
    <linearGradient id="linear-gradient-13" x1="0.5" y1="1" x2="0.5" gradientUnits="objectBoundingBox">
      <stop offset="0" stop-color="#d5cdf8"/>
      <stop offset="1" stop-color="#f3edfb"/>
    </linearGradient>
    <linearGradient id="linear-gradient-14" x1="1" y1="0.5" x2="0" y2="0.5" xlink:href="#linear-gradient-10"/>
    <linearGradient id="linear-gradient-15" x1="0.5" y1="1" x2="0.5" y2="0" xlink:href="#linear-gradient-8"/>
    <linearGradient id="linear-gradient-17" x1="0.5" y1="1" x2="0.5" gradientUnits="objectBoundingBox">
      <stop offset="0" stop-color="#9e8cef"/>
      <stop offset="1" stop-color="#dac7f3"/>
    </linearGradient>
    <linearGradient id="linear-gradient-18" x1="1" y1="0.5" x2="0" y2="0.5" gradientUnits="objectBoundingBox">
      <stop offset="0" stop-color="#a999f1"/>
      <stop offset="1" stop-color="#dac7f3"/>
    </linearGradient>
    <linearGradient id="linear-gradient-19" x1="0.5" y1="1" x2="0.5" gradientUnits="objectBoundingBox">
      <stop offset="0.016" stop-color="#ffc2a9"/>
      <stop offset="1" stop-color="#ff9595"/>
    </linearGradient>
    <linearGradient id="linear-gradient-20" x1="0.5" y1="1" x2="0.5" gradientUnits="objectBoundingBox">
      <stop offset="0" stop-color="#ffeadb"/>
      <stop offset="0.994" stop-color="#c27cb6"/>
    </linearGradient>
    <linearGradient id="linear-gradient-22" x1="1" y1="0.5" x2="0" y2="0.5" gradientUnits="objectBoundingBox">
      <stop offset="0.016" stop-color="#d1a1d6"/>
      <stop offset="0.994" stop-color="#bd89c4"/>
    </linearGradient>
    <linearGradient id="linear-gradient-23" x1="0.5" y1="1" x2="0.5" y2="0" xlink:href="#linear-gradient-19"/>
    <linearGradient id="linear-gradient-25" x1="0.5" y1="1" x2="0.5" gradientUnits="objectBoundingBox">
      <stop offset="0" stop-color="#ffb0b0"/>
      <stop offset="0.984" stop-color="#ffc2a9"/>
    </linearGradient>
    <linearGradient id="linear-gradient-26" x1="0.5" y1="1" x2="0.5" y2="0" xlink:href="#linear-gradient-25"/>
    <linearGradient id="linear-gradient-27" x1="1" y1="0.5" x2="0" y2="0.5" xlink:href="#linear-gradient-22"/>
    <linearGradient id="linear-gradient-30" x1="1" y1="0.5" x2="0" y2="0.5" gradientUnits="objectBoundingBox">
      <stop offset="0" stop-color="#ccedff"/>
      <stop offset="1" stop-color="#755cbb"/>
    </linearGradient>
    <linearGradient id="linear-gradient-32" x1="1" y1="0.5" x2="0" y2="0.5" xlink:href="#linear-gradient-30"/>
    <linearGradient id="linear-gradient-33" x1="0.5" y1="1" x2="0.5" y2="0" xlink:href="#linear-gradient-30"/>
    <linearGradient id="linear-gradient-34" x1="0.5" y1="1" x2="0.5" y2="0" xlink:href="#linear-gradient-30"/>
    <linearGradient id="linear-gradient-36" x1="1" y1="0.5" x2="0" y2="0.5" xlink:href="#linear-gradient-30"/>
    <linearGradient id="linear-gradient-37" x1="0.5" x2="0.5" y2="0" xlink:href="#linear-gradient-10"/>
    <linearGradient id="linear-gradient-38" x1="0.5" x2="0.5" y2="0" xlink:href="#linear-gradient-10"/>
    <linearGradient id="linear-gradient-39" x1="0.5" x2="0.5" y2="0" xlink:href="#linear-gradient-10"/>
    <linearGradient id="linear-gradient-40" x1="0.5" y1="1" x2="0.5" y2="0" xlink:href="#linear-gradient-30"/>
    <linearGradient id="linear-gradient-44" x1="1" y1="0.5" x2="0" y2="0.5" gradientUnits="objectBoundingBox">
      <stop offset="0" stop-color="#8642a0"/>
      <stop offset="1" stop-color="#6456c0"/>
    </linearGradient>
    <linearGradient id="linear-gradient-50" x1="0.5" y1="1" x2="0.5" y2="0" xlink:href="#linear-gradient-19"/>
    <linearGradient id="linear-gradient-51" x1="0.5" y1="1" x2="0.5" y2="0" xlink:href="#linear-gradient-19"/>
    <linearGradient id="linear-gradient-52" x1="0.53" y1="0.933" x2="0.483" y2="0.115" gradientUnits="objectBoundingBox">
      <stop offset="0" stop-color="#e1616a"/>
      <stop offset="1" stop-color="#ff8883"/>
    </linearGradient>
    <linearGradient id="linear-gradient-54" x1="0.5" y1="1" x2="0.5" gradientUnits="objectBoundingBox">
      <stop offset="0" stop-color="#cf6074"/>
      <stop offset="1" stop-color="#f37270"/>
    </linearGradient>
    <linearGradient id="linear-gradient-55" x1="0.5" y1="1" x2="0.5" gradientUnits="objectBoundingBox">
      <stop offset="0" stop-color="#cf6074"/>
      <stop offset="1" stop-color="#ff817f"/>
    </linearGradient>
    <linearGradient id="linear-gradient-56" x1="0.5" y1="1" x2="0.5" y2="0" xlink:href="#linear-gradient-20"/>
    <linearGradient id="linear-gradient-57" x1="0.5" y1="1" x2="0.5" gradientUnits="objectBoundingBox">
      <stop offset="0" stop-color="#2e33a0"/>
      <stop offset="1" stop-color="#0665a5"/>
    </linearGradient>
    <linearGradient id="linear-gradient-58" x1="0.499" y1="1" x2="0.499" gradientUnits="objectBoundingBox">
      <stop offset="0" stop-color="#ffeadb"/>
      <stop offset="0.994" stop-color="#8860c7"/>
    </linearGradient>
    <linearGradient id="linear-gradient-59" x1="0.5" y1="1" x2="0.5" gradientUnits="objectBoundingBox">
      <stop offset="0" stop-color="#ccc2db"/>
      <stop offset="0.994" stop-color="#8860c7"/>
    </linearGradient>
    <linearGradient id="linear-gradient-60" x1="0.5" y1="1" x2="0.5" gradientUnits="objectBoundingBox">
      <stop offset="0" stop-color="#776d7e"/>
      <stop offset="1" stop-color="#9d68c2"/>
    </linearGradient>
    <linearGradient id="linear-gradient-61" x1="0.5" y1="1" x2="0.5" gradientUnits="objectBoundingBox">
      <stop offset="0" stop-color="#1f77d1"/>
      <stop offset="1" stop-color="#0686c9"/>
    </linearGradient>
    <linearGradient id="linear-gradient-62" x1="0.5" y1="1" x2="0.5" y2="0" xlink:href="#linear-gradient-61"/>
    <linearGradient id="linear-gradient-64" x1="0.195" y1="0.799" x2="1.137" y2="0.078" gradientUnits="objectBoundingBox">
      <stop offset="0" stop-color="#ffeadb"/>
      <stop offset="0.994" stop-color="#b060f4"/>
    </linearGradient>
    <linearGradient id="linear-gradient-65" x1="0.039" y1="0.812" x2="1.003" y2="0.231" xlink:href="#linear-gradient-64"/>
    <linearGradient id="linear-gradient-66" x1="1" y1="0.5" x2="0" y2="0.5" xlink:href="#linear-gradient-61"/>
    <linearGradient id="linear-gradient-67" x1="0.999" y1="0.5" x2="0" y2="0.5" xlink:href="#linear-gradient-61"/>
    <linearGradient id="linear-gradient-68" x1="1" y1="0.5" x2="0" y2="0.5" xlink:href="#linear-gradient-61"/>
    <linearGradient id="linear-gradient-69" x1="1" y1="0.5" x2="0" y2="0.5" gradientUnits="objectBoundingBox">
      <stop offset="0" stop-color="#9d68c2"/>
      <stop offset="1" stop-color="#aec2ff"/>
    </linearGradient>
    <linearGradient id="linear-gradient-70" x1="0.5" y1="1" x2="0.5" gradientUnits="objectBoundingBox">
      <stop offset="0" stop-color="#ccedff"/>
      <stop offset="1" stop-color="#9d68c2"/>
    </linearGradient>
    <linearGradient id="linear-gradient-71" x1="0.5" x2="0.5" y2="0" xlink:href="#linear-gradient-70"/>
    <linearGradient id="linear-gradient-72" x1="0.5" x2="0.5" y2="0" xlink:href="#linear-gradient-70"/>
    <linearGradient id="linear-gradient-74" x1="0.5" y1="1" x2="0.5" gradientUnits="objectBoundingBox">
      <stop offset="0" stop-color="#d93de3"/>
      <stop offset="1" stop-color="#ff6dba"/>
    </linearGradient>
    <linearGradient id="linear-gradient-75" x1="0.5" y1="1" x2="0.5" gradientUnits="objectBoundingBox">
      <stop offset="0" stop-color="#a242ea"/>
      <stop offset="1" stop-color="#fe117e"/>
    </linearGradient>
    <linearGradient id="linear-gradient-76" x1="0.566" y1="1.055" x2="0.452" y2="-0.06" gradientUnits="objectBoundingBox">
      <stop offset="0" stop-color="#067eff"/>
      <stop offset="1" stop-color="#3e37a0"/>
    </linearGradient>
    <linearGradient id="linear-gradient-77" x1="0.5" y1="1" x2="0.5" gradientUnits="objectBoundingBox">
      <stop offset="0" stop-color="#459fff"/>
      <stop offset="1" stop-color="#a96dff"/>
    </linearGradient>
    <linearGradient id="linear-gradient-78" x1="0.5" y1="1" x2="0.5" y2="0" xlink:href="#linear-gradient-77"/>
    <clipPath id="clip-path-13">
      <rect id="Rectángulo_413398" data-name="Rectángulo 413398" width="746.159" height="497.439" transform="translate(0 0)"/>
    </clipPath>
    <linearGradient id="linear-gradient-79" x1="0.5" y1="1" x2="0.5" gradientUnits="objectBoundingBox">
      <stop offset="0" stop-color="#b31a8f"/>
      <stop offset="1" stop-color="#fe117e"/>
    </linearGradient>
    <linearGradient id="linear-gradient-80" x1="0.5" y1="1" x2="0.5" y2="0" xlink:href="#linear-gradient-79"/>
    <linearGradient id="linear-gradient-81" x1="0.5" y1="1" x2="0.5" y2="0" xlink:href="#linear-gradient-44"/>
    <linearGradient id="linear-gradient-82" x1="0.5" y1="1" x2="0.5" y2="0" xlink:href="#linear-gradient-44"/>
    <linearGradient id="linear-gradient-83" x1="0.5" y1="1" x2="0.5" gradientUnits="objectBoundingBox">
      <stop offset="0" stop-color="#d906e3"/>
      <stop offset="1" stop-color="#ff6df9"/>
    </linearGradient>
    <linearGradient id="linear-gradient-85" x1="-0.387" y1="-0.742" x2="-0.22" y2="-1.755" gradientUnits="objectBoundingBox">
      <stop offset="0" stop-color="#1852a0"/>
      <stop offset="1" stop-color="#067ed3"/>
    </linearGradient>
    <linearGradient id="linear-gradient-86" x1="-0.202" y1="-0.631" x2="-0.202" y2="-1.605" xlink:href="#linear-gradient-85"/>
    <linearGradient id="linear-gradient-87" x1="0.085" y1="-1.175" x2="0.192" y2="-1.826" gradientUnits="objectBoundingBox">
      <stop offset="0" stop-color="#188dc1"/>
      <stop offset="1" stop-color="#06bfe7"/>
    </linearGradient>
    <linearGradient id="linear-gradient-88" x1="0.647" y1="1.113" x2="0.39" y2="-0.137" xlink:href="#linear-gradient-87"/>
    <linearGradient id="linear-gradient-89" x1="1.938" y1="0.969" x2="-1.115" y2="0.036" xlink:href="#linear-gradient-85"/>
    <linearGradient id="linear-gradient-90" x1="2.026" y1="1.113" x2="1.769" y2="-0.137" xlink:href="#linear-gradient-87"/>
    <linearGradient id="linear-gradient-91" x1="39.779" y1="0.969" x2="36.726" y2="0.036" xlink:href="#linear-gradient-85"/>
  </defs>
  <g id="Enmascarar_grupo_1098798" data-name="Enmascarar grupo 1098798" transform="translate(0 -0.284)" clip-path="url(#clip-path)">
    <g id="Grupo_1165297" data-name="Grupo 1165297" transform="translate(-13.302 -151.862)">
      <g id="Grupo_1165242" data-name="Grupo 1165242" transform="translate(0 0)" clip-path="url(#clip-path-2)">
        <path id="Trazado_1014473" data-name="Trazado 1014473" d="M709.141,370.315V719.563H1259.6c2.116-16.44-2.494-34.089-12.531-45.918-12.112-14.272-31.487-19.328-47.613-12.422-11.908,5.105-21.427,15.765-32.611,22.764s-26.418,9.5-35.505-.862c-9.182-10.468-7.312-28.693-1.187-41.878s15.63-24.027,20.963-37.679c7.694-19.7,5.3-44.288-5.97-61.453s-30.946-26.146-49.151-22.446c-18.178,3.694-33.83,18.7-52.19,20.848-23.242,2.717-46.544-19.311-49.215-46.522-2.138-21.815,7.371-42.833,18.278-60.684s23.743-34.709,29.913-55.448c8.3-27.891,2.152-61.678-16.781-81.165s-50.033-21.557-69.394-2.646c-15.685,15.321-21.9,40.38-35.81,57.9-21.322,26.854-60.881,29.884-85,6.521-12.331-11.945-20.394-29.11-32.856-40.852s-33.2-15.831-43.022-1.043c-10.151,15.288-4.782,44.249-20.426,50.469-6.252,2.487-13.023-.532-19.616-.856A14.772,14.772,0,0,0,709.141,370.315Z" transform="translate(-695.31 -125.417)" fill="#ededff"/>
      </g>
      <g id="Grupo_1165296" data-name="Grupo 1165296" transform="translate(0 0)" clip-path="url(#clip-path-2)">
        <g id="Grupo_1165243" data-name="Grupo 1165243" transform="translate(-37.259 96.707)" clip-path="url(#clip-path-4)">
          <path id="Trazado_1014474" data-name="Trazado 1014474" d="M976.671,617.694q-.014-.457-.441-.445l-8.342.253a6.233,6.233,0,0,0-2.1.377,3.5,3.5,0,0,0-1.38.929,3.449,3.449,0,0,0-.736,1.413,6.351,6.351,0,0,0-.189,1.833l.07,2.291a6.347,6.347,0,0,0,.3,1.818,3.431,3.431,0,0,0,.821,1.367,3.532,3.532,0,0,0,1.434.844,6.276,6.276,0,0,0,2.117.249l4.491-.137.931-2.627.121,0,.079,2.6,3.148-.1Zm-2.912,7.871-5.332.162a1.726,1.726,0,0,1-1.3-.358,2.017,2.017,0,0,1-.424-1.394l-.057-1.864a1.977,1.977,0,0,1,.338-1.425,1.8,1.8,0,0,1,1.272-.413l5.1-.155a.217.217,0,0,1,.17.064.234.234,0,0,1,.065.159Z" transform="translate(-414.826 -373.829)" fill="#f1f1f4"/>
          <path id="Trazado_1014475" data-name="Trazado 1014475" d="M999.781,622.831l.107,0,.1,3.331a.188.188,0,0,1-.207.22l-9.381.285.088,2.887,12.3-.373a.4.4,0,0,0,.429-.471l-.31-10.207a.4.4,0,0,0-.457-.444l-11.946.363a.405.405,0,0,0-.445.471l.088,2.888,2.951,1,.123,0-.045-1.482c0-.111.046-.17.148-.173l6.309-.191a.167.167,0,0,1,.163.063.3.3,0,0,1,.042.144l.042,1.39-5.194.157.069,2.263,4.355-.132Z" transform="translate(-455.638 -374.193)" fill="#f1f1f4"/>
          <path id="Trazado_1014476" data-name="Trazado 1014476" d="M1018.55,623.023l.122,0-.037-1.222a.162.162,0,0,1,.177-.189l5.867-.178a.473.473,0,0,1,.583.518l.009.275a.553.553,0,0,1-.095.416.864.864,0,0,1-.409.15l-6.876,1.172a4.625,4.625,0,0,0-1.108.317,2.114,2.114,0,0,0-.733.527,1.787,1.787,0,0,0-.389.785,4.193,4.193,0,0,0-.09,1.088l.027.885a3.99,3.99,0,0,0,.205,1.209,2.051,2.051,0,0,0,.577.869,2.427,2.427,0,0,0,1.025.511,5.6,5.6,0,0,0,1.548.137l9.9-.3-.087-2.887-8.875.27a.712.712,0,0,1-.532-.13.773.773,0,0,1-.145-.508l-.009-.3a.629.629,0,0,1,.086-.408.6.6,0,0,1,.385-.158l6.636-1.042a5.309,5.309,0,0,0,1.145-.31,2.2,2.2,0,0,0,.772-.513,1.775,1.775,0,0,0,.42-.762,3.57,3.57,0,0,0,.1-1.058l-.023-.779a2.585,2.585,0,0,0-.7-1.852,2.891,2.891,0,0,0-2.16-.6l-9.883.3a.426.426,0,0,0-.459.5l.069,2.292Z" transform="translate(-495.257 -374.594)" fill="#f1f1f4"/>
          <path id="Trazado_1014477" data-name="Trazado 1014477" d="M1045.4,630.727l-.338-11.121-3.147.1.338,11.122Z" transform="translate(-526.279 -374.893)" fill="#f1f1f4"/>
          <path id="Trazado_1014478" data-name="Trazado 1014478" d="M1053.452,626.627c-.005-.163,0-.333.009-.513s.022-.334.039-.468l0-.137-3.117.095.166,5.454c.009.285.141.424.395.417l8.371-.254a6.281,6.281,0,0,0,2.1-.378,3.5,3.5,0,0,0,1.378-.929,3.446,3.446,0,0,0,.737-1.413,6.357,6.357,0,0,0,.188-1.832l-.069-2.292a6.386,6.386,0,0,0-.3-1.819,3.45,3.45,0,0,0-.821-1.366,3.515,3.515,0,0,0-1.433-.843,6.259,6.259,0,0,0-2.118-.249l-8.325.253a.4.4,0,0,0-.43.471l.073,2.4,2.951.982.123,0-.033-1.069c0-.1.04-.154.132-.156l5.315-.161a3.03,3.03,0,0,1,.774.061,1.088,1.088,0,0,1,.522.274,1.226,1.226,0,0,1,.306.541,3.379,3.379,0,0,1,.119.845l.058,1.956a2.02,2.02,0,0,1-.339,1.417,1.731,1.731,0,0,1-1.273.436l-5.271.16c-.112,0-.169-.056-.172-.178Z" transform="translate(-549.162 -375.113)" fill="#f1f1f4"/>
          <path id="Trazado_1014479" data-name="Trazado 1014479" d="M1085.266,620.827a.872.872,0,0,0-.494.122,1,1,0,0,0-.256.344l-3.975,8.119a.324.324,0,0,1-.285.192l-.167.006a.217.217,0,0,1-.253-.238l-.254-8.372-2.856.087.324,10.68q.012.443.441.429l4.524-.137a.975.975,0,0,0,.476-.106.839.839,0,0,0,.289-.361l4.127-8.108a.3.3,0,0,1,.284-.192l.153,0a.216.216,0,0,1,.252.237l.254,8.357,2.858-.087-.324-10.664c-.01-.3-.155-.453-.441-.445Z" transform="translate(-590.704 -375.379)" fill="#f1f1f4"/>
        </g>
        <g id="Grupo_1165244" data-name="Grupo 1165244" transform="translate(431.106 756.258) rotate(-135)" clip-path="url(#clip-path-5)">
          <circle id="Elipse_12190" data-name="Elipse 12190" cx="192.778" cy="192.778" r="192.778" transform="translate(141.808 61.498)" fill="#e0f3ff"/>
        </g>
        <g id="Grupo_1165246" data-name="Grupo 1165246" transform="translate(-37.259 96.707)" clip-path="url(#clip-path-4)">
          <path id="Trazado_1014480" data-name="Trazado 1014480" d="M946.337,584.835a29.592,29.592,0,0,1,13.124-11.52l2.923,1.366L955.8,586.625a12.8,12.8,0,0,0,4.028,7.113l.009-.019a12.8,12.8,0,0,0,8.04-1.475l4.937-12.713,2.923,1.366a29.6,29.6,0,0,1-.414,17.458s-1.247,2.878-1.462,3.129c-1.159,1.352-4.18,2.912-10.018,2.551l-20.152,38.442a10.538,10.538,0,1,1-10.892-5.089l16.547-40.1c-3.937-4.156-4.77-7.43-4.471-9.32C944.938,587.564,946.337,584.835,946.337,584.835Zm-16.572,66.3,5.339,2.494,4.828-3.374-.51-5.868-5.339-2.494-4.828,3.374Z" transform="translate(-393.056 -354.012)" fill="url(#linear-gradient)"/>
          <path id="Trazado_1014481" data-name="Trazado 1014481" d="M949,590.535a29.6,29.6,0,0,1,13.125-11.52l2.923,1.366-6.583,11.944a12.805,12.805,0,0,0,4.028,7.113l.009-.02a12.8,12.8,0,0,0,8.04-1.475l4.937-12.713L978.4,586.6a29.6,29.6,0,0,1-.414,17.458s-4.557,6.109-11.48,5.68l-20.152,38.442a10.538,10.538,0,1,1-10.892-5.088l16.547-40.1C947.239,597.95,949,590.535,949,590.535Zm-16.576,66.3,5.338,2.494,4.828-3.375-.51-5.868-5.338-2.494-4.828,3.374Z" transform="translate(-397.18 -356.584)" fill="url(#linear-gradient-2)"/>
          <rect id="Rectángulo_413351" data-name="Rectángulo 413351" width="3.227" height="3.454" transform="translate(581.215 230.011) rotate(-154.957)" fill="#e5e2ff"/>
          <rect id="Rectángulo_413352" data-name="Rectángulo 413352" width="3.227" height="3.454" transform="translate(567.862 223.804) rotate(-154.957)" fill="#e5e2ff"/>
          <rect id="Rectángulo_413353" data-name="Rectángulo 413353" width="5.892" height="3.454" transform="translate(540.575 302.738) rotate(-154.957)" fill="#e5e2ff"/>
          <g id="Grupo_1165245" data-name="Grupo 1165245" transform="translate(542.167 251.485)">
            <path id="Trazado_1014482" data-name="Trazado 1014482" d="M981.145,636.49l-16.275,31.278a7.964,7.964,0,0,1-6.57-3.07l13.249-32.691C977.5,631.786,981.145,636.49,981.145,636.49Zm-21.589,28.463a9.264,9.264,0,0,0,2.107,1.379,7.861,7.861,0,0,0,2.246.671l16.3-30.634a16.832,16.832,0,0,0-3.918-2.572,13.716,13.716,0,0,0-4.029-1.188Z" transform="translate(-958.301 -631.968)" fill="url(#linear-gradient-3)"/>
            <path id="Trazado_1014483" data-name="Trazado 1014483" d="M989.2,691.822l-1.256-.255a7.042,7.042,0,0,0,6.57,3.07l-.961-.765A8.882,8.882,0,0,1,989.2,691.822Z" transform="translate(-987.949 -658.838)" fill="#e5e2ff"/>
            <path id="Trazado_1014484" data-name="Trazado 1014484" d="M967.9,636.465l-.936-.122a15.179,15.179,0,0,0-7.947-3.76l-.713-.6a12.213,12.213,0,0,1,9.6,4.483Z" transform="translate(-945.052 -631.943)" opacity="0.62" fill="url(#linear-gradient-4)"/>
          </g>
          <path id="Trazado_1014485" data-name="Trazado 1014485" d="M967.054,629.432a35.938,35.938,0,0,1-14.5-6.75l-2.116,5.129s2.4-2.375,7.667-.229c6.161,2.511,5.824,7.467,5.824,7.467Z" transform="translate(-397.727 -376.28)" opacity="0.62" fill="url(#linear-gradient-5)"/>
          <path id="Trazado_1014486" data-name="Trazado 1014486" d="M989.271,631.111a6.342,6.342,0,0,1,3.22-1.112L976.74,668.047l-1.9-1.961Z" transform="translate(-436.559 -379.581)" opacity="0.5" fill="url(#linear-gradient-6)"/>
          <path id="Trazado_1014487" data-name="Trazado 1014487" d="M983.292,632.025s1.653,5.084-3.093,7.5Z" transform="translate(-430.58 -380.495)" fill="#fff"/>
        </g>
        <g id="Grupo_1165254" data-name="Grupo 1165254" transform="translate(-37.259 96.707)" clip-path="url(#clip-path-4)">
          <g id="Grupo_1165249" data-name="Grupo 1165249" transform="translate(315.588 386.496)">
            <path id="Trazado_1014488" data-name="Trazado 1014488" d="M1113.95,988.837H1172.4c6.118-33.975,20.345-78.185,20.345-78.185,3.457-2.052,10.21.473,10.21.473l21.362,77.712h53.4c2.835-47.953-23.4-102.385-23.4-102.385l.013-.013a5.879,5.879,0,0,0,.7-2.972,7.077,7.077,0,0,0-1.99-2.313c-1.443-1.318-3.159-2.636-3.159-2.636l-99.624-.622s-1.008.51-2.288,1.281h-.012c-2.177,1.318-5.124,3.358-5.124,4.85a6.8,6.8,0,0,0,1.007,3.681l.05.062C1122.524,928.084,1113.95,988.837,1113.95,988.837Z" transform="translate(-1113.95 -877.895)" fill="url(#linear-gradient-7)"/>
            <path id="Trazado_1014489" data-name="Trazado 1014489" d="M1122.4,966.023c7.151,30.993,22.672,53.873,34.667,51.106s15.924-30.136,8.773-61.129-22.672-53.873-34.667-51.106S1115.249,935.033,1122.4,966.023Z" transform="translate(-1008.108 -889.971)" opacity="0.5" fill="url(#radial-gradient)"/>
            <path id="Trazado_1014490" data-name="Trazado 1014490" d="M1310.148,954.443c-8.582,30.627-5.93,58.148,5.924,61.47s28.422-18.813,37-49.44,5.93-58.148-5.924-61.47S1318.728,923.816,1310.148,954.443Z" transform="translate(-1299.065 -889.974)" opacity="0.5" fill="url(#radial-gradient-2)"/>
            <g id="Grupo_1165247" data-name="Grupo 1165247" transform="translate(88.802 32.993)">
              <path id="Trazado_1014491" data-name="Trazado 1014491" d="M1226.387,1016l.613-.1c-6.8-40.043-24.049-73.626-24.222-73.961l-.072-.091L1198.313,938l-.409.469,4.35,3.8C1203.03,943.788,1219.728,976.792,1226.387,1016Z" transform="translate(-1197.903 -937.998)" fill="url(#linear-gradient-8)"/>
            </g>
            <g id="Grupo_1165248" data-name="Grupo 1165248" transform="translate(49.901 32.995)">
              <path id="Trazado_1014492" data-name="Trazado 1014492" d="M1269.376,1016c6.661-39.238,23.826-72.56,24.6-74.041l3.89-3.492-.415-.464-4,3.616c-.177.337-17.888,34.232-24.685,74.275Z" transform="translate(-1268.764 -938.002)" fill="url(#linear-gradient-9)"/>
            </g>
            <path id="Trazado_1014493" data-name="Trazado 1014493" d="M1152.332,884.027a6.8,6.8,0,0,0,1.007,3.681l.05.062c20.743,4.688,36.524,24.051,36.524,24.051-11.3,21.688-30.157,77.016-30.157,77.016H1181.9c6.118-33.975,20.345-78.185,20.345-78.185,3.457-2.052,10.21.473,10.21.473l21.361,77.713h13.829c-4.95-32.557-19.562-72.3-19.562-72.3,14.363-16.726,35.728-30.083,35.728-30.083l.013-.013,2.537-1.592-1.841-1.381c-9.24,8.867-39.037,20.445-39.957,20.805l37.967-23.118c-1.443-1.318-3.159-2.636-3.159-2.636l-99.625-.622s-1.007.51-2.288,1.281l27.21,14.973Z" transform="translate(-1123.453 -877.895)" opacity="0.76" fill="url(#linear-gradient-10)"/>
            <path id="Trazado_1014494" data-name="Trazado 1014494" d="M1280.766,931.37l-11.626-7.544,2.761,7.544,2.026,22.714Z" transform="translate(-1201.973 -898.613)" opacity="0.76" fill="url(#linear-gradient-10)"/>
            <path id="Trazado_1014495" data-name="Trazado 1014495" d="M1181.23,923.2l12.115-6.852,25.932-11.679L1186.253,926.5l-1.965,7.822Z" transform="translate(-1092.226 -889.973)" opacity="0.76" fill="url(#linear-gradient-12)"/>
          </g>
          <path id="Trazado_1014496" data-name="Trazado 1014496" d="M1228.855,484.133c-.074.535-.137.821-.137.821a71.186,71.186,0,0,0,2.065,7.039,57.193,57.193,0,0,0,7.748,15.073,29.627,29.627,0,0,0,3.383,3.955c18.144-5.7,27.086-23.442,30.518-32.271a.456.456,0,0,0,.05-.137c.659-1.667,1.095-3.009,1.368-3.88v-.013c.211-.7.31-1.082.31-1.082-.074-.149-.149-.311-.224-.46l-.037-.062c-.3-.622-.6-1.256-.871-1.865a88.542,88.542,0,0,1-4.974-13.891c-.883-3.258-1.355-5.77-1.579-7.1-.112-.684-.162-1.057-.162-1.057l-8.456,4.464-29.137,15.421a48.027,48.027,0,0,1,.622,7.387c.025,1.555-.025,2.947-.112,4.128-.087,1.443-.236,2.587-.348,3.333v.013A1.239,1.239,0,0,1,1228.855,484.133Z" transform="translate(-857.588 -298.029)" fill="#fe9083"/>
          <path id="Trazado_1014497" data-name="Trazado 1014497" d="M1237.729,532.672a25,25,0,0,0,6.019,4.4.952.952,0,0,0,.149.087s.062-.037.174-.1l.012-.013c.634-.385,2.8-1.716,5.708-3.905,7.611-5.733,20.32-17.323,23.952-32.943.013-.025.013-.037.025-.062a38.782,38.782,0,0,0,.871-5.708v-.013c.037-.51.074-1.02.087-1.542a80.156,80.156,0,0,1-6.9,12.337c-5.149,7.536-12.871,15.757-22.1,15.806-7.984.05-12.076-5.41-14.152-10.446a28.47,28.47,0,0,1-1.678-5.72.038.038,0,0,1-.013-.025c-.087-.448-.149-.846-.211-1.181v-.013c-.025-.174-.05-.323-.062-.46-.074-.559-.1-.883-.1-.883S1226.449,521.393,1237.729,532.672Z" transform="translate(-858.382 -317.73)" fill="url(#linear-gradient-13)"/>
          <path id="Trazado_1014498" data-name="Trazado 1014498" d="M1237.729,532.672a24.994,24.994,0,0,0,6.019,4.4h.149l.174-.013.012-.013c.634-.385,2.8-1.716,5.708-3.9,7.611-5.733,20.32-17.323,23.952-32.943.013-.025.013-.037.025-.062a38.782,38.782,0,0,0,.871-5.708v-.013c.037-.51.074-1.02.087-1.542a80.154,80.154,0,0,1-6.9,12.337s-5.024,13.8-15.893,20.644c-5.447,3.42-9.576,2.923-12.61.908s-5-5.5-6.156-8.133a19.132,19.132,0,0,1-1.592-6.939q-.018-.616,0-1.119a28.472,28.472,0,0,1-1.678-5.721.038.038,0,0,1-.013-.025c-.087-.448-.149-.846-.211-1.181v-.013c-.025-.174-.05-.323-.062-.46-.074-.559-.1-.883-.1-.883S1226.449,521.393,1237.729,532.672Z" transform="translate(-858.382 -317.729)" opacity="0.5" fill="url(#linear-gradient-14)"/>
          <path id="Trazado_1014499" data-name="Trazado 1014499" d="M1062.883,643.87a2.118,2.118,0,0,1,.2.1c1.02.125,4.191-.572,8.344-4.166l.013-.013c0-.013.013-.025.037-.037s.025-.037.05-.05c3.482-3.047,7.66-8.133,11.827-16.465,8.332-16.652,10.719-27.77,11.105-29.709l.05-.3,4.862,7.71c3.3,9.912,9.538,50.925,9.426,52.691s-5.534,10.372-5.422,11.429a.037.037,0,0,0,.013.025c.149,1.069,2.587,3.42,3.283,5.982.473,1.7-2.835,7.076-5.161,11.093v.013c-1.207,2.089-2.139,3.805-2.139,4.452,0,1.878,5.895,11.068,5.895,11.068v4.95l.087.087.273.249.224.187c2.239,1.766,11.728,7.548,41.375,9.14,35.132,1.878,58.536-9.426,58.536-9.426l-1.766-4.838s1.641-1.405,1.766-2.114-1.293-2.363-1.293-2.363,3.532-1.878,3.532-4.241-7.076-9.65-6.84-15.906,5.658-11.777,6.367-15.309-9.19-12.249-9.19-12.249c8.482-26.862,10.135-62.914,10.135-62.914l1.641-1.891s10.136,23.094,19.326,34.4c1.095,1.343,2.251,2.674,3.445,3.954a100.81,100.81,0,0,0,7.909,7.648c6.367,5.546,12.15,9.19,13.617,8.9,2.363-.473,11.789-19.089,11.354-38.178-.2-9.078-5.671-19.238-11.354-27.384-.609-.871-1.219-1.729-1.841-2.562a130.493,130.493,0,0,0-9.75-11.752c-.721-.771-1.132-1.181-1.132-1.181s1.293-4.166,2.176-7.785a2.044,2.044,0,0,1,.062-.261.448.448,0,0,1,.025-.125.394.394,0,0,1,.024-.087c.522-2.226.846-4.154.547-4.627-.784-1.256-5.347-2.674-6.131-3.606s-4.079-16.813-6.591-18.542c-2.413-1.654-6.653-2.861-20.793-8.419-.7-.273-1.405-.547-2.151-.846-15.856-6.28-31.413-13.9-31.413-13.9l-5.969-7.337h-2.661l.871,1.865.037.062c-.423,1.891-.908,3.706-1.455,5.434a.447.447,0,0,1-.05.137c-8.208,25.891-29.324,34.236-29.324,34.236-14.675-10.832-14.389-28.031-14.389-28.031v-2.363l-2.748.821L1119.876,506s-3.184,4.95-15.794,10.5a74.842,74.842,0,0,0-6.927,3.544c-11.541,6.554-24.374,16.689-25.357,18.84a7.026,7.026,0,0,0-.336,1.069v.013c-1.355,5.323-4.141,25.258-6.728,32.371a16.288,16.288,0,0,1-6.044,8.158c-.013.013-.013.013-.025.013a9.468,9.468,0,0,1-2.412,1.256q-.3,1.642-.56,3.246C1050.285,619.11,1060.572,642.254,1062.883,643.87Z" transform="translate(-753.377 -316.145)" fill="url(#linear-gradient-15)"/>
          <path id="Trazado_1014500" data-name="Trazado 1014500" d="M1078.2,604.568l10.247,3.445,1.641-1.89s10.135,23.094,19.326,34.4c1.094,1.343,2.251,2.674,3.444,3.954a100.722,100.722,0,0,0,7.909,7.648l7.81-33.664,3.967-25.556a130.573,130.573,0,0,0-9.75-11.752c-.721-.771-1.132-1.181-1.132-1.181s1.293-4.166,2.177-7.785a2.041,2.041,0,0,1,.062-.261.46.46,0,0,1,.025-.125.409.409,0,0,1,.025-.087c.522-2.226.846-4.154.548-4.626-.784-1.256-5.347-2.674-6.131-3.607s-4.079-16.813-6.591-18.542c0,0,1.641,15.234-7.076,34.56l-4.24,5.969-12.411,9.973S1083.332,601.7,1078.2,604.568Z" transform="translate(-633.349 -341.212)" opacity="0.5" fill="url(#linear-gradient-14)"/>
          <path id="Trazado_1014501" data-name="Trazado 1014501" d="M1026.743,641.774c2.2,16.329,26.538,28.9,26.538,28.9,5.422,0,11.478-9.426,16.975-21.054s5.832-45.031,6.118-47.1,3.358-6.193,3.545-7.959-4.95-5.422-4.95-5.422l.037-.087.037-.087c.535-1.144,3.545-7.6,3.333-8.779-.236-1.293-5.994-4.117-5.994-4.117l-.36,6.355s-13.406-2.537-17.945-12.921l-.8-3.184-2.239,1.493v13.667s-.46,2.127-1.169,2.127-5.932-2.612-7.026-2.251-2.189,7.673-3.657,8.606-5.347,3.656-5.932,4.95a23.65,23.65,0,0,0-.311,5.161,52.691,52.691,0,0,1-.51,8.63C1031.607,612.35,1024.542,625.433,1026.743,641.774Z" transform="translate(-552.25 -350.859)" fill="url(#linear-gradient-17)"/>
          <path id="Trazado_1014502" data-name="Trazado 1014502" d="M1402.521,657.522c1.094,1.729,6.591,5.348,8.009,6.765s0,6.057,0,6.057c23.094,24.511,47.17,36.786,49.594,37.979a2.2,2.2,0,0,1,.2.1c14.5-9.75,13.257-25.8,8.444-39.335a102.07,102.07,0,0,0-12.834-24.1l-.013-.013-.013-.013a30.342,30.342,0,0,0-7.362-2.039,4.467,4.467,0,0,0-2.723.846c-1.766,1.095-3.259,2.823-4.7,2.1-2.127-1.069-6.877-12.3-10.1-12.61-2.251-.211-5.372,2.077-7.449,3.383-.908.572-1.616.957-1.964.858-1.181-.311-5.186-5.111-5.509-5.236s-2.139,1.206-2.139,1.206l1.281,1.592a43.505,43.505,0,0,1-8.407,18.928l-4.315-6.318S1401.411,655.794,1402.521,657.522Z" transform="translate(-1150.614 -380.598)" fill="url(#linear-gradient-18)"/>
          <path id="Trazado_1014503" data-name="Trazado 1014503" d="M1239.849,484.516c.024.161.05.323.062.485a9.47,9.47,0,0,0,.236.995.037.037,0,0,0,.013.025c1.48,5.484,7.462,11.093,15.01,8.394,8.245-2.947,23.939-36.188,23.939-36.188l-1.579-7.1-37.246,30.344-.411,2.873Z" transform="translate(-868.648 -298.896)" fill="#cb4d7a"/>
          <g id="Grupo_1165250" data-name="Grupo 1165250" transform="translate(486.947 137.49)">
            <path id="Trazado_1014504" data-name="Trazado 1014504" d="M1020.966,466.321s2.277-12.567,1.256-21.835a100.424,100.424,0,0,1,.263-19.793s2.25-.943,3.9,0,5.5,10.525,3.77,18.222-.392,26.154-.392,26.154h2.592l5.655-7.776,2.749-.785s15.826,14.923,15.591,23.8l-2.068,7.894-19.493-.668L1022.066,477Z" transform="translate(-1012.687 -424.275)" fill="#ee8183"/>
            <path id="Trazado_1014505" data-name="Trazado 1014505" d="M1015.764,490.282a101.278,101.278,0,0,1-2.63,18.379,4.4,4.4,0,0,0,4.436,3.711l1-1.119s.707,3.947,4.3,4.241l3.416-3.417-.884,2.828a4.837,4.837,0,0,0,4.477,2.886s5.42-4.241,5.773-9.779l-5.358-4.536V500l-6.365-4.477-.118-2.533A14.947,14.947,0,0,0,1015.764,490.282Z" transform="translate(-987.69 -454.048)" fill="url(#linear-gradient-19)"/>
            <path id="Trazado_1014506" data-name="Trazado 1014506" d="M1046.7,456.249a8.873,8.873,0,0,0,2.309,3.367c1.355.943,5.281,1.664,5.281,1.664l.178,22.213h2.592l5.655-7.776s-2.866,4.438-3.044,7.776l2.238,1.1,1.944-6.656.921,4.79-.916,5.961a15.646,15.646,0,0,0-9.421-3l-.913,1.657s10.977,9.091,13.51,14.452c0,0-5.42-6.892-17.79-14.491l-1.178-3.652-1.564-8.719S1047.989,462.366,1046.7,456.249Z" transform="translate(-1037.393 -438.697)" opacity="0.6" fill="url(#linear-gradient-20)"/>
            <path id="Trazado_1014507" data-name="Trazado 1014507" d="M1024.628,500.15c1.02,3.059,11.7,15.781,12.884,18.542a37.383,37.383,0,0,1,1.89,6.355c5.248,11.354,17.945,12.921,17.945,12.921l.585-10.247s6.827-3.93,7.983-6.081l.013-.037.136-.361c.348-2,.05-9.426.05-9.426l-11.95-4.838c-5.186-6.716-17.8-14.488-17.8-14.488l-.585-3.519c9.053-4.452,7.536-17.92,6.006-19.574s-4.352-1.641-4.352-1.641-3.308,10.831-5.422,15.905S1023.607,497.091,1024.628,500.15Z" transform="translate(-1024.517 -443.887)" fill="url(#linear-gradient-19)"/>
            <path id="Trazado_1014508" data-name="Trazado 1014508" d="M1039.728,495.22s-1.335,12.371-5.243,18.261a28.819,28.819,0,0,0,5.361-15.728Z" transform="translate(-1003.601 -456.276)" fill="#e28183"/>
            <path id="Trazado_1014509" data-name="Trazado 1014509" d="M1030.325,507.99s-1.3,9.955-7.425,15.493c0,0,5.425-2.71,7.425-12.017Z" transform="translate(-987.721 -462.036)" fill="#e28183"/>
            <path id="Trazado_1014510" data-name="Trazado 1014510" d="M1039.643,555.742s13.474,13.082,22.077,11.666l-.585,10.247a22.734,22.734,0,0,1-18.735-16.11A38.616,38.616,0,0,0,1039.643,555.742Z" transform="translate(-1028.306 -483.575)" opacity="0.91" fill="url(#linear-gradient-22)"/>
          </g>
          <g id="Grupo_1165251" data-name="Grupo 1165251" transform="translate(212.251 180.444)">
            <path id="Trazado_1014511" data-name="Trazado 1014511" d="M1465.693,549.524s12.374,22.621,26.862,29.573h4.95l11.429,17.323s7.387-4.638,7.934-19.872a13.9,13.9,0,0,1-3.221-5.746s4.079-3.208,5.186-5.559,1.492-9.426,2.276-12.337,7.462-8.954,8.954-9.737,8.245-1.181,8.245-1.181.945-2.437,0-3.606-11.466-5.273-17.2-1.343a25.788,25.788,0,0,1-1.02,4.564c-.634,1.567-5.658,7.138-6.442,7.138s-4.166-2.823-5.658-5.024c-1.43-2.114-9.028-18.492-10.869-24.026a.606.606,0,0,0-.05-.161c-.025-.087-.062-.174-.074-.248a1.163,1.163,0,0,1-.05-.161c-.013-.025-.025-.037-.025-.062-1.418-4.788-9.663-13.978-14.065-16.49,0,0-1.878-.473-2.9,1.878,0,0,3.532,10.061,7.225,16.03.622,1.007,1.293,2.189,1.99,3.457h.013c3.146,5.782,6.69,13.356,7.2,14.463l.062.137-1.965,1.007-5.31-5.036-5.447-5.161-12.5,13.195,1.231,1.566,3.905,5.012-1.978.361-4.6-5.086Z" transform="translate(-1464.491 -502.526)" fill="url(#linear-gradient-23)"/>
            <path id="Trazado_1014512" data-name="Trazado 1014512" d="M1511.388,568.434l3.953,5.811s21.7-16.738,26.418-18.155,6.441-.473,6.441-.473l4.863,6.206s-8.953,7.934-9.738,18.616c0,0,2.984-13.505,13.12-17.6-.783,0-4.166-2.823-5.658-5.024-1.43-2.114-9.028-18.492-10.869-24.026a6.17,6.17,0,0,1-.2,4.241c-1.069,1.977-7.362.112-7.734,0h-.013l7.213,14.463.062.137-1.965,1.007-5.31-5.036,2.661,6.18-19.375,3.42,3.905,5.012-1.977.361Z" transform="translate(-1507.293 -516.629)" opacity="0.6" fill="url(#linear-gradient-20)"/>
            <path id="Trazado_1014513" data-name="Trazado 1014513" d="M1561.9,551.365s-3.77-.55-6.2,4.32l.549,1.571s-3.674.72-7.226,6.676a20.137,20.137,0,0,0,10.918,8.326s3.613-1.021,4.241-4.085l-.707-1.964,2.828,2.121s3.377,1.021,4.869-4.005Z" transform="translate(-1542.669 -524.547)" fill="url(#linear-gradient-25)"/>
            <path id="Trazado_1014514" data-name="Trazado 1014514" d="M1581.7,580.386a5.826,5.826,0,0,1,3.063-5.969l7.462,8.247a3.852,3.852,0,0,1-3.456,3.22S1583.668,584.156,1581.7,580.386Z" transform="translate(-1581.637 -534.954)" fill="url(#linear-gradient-26)"/>
            <path id="Trazado_1014515" data-name="Trazado 1014515" d="M1523.268,616.777s-8.645,9.647-21.328,13.853l5.467,8.286,11.407-14.485-.731-2.1S1522.642,618.907,1523.268,616.777Z" transform="translate(-1468.929 -554.061)" opacity="0.91" fill="url(#linear-gradient-27)"/>
            <path id="Trazado_1014516" data-name="Trazado 1014516" d="M1563.408,562.111s3.613,5.969,7.226,8.954l.707,1.964s-7.013-4.733-9.594-10.2A4.472,4.472,0,0,1,1563.408,562.111Z" transform="translate(-1549.833 -529.403)" fill="#e28183"/>
          </g>
          <path id="Trazado_1014517" data-name="Trazado 1014517" d="M1366.635,633.761c1.095,1.728,6.591,5.348,8.009,6.765s0,6.056,0,6.056c23.094,24.512,47.17,36.786,49.594,37.98a2.2,2.2,0,0,1,.2.1c1.891.236,11.081-2.351,20.271-20.731,8.332-16.652,10.719-27.769,11.105-29.709l.05-.3-2.027-2.748-3.01-33.925-2.114,6.827c-8.009-9.663-15.557-24.5-15.557-24.5l-.336,1.069v.013c-1.355,5.322-4.141,25.258-6.728,32.371a16.29,16.29,0,0,1-6.044,8.158l-.013.025.013.012c7.374,6.728,11.031,16.4,12.834,24.1a66.775,66.775,0,0,1,1.766,12.473,83.852,83.852,0,0,0-8.482-21.092,45.367,45.367,0,0,0-9.115-11.006,73.249,73.249,0,0,0-7.113-5.7c-1.766,1.095-3.258,2.823-4.7,2.1,9.7,14.563,9.463,43.389.348,37.892s-11.187-17.163-11.187-17.163c2.151-14.214,1.509-30.246-.22-33.293-2.1.069-8.105,4.294-8.453,4.194a49.25,49.25,0,0,1-7.312,27.894l-5.186-8.021a49.765,49.765,0,0,0,6.989-25.108c-.311-.137-2.139,1.207-2.139,1.207l1.281,1.592a43.506,43.506,0,0,1-8.407,18.928l-4.315-6.317S1365.526,632.032,1366.635,633.761Z" transform="translate(-1114.728 -356.837)" opacity="0.5" fill="url(#linear-gradient-10)"/>
          <path id="Trazado_1014518" data-name="Trazado 1014518" d="M1026.322,733.634v4.95l.087.087.274.249.224.187c2.238,1.766,11.727,7.548,41.375,9.14,35.132,1.878,58.536-9.426,58.536-9.426l-1.766-4.838s1.641-1.406,1.766-2.114-1.293-2.363-1.293-2.363,3.532-1.878,3.532-4.24c0-2.126-5.77-8.282-6.7-14.065a8.386,8.386,0,0,1-.137-1.84c.236-6.218,5.609-11.727,6.355-15.259a.2.2,0,0,0,.012-.05c.709-3.532-9.19-12.249-9.19-12.249,8.481-26.862,10.135-62.914,10.135-62.914l1.641-1.89s10.136,23.094,19.326,34.4,22.621,20.98,24.972,20.507c5.422,0,11.478-9.426,16.975-21.054s5.832-45.031,6.118-47.095,3.358-6.193,3.544-7.959c-5.894,10.135-15.284,7.151-15.284,7.151,6.8.149,10.334-12.573,10.334-12.573l.037-.087.037-.087,3.32-8.767c-.373.423-8.146,9.115-15.656,3.756-7.7-5.5-11.665-16.142-11.665-16.142V582.71s-.46,2.127-1.169,2.127a166.846,166.846,0,0,0,3.407,21.5c3.494,16.329,8.282,32.1,8.282,32.1s-12.984-7.063-17.547-24.972a75.513,75.513,0,0,1-2.325-21.44,53.762,53.762,0,0,1,1.045-8.966,2.074,2.074,0,0,1,.062-.261.455.455,0,0,1,.025-.124.515.515,0,0,1,.013-.062l-1.256,2.661-2.388,5.92c-2.773,22.982,2.947,57.616,2.947,57.616-8.332-10.372-10.061-33.3-9.7-38.875.162-2.661.373-5.944.51-8.63.187-2.935.311-5.161.311-5.161l-17.05,10.173,3.146-9.974-12.411,9.974s-11.155,13.431-22.621,15-53.562.634-53.562.634,36.6,2.351,47.282,5.5,12.722,6.753,12.722,6.753c-7.723,39.286-50.465,52.53-51.8,52.928,38.776-5.82,56.82-38.788,56.82-38.788s.634,18.542-2.35,25.606-20.582,24.349-43.2,27.956a52.022,52.022,0,0,1-5.634.572c-19.077.9-34.87-8.854-36.487-9.9a1.253,1.253,0,0,0-.137-.087.689.689,0,0,0,.037.062c.609.932,8.431,11.926,40.019,13.132,1.915.074,3.781.062,5.6-.013h.025c29.274-1.231,44.185-20.731,44.185-20.731s10.832,5.82,3.917,14.451c-.075.087-.149.187-.224.273-2.039,2.351-6.529,5.223-11.839,8.183-.149.087-.3.174-.435.248-6.417,3.544-13.941,7.2-19.76,10.222a.623.623,0,0,0-.087.037,73.71,73.71,0,0,0-8.109,4.638.012.012,0,0,0-.012.013c-1.641,1.194-1.977,1.965-.373,2.151,8.17.945,39.111-5.808,40.367-3.93s-1.529,6.753-1.529,6.753c-28.4,14.077-89.178,7.138-91.093,6.927,50.863,13.021,92.474-3.47,92.474-3.47l-1.381,4.875a181.978,181.978,0,0,1-49.358,8.481c-26.712.622-43.364-6.206-43.364-6.206Z" transform="translate(-674.433 -352.086)" opacity="0.5" fill="url(#linear-gradient-14)"/>
          <path id="Trazado_1014519" data-name="Trazado 1014519" d="M1342.24,665.131s-20.23,1.1-33.6,4.634l6.9,10.458A91.706,91.706,0,0,1,1342.24,665.131Z" transform="translate(-969.54 -395.428)" opacity="0.5" fill="url(#linear-gradient-30)"/>
          <path id="Trazado_1014520" data-name="Trazado 1014520" d="M1253.116,766.713s12.62,10.529,25.03,15.4a83.8,83.8,0,0,0,24.349,5.341s-7.135,2.121-24.689-.707-23.561-12.335-23.561-12.335Z" transform="translate(-899.316 -441.248)" opacity="0.5" fill="url(#linear-gradient-30)"/>
          <path id="Trazado_1014521" data-name="Trazado 1014521" d="M1257.285,826.554v.013c23.355,6.032,53-2.624,52.754-3.681s-8.121.473-26.377-3.184c-17.7-3.544-24.113-9.837-24.5-10.222.149,1.069,2.586,3.42,3.283,5.982C1262.917,817.165,1259.607,822.536,1257.285,826.554Z" transform="translate(-909.151 -460.538)" opacity="0.5" fill="url(#linear-gradient-32)"/>
          <path id="Trazado_1014522" data-name="Trazado 1014522" d="M1111.326,647.222c19.947,2.027,25.32,7.586,25.32,7.586,5.608.709,18.207-13.655,18.207-13.655l1.641-1.89s10.136,23.094,19.326,34.4c1.095,1.343,2.25,2.674,3.444,3.955l-1.306-2.935s-2.139-1.02-2.761-12.249,4.713-27.956,4.751-30.232.82-13.791.82-13.791l-17.05,10.173,3.147-9.974-12.411,9.974s-4.862,7.312-17.137,13.406C1125.741,647.744,1112.759,647.284,1111.326,647.222Z" transform="translate(-699.757 -374.352)" opacity="0.5" fill="url(#linear-gradient-33)"/>
          <path id="Trazado_1014523" data-name="Trazado 1014523" d="M1185.975,655.125l-11.883-1.552a89.336,89.336,0,0,1-14.286,7.027l7.95,11.723s-3.154,16.712-12.207,26.131c0,0,24.028-13.346,27.406-24.567Z" transform="translate(-729.24 -390.214)" opacity="0.5" fill="url(#linear-gradient-34)"/>
          <path id="Trazado_1014524" data-name="Trazado 1014524" d="M1056.482,581.43l-3.4,8.942s-3.464,12.067-10.334,12.573-13.593-20.233-13.593-20.233V569.044s7.31,15.673,15.2,17.441S1056.482,581.43,1056.482,581.43Z" transform="translate(-530.367 -352.086)" opacity="0.5" fill="url(#linear-gradient-34)"/>
          <path id="Trazado_1014525" data-name="Trazado 1014525" d="M1117.7,563.48s-6.125,12.248-13.666,16.018c0,0,8.966-21.759,7.075-34.56C1111.1,544.938,1114.4,546.99,1117.7,563.48Z" transform="translate(-632.679 -341.213)" opacity="0.5" fill="url(#linear-gradient-36)"/>
          <path id="Trazado_1014526" data-name="Trazado 1014526" d="M1370.493,611.771l-2.114,6.827-2.145,56.024a135.134,135.134,0,0,0,9.245-25.88L1373.5,645.7S1370.175,624.579,1370.493,611.771Z" transform="translate(-1034.397 -371.359)" opacity="0.76" fill="url(#linear-gradient-37)"/>
          <path id="Trazado_1014527" data-name="Trazado 1014527" d="M1503.745,641.811s1.2,27.521-10.5,29.9l-.581,2.943S1507.8,674.093,1503.745,641.811Z" transform="translate(-1232.752 -384.909)" opacity="0.5" fill="url(#linear-gradient-38)"/>
          <path id="Trazado_1014528" data-name="Trazado 1014528" d="M1412.678,655.33s.448.987,4.7-2.1c0,0,14.712,10.42,20.381,25.108,0,0-9.068-13.494-13.894-14.954s-5.99,3.925-5.99,3.925S1415.966,659.721,1412.678,655.33Z" transform="translate(-1122.17 -390.059)" opacity="0.3" fill="url(#linear-gradient-39)"/>
          <path id="Trazado_1014529" data-name="Trazado 1014529" d="M1042.531,617.774s-5.661,10.433-16.265,7.16c0,0,6.355,4.283,12.72.8C1038.985,625.733,1042.937,618.952,1042.531,617.774Z" transform="translate(-514.857 -374.066)" opacity="0.5" fill="url(#linear-gradient-40)"/>
          <path id="Trazado_1014530" data-name="Trazado 1014530" d="M1075.479,593.715s-7.783,29.1,12.521,50.958c0,0-13.188-6.768-16.176-22.438A48.18,48.18,0,0,1,1075.479,593.715Z" transform="translate(-584.88 -363.214)" opacity="0.5" fill="url(#linear-gradient-10)"/>
          <path id="Trazado_1014531" data-name="Trazado 1014531" d="M1301.782,551.346s.877,13.135,7.172,22.561,18.784,15.787,18.784,15.787-15.669-5.773-22.856-13.9S1301.782,551.346,1301.782,551.346Z" transform="translate(-950.64 -344.103)" opacity="0.5" fill="url(#linear-gradient-33)"/>
          <path id="Trazado_1014532" data-name="Trazado 1014532" d="M1234.688,515.343a83.056,83.056,0,0,1-3.535,22.176c-3.535,11.193-34.213,30.75-34.213,30.75s31.621-13.136,37.748-24.947S1234.688,515.343,1234.688,515.343Z" transform="translate(-803.395 -327.863)" opacity="0.5" fill="url(#linear-gradient-33)"/>
          <path id="Trazado_1014533" data-name="Trazado 1014533" d="M1289.641,610.619v17.889s-41.175-.333-87.346,2.726l-1.055-16.1A804.912,804.912,0,0,1,1289.641,610.619Z" transform="translate(-857.986 -370.835)" fill="url(#linear-gradient-44)"/>
          <g id="Grupo_1165252" data-name="Grupo 1165252" transform="translate(348.197 243.419)">
            <path id="Trazado_1014534" data-name="Trazado 1014534" d="M1227.751,617.694q-.014-.457-.441-.445l-8.342.253a6.234,6.234,0,0,0-2.1.377,3.5,3.5,0,0,0-1.379.929,3.447,3.447,0,0,0-.736,1.413,6.351,6.351,0,0,0-.189,1.833l.07,2.291a6.347,6.347,0,0,0,.3,1.818,3.433,3.433,0,0,0,.821,1.367,3.533,3.533,0,0,0,1.434.844,6.276,6.276,0,0,0,2.117.249l4.491-.137.931-2.627.121,0,.079,2.6,3.148-.1Zm-2.915,7.871-5.332.162a1.726,1.726,0,0,1-1.3-.358,2.016,2.016,0,0,1-.424-1.394l-.056-1.864a1.977,1.977,0,0,1,.338-1.425,1.8,1.8,0,0,1,1.272-.413l5.1-.155a.217.217,0,0,1,.17.064.234.234,0,0,1,.065.159Z" transform="translate(-1151.929 -617.248)" fill="#ebefff"/>
            <path id="Trazado_1014535" data-name="Trazado 1014535" d="M1250.863,622.831l.107,0,.1,3.331a.188.188,0,0,1-.207.22l-9.381.285.087,2.887,12.3-.373a.4.4,0,0,0,.429-.471l-.31-10.207a.4.4,0,0,0-.457-.444l-11.946.363a.406.406,0,0,0-.445.471l.088,2.888,2.951,1,.123,0-.045-1.482c0-.111.046-.17.147-.173l6.309-.191a.167.167,0,0,1,.162.063.3.3,0,0,1,.042.144l.042,1.39-5.194.157.069,2.263,4.355-.132Z" transform="translate(-1192.745 -617.612)" fill="#ebefff"/>
            <path id="Trazado_1014536" data-name="Trazado 1014536" d="M1269.63,623.023l.122,0-.037-1.222a.162.162,0,0,1,.177-.189l5.867-.178a.473.473,0,0,1,.583.518l.009.275a.555.555,0,0,1-.094.416.867.867,0,0,1-.41.15l-6.875,1.172a4.627,4.627,0,0,0-1.108.317,2.118,2.118,0,0,0-.733.527,1.786,1.786,0,0,0-.389.785,4.177,4.177,0,0,0-.09,1.088l.027.885a3.956,3.956,0,0,0,.205,1.209,2.045,2.045,0,0,0,.577.869,2.427,2.427,0,0,0,1.025.511,5.6,5.6,0,0,0,1.548.137l9.9-.3-.087-2.887-8.875.27a.712.712,0,0,1-.533-.13.77.77,0,0,1-.144-.508l-.009-.3a.627.627,0,0,1,.086-.408.6.6,0,0,1,.385-.158l6.636-1.042a5.313,5.313,0,0,0,1.146-.31,2.2,2.2,0,0,0,.772-.513,1.774,1.774,0,0,0,.419-.762,3.59,3.59,0,0,0,.1-1.058l-.024-.779a2.584,2.584,0,0,0-.7-1.852,2.89,2.89,0,0,0-2.16-.6l-9.884.3a.426.426,0,0,0-.459.5l.069,2.292Z" transform="translate(-1232.36 -618.013)" fill="#ebefff"/>
            <path id="Trazado_1014537" data-name="Trazado 1014537" d="M1296.475,630.727l-.338-11.121-3.147.1.338,11.122Z" transform="translate(-1263.382 -618.312)" fill="#ebefff"/>
            <path id="Trazado_1014538" data-name="Trazado 1014538" d="M1304.532,626.627c-.005-.163,0-.333.009-.513s.022-.334.039-.468l0-.137-3.116.095.165,5.454c.009.285.141.424.394.417l8.371-.254a6.285,6.285,0,0,0,2.1-.378,3.5,3.5,0,0,0,1.378-.929,3.436,3.436,0,0,0,.737-1.413,6.345,6.345,0,0,0,.188-1.832l-.069-2.292a6.378,6.378,0,0,0-.3-1.819,3.45,3.45,0,0,0-.821-1.366,3.516,3.516,0,0,0-1.433-.843,6.255,6.255,0,0,0-2.118-.249l-8.325.253a.4.4,0,0,0-.43.471l.073,2.4,2.951.982.122,0-.033-1.069c0-.1.04-.154.132-.156l5.316-.161a3.026,3.026,0,0,1,.773.061,1.088,1.088,0,0,1,.522.274,1.223,1.223,0,0,1,.306.541,3.377,3.377,0,0,1,.119.845l.058,1.956a2.02,2.02,0,0,1-.339,1.417,1.73,1.73,0,0,1-1.272.436l-5.271.16c-.111,0-.169-.056-.172-.178Z" transform="translate(-1286.265 -618.532)" fill="#ebefff"/>
            <path id="Trazado_1014539" data-name="Trazado 1014539" d="M1336.347,620.827a.872.872,0,0,0-.494.122,1,1,0,0,0-.256.344l-3.975,8.119a.324.324,0,0,1-.284.192l-.168.006a.217.217,0,0,1-.252-.238l-.254-8.372-2.856.087.324,10.68q.012.443.441.429l4.524-.137a.974.974,0,0,0,.476-.106.841.841,0,0,0,.289-.361l4.126-8.108a.305.305,0,0,1,.284-.192l.153,0a.216.216,0,0,1,.251.237l.254,8.357,2.858-.087-.324-10.664c-.01-.3-.155-.453-.441-.445Z" transform="translate(-1327.807 -618.798)" fill="#ebefff"/>
          </g>
          <path id="Trazado_1014540" data-name="Trazado 1014540" d="M1215.129,506.006c.97,11.565,4.489,19.624,8.245,25.058,5.173,7.462,10.769,10.011,10.769,10.011a64.6,64.6,0,0,0,14.625-8.817,74.573,74.573,0,0,0,23.89-35.442c-7.486,18.082-18.48,29.038-26.812,35.206a53.793,53.793,0,0,1-11.7,6.864V533.1a38.36,38.36,0,0,0,3.855-1.691c14.675-7.4,22.385-22.82,25.991-32.794.013-.025.013-.037.025-.062a70.848,70.848,0,0,0,2.711-9.19h-2.661l.871,1.865.037.062c-.423,1.891-.908,3.706-1.455,5.434a.447.447,0,0,1-.05.137c-8.208,25.891-29.324,34.236-29.324,34.236-14.675-10.832-14.389-28.031-14.389-28.031v-2.363l-2.748.821Z" transform="translate(-848.627 -316.146)" opacity="0.5" fill="url(#linear-gradient-14)"/>
          <path id="Trazado_1014541" data-name="Trazado 1014541" d="M1483.622,634.17s3.99,13.029.219,33.293c0,0-1.885-25.684-3.3-27.922s-5.375-1.177-5.375-1.177A92.11,92.11,0,0,1,1483.622,634.17Z" transform="translate(-1204.175 -381.462)" opacity="0.3" fill="url(#linear-gradient-38)"/>
          <path id="Trazado_1014542" data-name="Trazado 1014542" d="M1379.067,680.4c3.482-3.047,7.66-8.133,11.827-16.465,8.332-16.652,10.719-27.77,11.105-29.709l-1.977-3.047-2.649-25.618-2.475-1.48a104.807,104.807,0,0,1-15.557-24.5,7.034,7.034,0,0,0-.336,1.069v.013c-1.355,5.322-4.141,25.257-6.728,32.371a16.289,16.289,0,0,1-6.044,8.158s15.309,22.708,16.055,38.912C1382.948,674.85,1379.66,679.65,1379.067,680.4Z" transform="translate(-1060.915 -356.837)" opacity="0.5" fill="url(#linear-gradient-10)"/>
          <path id="Trazado_1014543" data-name="Trazado 1014543" d="M1160.283,825.761s27.6-4.527,38.862-11.789a.012.012,0,0,0,.013-.013,8.386,8.386,0,0,1-.137-1.84c.236-6.218,5.609-11.727,6.355-15.259-.125.336-.933,2.2-4.85,5.559a83.235,83.235,0,0,1-11.839,8.183c-.149.087-.3.174-.435.249-7.959,4.7-14.811,7.884-19.761,10.222a.619.619,0,0,0-.087.037c-4.452,2.089-7.337,3.47-8.109,4.638A.012.012,0,0,0,1160.283,825.761Z" transform="translate(-751.239 -454.846)" opacity="0.5" fill="url(#linear-gradient-12)"/>
          <path id="Trazado_1014544" data-name="Trazado 1014544" d="M1257.289,809.479c.149,1.069,2.586,3.42,3.283,5.982,0,0,10.123,10.72,47.593,7.424-.249-1.057-8.121.473-26.377-3.184C1264.09,816.158,1257.673,809.865,1257.289,809.479Z" transform="translate(-907.277 -460.538)" opacity="0.5" fill="url(#linear-gradient-10)"/>
          <path id="Trazado_1014545" data-name="Trazado 1014545" d="M1153.916,501.928l23.952,7.76,7.014,3.258.037.013,4.564.013,6.168.013,3.855.311,2.039.149,5.808.46,2.922.236,28.727-10.4,5.136-1.853,23.628-8.556c-.7-.273-1.406-.547-2.151-.846-15.856-6.28-31.413-13.9-31.413-13.9l-5.969-7.337h-2.661a88.554,88.554,0,0,1-4.974-13.891l-1.579-7.1c-.112-.684-.162-1.057-.162-1.057l-8.457,4.464-28.516,22.808c.025,1.555-.025,2.947-.112,4.129l-.411,2.872c-.075-.559-.1-.883-.1-.883l-2.749.821-1.878,4.477s-3.184,4.95-15.794,10.5A74.414,74.414,0,0,0,1153.916,501.928Z" transform="translate(-810.135 -298.028)" fill="#7a4ac0" opacity="0.5"/>
          <g id="Grupo_1165253" data-name="Grupo 1165253" transform="translate(339.099 67.34)">
            <path id="Trazado_1014546" data-name="Trazado 1014546" d="M1261.5,426.987a39.013,39.013,0,0,0,23.492-3.457c12.324-5.969,22.683-23.566,23.318-27.956s-4.713-15.869-4.713-24.822,4.39-24.35-2.985-32.682-41.312-9.576-52.318,1.107c0,0-3.407,8.556-3.407,13.393a35.236,35.236,0,0,0,.523,4.862c.1.734.236,1.517.361,2.325.983,5.857,2.338,13.008,1.7,16.142a15.7,15.7,0,0,1-.982,3.059v.013c-1.355,3.134-3.37,5.634-3.731,8.344C1242.285,390.86,1247.038,415.993,1261.5,426.987Z" transform="translate(-1238.574 -312.276)" fill="url(#linear-gradient-50)"/>
            <path id="Trazado_1014547" data-name="Trazado 1014547" d="M1222.875,392.021s3.048-7.645,10.706-7.762c0,0,4.477,1.767,5.184,5.184,0,0-1.65,12.37-3.534,18.143s-8.8,4.938-8.8,4.938S1220.416,403.318,1222.875,392.021Z" transform="translate(-1157.76 -336.075)" fill="url(#linear-gradient-51)"/>
            <path id="Trazado_1014548" data-name="Trazado 1014548" d="M1330.48,443.478s-2.551-.2-3.65.626-5.105,4.713-10.171,5.773-8.464-3.253-9.543-3.475-2.266,1.305-2.266,1.305.465-1.763,3.1-2.565c0,0,1.068,4.063,8.411,2.673s10.466-4.654,10.466-4.654l.373-.668A19.553,19.553,0,0,1,1330.48,443.478Z" transform="translate(-1294.799 -362.343)" fill="url(#linear-gradient-52)"/>
            <path id="Trazado_1014549" data-name="Trazado 1014549" d="M1294.672,356.512l-.1-.785s-7.324-12.853-21.816-13.207-17.765,8.728-17.765,8.728l-2.683-4.075,6.115-12.428,42.576-.707,10.368,8.365,1.31,20.477-4.608,27.034-11.216,5.977-3.166-2.808c1.169-9.052,7.9-17.323,7.9-17.323l-4.909-3.408s-12.606,6.1-19.891,4.276c0,0-5.479-15.99-5.165-27.837C1271.628,348.79,1290.3,351.553,1294.672,356.512Z" transform="translate(-1248.156 -313.422)" opacity="0.6" fill="url(#linear-gradient-20)"/>
            <path id="Trazado_1014550" data-name="Trazado 1014550" d="M1308.229,368.257s-.706-4.63-8.522-6.483c-8.7-2.063-15.776-3.808-15.776-3.808s1.542,5.077,4.443,6.981c0,0,9.211-.335,13.872.725S1308.229,368.257,1308.229,368.257Z" transform="translate(-1261.065 -324.215)" fill="#38368e"/>
            <path id="Trazado_1014551" data-name="Trazado 1014551" d="M1344.435,365.389s4.42,3.407,7.424,11.536c0,0-2.886-3.77-5.537-3.711a1.515,1.515,0,0,0-1.526,1.835A17,17,0,0,1,1344.435,365.389Z" transform="translate(-1337.601 -327.564)" fill="#38368e"/>
            <path id="Trazado_1014552" data-name="Trazado 1014552" d="M1303.035,390.5s-.471-9.779-10.014-12.253c0,0-3.417,4.418-3.77,9.425C1289.251,387.675,1294.317,386.732,1303.035,390.5Z" transform="translate(-1258.791 -333.364)" fill="url(#linear-gradient-54)"/>
            <path id="Trazado_1014553" data-name="Trazado 1014553" d="M1347.037,398.892s-.772-7.784-5.243-10.662c0,0-3.047,2.284-2.731,8.8C1339.062,397.029,1341.735,396.064,1347.037,398.892Z" transform="translate(-1330.125 -337.866)" fill="url(#linear-gradient-55)"/>
            <path id="Trazado_1014554" data-name="Trazado 1014554" d="M1302.536,398.142s-3.1,3.81-11.781,4.556c0,0-1.653-2.517-1.494-7.444C1289.263,395.254,1297.234,394.49,1302.536,398.142Z" transform="translate(-1258.292 -341.005)" fill="#ffebed"/>
            <path id="Trazado_1014555" data-name="Trazado 1014555" d="M1346.841,406v1.138s-1.335,2.788-6.126,3.26a13.355,13.355,0,0,1-1.675-6.308S1342.087,403.331,1346.841,406Z" transform="translate(-1329.928 -344.976)" fill="#ffebed"/>
            <path id="Trazado_1014556" data-name="Trazado 1014556" d="M1306.532,394.849a10.754,10.754,0,0,1,2,6.9,32.9,32.9,0,0,1-4.507.748s-1.9-2.644-1.494-7.444A12,12,0,0,1,1306.532,394.849Z" transform="translate(-1271.565 -340.801)" fill="#7f9ec9"/>
            <path id="Trazado_1014557" data-name="Trazado 1014557" d="M1347.882,404.168s1.248,1.334,1.484,5.428a9.4,9.4,0,0,1-3.064.746,11.368,11.368,0,0,1-1.674-6.308A5.485,5.485,0,0,1,1347.882,404.168Z" transform="translate(-1335.52 -344.918)" fill="#7f9ec9"/>
            <path id="Trazado_1014558" data-name="Trazado 1014558" d="M1309.536,402.04s.788-5.284-2.236-7.3l-2.476.315a10.646,10.646,0,0,0,1.494,7.443S1308.778,402.215,1309.536,402.04Z" transform="translate(-1273.855 -340.801)" fill="#38368e"/>
            <path id="Trazado_1014559" data-name="Trazado 1014559" d="M1348.488,403.921a22.659,22.659,0,0,1,1.642,6.007,6.838,6.838,0,0,1-2.127.4s-1.7-2.073-1.674-6.308A5.1,5.1,0,0,1,1348.488,403.921Z" transform="translate(-1337.218 -344.905)" fill="#38368e"/>
            <path id="Trazado_1014560" data-name="Trazado 1014560" d="M1304.861,397.859s-5.773-3.358-15.611-1.443l1.826-1.384A16.454,16.454,0,0,1,1304.861,397.859Z" transform="translate(-1260.617 -340.722)" fill="#131163"/>
            <path id="Trazado_1014561" data-name="Trazado 1014561" d="M1349.067,405.321a15.589,15.589,0,0,0-10.027-1.157l2.224-1.647S1344.885,401.963,1349.067,405.321Z" transform="translate(-1332.155 -344.296)" fill="#131163"/>
            <path id="Trazado_1014562" data-name="Trazado 1014562" d="M1303.615,400.54a3.415,3.415,0,0,0-2.985,1.084A2.719,2.719,0,0,0,1303.615,400.54Z" transform="translate(-1265.618 -343.403)" fill="#fff"/>
            <path id="Trazado_1014563" data-name="Trazado 1014563" d="M1346.223,408.786s-2.462-.479-3.312.645C1342.912,409.43,1344.229,410.336,1346.223,408.786Z" transform="translate(-1331.434 -347.093)" fill="#fff"/>
            <path id="Trazado_1014564" data-name="Trazado 1014564" d="M1302.167,401.611a22.623,22.623,0,0,1-11.672,5.5l-.185-2.617.656,1.105S1297.875,405.186,1302.167,401.611Z" transform="translate(-1258.505 -343.902)" fill="#c6659c"/>
            <path id="Trazado_1014565" data-name="Trazado 1014565" d="M1345.683,409.728s-.8,2.867-6.643,4.163l.188-1.4.329.5S1343.707,412.457,1345.683,409.728Z" transform="translate(-1328.771 -347.564)" fill="#c6659c"/>
            <path id="Trazado_1014566" data-name="Trazado 1014566" d="M1334.845,430.446a20.8,20.8,0,0,0-6.185,0c-4.005.471-8.51,1.571-10.97,0,0,0,3.269,3.273,6.1,3.77s7.148-1.99,7.148-1.99l1.885.033A5.094,5.094,0,0,0,1334.845,430.446Z" transform="translate(-1306.213 -356.814)" fill="#cb5f7d"/>
            <path id="Trazado_1014567" data-name="Trazado 1014567" d="M1325.34,433.5a3,3,0,0,0-1.806-.473c-.825.157-1.664,1.358-1.664,1.358A8.209,8.209,0,0,1,1325.34,433.5Z" transform="translate(-1299.002 -358.063)" fill="#9f4a8b"/>
            <path id="Trazado_1014568" data-name="Trazado 1014568" d="M1327.228,421.546c-1.047-1.021,4.373-10.674,6.964-11.031s5.027,10.822,5.027,10.822-3.605.505-7.1.974S1327.228,421.546,1327.228,421.546Z" transform="translate(-1315.75 -347.915)" fill="#ffbcaf"/>
            <path id="Trazado_1014569" data-name="Trazado 1014569" d="M1339.678,375.251c1.467-.187,6.653,6.118,6.653,6.118s3.3,10.21,2.648,13.232-8.655,4.638-8.655,4.638l-.336-.535v-.013a15.7,15.7,0,0,0,.982-3.059c.634-3.134-.721-10.285-1.7-16.142a12.022,12.022,0,0,1-.361-2.325C1338.872,376.221,1339.009,375.325,1339.678,375.251Z" transform="translate(-1332.076 -332.01)" opacity="0.6" fill="url(#linear-gradient-56)"/>
            <path id="Trazado_1014570" data-name="Trazado 1014570" d="M1247.7,381.184c1.654-3.457.634-5.26,15-7.138,20.333-2.674,22.074,3.532,25.531,2.587a3.352,3.352,0,0,0,.411-.149c3.743-1.455,12.56-10.123,12.784-21.8.236-12.137-7.9-20.743-7.9-20.743,2.947-2.475,4.129-9.65.945-12.722s-8.606-2.35-21.912-.945-13.319.6-13.319.6c-4.228,1.082-6.653,5.049-7.337,6.318-.137.249-.2.4-.2.4l-1.653-1.53a21.656,21.656,0,0,0-3.656,13.543s-7.3-14.849-6.467-16.95c1.517-3.88,5.733-9.538,5.994-9.9l.013-.013s1.181-11.3,4.713-11.3,18.617,3.407,18.617,3.407a21.426,21.426,0,0,1-1.418-8.357l.062.062c4.925,4.415,9.738,4.9,16.553,8.058a17.238,17.238,0,0,1,6.38,4.626l.46.547.485.585c.472.6.958,1.207,1.542,1.828a.4.4,0,0,0,.075.075l.037.037a19.533,19.533,0,0,0,1.977,1.853c4.477,3.644,14.326,6.081,15.507,9.936s-1.492,9.1-2.91,14.525a29.522,29.522,0,0,0-.759,10.21,20.052,20.052,0,0,0-3.134,14.886c1.381,7.922,4.4,9.215,4.4,9.215a13.563,13.563,0,0,1,1.119,8.444c-4.352,17.311-22.359,27.62-22.359,27.62-16.017,5.969-26.551,3.37-26.551,3.37l-.012-.013c-11.653-7.6-15.645-32.744-15.819-33.913C1245.1,378.747,1247.263,382.1,1247.7,381.184Zm7.191,16.03c2.823-.473,3.42-7.623,4.353-8.568s6.056-.547,6.056-.547,4.713,5.348,6.591,5.5,11.939-3.93,9.762-10.048-9.762-6.914-9.762-6.914a18.407,18.407,0,0,1-9.812,3.681c-5.895.385-8.021-.7-8.718-1.007s-4.5,1.405-4.4,6.753C1249.014,389.778,1252.05,397.687,1254.888,397.215Z" transform="translate(-1239.858 -296.482)" fill="url(#linear-gradient-57)"/>
            <path id="Trazado_1014571" data-name="Trazado 1014571" d="M1342.454,414.433s-5.077,6.3-4.593,8.675c.531,2.6,6.411,3.98,6.411,3.98s-4.715-1.626-5.681-3.98A31.242,31.242,0,0,1,1342.454,414.433Z" transform="translate(-1326.694 -349.686)" fill="#d2726c"/>
            <path id="Trazado_1014572" data-name="Trazado 1014572" d="M1357.812,352.956a21.659,21.659,0,0,1,3.656-13.543,36.185,36.185,0,0,1-4.116-13.319l-.012.013c-1.219,3-1.915,8.83-1.915,8.83l-4.079,1.069C1350.512,338.107,1357.812,352.956,1357.812,352.956Z" transform="translate(-1351.274 -309.839)" opacity="0.6" fill="url(#linear-gradient-58)"/>
            <path id="Trazado_1014573" data-name="Trazado 1014573" d="M1239.857,327.188c.684-1.269,3.109-5.236,7.337-6.318,0,0,0,.821,13.319-.6s18.729-2.114,21.913.945,2,10.247-.946,12.722c0,0,8.133,8.606,7.9,20.743-.224,11.677-9.041,20.345-12.784,21.8l.174,1.293s-.659,26.737-7.163,28.864-19.972,1.02-21.228,2.276c-1.194,1.194.174,3.246.3,3.432l.012.013s10.533,2.6,26.551-3.37c0,0,18.007-10.31,22.36-27.62a13.567,13.567,0,0,0-1.119-8.444s-3.022-1.293-4.4-9.215a20.053,20.053,0,0,1,3.134-14.886,29.518,29.518,0,0,1,.758-10.21c1.418-5.422,4.091-10.682,2.91-14.525a16.957,16.957,0,0,1-12.485-2.749s-1.318-1.828-7.151-2.773-29.274,1.418-29.274,1.418a20.136,20.136,0,0,1,7.3-3.246c4.676-1.231,20.644.2,22.36.336-1.828-.323-19.935-3.432-22-2.811-2.188.647-10.024,4.241-10.024,4.241.709-3.594,7.723-12.249,7.723-12.249s9.9.174,16.378,1.53a21.18,21.18,0,0,1,9.575,4.4l-1.542-1.828-.485-.585-.46-.547-2.263-.385-11.367-4.589c-3.818-2.039-8.7-7.088-9.3-7.71l-.062-.062a21.427,21.427,0,0,0,1.418,8.357c-9.6-1.181-12.846-.585-12.846-.585C1240,310.437,1239.857,327.188,1239.857,327.188Z" transform="translate(-1227.813 -296.483)" opacity="0.6" fill="url(#linear-gradient-59)"/>
            <path id="Trazado_1014574" data-name="Trazado 1014574" d="M1310.522,500.54a59.87,59.87,0,0,0-14.767-1.039c-8.882.358-13.987.394-11.784,4.408C1283.975,503.91,1295.13,506.429,1310.522,500.54Z" transform="translate(-1263.099 -388.031)" opacity="0.5" fill="url(#linear-gradient-60)"/>
            <path id="Trazado_1014575" data-name="Trazado 1014575" d="M1323.818,308.069s-5.4-2.106-7.531-1.76a4.171,4.171,0,0,1,1.728-1.362c.884-.236,18.649,3.706,18.649,3.706S1325.591,307.362,1323.818,308.069Z" transform="translate(-1307.262 -300.296)" fill="url(#linear-gradient-61)"/>
            <path id="Trazado_1014576" data-name="Trazado 1014576" d="M1263.7,314.15s.424,5.879,2.3,8.009l22,2.81,6.458-1.138a16.225,16.225,0,0,1-5.244-4.271C1286.469,316.355,1272.125,313.207,1263.7,314.15Z" transform="translate(-1236.186 -304.375)" fill="url(#linear-gradient-62)"/>
            <path id="Trazado_1014577" data-name="Trazado 1014577" d="M1364.787,326.093s-1.791,5.783-1.927,8.842L1358.78,336S1360.016,331.629,1364.787,326.093Z" transform="translate(-1358.71 -309.839)" fill="url(#linear-gradient-62)"/>
            <path id="Trazado_1014578" data-name="Trazado 1014578" d="M1225.077,406s1.546-7.422,5.338-11.094a8.914,8.914,0,0,1,8.112-2.494s-1.178,13.764-2.415,17.122-3.122,4.241-3.122,4.241a10.594,10.594,0,0,0,3-6.875c.354-4.553.472-10.975-.53-11.74s-5.049,2.221-5.049,2.221,1.278,1.566,2.044,5.622-2.062,7-3.122,6.943.059-4.693-.118-6.028S1226.686,402.876,1225.077,406Z" transform="translate(-1159.057 -339.671)" opacity="0.8" fill="url(#linear-gradient-64)"/>
            <path id="Trazado_1014579" data-name="Trazado 1014579" d="M1238.646,400.5a9.272,9.272,0,0,1,3.693,8.3c-.447,5.58-3.636,5.336-3.646,4.164s.607-4.186.283-5.892-3.076-.934-3.076-.934A41.053,41.053,0,0,1,1238.646,400.5Z" transform="translate(-1168.844 -343.403)" opacity="0.8" fill="url(#linear-gradient-65)"/>
            <path id="Trazado_1014580" data-name="Trazado 1014580" d="M1331.82,445.779s5.145,23.471,15.831,33.925C1347.651,479.7,1335.459,474.915,1331.82,445.779Z" transform="translate(-1326.776 -363.825)" fill="#34c7ff"/>
            <path id="Trazado_1014581" data-name="Trazado 1014581" d="M1355.328,304.955s-2.714,2.109-3.23,9.445,2.666,15.478,2.666,15.478-4.08-6.092-4.472-12.768S1353.182,305.8,1355.328,304.955Z" transform="translate(-1344.575 -300.304)" fill="#34c7ff"/>
          </g>
          <path id="Trazado_1014582" data-name="Trazado 1014582" d="M1311.843,332.64a63.486,63.486,0,0,1-13.168,2.75c-6.889.608-8.305.745-8.305.745s2.768-2.686,8.666-3.5A59.714,59.714,0,0,1,1311.843,332.64Z" transform="translate(-929.115 -245.289)" fill="url(#linear-gradient-66)"/>
          <path id="Trazado_1014583" data-name="Trazado 1014583" d="M1352,444.487s-3,0-4.188,3.77a31.339,31.339,0,0,0-1.2,5.6l-1.064-4.133s1.388-5.233,2.831-6.411c1.039-.848,2.829-1.71,3.682-1.5Z" transform="translate(-999.613 -294.679)" fill="url(#linear-gradient-67)"/>
          <path id="Trazado_1014584" data-name="Trazado 1014584" d="M1337.925,439.84l-.508,4.477a15.982,15.982,0,0,1-6.083-.707l-.434-2.709A33.9,33.9,0,0,1,1337.925,439.84Z" transform="translate(-977.445 -293.803)" fill="url(#linear-gradient-68)"/>
          <path id="Trazado_1014585" data-name="Trazado 1014585" d="M1393.19,545.256s-21.422,15.647-24.2,21.029-3.905,22.264-7.666,29.568c0,0,2.57-11.949,4.373-21.318s1.371-9.5,2.372-11.8S1385.071,549.337,1393.19,545.256Z" transform="translate(-1049.408 -341.356)" fill="#34c7ff"/>
          <path id="Trazado_1014586" data-name="Trazado 1014586" d="M1338.788,703.937s10.327,44.2,9.857,47.187-7.154,9.077-7.465,10.748c0,0,5.108,6.843,4.873,8.357s-8.952,11.1-8.718,14.06c.068.861,5.723,10.19,5.723,10.19s-6.391-9.17-6.7-10.633,7.829-13.711,8.069-14.957c.619-3.222-4.063-5.591-4.22-7.712s6.336-7.3,6.388-10.759S1338.788,703.937,1338.788,703.937Z" transform="translate(-991.169 -412.932)" fill="#34c7ff"/>
          <path id="Trazado_1014587" data-name="Trazado 1014587" d="M1388.085,895.884s-22.322,50.534-29.935,101.067C1358.152,996.951,1359.42,947.636,1388.085,895.884Z" transform="translate(-1042.564 -499.513)" fill="#34c7ff"/>
          <path id="Trazado_1014588" data-name="Trazado 1014588" d="M1083.23,511.482s5.776-1.235,8.172-6.273.832-12.332.832-12.332-4.522,8.674-6.774,11.636S1082.6,510.854,1083.23,511.482Z" transform="translate(-596.172 -317.73)" fill="#ffbcaf"/>
        </g>
        <g id="Grupo_1165259" data-name="Grupo 1165259" transform="translate(-37.259 96.707)" clip-path="url(#clip-path-4)">
          <path id="Trazado_1014589" data-name="Trazado 1014589" d="M1645.2,470.524l-4,114.157a8.412,8.412,0,0,1-8.406,8.117H1436.134a8.411,8.411,0,0,1-8.409-8.211l-2.752-115.492a8.412,8.412,0,0,1,8.465-8.612l203.409,1.335A8.409,8.409,0,0,1,1645.2,470.524Z" transform="translate(-1336.361 -303.118)" fill="#36d1f7" opacity="0.6"/>
          <g id="Grupo_1165255" data-name="Grupo 1165255" transform="translate(88.3 157.054)">
            <path id="Trazado_1014590" data-name="Trazado 1014590" d="M1435.876,592.853h196.652a8.692,8.692,0,0,0,8.718-8.417l4-114.157a8.722,8.722,0,0,0-8.659-9.028l-203.409-1.336a8.786,8.786,0,0,0-6.279,2.609,8.65,8.65,0,0,0-2.5,6.322l2.752,115.491A8.673,8.673,0,0,0,1435.876,592.853Zm-2.756-132.316h.055l203.409,1.336a8.1,8.1,0,0,1,8.042,8.384l-4,114.157a8.071,8.071,0,0,1-8.1,7.817H1435.875a8.151,8.151,0,0,1-8.1-7.909l-2.752-115.491a8.1,8.1,0,0,1,8.1-8.294Z" transform="translate(-1424.401 -459.916)" fill="#744ca2"/>
          </g>
          <path id="Trazado_1014591" data-name="Trazado 1014591" d="M1645.355,476.4h-219.7l-.353-6.02a9.22,9.22,0,0,1,9.276-9.758l203.33,1.607a7.627,7.627,0,0,1,7.566,7.771Z" transform="translate(-1336.809 -303.181)" opacity="0.6" fill="url(#linear-gradient-69)"/>
          <path id="Trazado_1014592" data-name="Trazado 1014592" d="M1512.88,505.86v66.064h-67.25v-66.41Z" transform="translate(-1215.379 -323.43)" opacity="0.3" fill="url(#linear-gradient-70)"/>
          <rect id="Rectángulo_413356" data-name="Rectángulo 413356" width="29.253" height="29.253" transform="translate(136.01 186.864)" opacity="0.3" fill="url(#linear-gradient-71)"/>
          <rect id="Rectángulo_413357" data-name="Rectángulo 413357" width="29.253" height="29.253" transform="translate(101.493 186.864)" opacity="0.3" fill="url(#linear-gradient-72)"/>
          <rect id="Rectángulo_413358" data-name="Rectángulo 413358" width="29.253" height="29.253" transform="translate(171.098 186.864)" opacity="0.3" fill="url(#linear-gradient-72)"/>
          <rect id="Rectángulo_413359" data-name="Rectángulo 413359" width="74.807" height="7.008" transform="translate(101.495 233.172)" fill="#d1d4fb"/>
          <rect id="Rectángulo_413360" data-name="Rectángulo 413360" width="93.516" height="2.169" transform="translate(101.493 243.836)" fill="#d1d4fb"/>
          <rect id="Rectángulo_413361" data-name="Rectángulo 413361" width="17.89" height="2.169" transform="translate(176.241 219.847)" fill="#d1d4fb"/>
          <rect id="Rectángulo_413362" data-name="Rectángulo 413362" width="17.89" height="2.169" transform="translate(141.691 219.847)" fill="#d1d4fb"/>
          <rect id="Rectángulo_413363" data-name="Rectángulo 413363" width="17.89" height="2.169" transform="translate(107.174 219.847)" fill="#d1d4fb"/>
          <rect id="Rectángulo_413364" data-name="Rectángulo 413364" width="30.083" height="2.169" transform="translate(170.268 247.36)" fill="#d1d4fb"/>
          <rect id="Rectángulo_413365" data-name="Rectángulo 413365" width="93.516" height="2.169" transform="translate(101.493 250.843)" fill="#d1d4fb"/>
          <rect id="Rectángulo_413366" data-name="Rectángulo 413366" width="98.857" height="2.169" transform="translate(101.493 254.326)" fill="#d1d4fb"/>
          <rect id="Rectángulo_413367" data-name="Rectángulo 413367" width="98.857" height="2.169" transform="translate(101.493 257.81)" fill="#d1d4fb"/>
          <rect id="Rectángulo_413368" data-name="Rectángulo 413368" width="93.516" height="2.169" transform="translate(101.493 271.891)" fill="#d1d4fb"/>
          <rect id="Rectángulo_413369" data-name="Rectángulo 413369" width="98.857" height="2.169" transform="translate(101.493 275.374)" fill="#d1d4fb"/>
          <rect id="Rectángulo_413370" data-name="Rectángulo 413370" width="98.857" height="2.169" transform="translate(101.493 278.858)" fill="#d1d4fb"/>
          <rect id="Rectángulo_413371" data-name="Rectángulo 413371" width="94.88" height="2.169" transform="translate(105.47 261.293)" fill="#d1d4fb"/>
          <rect id="Rectángulo_413372" data-name="Rectángulo 413372" width="93.516" height="2.169" transform="translate(101.493 264.776)" fill="#d1d4fb"/>
          <rect id="Rectángulo_413373" data-name="Rectángulo 413373" width="80.095" height="2.169" transform="translate(120.256 268.259)" fill="#d1d4fb"/>
          <g id="Grupo_1165256" data-name="Grupo 1165256" transform="translate(259.526 196.985)">
            <path id="Trazado_1014593" data-name="Trazado 1014593" d="M1464.238,570.921a19.131,19.131,0,1,0-19.13-19.131A19.153,19.153,0,0,0,1464.238,570.921Zm0-37.018a17.887,17.887,0,1,1-17.886,17.888A17.907,17.907,0,0,1,1464.238,533.9Z" transform="translate(-1445.108 -532.659)" fill="#e0ffff"/>
          </g>
          <ellipse id="Elipse_12191" data-name="Elipse 12191" cx="10.397" cy="10.397" rx="10.397" ry="10.397" transform="translate(268.265 205.72)" fill="#fff"/>
          <g id="Grupo_1165257" data-name="Grupo 1165257" transform="translate(211.121 162.952)">
            <path id="Trazado_1014594" data-name="Trazado 1014594" d="M1552.419,508.923a19.131,19.131,0,1,0-19.13-19.131A19.153,19.153,0,0,0,1552.419,508.923Zm0-37.018a17.887,17.887,0,1,1-17.886,17.888A17.908,17.908,0,0,1,1552.419,471.905Z" transform="translate(-1533.289 -470.661)" fill="#e0ffff"/>
          </g>
          <ellipse id="Elipse_12192" data-name="Elipse 12192" cx="9.783" cy="9.783" rx="9.783" ry="9.783" transform="translate(222.157 193.295) rotate(-98.94)" fill="#fff"/>
          <g id="Grupo_1165258" data-name="Grupo 1165258" transform="translate(291.699 162.136)">
            <path id="Trazado_1014595" data-name="Trazado 1014595" d="M1448.489,471.293l-1.4-2.119-7.559,6.626,1.158,1.615Z" transform="translate(-1439.338 -469.174)" fill="#fff"/>
            <path id="Trazado_1014596" data-name="Trazado 1014596" d="M1439.89,471.293l1.394-2.119,7.559,6.626-1.158,1.615Z" transform="translate(-1439.89 -469.174)" fill="#fff"/>
          </g>
          <rect id="Rectángulo_413374" data-name="Rectángulo 413374" width="67.704" height="3.394" transform="translate(94.161 163.575)" fill="#fff"/>
        </g>
        <g id="Grupo_1165260" data-name="Grupo 1165260" transform="translate(-37.259 96.707)" clip-path="url(#clip-path-4)">
          <path id="Trazado_1014597" data-name="Trazado 1014597" d="M1079.289,381.736v29.378l-35.137.3-.472-30.62Z" transform="translate(-561.145 -267.173)" fill="url(#linear-gradient-74)"/>
          <path id="Trazado_1014598" data-name="Trazado 1014598" d="M1109.985,380.794l-2.295,3.86,1.147,26.732,1.619.028Z" transform="translate(-627.449 -267.173)" fill="url(#linear-gradient-75)"/>
          <path id="Trazado_1014599" data-name="Trazado 1014599" d="M1075.9,396.7l-3.244-4.71L1055.11,406.72l2.69,3.59Z" transform="translate(-564.028 -272.224)" fill="#fff"/>
          <path id="Trazado_1014600" data-name="Trazado 1014600" d="M1055.93,396.7l3.25-4.71,17.544,14.727-2.69,3.59Z" transform="translate(-565.304 -272.224)" fill="#fff"/>
        </g>
        <g id="Grupo_1165263" data-name="Grupo 1165263" transform="translate(-37.259 96.707)" clip-path="url(#clip-path-4)">
          <path id="Trazado_1014601" data-name="Trazado 1014601" d="M964.492,915.225h120.243a9.847,9.847,0,0,0,9.845-9.623l2.245-98.625a9.847,9.847,0,0,0-9.845-10.072H961.789a9.848,9.848,0,0,0-9.844,10.118l2.7,98.625A9.852,9.852,0,0,0,964.492,915.225Z" transform="translate(-528.325 -454.866)" opacity="0.81" fill="url(#linear-gradient-76)"/>
          <g id="Grupo_1165261" data-name="Grupo 1165261" transform="translate(423.305 341.723)">
            <path id="Trazado_1014602" data-name="Trazado 1014602" d="M964.236,915.273h120.244a10.218,10.218,0,0,0,10.156-9.927l2.245-98.624a10.159,10.159,0,0,0-10.156-10.391H961.533a10.16,10.16,0,0,0-10.155,10.437l2.705,98.625A10.1,10.1,0,0,0,964.236,915.273Zm122.489-118.32a9.537,9.537,0,0,1,9.534,9.755l-2.245,98.624a9.591,9.591,0,0,1-9.534,9.32H964.237a9.487,9.487,0,0,1-9.533-9.275L952,806.752a9.538,9.538,0,0,1,9.533-9.8h125.192Z" transform="translate(-951.374 -796.331)" fill="#473da2"/>
          </g>
          <g id="Grupo_1165262" data-name="Grupo 1165262" transform="translate(472.853 362.208)">
            <rect id="Rectángulo_413377" data-name="Rectángulo 413377" width="63.237" height="2.707" transform="translate(0)" fill="#fff"/>
            <rect id="Rectángulo_413378" data-name="Rectángulo 413378" width="31.619" height="2.707" transform="translate(31.618 6.586)" fill="#fff"/>
            <rect id="Rectángulo_413379" data-name="Rectángulo 413379" width="31.619" height="2.707" transform="translate(31.618 12.084)" fill="#fff"/>
            <rect id="Rectángulo_413380" data-name="Rectángulo 413380" width="25.156" height="2.707" transform="translate(2.916 12.084)" fill="#fff"/>
            <rect id="Rectángulo_413381" data-name="Rectángulo 413381" width="50.974" height="2.707" transform="translate(12.262 17.582)" fill="#fff"/>
            <rect id="Rectángulo_413382" data-name="Rectángulo 413382" width="18.143" height="2.707" transform="translate(45.093 23.08)" fill="#fff"/>
            <rect id="Rectángulo_413383" data-name="Rectángulo 413383" width="31.378" height="2.707" transform="translate(9.983 39.574)" fill="#fff"/>
            <rect id="Rectángulo_413384" data-name="Rectángulo 413384" width="56.865" height="2.707" transform="translate(6.371 28.577)" fill="#fff"/>
            <rect id="Rectángulo_413385" data-name="Rectángulo 413385" width="43.748" height="2.707" transform="translate(19.488 34.076)" fill="#fff"/>
            <rect id="Rectángulo_413386" data-name="Rectángulo 413386" width="20.578" height="2.707" transform="translate(42.658 39.574)" fill="#fff"/>
            <rect id="Rectángulo_413387" data-name="Rectángulo 413387" width="31.619" height="2.707" transform="translate(31.618 45.072)" fill="#fff"/>
            <rect id="Rectángulo_413388" data-name="Rectángulo 413388" width="9.072" height="2.707" transform="translate(54.165 50.57)" fill="#fff"/>
            <rect id="Rectángulo_413389" data-name="Rectángulo 413389" width="32.91" height="2.707" transform="translate(17.526 50.57)" fill="#fff"/>
            <rect id="Rectángulo_413390" data-name="Rectángulo 413390" width="31.378" height="2.707" transform="translate(9.983 55.906)" fill="#fff"/>
            <rect id="Rectángulo_413391" data-name="Rectángulo 413391" width="20.578" height="2.707" transform="translate(42.658 55.906)" fill="#fff"/>
            <rect id="Rectángulo_413392" data-name="Rectángulo 413392" width="31.619" height="2.707" transform="translate(31.618 61.403)" fill="#fff"/>
            <rect id="Rectángulo_413393" data-name="Rectángulo 413393" width="9.072" height="2.707" transform="translate(54.165 66.901)" fill="#fff"/>
            <rect id="Rectángulo_413394" data-name="Rectángulo 413394" width="32.91" height="2.707" transform="translate(17.526 66.901)" fill="#fff"/>
          </g>
        </g>
        <g id="Grupo_1165264" data-name="Grupo 1165264" transform="translate(-37.259 96.707)" clip-path="url(#clip-path-4)">
          <path id="Trazado_1014603" data-name="Trazado 1014603" d="M1760.542,415.815a5.557,5.557,0,1,0,5.557-5.557A5.557,5.557,0,0,0,1760.542,415.815Z" transform="translate(-1647.021 -280.463)" fill="url(#linear-gradient-77)"/>
        </g>
        <g id="Grupo_1165265" data-name="Grupo 1165265" transform="translate(-37.259 96.707)" clip-path="url(#clip-path-4)">
          <path id="Trazado_1014604" data-name="Trazado 1014604" d="M806.581,649.487a6.917,6.917,0,1,0,6.916-6.917A6.916,6.916,0,0,0,806.581,649.487Z" transform="translate(-668.83 -174.525)" fill="url(#linear-gradient-78)"/>
        </g>
        <g id="Grupo_1165266" data-name="Grupo 1165266" transform="translate(-37.259 96.707)" clip-path="url(#clip-path-13)">
          <ellipse id="Elipse_12193" data-name="Elipse 12193" cx="5.557" cy="5.557" rx="5.557" ry="5.557" transform="translate(97.199 129.795)" fill="url(#linear-gradient-79)"/>
        </g>
        <g id="Grupo_1165267" data-name="Grupo 1165267" transform="translate(-37.259 96.707)" clip-path="url(#clip-path-13)">
          <ellipse id="Elipse_12194" data-name="Elipse 12194" cx="3.929" cy="3.929" rx="3.929" ry="3.929" transform="translate(457.192 169.634)" fill="url(#linear-gradient-80)"/>
        </g>
        <g id="Grupo_1165268" data-name="Grupo 1165268" transform="translate(-37.259 96.707)" clip-path="url(#clip-path-4)">
          <ellipse id="Elipse_12195" data-name="Elipse 12195" cx="3.929" cy="3.929" rx="3.929" ry="3.929" transform="translate(193.979 343.039)" fill="url(#linear-gradient-81)"/>
        </g>
        <g id="Grupo_1165269" data-name="Grupo 1165269" transform="translate(-37.259 96.707)" clip-path="url(#clip-path-4)">
          <ellipse id="Elipse_12196" data-name="Elipse 12196" cx="3.513" cy="3.513" rx="3.513" ry="3.513" transform="translate(298.003 433.809)" fill="url(#linear-gradient-82)"/>
        </g>
        <g id="Grupo_1165274" data-name="Grupo 1165274" transform="translate(-37.259 96.707)" clip-path="url(#clip-path-4)">
          <path id="Trazado_1014605" data-name="Trazado 1014605" d="M872.666,766.737h60.686a9.058,9.058,0,0,0,9.052-8.752l1.348-39.915a9.057,9.057,0,0,0-9.052-9.363H871.445a9.057,9.057,0,0,0-9.053,9.334l1.22,39.915A9.058,9.058,0,0,0,872.666,766.737Z" transform="translate(-349.175 -415.084)" opacity="0.73" fill="url(#linear-gradient-83)"/>
          <g id="Grupo_1165270" data-name="Grupo 1165270" transform="translate(512.901 293.312)">
            <path id="Trazado_1014606" data-name="Trazado 1014606" d="M872.411,766.792H933.1a9.332,9.332,0,0,0,9.363-9.052l1.348-39.914a9.37,9.37,0,0,0-9.364-9.685H871.191a9.369,9.369,0,0,0-9.364,9.655l1.22,39.915A9.327,9.327,0,0,0,872.411,766.792Zm62.034-58.03a8.746,8.746,0,0,1,8.741,9.042l-1.348,39.914a8.712,8.712,0,0,1-8.742,8.452H872.41a8.707,8.707,0,0,1-8.742-8.479l-1.22-39.915a8.748,8.748,0,0,1,8.742-9.014h63.255Z" transform="translate(-861.822 -708.14)" fill="#953da2"/>
          </g>
          <g id="Grupo_1165271" data-name="Grupo 1165271" transform="translate(567.722 307.965)">
            <path id="Trazado_1014607" data-name="Trazado 1014607" d="M883.836,734.832,898.8,752.176,883.561,765.11v-6.676l8.815-7.631-8.186-9.256Z" transform="translate(-883.561 -734.832)" fill="#fff"/>
          </g>
          <g id="Grupo_1165272" data-name="Grupo 1165272" transform="translate(526.734 308.743)">
            <path id="Trazado_1014608" data-name="Trazado 1014608" d="M971.382,736.25l-14.962,17.344,15.237,12.935v-6.676l-8.815-7.631,9.809-10.38Z" transform="translate(-956.419 -736.25)" fill="#fff"/>
          </g>
          <g id="Grupo_1165273" data-name="Grupo 1165273" transform="translate(545.573 309.522)">
            <path id="Trazado_1014609" data-name="Trazado 1014609" d="M935.92,766.39l-13.038-28.721h-6.126l14.766,28.721Z" transform="translate(-916.756 -737.669)" fill="#fff"/>
          </g>
        </g>
        <g id="Grupo_1165276" data-name="Grupo 1165276" transform="translate(-37.259 96.707)" clip-path="url(#clip-path-4)">
          <path id="Trazado_1014610" data-name="Trazado 1014610" d="M1586.562,904.4h75.918a11.33,11.33,0,0,0,11.324-10.948l1.687-49.932a11.331,11.331,0,0,0-11.325-11.713h-79.13a11.331,11.331,0,0,0-11.325,11.677l1.526,49.933A11.332,11.332,0,0,0,1586.562,904.4Z" transform="translate(-1448.302 -470.611)" opacity="0.73" fill="url(#linear-gradient-83)"/>
          <g id="Grupo_1165275" data-name="Grupo 1165275" transform="translate(125.093 360.888)">
            <path id="Trazado_1014611" data-name="Trazado 1014611" d="M1586.309,904.46h75.918a11.6,11.6,0,0,0,11.635-11.248l1.686-49.932a11.642,11.642,0,0,0-11.634-12.035h-79.13a11.643,11.643,0,0,0-11.637,12l1.527,49.932A11.591,11.591,0,0,0,1586.309,904.46Zm77.608-72.594a11.019,11.019,0,0,1,11.012,11.391l-1.686,49.932a10.974,10.974,0,0,1-11.013,10.648h-75.918a10.97,10.97,0,0,1-11.015-10.683l-1.527-49.932a11.021,11.021,0,0,1,11.015-11.356Z" transform="translate(-1573.141 -831.244)" fill="#953da2"/>
          </g>
          <rect id="Rectángulo_413403" data-name="Rectángulo 413403" width="69.531" height="41.295" transform="translate(142.446 369.237)" fill="#d1d4fb"/>
          <path id="Trazado_1014612" data-name="Trazado 1014612" d="M1671.313,865.121v20.8L1653.55,874.57Z" transform="translate(-1487.947 -485.636)" fill="#fff"/>
          <rect id="Rectángulo_413404" data-name="Rectángulo 413404" width="69.531" height="3.776" transform="translate(142.446 418.144)" fill="#d1d4fb"/>
          <rect id="Rectángulo_413405" data-name="Rectángulo 413405" width="18" height="3.776" transform="translate(193.977 418.144)" fill="#fff"/>
        </g>
        <g id="Grupo_1165279" data-name="Grupo 1165279" transform="translate(-37.259 96.707)" clip-path="url(#clip-path-4)">
          <g id="Grupo_1165277" data-name="Grupo 1165277" transform="translate(248.01 340.574)">
            <path id="Trazado_1014613" data-name="Trazado 1014613" d="M1483.156,809.848l3.627,10.382C1484.78,814.493,1481.893,810.769,1483.156,809.848Zm3.623,10.382,3.637,10.38C1489.5,830.337,1488.793,825.966,1486.778,820.23Zm-3.623-10.382,3.627,10.382C1484.78,814.493,1481.893,810.769,1483.156,809.848Zm3.623,10.382,3.637,10.38C1489.5,830.337,1488.793,825.966,1486.778,820.23Zm-10.474,8.994-3.525,2-3.8-10.386,4.077-.682c-.072-.386-.145-.771-.2-1.153a26.748,26.748,0,0,1-.344-5.176l-4.265-2.676L1470.19,802l4.087,3.909a11.837,11.837,0,0,1,2.09-3.047,8.128,8.128,0,0,1,.708-.689l-2.5-5.771,6.65-2.165h0l1.6,5.816a11.076,11.076,0,0,1,4.5,1.053l.734-5.5,7.322,5.542-1.691,4.872a27.718,27.718,0,0,1,3.572,5.2l3.528-1.989,3.8,10.386-4.078.682a28.222,28.222,0,0,1,.54,6.329l4.265,2.676-1.943,9.149-4.087-3.909a11.475,11.475,0,0,1-2.8,3.726l2.5,5.78-6.546,2.553-1.013-3.687-.688-2.517a11.11,11.11,0,0,1-4.513-1.051l-.723,5.495-7.323-5.542,1.692-4.872a27.068,27.068,0,0,1-2.881-3.984C1476.755,830.048,1476.535,829.641,1476.3,829.224Zm10.474-8.994c2.012,5.735,0,11.651,3.637,10.38s4.974-6.962,2.965-12.687-6.59-9.346-10.228-8.075S1484.78,814.493,1486.778,820.23Zm-3.623-10.382,3.627,10.382C1484.78,814.493,1481.893,810.769,1483.156,809.848Zm3.623,10.382,3.637,10.38C1489.5,830.337,1488.793,825.966,1486.778,820.23Z" transform="translate(-1468.247 -794.237)" fill-rule="evenodd" fill="url(#linear-gradient-85)"/>
          </g>
          <path id="Trazado_1014614" data-name="Trazado 1014614" d="M1458.69,828.392l-3.8-10.386,3.881-1.835.627-.294-.408-5.72-4.308-2.1,1.422-8.884,9.384-3.055-1.729,4.123-3.271-6.665,6.65-2.165,2.732-.891,6.556-2.555,1.225,4.472,5.7-2.71,7.322,5.542-2.222,5.992,6.847,18.983,3.382,12.329-6.5.711,2.116,4.886-6.556,2.555-9.382,3.056,1.506-3.014.949-1.8-3.468,1.131-5.924,1.928-7.323-5.542,4.529-5.335-5.718-3.521Zm20.6-13.3c-2.012-5.735-6.59-9.346-10.228-8.075l3.627,10.383,3.636,10.38C1479.973,826.5,1481.3,820.817,1479.292,815.092Z" transform="translate(-1206.147 -450.832)" fill-rule="evenodd" fill="url(#linear-gradient-86)"/>
          <g id="Grupo_1165278" data-name="Grupo 1165278" transform="translate(257.393 337.129)">
            <path id="Trazado_1014615" data-name="Trazado 1014615" d="M1455.678,825.33l-3.8-10.387,4.079-.682a28.514,28.514,0,0,1-.543-6.321l-4.265-2.676,1.944-9.15,4.089,3.906a11.424,11.424,0,0,1,2.8-3.732l-2.5-5.774,6.553-2.554,1.7,6.2a11.133,11.133,0,0,1,4.506,1.051l.726-5.492,7.322,5.539-1.686,4.872a28.174,28.174,0,0,1,3.573,5.208l3.529-1.991,3.8,10.387-4.08.682a28.475,28.475,0,0,1,.543,6.321l4.265,2.675-1.944,9.15-4.089-3.906a11.423,11.423,0,0,1-2.8,3.732l2.5,5.774-6.553,2.554-1.7-6.2a11.136,11.136,0,0,1-4.506-1.051l-.726,5.491-7.322-5.539,1.686-4.872a28.155,28.155,0,0,1-3.573-5.208Zm17.643-.611c3.643-1.276,4.968-6.957,2.96-12.689s-6.589-9.344-10.231-8.069-4.968,6.957-2.96,12.689S1469.681,825.994,1473.32,824.718Z" transform="translate(-1451.146 -787.961)" fill-rule="evenodd" fill="url(#linear-gradient-87)"/>
          </g>
          <path id="Trazado_1014616" data-name="Trazado 1014616" d="M1510.92,822.536l9.387-3.054,4.265,2.675-9.387,3.055Z" transform="translate(-1262.911 -465.05)" fill="#601734" fill-rule="evenodd" opacity="0.5"/>
          <path id="Trazado_1014617" data-name="Trazado 1014617" d="M1497.5,869.825l9.392-3.058,1.685-4.872-9.381,3.057Z" transform="translate(-1239.55 -484.182)" fill="#b3d9ff" fill-rule="evenodd"/>
          <path id="Trazado_1014618" data-name="Trazado 1014618" d="M1514.495,798.387l-5.143,1.489-1.74-1.663-3.42,1.112-1.581-3.654,9.382-3.057Z" transform="translate(-1248.272 -452.931)" fill="#601734" fill-rule="evenodd" opacity="0.5"/>
          <path id="Trazado_1014619" data-name="Trazado 1014619" d="M1482.616,871.909l-4.916,2.046.409-3.1S1480.755,872.254,1482.616,871.909Z" transform="translate(-1202.719 -488.224)" fill="#601734" fill-rule="evenodd" opacity="0.5"/>
          <path id="Trazado_1014620" data-name="Trazado 1014620" d="M1489.484,819.345l-8.275,4.376a12.857,12.857,0,0,0-2.128-2.254S1481.233,812.342,1489.484,819.345Z" transform="translate(-1210.344 -463.796)" fill="#601734" fill-rule="evenodd" opacity="0.5"/>
        </g>
        <g id="Grupo_1165280" data-name="Grupo 1165280" transform="translate(-37.259 96.707)" clip-path="url(#clip-path-4)">
          <path id="Trazado_1014621" data-name="Trazado 1014621" d="M1132.242,257.546l-7.982,15.98,5.33,2.424,7.46-14.679Z" transform="translate(-663.139 -184.486)" fill="#ff1d9c"/>
        </g>
        <g id="Grupo_1165281" data-name="Grupo 1165281" transform="translate(-37.259 96.707)" clip-path="url(#clip-path-4)">
          <path id="Trazado_1014622" data-name="Trazado 1014622" d="M816.058,933.3l-7.383,8.1-2.9-3.344,6.97-7.673Z" transform="translate(-564.69 -456.875)" fill="#6877ff"/>
        </g>
        <g id="Grupo_1165282" data-name="Grupo 1165282" transform="translate(-37.259 96.707)" clip-path="url(#clip-path-4)">
          <path id="Trazado_1014623" data-name="Trazado 1014623" d="M1470.47,430.335l7.432,4.513,2.981-5.651-8.129-4.748Z" transform="translate(-1197.018 -286.864)" fill="#4f31e0"/>
        </g>
        <g id="Grupo_1165283" data-name="Grupo 1165283" transform="translate(-37.259 96.707)" clip-path="url(#clip-path-4)">
          <path id="Trazado_1014624" data-name="Trazado 1014624" d="M1531.3,952.2l10.661,7.568,2.98-5.651-10.347-6.042Z" transform="translate(-1294.467 -523.054)" fill="#4f31e0"/>
        </g>
        <g id="Grupo_1165284" data-name="Grupo 1165284" transform="translate(-37.259 96.707)" clip-path="url(#clip-path-4)">
          <path id="Trazado_1014625" data-name="Trazado 1014625" d="M1580.225,330.387l1.8-41.857H1527.22l2.251,41.738Z" transform="translate(-1329.312 -225.555)" fill-rule="evenodd" fill="url(#linear-gradient-88)"/>
          <path id="Trazado_1014626" data-name="Trazado 1014626" d="M1526.03,288.53l1.641,2.469-1.641,39.388h-1.8Z" transform="translate(-1273.317 -225.555)" fill-rule="evenodd" fill="url(#linear-gradient-89)"/>
          <path id="Trazado_1014627" data-name="Trazado 1014627" d="M1544.7,303l8.6-.922-1.181,28.682-7.421-.729V327.06l4.3.1.494-22.117-4.792.136Z" transform="translate(-1310.184 -231.665)" fill="#fff"/>
          <path id="Trazado_1014628" data-name="Trazado 1014628" d="M1601.062,303l-8.6-.922,1.18,28.682,7.422-.729V327.06l-4.3.1-.494-22.117,4.792.136Z" transform="translate(-1384.161 -231.665)" fill="#fff"/>
        </g>
        <g id="Grupo_1165285" data-name="Grupo 1165285" transform="translate(-37.259 96.707)" clip-path="url(#clip-path-4)">
          <path id="Trazado_1014629" data-name="Trazado 1014629" d="M777.458,508.261l-1.228-28.534h37.362l-1.536,28.453Z" transform="translate(-226.905 -421.175)" fill-rule="evenodd" fill="url(#linear-gradient-90)"/>
          <path id="Trazado_1014630" data-name="Trazado 1014630" d="M843.176,479.727l-1.119,1.682,1.119,26.852H844.4Z" transform="translate(-300.875 -315.812)" fill-rule="evenodd" fill="url(#linear-gradient-91)"/>
          <path id="Trazado_1014631" data-name="Trazado 1014631" d="M823.607,490.155s-4.1-.157-4.819.176.187,7.008.187,7.008l-1.633,1.5,1.526,1.48s-.08,6.766.883,7.328,4.257,0,4.257,0v-1.687s-2.691.169-3.132-.193-.4-6.273-.4-6.273l-.723-.79.723-.857s-.134-4.214-.053-5.37c.053-.77,3.185-.81,3.185-.81v-1.512Z" transform="translate(-259.889 -425.862)" fill="#fff"/>
          <path id="Trazado_1014632" data-name="Trazado 1014632" d="M789.967,490.155s4.1-.157,4.819.176-.187,7.008-.187,7.008l1.633,1.5-1.526,1.48s.08,6.766-.883,7.328-4.257,0-4.257,0v-1.687s2.691.169,3.132-.193.4-6.273.4-6.273l.723-.79-.723-.857s.134-4.214.053-5.37c-.053-.77-3.186-.81-3.186-.81Z" transform="translate(-216.866 -425.862)" fill="#fff"/>
        </g>
        <g id="Grupo_1165295" data-name="Grupo 1165295" transform="translate(-37.259 96.707)" clip-path="url(#clip-path-4)">
          <g id="Grupo_1165286" data-name="Grupo 1165286" transform="translate(298.975 84.643)">
            <path id="Trazado_1014633" data-name="Trazado 1014633" d="M1414.279,351.964,1423.434,328l-23.743,4.959Zm8.174-23.12L1414.1,350.7l-13.308-17.335Z" transform="translate(-1399.691 -328.003)" fill="#744ca2"/>
          </g>
          <g id="Grupo_1165287" data-name="Grupo 1165287" transform="translate(239.913 437.029)">
            <rect id="Rectángulo_413414" data-name="Rectángulo 413414" width="13.602" height="0.62" transform="matrix(-0.591, -0.807, 0.807, -0.591, 8.042, 11.337)" fill="#744ca2"/>
          </g>
          <g id="Grupo_1165288" data-name="Grupo 1165288" transform="translate(322.955 336.022)">
            <path id="Trazado_1014634" data-name="Trazado 1014634" d="M1383.129,797.084l8.635-10.75-.483-.389-8.64,10.751Z" transform="translate(-1382.64 -785.945)" fill="#744ca2"/>
          </g>
          <g id="Grupo_1165289" data-name="Grupo 1165289" transform="translate(56.78 444.845)">
            <path id="Trazado_1014635" data-name="Trazado 1014635" d="M881.766,933.107,899.009,920.6l-.365-.5L881.4,932.6Z" transform="translate(-881.4 -920.096)" fill="#744ca2"/>
          </g>
          <g id="Grupo_1165290" data-name="Grupo 1165290" transform="translate(58.862 442.698)">
            <rect id="Rectángulo_413415" data-name="Rectángulo 413415" width="21.303" height="0.621" transform="translate(12.909 17.323) rotate(-127.3)" fill="#744ca2"/>
          </g>
          <g id="Grupo_1165291" data-name="Grupo 1165291" transform="translate(304.467 390.368)">
            <rect id="Rectángulo_413416" data-name="Rectángulo 413416" width="0.621" height="12.608" transform="matrix(-0.465, -0.885, 0.885, -0.465, 0.289, 6.414)" fill="#744ca2"/>
          </g>
          <g id="Grupo_1165292" data-name="Grupo 1165292" transform="translate(176.066 73.634)">
            <path id="Trazado_1014636" data-name="Trazado 1014636" d="M1655.4,323.069l.467-.41-12.9-14.711-.466.411Z" transform="translate(-1642.5 -307.948)" fill="#744ca2"/>
          </g>
          <g id="Grupo_1165293" data-name="Grupo 1165293" transform="translate(433.76 124.331)">
            <rect id="Rectángulo_413417" data-name="Rectángulo 413417" width="0.621" height="12.941" transform="translate(0.556 11.863) rotate(-153.55)" fill="#744ca2"/>
          </g>
          <g id="Grupo_1165294" data-name="Grupo 1165294" transform="translate(516.09 319.365)">
            <rect id="Rectángulo_413418" data-name="Rectángulo 413418" width="19.328" height="0.621" transform="matrix(-0.767, -0.642, 0.642, -0.767, 14.825, 12.878)" fill="#744ca2"/>
          </g>
        </g>
      </g>
    </g>
  </g>
</svg>
