<svg xmlns="http://www.w3.org/2000/svg" xmlns:xlink="http://www.w3.org/1999/xlink" width="103" height="103" viewBox="0 0 103 103">
  <defs>
    <filter id="Trazado_982547" x="0" y="0" width="103" height="103" filterUnits="userSpaceOnUse">
      <feOffset dy="3" input="SourceAlpha"/>
      <feGaussianBlur stdDeviation="3" result="blur"/>
      <feFlood flood-opacity="0.161"/>
      <feComposite operator="in" in2="blur"/>
      <feComposite in="SourceGraphic"/>
    </filter>
  </defs>
  <g id="Grupo_1224640" data-name="Grupo 1224640" transform="translate(-611 -4543.5)">
    <g id="Grupo_1210960" data-name="Grupo 1210960" transform="translate(420 3351.888)">
      <g id="Grupo_1210290" data-name="Grupo 1210290" transform="translate(0 -2868)">
        <g id="Grupo_1207485" data-name="Grupo 1207485" transform="translate(0 396.112)">
          <g id="Grupo_1207313" data-name="Grupo 1207313" transform="translate(0 2919.5)">
            <g id="Grupo_1202212" data-name="Grupo 1202212" transform="translate(-80 -126.414)">
              <g id="Grupo_1174813" data-name="Grupo 1174813" transform="translate(280 876.414)">
                <g id="Grupo_1201680" data-name="Grupo 1201680">
                  <g id="Grupo_1201330" data-name="Grupo 1201330">
                    <g id="Grupo_1172010" data-name="Grupo 1172010">
                      <g id="Grupo_1171046" data-name="Grupo 1171046">
                        <g id="Grupo_1148525" data-name="Grupo 1148525">
                          <g transform="matrix(1, 0, 0, 1, -9, -6)" filter="url(#Trazado_982547)">
                            <g id="Trazado_982547-2" data-name="Trazado 982547" transform="translate(9 6)" fill="#f6ecfe">
                              <path d="M 42.5 83.5 C 36.96437835693359 83.5 31.59512901306152 82.41617584228516 26.54141235351562 80.27863311767578 C 21.65934181213379 78.21369171142578 17.27447128295898 75.25723266601562 13.50862312316895 71.49137878417969 C 9.742764472961426 67.72553253173828 6.786305904388428 63.34066009521484 4.721364498138428 58.45858764648438 C 2.583823442459106 53.40486907958984 1.5 48.03562164306641 1.5 42.5 C 1.5 36.96437835693359 2.583823442459106 31.59512901306152 4.721364498138428 26.54141235351562 C 6.786305904388428 21.65934181213379 9.742764472961426 17.27448272705078 13.50862312316895 13.50862312316895 C 17.27447128295898 9.742776870727539 21.65934181213379 6.786305904388428 26.54141235351562 4.721364498138428 C 31.59512901306152 2.583823442459106 36.96437835693359 1.5 42.5 1.5 C 48.03562164306641 1.5 53.40486907958984 2.583823442459106 58.45858764648438 4.721364498138428 C 63.34066009521484 6.786305904388428 67.72553253173828 9.742776870727539 71.49137878417969 13.50862312316895 C 75.25723266601562 17.27448272705078 78.21369171142578 21.65934181213379 80.27863311767578 26.54141235351562 C 82.41617584228516 31.59512901306152 83.5 36.96437835693359 83.5 42.5 C 83.5 48.03562164306641 82.41617584228516 53.40486907958984 80.27863311767578 58.45858764648438 C 78.21369171142578 63.34066009521484 75.25723266601562 67.72553253173828 71.49137878417969 71.49137878417969 C 67.72553253173828 75.25723266601562 63.34066009521484 78.21369171142578 58.45858764648438 80.27863311767578 C 53.40486907958984 82.41617584228516 48.03562164306641 83.5 42.5 83.5 Z" stroke="none"/>
                              <path d="M 42.5 3 C 37.16621398925781 3 31.99356079101562 4.043960571289062 27.125732421875 6.102882385253906 C 22.42246627807617 8.092185974121094 18.19785308837891 10.94070434570312 14.56928253173828 14.56928253173828 C 10.94070434570312 18.19785308837891 8.092185974121094 22.42246627807617 6.102882385253906 27.125732421875 C 4.043960571289062 31.99356079101562 3 37.16621398925781 3 42.5 C 3 47.83378601074219 4.043960571289062 53.00643920898438 6.102882385253906 57.874267578125 C 8.092185974121094 62.57753372192383 10.94070434570312 66.80214691162109 14.56928253173828 70.43071746826172 C 18.19785308837891 74.05929565429688 22.42246627807617 76.90781402587891 27.125732421875 78.89711761474609 C 31.99356079101562 80.95603942871094 37.16621398925781 82 42.5 82 C 47.83378601074219 82 53.00643920898438 80.95603942871094 57.874267578125 78.89711761474609 C 62.57753372192383 76.90781402587891 66.80214691162109 74.05929565429688 70.43071746826172 70.43071746826172 C 74.05929565429688 66.80214691162109 76.90781402587891 62.57753372192383 78.89711761474609 57.874267578125 C 80.95603942871094 53.00643920898438 82 47.83378601074219 82 42.5 C 82 37.16621398925781 80.95603942871094 31.99356079101562 78.89711761474609 27.125732421875 C 76.90781402587891 22.42246627807617 74.05929565429688 18.19785308837891 70.43071746826172 14.56928253173828 C 66.80214691162109 10.94070434570312 62.57753372192383 8.092185974121094 57.874267578125 6.102882385253906 C 53.00643920898438 4.043960571289062 47.83378601074219 3 42.5 3 M 42.5 0 C 65.97210693359375 0 85 19.02789306640625 85 42.5 C 85 65.97210693359375 65.97210693359375 85 42.5 85 C 19.02789306640625 85 0 65.97210693359375 0 42.5 C 0 19.02789306640625 19.02789306640625 0 42.5 0 Z" stroke="none" fill="#aa52f9"/>
                            </g>
                          </g>
                        </g>
                      </g>
                    </g>
                  </g>
                </g>
              </g>
            </g>
          </g>
        </g>
      </g>
    </g>
    <g id="medal_1503443" transform="translate(634.748 4563.748)">
      <g id="Grupo_1224616" data-name="Grupo 1224616" transform="translate(16.824 16.824)">
        <circle id="Elipse_12834" data-name="Elipse 12834" cx="11" cy="11" r="11" transform="translate(0.428 0.428)" fill="#bf5043"/>
      </g>
      <g id="Grupo_1224617" data-name="Grupo 1224617" transform="translate(16.824 16.906)">
        <ellipse id="Elipse_12835" data-name="Elipse 12835" cx="10.11" cy="11.347" rx="10.11" ry="11.347" fill="#ff6a59"/>
      </g>
      <g id="Grupo_1224618" data-name="Grupo 1224618" transform="translate(38.802 47.593)">
        <path id="Trazado_1051434" data-name="Trazado 1051434" d="M44,57.516h0A5.56,5.56,0,0,0,47.516,54h0a5.56,5.56,0,0,0,3.516,3.516h0a5.56,5.56,0,0,0-3.516,3.516h0A5.56,5.56,0,0,0,44,57.516Z" transform="translate(-44 -54)" fill="#fff284"/>
      </g>
      <g id="Grupo_1224619" data-name="Grupo 1224619" transform="translate(47.593 24.736)">
        <path id="Trazado_1051435" data-name="Trazado 1051435" d="M54,31.516h0A5.56,5.56,0,0,0,57.516,28h0a5.56,5.56,0,0,0,3.516,3.516h0a5.56,5.56,0,0,0-3.516,3.516h0A5.56,5.56,0,0,0,54,31.516Z" transform="translate(-54 -28)" fill="#fff284"/>
      </g>
      <g id="Grupo_1224620" data-name="Grupo 1224620" transform="translate(1.879 24.736)">
        <path id="Trazado_1051436" data-name="Trazado 1051436" d="M2,31.516H2A5.56,5.56,0,0,0,5.516,28h0a5.56,5.56,0,0,0,3.516,3.516h0a5.56,5.56,0,0,0-3.516,3.516h0A5.56,5.56,0,0,0,2,31.516Z" transform="translate(-2 -28)" fill="#fff284"/>
      </g>
      <g id="Grupo_1224621" data-name="Grupo 1224621" transform="translate(10.67 1.879)">
        <path id="Trazado_1051437" data-name="Trazado 1051437" d="M12,5.516h0A5.56,5.56,0,0,0,15.516,2h0a5.56,5.56,0,0,0,3.516,3.516h0a5.56,5.56,0,0,0-3.516,3.516h0A5.56,5.56,0,0,0,12,5.516Z" transform="translate(-12 -2)" fill="#fff284"/>
      </g>
      <g id="Grupo_1224622" data-name="Grupo 1224622" transform="translate(17.703 1.879)">
        <path id="Trazado_1051438" data-name="Trazado 1051438" d="M57.8,16.066H46.116a1.5,1.5,0,0,0-1.061.44l-2.637,2.637a1.5,1.5,0,0,0-.44,1.061V23.1a1.758,1.758,0,0,1-1.758,1.758h0A1.758,1.758,0,0,1,38.461,23.1V18.7l-2.637-2.637H21.758A1.758,1.758,0,0,1,20,14.308h0a1.758,1.758,0,0,1,1.758-1.758h5.275a1.758,1.758,0,0,1-1.758-1.758h0a1.758,1.758,0,0,1,1.758-1.758h1.758a1.758,1.758,0,0,1-1.758-1.758h0a1.758,1.758,0,0,1,1.758-1.758h1.758a1.758,1.758,0,0,1-1.758-1.758h0A1.758,1.758,0,0,1,30.549,2H41.356a1.5,1.5,0,0,1,1.061.44l2.637,2.637a1.5,1.5,0,0,0,1.061.44H57.8" transform="translate(-20 -2)" fill="#fdd089"/>
      </g>
      <g id="Grupo_1224623" data-name="Grupo 1224623" transform="translate(1 31.769)">
        <path id="Trazado_1051439" data-name="Trazado 1051439" d="M1,44.791H12.686a1.5,1.5,0,0,0,1.061-.44l2.637-2.637a1.5,1.5,0,0,0,.44-1.061V37.758A1.758,1.758,0,0,1,18.582,36h0a1.758,1.758,0,0,1,1.758,1.758v4.4l2.637,2.637H37.044A1.758,1.758,0,0,1,38.8,46.549h0a1.758,1.758,0,0,1-1.758,1.758H31.769a1.758,1.758,0,0,1,1.758,1.758h0a1.758,1.758,0,0,1-1.758,1.758H30.011a1.758,1.758,0,0,1,1.758,1.758h0a1.758,1.758,0,0,1-1.758,1.758H28.252A1.758,1.758,0,0,1,30.011,57.1h0a1.758,1.758,0,0,1-1.758,1.758H17.446a1.5,1.5,0,0,1-1.061-.44L13.747,55.78a1.5,1.5,0,0,0-1.061-.44H1" transform="translate(-1 -36)" fill="#fdd089"/>
      </g>
      <g id="Grupo_1224624" data-name="Grupo 1224624" transform="translate(25.615 1)">
        <path id="Trazado_1051440" data-name="Trazado 1051440" d="M58.89,6.275H47.2a2.361,2.361,0,0,1-1.683-.7L42.884,2.94a.616.616,0,0,0-.44-.182H31.637a.879.879,0,0,0,0,1.758h5.275V6.275H31.637a2.637,2.637,0,0,1,0-5.275H42.444a2.361,2.361,0,0,1,1.683.7l2.637,2.637a.616.616,0,0,0,.44.182H58.89Z" transform="translate(-29 -1)"/>
      </g>
      <g id="Grupo_1224625" data-name="Grupo 1224625" transform="translate(23.857 4.516)">
        <path id="Trazado_1051441" data-name="Trazado 1051441" d="M36.67,10.275H29.637a2.637,2.637,0,1,1,0-5.275H36.67V6.758H29.637a.879.879,0,0,0,0,1.758H36.67Z" transform="translate(-27 -5)"/>
      </g>
      <g id="Grupo_1224626" data-name="Grupo 1224626" transform="translate(22.099 8.033)">
        <path id="Trazado_1051442" data-name="Trazado 1051442" d="M36.428,14.275H27.637a2.637,2.637,0,0,1,0-5.275h8.791v1.758H27.637a.879.879,0,1,0,0,1.758h8.791Z" transform="translate(-25 -9)"/>
      </g>
      <g id="Grupo_1224627" data-name="Grupo 1224627" transform="translate(16.824 11.549)">
        <path id="Trazado_1051443" data-name="Trazado 1051443" d="M40.1,27.066a2.641,2.641,0,0,1-2.637-2.637V20.4l-2.122-2.122h-13.7a2.637,2.637,0,0,1,0-5.275H35.7v1.758H21.637a.879.879,0,1,0,0,1.758H35.7a.877.877,0,0,1,.622.258l2.637,2.637a.875.875,0,0,1,.258.622v4.4a.879.879,0,0,0,1.758,0V21.534a2.366,2.366,0,0,1,.7-1.683l2.637-2.637a2.361,2.361,0,0,1,1.683-.7H57.681v1.758H45.995a.616.616,0,0,0-.44.182l-2.637,2.637a.622.622,0,0,0-.182.44v2.895A2.641,2.641,0,0,1,40.1,27.066Z" transform="translate(-19 -13)"/>
      </g>
      <g id="Grupo_1224628" data-name="Grupo 1224628" transform="translate(1 50.23)">
        <path id="Trazado_1051444" data-name="Trazado 1051444" d="M28.252,62.275H17.446a2.361,2.361,0,0,1-1.683-.7L13.126,58.94a.616.616,0,0,0-.44-.182H1V57H12.686a2.361,2.361,0,0,1,1.683.7l2.637,2.637a.616.616,0,0,0,.44.182H28.252a.879.879,0,1,0,0-1.758H22.978V57h5.275a2.637,2.637,0,1,1,0,5.275Z" transform="translate(-1 -57)"/>
      </g>
      <g id="Grupo_1224629" data-name="Grupo 1224629" transform="translate(22.978 46.714)">
        <path id="Trazado_1051445" data-name="Trazado 1051445" d="M33.033,58.275H26V56.516h7.033a.879.879,0,1,0,0-1.758H26V53h7.033a2.637,2.637,0,0,1,0,5.275Z" transform="translate(-26 -53)"/>
      </g>
      <g id="Grupo_1224630" data-name="Grupo 1224630" transform="translate(22.978 43.197)">
        <path id="Trazado_1051446" data-name="Trazado 1051446" d="M34.791,54.275H26V52.516h8.791a.879.879,0,0,0,0-1.758H26V49h8.791a2.637,2.637,0,0,1,0,5.275Z" transform="translate(-26 -49)"/>
      </g>
      <g id="Grupo_1224631" data-name="Grupo 1224631" transform="translate(1 30.89)">
        <path id="Trazado_1051447" data-name="Trazado 1051447" d="M37.044,49.066H22.978V47.308H37.044a.879.879,0,1,0,0-1.758H22.978a.877.877,0,0,1-.622-.258l-2.637-2.637a.875.875,0,0,1-.258-.622v-4.4a.879.879,0,1,0-1.758,0v2.895a2.366,2.366,0,0,1-.7,1.683l-2.637,2.637a2.361,2.361,0,0,1-1.683.7H1V43.791H12.686a.616.616,0,0,0,.44-.182l2.637-2.637a.621.621,0,0,0,.182-.44V37.637a2.637,2.637,0,0,1,5.275,0v4.032l2.122,2.122h13.7a2.637,2.637,0,0,1,0,5.275Z" transform="translate(-1 -35)"/>
      </g>
      <g id="Grupo_1224632" data-name="Grupo 1224632" transform="translate(23.235 21.219)">
        <path id="Trazado_1051448" data-name="Trazado 1051448" d="M32.189,37.187H30.431V27L27.536,29.9l-1.243-1.243,4.4-4.4a.879.879,0,0,1,1.5.622Z" transform="translate(-26.293 -23.999)"/>
      </g>
      <g id="Grupo_1224633" data-name="Grupo 1224633" transform="translate(23.857 33.527)">
        <rect id="Rectángulo_422085" data-name="Rectángulo 422085" width="8" height="2" transform="translate(0.396 -0.275)"/>
      </g>
      <g id="Grupo_1224634" data-name="Grupo 1224634" transform="translate(33.932 27.306)">
        <path id="Trazado_1051449" data-name="Trazado 1051449" d="M39.409,42.242l-.948-1.48A10.514,10.514,0,0,0,43.33,31.87c0-.274-.011-.543-.031-.811l1.753-.135c.024.312.036.629.036.947A12.264,12.264,0,0,1,39.409,42.242Z" transform="translate(-38.461 -30.923)"/>
      </g>
      <g id="Grupo_1224635" data-name="Grupo 1224635" transform="translate(15.945 17.838)">
        <path id="Trazado_1051450" data-name="Trazado 1051450" d="M18.036,31.515c-.024-.312-.036-.629-.036-.947a12.257,12.257,0,0,1,5.745-10.414l.939,1.487a10.508,10.508,0,0,0-4.926,8.927c0,.274.011.543.031.811Z" transform="translate(-18 -20.154)"/>
      </g>
      <g id="Grupo_1224636" data-name="Grupo 1224636" transform="translate(37.923 46.714)">
        <path id="Trazado_1051451" data-name="Trazado 1051451" d="M47.4,61.791a.879.879,0,0,1-.834-.6A4.706,4.706,0,0,0,43.6,58.229a.878.878,0,0,1,0-1.667A4.706,4.706,0,0,0,46.562,53.6a.879.879,0,0,1,1.668,0,4.706,4.706,0,0,0,2.961,2.961.878.878,0,0,1,0,1.667,4.706,4.706,0,0,0-2.961,2.961A.877.877,0,0,1,47.4,61.791ZM45.81,57.4A6.517,6.517,0,0,1,47.4,58.981,6.533,6.533,0,0,1,48.981,57.4,6.517,6.517,0,0,1,47.4,55.81,6.533,6.533,0,0,1,45.81,57.4Z" transform="translate(-43 -53)"/>
      </g>
      <g id="Grupo_1224637" data-name="Grupo 1224637" transform="translate(46.714 23.857)">
        <path id="Trazado_1051452" data-name="Trazado 1051452" d="M57.4,35.791a.879.879,0,0,1-.834-.6A4.706,4.706,0,0,0,53.6,32.229a.878.878,0,0,1,0-1.667A4.706,4.706,0,0,0,56.562,27.6a.879.879,0,0,1,1.668,0,4.706,4.706,0,0,0,2.961,2.961.878.878,0,0,1,0,1.667,4.706,4.706,0,0,0-2.961,2.961A.877.877,0,0,1,57.4,35.791ZM55.81,31.4A6.517,6.517,0,0,1,57.4,32.981,6.533,6.533,0,0,1,58.981,31.4,6.517,6.517,0,0,1,57.4,29.81,6.533,6.533,0,0,1,55.81,31.4Z" transform="translate(-53 -27)"/>
      </g>
      <g id="Grupo_1224638" data-name="Grupo 1224638" transform="translate(1 23.857)">
        <path id="Trazado_1051453" data-name="Trazado 1051453" d="M5.4,35.791a.879.879,0,0,1-.834-.6A4.706,4.706,0,0,0,1.6,32.229a.878.878,0,0,1,0-1.667A4.706,4.706,0,0,0,4.562,27.6a.879.879,0,0,1,1.668,0,4.706,4.706,0,0,0,2.961,2.961.878.878,0,0,1,0,1.667A4.706,4.706,0,0,0,6.229,35.19.877.877,0,0,1,5.4,35.791ZM3.81,31.4A6.533,6.533,0,0,1,5.4,32.981,6.533,6.533,0,0,1,6.981,31.4,6.533,6.533,0,0,1,5.4,29.81,6.533,6.533,0,0,1,3.81,31.4Z" transform="translate(-1 -27)"/>
      </g>
      <g id="Grupo_1224639" data-name="Grupo 1224639" transform="translate(9.791 1)">
        <path id="Trazado_1051454" data-name="Trazado 1051454" d="M15.4,9.791a.879.879,0,0,1-.834-.6A4.706,4.706,0,0,0,11.6,6.229a.878.878,0,0,1,0-1.667A4.706,4.706,0,0,0,14.562,1.6a.879.879,0,0,1,1.668,0,4.706,4.706,0,0,0,2.961,2.961.878.878,0,0,1,0,1.667A4.706,4.706,0,0,0,16.229,9.19.877.877,0,0,1,15.4,9.791ZM13.81,5.4A6.533,6.533,0,0,1,15.4,6.981,6.533,6.533,0,0,1,16.981,5.4,6.533,6.533,0,0,1,15.4,3.81,6.533,6.533,0,0,1,13.81,5.4Z" transform="translate(-11 -1)"/>
      </g>
    </g>
  </g>
</svg>
