<svg xmlns="http://www.w3.org/2000/svg" xmlns:xlink="http://www.w3.org/1999/xlink" width="103" height="103" viewBox="0 0 103 103">
  <defs>
    <filter id="Trazado_982547" x="0" y="0" width="103" height="103" filterUnits="userSpaceOnUse">
      <feOffset dy="3" input="SourceAlpha"/>
      <feGaussianBlur stdDeviation="3" result="blur"/>
      <feFlood flood-opacity="0.161"/>
      <feComposite operator="in" in2="blur"/>
      <feComposite in="SourceGraphic"/>
    </filter>
    <clipPath id="clip-path">
      <path id="path9483" d="M0-682.665H60.068V-622.6H0Z" transform="translate(0 682.665)"/>
    </clipPath>
  </defs>
  <g id="Grupo_1224679" data-name="Grupo 1224679" transform="translate(-1035 -4543.5)">
    <g id="Grupo_1210961" data-name="Grupo 1210961" transform="translate(844 3351.888)">
      <g id="Grupo_1210290" data-name="Grupo 1210290" transform="translate(0 -2868)">
        <g id="Grupo_1207485" data-name="Grupo 1207485" transform="translate(0 396.112)">
          <g id="Grupo_1207313" data-name="Grupo 1207313" transform="translate(0 2919.5)">
            <g id="Grupo_1202212" data-name="Grupo 1202212" transform="translate(-80 -126.414)">
              <g id="Grupo_1174813" data-name="Grupo 1174813" transform="translate(280 876.414)">
                <g id="Grupo_1201680" data-name="Grupo 1201680">
                  <g id="Grupo_1201330" data-name="Grupo 1201330">
                    <g id="Grupo_1172010" data-name="Grupo 1172010">
                      <g id="Grupo_1171046" data-name="Grupo 1171046">
                        <g id="Grupo_1148525" data-name="Grupo 1148525">
                          <g transform="matrix(1, 0, 0, 1, -9, -6)" filter="url(#Trazado_982547)">
                            <g id="Trazado_982547-2" data-name="Trazado 982547" transform="translate(9 6)" fill="#f6ecfe">
                              <path d="M 42.5 83.5 C 36.96437835693359 83.5 31.59512901306152 82.41617584228516 26.54141235351562 80.27863311767578 C 21.65934181213379 78.21369171142578 17.27447128295898 75.25723266601562 13.50862312316895 71.49137878417969 C 9.742764472961426 67.72553253173828 6.786305904388428 63.34066009521484 4.721364498138428 58.45858764648438 C 2.583823442459106 53.40486907958984 1.5 48.03562164306641 1.5 42.5 C 1.5 36.96437835693359 2.583823442459106 31.59512901306152 4.721364498138428 26.54141235351562 C 6.786305904388428 21.65934181213379 9.742764472961426 17.27448272705078 13.50862312316895 13.50862312316895 C 17.27447128295898 9.742776870727539 21.65934181213379 6.786305904388428 26.54141235351562 4.721364498138428 C 31.59512901306152 2.583823442459106 36.96437835693359 1.5 42.5 1.5 C 48.03562164306641 1.5 53.40486907958984 2.583823442459106 58.45858764648438 4.721364498138428 C 63.34066009521484 6.786305904388428 67.72553253173828 9.742776870727539 71.49137878417969 13.50862312316895 C 75.25723266601562 17.27448272705078 78.21369171142578 21.65934181213379 80.27863311767578 26.54141235351562 C 82.41617584228516 31.59512901306152 83.5 36.96437835693359 83.5 42.5 C 83.5 48.03562164306641 82.41617584228516 53.40486907958984 80.27863311767578 58.45858764648438 C 78.21369171142578 63.34066009521484 75.25723266601562 67.72553253173828 71.49137878417969 71.49137878417969 C 67.72553253173828 75.25723266601562 63.34066009521484 78.21369171142578 58.45858764648438 80.27863311767578 C 53.40486907958984 82.41617584228516 48.03562164306641 83.5 42.5 83.5 Z" stroke="none"/>
                              <path d="M 42.5 3 C 37.16621398925781 3 31.99356079101562 4.043960571289062 27.125732421875 6.102882385253906 C 22.42246627807617 8.092185974121094 18.19785308837891 10.94070434570312 14.56928253173828 14.56928253173828 C 10.94070434570312 18.19785308837891 8.092185974121094 22.42246627807617 6.102882385253906 27.125732421875 C 4.043960571289062 31.99356079101562 3 37.16621398925781 3 42.5 C 3 47.83378601074219 4.043960571289062 53.00643920898438 6.102882385253906 57.874267578125 C 8.092185974121094 62.57753372192383 10.94070434570312 66.80214691162109 14.56928253173828 70.43071746826172 C 18.19785308837891 74.05929565429688 22.42246627807617 76.90781402587891 27.125732421875 78.89711761474609 C 31.99356079101562 80.95603942871094 37.16621398925781 82 42.5 82 C 47.83378601074219 82 53.00643920898438 80.95603942871094 57.874267578125 78.89711761474609 C 62.57753372192383 76.90781402587891 66.80214691162109 74.05929565429688 70.43071746826172 70.43071746826172 C 74.05929565429688 66.80214691162109 76.90781402587891 62.57753372192383 78.89711761474609 57.874267578125 C 80.95603942871094 53.00643920898438 82 47.83378601074219 82 42.5 C 82 37.16621398925781 80.95603942871094 31.99356079101562 78.89711761474609 27.125732421875 C 76.90781402587891 22.42246627807617 74.05929565429688 18.19785308837891 70.43071746826172 14.56928253173828 C 66.80214691162109 10.94070434570312 62.57753372192383 8.092185974121094 57.874267578125 6.102882385253906 C 53.00643920898438 4.043960571289062 47.83378601074219 3 42.5 3 M 42.5 0 C 65.97210693359375 0 85 19.02789306640625 85 42.5 C 85 65.97210693359375 65.97210693359375 85 42.5 85 C 19.02789306640625 85 0 65.97210693359375 0 42.5 C 0 19.02789306640625 19.02789306640625 0 42.5 0 Z" stroke="none" fill="#aa52f9"/>
                            </g>
                          </g>
                        </g>
                      </g>
                    </g>
                  </g>
                </g>
              </g>
            </g>
          </g>
        </g>
      </g>
    </g>
    <g id="g9477" transform="translate(1059.432 5246.597)">
      <g id="g9479" transform="translate(0 -682.665)">
        <g id="g9481" clip-path="url(#clip-path)">
          <g id="g9487" transform="translate(33.778 1.7)">
            <path id="path9489" d="M-251.031-125.515a12.11,12.11,0,0,1-12.11,12.11,12.11,12.11,0,0,1-12.11-12.11,12.11,12.11,0,0,1,12.11-12.11,12.11,12.11,0,0,1,12.11,12.11" transform="translate(275.25 137.625)" fill="#31a7fb"/>
          </g>
          <g id="g9491" transform="translate(33.778 6.731)">
            <path id="path9493" d="M-75.551-38.887l-.883,2.036a1.45,1.45,0,0,1-1.906.753l-2.589-1.124-1.7,3.916a12.071,12.071,0,0,1-.21-2.254,12.044,12.044,0,0,1,2.284-7.079l4.253,1.845a1.449,1.449,0,0,1,.752,1.906" transform="translate(82.84 42.639)" fill="#1c96f9"/>
          </g>
          <g id="g9495" transform="translate(43.536 1.7)">
            <path id="path9497" d="M-149.885-125.517A12.11,12.11,0,0,1-162-113.407a12.134,12.134,0,0,1-2.351-.229,12.113,12.113,0,0,0,9.76-11.881,12.113,12.113,0,0,0-9.76-11.881,12.133,12.133,0,0,1,2.351-.229,12.109,12.109,0,0,1,12.11,12.11" transform="translate(164.346 137.626)" fill="#1c96f9"/>
          </g>
          <g id="g9499" transform="translate(33.778 1.7)">
            <path id="path9501" d="M-251.031-125.515a12.11,12.11,0,0,1-12.11,12.11,12.11,12.11,0,0,1-12.11-12.11,12.11,12.11,0,0,1,12.11-12.11A12.11,12.11,0,0,1-251.031-125.515Z" transform="translate(275.25 137.625)" fill="none" stroke="#000" stroke-linecap="round" stroke-linejoin="round" stroke-miterlimit="10" stroke-width="1.2"/>
          </g>
          <g id="g9503" transform="translate(24.809 19.63)">
            <path id="path9505" d="M-352.685-88.558l-6.836-8.029a1.464,1.464,0,0,0-2.229,0l-6.836,8.029a1.463,1.463,0,0,0,1.114,2.412h3.693a22.787,22.787,0,0,1-6.7,15.323,22.791,22.791,0,0,1-15.57,6.713.678.678,0,0,0-.66.678v4.892a.681.681,0,0,0,.7.68A29,29,0,0,0-366.064-66.4a29,29,0,0,0,8.537-19.742h3.727a1.463,1.463,0,0,0,1.114-2.412" transform="translate(386.712 97.102)" fill="#35bcc7"/>
          </g>
          <g id="g9507" transform="translate(24.809 19.63)">
            <path id="path9509" d="M-341.141-113.56h-3.728a28.994,28.994,0,0,1-8.537,19.742,29,29,0,0,1-19.953,8.545.682.682,0,0,1-.7-.681v-2.542a29.834,29.834,0,0,0,15.938-5.323c5.842-4.27,9.461-11.742,9.819-18.965a.815.815,0,0,1,.813-.777h1.632a1.464,1.464,0,0,0,1.114-2.413l-5.6-6.573,1.24-1.456a1.465,1.465,0,0,1,2.229,0l6.836,8.029a1.463,1.463,0,0,1-1.114,2.412" transform="translate(374.054 124.516)" fill="#20abb9"/>
          </g>
          <g id="g9511" transform="translate(24.809 19.63)">
            <path id="path9513" d="M-152.884-286.439a22.763,22.763,0,0,1-14.091,5.357.678.678,0,0,0-.66.678v4.893a.681.681,0,0,0,.7.68,29,29,0,0,0,19.952-8.545,28.994,28.994,0,0,0,8.537-19.742h3.727a1.463,1.463,0,0,0,1.114-2.412l-6.837-8.029a1.463,1.463,0,0,0-2.229,0l-6.836,8.029a1.463,1.463,0,0,0,1.114,2.412h3.693a22.756,22.756,0,0,1-5.133,13.586" transform="translate(167.634 314.075)" fill="none" stroke="#000" stroke-linecap="round" stroke-linejoin="round" stroke-miterlimit="10" stroke-width="1.2"/>
          </g>
          <g id="g9515" transform="translate(29.632 5.945)">
            <path id="path9517" d="M-39.945-83.914-43.8-85.587l2.788-6.423,3.854,1.673Z" transform="translate(43.799 92.01)" fill="#fb9927"/>
          </g>
          <g id="g9519" transform="translate(29.632 5.945)">
            <path id="path9521" d="M-39.945-83.914-43.8-85.587l2.788-6.423,3.854,1.673Z" transform="translate(43.799 92.01)" fill="none" stroke="#000" stroke-linecap="round" stroke-linejoin="round" stroke-miterlimit="10" stroke-width="1.2"/>
          </g>
          <g id="g9523" transform="translate(4.496 9.546)">
            <path id="path9525" d="M-411.128-205.564a19.833,19.833,0,0,1-19.833,19.833,19.833,19.833,0,0,1-19.833-19.833A19.833,19.833,0,0,1-430.961-225.4a19.833,19.833,0,0,1,19.833,19.833" transform="translate(450.794 225.397)" fill="#fde265"/>
          </g>
          <g id="g9527" transform="translate(22.28 9.546)">
            <path id="path9529" d="M-226.791-205.576a19.833,19.833,0,0,1-19.832,19.832,19.692,19.692,0,0,1-2.048-.106,19.834,19.834,0,0,0,17.783-19.727A19.835,19.835,0,0,0-248.671-225.3a19.662,19.662,0,0,1,2.048-.106,19.833,19.833,0,0,1,19.832,19.834" transform="translate(248.671 225.41)" fill="#fdd330"/>
          </g>
          <g id="g9531" transform="translate(8.972 14.022)">
            <path id="path9533" d="M-318.339-159.17A15.357,15.357,0,0,1-333.7-143.813a15.357,15.357,0,0,1-15.357-15.357A15.357,15.357,0,0,1-333.7-174.526a15.357,15.357,0,0,1,15.357,15.357" transform="translate(349.052 174.526)" fill="#f8f3f1"/>
          </g>
          <g id="g9535" transform="translate(22.364 14.022)">
            <path id="path9537" d="M-179.543-159.177A15.357,15.357,0,0,1-194.9-143.821a15.423,15.423,0,0,1-1.965-.125,15.359,15.359,0,0,0,13.39-15.231,15.359,15.359,0,0,0-13.39-15.232,15.418,15.418,0,0,1,1.965-.125,15.357,15.357,0,0,1,15.357,15.357" transform="translate(196.865 174.534)" fill="#e5e1e5"/>
          </g>
          <g id="g9539" transform="translate(4.496 9.546)">
            <path id="path9541" d="M-355.486-64.94a19.777,19.777,0,0,0-14.464-6.265,19.833,19.833,0,0,0-19.833,19.833A19.833,19.833,0,0,0-369.95-31.54a19.833,19.833,0,0,0,19.833-19.833,19.739,19.739,0,0,0-2.764-10.1" transform="translate(389.783 71.205)" fill="none" stroke="#000" stroke-linecap="round" stroke-linejoin="round" stroke-miterlimit="10" stroke-width="1.2"/>
          </g>
          <g id="g9543" transform="translate(28 1.194)">
            <path id="path9545" d="M-106.514-92.211l-9.4-4.082a1.449,1.449,0,0,1-.752-1.906l.884-2.036a1.449,1.449,0,0,1,1.906-.752l9.4,4.082A1.449,1.449,0,0,1-103.724-95l-.884,2.036a1.449,1.449,0,0,1-1.906.752" transform="translate(116.79 101.108)" fill="#fde265"/>
          </g>
          <g id="g9547" transform="translate(35.006 3.977)">
            <path id="path9549" d="M-62.811-34.464l-.884,2.036a1.449,1.449,0,0,1-1.906.753l-3.27-1.419a1.449,1.449,0,0,0,1.906-.753l.884-2.036a1.449,1.449,0,0,0-.752-1.906l3.27,1.419a1.448,1.448,0,0,1,.752,1.906" transform="translate(68.87 37.789)" fill="#fdd330"/>
          </g>
          <g id="g9551" transform="translate(28 1.194)">
            <path id="path9553" d="M-106.514-92.211l-9.4-4.082a1.449,1.449,0,0,1-.752-1.906l.884-2.036a1.449,1.449,0,0,1,1.906-.752l9.4,4.082A1.449,1.449,0,0,1-103.724-95l-.884,2.036A1.449,1.449,0,0,1-106.514-92.211Z" transform="translate(116.79 101.108)" fill="none" stroke="#000" stroke-linecap="round" stroke-linejoin="round" stroke-miterlimit="10" stroke-width="1.2"/>
          </g>
          <g id="g9555" transform="translate(22.025 27.075)">
            <path id="path9557" d="M-47.754-23.876a2.3,2.3,0,0,1-2.3,2.3,2.3,2.3,0,0,1-2.3-2.3,2.3,2.3,0,0,1,2.3-2.3,2.3,2.3,0,0,1,2.3,2.3" transform="translate(52.361 26.18)" fill="#fb9927"/>
          </g>
          <g id="g9559" transform="translate(22.025 27.075)">
            <path id="path9561" d="M-47.553-20.768a2.3,2.3,0,0,1-1.984,2.584,2.3,2.3,0,0,1-2.584-1.984,2.3,2.3,0,0,1,1.984-2.584A2.3,2.3,0,0,1-47.553-20.768Z" transform="translate(52.141 22.771)" fill="none" stroke="#000" stroke-linecap="round" stroke-linejoin="round" stroke-miterlimit="10" stroke-width="1.2"/>
          </g>
          <g id="g9563" transform="translate(24.629 31.663)">
            <path id="path9565" d="M0,0,1.193,9.076" fill="none" stroke="#000" stroke-linecap="round" stroke-linejoin="round" stroke-miterlimit="10" stroke-width="1.2"/>
          </g>
          <g id="g9567" transform="translate(9.43 14.022)">
            <path id="path9569" d="M0-120.446a15.363,15.363,0,0,1,14.9-11.621A15.357,15.357,0,0,1,30.256-116.71,15.357,15.357,0,0,1,14.9-101.353,15.363,15.363,0,0,1,.062-112.735" transform="translate(0 132.066)" fill="none" stroke="#000" stroke-linecap="round" stroke-linejoin="round" stroke-miterlimit="10" stroke-width="1.2"/>
          </g>
          <g id="g9571" transform="translate(24.808 18.479)">
            <path id="path9573" d="M-58.91-42.961a2.964,2.964,0,0,1-3.9,1.539,2.964,2.964,0,0,1-1.539-3.9,2.964,2.964,0,0,1,3.9-1.539A2.964,2.964,0,0,1-58.91-42.961Z" transform="translate(64.594 47.106)" fill="none" stroke="#000" stroke-linecap="round" stroke-linejoin="round" stroke-miterlimit="10" stroke-width="1.2"/>
          </g>
          <g id="g9575" transform="translate(28.289 20.462)">
            <path id="path9577" d="M0-8.062,1.971-8.84" transform="translate(0 8.84)" fill="none" stroke="#000" stroke-linecap="round" stroke-linejoin="round" stroke-miterlimit="10" stroke-width="1.2"/>
          </g>
          <g id="g9579" transform="translate(0.88 10.427)">
            <path id="path9581" d="M-74.973-91.338h-5.654a1.579,1.579,0,0,1-1.579-1.579v-5.654a1.579,1.579,0,0,1,1.579-1.579h5.654a1.579,1.579,0,0,1,1.579,1.579v5.654a1.579,1.579,0,0,1-1.579,1.579" transform="translate(82.206 100.15)" fill="#35bcc7"/>
          </g>
          <g id="g9583" transform="translate(4.045 10.427)">
            <path id="path9585" d="M-58.54-16.366v5.654a1.579,1.579,0,0,1-1.579,1.579h-4.069a1.579,1.579,0,0,0,1.579-1.579v-5.654a1.579,1.579,0,0,0-1.579-1.579h4.069a1.579,1.579,0,0,1,1.579,1.579" transform="translate(64.188 17.945)" fill="#20abb9"/>
          </g>
          <g id="g9587" transform="translate(0.88 10.427)">
            <path id="path9589" d="M-74.973-91.338h-5.654a1.579,1.579,0,0,1-1.579-1.579v-5.654a1.579,1.579,0,0,1,1.579-1.579h5.654a1.579,1.579,0,0,1,1.579,1.579v5.654A1.579,1.579,0,0,1-74.973-91.338Z" transform="translate(82.206 100.15)" fill="none" stroke="#000" stroke-linecap="round" stroke-linejoin="round" stroke-miterlimit="10" stroke-width="1.2"/>
          </g>
          <g id="g9591" transform="translate(0.88 25.102)">
            <path id="path9593" d="M-74.973-91.338h-5.654a1.579,1.579,0,0,1-1.579-1.579v-5.654a1.579,1.579,0,0,1,1.579-1.579h5.654a1.579,1.579,0,0,1,1.579,1.579v5.654a1.579,1.579,0,0,1-1.579,1.579" transform="translate(82.206 100.15)" fill="#35bcc7"/>
          </g>
          <g id="g9595" transform="translate(4.045 25.102)">
            <path id="path9597" d="M-58.54-16.366v5.654a1.579,1.579,0,0,1-1.579,1.579h-4.069a1.579,1.579,0,0,0,1.579-1.579v-5.654a1.579,1.579,0,0,0-1.579-1.579h4.069a1.579,1.579,0,0,1,1.579,1.579" transform="translate(64.188 17.945)" fill="#20abb9"/>
          </g>
          <g id="g9599" transform="translate(0.88 25.102)">
            <path id="path9601" d="M-91.338-23.78V-24.5a1.579,1.579,0,0,0-1.579-1.579h-5.654A1.579,1.579,0,0,0-100.15-24.5v5.654a1.579,1.579,0,0,0,1.579,1.579h5.654a1.579,1.579,0,0,0,1.579-1.579v-.6" transform="translate(100.15 26.075)" fill="none" stroke="#000" stroke-linecap="round" stroke-linejoin="round" stroke-miterlimit="10" stroke-width="1.2"/>
          </g>
          <g id="g9603" transform="translate(0.88 39.776)">
            <path id="path9605" d="M-74.973-91.338h-5.654a1.579,1.579,0,0,1-1.579-1.579v-5.654a1.579,1.579,0,0,1,1.579-1.579h5.654a1.579,1.579,0,0,1,1.579,1.579v5.654a1.579,1.579,0,0,1-1.579,1.579" transform="translate(82.206 100.15)" fill="#35bcc7"/>
          </g>
          <g id="g9607" transform="translate(4.045 39.776)">
            <path id="path9609" d="M-58.54-16.365v5.654a1.579,1.579,0,0,1-1.579,1.579h-4.069a1.579,1.579,0,0,0,1.579-1.579v-5.654a1.579,1.579,0,0,0-1.579-1.579h4.069a1.579,1.579,0,0,1,1.579,1.579" transform="translate(64.188 17.944)" fill="#20abb9"/>
          </g>
          <g id="g9611" transform="translate(0.88 39.776)">
            <path id="path9613" d="M-74.973-91.338h-5.654a1.579,1.579,0,0,1-1.579-1.579v-5.654a1.579,1.579,0,0,1,1.579-1.579h5.654a1.579,1.579,0,0,1,1.579,1.579v5.654A1.579,1.579,0,0,1-74.973-91.338Z" transform="translate(82.206 100.15)" fill="none" stroke="#000" stroke-linecap="round" stroke-linejoin="round" stroke-miterlimit="10" stroke-width="1.2"/>
          </g>
          <g id="g9615" transform="translate(3.27 13.388)">
            <path id="path9617" d="M0-18.14,1.141-17l2.891-2.892" transform="translate(0 19.891)" fill="none" stroke="#000" stroke-linecap="round" stroke-linejoin="round" stroke-miterlimit="10" stroke-width="1.2"/>
          </g>
          <g id="g9619" transform="translate(3.27 28.062)">
            <path id="path9621" d="M0-18.14,1.141-17l2.891-2.892" transform="translate(0 19.891)" fill="none" stroke="#000" stroke-linecap="round" stroke-linejoin="round" stroke-miterlimit="10" stroke-width="1.2"/>
          </g>
          <g id="g9623" transform="translate(3.27 42.736)">
            <path id="path9625" d="M0-18.142,1.141-17l2.891-2.892" transform="translate(0 19.892)" fill="none" stroke="#000" stroke-linecap="round" stroke-linejoin="round" stroke-miterlimit="10" stroke-width="1.2"/>
          </g>
          <g id="g9627" transform="translate(49.111 8.96)">
            <path id="path9629" d="M0,0H3.091" fill="none" stroke="#000" stroke-linecap="round" stroke-linejoin="round" stroke-miterlimit="10" stroke-width="1.2"/>
          </g>
          <g id="g9631" transform="translate(42.713 13.223)">
            <path id="path9633" d="M0,0H9.488" fill="none" stroke="#000" stroke-linecap="round" stroke-linejoin="round" stroke-miterlimit="10" stroke-width="1.2"/>
          </g>
          <g id="g9635" transform="translate(42.713 16.155)">
            <path id="path9637" d="M0,0H9.488" fill="none" stroke="#000" stroke-linecap="round" stroke-linejoin="round" stroke-miterlimit="10" stroke-width="1.2"/>
          </g>
        </g>
      </g>
    </g>
  </g>
</svg>
