<svg xmlns="http://www.w3.org/2000/svg" xmlns:xlink="http://www.w3.org/1999/xlink" width="113" height="113" viewBox="0 0 113 113">
  <defs>
    <filter id="Trazado_982547" x="0" y="0" width="113" height="113" filterUnits="userSpaceOnUse">
      <feOffset dy="3" input="SourceAlpha"/>
      <feGaussianBlur stdDeviation="3" result="blur"/>
      <feFlood flood-opacity="0.161"/>
      <feComposite operator="in" in2="blur"/>
      <feComposite in="SourceGraphic"/>
    </filter>
  </defs>
  <g id="Grupo_1224641" data-name="Grupo 1224641" transform="translate(-355.49 -6083.751)">
    <g id="Grupo_1224575" data-name="Grupo 1224575" transform="translate(0 -980)">
      <g id="Grupo_1224449" data-name="Grupo 1224449" transform="translate(364.49 7069.751)">
        <g id="Grupo_1224084" data-name="Grupo 1224084" transform="translate(0 0)">
          <g id="Grupo_1223183" data-name="Grupo 1223183">
            <g id="Grupo_1211217" data-name="Grupo 1211217">
              <g id="Grupo_1210736" data-name="Grupo 1210736">
                <g id="Grupo_1210537" data-name="Grupo 1210537">
                  <g id="Grupo_1164202" data-name="Grupo 1164202">
                    <g id="Grupo_1158168" data-name="Grupo 1158168">
                      <g id="Grupo_1152576" data-name="Grupo 1152576">
                        <g id="Grupo_1148633" data-name="Grupo 1148633">
                          <g id="Grupo_1148525" data-name="Grupo 1148525">
                            <g transform="matrix(1, 0, 0, 1, -9, -6)" filter="url(#Trazado_982547)">
                              <g id="Trazado_982547-2" data-name="Trazado 982547" transform="translate(9 6)" fill="#fef9e5">
                                <path d="M 47.49999618530273 93.5 C 41.28936767578125 93.5 35.26533126831055 92.28396606445312 29.59518241882324 89.88570404052734 C 24.11771583557129 87.56893157958984 19.19812965393066 84.251953125 14.97308921813965 80.02690124511719 C 10.74803638458252 75.80186462402344 7.431062698364258 70.88227844238281 5.114289283752441 65.40480804443359 C 2.716022968292236 59.73466110229492 1.499996185302734 53.71062469482422 1.499996185302734 47.49999618530273 C 1.499996185302734 41.28936767578125 2.716022968292236 35.26533126831055 5.114289283752441 29.59518241882324 C 7.431062698364258 24.11771583557129 10.74803638458252 19.19812965393066 14.97308921813965 14.97308921813965 C 19.19812965393066 10.74803638458252 24.11771583557129 7.431062698364258 29.59518241882324 5.114289283752441 C 35.26533126831055 2.716022968292236 41.28936767578125 1.499996185302734 47.49999618530273 1.499996185302734 C 53.71062469482422 1.499996185302734 59.73466110229492 2.716022968292236 65.40480804443359 5.114289283752441 C 70.88227844238281 7.431062698364258 75.80186462402344 10.74803638458252 80.02690124511719 14.97308921813965 C 84.251953125 19.19812965393066 87.56893157958984 24.11771583557129 89.88570404052734 29.59518241882324 C 92.28396606445312 35.26533126831055 93.5 41.28936767578125 93.5 47.49999618530273 C 93.5 53.71062469482422 92.28396606445312 59.73466110229492 89.88570404052734 65.40480804443359 C 87.56893157958984 70.88227844238281 84.251953125 75.80186462402344 80.02690124511719 80.02690124511719 C 75.80186462402344 84.251953125 70.88227844238281 87.56893157958984 65.40480804443359 89.88570404052734 C 59.73466110229492 92.28396606445312 53.71062469482422 93.5 47.49999618530273 93.5 Z" stroke="none"/>
                                <path d="M 47.49999618530273 2.999992370605469 C 41.4912109375 2.999992370605469 35.66376495361328 4.1761474609375 30.17950439453125 6.495796203613281 C 24.88084411621094 8.736953735351562 20.12152099609375 11.94598388671875 16.03375244140625 16.03375244140625 C 11.94598388671875 20.12152099609375 8.736953735351562 24.88084411621094 6.495796203613281 30.17950439453125 C 4.1761474609375 35.66376495361328 2.999992370605469 41.4912109375 2.999992370605469 47.49999618530273 C 2.999992370605469 53.50878143310547 4.1761474609375 59.33622741699219 6.495796203613281 64.82048797607422 C 8.736953735351562 70.11914825439453 11.94598388671875 74.87847137451172 16.03375244140625 78.96623992919922 C 20.12152099609375 83.05400848388672 24.88084411621094 86.26304626464844 30.17950439453125 88.50419616699219 C 35.66376495361328 90.82384490966797 41.4912109375 92 47.49999618530273 92 C 53.50878143310547 92 59.33622741699219 90.82384490966797 64.82048797607422 88.50419616699219 C 70.11914825439453 86.26304626464844 74.87847137451172 83.05400848388672 78.96623992919922 78.96623992919922 C 83.05400848388672 74.87847137451172 86.26304626464844 70.11914825439453 88.50419616699219 64.82048797607422 C 90.82384490966797 59.33622741699219 92 53.50878143310547 92 47.49999618530273 C 92 41.4912109375 90.82384490966797 35.66376495361328 88.50419616699219 30.17950439453125 C 86.26304626464844 24.88084411621094 83.05400848388672 20.12152099609375 78.96623992919922 16.03375244140625 C 74.87847137451172 11.94598388671875 70.11914825439453 8.736953735351562 64.82048797607422 6.495796203613281 C 59.33622741699219 4.1761474609375 53.50878143310547 2.999992370605469 47.49999618530273 2.999992370605469 M 47.49999618530273 -7.62939453125e-06 C 73.7335205078125 -7.62939453125e-06 95 21.26647186279297 95 47.49999618530273 C 95 73.7335205078125 73.7335205078125 95 47.49999618530273 95 C 21.26647186279297 95 -7.62939453125e-06 73.7335205078125 -7.62939453125e-06 47.49999618530273 C -7.62939453125e-06 21.26647186279297 21.26647186279297 -7.62939453125e-06 47.49999618530273 -7.62939453125e-06 Z" stroke="none" fill="#f6c810"/>
                              </g>
                            </g>
                          </g>
                        </g>
                      </g>
                    </g>
                  </g>
                </g>
              </g>
            </g>
          </g>
        </g>
      </g>
    </g>
    <g id="Layer_x0020_1" transform="translate(380.492 5997.871)">
      <path id="Trazado_1051455" data-name="Trazado 1051455" d="M53.616,1331.118H9.379A9.392,9.392,0,0,1,0,1321.739.741.741,0,0,1,.739,1321H62.257a.741.741,0,0,1,.739.739A9.392,9.392,0,0,1,53.616,1331.118Zm-52.1-8.641a7.931,7.931,0,0,0,7.865,7.164H53.616a7.878,7.878,0,0,0,7.865-7.164Z" transform="translate(0 -1164.357)" fill-rule="evenodd"/>
      <path id="Trazado_1051456" data-name="Trazado 1051456" d="M571.342,1325.948H554.983a.726.726,0,0,1-.628-.332l-2.216-3.471a.746.746,0,0,1,.628-1.145H573.52a.741.741,0,0,1,.628,1.145l-2.215,3.471A.666.666,0,0,1,571.342,1325.948Zm-15.952-1.477h15.546l1.255-1.994H554.134Z" transform="translate(-531.646 -1164.357)" fill-rule="evenodd"/>
      <path id="Trazado_1051457" data-name="Trazado 1051457" d="M147.19,1439.477H143.5a.739.739,0,1,1,0-1.477h3.693A.739.739,0,0,1,147.19,1439.477Z" transform="translate(-137.479 -1277.036)" fill-rule="evenodd"/>
      <path id="Trazado_1051458" data-name="Trazado 1051458" d="M343.913,1439.477H340.22a.739.739,0,0,1,0-1.477h3.693A.739.739,0,1,1,343.913,1439.477Z" transform="translate(-326.964 -1277.036)" fill-rule="evenodd"/>
      <path id="Trazado_1051459" data-name="Trazado 1051459" d="M1231.913,1439.477h-3.693a.739.739,0,0,1,0-1.477h3.693A.739.739,0,1,1,1231.913,1439.477Z" transform="translate(-1182.174 -1277.036)" fill-rule="evenodd"/>
      <path id="Trazado_1051460" data-name="Trazado 1051460" d="M1428.913,1439.477h-3.693a.739.739,0,0,1,0-1.477h3.693A.739.739,0,0,1,1428.913,1439.477Z" transform="translate(-1371.899 -1277.036)" fill-rule="evenodd"/>
      <path id="Trazado_1051461" data-name="Trazado 1051461" d="M419.546,304.477H386.5a.739.739,0,1,1,0-1.477h33.049A.739.739,0,0,1,419.546,304.477Z" transform="translate(-371.506 -183.947)" fill-rule="evenodd"/>
      <path id="Trazado_1051462" data-name="Trazado 1051462" d="M465.437,199.654c-1.145,0-2.437.258-2.437-.7,0-1,1.292-.739,2.437-.739A.721.721,0,1,1,465.437,199.654Z" transform="translate(-445.903 -83.001)" fill-rule="evenodd"/>
      <path id="Trazado_1051463" data-name="Trazado 1051463" d="M588.474,199.654c-1.145,0-2.474.258-2.474-.7,0-1,1.329-.739,2.474-.739A.72.72,0,1,1,588.474,199.654Z" transform="translate(-564.362 -83.001)" fill-rule="evenodd"/>
      <path id="Trazado_1051464" data-name="Trazado 1051464" d="M712.474,199.654c-1.145,0-2.474.258-2.474-.7,0-1,1.329-.739,2.474-.739A.72.72,0,1,1,712.474,199.654Z" transform="translate(-683.783 -83.001)" fill-rule="evenodd"/>
      <path id="Trazado_1051465" data-name="Trazado 1051465" d="M941.525,208.477H932.22a.739.739,0,0,1,0-1.477h9.305A.739.739,0,0,1,941.525,208.477Z" transform="translate(-897.104 -91.492)" fill-rule="evenodd"/>
      <path id="Trazado_1051466" data-name="Trazado 1051466" d="M833.739,121.011a.741.741,0,0,1-.739-.739V113.22a.739.739,0,0,1,1.477,0v7.053A.741.741,0,0,1,833.739,121.011Z" transform="translate(-802.241 -0.482)" fill-rule="evenodd"/>
      <path id="Trazado_1051467" data-name="Trazado 1051467" d="M686.021,488.729c-1.957,0-2.363.185-2.585-1.772-1.514,1.219-1.7.812-3.1-.591-.775-.812-.037-1.625.369-2.142-1.92-.222-1.772-.628-1.772-2.585,0-1.145,1.108-1.182,1.772-1.255-1.219-1.551-.812-1.7.591-3.1.812-.812,1.625-.074,2.142.369.222-1.957.628-1.772,2.585-1.772,1.145,0,1.182,1.108,1.255,1.772,1.551-1.219,1.7-.849,3.1.554.812.812.074,1.625-.369,2.179,1.957.222,1.772.591,1.772,2.585,0,1.145-1.108,1.182-1.772,1.255,1.219,1.514.849,1.7-.554,3.1-.812.775-1.625.037-2.179-.369C687.2,487.621,687.166,488.729,686.021,488.729Zm-1.071-1.477h.812c.222-1.846.148-1.292,1.255-1.846.554-.332,1,.222,1.588.665l.554-.554c-1.145-1.44-.812-1-.443-2.179.185-.628.886-.554,1.625-.628V481.9c-1.883-.222-1.292-.148-1.883-1.219-.3-.591.258-1.034.7-1.588l-.554-.591c-1.477,1.145-1,.849-2.216.443-.591-.185-.517-.886-.628-1.625h-.812c-.185,1.883-.111,1.292-1.219,1.883-.554.3-1-.258-1.588-.7l-.554.591c1.145,1.44.812.96.443,2.179-.222.591-.886.554-1.625.628v.812c1.883.222,1.292.148,1.846,1.219.332.554-.222,1-.665,1.588l.554.591c1.44-1.182,1-.849,2.179-.48C684.95,485.849,684.877,486.513,684.95,487.252Z" transform="translate(-653.859 -350.438)" fill-rule="evenodd"/>
      <path id="Trazado_1051468" data-name="Trazado 1051468" d="M789.437,587.948c-3.249,0-3.249-4.948,0-4.948A2.474,2.474,0,0,1,789.437,587.948Zm0-3.471a1,1,0,0,0,0,1.994A1,1,0,0,0,789.437,584.477Z" transform="translate(-757.939 -453.608)" fill-rule="evenodd"/>
      <path id="Trazado_1051469" data-name="Trazado 1051469" d="M598.837,713.435a10.337,10.337,0,0,1-9.9-7.274.736.736,0,0,1,1.4-.443,8.915,8.915,0,0,0,16.691.849.745.745,0,0,1,1.366.591A10.406,10.406,0,0,1,598.837,713.435Z" transform="translate(-567.155 -571.303)" fill-rule="evenodd"/>
      <path id="Trazado_1051470" data-name="Trazado 1051470" d="M994.213,735.5a.748.748,0,0,1-.738-.849l.406-2.659c-1.255.665-2.474,1.588-2.954.665a.709.709,0,0,1,.332-.96l3.212-1.662a.757.757,0,0,1,1.071.775l-.591,4.062A.751.751,0,0,1,994.213,735.5Z" transform="translate(-954.26 -595.141)" fill-rule="evenodd"/>
      <path id="Trazado_1051471" data-name="Trazado 1051471" d="M607.123,379.84a.741.741,0,0,1-.7-.517c-2.437-7.865-13.478-8.382-16.691-.849a.737.737,0,0,1-1.366-.554,10.4,10.4,0,0,1,19.46.96A.745.745,0,0,1,607.123,379.84Z" transform="translate(-566.578 -250.041)" fill-rule="evenodd"/>
      <path id="Trazado_1051472" data-name="Trazado 1051472" d="M589.471,424.936a.7.7,0,0,1-.739-.812l.591-4.062a.744.744,0,0,1,1.477.185l-.406,2.659c1.255-.628,2.474-1.588,2.954-.665a.74.74,0,0,1-.332,1A30.4,30.4,0,0,1,589.471,424.936Z" transform="translate(-566.983 -296.061)" fill-rule="evenodd"/>
      <path id="Trazado_1051473" data-name="Trazado 1051473" d="M191.918,403.7a.741.741,0,0,1-.739-.738V371.173a2.711,2.711,0,0,0-2.7-2.7h-5.613a.739.739,0,0,1,0-1.477h5.613a4.192,4.192,0,0,1,4.173,4.173v31.793A.741.741,0,0,1,191.918,403.7Zm-51.179,0a.741.741,0,0,1-.739-.738V371.173A4.2,4.2,0,0,1,144.21,367h5.613a.739.739,0,0,1,0,1.477H144.21a2.719,2.719,0,0,0-2.733,2.7v31.793A.741.741,0,0,1,140.739,403.7Z" transform="translate(-134.83 -245.584)" fill-rule="evenodd"/>
      <path id="Trazado_1051474" data-name="Trazado 1051474" d="M284.533,496.319H240.739a.741.741,0,0,1-.739-.738V467.739a.741.741,0,0,1,.739-.739h5.391a.739.739,0,0,1,0,1.477h-4.653v26.365h42.317V468.477h-4.616a.739.739,0,0,1,0-1.477h5.354a.741.741,0,0,1,.739.739v27.842A.741.741,0,0,1,284.533,496.319Z" transform="translate(-231.138 -341.891)" fill-rule="evenodd"/>
      <path id="Trazado_1051475" data-name="Trazado 1051475" d="M417.646,144.679H388.88A2.884,2.884,0,0,1,386,141.8V114.88a2.884,2.884,0,0,1,2.88-2.88h28.765a2.884,2.884,0,0,1,2.88,2.88V141.8A2.884,2.884,0,0,1,417.646,144.679Zm-28.765-31.2a1.4,1.4,0,0,0-1.4,1.4V141.8a1.4,1.4,0,0,0,1.4,1.4h28.765a1.4,1.4,0,0,0,1.4-1.4V114.88a1.4,1.4,0,0,0-1.4-1.4Z" transform="translate(-371.747 0)" fill-rule="evenodd"/>
      <path id="Trazado_1051476" data-name="Trazado 1051476" d="M315.56,525.094H286.794a2.884,2.884,0,0,1-2.88-2.88V507H280v26.365h42.317V507H318.44v15.213A2.884,2.884,0,0,1,315.56,525.094Z" transform="translate(-269.661 -380.414)" fill="#70bfff" fill-rule="evenodd"/>
      <path id="Trazado_1051477" data-name="Trazado 1051477" d="M433.459,356.884a8.923,8.923,0,0,0,15.4,2.991c-.849.48-1.588.775-1.92.111a.709.709,0,0,1,.332-.96l3.1-1.588a.78.78,0,0,1,.369-.148.907.907,0,0,1,.554.185.668.668,0,0,1,.222.775l-.554,3.951a.747.747,0,0,1-1.477-.222l.111-.7a10.462,10.462,0,0,1-7.644,3.323,10.337,10.337,0,0,1-9.9-7.274A.736.736,0,0,1,433.459,356.884Zm-6.056,8.788h28.765a1.4,1.4,0,0,0,1.4-1.4V343H426v21.269A1.4,1.4,0,0,0,427.4,365.672Zm16.284-6.684c-.074.665-.111,1.772-1.255,1.772-1.957,0-2.363.185-2.585-1.772-1.514,1.219-1.7.812-3.1-.591-.775-.812-.037-1.625.369-2.142-1.92-.222-1.772-.628-1.772-2.585,0-1.145,1.108-1.182,1.772-1.255-1.219-1.551-.812-1.7.591-3.1.812-.812,1.625-.074,2.142.369.222-1.957.628-1.772,2.585-1.772,1.145,0,1.182,1.108,1.255,1.772,1.551-1.219,1.7-.849,3.1.554.812.812.074,1.625-.369,2.179,1.957.222,1.772.591,1.772,2.585,0,1.145-1.108,1.182-1.772,1.255,1.219,1.514.849,1.7-.554,3.1C445.054,360.134,444.241,359.4,443.688,358.989Zm-10.93-7.644a.732.732,0,0,1-.665-.369.635.635,0,0,1-.074-.443V350.5l.591-4.025a.744.744,0,0,1,1.477.185l-.111.738a10.394,10.394,0,0,1,17.54,3.914.736.736,0,1,1-1.4.443,8.943,8.943,0,0,0-15.4-2.991c.849-.443,1.588-.775,1.92-.111a.74.74,0,0,1-.332,1c-.406.222-2.179,1.182-3.1,1.551a.555.555,0,0,1-.406.148Z" transform="translate(-410.27 -222.47)" fill="#d6e3ff" fill-rule="evenodd"/>
      <path id="Trazado_1051478" data-name="Trazado 1051478" d="M724.354,524.933c.222-1.846.148-1.292,1.255-1.846.554-.332,1,.222,1.588.665l.554-.554c-1.145-1.44-.812-1-.443-2.179.185-.628.886-.554,1.625-.628v-.812c-1.883-.221-1.292-.148-1.883-1.219-.3-.591.259-1.034.7-1.588l-.554-.591c-1.477,1.145-1,.849-2.216.443-.591-.185-.517-.886-.628-1.625h-.812c-.185,1.883-.111,1.292-1.219,1.883-.554.3-1-.258-1.588-.7l-.554.591c1.145,1.44.812.96.443,2.179-.222.591-.886.554-1.625.628v.812c1.883.222,1.292.148,1.846,1.219.332.554-.222,1-.665,1.588l.554.591c1.44-1.182,1-.849,2.179-.48.628.222.554.886.628,1.625Zm-.406-7.422a2.474,2.474,0,0,1,0,4.948C720.7,522.459,720.7,517.511,723.948,517.511Z" transform="translate(-692.45 -388.119)" fill="#4182c8" fill-rule="evenodd"/>
      <path id="Trazado_1051479" data-name="Trazado 1051479" d="M873,157.576h15.066V153.4a1.4,1.4,0,0,0-1.4-1.4H873Zm12.186-2.068H875.88a.739.739,0,0,1,0-1.477h9.305A.739.739,0,0,1,885.186,155.508Z" transform="translate(-840.764 -38.523)" fill="#386f8c" fill-rule="evenodd"/>
      <path id="Trazado_1051480" data-name="Trazado 1051480" d="M227.487,409.954V437.8a.741.741,0,0,1-.739.738H182.954a.741.741,0,0,1-.739-.738V409.954a.741.741,0,0,1,.739-.739h4.653V407h-4.874A2.719,2.719,0,0,0,180,409.7V440.75h49.7V409.7a2.711,2.711,0,0,0-2.7-2.7h-4.874v2.216h4.616A.741.741,0,0,1,227.487,409.954Z" transform="translate(-173.353 -284.107)" fill="#2c3a56" fill-rule="evenodd"/>
      <path id="Trazado_1051481" data-name="Trazado 1051481" d="M89.225,1365.321H85.533a.739.739,0,0,1,0-1.477h3.693A.739.739,0,1,1,89.225,1365.321Zm7.348-4.32H81.766l-1.994,3.139a.666.666,0,0,1-.591.332H62.823a.726.726,0,0,1-.628-.332L60.2,1361H41a7.931,7.931,0,0,0,7.865,7.164H93.1a7.878,7.878,0,0,0,7.865-7.164Zm-3.766,4.32a.739.739,0,0,1,0-1.477H96.5a.739.739,0,0,1,0,1.477Zm-36.372-1.477a.739.739,0,1,1,0,1.477H52.742a.739.739,0,0,1,0-1.477Zm-7.237,0a.739.739,0,0,1,0,1.477H45.5a.739.739,0,1,1,0-1.477Z" transform="translate(-39.486 -1202.88)" fill="#4c5c75" fill-rule="evenodd"/>
      <path id="Trazado_1051482" data-name="Trazado 1051482" d="M625.8,1362.994l1.255-1.994H609l1.255,1.994Z" transform="translate(-586.512 -1202.88)" fill="#3d4b60" fill-rule="evenodd"/>
      <path id="Trazado_1051483" data-name="Trazado 1051483" d="M426,157.576h15.029V152H427.4a1.4,1.4,0,0,0-1.4,1.4Zm12.961-2.4c-1.145,0-2.474.258-2.474-.7,0-1,1.329-.739,2.474-.739A.72.72,0,0,1,438.961,155.176Zm-4.579,0c-1.145,0-2.474.258-2.474-.7,0-1,1.329-.739,2.474-.739A.72.72,0,1,1,434.382,155.176Zm-4.579,0c-1.145,0-2.437.258-2.437-.7,0-1,1.292-.739,2.437-.739A.721.721,0,1,1,429.8,155.176Z" transform="translate(-410.27 -38.523)" fill="#386f8c" fill-rule="evenodd"/>
      <path id="Trazado_1051484" data-name="Trazado 1051484" d="M827.719,623a1,1,0,0,0,0,1.994A1,1,0,0,0,827.719,623Z" transform="translate(-796.221 -492.131)" fill="#d6e3ff" fill-rule="evenodd"/>
    </g>
  </g>
</svg>
