<svg xmlns="http://www.w3.org/2000/svg" xmlns:xlink="http://www.w3.org/1999/xlink" width="113" height="113" viewBox="0 0 113 113">
  <defs>
    <filter id="Trazado_982547" x="0" y="0" width="113" height="113" filterUnits="userSpaceOnUse">
      <feOffset dy="3" input="SourceAlpha"/>
      <feGaussianBlur stdDeviation="3" result="blur"/>
      <feFlood flood-opacity="0.161"/>
      <feComposite operator="in" in2="blur"/>
      <feComposite in="SourceGraphic"/>
    </filter>
  </defs>
  <g id="Grupo_1224645" data-name="Grupo 1224645" transform="translate(-674 -6083.751)">
    <g id="Grupo_1224577" data-name="Grupo 1224577" transform="translate(0 -980)">
      <g id="Grupo_1224450" data-name="Grupo 1224450" transform="translate(683 7069.751)">
        <g id="Grupo_1224085" data-name="Grupo 1224085" transform="translate(0 0)">
          <g id="Grupo_1223184" data-name="Grupo 1223184">
            <g id="Grupo_1211216" data-name="Grupo 1211216">
              <g id="Grupo_1210737" data-name="Grupo 1210737">
                <g id="Grupo_1210537" data-name="Grupo 1210537">
                  <g id="Grupo_1164202" data-name="Grupo 1164202">
                    <g id="Grupo_1158168" data-name="Grupo 1158168">
                      <g id="Grupo_1152576" data-name="Grupo 1152576">
                        <g id="Grupo_1148633" data-name="Grupo 1148633">
                          <g id="Grupo_1148525" data-name="Grupo 1148525">
                            <g transform="matrix(1, 0, 0, 1, -9, -6)" filter="url(#Trazado_982547)">
                              <g id="Trazado_982547-2" data-name="Trazado 982547" transform="translate(9 6)" fill="#fef9e5">
                                <path d="M 47.49999618530273 93.5 C 41.28936767578125 93.5 35.26533126831055 92.28396606445312 29.59518241882324 89.88570404052734 C 24.11771583557129 87.56893157958984 19.19812965393066 84.251953125 14.97308921813965 80.02690124511719 C 10.74803638458252 75.80186462402344 7.431062698364258 70.88227844238281 5.114289283752441 65.40480804443359 C 2.716022968292236 59.73466110229492 1.499996185302734 53.71062469482422 1.499996185302734 47.49999618530273 C 1.499996185302734 41.28936767578125 2.716022968292236 35.26533126831055 5.114289283752441 29.59518241882324 C 7.431062698364258 24.11771583557129 10.74803638458252 19.19812965393066 14.97308921813965 14.97308921813965 C 19.19812965393066 10.74803638458252 24.11771583557129 7.431062698364258 29.59518241882324 5.114289283752441 C 35.26533126831055 2.716022968292236 41.28936767578125 1.499996185302734 47.49999618530273 1.499996185302734 C 53.71062469482422 1.499996185302734 59.73466110229492 2.716022968292236 65.40480804443359 5.114289283752441 C 70.88227844238281 7.431062698364258 75.80186462402344 10.74803638458252 80.02690124511719 14.97308921813965 C 84.251953125 19.19812965393066 87.56893157958984 24.11771583557129 89.88570404052734 29.59518241882324 C 92.28396606445312 35.26533126831055 93.5 41.28936767578125 93.5 47.49999618530273 C 93.5 53.71062469482422 92.28396606445312 59.73466110229492 89.88570404052734 65.40480804443359 C 87.56893157958984 70.88227844238281 84.251953125 75.80186462402344 80.02690124511719 80.02690124511719 C 75.80186462402344 84.251953125 70.88227844238281 87.56893157958984 65.40480804443359 89.88570404052734 C 59.73466110229492 92.28396606445312 53.71062469482422 93.5 47.49999618530273 93.5 Z" stroke="none"/>
                                <path d="M 47.49999618530273 2.999992370605469 C 41.4912109375 2.999992370605469 35.66376495361328 4.1761474609375 30.17950439453125 6.495796203613281 C 24.88084411621094 8.736953735351562 20.12152099609375 11.94598388671875 16.03375244140625 16.03375244140625 C 11.94598388671875 20.12152099609375 8.736953735351562 24.88084411621094 6.495796203613281 30.17950439453125 C 4.1761474609375 35.66376495361328 2.999992370605469 41.4912109375 2.999992370605469 47.49999618530273 C 2.999992370605469 53.50878143310547 4.1761474609375 59.33622741699219 6.495796203613281 64.82048797607422 C 8.736953735351562 70.11914825439453 11.94598388671875 74.87847137451172 16.03375244140625 78.96623992919922 C 20.12152099609375 83.05400848388672 24.88084411621094 86.26304626464844 30.17950439453125 88.50419616699219 C 35.66376495361328 90.82384490966797 41.4912109375 92 47.49999618530273 92 C 53.50878143310547 92 59.33622741699219 90.82384490966797 64.82048797607422 88.50419616699219 C 70.11914825439453 86.26304626464844 74.87847137451172 83.05400848388672 78.96623992919922 78.96623992919922 C 83.05400848388672 74.87847137451172 86.26304626464844 70.11914825439453 88.50419616699219 64.82048797607422 C 90.82384490966797 59.33622741699219 92 53.50878143310547 92 47.49999618530273 C 92 41.4912109375 90.82384490966797 35.66376495361328 88.50419616699219 30.17950439453125 C 86.26304626464844 24.88084411621094 83.05400848388672 20.12152099609375 78.96623992919922 16.03375244140625 C 74.87847137451172 11.94598388671875 70.11914825439453 8.736953735351562 64.82048797607422 6.495796203613281 C 59.33622741699219 4.1761474609375 53.50878143310547 2.999992370605469 47.49999618530273 2.999992370605469 M 47.49999618530273 -7.62939453125e-06 C 73.7335205078125 -7.62939453125e-06 95 21.26647186279297 95 47.49999618530273 C 95 73.7335205078125 73.7335205078125 95 47.49999618530273 95 C 21.26647186279297 95 -7.62939453125e-06 73.7335205078125 -7.62939453125e-06 47.49999618530273 C -7.62939453125e-06 21.26647186279297 21.26647186279297 -7.62939453125e-06 47.49999618530273 -7.62939453125e-06 Z" stroke="none" fill="#f6c810"/>
                              </g>
                            </g>
                          </g>
                        </g>
                      </g>
                    </g>
                  </g>
                </g>
              </g>
            </g>
          </g>
        </g>
      </g>
    </g>
    <g id="folder_740381" transform="translate(668.823 6105.472)">
      <g id="Grupo_1224643" data-name="Grupo 1224643" transform="translate(35.193 1.059)">
        <path id="Trazado_1051485" data-name="Trazado 1051485" d="M91.455,38.253H90.4V18.126L79.8,7.533H49.082A3.174,3.174,0,0,0,45.9,10.711V26.6H44.845a3.174,3.174,0,0,0-3.178,3.178V65.8a3.174,3.174,0,0,0,3.178,3.178h46.61A3.174,3.174,0,0,0,94.633,65.8V41.431a3.174,3.174,0,0,0-3.178-3.178Z" transform="translate(-41.667 -7.533)" fill="#fec108"/>
        <path id="Trazado_1051486" data-name="Trazado 1051486" d="M89.337,203.506H44.845a3.174,3.174,0,0,1-3.178-3.178V164.311a3.174,3.174,0,0,1,3.178-3.178H55.851a3.184,3.184,0,0,1,2.648,1.42l2.352,3.528a3.182,3.182,0,0,0,2.638,1.409H82.981a3.174,3.174,0,0,1,3.178,3.178v29.661a3.174,3.174,0,0,0,3.178,3.178Z" transform="translate(-41.667 -142.065)" fill="#cfd8dc"/>
        <path id="Trazado_1051487" data-name="Trazado 1051487" d="M120.292,18.127V61.56a3.174,3.174,0,0,1-3.178,3.178h-1.059v-28.6a3.174,3.174,0,0,0-3.178-3.178H93.385a3.182,3.182,0,0,1-2.638-1.409L88.4,28.021a3.185,3.185,0,0,0-2.648-1.42H75.8V10.712a3.174,3.174,0,0,1,3.178-3.178H109.7v7.415a3.174,3.174,0,0,0,3.178,3.178h7.415Z" transform="translate(-71.563 -7.534)" fill="#ffeb3a"/>
        <g id="Grupo_1224642" data-name="Grupo 1224642" transform="translate(38.136 25.424)">
          <path id="Trazado_1051488" data-name="Trazado 1051488" d="M408.541,258.178v24.365a3.174,3.174,0,0,1-3.178,3.178h-2.119a3.174,3.174,0,0,1-3.178-3.178v-1.059h1.059a3.174,3.174,0,0,0,3.178-3.178V255h1.059a3.174,3.174,0,0,1,3.178,3.178Z" transform="translate(-393.71 -249.703)" fill="#607d8b"/>
          <path id="Trazado_1051489" data-name="Trazado 1051489" d="M358.4,248.35h-3.178a3.174,3.174,0,0,1-3.178-3.178V215.511a3.174,3.174,0,0,0-3.178-3.178h3.178a3.174,3.174,0,0,1,3.178,3.178v29.661a3.174,3.174,0,0,0,3.178,3.178Z" transform="translate(-348.867 -212.333)" fill="#607d8b"/>
        </g>
        <path id="Trazado_1051490" data-name="Trazado 1051490" d="M404.3,92.867V136.3a3.174,3.174,0,0,1-3.178,3.178h-1.059v-.816a3.114,3.114,0,0,0,1.059-2.362V92.867Z" transform="translate(-355.575 -82.274)" fill="#fec108"/>
        <path id="Trazado_1051491" data-name="Trazado 1051491" d="M94.985,306.2h27.543a2.119,2.119,0,0,1,2.119,2.119v8.475a2.119,2.119,0,0,1-2.119,2.119H94.985a2.119,2.119,0,0,1-2.119-2.119v-8.475A2.119,2.119,0,0,1,94.985,306.2Z" transform="translate(-86.51 -269.124)" fill="#00bcd4"/>
      </g>
      <g id="Grupo_1224644" data-name="Grupo 1224644" transform="translate(34.134)">
        <path id="Trazado_1051492" data-name="Trazado 1051492" d="M82.863,242.936H38.371a4.242,4.242,0,0,1-4.237-4.237V205.859a1.059,1.059,0,1,1,2.119,0V238.7a2.121,2.121,0,0,0,2.119,2.119H82.863a1.059,1.059,0,0,1,0,2.119Z" transform="translate(-34.134 -179.376)"/>
        <path id="Trazado_1051493" data-name="Trazado 1051493" d="M79.685,167.372a1.059,1.059,0,0,1-1.059-1.059v-2.119a2.121,2.121,0,0,0-2.119-2.119H57.015A4.24,4.24,0,0,1,53.5,160.2l-2.355-3.532a2.121,2.121,0,0,0-1.767-.948H38.371a2.121,2.121,0,0,0-2.119,2.119v3.178a1.059,1.059,0,0,1-2.119,0v-3.178a4.242,4.242,0,0,1,4.237-4.237H49.378a4.236,4.236,0,0,1,3.53,1.891l2.351,3.528a2.121,2.121,0,0,0,1.757.937H76.507a4.242,4.242,0,0,1,4.237,4.237v2.119a1.059,1.059,0,0,1-1.059,1.059Z" transform="translate(-34.134 -134.533)"/>
        <path id="Trazado_1051494" data-name="Trazado 1051494" d="M69.326,21.187a1.059,1.059,0,0,1-1.059-1.059V4.237A4.242,4.242,0,0,1,72.5,0h30.72a1.059,1.059,0,1,1,0,2.119H72.5a2.121,2.121,0,0,0-2.119,2.119v15.89A1.059,1.059,0,0,1,69.326,21.187Z" transform="translate(-64.03)"/>
        <path id="Trazado_1051495" data-name="Trazado 1051495" d="M394.653,134.063h-1.059a1.059,1.059,0,1,1,0-2.119h1.059a2.121,2.121,0,0,0,2.119-2.119V86.393a1.059,1.059,0,1,1,2.119,0v43.432A4.242,4.242,0,0,1,394.653,134.063Z" transform="translate(-348.042 -74.741)"/>
        <path id="Trazado_1051496" data-name="Trazado 1051496" d="M398.889,280.306H396.77a4.242,4.242,0,0,1-4.237-4.237V248.526a1.059,1.059,0,0,1,2.119,0v27.543a2.121,2.121,0,0,0,2.119,2.119h2.119a2.121,2.121,0,0,0,2.119-2.119V251.7a2.121,2.121,0,0,0-2.119-2.119H397.83a1.059,1.059,0,1,1,0-2.119h1.059a4.242,4.242,0,0,1,4.237,4.237v24.365A4.242,4.242,0,0,1,398.889,280.306Z" transform="translate(-348.041 -216.747)"/>
        <path id="Trazado_1051497" data-name="Trazado 1051497" d="M352.987,12.713h-7.415a4.242,4.242,0,0,1-4.237-4.237V1.06a1.059,1.059,0,0,1,1.808-.749L353.736,10.9a1.059,1.059,0,0,1-.749,1.808Zm-9.534-9.1V8.475a2.121,2.121,0,0,0,2.119,2.119h4.858Z" transform="translate(-303.198 -0.001)"/>
        <path id="Trazado_1051498" data-name="Trazado 1051498" d="M135.3,70.386H111.993a1.059,1.059,0,1,1,0-2.119H135.3a1.059,1.059,0,0,1,0,2.119Z" transform="translate(-101.4 -59.792)"/>
        <path id="Trazado_1051499" data-name="Trazado 1051499" d="M135.3,104.52H111.993a1.059,1.059,0,1,1,0-2.119H135.3a1.059,1.059,0,0,1,0,2.119Z" transform="translate(-101.4 -89.689)"/>
        <path id="Trazado_1051500" data-name="Trazado 1051500" d="M210.038,138.653H197.326a1.059,1.059,0,0,1,0-2.119h12.712a1.059,1.059,0,0,1,0,2.119Z" transform="translate(-176.14 -119.585)"/>
        <path id="Trazado_1051501" data-name="Trazado 1051501" d="M224.987,172.786H214.393a1.059,1.059,0,0,1,0-2.119h10.593a1.059,1.059,0,0,1,0,2.119Z" transform="translate(-191.088 -149.48)"/>
        <path id="Trazado_1051502" data-name="Trazado 1051502" d="M116.053,313.5H88.511a3.181,3.181,0,0,1-3.178-3.178v-8.475a3.181,3.181,0,0,1,3.178-3.178h27.543a3.181,3.181,0,0,1,3.178,3.178v8.475A3.181,3.181,0,0,1,116.053,313.5ZM88.511,300.785a1.061,1.061,0,0,0-1.059,1.059v8.475a1.061,1.061,0,0,0,1.059,1.059h27.543a1.061,1.061,0,0,0,1.059-1.059v-8.475a1.061,1.061,0,0,0-1.059-1.059Z" transform="translate(-78.977 -261.59)"/>
        <path id="Trazado_1051503" data-name="Trazado 1051503" d="M137.593,339.157a1.059,1.059,0,0,1-1.059-1.059V333.86a1.059,1.059,0,1,1,2.119,0V338.1A1.059,1.059,0,0,1,137.593,339.157Z" transform="translate(-123.822 -291.487)"/>
        <path id="Trazado_1051504" data-name="Trazado 1051504" d="M120.525,345.578a1.059,1.059,0,0,1-.475-2.007l4.237-2.119a1.06,1.06,0,0,1,.948,1.9L121,345.467A1.056,1.056,0,0,1,120.525,345.578Z" transform="translate(-108.871 -298.968)"/>
        <path id="Trazado_1051505" data-name="Trazado 1051505" d="M124.74,345.56a1.055,1.055,0,0,1-.473-.112l-4.237-2.119a1.059,1.059,0,1,1,.948-1.9l4.237,2.119a1.059,1.059,0,0,1-.475,2.007Z" transform="translate(-108.851 -298.949)"/>
        <path id="Trazado_1051506" data-name="Trazado 1051506" d="M214.393,339.157a1.059,1.059,0,0,1-1.059-1.059V333.86a1.059,1.059,0,1,1,2.119,0V338.1A1.059,1.059,0,0,1,214.393,339.157Z" transform="translate(-191.088 -291.487)"/>
        <path id="Trazado_1051507" data-name="Trazado 1051507" d="M197.325,345.578a1.059,1.059,0,0,1-.475-2.007l4.237-2.119a1.06,1.06,0,0,1,.948,1.9l-4.237,2.119A1.056,1.056,0,0,1,197.325,345.578Z" transform="translate(-176.137 -298.968)"/>
        <path id="Trazado_1051508" data-name="Trazado 1051508" d="M201.54,345.56a1.055,1.055,0,0,1-.473-.112l-4.237-2.119a1.059,1.059,0,1,1,.948-1.9l4.237,2.119a1.059,1.059,0,0,1-.475,2.007Z" transform="translate(-176.117 -298.949)"/>
        <path id="Trazado_1051509" data-name="Trazado 1051509" d="M291.193,339.157a1.059,1.059,0,0,1-1.059-1.059V333.86a1.059,1.059,0,1,1,2.119,0V338.1A1.059,1.059,0,0,1,291.193,339.157Z" transform="translate(-258.354 -291.487)"/>
        <path id="Trazado_1051510" data-name="Trazado 1051510" d="M274.125,345.578a1.059,1.059,0,0,1-.475-2.007l4.237-2.119a1.06,1.06,0,0,1,.948,1.9l-4.237,2.119A1.057,1.057,0,0,1,274.125,345.578Z" transform="translate(-243.403 -298.968)"/>
        <path id="Trazado_1051511" data-name="Trazado 1051511" d="M278.34,345.56a1.055,1.055,0,0,1-.473-.112l-4.237-2.119a1.059,1.059,0,1,1,.948-1.9l4.237,2.119a1.059,1.059,0,0,1-.475,2.007Z" transform="translate(-243.383 -298.949)"/>
      </g>
    </g>
  </g>
</svg>
