<svg xmlns="http://www.w3.org/2000/svg" xmlns:xlink="http://www.w3.org/1999/xlink" width="113" height="113" viewBox="0 0 113 113">
  <defs>
    <filter id="Trazado_982547" x="0" y="0" width="113" height="113" filterUnits="userSpaceOnUse">
      <feOffset dy="3" input="SourceAlpha"/>
      <feGaussianBlur stdDeviation="3" result="blur"/>
      <feFlood flood-opacity="0.161"/>
      <feComposite operator="in" in2="blur"/>
      <feComposite in="SourceGraphic"/>
    </filter>
  </defs>
  <g id="Grupo_1224658" data-name="Grupo 1224658" transform="translate(9 6)">
    <g id="Grupo_1224578" data-name="Grupo 1224578" transform="translate(0 0)">
      <g id="Grupo_1224449" data-name="Grupo 1224449" transform="translate(0)">
        <g id="Grupo_1224084" data-name="Grupo 1224084">
          <g id="Grupo_1223183" data-name="Grupo 1223183">
            <g id="Grupo_1211217" data-name="Grupo 1211217">
              <g id="Grupo_1210736" data-name="Grupo 1210736">
                <g id="Grupo_1210537" data-name="Grupo 1210537">
                  <g id="Grupo_1164202" data-name="Grupo 1164202">
                    <g id="Grupo_1158168" data-name="Grupo 1158168">
                      <g id="Grupo_1152576" data-name="Grupo 1152576">
                        <g id="Grupo_1148633" data-name="Grupo 1148633">
                          <g id="Grupo_1148525" data-name="Grupo 1148525">
                            <g transform="matrix(1, 0, 0, 1, -9, -6)" filter="url(#Trazado_982547)">
                              <g id="Trazado_982547-2" data-name="Trazado 982547" transform="translate(9 6)" fill="#fef9e5">
                                <path d="M 47.5 93.5 C 41.28937149047852 93.5 35.26533508300781 92.28397369384766 29.59518623352051 89.88570404052734 C 24.11771965026855 87.56893157958984 19.19813346862793 84.25196075439453 14.97309303283691 80.02691650390625 C 10.74804019927979 75.80186462402344 7.431066513061523 70.88229370117188 5.114293098449707 65.40481567382812 C 2.716026782989502 59.73468017578125 1.5 53.71062850952148 1.5 47.5 C 1.5 41.28937149047852 2.716026782989502 35.26533508300781 5.114293098449707 29.59518623352051 C 7.431066513061523 24.11771965026855 10.74804019927979 19.19813346862793 14.97309303283691 14.97309303283691 C 19.19813346862793 10.74804019927979 24.11771965026855 7.431066513061523 29.59518623352051 5.114293098449707 C 35.26533508300781 2.716026782989502 41.28937149047852 1.5 47.5 1.5 C 53.71062850952148 1.5 59.73468017578125 2.716026782989502 65.40481567382812 5.114293098449707 C 70.88229370117188 7.431066513061523 75.80186462402344 10.74804019927979 80.02691650390625 14.97309303283691 C 84.25196075439453 19.19813346862793 87.56893157958984 24.11771965026855 89.88570404052734 29.59518623352051 C 92.28397369384766 35.26533508300781 93.5 41.28937149047852 93.5 47.5 C 93.5 53.71062850952148 92.28397369384766 59.73468017578125 89.88570404052734 65.40481567382812 C 87.56893157958984 70.88229370117188 84.25196075439453 75.80186462402344 80.02691650390625 80.02691650390625 C 75.80186462402344 84.25196075439453 70.88229370117188 87.56893157958984 65.40481567382812 89.88570404052734 C 59.73468017578125 92.28397369384766 53.71062850952148 93.5 47.5 93.5 Z" stroke="none"/>
                                <path d="M 47.5 3 C 41.49121475219727 3 35.66376876831055 4.176155090332031 30.17950439453125 6.495796203613281 C 24.88084411621094 8.736953735351562 20.12152099609375 11.94598388671875 16.03375244140625 16.03375244140625 C 11.94598388671875 20.12152099609375 8.736953735351562 24.88084411621094 6.495796203613281 30.17950439453125 C 4.176155090332031 35.66376876831055 3 41.49121475219727 3 47.5 C 3 53.50878524780273 4.176155090332031 59.33623123168945 6.495796203613281 64.82049560546875 C 8.736953735351562 70.11915588378906 11.94598388671875 74.87847900390625 16.03375244140625 78.96624755859375 C 20.12152099609375 83.05401611328125 24.88084411621094 86.26304626464844 30.17950439453125 88.50419616699219 C 35.66376876831055 90.82384490966797 41.49121475219727 92 47.5 92 C 53.50878524780273 92 59.33623123168945 90.82384490966797 64.82049560546875 88.50419616699219 C 70.11915588378906 86.26304626464844 74.87847900390625 83.05401611328125 78.96624755859375 78.96624755859375 C 83.05401611328125 74.87847900390625 86.26304626464844 70.11915588378906 88.50419616699219 64.82049560546875 C 90.82384490966797 59.33623123168945 92 53.50878524780273 92 47.5 C 92 41.49121475219727 90.82384490966797 35.66376876831055 88.50419616699219 30.17950439453125 C 86.26304626464844 24.88084411621094 83.05401611328125 20.12152099609375 78.96624755859375 16.03375244140625 C 74.87847900390625 11.94598388671875 70.11915588378906 8.736953735351562 64.82049560546875 6.495796203613281 C 59.33623123168945 4.176155090332031 53.50878524780273 3 47.5 3 M 47.5 0 C 73.7335205078125 0 95 21.2664794921875 95 47.5 C 95 73.7335205078125 73.7335205078125 95 47.5 95 C 21.2664794921875 95 0 73.7335205078125 0 47.5 C 0 21.2664794921875 21.2664794921875 0 47.5 0 Z" stroke="none" fill="#f6c810"/>
                              </g>
                            </g>
                          </g>
                        </g>
                      </g>
                    </g>
                  </g>
                </g>
              </g>
            </g>
          </g>
        </g>
      </g>
    </g>
    <g id="coding_1878472" transform="translate(18.912 15.65)">
      <path id="Trazado_1051553" data-name="Trazado 1051553" d="M2,28H45.92V60.462H2Z" transform="translate(-0.045 -1.221)" fill="#e6e9ed"/>
      <path id="Trazado_1051554" data-name="Trazado 1051554" d="M27.5,25.452l.277.277-1.27,1.91H2V20H29.689L27.5,22.186a2.305,2.305,0,0,0,0,3.265Z" transform="translate(-0.045 -0.859)" fill="#a0d468"/>
      <path id="Trazado_1051555" data-name="Trazado 1051555" d="M56.6,15.825a2.305,2.305,0,0,1,0,3.265l-2.186,2.186L42,8.864l2.186-2.186a2.305,2.305,0,0,1,3.265,0l.277.277,8.593,8.593Z" transform="translate(-1.854 -0.226)" fill="#fcd770"/>
      <path id="Trazado_1051556" data-name="Trazado 1051556" d="M50.915,24.412,47.1,28.231,41.09,34.237a2.305,2.305,0,0,1-3.265,0l-.277-.277-8.593-8.593-.277-.277a2.305,2.305,0,0,1,0-3.265l2.186-2.186L38.5,12Z" transform="translate(-1.221 -0.497)" fill="#fcd770"/>
      <path id="Trazado_1051557" data-name="Trazado 1051557" d="M0,0H4.051V17.554H0Z" transform="translate(37.277 11.506) rotate(-45)" fill="#e6e9ed"/>
      <path id="Trazado_1051558" data-name="Trazado 1051558" d="M61.367,10.593l-4.774,4.774L48,6.774,52.774,2a8.606,8.606,0,0,1,8.593,8.593Z" transform="translate(-2.125 -0.045)" fill="#aab2bd"/>
      <path id="Trazado_1051559" data-name="Trazado 1051559" d="M28.729,26l8.593,8.593-7.59,5.06a3.95,3.95,0,0,1-2.215.668,3.812,3.812,0,0,1-1.6-.344,3.909,3.909,0,0,1-1.222-.831l-.516-.516a3.908,3.908,0,0,1-.831-1.222,3.812,3.812,0,0,1-.344-1.6,3.95,3.95,0,0,1,.668-2.215l3.79-5.681Z" transform="translate(-0.995 -1.131)" fill="#aab2bd"/>
      <path id="Trazado_1051560" data-name="Trazado 1051560" d="M24.554,39.688a3.908,3.908,0,0,0,1.222.831l-4.822,3.208H20v-.955l3.208-4.822a3.908,3.908,0,0,0,.831,1.222Z" transform="translate(-0.859 -1.671)" fill="#fcd770"/>
      <path id="Trazado_1051561" data-name="Trazado 1051561" d="M60.2,10.548A9.559,9.559,0,0,0,50.648,1h-.4L45.833,5.421a3.35,3.35,0,0,0-4.172.353L29.248,18.186H1V60.2H46.829V28.129l8.593-8.593a3.24,3.24,0,0,0,.742-1.168l.1.1a3.656,3.656,0,0,1,0,5.169l-6.65,6.65a2.98,2.98,0,0,0,2.107,5.087,3,3,0,0,0,2.107-.873l1.317-1.317-1.35-1.35-1.317,1.317a1.071,1.071,0,0,1-1.827-.757,1.062,1.062,0,0,1,.313-.757l6.65-6.65a5.564,5.564,0,0,0,0-7.869l-1.794-1.794L60.2,10.943ZM22.5,38.172l.524.524c.053.053.118.092.174.143l-2.524,1.683L22.357,38c.051.055.089.119.143.174Zm1.873-.827-.524-.524a3.041,3.041,0,0,1-.379-3.836l4.411-6.618,6.946,6.946L28.21,37.726a3.1,3.1,0,0,1-3.836-.38Zm3.755-13.431a1.351,1.351,0,0,1,0-1.91l9.153-9.153L48.344,23.915l-9.153,9.152a1.381,1.381,0,0,1-1.91,0ZM38.632,11.5l1.514-1.514L51.208,21.05l-1.514,1.514ZM27.338,20.1l-.559.559a3.23,3.23,0,0,0-.252,4.3l-.577.866H2.91V20.1ZM44.92,58.287H2.91V27.734H24.677l-2.795,4.192a4.8,4.8,0,0,0-.585,4.219l-3.111,4.666v2.2h2.2L25.051,39.9a4.8,4.8,0,0,0,4.218-.585l6.968-4.645a3.23,3.23,0,0,0,4.3-.252l4.379-4.379Zm9.153-40.1L52.558,19.7,41.5,8.638,43.01,7.124a1.383,1.383,0,0,1,1.91,0l9.153,9.153a1.351,1.351,0,0,1,0,1.91Zm.4-4.214L47.225,6.729l3.81-3.81a7.648,7.648,0,0,1,7.243,7.242Z" transform="translate(0)"/>
      <path id="Trazado_1051562" data-name="Trazado 1051562" d="M5,23H6.91v1.91H5Z" transform="translate(-0.181 -0.995)"/>
      <path id="Trazado_1051563" data-name="Trazado 1051563" d="M9,23h1.91v1.91H9Z" transform="translate(-0.362 -0.995)"/>
      <path id="Trazado_1051564" data-name="Trazado 1051564" d="M13,23h1.91v1.91H13Z" transform="translate(-0.543 -0.995)"/>
      <path id="Trazado_1051565" data-name="Trazado 1051565" d="M5,31H6.91v1.91H5Z" transform="translate(-0.181 -1.357)"/>
      <path id="Trazado_1051566" data-name="Trazado 1051566" d="M18.548,34.819H10.91V31H9v5.729h9.548Z" transform="translate(-0.362 -1.357)"/>
      <path id="Trazado_1051567" data-name="Trazado 1051567" d="M5,35H6.91v1.91H5Z" transform="translate(-0.181 -1.538)"/>
      <path id="Trazado_1051568" data-name="Trazado 1051568" d="M5,41H6.91v1.91H5Z" transform="translate(-0.181 -1.809)"/>
      <path id="Trazado_1051569" data-name="Trazado 1051569" d="M16.638,41H9V58.186h1.91V42.91h5.729Z" transform="translate(-0.362 -1.809)"/>
      <path id="Trazado_1051570" data-name="Trazado 1051570" d="M5,45H6.91v1.91H5Z" transform="translate(-0.181 -1.99)"/>
      <path id="Trazado_1051571" data-name="Trazado 1051571" d="M5,49H6.91v1.91H5Z" transform="translate(-0.181 -2.171)"/>
      <path id="Trazado_1051572" data-name="Trazado 1051572" d="M5,53H6.91v1.91H5Z" transform="translate(-0.181 -2.351)"/>
      <path id="Trazado_1051573" data-name="Trazado 1051573" d="M5,57H6.91v1.91H5Z" transform="translate(-0.181 -2.532)"/>
      <path id="Trazado_1051574" data-name="Trazado 1051574" d="M13,31h5.729v1.91H13Z" transform="translate(-0.543 -1.357)"/>
      <path id="Trazado_1051575" data-name="Trazado 1051575" d="M13,45h3.819v1.91H13Z" transform="translate(-0.543 -1.99)"/>
      <path id="Trazado_1051576" data-name="Trazado 1051576" d="M13,49H24.457v1.91H13Z" transform="translate(-0.543 -2.171)"/>
      <path id="Trazado_1051577" data-name="Trazado 1051577" d="M13,53H24.457v1.91H13Z" transform="translate(-0.543 -2.351)"/>
      <path id="Trazado_1051578" data-name="Trazado 1051578" d="M13,57H24.457v1.91H13Z" transform="translate(-0.543 -2.532)"/>
      <path id="Trazado_1051579" data-name="Trazado 1051579" d="M40.293,49.643l3.144,3.144-3.144,3.144,1.35,1.35,4.494-4.494-4.494-4.494Z" transform="translate(-1.777 -2.139)"/>
      <path id="Trazado_1051580" data-name="Trazado 1051580" d="M32.08,48.293l-4.494,4.494,4.494,4.494,1.35-1.35-3.144-3.144,3.144-3.144Z" transform="translate(-1.202 -2.139)"/>
      <path id="Trazado_1051581" data-name="Trazado 1051581" d="M0,0H11.616V1.91H0Z" transform="translate(33.469 56.253) rotate(-80.5)"/>
      <path id="Trazado_1051582" data-name="Trazado 1051582" d="M43,37h1.91v1.91H43Z" transform="translate(-1.899 -1.628)"/>
      <path id="Trazado_1051583" data-name="Trazado 1051583" d="M43,41h1.91v1.91H43Z" transform="translate(-1.899 -1.809)"/>
      <path id="Trazado_1051584" data-name="Trazado 1051584" d="M43,45h1.91v1.91H43Z" transform="translate(-1.899 -1.99)"/>
    </g>
  </g>
</svg>
