<svg xmlns="http://www.w3.org/2000/svg" xmlns:xlink="http://www.w3.org/1999/xlink" width="113" height="113" viewBox="0 0 113 113">
  <defs>
    <filter id="Trazado_982547" x="0" y="0" width="113" height="113" filterUnits="userSpaceOnUse">
      <feOffset dy="3" input="SourceAlpha"/>
      <feGaussianBlur stdDeviation="3" result="blur"/>
      <feFlood flood-opacity="0.161"/>
      <feComposite operator="in" in2="blur"/>
      <feComposite in="SourceGraphic"/>
    </filter>
  </defs>
  <g id="Grupo_1224678" data-name="Grupo 1224678" transform="translate(-5325.98 -6461.751)">
    <g id="Grupo_1224581" data-name="Grupo 1224581" transform="translate(4970.49 -602)">
      <g id="Grupo_1224449" data-name="Grupo 1224449" transform="translate(364.49 7069.751)">
        <g id="Grupo_1224084" data-name="Grupo 1224084" transform="translate(0 0)">
          <g id="Grupo_1223183" data-name="Grupo 1223183">
            <g id="Grupo_1211217" data-name="Grupo 1211217">
              <g id="Grupo_1210736" data-name="Grupo 1210736">
                <g id="Grupo_1210537" data-name="Grupo 1210537">
                  <g id="Grupo_1164202" data-name="Grupo 1164202">
                    <g id="Grupo_1158168" data-name="Grupo 1158168">
                      <g id="Grupo_1152576" data-name="Grupo 1152576">
                        <g id="Grupo_1148633" data-name="Grupo 1148633">
                          <g id="Grupo_1148525" data-name="Grupo 1148525">
                            <g transform="matrix(1, 0, 0, 1, -9, -6)" filter="url(#Trazado_982547)">
                              <g id="Trazado_982547-2" data-name="Trazado 982547" transform="translate(9 6)" fill="#fef9e5">
                                <path d="M 47.49999618530273 93.5 C 41.28936767578125 93.5 35.26533126831055 92.28396606445312 29.59518241882324 89.88570404052734 C 24.11771583557129 87.56893157958984 19.19812965393066 84.251953125 14.97308921813965 80.02690124511719 C 10.74803638458252 75.80186462402344 7.431062698364258 70.88227844238281 5.114289283752441 65.40480804443359 C 2.716022968292236 59.73466110229492 1.499996185302734 53.71062469482422 1.499996185302734 47.49999618530273 C 1.499996185302734 41.28936767578125 2.716022968292236 35.26533126831055 5.114289283752441 29.59518241882324 C 7.431062698364258 24.11771583557129 10.74803638458252 19.19812965393066 14.97308921813965 14.97308921813965 C 19.19812965393066 10.74803638458252 24.11771583557129 7.431062698364258 29.59518241882324 5.114289283752441 C 35.26533126831055 2.716022968292236 41.28936767578125 1.499996185302734 47.49999618530273 1.499996185302734 C 53.71062469482422 1.499996185302734 59.73466110229492 2.716022968292236 65.40480804443359 5.114289283752441 C 70.88227844238281 7.431062698364258 75.80186462402344 10.74803638458252 80.02690124511719 14.97308921813965 C 84.251953125 19.19812965393066 87.56893157958984 24.11771583557129 89.88570404052734 29.59518241882324 C 92.28396606445312 35.26533126831055 93.5 41.28936767578125 93.5 47.49999618530273 C 93.5 53.71062469482422 92.28396606445312 59.73466110229492 89.88570404052734 65.40480804443359 C 87.56893157958984 70.88227844238281 84.251953125 75.80186462402344 80.02690124511719 80.02690124511719 C 75.80186462402344 84.251953125 70.88227844238281 87.56893157958984 65.40480804443359 89.88570404052734 C 59.73466110229492 92.28396606445312 53.71062469482422 93.5 47.49999618530273 93.5 Z" stroke="none"/>
                                <path d="M 47.49999618530273 2.999992370605469 C 41.4912109375 2.999992370605469 35.66376495361328 4.1761474609375 30.17950439453125 6.495796203613281 C 24.88084411621094 8.736953735351562 20.12152099609375 11.94598388671875 16.03375244140625 16.03375244140625 C 11.94598388671875 20.12152099609375 8.736953735351562 24.88084411621094 6.495796203613281 30.17950439453125 C 4.1761474609375 35.66376495361328 2.999992370605469 41.4912109375 2.999992370605469 47.49999618530273 C 2.999992370605469 53.50878143310547 4.1761474609375 59.33622741699219 6.495796203613281 64.82048797607422 C 8.736953735351562 70.11914825439453 11.94598388671875 74.87847137451172 16.03375244140625 78.96623992919922 C 20.12152099609375 83.05400848388672 24.88084411621094 86.26304626464844 30.17950439453125 88.50419616699219 C 35.66376495361328 90.82384490966797 41.4912109375 92 47.49999618530273 92 C 53.50878143310547 92 59.33622741699219 90.82384490966797 64.82048797607422 88.50419616699219 C 70.11914825439453 86.26304626464844 74.87847137451172 83.05400848388672 78.96623992919922 78.96623992919922 C 83.05400848388672 74.87847137451172 86.26304626464844 70.11914825439453 88.50419616699219 64.82048797607422 C 90.82384490966797 59.33622741699219 92 53.50878143310547 92 47.49999618530273 C 92 41.4912109375 90.82384490966797 35.66376495361328 88.50419616699219 30.17950439453125 C 86.26304626464844 24.88084411621094 83.05400848388672 20.12152099609375 78.96623992919922 16.03375244140625 C 74.87847137451172 11.94598388671875 70.11914825439453 8.736953735351562 64.82048797607422 6.495796203613281 C 59.33622741699219 4.1761474609375 53.50878143310547 2.999992370605469 47.49999618530273 2.999992370605469 M 47.49999618530273 -7.62939453125e-06 C 73.7335205078125 -7.62939453125e-06 95 21.26647186279297 95 47.49999618530273 C 95 73.7335205078125 73.7335205078125 95 47.49999618530273 95 C 21.26647186279297 95 -7.62939453125e-06 73.7335205078125 -7.62939453125e-06 47.49999618530273 C -7.62939453125e-06 21.26647186279297 21.26647186279297 -7.62939453125e-06 47.49999618530273 -7.62939453125e-06 Z" stroke="none" fill="#f6c810"/>
                              </g>
                            </g>
                          </g>
                        </g>
                      </g>
                    </g>
                  </g>
                </g>
              </g>
            </g>
          </g>
        </g>
      </g>
    </g>
    <g id="_x39_56_x2C__Database_x2C__Optimization_x2C__Search" transform="translate(5312.812 6432.747)">
      <g id="Grupo_1224677" data-name="Grupo 1224677" transform="translate(37.305 52.329)">
        <path id="Trazado_1051610" data-name="Trazado 1051610" d="M100.193,73.559a20.6,20.6,0,1,0-2.948,31.58l2.948,2.948,4.856-4.856-2.858-2.857A20.6,20.6,0,0,0,100.193,73.559Z" transform="translate(-60.922 -65.216)" fill="#57606f"/>
        <path id="Trazado_1051611" data-name="Trazado 1051611" d="M132.913,114.912a14.5,14.5,0,1,0,0,20.5A14.494,14.494,0,0,0,132.913,114.912Z" transform="translate(-97.958 -102.252)" fill="#d7deed"/>
        <circle id="Elipse_12839" data-name="Elipse 12839" cx="4.297" cy="4.297" r="4.297" transform="translate(50.489 5.371)" fill="#4380a0"/>
        <path id="Trazado_1051612" data-name="Trazado 1051612" d="M90.33,367.5a2.83,2.83,0,1,1-2.83,2.83A2.829,2.829,0,0,1,90.33,367.5Z" transform="translate(-80.216 -322.75)" fill="#4380a0"/>
        <path id="Trazado_1051613" data-name="Trazado 1051613" d="M179.047,176.34a5.205,5.205,0,1,1-5.208,5.208A5.214,5.214,0,0,1,179.047,176.34Zm2.173,5.208a2.176,2.176,0,1,0-2.173,2.173A2.182,2.182,0,0,0,181.22,181.548Z" transform="translate(-154.34 -158.635)" fill="#07cc66"/>
        <path id="Trazado_1051614" data-name="Trazado 1051614" d="M153.145,143.216v2.173l-3.244.724a8.258,8.258,0,0,1-1.089,2.63l1.78,2.813-1.535,1.535-2.813-1.78a8.2,8.2,0,0,1-2.63,1.089l-.724,3.244h-2.173l-.726-3.244a8.264,8.264,0,0,1-2.629-1.089l-2.813,1.78-1.536-1.535,1.781-2.813a8.215,8.215,0,0,1-1.089-2.63l-3.244-.724v-2.173l3.244-.726a8.285,8.285,0,0,1,1.089-2.63l-1.781-2.811,1.536-1.536,2.813,1.786a8.24,8.24,0,0,1,2.629-1.094l.726-3.244h2.173l.724,3.244a8.234,8.234,0,0,1,2.63,1.094l2.813-1.786,1.535,1.536-1.78,2.811a8.282,8.282,0,0,1,1.089,2.63Zm-6.138,1.089a5.205,5.205,0,1,0-5.2,5.2A5.214,5.214,0,0,0,147.008,144.305Z" transform="translate(-117.098 -121.393)" fill="#fb2b3a"/>
        <path id="Trazado_1051615" data-name="Trazado 1051615" d="M310.918,306.98a1.908,1.908,0,0,1,0,2.7l-.27.27-7.013,7.013-.27.27a1.907,1.907,0,1,1-2.7-2.7l1.348-1.348,4.856-4.856,1.348-1.348a1.908,1.908,0,0,1,2.7,0Z" transform="translate(-262.745 -270.312)" fill="#a85120"/>
        <path id="Trazado_1051616" data-name="Trazado 1051616" d="M342.025,341.322a4.959,4.959,0,1,1-7.013,7.013l-9.982-9.982,7.013-7.013Zm-2.159,4.856a1.907,1.907,0,1,0-2.7,0A1.907,1.907,0,0,0,339.866,346.177Z" transform="translate(-284.14 -291.706)" fill="#c86d36"/>
        <circle id="Elipse_12840" data-name="Elipse 12840" cx="1.074" cy="1.074" r="1.074" transform="translate(60.157 41.895)"/>
        <circle id="Elipse_12841" data-name="Elipse 12841" cx="1.074" cy="1.074" r="1.074" transform="translate(59.082 18.262)"/>
        <circle id="Elipse_12842" data-name="Elipse 12842" cx="1.074" cy="1.074" r="1.074" transform="translate(53.711 29.004)"/>
        <circle id="Elipse_12843" data-name="Elipse 12843" cx="1.074" cy="1.074" r="1.074" transform="translate(44.043 3.223)"/>
        <circle id="Elipse_12844" data-name="Elipse 12844" cx="1.074" cy="1.074" r="1.074" transform="translate(31.152 46.192)"/>
        <circle id="Elipse_12845" data-name="Elipse 12845" cx="1.074" cy="1.074" r="1.074" transform="translate(6.445 0)"/>
        <circle id="Elipse_12846" data-name="Elipse 12846" cx="1.074" cy="1.074" r="1.074" transform="translate(1.074 37.598)"/>
        <circle id="Elipse_12847" data-name="Elipse 12847" cx="1.074" cy="1.074" r="1.074" transform="translate(0 11.816)"/>
        <path id="Trazado_1051617" data-name="Trazado 1051617" d="M193.136,198.517a2.883,2.883,0,1,1,2.881-2.881A2.887,2.887,0,0,1,193.136,198.517Zm0-4.352a1.469,1.469,0,1,0,1.466,1.471A1.473,1.473,0,0,0,193.136,194.165Z" transform="translate(-168.429 -172.724)"/>
        <path id="Trazado_1051618" data-name="Trazado 1051618" d="M174.755,183.165a5.913,5.913,0,1,1,5.91-5.91A5.919,5.919,0,0,1,174.755,183.165Zm0-10.41a4.5,4.5,0,1,0,4.495,4.5A4.506,4.506,0,0,0,174.755,172.755Z" transform="translate(-150.047 -154.343)"/>
        <path id="Trazado_1051619" data-name="Trazado 1051619" d="M138.6,152.059h-2.173a.707.707,0,0,1-.69-.553l-.631-2.818a8.947,8.947,0,0,1-2.023-.84l-2.445,1.547a.708.708,0,0,1-.878-.1l-1.536-1.535a.707.707,0,0,1-.1-.879l1.548-2.444a8.9,8.9,0,0,1-.839-2.025l-2.818-.629a.707.707,0,0,1-.553-.69v-2.173a.707.707,0,0,1,.553-.69l2.818-.631a8.976,8.976,0,0,1,.839-2.024l-1.548-2.444a.708.708,0,0,1,.1-.879l1.536-1.536a.708.708,0,0,1,.879-.1l2.443,1.551a8.936,8.936,0,0,1,2.024-.841l.631-2.82a.707.707,0,0,1,.69-.553H138.6a.707.707,0,0,1,.69.553l.629,2.819a8.934,8.934,0,0,1,2.025.841l2.443-1.551a.707.707,0,0,1,.88.1l1.535,1.536a.708.708,0,0,1,.1.878l-1.547,2.444a8.986,8.986,0,0,1,.84,2.024l2.818.631a.707.707,0,0,1,.553.69V141.1a.707.707,0,0,1-.553.69l-2.818.629a8.942,8.942,0,0,1-.84,2.024l1.547,2.445a.708.708,0,0,1-.1.878l-1.535,1.535a.707.707,0,0,1-.878.1l-2.444-1.547a8.887,8.887,0,0,1-2.025.839l-.629,2.817a.709.709,0,0,1-.691.553Zm-1.607-1.415h1.04l.6-2.691a.708.708,0,0,1,.537-.536,7.473,7.473,0,0,0,2.4-1,.707.707,0,0,1,.758,0l2.334,1.477.735-.735-1.477-2.334a.707.707,0,0,1,0-.756,7.549,7.549,0,0,0,1-2.405.707.707,0,0,1,.536-.537l2.691-.6v-1.04l-2.691-.6a.707.707,0,0,1-.536-.537,7.579,7.579,0,0,0-1-2.406.708.708,0,0,1,0-.756l1.477-2.333-.734-.735-2.334,1.482a.707.707,0,0,1-.76,0,7.529,7.529,0,0,0-2.405-1,.707.707,0,0,1-.534-.536l-.6-2.691h-1.04l-.6,2.691a.708.708,0,0,1-.534.536,7.537,7.537,0,0,0-2.4,1,.708.708,0,0,1-.76,0l-2.334-1.482-.735.735,1.478,2.333a.708.708,0,0,1,0,.756,7.577,7.577,0,0,0-1,2.406.707.707,0,0,1-.536.537l-2.691.6v1.04l2.691.6a.707.707,0,0,1,.536.537,7.5,7.5,0,0,0,1,2.4.707.707,0,0,1,0,.758l-1.478,2.334.736.735,2.335-1.477a.708.708,0,0,1,.757,0,7.551,7.551,0,0,0,2.4,1,.707.707,0,0,1,.537.536Z" transform="translate(-112.806 -117.1)"/>
        <path id="Trazado_1051620" data-name="Trazado 1051620" d="M334.225,346.2a5.629,5.629,0,0,1-4.006-1.66l-9.982-9.982a.707.707,0,1,1,1-1l9.981,9.982a4.252,4.252,0,0,0,6.013-6.013l-9.982-9.982a.707.707,0,0,1,1-1l9.982,9.982a5.667,5.667,0,0,1-4.008,9.674Z" transform="translate(-279.847 -287.413)"/>
        <path id="Trazado_1051621" data-name="Trazado 1051621" d="M81.409,105.2a21.308,21.308,0,1,1,17.475-9.137l2.433,2.432a.707.707,0,1,1-1,1l-2.858-2.857a.707.707,0,0,1-.068-.922,19.894,19.894,0,1,0-4.778,4.6.707.707,0,0,1,.9.084l2.948,2.948a.707.707,0,0,1-1,1l-2.539-2.539A21.2,21.2,0,0,1,81.409,105.2Z" transform="translate(-56.69 -60.982)"/>
        <path id="Trazado_1051622" data-name="Trazado 1051622" d="M297.723,314.2a2.615,2.615,0,0,1-1.848-4.465l7.552-7.552a2.615,2.615,0,1,1,3.7,3.7l-7.554,7.554A2.592,2.592,0,0,1,297.723,314.2Zm7.554-11.368a1.2,1.2,0,0,0-.851.353l-7.551,7.551a1.2,1.2,0,1,0,1.7,1.7l7.555-7.555a1.2,1.2,0,0,0-.848-2.048Z" transform="translate(-258.451 -266.019)"/>
        <path id="Trazado_1051623" data-name="Trazado 1051623" d="M118.37,136.075a15.206,15.206,0,1,1,10.751-4.454,15.1,15.1,0,0,1-10.751,4.454Zm0-28.994a13.792,13.792,0,1,0,9.75,4.039A13.7,13.7,0,0,0,118.37,107.081Z" transform="translate(-93.666 -97.961)"/>
        <path id="Trazado_1051624" data-name="Trazado 1051624" d="M404.492,413.425a2.615,2.615,0,1,1,1.849-.765A2.6,2.6,0,0,1,404.492,413.425Zm0-3.814a1.2,1.2,0,1,0,.848.351A1.192,1.192,0,0,0,404.492,409.611Z" transform="translate(-350.115 -357.688)"/>
        <path id="Trazado_1051625" data-name="Trazado 1051625" d="M146.971,458.915H93.207a.707.707,0,1,1,0-1.415h53.763a.707.707,0,1,1,0,1.415Z" transform="translate(-84.509 -400.016)"/>
        <path id="Trazado_1051626" data-name="Trazado 1051626" d="M94.382,438.915H68.207a.707.707,0,1,1,0-1.415H94.382a.707.707,0,1,1,0,1.415Z" transform="translate(-63.046 -382.846)"/>
        <path id="Trazado_1051627" data-name="Trazado 1051627" d="M183.015,418.915H163.207a.707.707,0,0,1,0-1.415h19.808a.707.707,0,0,1,0,1.415Z" transform="translate(-144.605 -365.676)"/>
        <path id="Trazado_1051628" data-name="Trazado 1051628" d="M86.037,369.574a3.537,3.537,0,1,1,3.537-3.537A3.541,3.541,0,0,1,86.037,369.574Zm0-5.659a2.122,2.122,0,1,0,2.122,2.122A2.125,2.125,0,0,0,86.037,363.915Z" transform="translate(-75.924 -318.457)"/>
        <path id="Trazado_1051629" data-name="Trazado 1051629" d="M392.452,97.4a4.952,4.952,0,1,1,4.952-4.952A4.957,4.957,0,0,1,392.452,97.4Zm0-8.489a3.537,3.537,0,1,0,3.537,3.537A3.541,3.541,0,0,0,392.452,88.915Z" transform="translate(-337.772 -82.365)"/>
      </g>
    </g>
  </g>
</svg>
