<svg xmlns="http://www.w3.org/2000/svg" xmlns:xlink="http://www.w3.org/1999/xlink" width="103" height="103" viewBox="0 0 103 103">
  <defs>
    <filter id="Trazado_982547" x="0" y="0" width="103" height="103" filterUnits="userSpaceOnUse">
      <feOffset dy="3" input="SourceAlpha"/>
      <feGaussianBlur stdDeviation="3" result="blur"/>
      <feFlood flood-opacity="0.161"/>
      <feComposite operator="in" in2="blur"/>
      <feComposite in="SourceGraphic"/>
    </filter>
  </defs>
  <g id="Grupo_1224615" data-name="Grupo 1224615" transform="translate(-191 -4543.5)">
    <g id="Grupo_1210959" data-name="Grupo 1210959" transform="translate(0 3351.888)">
      <g id="Grupo_1210290" data-name="Grupo 1210290" transform="translate(0 -2868)">
        <g id="Grupo_1207485" data-name="Grupo 1207485" transform="translate(0 396.112)">
          <g id="Grupo_1207313" data-name="Grupo 1207313" transform="translate(0 2919.5)">
            <g id="Grupo_1202212" data-name="Grupo 1202212" transform="translate(-80 -126.414)">
              <g id="Grupo_1174813" data-name="Grupo 1174813" transform="translate(280 876.414)">
                <g id="Grupo_1201680" data-name="Grupo 1201680">
                  <g id="Grupo_1201330" data-name="Grupo 1201330">
                    <g id="Grupo_1172010" data-name="Grupo 1172010">
                      <g id="Grupo_1171046" data-name="Grupo 1171046">
                        <g id="Grupo_1148525" data-name="Grupo 1148525">
                          <g transform="matrix(1, 0, 0, 1, -9, -6)" filter="url(#Trazado_982547)">
                            <g id="Trazado_982547-2" data-name="Trazado 982547" transform="translate(9 6)" fill="#f6ecfe">
                              <path d="M 42.5 83.5 C 36.96437835693359 83.5 31.59512901306152 82.41617584228516 26.54141235351562 80.27863311767578 C 21.65934181213379 78.21369171142578 17.27447128295898 75.25723266601562 13.50862312316895 71.49137878417969 C 9.742764472961426 67.72553253173828 6.786305904388428 63.34066009521484 4.721364498138428 58.45858764648438 C 2.583823442459106 53.40486907958984 1.5 48.03562164306641 1.5 42.5 C 1.5 36.96437835693359 2.583823442459106 31.59512901306152 4.721364498138428 26.54141235351562 C 6.786305904388428 21.65934181213379 9.742764472961426 17.27448272705078 13.50862312316895 13.50862312316895 C 17.27447128295898 9.742776870727539 21.65934181213379 6.786305904388428 26.54141235351562 4.721364498138428 C 31.59512901306152 2.583823442459106 36.96437835693359 1.5 42.5 1.5 C 48.03562164306641 1.5 53.40486907958984 2.583823442459106 58.45858764648438 4.721364498138428 C 63.34066009521484 6.786305904388428 67.72553253173828 9.742776870727539 71.49137878417969 13.50862312316895 C 75.25723266601562 17.27448272705078 78.21369171142578 21.65934181213379 80.27863311767578 26.54141235351562 C 82.41617584228516 31.59512901306152 83.5 36.96437835693359 83.5 42.5 C 83.5 48.03562164306641 82.41617584228516 53.40486907958984 80.27863311767578 58.45858764648438 C 78.21369171142578 63.34066009521484 75.25723266601562 67.72553253173828 71.49137878417969 71.49137878417969 C 67.72553253173828 75.25723266601562 63.34066009521484 78.21369171142578 58.45858764648438 80.27863311767578 C 53.40486907958984 82.41617584228516 48.03562164306641 83.5 42.5 83.5 Z" stroke="none"/>
                              <path d="M 42.5 3 C 37.16621398925781 3 31.99356079101562 4.043960571289062 27.125732421875 6.102882385253906 C 22.42246627807617 8.092185974121094 18.19785308837891 10.94070434570312 14.56928253173828 14.56928253173828 C 10.94070434570312 18.19785308837891 8.092185974121094 22.42246627807617 6.102882385253906 27.125732421875 C 4.043960571289062 31.99356079101562 3 37.16621398925781 3 42.5 C 3 47.83378601074219 4.043960571289062 53.00643920898438 6.102882385253906 57.874267578125 C 8.092185974121094 62.57753372192383 10.94070434570312 66.80214691162109 14.56928253173828 70.43071746826172 C 18.19785308837891 74.05929565429688 22.42246627807617 76.90781402587891 27.125732421875 78.89711761474609 C 31.99356079101562 80.95603942871094 37.16621398925781 82 42.5 82 C 47.83378601074219 82 53.00643920898438 80.95603942871094 57.874267578125 78.89711761474609 C 62.57753372192383 76.90781402587891 66.80214691162109 74.05929565429688 70.43071746826172 70.43071746826172 C 74.05929565429688 66.80214691162109 76.90781402587891 62.57753372192383 78.89711761474609 57.874267578125 C 80.95603942871094 53.00643920898438 82 47.83378601074219 82 42.5 C 82 37.16621398925781 80.95603942871094 31.99356079101562 78.89711761474609 27.125732421875 C 76.90781402587891 22.42246627807617 74.05929565429688 18.19785308837891 70.43071746826172 14.56928253173828 C 66.80214691162109 10.94070434570312 62.57753372192383 8.092185974121094 57.874267578125 6.102882385253906 C 53.00643920898438 4.043960571289062 47.83378601074219 3 42.5 3 M 42.5 0 C 65.97210693359375 0 85 19.02789306640625 85 42.5 C 85 65.97210693359375 65.97210693359375 85 42.5 85 C 19.02789306640625 85 0 65.97210693359375 0 42.5 C 0 19.02789306640625 19.02789306640625 0 42.5 0 Z" stroke="none" fill="#aa52f9"/>
                            </g>
                          </g>
                        </g>
                      </g>
                    </g>
                  </g>
                </g>
              </g>
            </g>
          </g>
        </g>
      </g>
    </g>
    <g id="_x32_5_x2C__Troubleshooting_x2C__warning_x2C__tools_x2C__alert_x2C__working._laptop" transform="translate(212.107 4513.159)">
      <g id="Grupo_1224614" data-name="Grupo 1224614" transform="translate(1 53.5)">
        <path id="Trazado_1051410" data-name="Trazado 1051410" d="M38.383,91A7.383,7.383,0,0,0,31,98.383v25.468l2.021.857,2.3-.857L47.961,91Z" transform="translate(-27.542 -86.678)" fill="#7e7bc6"/>
        <path id="Trazado_1051411" data-name="Trazado 1051411" d="M330.158,91H318.85l14.368,32.851,2.363.857,1.96-.857V98.383A7.383,7.383,0,0,0,330.158,91Z" transform="translate(-282.213 -86.678)" fill="#7e7bc6"/>
        <path id="Trazado_1051412" data-name="Trazado 1051412" d="M108.342,128.5H71.883a3.383,3.383,0,0,0-3.383,3.383v25.145l22.043,1.779,21.182-1.779V131.883A3.383,3.383,0,0,0,108.342,128.5Z" transform="translate(-60.72 -119.855)" fill="#dbedff"/>
        <path id="Trazado_1051413" data-name="Trazado 1051413" d="M115.8,209.68l-5.715,5.715a2.594,2.594,0,0,0,3.668,3.668l5.714-5.714Z" transform="translate(-96.841 -191.678)" fill="#ff9f00"/>
        <path id="Trazado_1051414" data-name="Trazado 1051414" d="M193.49,99.935a2.853,2.853,0,0,0-1.864,1.375l-1.045,1.812h0a8.108,8.108,0,1,1,2.911-3.187Z" transform="translate(-157.731 -84.156)" fill="#00e4ef"/>
        <path id="Trazado_1051415" data-name="Trazado 1051415" d="M42.215,376l-5.064,1.5-5.31-1.5H8.5v4.588a4.057,4.057,0,0,0,4.057,4.057H61.5a4.057,4.057,0,0,0,4.057-4.057V376H42.215Z" transform="translate(-7.636 -338.827)" fill="#625fb2"/>
        <path id="Trazado_1051416" data-name="Trazado 1051416" d="M170.2,64.293a11.24,11.24,0,1,0-6.428,19.082l2-2.295.628-2.256a7.78,7.78,0,1,1,2.793-3.058l3.123,1.49A11.241,11.241,0,0,0,170.2,64.293Z" transform="translate(-133.722 -60.136)" fill="#ffcd00"/>
        <path id="Trazado_1051417" data-name="Trazado 1051417" d="M254.44,200.437a2.778,2.778,0,0,1-2.407,4.167H239.856a2.778,2.778,0,0,1-2.406-4.167l2.457-4.258h0l2.626-4.551h0l1-1.738a2.779,2.779,0,0,1,4.812,0l6.09,10.547Z" transform="translate(-209.862 -172.94)" fill="#ec3d93"/>
        <path id="Trazado_1051418" data-name="Trazado 1051418" d="M221.374,376v1.556a2.767,2.767,0,0,1-2.766,2.766h-4.841A2.767,2.767,0,0,1,211,377.556V376Z" transform="translate(-186.794 -338.827)" fill="#47449d"/>
        <g id="Grupo_1224613" data-name="Grupo 1224613" transform="translate(0 0)">
          <g id="Grupo_1224610" data-name="Grupo 1224610">
            <g id="Grupo_1224609" data-name="Grupo 1224609">
              <g id="Grupo_1224594" data-name="Grupo 1224594" transform="translate(35.218 19.883)">
                <path id="Trazado_1051419" data-name="Trazado 1051419" d="M307.4,232.916a.864.864,0,0,1-.865-.865v-5.187a.865.865,0,0,1,1.729,0v5.187A.864.864,0,0,1,307.4,232.916Z" transform="translate(-306.536 -226)"/>
              </g>
              <g id="Grupo_1224595" data-name="Grupo 1224595" transform="translate(35.219 27.664)">
                <path id="Trazado_1051420" data-name="Trazado 1051420" d="M307.4,295.229a.865.865,0,1,1,.864-.865A.865.865,0,0,1,307.4,295.229Z" transform="translate(-306.54 -293.5)"/>
              </g>
              <g id="Grupo_1224596" data-name="Grupo 1224596" transform="translate(0 36.309)">
                <path id="Trazado_1051421" data-name="Trazado 1051421" d="M54.864,378.874H19.191a.865.865,0,0,1,0-1.729H54.864a3.2,3.2,0,0,0,3.193-3.193v-3.723H2.729v3.723a3.2,3.2,0,0,0,3.193,3.193h6.353a.865.865,0,0,1,0,1.729H5.922A4.927,4.927,0,0,1,1,373.952v-4.588a.864.864,0,0,1,.864-.865H58.921a.864.864,0,0,1,.864.865v4.588A4.927,4.927,0,0,1,54.864,378.874Z" transform="translate(-1 -368.5)"/>
              </g>
              <g id="Grupo_1224597" data-name="Grupo 1224597" transform="translate(2.593 3.458)">
                <path id="Trazado_1051422" data-name="Trazado 1051422" d="M24.364,118.08a.864.864,0,0,1-.864-.865V91.747A8.257,8.257,0,0,1,31.747,83.5h9.579a.864.864,0,1,1,0,1.729H31.747a6.526,6.526,0,0,0-6.518,6.518v25.468a.864.864,0,0,1-.864.865Z" transform="translate(-23.5 -83.5)"/>
              </g>
              <g id="Grupo_1224598" data-name="Grupo 1224598" transform="translate(35.773 3.458)">
                <path id="Trazado_1051423" data-name="Trazado 1051423" d="M330.9,118.08a.864.864,0,0,1-.865-.865V91.747a6.526,6.526,0,0,0-6.518-6.518H312.214a.864.864,0,1,1,0-1.729h11.308a8.257,8.257,0,0,1,8.247,8.247v25.468A.865.865,0,0,1,330.9,118.08Z" transform="translate(-311.35 -83.5)"/>
              </g>
              <g id="Grupo_1224599" data-name="Grupo 1224599" transform="translate(23.341 36.309)">
                <path id="Trazado_1051424" data-name="Trazado 1051424" d="M211.972,374.551h-4.841a3.635,3.635,0,0,1-3.631-3.631v-1.556a.864.864,0,0,1,.865-.865h10.374a.864.864,0,0,1,.864.865v1.556A3.635,3.635,0,0,1,211.972,374.551Zm-6.743-4.323v.692a1.9,1.9,0,0,0,1.9,1.9h4.841a1.9,1.9,0,0,0,1.9-1.9v-.692Z" transform="translate(-203.5 -368.5)"/>
              </g>
              <g id="Grupo_1224600" data-name="Grupo 1224600" transform="translate(50.141 22.477)">
                <path id="Trazado_1051425" data-name="Trazado 1051425" d="M436.865,264.061A.864.864,0,0,1,436,263.2V249.365a.865.865,0,0,1,1.729,0V263.2A.864.864,0,0,1,436.865,264.061Z" transform="translate(-436 -248.5)"/>
              </g>
              <g id="Grupo_1224601" data-name="Grupo 1224601" transform="translate(38.36 7.78)">
                <path id="Trazado_1051426" data-name="Trazado 1051426" d="M346.436,130.509a.864.864,0,0,1-.865-.865v-4.4a2.521,2.521,0,0,0-2.519-2.519h-8.4a.864.864,0,1,1,0-1.729h8.4a4.252,4.252,0,0,1,4.248,4.248v4.4A.864.864,0,0,1,346.436,130.509Z" transform="translate(-333.79 -121)"/>
              </g>
              <g id="Grupo_1224602" data-name="Grupo 1224602" transform="translate(6.916 7.78)">
                <path id="Trazado_1051427" data-name="Trazado 1051427" d="M61.864,151.257a.864.864,0,0,1-.864-.865V125.248A4.252,4.252,0,0,1,65.248,121h6.669a.865.865,0,0,1,0,1.729H65.248a2.521,2.521,0,0,0-2.519,2.519v25.145A.864.864,0,0,1,61.864,151.257Z" transform="translate(-61 -121)"/>
              </g>
              <g id="Grupo_1224603" data-name="Grupo 1224603" transform="translate(16.425)">
                <path id="Trazado_1051428" data-name="Trazado 1051428" d="M143.5,65.6a12.1,12.1,0,1,1,22.936,5.4.865.865,0,0,1-1.547-.772A10.376,10.376,0,1,0,157,75.882a.864.864,0,0,1,.232,1.713A12.1,12.1,0,0,1,143.5,65.6Z" transform="translate(-143.5 -53.5)"/>
              </g>
              <g id="Grupo_1224604" data-name="Grupo 1224604" transform="translate(11.624 17.138)">
                <path id="Trazado_1051429" data-name="Trazado 1051429" d="M102.852,213.04a3.462,3.462,0,0,1,0-4.891l5.715-5.715a.865.865,0,0,1,1.223,1.223l-5.715,5.715a1.729,1.729,0,1,0,2.445,2.445l5.715-5.715a.865.865,0,0,1,1.223,1.223l-5.715,5.715A3.462,3.462,0,0,1,102.852,213.04Z" transform="translate(-101.841 -202.181)"/>
              </g>
              <g id="Grupo_1224605" data-name="Grupo 1224605" transform="translate(19.883 3.458)">
                <path id="Trazado_1051430" data-name="Trazado 1051430" d="M182.145,100.79a8.645,8.645,0,1,1,7.707-4.725.865.865,0,1,1-1.54-.786A6.918,6.918,0,1,0,185.829,98a.865.865,0,1,1,.923,1.462,8.618,8.618,0,0,1-4.606,1.329Z" transform="translate(-173.5 -83.5)"/>
              </g>
              <g id="Grupo_1224606" data-name="Grupo 1224606" transform="translate(25.219 8.793)">
                <path id="Trazado_1051431" data-name="Trazado 1051431" d="M220.039,136.154a.865.865,0,0,1,0-1.223l4.89-4.89a.865.865,0,0,1,1.223,1.223l-4.89,4.89A.865.865,0,0,1,220.039,136.154Z" transform="translate(-219.786 -129.788)"/>
              </g>
              <g id="Grupo_1224607" data-name="Grupo 1224607" transform="translate(25.219 8.793)">
                <path id="Trazado_1051432" data-name="Trazado 1051432" d="M224.93,136.154l-4.89-4.89a.865.865,0,0,1,1.223-1.223l4.89,4.89a.865.865,0,1,1-1.223,1.223Z" transform="translate(-219.786 -129.788)"/>
              </g>
              <g id="Grupo_1224608" data-name="Grupo 1224608" transform="translate(26.345 14.696)">
                <path id="Trazado_1051433" data-name="Trazado 1051433" d="M245.383,198.828H233.2a3.642,3.642,0,0,1-3.155-5.464l6.089-10.547a3.642,3.642,0,0,1,6.309,0l6.089,10.547A3.642,3.642,0,0,1,245.383,198.828Zm-7.746-15.146-6.089,10.547a1.913,1.913,0,0,0,1.657,2.87h12.178a1.913,1.913,0,0,0,1.657-2.87l-6.089-10.547A1.913,1.913,0,0,0,237.637,183.682Z" transform="translate(-229.556 -180.995)"/>
              </g>
            </g>
          </g>
          <g id="Grupo_1224611" data-name="Grupo 1224611" transform="translate(50.02 19.541)">
            <ellipse id="Elipse_12832" data-name="Elipse 12832" cx="1.086" cy="0.543" rx="1.086" ry="0.543" transform="translate(0 0)"/>
          </g>
          <g id="Grupo_1224612" data-name="Grupo 1224612" transform="translate(13.869 44.954)">
            <circle id="Elipse_12833" data-name="Elipse 12833" cx="0.864" cy="0.864" r="0.864"/>
          </g>
        </g>
      </g>
    </g>
  </g>
</svg>
