<svg xmlns="http://www.w3.org/2000/svg" width="38.873" height="37.642" viewBox="0 0 38.873 37.642">
  <g id="manger_8003669" transform="translate(-1.25 -2.26)">
    <path id="Trazado_982539" data-name="Trazado 982539" d="M46.842,39.02a3.8,3.8,0,1,0,3.8,3.8A3.8,3.8,0,0,0,46.842,39.02Zm0,6.686a2.881,2.881,0,1,1,2.878-2.884A2.889,2.889,0,0,1,46.842,45.706Z" transform="translate(-16.204 -14.253)"/>
    <path id="Trazado_982540" data-name="Trazado 982540" d="M39.78,27.741l-1.678-.4a7.826,7.826,0,0,0-.643-1.567l.9-1.469a.454.454,0,0,0-.067-.563l-1.874-1.874a.454.454,0,0,0-.563-.067l-1.476.9a7.716,7.716,0,0,0-1.561-.649l-.4-1.671a.453.453,0,0,0-.447-.349H29.322a.46.46,0,0,0-.447.349l-.4,1.671A7.979,7.979,0,0,0,26.9,22.7l-1.469-.9a.454.454,0,0,0-.563.067l-1.88,1.874a.455.455,0,0,0-.067.563l.906,1.469a7.683,7.683,0,0,0-.649,1.567l-1.041.251c-.012,0-.024-.006-.037-.006H20.291l-.8-2.051a12.141,12.141,0,0,0,2.884-3.943,1.462,1.462,0,0,0,.227.092c1.022.288,2.167-.71,2.62-2.284a3.969,3.969,0,0,0,.08-2.027,1.679,1.679,0,0,0-1.016-1.261,3.729,3.729,0,0,0-.067-.667c.22-.606,1.01-3.11.067-4.953a3.425,3.425,0,0,0-2.118-1.7,4.994,4.994,0,0,0-1.855-2.8C18.742,4.8,16.471,4.432,13.563,4.9c-5.608.9-6.521,6.41-6.178,9.521a7.885,7.885,0,0,0,.367,1.69,1.7,1.7,0,0,0-1,1.255,3.97,3.97,0,0,0,.08,2.027c.447,1.574,1.6,2.578,2.62,2.284a1.462,1.462,0,0,0,.227-.092,12.322,12.322,0,0,0,2.884,3.943l-.8,2.051H9.356a8.111,8.111,0,0,0-8.106,8.1v4.708a.463.463,0,0,0,.459.459H30.332a.463.463,0,0,0,.459-.459V39.013h1.169a.46.46,0,0,0,.447-.349l.4-1.678a7.49,7.49,0,0,0,1.561-.649l1.476.9a.463.463,0,0,0,.563-.067L38.286,35.3a.455.455,0,0,0,.067-.563l-.9-1.469A7.826,7.826,0,0,0,38.1,31.7l1.678-.4a.453.453,0,0,0,.349-.447V28.194a.45.45,0,0,0-.343-.453ZM23.451,10.9c.869,1.7-.141,4.3-.153,4.329a.5.5,0,0,0-.024.269,3.25,3.25,0,0,1,.073.692,4.61,4.61,0,0,1-.79-.765c-1.427-1.647-.949-4.218-.606-5.437.043-.1.08-.184.11-.269a2.415,2.415,0,0,1,1.39,1.182Zm-14.933-.11A6.128,6.128,0,0,1,13.685,5.81a13.318,13.318,0,0,1,2.167-.19A6.319,6.319,0,0,1,19.722,6.7a4.108,4.108,0,0,1,1.555,2.388c-.043.122-.116.331-.2.606a1.778,1.778,0,0,1-.839.833,11.617,11.617,0,0,1-8.351-.086.256.256,0,0,0-.061-.024,1.326,1.326,0,0,0-1.1.239,2.982,2.982,0,0,0-.808,2.486,5.752,5.752,0,0,1-.3,1.935c-.233.667-.52,1.1-.79,1.182-.373-.416-.949-2.865-.318-5.467Zm1.745,9.864a.462.462,0,0,0-.373-.276.453.453,0,0,0-.422.19.546.546,0,0,1-.269.22c-.447.129-1.169-.551-1.482-1.653A3.124,3.124,0,0,1,7.642,17.6a.839.839,0,0,1,.459-.643.438.438,0,0,0,.092-.049.768.768,0,0,0,.582.288h.043c.71-.043,1.274-.649,1.678-1.812a6.641,6.641,0,0,0,.349-2.241c-.006-1.194.269-1.6.435-1.739a.415.415,0,0,1,.288-.1,12.471,12.471,0,0,0,9.055.061c.049-.024.086-.049.129-.073a5.946,5.946,0,0,0,1.12,4.733c.514.594,1.1,1.169,1.629,1.169a.734.734,0,0,0,.318-.073A.713.713,0,0,0,24,16.984a.874.874,0,0,1,.4.612,3.117,3.117,0,0,1-.067,1.543c-.312,1.1-1.041,1.782-1.482,1.653a.522.522,0,0,1-.269-.22.459.459,0,0,0-.8.086c-1.12,2.608-3.227,5.4-5.755,5.4s-4.647-2.792-5.768-5.4Zm5.755,6.312a4.892,4.892,0,0,0,2.694-.869l1,2.578a.342.342,0,0,1-.1.38,5.518,5.518,0,0,1-7.2,0,.342.342,0,0,1-.1-.38l1-2.578a4.979,4.979,0,0,0,2.706.869ZM2.168,35.682a7.2,7.2,0,0,1,7.188-7.188h2.082a1.24,1.24,0,0,0,.386,1.255,6.43,6.43,0,0,0,8.4,0,1.235,1.235,0,0,0,.386-1.255h.533v2.339a.46.46,0,0,0,.349.447l1.678.4a7.682,7.682,0,0,0,.649,1.567l-.906,1.469a.453.453,0,0,0,.067.563l1.047,1.041v3.6H8.015V34.69a.459.459,0,1,0-.918,0v5.235H2.168Zm27.7,4.249H24.945V37.225a.448.448,0,0,0,.478.006l1.469-.894a7.741,7.741,0,0,0,1.567.649l.4,1.678a.453.453,0,0,0,.447.349h.563Zm9.337-9.459-1.592.386a.459.459,0,0,0-.337.337,6.964,6.964,0,0,1-.753,1.837.45.45,0,0,0,.006.471l.851,1.39-1.359,1.359-1.4-.851a.448.448,0,0,0-.478,0,6.6,6.6,0,0,1-1.825.759.451.451,0,0,0-.331.337l-.386,1.592H29.683L29.3,36.5a.451.451,0,0,0-.331-.337,6.672,6.672,0,0,1-1.831-.759.461.461,0,0,0-.478,0l-1.4.851L23.9,34.892l.857-1.39a.448.448,0,0,0,0-.478A6.84,6.84,0,0,1,24,31.188a.451.451,0,0,0-.337-.331l-1.592-.386V28.549l1.592-.386A.451.451,0,0,0,24,27.833,6.84,6.84,0,0,1,24.755,26a.476.476,0,0,0,0-.478l-.857-1.39,1.365-1.359,1.4.851a.438.438,0,0,0,.471,0,7.008,7.008,0,0,1,1.837-.759.451.451,0,0,0,.331-.337l.386-1.586h1.923l.386,1.586a.461.461,0,0,0,.331.337,7.019,7.019,0,0,1,1.831.759.464.464,0,0,0,.471,0l1.4-.851,1.359,1.359-.851,1.4a.464.464,0,0,0-.006.471,6.686,6.686,0,0,1,.753,1.837.469.469,0,0,0,.337.337l1.592.386Z" transform="translate(0 -0.948)"/>
    <path id="Trazado_982543" data-name="Trazado 982543" d="M45.1,17.113h10a.737.737,0,0,0,.735-.735V2.995A.737.737,0,0,0,55.1,2.26H48.87a.439.439,0,0,0-.178.037.475.475,0,0,0-.147.1L44.5,6.436a.475.475,0,0,0-.1.147.439.439,0,0,0-.037.178v9.619A.737.737,0,0,0,45.1,17.113Zm9.808-.918H45.288V7.219h3.306a.737.737,0,0,0,.735-.735V3.178h5.59V16.2ZM45.937,6.3l2.474-2.474V6.3Z" transform="translate(-16.719 0)"/>
    <path id="Trazado_982544" data-name="Trazado 982544" d="M48.429,13.05a.459.459,0,1,0,0,.918h6.135a.459.459,0,1,0,0-.918Z" transform="translate(-18.115 -4.184)"/>
    <path id="Trazado_982545" data-name="Trazado 982545" d="M54.564,16.94H48.429a.459.459,0,1,0,0,.918h6.135a.459.459,0,1,0,0-.918Z" transform="translate(-18.115 -5.692)"/>
    <path id="Trazado_982546" data-name="Trazado 982546" d="M54.564,20.83H48.429a.459.459,0,1,0,0,.918h6.135a.459.459,0,1,0,0-.918Z" transform="translate(-18.115 -7.2)"/>
  </g>
</svg>
