<svg xmlns="http://www.w3.org/2000/svg" width="37.569" height="39.312" viewBox="0 0 37.569 39.312">
  <path id="Trazado_979066" data-name="Trazado 979066" d="M73.747,55a3.9,3.9,0,0,0-1.16-2.773,3.955,3.955,0,0,0-1.039-.744,3.835,3.835,0,1,0-3.578.013,2.93,2.93,0,0,0-.99.8L62.2,58.45l-6.06,1.734a2.269,2.269,0,0,0-1.157.743,2.269,2.269,0,0,0-1.157-.743l-6.06-1.734L42.988,52.3a2.929,2.929,0,0,0-.99-.8,3.839,3.839,0,1,0-3.579-.014A3.933,3.933,0,0,0,36.221,55L36.2,64.872v.015a.427.427,0,0,0,.427.425h7a.427.427,0,0,0,.427-.426l.008-3.832.74.851a2.227,2.227,0,0,0,1.174.709L52.591,64.5a2.145,2.145,0,0,0,2.138-.488,2.279,2.279,0,0,0,.255-.295,2.279,2.279,0,0,0,.255.295,2.145,2.145,0,0,0,2.138.488l6.611-1.891a2.225,2.225,0,0,0,1.174-.709l.74-.851.008,3.832a.427.427,0,0,0,.427.426h7a.427.427,0,0,0,.427-.424v-.02Zm-6.894-7.615a2.982,2.982,0,1,1,2.182,3.608A2.987,2.987,0,0,1,66.853,47.381ZM37.325,48.807A2.985,2.985,0,0,1,39.507,45.2h0a2.982,2.982,0,1,1-2.182,3.608ZM54.136,63.4a1.271,1.271,0,0,1-1.309.281l-6.621-1.894-.021-.005a1.377,1.377,0,0,1-.733-.44l-1.487-1.71h0l-2.5-2.872a.427.427,0,0,0-.645.561l2.393,2.752L43.2,64.457H37.055L37.076,55a3.078,3.078,0,0,1,3.075-3.068h.007a2.717,2.717,0,0,1,2.156.891l4.865,6.263a.427.427,0,0,0,.22.149l6.194,1.772a1.272,1.272,0,0,1,.956.906,2.377,2.377,0,0,0,0,.76,1.539,1.539,0,0,1-.412.729Zm12.628,1.056-.009-4.384,2.393-2.752a.427.427,0,1,0-.645-.561L66,59.633h0l-1.487,1.71a1.376,1.376,0,0,1-.733.44l-.021.005-6.621,1.894a1.271,1.271,0,0,1-1.309-.281,1.538,1.538,0,0,1-.412-.729,2.377,2.377,0,0,0,0-.76,1.272,1.272,0,0,1,.956-.906l6.194-1.772a.427.427,0,0,0,.22-.149l4.865-6.263a2.718,2.718,0,0,1,2.156-.891h.007A3.085,3.085,0,0,1,72.893,55l.02,9.458ZM46.951,38.773h1.421v2.39a1.47,1.47,0,0,0,.816,1.332,1.5,1.5,0,0,0,.684.168,1.482,1.482,0,0,0,.874-.289l2.827-2.051a2.231,2.231,0,0,0,2.218,2.016h1.592l3.722,2.7a1.223,1.223,0,0,0,.721.239,1.24,1.24,0,0,0,.564-.138,1.213,1.213,0,0,0,.674-1.1v-1.7h.969a2.231,2.231,0,0,0,2.228-2.228v-5.4a2.231,2.231,0,0,0-2.228-2.228H60.672V28.811A2.814,2.814,0,0,0,57.861,26H46.951a2.814,2.814,0,0,0-2.811,2.811v7.151a2.814,2.814,0,0,0,2.811,2.811Zm13.722-2.811V33.334h3.361a1.375,1.375,0,0,1,1.374,1.374v5.4a1.375,1.375,0,0,1-1.374,1.374h-1.4a.427.427,0,0,0-.427.427V44.04a.38.38,0,0,1-.6.307l-3.834-2.782a.427.427,0,0,0-.251-.081H55.791a1.375,1.375,0,0,1-1.374-1.374v-.4l1.292-.937h2.152A2.814,2.814,0,0,0,60.672,35.962ZM44.994,28.811a1.959,1.959,0,0,1,1.957-1.956h10.91a1.959,1.959,0,0,1,1.956,1.956v7.151a1.959,1.959,0,0,1-1.956,1.957H55.57a.427.427,0,0,0-.251.081l-5.075,3.682a.641.641,0,0,1-1.018-.519V38.346a.427.427,0,0,0-.427-.427H46.95a1.959,1.959,0,0,1-1.957-1.957V28.811Zm6.717,3.575a.427.427,0,0,1,.427-.427h.535a.427.427,0,1,1,0,.855h-.535A.427.427,0,0,1,51.711,32.386Zm3.944,0a.427.427,0,0,1,.427-.427h.535a.427.427,0,1,1,0,.855h-.535A.427.427,0,0,1,55.655,32.386Zm-7.888,0a.427.427,0,0,1,.427-.427h.535a.427.427,0,1,1,0,.855h-.535A.427.427,0,0,1,47.767,32.386Zm1.055,18.748a6.041,6.041,0,1,0,6.041-6.041A6.048,6.048,0,0,0,48.822,51.134Zm11.227,0a5.186,5.186,0,1,1-5.186-5.186A5.192,5.192,0,0,1,60.049,51.134Zm-6.161,1.345,3.6-3.6a.427.427,0,0,1,.6.6l-3.9,3.9a.427.427,0,0,1-.6,0l-1.949-1.949a.427.427,0,1,1,.6-.6Z" transform="translate(-36.2 -26)"/>
</svg>
