<svg xmlns="http://www.w3.org/2000/svg" width="36.174" height="36.174" viewBox="0 0 36.174 36.174">
  <g id="stopwatch_16106301" transform="translate(0 -0.003)">
    <path id="Trazado_982405" data-name="Trazado 982405" d="M36.155,19.133l-1.4-5.206a.53.53,0,1,0-1.024.275l.062.232-2.447.656a15.894,15.894,0,0,0-2.309-4.483l1.7-1.7.714.714a1.687,1.687,0,0,0,2.382,0l1.089-1.089a1.687,1.687,0,0,0,0-2.383l-4.9-4.9a1.687,1.687,0,0,0-2.383,0L26.554,2.339a1.687,1.687,0,0,0,0,2.383l.714.714-1.7,1.7a15.912,15.912,0,0,0-4.483-2.309l.656-2.447.232.062a.543.543,0,0,0,.138.018.53.53,0,0,0,.137-1.042L17.044.021a.53.53,0,0,0-.275,1.024L17,1.107l-.784,2.925h-.145A16.073,16.073,0,0,0,4.707,31.469,16.073,16.073,0,0,0,32.146,20.1c0-.048,0-.1,0-.145l2.925-.784.062.232a.53.53,0,0,0,.512.393.517.517,0,0,0,.138-.018.529.529,0,0,0,.374-.649ZM27.3,3.089,28.392,2a.626.626,0,0,1,.885,0l4.9,4.9a.626.626,0,0,1,0,.885L33.088,8.874a.626.626,0,0,1-.884,0l-4.9-4.9a.626.626,0,0,1,0-.884Zm.714,3.1L29.991,8.16,28.383,9.768q-.447-.531-.944-1.029T26.41,7.794ZM18.025,1.381l2.7.722-.65,2.425A16.131,16.131,0,0,0,17.3,4.076l.722-2.7ZM16.073,35.117A15.013,15.013,0,1,1,31.087,20.1,15.031,15.031,0,0,1,16.073,35.117ZM32.1,18.873a16.131,16.131,0,0,0-.452-2.767l2.425-.65.722,2.7Z" transform="translate(0)" fill="#0b0a0a"/>
    <path id="Trazado_982406" data-name="Trazado 982406" d="M43.954,87a13.954,13.954,0,1,0,13.954,13.954A13.97,13.97,0,0,0,43.954,87Zm0,26.848a12.894,12.894,0,1,1,12.894-12.894A12.909,12.909,0,0,1,43.954,113.848Z" transform="translate(-27.88 -80.85)" fill="#0b0a0a"/>
    <path id="Trazado_982407" data-name="Trazado 982407" d="M191.789,166.1a1.157,1.157,0,0,0-1.4-1.4l-1.129.278a5.139,5.139,0,0,0-2.844,1.863l-2.31,3.022a3.359,3.359,0,1,0,2.52,2.52l3.021-2.31a5.143,5.143,0,0,0,1.863-2.844Zm-8.433,9.329a2.3,2.3,0,1,1,2.3-2.3A2.3,2.3,0,0,1,183.356,175.43Zm7.4-9.582-.278,1.129A4.077,4.077,0,0,1,189,169.232l-2.8,2.137a3.391,3.391,0,0,0-1.088-1.088l2.137-2.8a4.077,4.077,0,0,1,2.256-1.477l1.129-.278a.1.1,0,0,1,.092.025A.1.1,0,0,1,190.76,165.848Z" transform="translate(-167.283 -153.031)" fill="#0b0a0a"/>
    <path id="Trazado_982408" data-name="Trazado 982408" d="M206.236,125.886h.706a1.238,1.238,0,0,0,1.236-1.236v-1.413A1.238,1.238,0,0,0,206.943,122h-.706A1.238,1.238,0,0,0,205,123.236v1.413A1.238,1.238,0,0,0,206.236,125.886Zm-.177-2.649a.177.177,0,0,1,.177-.177h.706a.177.177,0,0,1,.177.177v1.413a.177.177,0,0,1-.177.177h-.706a.177.177,0,0,1-.177-.177Z" transform="translate(-190.516 -113.378)" fill="#0b0a0a"/>
    <path id="Trazado_982409" data-name="Trazado 982409" d="M206.943,392h-.706A1.238,1.238,0,0,0,205,393.236v1.413a1.238,1.238,0,0,0,1.236,1.236h.706a1.238,1.238,0,0,0,1.236-1.236v-1.413A1.238,1.238,0,0,0,206.943,392Zm.177,2.649a.177.177,0,0,1-.177.177h-.706a.177.177,0,0,1-.177-.177v-1.413a.177.177,0,0,1,.177-.177h.706a.177.177,0,0,1,.177.177Z" transform="translate(-190.516 -364.302)" fill="#0b0a0a"/>
    <path id="Trazado_982410" data-name="Trazado 982410" d="M335,263.236v.707a1.238,1.238,0,0,0,1.236,1.236h1.413a1.238,1.238,0,0,0,1.236-1.236v-.707A1.238,1.238,0,0,0,337.649,262h-1.413A1.238,1.238,0,0,0,335,263.236Zm2.826,0v.707a.177.177,0,0,1-.177.177h-1.413a.177.177,0,0,1-.177-.177v-.707a.177.177,0,0,1,.177-.177h1.413A.177.177,0,0,1,337.826,263.236Z" transform="translate(-311.332 -243.486)" fill="#0b0a0a"/>
    <path id="Trazado_982411" data-name="Trazado 982411" d="M67.649,262H66.236A1.238,1.238,0,0,0,65,263.236v.707a1.238,1.238,0,0,0,1.236,1.236h1.413a1.238,1.238,0,0,0,1.236-1.236v-.707A1.238,1.238,0,0,0,67.649,262Zm.177,1.943a.177.177,0,0,1-.177.177H66.236a.177.177,0,0,1-.177-.177v-.707a.177.177,0,0,1,.177-.177h1.413a.177.177,0,0,1,.177.177Z" transform="translate(-60.408 -243.486)" fill="#0b0a0a"/>
  </g>
</svg>
