<svg xmlns="http://www.w3.org/2000/svg" width="24.284" height="37.358" viewBox="0 0 24.284 37.358">
  <g id="coin_12748158" transform="translate(-17 -10)">
    <path id="Trazado_982416" data-name="Trazado 982416" d="M31.944,26.128V18.863a7.153,7.153,0,0,1,3.633,2.861,1.918,1.918,0,0,0,2.355.738l1.654-.7a1.91,1.91,0,0,0,.9-2.741,12.647,12.647,0,0,0-8.545-5.948V11.868A1.87,1.87,0,0,0,30.076,10H28.208a1.87,1.87,0,0,0-1.868,1.868v1.184c-5.46.958-9.34,4.685-9.34,9.09s3.88,8.131,9.34,9.09V38.5a7.137,7.137,0,0,1-3.628-2.852,1.917,1.917,0,0,0-2.348-.739l-1.657.689A1.916,1.916,0,0,0,17.62,36.77a1.894,1.894,0,0,0,.177,1.569,12.643,12.643,0,0,0,8.542,5.944V45.49a1.87,1.87,0,0,0,1.868,1.868h1.868a1.87,1.87,0,0,0,1.868-1.868V44.306c5.46-.958,9.34-4.685,9.34-9.09s-3.88-8.131-9.34-9.09ZM30.9,42.575a.935.935,0,0,0-.822.927v1.989H28.208v-2a.933.933,0,0,0-.812-.926,10.6,10.6,0,0,1-7.972-5.243l1.719-.66A9.029,9.029,0,0,0,27.1,40.631a.935.935,0,0,0,1.11-.918V30.426a.934.934,0,0,0-.821-.927c-4.936-.6-8.519-3.692-8.519-7.357s3.582-6.758,8.519-7.357a.934.934,0,0,0,.821-.927V11.868h1.868v2a.932.932,0,0,0,.812.926,10.6,10.6,0,0,1,7.974,5.246l-1.716.669a9.034,9.034,0,0,0-5.961-3.983.935.935,0,0,0-1.11.918v9.287a.934.934,0,0,0,.822.927c4.935.6,8.518,3.692,8.518,7.357s-3.583,6.758-8.518,7.357Z" fill="#0b0a0a"/>
    <path id="Trazado_982417" data-name="Trazado 982417" d="M27.383,17.185C23.624,17.817,21,20.05,21,22.615s2.625,4.8,6.383,5.43a.956.956,0,0,0,.155.013.933.933,0,0,0,.934-.934V18.106a.934.934,0,0,0-1.089-.922ZM26.6,25.956c-2.191-.638-3.736-1.974-3.736-3.34s1.545-2.7,3.736-3.34Z" transform="translate(-0.264 -0.473)" fill="#0b0a0a"/>
    <path id="Trazado_982418" data-name="Trazado 982418" d="M32.089,31.185a.946.946,0,0,0-.758.208.934.934,0,0,0-.331.714v9.019a.933.933,0,0,0,.934.934.974.974,0,0,0,.155-.013c3.757-.632,6.383-2.865,6.383-5.43s-2.625-4.8-6.383-5.43Zm.779,8.771v-6.68c2.191.638,3.736,1.974,3.736,3.34S35.059,39.319,32.868,39.956Z" transform="translate(-0.924 -1.398)" fill="#0b0a0a"/>
  </g>
</svg>
