<svg xmlns="http://www.w3.org/2000/svg" width="37.642" height="37.642" viewBox="0 0 37.642 37.642">
  <g id="target_11269020" transform="translate(-2 -2)">
    <path id="Trazado_982403" data-name="Trazado 982403" d="M39.015,20.194H36.489A15.7,15.7,0,0,0,21.448,5.153V2.627a.627.627,0,1,0-1.255,0V5.153A15.7,15.7,0,0,0,5.153,20.194H2.627a.627.627,0,1,0,0,1.255H5.153A15.7,15.7,0,0,0,20.194,36.489v2.525a.627.627,0,0,0,1.255,0V36.489A15.7,15.7,0,0,0,36.489,21.448h2.525a.627.627,0,0,0,0-1.255Zm-3.78,0h-1.27A13.169,13.169,0,0,0,21.449,7.678V6.408A14.446,14.446,0,0,1,35.235,20.194Zm-5,1.255h2.477A11.916,11.916,0,0,1,21.448,32.709V30.231a.627.627,0,0,0-1.255,0v2.477A11.916,11.916,0,0,1,8.933,21.448H11.41a.627.627,0,1,0,0-1.255H8.933A11.916,11.916,0,0,1,20.194,8.933V11.41a.627.627,0,1,0,1.255,0V8.933A11.916,11.916,0,0,1,32.709,20.194H30.231a.627.627,0,0,0,0,1.255ZM20.194,6.407v1.27A13.17,13.17,0,0,0,7.678,20.193H6.408A14.446,14.446,0,0,1,20.194,6.407ZM6.407,21.448h1.27A13.169,13.169,0,0,0,20.193,33.964v1.27A14.446,14.446,0,0,1,6.407,21.448ZM21.448,35.235v-1.27A13.17,13.17,0,0,0,33.964,21.449h1.27A14.446,14.446,0,0,1,21.448,35.235Z" fill="#0b0a0a"/>
    <path id="Trazado_982404" data-name="Trazado 982404" d="M34.684,32.92H33.429V21.627A.627.627,0,0,0,32.8,21H29.038a.627.627,0,0,0-.627.627v2.509H25.274a.627.627,0,0,0-.627.627v2.509H21.509a.627.627,0,0,0-.627.627V32.92H19.627a.627.627,0,1,0,0,1.255H34.684a.627.627,0,1,0,0-1.255ZM22.137,28.528h2.509V32.92H22.137ZM25.9,27.9V25.392H28.41V32.92H25.9Zm3.764,5.019V22.255h2.509V32.92Z" transform="translate(-6.335 -7.08)" fill="#0b0a0a"/>
  </g>
</svg>
