<svg xmlns="http://www.w3.org/2000/svg" xmlns:xlink="http://www.w3.org/1999/xlink" width="190" height="130.536" viewBox="0 0 190 130.536">
  <defs>
    <linearGradient id="linear-gradient" y1="0.5" x2="1" y2="0.5" gradientUnits="objectBoundingBox">
      <stop offset="0" stop-color="#d2deff" stop-opacity="0"/>
      <stop offset="1" stop-color="#b7c5ff"/>
    </linearGradient>
  </defs>
  <g id="Grupo_1163580" data-name="Grupo 1163580" transform="translate(-1230 -269.232)">
    <g id="Grupo_1149677" data-name="Grupo 1149677">
      <rect id="Rect치ngulo_407965" data-name="Rect치ngulo 407965" width="190" height="59" rx="7" transform="translate(1230 305)" fill="#5a1a8a"/>
      <rect id="Rect치ngulo_407966" data-name="Rect치ngulo 407966" width="126" height="101" rx="7" transform="translate(1262 284)" fill="#a530fe"/>
    </g>
    <g id="Grupo_1149811" data-name="Grupo 1149811" transform="translate(3170.747 632.232)">
      <g id="Grupo_1149787" data-name="Grupo 1149787" transform="translate(-1914 -363)">
        <path id="Trazado_984446" data-name="Trazado 984446" d="M117.219,33.336c-49.566,7.728-50.175-16.623-85.936-10.6C-8.97,29.505-6.232,95.344,16.176,122.42,55.455,169.884,135.4,157.108,125.64,81.012c-1.308-10.2,6.109-15.687,13.106-21.771,8.789-7.641,3.284-29.775-21.528-25.906Z" transform="translate(0 -21.764)" fill="url(#linear-gradient)"/>
      </g>
      <g id="Grupo_1149810" data-name="Grupo 1149810" transform="translate(-1900.842 -360.12)">
        <g id="Grupo_1149808" data-name="Grupo 1149808" transform="translate(0 0)">
          <g id="Grupo_1149801" data-name="Grupo 1149801" transform="translate(2.507 2.31)">
            <g id="Grupo_1149792" data-name="Grupo 1149792" transform="translate(1.394 8.08)">
              <g id="Grupo_1149791" data-name="Grupo 1149791" transform="translate(58.695 76.826)" opacity="0.1">
                <g id="Grupo_1149788" data-name="Grupo 1149788">
                  <path id="Trazado_984447" data-name="Trazado 984447" d="M278.439,347.887h-5.178a1.393,1.393,0,1,1,0-2.786h5.178a1.393,1.393,0,1,1,0,2.786Z" transform="translate(-271.868 -345.101)" fill="#00c"/>
                </g>
                <g id="Grupo_1149789" data-name="Grupo 1149789" transform="translate(0 5.679)">
                  <path id="Trazado_984448" data-name="Trazado 984448" d="M289.585,368.27H273.261a1.393,1.393,0,0,1,0-2.786h16.324a1.393,1.393,0,0,1,0,2.786Z" transform="translate(-271.868 -365.483)" fill="#00c"/>
                </g>
                <g id="Grupo_1149790" data-name="Grupo 1149790" transform="translate(0 11.358)">
                  <path id="Trazado_984449" data-name="Trazado 984449" d="M289.585,388.65H273.261a1.393,1.393,0,1,1,0-2.786h16.324a1.393,1.393,0,0,1,0,2.786Z" transform="translate(-271.868 -385.864)" fill="#00c"/>
                </g>
              </g>
              <path id="Trazado_984450" data-name="Trazado 984450" d="M169.064,98.716l-6.518-1.035a26.266,26.266,0,0,0-1.885-4.544l3.879-5.344a2.875,2.875,0,0,0-.294-3.722l-5.551-5.551a2.875,2.875,0,0,0-3.722-.294l-5.344,3.879a26.266,26.266,0,0,0-4.544-1.885L144.049,73.7a2.875,2.875,0,0,0-2.839-2.424h-7.85A2.875,2.875,0,0,0,130.52,73.7l-1.035,6.518a26.248,26.248,0,0,0-4.359,1.793,36.358,36.358,0,1,0-54.687,47.922,71.826,71.826,0,0,1,14.693,25.19,3.215,3.215,0,0,0-2.523,3.139v16.308a3.216,3.216,0,0,0,3.216,3.216H86.87a10.9,10.9,0,0,0,21.423,0h1.046a3.216,3.216,0,0,0,3.216-3.216V158.264a3.216,3.216,0,0,0-2.526-3.139,71.155,71.155,0,0,1,14.645-25.133c.261-.291.515-.587.766-.886a26.214,26.214,0,0,0,4.045,1.636l1.035,6.518a2.875,2.875,0,0,0,2.839,2.424h7.85a2.875,2.875,0,0,0,2.839-2.424l1.036-6.519a26.282,26.282,0,0,0,4.544-1.885l5.344,3.879a2.875,2.875,0,0,0,3.722-.294l5.551-5.551a2.875,2.875,0,0,0,.294-3.722l-3.879-5.344a26.239,26.239,0,0,0,1.885-4.544l6.518-1.035a2.875,2.875,0,0,0,2.424-2.839v-7.85a2.874,2.874,0,0,0-2.423-2.839ZM137.283,119.3a13.76,13.76,0,0,1-5.514-1.148,36.5,36.5,0,0,0-.169-25.263,13.817,13.817,0,1,1,5.683,26.41Z" transform="translate(-61.223 -69.385)" fill="#00c" opacity="0.1"/>
            </g>
            <g id="Grupo_1149800" data-name="Grupo 1149800">
              <g id="Grupo_1149793" data-name="Grupo 1149793" transform="translate(43.253 3.285)">
                <path id="Trazado_984451" data-name="Trazado 984451" d="M277.43,79.616l-6.518-1.035a26.265,26.265,0,0,0-1.885-4.544l3.879-5.344a2.875,2.875,0,0,0-.294-3.722l-5.551-5.551a2.875,2.875,0,0,0-3.722-.294L258,63.005a26.266,26.266,0,0,0-4.544-1.885L252.416,54.6a2.875,2.875,0,0,0-2.839-2.424h-7.85a2.875,2.875,0,0,0-2.839,2.424l-1.035,6.518a26.262,26.262,0,0,0-4.544,1.885l-5.344-3.879a2.875,2.875,0,0,0-3.722.294l-5.551,5.551a2.875,2.875,0,0,0-.294,3.722l3.879,5.344a26.284,26.284,0,0,0-1.885,4.544l-6.519,1.036a2.875,2.875,0,0,0-2.424,2.839v7.85a2.875,2.875,0,0,0,2.424,2.839l6.518,1.035a26.266,26.266,0,0,0,1.885,4.544l-3.879,5.344a2.875,2.875,0,0,0,.294,3.722l5.551,5.551a2.875,2.875,0,0,0,3.722.294l5.344-3.879a26.266,26.266,0,0,0,4.544,1.885l1.035,6.518a2.875,2.875,0,0,0,2.839,2.424h7.85a2.875,2.875,0,0,0,2.839-2.424l1.036-6.519A26.283,26.283,0,0,0,258,109.755l5.344,3.879a2.875,2.875,0,0,0,3.722-.294l5.551-5.551a2.875,2.875,0,0,0,.294-3.722l-3.879-5.344a26.235,26.235,0,0,0,1.885-4.544l6.518-1.035a2.875,2.875,0,0,0,2.424-2.839v-7.85A2.875,2.875,0,0,0,277.43,79.616Zm-17.962,6.766A13.817,13.817,0,1,1,245.65,72.563,13.817,13.817,0,0,1,259.469,86.382Z" transform="translate(-211.449 -52.178)" fill="#a0f0cb"/>
                <path id="Trazado_984452" data-name="Trazado 984452" d="M231.835,109.279a13.8,13.8,0,0,1,5.656-11.151A36.52,36.52,0,0,0,222.64,83.92l-3.948,3.948a2.875,2.875,0,0,0-.293,3.723l3.879,5.344a26.131,26.131,0,0,0-1.886,4.542l-6.517,1.037a2.877,2.877,0,0,0-2.424,2.839V113.2a2.875,2.875,0,0,0,2.424,2.839l6.517,1.037a26.248,26.248,0,0,0,1.886,4.545l-3.879,5.342a2.875,2.875,0,0,0,.293,3.723l5.551,5.551a2.876,2.876,0,0,0,3.723.3l5.344-3.879a26.348,26.348,0,0,0,4.135,1.753,36.045,36.045,0,0,0,4.316-11.87,13.82,13.82,0,0,1-9.925-13.258Z" transform="translate(-211.45 -75.075)" fill="#8383ff"/>
                <path id="Trazado_984453" data-name="Trazado 984453" d="M262.035,131.09l-1.151-7.247q.931.086,1.884.086t1.887-.086L263.5,131.09Zm13.778-11.878a20.628,20.628,0,0,0,2.669-2.669l4.316,5.947-1.039,1.039Zm-33.072,3.278,4.316-5.946a20.636,20.636,0,0,0,2.669,2.669l-5.946,4.316Zm-7.562-18.256v-1.469l7.247-1.151q-.086.932-.086,1.887t.086,1.884Zm47.934,1.151q.086-.931.086-1.884t-.086-1.887l7.247,1.151v1.469Zm-4.631-14.929a20.621,20.621,0,0,0-2.669-2.669l5.947-4.316,1.038,1.038Zm-35.741-5.947,1.039-1.039,5.947,4.316a20.607,20.607,0,0,0-2.669,2.669Zm21.914-1.353q-.932-.086-1.887-.086t-1.884.086l1.151-7.247H263.5Z" transform="translate(-228.567 -69.297)" fill="#fff"/>
              </g>
              <g id="Grupo_1149798" data-name="Grupo 1149798" transform="translate(1.394 1.392)">
                <path id="Trazado_984454" data-name="Trazado 984454" d="M174.384,427.1a10.9,10.9,0,1,1-21.809,0Z" transform="translate(-127.121 -320.739)" fill="#fff"/>
                <path id="Trazado_984455" data-name="Trazado 984455" d="M97.044,45.388a36.358,36.358,0,0,0-26.6,60.546,70.906,70.906,0,0,1,16.409,31.329h21.468a70.483,70.483,0,0,1,16.358-31.272,36.358,36.358,0,0,0-27.631-60.6Z" transform="translate(-61.224 -45.384)" fill="#fff"/>
                <path id="Trazado_984456" data-name="Trazado 984456" d="M157.01,155.307c0,13.883-9.778,32-21.84,32s-21.84-18.113-21.84-32,9.778-18.279,21.84-18.279,21.84,4.4,21.84,18.279Z" transform="translate(-98.811 -111.492)" fill="#15da7e"/>
                <g id="Grupo_1149794" data-name="Grupo 1149794" transform="translate(25.987 51.776)">
                  <path id="Trazado_984457" data-name="Trazado 984457" d="M174.225,231.267a1.437,1.437,0,0,0-1.8.938q-.315,1-.6,2.028l-2.29-1.65a1.439,1.439,0,0,0-1.7.017l-2.993,2.249-3.145-2.266a1.439,1.439,0,0,0-1.7.017l-2.113,1.588q-.276-1.007-.583-1.983a1.437,1.437,0,1,0-2.742.866c4.06,12.855,3.68,31.473,3.676,31.66a1.437,1.437,0,0,0,1.4,1.47h.034a1.438,1.438,0,0,0,1.436-1.4,141.692,141.692,0,0,0-1.336-21.322l1.1-.83,3.146,2.268a1.437,1.437,0,0,0,1.7-.017l2.992-2.25,1.227.885a141.738,141.738,0,0,0-1.328,21.267,1.437,1.437,0,0,0,1.436,1.4h.034a1.437,1.437,0,0,0,1.4-1.471c0-.186-.388-18.794,3.676-31.659A1.437,1.437,0,0,0,174.225,231.267Zm-4.689,8.427a1.439,1.439,0,0,0-1.7.017l-2.992,2.25-3.146-2.268a1.437,1.437,0,0,0-1.7.017l-.747.562c-.186-1.024-.391-2.044-.615-3.051l2.245-1.687,3.145,2.266a1.438,1.438,0,0,0,1.7-.017l2.993-2.249,2.37,1.708c-.229,1.029-.437,2.071-.626,3.117Z" transform="translate(-154.485 -231.199)" fill="#0b7744"/>
                </g>
                <g id="Grupo_1149797" data-name="Grupo 1149797" transform="translate(21.386 85.663)">
                  <path id="Trazado_984458" data-name="Trazado 984458" d="M164.7,375.555H141.191a3.216,3.216,0,0,1-3.216-3.216V356.032a3.216,3.216,0,0,1,3.216-3.216H164.7a3.216,3.216,0,0,1,3.216,3.216v16.308A3.216,3.216,0,0,1,164.7,375.555Z" transform="translate(-137.975 -352.816)" fill="#15da7e"/>
                  <g id="Grupo_1149796" data-name="Grupo 1149796" transform="translate(0 4.929)">
                    <g id="Grupo_1149795" data-name="Grupo 1149795">
                      <path id="Trazado_984459" data-name="Trazado 984459" d="M137.976,370.507h29.945v4.057H137.976Z" transform="translate(-137.976 -370.507)" fill="#fff"/>
                    </g>
                    <path id="Trazado_984460" data-name="Trazado 984460" d="M137.976,400.171h29.945v4.057H137.976Z" transform="translate(-137.976 -391.905)" fill="#fff"/>
                  </g>
                </g>
              </g>
              <g id="Grupo_1149799" data-name="Grupo 1149799">
                <path id="Trazado_984461" data-name="Trazado 984461" d="M165.676,69.735l-5.679-.9a27.868,27.868,0,0,0-1.316-3.171l3.379-4.655a4.251,4.251,0,0,0-.438-5.526l-5.551-5.551a4.246,4.246,0,0,0-5.524-.437l-4.654,3.38a27.7,27.7,0,0,0-3.174-1.318l-.9-5.674a4.246,4.246,0,0,0-4.215-3.6h-7.849a4.251,4.251,0,0,0-4.215,3.6l-.9,5.676a27.921,27.921,0,0,0-2.778,1.129q-.67-.732-1.382-1.435a37.752,37.752,0,0,0-54.682,52.008A70.162,70.162,0,0,1,79.786,126.75a4.605,4.605,0,0,0-2.177,3.908v16.308a4.613,4.613,0,0,0,4.554,4.606,12.3,12.3,0,0,0,23.624,0,4.613,4.613,0,0,0,4.554-4.606V130.658a4.605,4.605,0,0,0-2.181-3.91,69.51,69.51,0,0,1,13.945-23.433l.084-.1c.8.365,1.621.693,2.446.977l.9,5.676a4.251,4.251,0,0,0,4.215,3.6H137.6a4.245,4.245,0,0,0,4.215-3.6l.9-5.676a27.858,27.858,0,0,0,3.174-1.318l4.654,3.38a4.246,4.246,0,0,0,5.524-.437l5.551-5.551a4.251,4.251,0,0,0,.437-5.526l-3.378-4.652A27.982,27.982,0,0,0,160,86.918l5.677-.9a4.245,4.245,0,0,0,3.6-4.216V73.95a4.252,4.252,0,0,0-3.6-4.215Zm-58.122,77.231a1.824,1.824,0,0,1-1.822,1.822H97.872a1.393,1.393,0,0,0,0,2.786h4.977a9.516,9.516,0,0,1-17.748,0h4.744a1.393,1.393,0,1,0,0-2.786H82.217a1.824,1.824,0,0,1-1.822-1.822V130.658a1.824,1.824,0,0,1,1.822-1.822h23.514a1.824,1.824,0,0,1,1.822,1.822v16.308Zm-2.1-20.916H82.491A72.9,72.9,0,0,0,67.871,101.4a34.967,34.967,0,1,1,52.157.054,72.255,72.255,0,0,0-14.575,24.593ZM166.485,81.8a1.472,1.472,0,0,1-1.247,1.463l-6.52,1.037a1.393,1.393,0,0,0-1.113.966,25.139,25.139,0,0,1-1.785,4.305,1.393,1.393,0,0,0,.105,1.468L159.8,96.38a1.477,1.477,0,0,1-.152,1.92L154.1,103.85a1.473,1.473,0,0,1-1.916.153l-5.344-3.881a1.392,1.392,0,0,0-1.47-.1,24.94,24.94,0,0,1-4.3,1.787,1.393,1.393,0,0,0-.966,1.113l-1.037,6.519a1.473,1.473,0,0,1-1.463,1.248h-7.849a1.477,1.477,0,0,1-1.463-1.25l-1.037-6.517a1.394,1.394,0,0,0-.966-1.113c-.758-.233-1.512-.512-2.256-.823a37.673,37.673,0,0,0,4.929-8.643,15.21,15.21,0,1,0,6.543-29.56,1.393,1.393,0,0,0-.331,2.767,12.423,12.423,0,1,1-5.26,24.172A37.779,37.779,0,0,0,123.734,54.9a24.812,24.812,0,0,1,2.554-.953,1.393,1.393,0,0,0,.965-1.112l1.036-6.517a1.476,1.476,0,0,1,1.463-1.251H137.6a1.473,1.473,0,0,1,1.463,1.25l1.037,6.517a1.393,1.393,0,0,0,.966,1.113,24.915,24.915,0,0,1,4.3,1.787,1.393,1.393,0,0,0,1.47-.1l5.345-3.882a1.473,1.473,0,0,1,1.916.154l5.551,5.551a1.477,1.477,0,0,1,.153,1.919l-3.879,5.344a1.394,1.394,0,0,0-.1,1.469,24.988,24.988,0,0,1,1.784,4.3,1.393,1.393,0,0,0,1.113.966l6.519,1.037a1.475,1.475,0,0,1,1.248,1.463Z" transform="translate(-56.222 -40.387)" fill="#0b7744"/>
                <path id="Trazado_984462" data-name="Trazado 984462" d="M273.261,323.887h5.178a1.393,1.393,0,0,0,0-2.786h-5.178a1.393,1.393,0,0,0,0,2.786Z" transform="translate(-211.78 -242.882)" fill="#0b7744"/>
                <path id="Trazado_984463" data-name="Trazado 984463" d="M289.584,341.482H273.26a1.393,1.393,0,1,0,0,2.786h16.324a1.393,1.393,0,1,0,0-2.786Z" transform="translate(-211.779 -257.584)" fill="#0b7744"/>
                <path id="Trazado_984464" data-name="Trazado 984464" d="M289.584,361.864H273.26a1.393,1.393,0,1,0,0,2.786h16.324a1.393,1.393,0,1,0,0-2.786Z" transform="translate(-211.779 -272.287)" fill="#0b7744"/>
              </g>
            </g>
          </g>
          <g id="Grupo_1149807" data-name="Grupo 1149807">
            <g id="Grupo_1149802" data-name="Grupo 1149802" transform="translate(4.455 84.814)">
              <path id="Trazado_984465" data-name="Trazado 984465" d="M67.762,345.585a1.393,1.393,0,0,1-1.393-1.393,1.767,1.767,0,0,0-1.765-1.765,1.393,1.393,0,0,1,0-2.786,1.767,1.767,0,0,0,1.765-1.765,1.393,1.393,0,1,1,2.786,0,1.767,1.767,0,0,0,1.765,1.765,1.393,1.393,0,1,1,0,2.786,1.767,1.767,0,0,0-1.765,1.765A1.393,1.393,0,0,1,67.762,345.585Z" transform="translate(-63.211 -336.483)" fill="#15da7e"/>
            </g>
            <g id="Grupo_1149803" data-name="Grupo 1149803" transform="translate(91.948 78.12)">
              <path id="Trazado_984466" data-name="Trazado 984466" d="M381.759,321.558a1.393,1.393,0,0,1-1.393-1.393A1.767,1.767,0,0,0,378.6,318.4a1.393,1.393,0,1,1,0-2.786,1.767,1.767,0,0,0,1.765-1.765,1.393,1.393,0,1,1,2.786,0,1.767,1.767,0,0,0,1.765,1.765,1.393,1.393,0,1,1,0,2.786,1.767,1.767,0,0,0-1.765,1.765A1.393,1.393,0,0,1,381.759,321.558Z" transform="translate(-377.208 -312.456)" fill="#15da7e"/>
            </g>
            <g id="Grupo_1149804" data-name="Grupo 1149804" transform="translate(91.112)">
              <path id="Trazado_984467" data-name="Trazado 984467" d="M380.617,37.392a1.39,1.39,0,0,1-.985-.408l-1.522-1.523-1.522,1.523a1.393,1.393,0,0,1-1.97-1.97l2.508-2.508a1.393,1.393,0,0,1,1.97,0l2.508,2.508a1.393,1.393,0,0,1-.985,2.378Z" transform="translate(-374.208 -32.098)" fill="#15da7e"/>
            </g>
            <g id="Grupo_1149805" data-name="Grupo 1149805" transform="translate(102.536 88.89)">
              <path id="Trazado_984468" data-name="Trazado 984468" d="M421.618,356.4a1.39,1.39,0,0,1-.985-.408l-1.522-1.523L417.588,356a1.393,1.393,0,0,1-1.97-1.97l2.508-2.508a1.394,1.394,0,0,1,1.97,0l2.508,2.508a1.393,1.393,0,0,1-.985,2.378Z" transform="translate(-415.209 -351.109)" fill="#15da7e"/>
            </g>
            <g id="Grupo_1149806" data-name="Grupo 1149806" transform="translate(0 70.332)">
              <path id="Trazado_984469" data-name="Trazado 984469" d="M53.632,289.8a1.389,1.389,0,0,1-.985-.408l-1.522-1.522L49.6,289.393a1.393,1.393,0,0,1-1.97-1.97l2.508-2.508a1.394,1.394,0,0,1,1.97,0l2.508,2.508a1.393,1.393,0,0,1-.985,2.378Z" transform="translate(-47.223 -284.507)" fill="#15da7e"/>
            </g>
          </g>
        </g>
        <g id="Grupo_1149809" data-name="Grupo 1149809" transform="translate(33.399 40.876)">
          <circle id="Elipse_11675" data-name="Elipse 11675" cx="1.393" cy="1.393" r="1.393" fill="#fff"/>
          <circle id="Elipse_11676" data-name="Elipse 11676" cx="1.393" cy="1.393" r="1.393" transform="translate(5.468)" fill="#fff"/>
          <circle id="Elipse_11677" data-name="Elipse 11677" cx="1.393" cy="1.393" r="1.393" transform="translate(10.936)" fill="#fff"/>
        </g>
      </g>
    </g>
  </g>
</svg>
