<svg xmlns="http://www.w3.org/2000/svg" xmlns:xlink="http://www.w3.org/1999/xlink" width="108" height="108" viewBox="0 0 108 108">
  <defs>
    <filter id="Trazado_982547" x="0" y="0" width="108" height="108" filterUnits="userSpaceOnUse">
      <feOffset dy="3" input="SourceAlpha"/>
      <feGaussianBlur stdDeviation="3" result="blur"/>
      <feFlood flood-opacity="0.161"/>
      <feComposite operator="in" in2="blur"/>
      <feComposite in="SourceGraphic"/>
    </filter>
  </defs>
  <g id="Grupo_1163609" data-name="Grupo 1163609" transform="translate(-171 -310)">
    <g id="Grupo_1158951" data-name="Grupo 1158951" transform="translate(-33 -11275)">
      <g id="Grupo_1153311" data-name="Grupo 1153311" transform="translate(12 1399)">
        <g id="Grupo_1149261" data-name="Grupo 1149261" transform="translate(-83 6759)">
          <g id="Grupo_1147065" data-name="Grupo 1147065" transform="translate(-341 -556)">
            <g transform="matrix(1, 0, 0, 1, 616, 3983)" filter="url(#Trazado_982547)">
              <g id="Trazado_982547-2" data-name="Trazado 982547" transform="translate(9 6)" fill="#f5e9fe">
                <path d="M 45 88.5 C 39.12687683105469 88.5 33.43022537231445 87.35007476806641 28.06830024719238 85.08217620849609 C 22.88852500915527 82.89131164550781 18.23629951477051 79.75458526611328 14.2408504486084 75.75914764404297 C 10.24541282653809 71.76370239257812 7.108687400817871 67.11147308349609 4.917825222015381 61.93170166015625 C 2.649924993515015 56.56977462768555 1.5 50.87312316894531 1.5 45 C 1.5 39.12687683105469 2.649924993515015 33.43022537231445 4.917825222015381 28.06830024719238 C 7.108687400817871 22.88852500915527 10.24541282653809 18.23629951477051 14.2408504486084 14.2408504486084 C 18.23629951477051 10.24541282653809 22.88852500915527 7.108687400817871 28.06830024719238 4.917825222015381 C 33.43022537231445 2.649924993515015 39.12687683105469 1.5 45 1.5 C 50.87312316894531 1.5 56.56977462768555 2.649924993515015 61.93170166015625 4.917825222015381 C 67.11147308349609 7.108687400817871 71.76370239257812 10.24541282653809 75.75914764404297 14.2408504486084 C 79.75458526611328 18.23629951477051 82.89131164550781 22.88852500915527 85.08217620849609 28.06830024719238 C 87.35007476806641 33.43022537231445 88.5 39.12687683105469 88.5 45 C 88.5 50.87312316894531 87.35007476806641 56.56977462768555 85.08217620849609 61.93170166015625 C 82.89131164550781 67.11147308349609 79.75458526611328 71.76370239257812 75.75914764404297 75.75914764404297 C 71.76370239257812 79.75458526611328 67.11147308349609 82.89131164550781 61.93170166015625 85.08217620849609 C 56.56977462768555 87.35007476806641 50.87312316894531 88.5 45 88.5 Z" stroke="none"/>
                <path d="M 45 3 C 39.32871246337891 3 33.82865524291992 4.110054016113281 28.65262985229492 6.299339294433594 C 23.65165710449219 8.414573669433594 19.15968322753906 11.44334411621094 15.301513671875 15.301513671875 C 11.44334411621094 19.15968322753906 8.414573669433594 23.65165710449219 6.299339294433594 28.65262985229492 C 4.110054016113281 33.82865524291992 3 39.32871246337891 3 45 C 3 50.67128753662109 4.110054016113281 56.17134475708008 6.299339294433594 61.34737396240234 C 8.414573669433594 66.34834289550781 11.44334411621094 70.84031677246094 15.301513671875 74.698486328125 C 19.15968322753906 78.55665588378906 23.65165710449219 81.58542633056641 28.65262985229492 83.70066070556641 C 33.82865524291992 85.88994598388672 39.32871246337891 87 45 87 C 50.67128753662109 87 56.17134475708008 85.88994598388672 61.34737396240234 83.70066070556641 C 66.34834289550781 81.58542633056641 70.84031677246094 78.55665588378906 74.698486328125 74.698486328125 C 78.55665588378906 70.84031677246094 81.58542633056641 66.34834289550781 83.70066070556641 61.34737396240234 C 85.88994598388672 56.17134475708008 87 50.67128753662109 87 45 C 87 39.32871246337891 85.88994598388672 33.82865524291992 83.70066070556641 28.65262985229492 C 81.58542633056641 23.65165710449219 78.55665588378906 19.15968322753906 74.698486328125 15.301513671875 C 70.84031677246094 11.44334411621094 66.34834289550781 8.414573669433594 61.34737396240234 6.299339294433594 C 56.17134475708008 4.110054016113281 50.67128753662109 3 45 3 M 45 0 C 69.85281372070312 0 90 20.14718627929688 90 45 C 90 69.85281372070312 69.85281372070312 90 45 90 C 20.14718627929688 90 0 69.85281372070312 0 45 C 0 20.14718627929688 20.14718627929688 0 45 0 Z" stroke="none" fill="#a530fe"/>
              </g>
            </g>
          </g>
        </g>
      </g>
    </g>
    <g id="innovacion_2_" data-name="innovacion (2)" transform="translate(192.5 328.482)">
      <path id="Trazado_994999" data-name="Trazado 994999" d="M53,22.333c0,5.149-2.077,12.195-5.482,18.22C45.469,44.181,41,48.84,41,53H32V3c11.6,0,21,8.375,21,19.333Z" fill="#dbe6fd"/>
      <path id="Trazado_995000" data-name="Trazado 995000" d="M32,20h9V32H32Z" fill="#17afdc"/>
      <path id="Trazado_995001" data-name="Trazado 995001" d="M11,22.333c0,5.149,2.077,12.195,5.482,18.22C18.531,44.181,23,48.84,23,53h9V3C20.4,3,11,11.375,11,22.333Z" fill="#fccc38"/>
      <path id="Trazado_995002" data-name="Trazado 995002" d="M40.244,57H23.756a2,2,0,0,1-2-2v-.07a1.885,1.885,0,0,1,2-1.86H40.244a1.885,1.885,0,0,1,2,1.86V55A2,2,0,0,1,40.244,57Z" fill="#5358a1"/>
      <rect id="Rectángulo_412974" data-name="Rectángulo 412974" width="21" height="4.07" rx="2" transform="translate(21.5 57)" fill="#5358a1"/>
      <path id="Trazado_995003" data-name="Trazado 995003" d="M30.295,12.114,29.856,14.2a11.885,11.885,0,0,0-1.9.513l-1.433-1.6a13.965,13.965,0,0,0-2.936,1.716l.663,2.018a12.064,12.064,0,0,0-1.4,1.4l-2.018-.663a13.963,13.963,0,0,0-1.717,2.936l1.6,1.433a11.879,11.879,0,0,0-.513,1.9l-2.088.439a12.8,12.8,0,0,0,0,3.411l2.088.439a11.877,11.877,0,0,0,.513,1.9l-1.6,1.433a13.966,13.966,0,0,0,1.716,2.936l2.018-.663a12.064,12.064,0,0,0,1.4,1.4l-.663,2.018a13.964,13.964,0,0,0,2.936,1.717l1.433-1.6a11.887,11.887,0,0,0,1.9.513l.439,2.088A14.075,14.075,0,0,0,32,40V12a14.073,14.073,0,0,0-1.705.114Z" fill="#f4393d"/>
      <path id="Trazado_995004" data-name="Trazado 995004" d="M32,34a8,8,0,0,1,0-16" fill="#f7edd3"/>
      <circle id="Elipse_11826" data-name="Elipse 11826" cx="2" cy="2" r="2" transform="translate(36 9)" fill="#fccc38"/>
      <circle id="Elipse_11827" data-name="Elipse 11827" cx="2" cy="2" r="2" transform="translate(44 14)" fill="#fccc38"/>
      <circle id="Elipse_11828" data-name="Elipse 11828" cx="2" cy="2" r="2" transform="translate(49 27)" fill="#fccc38"/>
      <circle id="Elipse_11829" data-name="Elipse 11829" cx="2" cy="2" r="2" transform="translate(38 39)" fill="#fccc38"/>
      <path id="Trazado_995005" data-name="Trazado 995005" d="M42.569,50.436,40.71,49.7a16.936,16.936,0,0,1,.934-1.953l1.751.967a14.97,14.97,0,0,0-.826,1.723Z"/>
      <path id="Trazado_995006" data-name="Trazado 995006" d="M44.412,47.028l-1.679-1.086c.375-.58.767-1.154,1.16-1.719l1.642,1.143c-.38.547-.76,1.1-1.123,1.662Z"/>
      <path id="Trazado_995007" data-name="Trazado 995007" d="M46.7,43.694l-1.643-1.141c.394-.568.77-1.122,1.107-1.657l1.692,1.064C47.509,42.521,47.116,43.1,46.7,43.694Z"/>
      <path id="Trazado_995008" data-name="Trazado 995008" d="M48.91,40.133l-1.764-.943q.469-.877.9-1.778l1.8.861q-.449.94-.94,1.86Z"/>
      <path id="Trazado_995009" data-name="Trazado 995009" d="M50.706,36.376l-1.841-.783c.262-.614.509-1.233.742-1.852l1.872.7Q51.116,35.413,50.706,36.376Z"/>
      <path id="Trazado_995010" data-name="Trazado 995010" d="M53.916,24.3l-1.993-.168c.052-.609.078-1.2.078-1.76v-.184l2-.016v.2C54,22.982,53.972,23.631,53.916,24.3Z"/>
      <path id="Trazado_995011" data-name="Trazado 995011" d="M51.875,20.263a17.288,17.288,0,0,0-.333-1.9l1.947-.455a19.378,19.378,0,0,1,.372,2.114Z"/>
      <path id="Trazado_995012" data-name="Trazado 995012" d="M51,16.521a17.469,17.469,0,0,0-.746-1.775l1.8-.875a19.264,19.264,0,0,1,.832,1.98Z"/>
      <path id="Trazado_995013" data-name="Trazado 995013" d="M49.316,13.066A18.208,18.208,0,0,0,48.2,11.494l1.566-1.244A20.2,20.2,0,0,1,51.007,12Z"/>
      <path id="Trazado_995014" data-name="Trazado 995014" d="M46.918,10.047a18.9,18.9,0,0,0-1.425-1.308L46.768,7.2a20.943,20.943,0,0,1,1.577,1.446Z"/>
      <path id="Trazado_995015" data-name="Trazado 995015" d="M43.94,7.578c-.531-.357-1.09-.7-1.662-1l.951-1.76c.628.34,1.242.711,1.827,1.1Z"/>
      <path id="Trazado_995016" data-name="Trazado 995016" d="M40.526,5.734c-.586-.249-1.2-.476-1.822-.673l.605-1.906c.682.217,1.355.465,2,.739Z"/>
      <path id="Trazado_995017" data-name="Trazado 995017" d="M36.823,4.557C36.2,4.417,35.55,4.3,34.9,4.222l.256-1.984c.7.092,1.409.215,2.1.366Z"/>
      <path id="Trazado_995018" data-name="Trazado 995018" d="M51,26a3,3,0,0,0-2.816,2H42V24h4a1,1,0,0,0,1-1V18.816a3,3,0,1,0-2,0V22H42V20a1,1,0,0,0-1-1H39V13.816a3,3,0,1,0-2,0V19H33V3.035a1,1,0,0,0-1-1c-12.336,0-22,8.932-22,20.333,0,5.416,2.15,12.587,5.611,18.713.622,1.1,1.433,2.256,2.291,3.48,1.815,2.587,3.835,5.5,4.055,8.03a2.842,2.842,0,0,0-1.2,2.374,2.97,2.97,0,0,0,.662,1.857,3.083,3.083,0,0,0-.918,2.214,3,3,0,0,0,3,3h17a3.019,3.019,0,0,0,3-3.07,2.987,2.987,0,0,0-.92-2.154,3.087,3.087,0,0,0,.664-1.916,2.868,2.868,0,0,0-3-2.859H33V33h2v3a1,1,0,0,0,1,1h3v1.184a3,3,0,1,0,2,0V36a1,1,0,0,0-1-1H37V33h4a1,1,0,0,0,1-1V30h6.184A2.995,2.995,0,1,0,51,26ZM46,15a1,1,0,1,1-1,1A1,1,0,0,1,46,15ZM19.54,43.413c-.83-1.184-1.614-2.3-2.187-3.316C14.1,34.342,12,27.383,12,22.368,12,12.4,20.267,4.519,31,4.057v6.986c-.265.02-.536.044-.826.079a1,1,0,0,0-.857.786l-.3,1.449q-.376.089-.751.2l-1-1.111a1,1,0,0,0-1.137-.253,15.045,15.045,0,0,0-3.146,1.837,1,1,0,0,0-.348,1.11l.459,1.4c-.189.178-.373.362-.551.551l-1.4-.459a1.006,1.006,0,0,0-1.11.348A15.008,15.008,0,0,0,18.2,20.128a1,1,0,0,0,.253,1.137l1.112,1q-.112.371-.2.743l-1.555.311a1,1,0,0,0-.8.98v3.41a1,1,0,0,0,.8.98L19.359,29q.089.372.2.743l-1.112,1a1,1,0,0,0-.253,1.137,15.015,15.015,0,0,0,1.838,3.147,1,1,0,0,0,1.11.348l1.4-.459c.179.188.362.373.551.551l-.459,1.4a1,1,0,0,0,.348,1.11A15.013,15.013,0,0,0,26.127,39.8a1,1,0,0,0,1.137-.253l1-1.111q.374.113.751.2l.3,1.448a1,1,0,0,0,.857.787c.29.036.561.06.827.079V52.035H23.914c-.409-2.947-2.5-5.945-4.374-8.622ZM23,26a9.01,9.01,0,0,0,8,8.941V38.38l-.166-.787a1,1,0,0,0-.8-.779,10.842,10.842,0,0,1-1.742-.47,1.016,1.016,0,0,0-.338-.059,1,1,0,0,0-.745.333l-.94,1.049a12.96,12.96,0,0,1-1.505-.884l.434-1.321a1,1,0,0,0-.3-1.076,10.958,10.958,0,0,1-1.28-1.279,1,1,0,0,0-1.075-.3l-1.321.435a13,13,0,0,1-.884-1.506l1.05-.94a1,1,0,0,0,.274-1.083,10.877,10.877,0,0,1-.47-1.742,1,1,0,0,0-.789-.8L19,26.885v-1.77l1.4-.279a1,1,0,0,0,.789-.8,10.915,10.915,0,0,1,.47-1.743,1,1,0,0,0-.274-1.083l-1.049-.939a13.128,13.128,0,0,1,.884-1.506l1.321.435a1,1,0,0,0,1.075-.3,11.184,11.184,0,0,1,1.281-1.282,1,1,0,0,0,.3-1.073l-.434-1.321a13.035,13.035,0,0,1,1.5-.884l.94,1.049a1,1,0,0,0,1.083.274,10.815,10.815,0,0,1,1.742-.47,1,1,0,0,0,.8-.778L31,13.621v3.438A9.01,9.01,0,0,0,23,26Zm8-6.92V32.92a6.991,6.991,0,0,1,0-13.84Zm9.5,40.955h-17a1.018,1.018,0,0,1-1-1.07,1,1,0,0,1,1-1h17a1.018,1.018,0,0,1,1,1.07,1,1,0,0,1-1,1Zm-.256-6a.916.916,0,0,1,1,.93,1,1,0,0,1-1,1H23.756a1.018,1.018,0,0,1-1-1.07.9.9,0,0,1,1-.859ZM40,40a1,1,0,1,1-1,1A1,1,0,0,1,40,40ZM38,10a1,1,0,1,1-1,1,1,1,0,0,1,1-1Zm2,21H33V21h7Zm11-1a1,1,0,1,1,1-1A1,1,0,0,1,51,30Z"/>
      <g id="Grupo_1160802" data-name="Grupo 1160802">
        <path id="Trazado_995019" data-name="Trazado 995019" d="M4,56H6v2H4Z" fill="#fccc38"/>
        <path id="Trazado_995020" data-name="Trazado 995020" d="M4,60H6v2H4Z" fill="#fccc38"/>
        <path id="Trazado_995021" data-name="Trazado 995021" d="M6,58H8v2H6Z" fill="#fccc38"/>
        <path id="Trazado_995022" data-name="Trazado 995022" d="M2,58H4v2H2Z" fill="#fccc38"/>
        <path id="Trazado_995023" data-name="Trazado 995023" d="M59,2h2V4H59Z" fill="#fccc38"/>
        <path id="Trazado_995024" data-name="Trazado 995024" d="M59,6h2V8H59Z" fill="#fccc38"/>
        <path id="Trazado_995025" data-name="Trazado 995025" d="M61,4h2V6H61Z" fill="#fccc38"/>
        <path id="Trazado_995026" data-name="Trazado 995026" d="M57,4h2V6H57Z" fill="#fccc38"/>
      </g>
    </g>
  </g>
</svg>
