<svg xmlns="http://www.w3.org/2000/svg" xmlns:xlink="http://www.w3.org/1999/xlink" width="505" height="345" viewBox="0 0 505 345">
  <defs>
    <clipPath id="clip-path">
      <rect id="Rectángulo_412986" data-name="Rectángulo 412986" width="505" height="345" transform="translate(915 623.5)" fill="#fff" stroke="#707070" stroke-width="1" opacity="0.38"/>
    </clipPath>
    <clipPath id="clip-path-2">
      <rect id="Rectángulo_412985" data-name="Rectángulo 412985" width="798.024" height="449.247" transform="translate(0 0)"/>
    </clipPath>
  </defs>
  <g id="Enmascarar_grupo_1098799" data-name="Enmascarar grupo 1098799" transform="translate(-915 -623.5)" clip-path="url(#clip-path)">
    <g id="Grupo_1160920" data-name="Grupo 1160920" transform="translate(888.671 577.817)" clip-path="url(#clip-path-2)">
      <g id="Grupo_1160907" data-name="Grupo 1160907" transform="translate(41.624 54.967)">
        <path id="Trazado_995049" data-name="Trazado 995049" d="M-98.3,278.127a51.163,51.163,0,0,0,47.272,23.018A51.163,51.163,0,0,0-9.273,269.193c4.539-11.9,4.38-24.975,4.746-37.7s1.487-26,8.122-36.868S23.979,176.216,35.932,180.6c8.937,3.281,14.582,12.057,18.538,20.717s7.051,18.018,13.556,24.97c9.7,10.372,25.048,13.257,39.25,13.056,29.859-.425,59.9-12.742,79.48-35.289s27.5-55.431,17.834-83.685c-9.237-27.005-33.243-47.378-60.234-56.656S87.736,55.245,59.81,61.139C11.781,71.277-33.618,97.018-63.341,136.083S-125.5,235.175-98.3,278.127Z" transform="translate(108.522 -56.719)" fill="#15da7e" opacity="0.4"/>
        <path id="Trazado_995050" data-name="Trazado 995050" d="M355.282,774.183c-17.112-15.69-23.316-42.179-14.952-63.837s30.763-37.1,53.979-37.215c16.063-.08,31.826,6.472,47.81,4.878A48.338,48.338,0,0,0,480.6,650.345c4.717-10.461,5.485-22.236,8.79-33.226a74.237,74.237,0,0,1,95.55-48.713c28.588,9.975,49.041,37.755,54.066,67.613s-4.058,61.025-20.932,86.166-41.028,44.7-67.116,60.074c-29.867,17.6-63.362,30.283-98.011,31.337S384.491,800.963,355.282,774.183Z" transform="translate(-150.852 -421.323)" fill="#15da7e" opacity="0.4"/>
        <g id="Grupo_1160845" data-name="Grupo 1160845" transform="translate(24.371 70.186)">
          <path id="Trazado_995051" data-name="Trazado 995051" d="M235.224,399.458H164.587a6.415,6.415,0,0,1-6.415-6.415v-77.33a6.415,6.415,0,0,1,6.415-6.415h70.638a6.415,6.415,0,0,1,6.415,6.415v77.33A6.415,6.415,0,0,1,235.224,399.458Z" transform="translate(-158.172 -305.443)" fill="#eddeff" opacity="0.6"/>
          <path id="Trazado_995052" data-name="Trazado 995052" d="M245.492,390.18H174.855a6.415,6.415,0,0,1-6.415-6.415v-77.33a6.415,6.415,0,0,1,6.415-6.415h70.638a6.415,6.415,0,0,1,6.415,6.415v77.33A6.414,6.414,0,0,1,245.492,390.18Z" transform="translate(-164.173 -300.02)" fill="#a6abff"/>
          <g id="Grupo_1160844" data-name="Grupo 1160844" transform="translate(11.332 8.932)">
            <path id="Trazado_995053" data-name="Trazado 995053" d="M210.513,393.812H191.1a5.653,5.653,0,0,1-5.653-5.653V327.168a5.653,5.653,0,0,1,5.653-5.653h19.416a5.653,5.653,0,0,1,5.653,5.653v60.99A5.653,5.653,0,0,1,210.513,393.812Z" transform="translate(-185.444 -321.515)" fill="#3f3fd8"/>
            <g id="Grupo_1160843" data-name="Grupo 1160843" transform="translate(37.819 4.535)">
              <g id="Grupo_1160840" data-name="Grupo 1160840">
                <path id="Trazado_995054" data-name="Trazado 995054" d="M307.318,333.751h-30.2a.66.66,0,1,1,0-1.32h30.2a.66.66,0,1,1,0,1.32Z" transform="translate(-276.461 -332.43)" fill="#3f3fd8"/>
              </g>
              <g id="Grupo_1160841" data-name="Grupo 1160841" transform="translate(0 8.71)">
                <path id="Trazado_995055" data-name="Trazado 995055" d="M307.318,354.714h-30.2a.66.66,0,1,1,0-1.32h30.2a.66.66,0,0,1,0,1.32Z" transform="translate(-276.461 -353.393)" fill="#3f3fd8"/>
              </g>
              <g id="Grupo_1160842" data-name="Grupo 1160842" transform="translate(0 17.421)">
                <path id="Trazado_995056" data-name="Trazado 995056" d="M307.318,375.678h-30.2a.66.66,0,0,1,0-1.321h30.2a.66.66,0,0,1,0,1.321Z" transform="translate(-276.461 -374.357)" fill="#3f3fd8"/>
              </g>
            </g>
          </g>
        </g>
        <g id="Grupo_1160848" data-name="Grupo 1160848" transform="translate(218.865 112.768)">
          <path id="Trazado_995057" data-name="Trazado 995057" d="M686.463,490.436H631.611a5.36,5.36,0,0,1-5.36-5.36V418.5a5.36,5.36,0,0,1,5.36-5.36h54.852a5.36,5.36,0,0,1,5.36,5.36v66.573A5.36,5.36,0,0,1,686.463,490.436Z" transform="translate(-626.251 -408.721)" fill="#eddeff" opacity="0.6"/>
          <path id="Trazado_995058" data-name="Trazado 995058" d="M698.27,479.793H643.418a5.36,5.36,0,0,1-5.36-5.36V407.86a5.36,5.36,0,0,1,5.36-5.36H698.27a5.36,5.36,0,0,1,5.36,5.36v66.573A5.36,5.36,0,0,1,698.27,479.793Z" transform="translate(-633.152 -402.5)" fill="#92f7ff"/>
          <g id="Grupo_1160846" data-name="Grupo 1160846" transform="translate(12.895 10.786)">
            <path id="Trazado_995059" data-name="Trazado 995059" d="M673.8,465.816H661.187a3.9,3.9,0,0,1-3.9-3.9V432.362a3.9,3.9,0,0,1,3.9-3.9H673.8a3.9,3.9,0,0,1,3.9,3.9v29.551A3.9,3.9,0,0,1,673.8,465.816Z" transform="translate(-657.284 -428.459)" fill="#35cfdb"/>
            <path id="Trazado_995060" data-name="Trazado 995060" d="M744.01,465.816H731.394a3.9,3.9,0,0,1-3.9-3.9V432.362a3.9,3.9,0,0,1,3.9-3.9H744.01a3.9,3.9,0,0,1,3.9,3.9v29.551A3.9,3.9,0,0,1,744.01,465.816Z" transform="translate(-698.319 -428.459)" fill="#35cfdb"/>
          </g>
          <g id="Grupo_1160847" data-name="Grupo 1160847" transform="translate(16.464 53.381)">
            <path id="Trazado_995061" data-name="Trazado 995061" d="M707.133,533.361H667.07a1.2,1.2,0,0,1-1.2-1.2h0a1.2,1.2,0,0,1,1.2-1.2h40.063a1.2,1.2,0,0,1,1.2,1.2h0A1.2,1.2,0,0,1,707.133,533.361Z" transform="translate(-665.874 -530.968)" fill="#35cfdb"/>
            <path id="Trazado_995062" data-name="Trazado 995062" d="M707.492,547.478h-38.3a1.2,1.2,0,0,1-1.2-1.2h0a1.2,1.2,0,0,1,1.2-1.2h38.3a1.2,1.2,0,0,1,1.2,1.2h0A1.2,1.2,0,0,1,707.492,547.478Z" transform="translate(-667.114 -539.219)" fill="#35cfdb"/>
            <path id="Trazado_995063" data-name="Trazado 995063" d="M708.664,560.911H676.126a1.2,1.2,0,0,1-1.2-1.2h0a1.2,1.2,0,0,1,1.2-1.2h32.537a1.2,1.2,0,0,1,1.2,1.2h0A1.2,1.2,0,0,1,708.664,560.911Z" transform="translate(-671.167 -547.07)" fill="#35cfdb"/>
          </g>
        </g>
        <g id="Grupo_1160849" data-name="Grupo 1160849" transform="translate(15.304 296.211)">
          <rect id="Rectángulo_412981" data-name="Rectángulo 412981" width="326.037" height="23.995" transform="translate(0 14.234)" fill="#09066a"/>
          <path id="Trazado_995064" data-name="Trazado 995064" d="M462.388,858.217H136.351a14.234,14.234,0,0,1,14.234-14.234H448.154a14.234,14.234,0,0,1,14.234,14.234Z" transform="translate(-136.351 -843.983)" fill="#3f3fd8"/>
        </g>
        <g id="Grupo_1160851" data-name="Grupo 1160851" transform="translate(57.134 111.184)">
          <path id="Trazado_995065" data-name="Trazado 995065" d="M340.73,498.8H247.608a10.587,10.587,0,0,1-10.587-10.587V422.717a10.587,10.587,0,0,1,10.587-10.587H340.73a10.587,10.587,0,0,1,10.587,10.587v65.494A10.587,10.587,0,0,1,340.73,498.8Z" transform="translate(-237.021 -406.544)" fill="#eddeff" opacity="0.6"/>
          <path id="Trazado_995066" data-name="Trazado 995066" d="M352.464,485.354H259.341a10.587,10.587,0,0,1-10.587-10.587V409.274a10.587,10.587,0,0,1,10.587-10.587h93.123a10.587,10.587,0,0,1,10.587,10.587v65.494A10.587,10.587,0,0,1,352.464,485.354Z" transform="translate(-243.879 -398.687)" fill="#35cfdb"/>
          <path id="Trazado_995067" data-name="Trazado 995067" d="M352.464,398.687H259.341a10.587,10.587,0,0,0-10.587,10.587v1.889h114.3v-1.889A10.586,10.586,0,0,0,352.464,398.687Z" transform="translate(-243.879 -398.687)" fill="#0f89a5"/>
          <g id="Grupo_1160850" data-name="Grupo 1160850" transform="translate(15.036 3.229)">
            <circle id="Elipse_11836" data-name="Elipse 11836" cx="3.01" cy="3.01" r="3.01" fill="#92f7ff"/>
            <circle id="Elipse_11837" data-name="Elipse 11837" cx="3.01" cy="3.01" r="3.01" transform="translate(12.169)" fill="#92f7ff"/>
            <circle id="Elipse_11838" data-name="Elipse 11838" cx="3.01" cy="3.01" r="3.01" transform="translate(24.337)" fill="#92f7ff"/>
          </g>
        </g>
        <g id="Grupo_1160852" data-name="Grupo 1160852" transform="translate(83.397 128.154)">
          <circle id="Elipse_11839" data-name="Elipse 11839" cx="15.975" cy="15.975" r="15.975" transform="translate(19.785)" fill="#92f7ff"/>
          <path id="Trazado_995068" data-name="Trazado 995068" d="M300.227,565.8h71.52c-2.7-16.7-17.682-29.475-35.76-29.475h0C317.909,536.327,302.928,549.1,300.227,565.8Z" transform="translate(-300.227 -496.105)" fill="#92f7ff"/>
        </g>
        <g id="Grupo_1160854" data-name="Grupo 1160854" transform="translate(242.19 73.096)">
          <path id="Trazado_995069" data-name="Trazado 995069" d="M757.822,398.755H691.787a9.4,9.4,0,0,1-9.4-9.4V326.838a9.4,9.4,0,0,1,9.4-9.4h66.035a9.4,9.4,0,0,1,9.4,9.4v62.515A9.4,9.4,0,0,1,757.822,398.755Z" transform="translate(-682.385 -313.109)" fill="#eddeff" opacity="0.6"/>
          <path id="Trazado_995070" data-name="Trazado 995070" d="M769.213,388.343H703.178a9.4,9.4,0,0,1-9.4-9.4V316.425a9.4,9.4,0,0,1,9.4-9.4h66.036a9.4,9.4,0,0,1,9.4,9.4V378.94A9.4,9.4,0,0,1,769.213,388.343Z" transform="translate(-689.043 -307.023)" fill="#3f3fd8"/>
          <g id="Grupo_1160853" data-name="Grupo 1160853" transform="translate(11.602 5.109)">
            <path id="Trazado_995071" data-name="Trazado 995071" d="M745.858,319.319a35.551,35.551,0,1,0,35.551,35.551A35.551,35.551,0,0,0,745.858,319.319Zm0,60.7A25.152,25.152,0,1,1,771.01,354.87,25.152,25.152,0,0,1,745.858,380.022Z" transform="translate(-710.307 -319.319)" fill="#f5fdff"/>
            <path id="Trazado_995072" data-name="Trazado 995072" d="M854.12,388.466c-.019-.068-.037-.135-.057-.2C854.083,388.331,854.1,388.4,854.12,388.466Z" transform="translate(-794.331 -359.616)" fill="none" stroke="#000" stroke-miterlimit="10" stroke-width="1.402"/>
            <path id="Trazado_995073" data-name="Trazado 995073" d="M853.257,385.664q-.042-.128-.085-.255C853.2,385.493,853.229,385.578,853.257,385.664Z" transform="translate(-793.809 -357.947)" fill="none" stroke="#000" stroke-miterlimit="10" stroke-width="1.402"/>
            <path id="Trazado_995074" data-name="Trazado 995074" d="M813.833,379.188h-.009a35.361,35.361,0,0,1,1.387,6.477l-10.161,3.525c.006.224.017.446.017.671a25.154,25.154,0,0,1-35.208,23.055l-1.283,10.638a35.567,35.567,0,0,0,45.257-44.368Z" transform="translate(-744.364 -354.311)" fill="#35cfdb"/>
            <path id="Trazado_995075" data-name="Trazado 995075" d="M852.265,382.924c-.038-.1-.076-.2-.114-.3C852.19,382.725,852.228,382.824,852.265,382.924Z" transform="translate(-793.213 -356.322)" fill="none" stroke="#000" stroke-miterlimit="10" stroke-width="1.402"/>
            <path id="Trazado_995076" data-name="Trazado 995076" d="M855.9,397.211c0-.008,0-.016,0-.024C855.894,397.195,855.895,397.2,855.9,397.211Z" transform="translate(-795.4 -364.832)" fill="none" stroke="#000" stroke-miterlimit="10" stroke-width="1.402"/>
            <path id="Trazado_995077" data-name="Trazado 995077" d="M854.852,391.329l-.032-.14C854.83,391.236,854.841,391.282,854.852,391.329Z" transform="translate(-794.773 -361.326)" fill="none" stroke="#000" stroke-miterlimit="10" stroke-width="1.402"/>
            <path id="Trazado_995078" data-name="Trazado 995078" d="M855.444,394.245c0-.025-.009-.051-.013-.076C855.436,394.194,855.44,394.22,855.444,394.245Z" transform="translate(-795.13 -363.068)" fill="none" stroke="#000" stroke-miterlimit="10" stroke-width="1.402"/>
            <path id="Trazado_995079" data-name="Trazado 995079" d="M800.151,319.429v10.422a25.145,25.145,0,0,1,23.354,24.411l10.161-3.525A35.552,35.552,0,0,0,800.151,319.429Z" transform="translate(-762.819 -319.383)" fill="#92f7ff"/>
            <path id="Trazado_995080" data-name="Trazado 995080" d="M753.7,319.373c-.591-.029-1.183-.054-1.781-.054A35.543,35.543,0,0,0,720.671,337.9l7.805,7.85a25.156,25.156,0,0,1,23.439-16.029c.6,0,1.193.025,1.781.066Z" transform="translate(-716.365 -319.319)" fill="#a6abff"/>
          </g>
        </g>
        <circle id="Elipse_11840" data-name="Elipse 11840" cx="7.401" cy="7.401" r="7.401" transform="translate(41.493 225.97) rotate(-57.887)" fill="#7789f2"/>
        <ellipse id="Elipse_11841" data-name="Elipse 11841" cx="6.15" cy="6.149" rx="6.15" ry="6.149" transform="translate(86.046 176.765) rotate(-60.033)" fill="#3f3fd8"/>
        <g id="Grupo_1160855" data-name="Grupo 1160855" transform="translate(58.435 180.353)">
          <path id="Trazado_995081" data-name="Trazado 995081" d="M240.812,600.585a.66.66,0,0,1-.5-1.094l29.7-34.112a.66.66,0,1,1,1,.867l-29.7,34.111A.657.657,0,0,1,240.812,600.585Z" transform="translate(-240.151 -565.153)" fill="#09066a"/>
        </g>
        <g id="Grupo_1160859" data-name="Grupo 1160859" transform="translate(37.196 125.628)">
          <g id="Grupo_1160856" data-name="Grupo 1160856">
            <path id="Trazado_995082" data-name="Trazado 995082" d="M192.713,437.339a.659.659,0,0,1-.428-.157l-3.015-2.57a.66.66,0,0,1,.856-1.005l3.015,2.57a.66.66,0,0,1-.428,1.163Z" transform="translate(-189.038 -433.449)" fill="#f5fdff"/>
          </g>
          <g id="Grupo_1160857" data-name="Grupo 1160857" transform="translate(9.142 7.792)">
            <path id="Trazado_995083" data-name="Trazado 995083" d="M242.336,479.632a.659.659,0,0,1-.428-.157l-6.128-5.222a.66.66,0,0,1,.856-1.005l6.128,5.222a.66.66,0,0,1-.428,1.163Zm-12.254-10.444a.657.657,0,0,1-.428-.158l-6.127-5.222a.66.66,0,0,1,.856-1.005l6.127,5.222a.66.66,0,0,1-.429,1.163Zm-12.255-10.444a.659.659,0,0,1-.428-.157l-6.127-5.222a.66.66,0,1,1,.856-1.005l6.127,5.222a.66.66,0,0,1-.428,1.163Z" transform="translate(-211.04 -452.201)" fill="#f5fdff"/>
          </g>
          <g id="Grupo_1160858" data-name="Grupo 1160858" transform="translate(45.906 39.124)">
            <path id="Trazado_995084" data-name="Trazado 995084" d="M303.192,531.5a.659.659,0,0,1-.428-.157l-3.015-2.57a.66.66,0,1,1,.856-1.005l3.015,2.57a.66.66,0,0,1-.428,1.163Z" transform="translate(-299.517 -527.606)" fill="#f5fdff"/>
          </g>
        </g>
        <circle id="Elipse_11842" data-name="Elipse 11842" cx="6.624" cy="6.624" r="6.624" transform="matrix(0.318, -0.948, 0.948, 0.318, 21.664, 123.171)" fill="#09066a"/>
        <g id="Grupo_1160862" data-name="Grupo 1160862" transform="translate(29.244 28.489)">
          <g id="Grupo_1160860" data-name="Grupo 1160860" transform="translate(0 0)">
            <circle id="Elipse_11843" data-name="Elipse 11843" cx="16.775" cy="16.775" r="16.775" transform="translate(0 33.118) rotate(-80.782)" fill="#a6abff"/>
            <circle id="Elipse_11844" data-name="Elipse 11844" cx="13.64" cy="13.64" r="13.64" transform="translate(3.597 30.525) rotate(-80.782)" fill="#7789f2"/>
          </g>
          <g id="Grupo_1160861" data-name="Grupo 1160861" transform="translate(13.364 9.165)">
            <path id="Trazado_995085" data-name="Trazado 995085" d="M207.142,229.825a12.981,12.981,0,0,1-5.009-1.152l.964-3.246a8.615,8.615,0,0,0,2.034.753,13.192,13.192,0,0,0,2.011.329v-3.293l-.353-.094a7.508,7.508,0,0,1-3.5-1.917,4.232,4.232,0,0,1-1.223-3.022,4.055,4.055,0,0,1,1.352-3.151,6.217,6.217,0,0,1,3.727-1.435v-2.234h2V213.6a12.9,12.9,0,0,1,4.35,1.153l-1.223,3.151a7.017,7.017,0,0,0-3.128-.988v3.151l.282.071a7.048,7.048,0,0,1,3.422,1.822,4.174,4.174,0,0,1,1.211,3,4.385,4.385,0,0,1-1.281,3.293,6.087,6.087,0,0,1-3.633,1.528v1.764h-2v-1.716Zm0-12.91q-1.223.259-1.223,1.246a1.081,1.081,0,0,0,.258.741,2.594,2.594,0,0,0,.964.576Zm3.1,8.325a1.321,1.321,0,0,0-.224-.8,1.99,1.99,0,0,0-.882-.565v2.493Q210.246,226.086,210.247,225.24Z" transform="translate(-202.063 -211.364)" fill="#f5fdff"/>
          </g>
        </g>
        <g id="Grupo_1160868" data-name="Grupo 1160868" transform="translate(249.118 19.444)">
          <g id="Grupo_1160863" data-name="Grupo 1160863" transform="translate(23.687 5.418)">
            <path id="Trazado_995086" data-name="Trazado 995086" d="M763.557,195.489a2.946,2.946,0,1,1-2.946-2.946A2.947,2.947,0,0,1,763.557,195.489Z" transform="translate(-756.999 -191.878)" fill="#b6f2fc"/>
            <path id="Trazado_995087" data-name="Trazado 995087" d="M759.675,198.166a3.612,3.612,0,1,1,3.612-3.612A3.616,3.616,0,0,1,759.675,198.166Zm0-5.893a2.281,2.281,0,1,0,2.281,2.281A2.283,2.283,0,0,0,759.675,192.273Z" transform="translate(-756.064 -190.942)" fill="#b6f2fc"/>
          </g>
          <g id="Grupo_1160864" data-name="Grupo 1160864" transform="translate(10.276 20.587)">
            <path id="Trazado_995088" data-name="Trazado 995088" d="M727.4,234.67a3.612,3.612,0,1,1,3.611-3.612A3.616,3.616,0,0,1,727.4,234.67Zm0-5.892a2.281,2.281,0,1,0,2.28,2.281A2.284,2.284,0,0,0,727.4,228.778Z" transform="translate(-723.789 -227.447)" fill="#b6f2fc"/>
          </g>
          <g id="Grupo_1160867" data-name="Grupo 1160867">
            <g id="Grupo_1160865" data-name="Grupo 1160865" transform="translate(8.365)">
              <path id="Trazado_995089" data-name="Trazado 995089" d="M719.854,195.962a.665.665,0,0,1-.665-.665v-16.73a.665.665,0,0,1,1.331,0V195.3A.665.665,0,0,1,719.854,195.962Z" transform="translate(-719.189 -177.902)" fill="#b6f2fc"/>
            </g>
            <g id="Grupo_1160866" data-name="Grupo 1160866" transform="translate(0 8.365)">
              <path id="Trazado_995090" data-name="Trazado 995090" d="M716.453,199.364h-16.73a.665.665,0,0,1,0-1.33h16.73a.665.665,0,1,1,0,1.33Z" transform="translate(-699.058 -198.034)" fill="#b6f2fc"/>
            </g>
          </g>
        </g>
        <path id="Trazado_995091" data-name="Trazado 995091" d="M882.929,244.271a23.337,23.337,0,0,0-22.785-23.3l-.015,0a.509.509,0,0,0-.062,0h-.02a.64.64,0,0,0-.1,0c-.11,0-.22-.008-.331-.008a23.315,23.315,0,0,0,0,46.63h0c.116,0,.231-.007.347-.009.017,0,.032.009.05.009h0a.629.629,0,0,0,.115-.01l.016,0A23.338,23.338,0,0,0,882.929,244.271Zm-3.553-.843a23.931,23.931,0,0,0-2.313-9.494q1.14.319,2.309.685a21.833,21.833,0,0,1,2.215,8.809Zm-1.32,0H871c0-.16,0-.319-.008-.479A29.385,29.385,0,0,0,868.249,232c2.25.353,4.617.835,7.092,1.47A22.571,22.571,0,0,1,878.055,243.428ZM860.275,222.79a36.2,36.2,0,0,1,5.625,7.566c-1.959-.234-3.836-.375-5.625-.438Zm-1.321,7.093c-1.769-.027-3.447.021-5.031.126a36.476,36.476,0,0,1,5.031-6.805Zm0,1.3v12.247h-9.007c0-.135,0-.27.007-.4a28.393,28.393,0,0,1,3.246-11.68C854.952,231.207,856.879,231.144,858.954,231.18Zm0,13.568v13.615c-1.652-.064-3.393-.193-5.223-.408a28.093,28.093,0,0,1-3.792-13.208h9.015Zm0,14.925v5.543a43.758,43.758,0,0,1-4.391-5.85C856.078,259.52,857.546,259.624,858.954,259.674Zm1.321.023c.308,0,.625.016.928.016,1.289,0,2.524-.042,3.71-.113a44.544,44.544,0,0,1-4.638,6.055Zm0-1.3V244.749h9.414a28.229,28.229,0,0,1-3.968,13.508C864.051,258.378,862.232,258.434,860.275,258.4Zm0-14.971V231.214c1.992.076,4.12.255,6.37.556a28.222,28.222,0,0,1,3.029,11.254c.006.135,0,.27.007.4Zm7.279-12.856a36.739,36.739,0,0,0-5.45-7.789,21.926,21.926,0,0,1,12.29,9.1C872.019,231.313,869.738,230.884,867.554,230.572Zm-15.251-.43a55.222,55.222,0,0,0-6.572,1.01,21.9,21.9,0,0,1,11.793-8.369A36.858,36.858,0,0,0,852.3,230.142Zm-3.442,1.714c.856-.138,1.776-.262,2.756-.367a29.551,29.551,0,0,0-2.98,11.46c-.008.16,0,.319-.008.479h-7.056A22.554,22.554,0,0,1,844.72,232.7C845.97,232.391,847.347,232.1,848.861,231.856Zm-8.609,11.572h-2.609a21.832,21.832,0,0,1,2.474-9.315c.809-.3,1.753-.618,2.821-.93A23.9,23.9,0,0,0,840.251,243.428Zm-.008,1.32a23.9,23.9,0,0,0,3.008,11.189q-1.346-.357-2.734-.776a21.84,21.84,0,0,1-2.885-10.413Zm1.321,0h7.055a29.038,29.038,0,0,0,3.5,13c-2.237-.314-4.592-.753-7.063-1.347A22.556,22.556,0,0,1,841.563,244.749Zm11.351,14.425a43.777,43.777,0,0,0,4.811,6.646,21.878,21.878,0,0,1-11.531-7.8C848.533,258.535,850.768,258.906,852.914,259.174Zm13.619.309a55.6,55.6,0,0,0,6.5-.952A21.858,21.858,0,0,1,861.9,265.82,44.1,44.1,0,0,0,866.533,259.483Zm3.833-1.758c-.941.151-1.965.284-3.055.395a29.179,29.179,0,0,0,3.7-13.371h7.054a22.545,22.545,0,0,1-3.863,12.206C873.032,257.237,871.756,257.5,870.366,257.725Zm9.018-12.976H881.6a21.856,21.856,0,0,1-3.217,10.982c-.688.24-1.459.486-2.3.728A23.9,23.9,0,0,0,879.384,244.749Zm-.909-11.777q-1.133-.333-2.242-.628a23.45,23.45,0,0,0-8.137-8.364A22.129,22.129,0,0,1,878.475,232.972Zm-26.17-9.441a23.4,23.4,0,0,0-8.462,8.069c-1,.258-1.9.526-2.723.792A22.1,22.1,0,0,1,852.3,223.531Zm-10.717,33.319q1.344.38,2.653.706a23.378,23.378,0,0,0,8.064,7.457A22.1,22.1,0,0,1,841.587,256.849Zm26.508,7.713a23.385,23.385,0,0,0,6.937-6.49c.772-.194,1.489-.4,2.158-.6A22.111,22.111,0,0,1,868.1,264.563Z" transform="translate(-530.155 -183.623)" fill="#92f7ff"/>
        <g id="Grupo_1160872" data-name="Grupo 1160872" transform="translate(344.822 143.015)" opacity="0.9">
          <g id="Grupo_1160871" data-name="Grupo 1160871">
            <g id="Grupo_1160869" data-name="Grupo 1160869" transform="translate(8.365)">
              <path id="Trazado_995092" data-name="Trazado 995092" d="M950.182,493.355a.665.665,0,0,1-.665-.665v-16.73a.665.665,0,1,1,1.33,0v16.73A.665.665,0,0,1,950.182,493.355Z" transform="translate(-949.517 -475.294)" fill="#eddeff"/>
            </g>
            <g id="Grupo_1160870" data-name="Grupo 1160870" transform="translate(0 8.365)">
              <path id="Trazado_995093" data-name="Trazado 995093" d="M946.781,496.756H930.05a.665.665,0,0,1,0-1.33h16.73a.665.665,0,0,1,0,1.33Z" transform="translate(-929.385 -495.426)" fill="#eddeff"/>
            </g>
          </g>
          <path id="Trazado_995094" data-name="Trazado 995094" d="M970.3,526.565l1.406,10.634a1.461,1.461,0,0,0,2.339.967l8.506-6.534a1.461,1.461,0,0,0-.332-2.509l-9.912-4.1A1.461,1.461,0,0,0,970.3,526.565Z" transform="translate(-953.293 -504.294)" fill="#eddeff"/>
        </g>
        <g id="Grupo_1160874" data-name="Grupo 1160874" transform="translate(128.705 45.357)">
          <g id="Grupo_1160873" data-name="Grupo 1160873" transform="translate(0 22.988)">
            <path id="Trazado_995095" data-name="Trazado 995095" d="M412.878,302.813a3.612,3.612,0,1,1,3.612-3.612A3.616,3.616,0,0,1,412.878,302.813Zm0-5.893a2.281,2.281,0,1,0,2.281,2.281A2.284,2.284,0,0,0,412.878,296.92Z" transform="translate(-409.266 -295.589)" fill="#eddeff"/>
          </g>
          <path id="Trazado_995096" data-name="Trazado 995096" d="M463.973,311.142a3.612,3.612,0,1,0,3.612,3.612A3.616,3.616,0,0,0,463.973,311.142Z" transform="translate(-439.13 -281.691)" fill="#eddeff"/>
          <path id="Trazado_995097" data-name="Trazado 995097" d="M449,246.887,437.942,240.5a1.74,1.74,0,0,0-2.61,1.507v12.774a1.74,1.74,0,0,0,2.61,1.507L449,249.9A1.741,1.741,0,0,0,449,246.887Z" transform="translate(-424.501 -240.265)" fill="#eddeff"/>
        </g>
        <g id="Grupo_1160875" data-name="Grupo 1160875" transform="translate(18.216 179.127)">
          <circle id="Elipse_11845" data-name="Elipse 11845" cx="2.946" cy="2.946" r="2.946" transform="translate(0 15.222)" fill="#eddeff"/>
          <path id="Trazado_995098" data-name="Trazado 995098" d="M176.4,626.321a3.612,3.612,0,1,0,3.612,3.612A3.616,3.616,0,0,0,176.4,626.321Z" transform="translate(-160.562 -599.679)" fill="#eddeff"/>
          <path id="Trazado_995099" data-name="Trazado 995099" d="M168.805,564.813l6.387,11.063a1.74,1.74,0,0,0,3.014,0l6.387-11.063a1.74,1.74,0,0,0-1.507-2.61H170.312A1.74,1.74,0,0,0,168.805,564.813Z" transform="translate(-158.095 -562.203)" fill="#eddeff"/>
        </g>
        <g id="Grupo_1160877" data-name="Grupo 1160877" transform="translate(70.371 36.424)">
          <g id="Grupo_1160876" data-name="Grupo 1160876">
            <circle id="Elipse_11846" data-name="Elipse 11846" cx="21.747" cy="21.747" r="21.747" fill="#92f7ff"/>
            <circle id="Elipse_11847" data-name="Elipse 11847" cx="17.683" cy="17.683" r="17.683" transform="translate(4.065 4.065)" fill="#35cfdb"/>
          </g>
          <path id="Trazado_995100" data-name="Trazado 995100" d="M305.935,239.973c0-1.451,0-2.875-.006-4.341l2.71-.008c0,.776.008,1.533.011,2.289,0,.626.016,1.252,0,1.878-.008.256.1.3.317.336a28.653,28.653,0,0,1,2.971.617,4.443,4.443,0,0,1,2.946,2.447,4.6,4.6,0,0,1-1.8,5.989c-.019.012-.028.039-.056.081.084.027.16.055.238.076a4.462,4.462,0,0,1,3.62,4.955c-.011.337-.044.675-.089,1.009a5.18,5.18,0,0,1-4.008,4.6c-1.306.369-2.669.536-4.081.808,0,1.365,0,2.848,0,4.376l-2.71.01c-.005-1.475-.01-2.933-.016-4.437l-2.166-.022c0,1.488,0,2.948.007,4.461l-2.71.01c-.005-1.51-.011-2.993-.017-4.518l-5.474-.006.531-3.232c.649,0,1.274.017,1.9-.009.781-.032,1.1-.384,1.094-1.167q0-3.118-.012-6.235-.005-2.723-.008-5.446a1.325,1.325,0,0,0-1.338-1.456c-.722-.044-1.447-.028-2.2-.039,0-.951,0-1.9-.006-2.878l5.471-.012c0-1.5,0-2.973,0-4.472l2.71-.007c0,1.463.009,2.9.013,4.369Zm-2.071,17.381c.725,0,1.437.014,2.147-.009a9.743,9.743,0,0,0,3.927-.742,2.386,2.386,0,0,0,1.535-2.179,2.329,2.329,0,0,0-1.386-2.307,7.109,7.109,0,0,0-1.667-.558,20.114,20.114,0,0,0-4.567-.189C303.857,253.359,303.86,255.334,303.864,257.354Zm-.029-14.232c0,1.9.008,3.7.012,5.506.424,0,.81.02,1.2.012a9.249,9.249,0,0,0,3.612-.556,2.252,2.252,0,0,0,1.531-2.113,2.215,2.215,0,0,0-1.41-2.229,4.312,4.312,0,0,0-1.323-.4C306.276,243.233,305.09,243.194,303.835,243.122Z" transform="translate(-284.484 -228.62)" fill="#f5fdff"/>
        </g>
        <g id="Grupo_1160880" data-name="Grupo 1160880" transform="translate(252.489 256.739)">
          <ellipse id="Elipse_11848" data-name="Elipse 11848" cx="16.134" cy="4.621" rx="16.134" ry="4.621" transform="translate(0 40.979)" fill="#3737b7" opacity="0.59"/>
          <g id="Grupo_1160879" data-name="Grupo 1160879">
            <g id="Grupo_1160878" data-name="Grupo 1160878" transform="translate(1.304 17.603)">
              <ellipse id="Elipse_11849" data-name="Elipse 11849" cx="14.84" cy="5.186" rx="14.84" ry="5.186" fill="#09066a"/>
              <path id="Trazado_995101" data-name="Trazado 995101" d="M725.531,810.4c-7.231,0-13.251-1.808-14.569-4.2l4.64,16.872a7.414,7.414,0,0,0,7.171,5.409h5.516a7.414,7.414,0,0,0,7.171-5.409L740.1,806.2C738.782,808.6,732.762,810.4,725.531,810.4Z" transform="translate(-710.691 -800.031)" fill="#a6abff"/>
              <path id="Trazado_995102" data-name="Trazado 995102" d="M730.065,805.288a31.622,31.622,0,0,0,11.163-1.771,6.719,6.719,0,0,0-3.167-4.005c-5.366-3.332-15.573-3.029-19.342,3.931A31.207,31.207,0,0,0,730.065,805.288Z" transform="translate(-715.224 -794.915)" fill="#3f3fd8"/>
            </g>
            <path id="Trazado_995103" data-name="Trazado 995103" d="M735.257,761.844a2.794,2.794,0,0,0-1.393-1.737c-1.311-.7-3.081-.275-4.734,1.128a18.66,18.66,0,0,0-5.083,8.014,59.287,59.287,0,0,0-.1-16.027c-.142-1-.788-4.235-3.172-4.235h-.031c-1.8.022-2.777,1.982-3.09,3.809-1.062,6.2.879,11.416,3.14,16.828-.306-.46-.612-.91-.915-1.355a45.326,45.326,0,0,1-3.29-5.376,12.6,12.6,0,0,0-2.52-3.786,4.466,4.466,0,0,0-4.434-1.137c-1.967.728-2.752,3.106-2.376,4.984a9.581,9.581,0,0,0,3.036,4.773,27.918,27.918,0,0,0,12.39,6.918,1.936,1.936,0,0,0,.477.054c2.723,0,9.207-4.259,11.31-8.114A6.764,6.764,0,0,0,735.257,761.844Z" transform="translate(-707.171 -748.986)" fill="#35cfdb"/>
            <path id="Trazado_995104" data-name="Trazado 995104" d="M725.322,828.484h2.968c.081,0,.16-.007.24-.01-7.5-4.577-8.418-12.791-8.026-18.378-4.861-.612-8.544-2.085-9.54-3.893l4.64,16.872a7.414,7.414,0,0,0,7.171,5.409h2.547Z" transform="translate(-709.387 -782.428)" fill="#a6abff" opacity="0.41"/>
          </g>
        </g>
        <g id="Grupo_1160890" data-name="Grupo 1160890" transform="translate(259.955 185.87)">
          <ellipse id="Elipse_11850" data-name="Elipse 11850" cx="21.656" cy="7.568" rx="21.656" ry="7.568" transform="translate(24.804 69.869)" fill="#35cfdb"/>
          <g id="Grupo_1160882" data-name="Grupo 1160882" transform="translate(0 22.543)">
            <path id="Trazado_995105" data-name="Trazado 995105" d="M732.189,633.474c-1.861-1.68-5.116-.485-6.289,1.731s-.808,4.92-.136,7.336a33.249,33.249,0,0,0,9.7,15.678c-3.625.36-6.219,4.34-5.7,7.945s3.572,6.513,7.056,7.579a17.03,17.03,0,0,0,10.714-.725c-3.032,3.044-1,8.646,2.686,10.851s8.238,2.122,12.526,2.395,9,1.219,11.574,4.659a73.844,73.844,0,0,0,.588-21.3c-.327-2.774-.91-5.726-2.9-7.683s-5.837-2.2-7.28.192c.128-4.866.142-10.122-2.7-14.074s-9.712-5.2-12.337-1.1C748.268,638.885,739.775,632.755,732.189,633.474Z" transform="translate(-725.138 -632.684)" fill="#7789f2"/>
            <g id="Grupo_1160881" data-name="Grupo 1160881" transform="translate(0.579 1.803)">
              <path id="Trazado_995106" data-name="Trazado 995106" d="M775.5,691.093a144.939,144.939,0,0,0-48.3-54.071,4.327,4.327,0,0,0-.484.719c-.073.138-.122.282-.184.423a143.587,143.587,0,0,1,48.619,55.163C775.279,692.584,775.393,691.839,775.5,691.093Z" transform="translate(-726.531 -637.022)" fill="#3f3fd8"/>
              <path id="Trazado_995107" data-name="Trazado 995107" d="M748.976,644.214q-.634-.589-1.319-1.117a38.056,38.056,0,0,0,2.372,13.776,26.057,26.057,0,0,0-17.55-2.062c.207.405.421.807.645,1.2A24.372,24.372,0,0,1,751,658.947a.66.66,0,0,0,.957-.822A36.552,36.552,0,0,1,748.976,644.214Z" transform="translate(-730.008 -640.573)" fill="#3f3fd8"/>
              <path id="Trazado_995108" data-name="Trazado 995108" d="M770.071,689.876a.661.661,0,0,0,.588-.962,46.033,46.033,0,0,1-4.469-25.347,9.557,9.557,0,0,0-1.25-.679,48,48,0,0,0,3.618,24.7,43.929,43.929,0,0,0-32.3-3.817c0,.016,0,.032,0,.048a7.737,7.737,0,0,0,.284,1.228,42.635,42.635,0,0,1,33.187,4.733A.652.652,0,0,0,770.071,689.876Z" transform="translate(-732.213 -652.14)" fill="#3f3fd8"/>
              <path id="Trazado_995109" data-name="Trazado 995109" d="M801.867,702.372a4.918,4.918,0,0,0-.632-.514,38.971,38.971,0,0,0-2.3,19.106,35.424,35.424,0,0,0-22.7-1.719,8.711,8.711,0,0,0,.477,1.239,34,34,0,0,1,22.775,2.179.66.66,0,0,0,.935-.705,37.524,37.524,0,0,1,1.851-19.12C802.143,702.681,802.017,702.519,801.867,702.372Z" transform="translate(-755.584 -674.918)" fill="#3f3fd8"/>
            </g>
          </g>
          <g id="Grupo_1160884" data-name="Grupo 1160884" transform="translate(36.023)">
            <path id="Trazado_995110" data-name="Trazado 995110" d="M822.964,654.644c3.178-4.517,1.466-10.871-1.492-15.535s-7.065-8.7-8.908-13.9-.219-12.335,5.084-13.878c1.561-.454,3.483-.5,4.366-1.869.691-1.068.4-2.467.106-3.706-1.464-6.215-2.222-12.967.352-18.811s9.486-10.162,15.458-7.9c6.51,2.464,8.5,11.136,6.518,17.809-1.2,4.058-3.374,8.774-.8,12.136,1.575,2.06,4.437,2.716,6.221,4.6,1.895,2,2.236,5.1,1.522,7.756a21.835,21.835,0,0,1-3.978,7.181A177.049,177.049,0,0,1,822.964,654.644Z" transform="translate(-811.832 -578.43)" fill="#3f3fd8"/>
            <g id="Grupo_1160883" data-name="Grupo 1160883" transform="translate(3.225 0.051)">
              <path id="Trazado_995111" data-name="Trazado 995111" d="M852.427,578.809c0-.019-.011-.034-.013-.053a9.443,9.443,0,0,0-1.231-.2.644.644,0,0,0-.075.316A186.311,186.311,0,0,1,840.25,650.29a9.389,9.389,0,0,1-1.625,4.427c.705-.625,1.4-1.265,2.1-1.9A187.6,187.6,0,0,0,852.427,578.809Z" transform="translate(-830.716 -578.553)" fill="#7789f2"/>
              <path id="Trazado_995112" data-name="Trazado 995112" d="M850.675,617.712a.64.64,0,0,0,.079,0,.661.661,0,0,0,.58-.344,87.855,87.855,0,0,1,9.189-13.5,18.422,18.422,0,0,0,.263-2.365,91.032,91.032,0,0,0-9.827,13.828c-1.948-6.669-5.461-15.028-11.664-21.6q-.386.576-.712,1.184c5.09,5.549,9.117,13.29,11.533,22.3A.66.66,0,0,0,850.675,617.712Z" transform="translate(-830.692 -587.429)" fill="#7789f2"/>
              <path id="Trazado_995113" data-name="Trazado 995113" d="M856.74,638.6c-.073-.084-.157-.158-.225-.248a5.594,5.594,0,0,1-.533-.864,71.4,71.4,0,0,0-10.413,15.056,37.856,37.856,0,0,0-11.718-23.87q.113,1.063.281,2.123a36.3,36.3,0,0,1,10.257,24.316.66.66,0,0,0,.523.634.681.681,0,0,0,.137.014.66.66,0,0,0,.6-.38A69.879,69.879,0,0,1,856.74,638.6Z" transform="translate(-827.927 -607.85)" fill="#7789f2"/>
              <path id="Trazado_995114" data-name="Trazado 995114" d="M855.157,661.74a6.174,6.174,0,0,0-.755-1c-.015-.016-.032-.028-.047-.044A80.8,80.8,0,0,0,834.5,683.538,35.916,35.916,0,0,0,820.741,659.1a7.047,7.047,0,0,0-1.148.782,34.359,34.359,0,0,1,13.737,25.933.66.66,0,0,0,1.24.3A79.4,79.4,0,0,1,855.157,661.74Z" transform="translate(-819.593 -625.633)" fill="#7789f2"/>
            </g>
          </g>
          <g id="Grupo_1160886" data-name="Grupo 1160886" transform="translate(49.546 38.107)">
            <path id="Trazado_995115" data-name="Trazado 995115" d="M844.377,710.346a42.112,42.112,0,0,1,46.472-39.984c-.694,10.648-7.425,20.24-16.077,26.484S855.7,706.395,844.377,710.346Z" transform="translate(-844.377 -670.141)" fill="#09066a"/>
            <g id="Grupo_1160885" data-name="Grupo 1160885" transform="translate(0.127 0.951)">
              <path id="Trazado_995116" data-name="Trazado 995116" d="M906.2,687.482c1.577-2.985,3.862-8.231,3.88-13.575-.45.125-.9.246-1.348.385-.146,5-2.329,10.425-4.689,14.327a.66.66,0,0,0,.877.923,24.845,24.845,0,0,1,15.733-2.152c.25-.4.486-.8.72-1.211A26.216,26.216,0,0,0,906.2,687.482Z" transform="translate(-879.321 -673.292)" fill="#3f3fd8"/>
              <path id="Trazado_995117" data-name="Trazado 995117" d="M890.954,672.428a202.026,202.026,0,0,0-46.271,39.211q1.28-.446,2.541-.883a200.776,200.776,0,0,1,43.532-36.66C890.841,673.544,890.9,672.987,890.954,672.428Z" transform="translate(-844.683 -672.428)" fill="#3f3fd8"/>
              <path id="Trazado_995118" data-name="Trazado 995118" d="M872.653,707.34a31.1,31.1,0,0,0,6.2-21.362q-.653.411-1.291.845c.4,7.756-2.32,16.046-7.369,21.337a.66.66,0,0,0,.686,1.083,31.889,31.889,0,0,1,15.971-1.2q.79-.494,1.562-1.013A32.346,32.346,0,0,0,872.653,707.34Z" transform="translate(-859.487 -680.348)" fill="#3f3fd8"/>
            </g>
          </g>
          <path id="Trazado_995119" data-name="Trazado 995119" d="M813.661,766.922c6.5,0,12.322-1,16.29-2.585-.474-2.372-2.467-4.507-4.621-5.845-7.831-4.863-22.725-4.419-28.226,5.737C801.075,765.875,807.017,766.922,813.661,766.922Z" transform="translate(-767.201 -681.916)" fill="#09066a"/>
          <g id="Grupo_1160888" data-name="Grupo 1160888" transform="translate(15.769 6.383)">
            <g id="Grupo_1160887" data-name="Grupo 1160887" transform="translate(7.566 3.807)">
              <path id="Trazado_995120" data-name="Trazado 995120" d="M805.9,671.189a.661.661,0,0,1-.622-.438l-23.945-66.914a.66.66,0,0,1,1.243-.445l23.945,66.914a.66.66,0,0,1-.4.844A.652.652,0,0,1,805.9,671.189Z" transform="translate(-781.299 -602.954)" fill="#92f7ff"/>
            </g>
            <path id="Trazado_995121" data-name="Trazado 995121" d="M784.6,622.314a39.965,39.965,0,0,1-13.742-19.76,11.022,11.022,0,0,1-.629-4.842,4.118,4.118,0,0,1,7.165-2.6,11.389,11.389,0,0,1,2.581,3.9A53.432,53.432,0,0,1,784.6,622.314Z" transform="translate(-767.217 -593.791)" fill="#92f7ff"/>
            <path id="Trazado_995122" data-name="Trazado 995122" d="M783.5,675.566a28.722,28.722,0,0,0-11.391-11.985,9.153,9.153,0,0,0-5.311-1.516c-1.862.192-3.7,1.664-3.71,3.535-.009,2.037,1.95,3.467,3.743,4.435A46.221,46.221,0,0,0,783.5,675.566Z" transform="translate(-763.09 -633.679)" fill="#92f7ff"/>
            <path id="Trazado_995123" data-name="Trazado 995123" d="M814.412,656.77a60.175,60.175,0,0,1,.342-24.648c.453-2.016,1.621-4.469,3.679-4.29s2.786,2.793,2.823,4.851C821.4,640.629,818.832,648.6,814.412,656.77Z" transform="translate(-792.438 -613.682)" fill="#92f7ff"/>
            <path id="Trazado_995124" data-name="Trazado 995124" d="M795.027,719.536A30.611,30.611,0,0,0,776.07,704.23a7.685,7.685,0,0,0-3.324-.33,3.136,3.136,0,0,0-2.509,1.986c-.6,1.951,1.378,3.671,3.15,4.681C780.144,714.421,787.674,716.917,795.027,719.536Z" transform="translate(-767.204 -658.105)" fill="#92f7ff"/>
            <path id="Trazado_995125" data-name="Trazado 995125" d="M831.085,705.05a47.172,47.172,0,0,1,2.424-21.329c.615-1.716,1.837-3.715,3.645-3.479,1.924.251,2.508,2.745,2.452,4.684A29.253,29.253,0,0,1,831.085,705.05Z" transform="translate(-802.645 -644.309)" fill="#92f7ff"/>
          </g>
          <g id="Grupo_1160889" data-name="Grupo 1160889" transform="translate(25.199 78.876)">
            <ellipse id="Elipse_11851" data-name="Elipse 11851" cx="16.134" cy="4.621" rx="16.134" ry="4.621" transform="translate(4.466 29.457)" fill="#3737b7" opacity="0.59"/>
            <path id="Trazado_995126" data-name="Trazado 995126" d="M807.045,774.387c-10.553,0-19.338-2.638-21.261-6.13l6.771,24.622a10.82,10.82,0,0,0,10.465,7.894h8.049a10.82,10.82,0,0,0,10.465-7.894l6.771-24.622C826.382,771.748,817.6,774.387,807.045,774.387Z" transform="translate(-785.784 -768.257)" fill="#92f7ff"/>
            <path id="Trazado_995127" data-name="Trazado 995127" d="M803.02,800.773h8.049a10.963,10.963,0,0,0,1.422-.1c-8.413-8.095-12.455-18.661-14.4-26.962-6.288-1-10.969-3.018-12.31-5.453l6.771,24.622A10.819,10.819,0,0,0,803.02,800.773Z" transform="translate(-785.784 -768.257)" fill="#35cfdb" opacity="0.35"/>
          </g>
        </g>
        <g id="Grupo_1160899" data-name="Grupo 1160899" transform="translate(88.18 79.831)">
          <rect id="Rectángulo_412982" data-name="Rectángulo 412982" width="66.722" height="10.725" transform="translate(65.789 175.911)" fill="#fcc5be"/>
          <rect id="Rectángulo_412983" data-name="Rectángulo 412983" width="66.722" height="5.534" transform="translate(65.789 175.911)" fill="#fcc5be"/>
          <path id="Trazado_995128" data-name="Trazado 995128" d="M443.646,764.828l-19,32.89h98.283a55.682,55.682,0,0,0-12.685-32.89Z" transform="translate(-377.729 -581.338)" fill="#09066a"/>
          <g id="Grupo_1160891" data-name="Grupo 1160891" transform="translate(0.009 139.839)">
            <rect id="Rectángulo_412984" data-name="Rectángulo 412984" width="29.323" height="65.193" transform="matrix(0.811, 0.586, -0.586, 0.811, 38.19, 0)" fill="#fcc5be"/>
            <path id="Trazado_995129" data-name="Trazado 995129" d="M379.382,674.079l26.3,13.676,7.353-10.173L389.267,660.4Z" transform="translate(-351.284 -660.143)" fill="#fcc5be"/>
          </g>
          <path id="Trazado_995130" data-name="Trazado 995130" d="M571.148,439.816a27.776,27.776,0,0,1,11.5,21.885c0,8.551-4.852,17.08-12.492,20.922s-17.745,2.459-23.674-3.7c1.362-8.716,2.8-17.644,7.112-25.337S565.784,439.564,571.148,439.816Z" transform="translate(-448.94 -391.369)" fill="#09066a"/>
          <path id="Trazado_995131" data-name="Trazado 995131" d="M441.407,444.667c-3.738,7.275-5.425,15.807-3.541,23.767s7.665,15.16,15.449,17.676,17.29-.394,21.487-7.414c-5.681-6.01-8.927-13.869-13.577-20.708S449.5,444.906,441.407,444.667Z" transform="translate(-385.004 -394.209)" fill="#09066a"/>
          <g id="Grupo_1160892" data-name="Grupo 1160892" transform="translate(70.325 78.387)">
            <path id="Trazado_995132" data-name="Trazado 995132" d="M514.087,511.882l7.5,23.433h13.769L492.9,581.038l-11.912-45.723H491.03l3.857-23.433Z" transform="translate(-480.986 -511.882)" fill="#fcc5be"/>
            <path id="Trazado_995133" data-name="Trazado 995133" d="M538.159,530l-5.8-18.117h-19.2l-.911,5.533C516.382,523.88,524.14,530.9,538.159,530Z" transform="translate(-499.259 -511.882)" fill="#fcc5be"/>
            <path id="Trazado_995134" data-name="Trazado 995134" d="M539.285,547.8l11.6-12.49H537.115l-7.5-23.433h-19.2l-2.863,17.4Z" transform="translate(-496.512 -511.882)" fill="#fcc5be" opacity="0.4"/>
          </g>
          <path id="Trazado_995135" data-name="Trazado 995135" d="M420.4,568.277H408.991a18.563,18.563,0,0,0-13.918,6.28l-28.425,35.05,41.578,22.273Z" transform="translate(-343.832 -466.457)" fill="#3f3fd8"/>
          <path id="Trazado_995136" data-name="Trazado 995136" d="M396.787,629.729l29.055,15.565,9.17-47.9-4.534-6.166Z" transform="translate(-361.448 -479.87)" fill="#3f3fd8" opacity="0.49"/>
          <path id="Trazado_995137" data-name="Trazado 995137" d="M585.553,392.142s14.819,15.4,1.233,29.306-12.295-33.171-12.295-33.171Z" transform="translate(-465.294 -361.25)" fill="#09066a"/>
          <path id="Trazado_995138" data-name="Trazado 995138" d="M497.473,432.35h-6.124a24.6,24.6,0,0,1-24.6-24.6L465.43,366.3h55.322l1.32,41.451A24.6,24.6,0,0,1,497.473,432.35Z" transform="translate(-401.568 -348.405)" fill="#fcc5be"/>
          <g id="Grupo_1160893" data-name="Grupo 1160893" transform="translate(96.475 52.973)">
            <path id="Trazado_995139" data-name="Trazado 995139" d="M544.945,464.821a.66.66,0,0,1-.434-1.158,7.62,7.62,0,0,0-.337-11.763.66.66,0,0,1,.81-1.043,8.94,8.94,0,0,1,.4,13.8A.658.658,0,0,1,544.945,464.821Z" transform="translate(-543.919 -450.718)" fill="#d6938e"/>
          </g>
          <circle id="Elipse_11852" data-name="Elipse 11852" cx="8.455" cy="8.455" r="8.455" transform="translate(68.254 51.569)" fill="#fcc5be" opacity="0.7"/>
          <path id="Trazado_995140" data-name="Trazado 995140" d="M574.239,455.8a8.4,8.4,0,0,0,9.713,8.351,24.518,24.518,0,0,0,1.717-9.028l-.233-7.313a8.438,8.438,0,0,0-11.2,7.99Z" transform="translate(-465.166 -395.772)" fill="#fcc5be" opacity="0.7"/>
          <path id="Trazado_995141" data-name="Trazado 995141" d="M506.625,339.07c3.111-1.65,6.3-3.362,8.588-6.041s3.495-6.585,2.052-9.8a9.172,9.172,0,0,1,2.624,11.521C517.8,338.524,512.709,340.3,506.625,339.07Z" transform="translate(-425.646 -323.232)" fill="#09066a"/>
          <path id="Trazado_995142" data-name="Trazado 995142" d="M467,356.776c2.317,8.279-1.037,17.541-7.323,23.4s-17.061,10.646-25.657,10.7c-3.987-8.637-5.4-20.724,1.571-27.2S459.366,354.766,467,356.776Z" transform="translate(-381.266 -342.437)" fill="#09066a"/>
          <path id="Trazado_995143" data-name="Trazado 995143" d="M422.065,435.542c-4.148,2.311-8.878,3.317-13.3,5.056s-8.8,4.52-10.607,8.912a11.166,11.166,0,0,0,12.251,15.242c-3.9-1.869-6.107-6.418-5.853-10.733a16.57,16.57,0,0,1,5.919-11.158C413.73,440.012,417.762,438.2,422.065,435.542Z" transform="translate(-361.78 -388.875)" fill="#09066a"/>
          <path id="Trazado_995144" data-name="Trazado 995144" d="M425.994,442.5c-4.2,5.489-7.931,11.524-9.478,18.261s-.644,14.3,3.663,19.7,12.379,7.946,18.536,4.806c-5.364,1.315-10.746-3.284-12.3-8.585s-.3-10.974,1.028-16.334S430.188,449.39,425.994,442.5Z" transform="translate(-372.567 -392.94)" fill="#09066a"/>
          <path id="Trazado_995145" data-name="Trazado 995145" d="M610.826,444.453" transform="translate(-486.55 -394.084)" fill="none" stroke="#000" stroke-miterlimit="10" stroke-width="1.589"/>
          <path id="Trazado_995146" data-name="Trazado 995146" d="M611.838,430.687c2.621,4.545,6.343,8.333,9.6,12.447s6.142,8.81,6.6,14.036-2.139,11.015-7.067,12.813c2.425-3.88,2.042-8.945.476-13.244s-4.178-8.129-6.145-12.259A35.184,35.184,0,0,1,611.838,430.687Z" transform="translate(-487.142 -386.038)" fill="#09066a"/>
          <path id="Trazado_995147" data-name="Trazado 995147" d="M523.424,354.531c6.01-1.52,14.907-1.423,21.079-.841s12.473,3.7,15.176,9.281c2.162,4.463,1.736,9.691,1.262,14.628-.186,1.935-.641,4.245-2.455,4.945a5.073,5.073,0,0,1-3.6-.415C543.25,377.563,530.757,366.742,523.424,354.531Z" transform="translate(-435.465 -340.804)" fill="#09066a"/>
          <g id="Grupo_1160894" data-name="Grupo 1160894" transform="translate(85.468 66.074)">
            <path id="Trazado_995148" data-name="Trazado 995148" d="M530.424,490.522a15.136,15.136,0,0,1-12.9-7.279.66.66,0,0,1,1.14-.667,13.911,13.911,0,0,0,14.566,6.315.66.66,0,1,1,.293,1.288A13.933,13.933,0,0,1,530.424,490.522Z" transform="translate(-517.429 -482.249)" fill="#d6938e"/>
          </g>
          <path id="Trazado_995149" data-name="Trazado 995149" d="M441.329,415.7l-8.706,3.433a4.9,4.9,0,0,0-2.657,6.7l.024.049a5.051,5.051,0,0,0,6.42,2.437l8.682-3.482a4.9,4.9,0,0,0,2.745-6.433h0A5.046,5.046,0,0,0,441.329,415.7Z" transform="translate(-380.553 -377.071)" fill="#3f3fd8"/>
          <path id="Trazado_995150" data-name="Trazado 995150" d="M461.807,405.86c1.349,5.956,3.088,12.054,7.017,16.728s10.6,7.555,16.3,5.373c3.162-1.21,5.879-3.852,9.263-3.932,4.486-.106,8.056,4.355,12.544,4.438a8.72,8.72,0,0,0,6.831-3.7,19.594,19.594,0,0,0,3.1-7.382c1.08-4.505,1.421-9.729-1.525-13.3-2.4-2.907-6.35-3.95-10.073-4.528A77.635,77.635,0,0,0,461.807,405.86Z" transform="translate(-399.451 -367.353)" fill="#3f3fd8"/>
          <path id="Trazado_995151" data-name="Trazado 995151" d="M443.99,598.18c-2.3,7.2-1.77,15.068.2,22.367a154.6,154.6,0,0,0,8.916,24.237h67.874l7.4-28.713-19.5-47.793L473.62,604.23l-8.9-35.953S446.474,590.412,443.99,598.18Z" transform="translate(-388.152 -466.457)" fill="#a6abff"/>
          <path id="Trazado_995152" data-name="Trazado 995152" d="M443.99,598.18c-2.3,7.2-1.77,15.068.2,22.367a154.6,154.6,0,0,0,8.916,24.237h67.874l7.4-28.713-19.5-47.793L473.62,604.23l-8.9-35.953S446.474,590.412,443.99,598.18Z" transform="translate(-388.152 -466.457)" fill="#a6abff"/>
          <path id="Trazado_995153" data-name="Trazado 995153" d="M444.7,684.621a154.6,154.6,0,0,0,8.916,24.237h67.874l7.4-28.713-.117-.287c-15.288,5.362-39.441,7.325-54.638,8.817-12.17,1.195-24.158-5.917-30.78-10.772A51.112,51.112,0,0,0,444.7,684.621Z" transform="translate(-388.666 -530.531)" fill="#cacffc" opacity="0.64"/>
          <path id="Trazado_995154" data-name="Trazado 995154" d="M470.938,401.735c1.349,5.956,3.088,12.053,7.017,16.728s10.6,7.555,16.3,5.373c3.162-1.21,5.879-3.852,9.263-3.932,4.486-.106,8.056,4.355,12.544,4.438a8.72,8.72,0,0,0,6.831-3.7,19.6,19.6,0,0,0,3.1-7.382c1.08-4.505,1.421-9.729-1.525-13.3-2.4-2.907-6.35-3.95-10.073-4.528A77.633,77.633,0,0,0,470.938,401.735Z" transform="translate(-404.788 -364.942)" fill="#a6abff"/>
          <path id="Trazado_995155" data-name="Trazado 995155" d="M538.243,395.569q-.411-.072-.821-.136a73.537,73.537,0,0,0-21.237-.107l-5.856,28.933a12.062,12.062,0,0,0,6.954-.415c3.162-1.21,5.879-3.853,9.263-3.932a8.727,8.727,0,0,1,3.705.843Z" transform="translate(-427.811 -364.951)" fill="#a6abff" opacity="0.6"/>
          <path id="Trazado_995156" data-name="Trazado 995156" d="M517.122,356.587a18.787,18.787,0,0,0,15.87,28.554,22.321,22.321,0,0,1-8.956-17.171c-.056-2.273.241-4.559-.03-6.817s-1.239-4.59-3.185-5.767S515.867,354.74,517.122,356.587Z" transform="translate(-430.215 -341.66)" fill="#09066a"/>
          <path id="Trazado_995157" data-name="Trazado 995157" d="M530.9,361.045c1.468,6.428,3.173,13,7.275,18.393s11.173,9.387,18.267,8.367c-4.738-1.433-8.052-5.351-10.38-9.387s-4-8.425-6.975-12.088S531.341,359.745,530.9,361.045Z" transform="translate(-439.835 -345.149)" fill="#09066a"/>
          <g id="Grupo_1160895" data-name="Grupo 1160895" transform="translate(96.088 143.103)">
            <path id="Trazado_995158" data-name="Trazado 995158" d="M572.463,667.631v22.993L542.989,721.99l16.425,13.885,32.948-29.291a28.082,28.082,0,0,0,9.424-20.987V667.631Z" transform="translate(-542.989 -667.631)" fill="#fcc5be"/>
            <path id="Trazado_995159" data-name="Trazado 995159" d="M613.923,690.68l29.323-1.79V676.338H613.923Z" transform="translate(-584.449 -672.72)" fill="#fcc5be"/>
          </g>
          <path id="Trazado_995160" data-name="Trazado 995160" d="M595.105,568.277h9.745a17.6,17.6,0,0,1,16.026,10.32L636.6,620.233,590,623.1Z" transform="translate(-474.376 -466.457)" fill="#3f3fd8"/>
          <path id="Trazado_995161" data-name="Trazado 995161" d="M598.03,568.277H595.1L590,623.1l26.614-1.635Z" transform="translate(-474.376 -466.457)" fill="#3f3fd8" opacity="0.49"/>
          <path id="Trazado_995162" data-name="Trazado 995162" d="M515.5,693.9h.005a.99.99,0,0,0,.99-.985l.222-39.452a.985.985,0,0,0-.3-.712l-.693.706-.238-.96a1.009,1.009,0,0,0-.752.954l-.222,39.452A.991.991,0,0,0,515.5,693.9Z" transform="translate(-430.256 -515.68)" fill="#7789f2" opacity="0.64"/>
          <path id="Trazado_995163" data-name="Trazado 995163" d="M448.224,433.982c-5.588-5.163-11.622-1.65-13.331,2.406s-.219,8.872,3.145,12,8,3.059,12.864,3.075C451.208,443.759,452.251,441.123,448.224,433.982Z" transform="translate(-383.304 -386.454)" fill="#fcc5be"/>
          <g id="Grupo_1160896" data-name="Grupo 1160896" transform="translate(95.647 164.179)">
            <path id="Trazado_995164" data-name="Trazado 995164" d="M542.586,752.886a.66.66,0,0,1-.48-1.114l31.441-33.213a.66.66,0,0,1,.959.908L543.065,752.68A.66.66,0,0,1,542.586,752.886Z" transform="translate(-541.925 -718.352)" fill="#fcc5be"/>
          </g>
          <g id="Grupo_1160897" data-name="Grupo 1160897" transform="translate(54.423 48.62)" opacity="0.7">
            <path id="Trazado_995165" data-name="Trazado 995165" d="M449.737,453.073a.651.651,0,0,1-.258-.077,12.242,12.242,0,0,1-6.327-7.68,11.728,11.728,0,0,1-.358-4.517.665.665,0,0,1,.757-.548c.36.058.344,8.245,6.552,11.581a.66.66,0,0,1-.366,1.24Z" transform="translate(-442.715 -440.244)" fill="#fcc5be"/>
          </g>
          <g id="Grupo_1160898" data-name="Grupo 1160898" transform="translate(0 13.656)">
            <path id="Trazado_995166" data-name="Trazado 995166" d="M412.485,385.309a4.872,4.872,0,0,0-1.292,5.894l.024.049a4.921,4.921,0,0,0,1.248,1.6c-1.243.41-2.482.831-3.7,1.309-4.419,1.739-8.8,4.52-10.607,8.912a11.4,11.4,0,0,0,1.625,11.238,11.251,11.251,0,0,0,5.282,3.59,21.119,21.119,0,0,0,4.324,12.057,16.773,16.773,0,0,0,8.384,5.547,47.519,47.519,0,0,1,.243-4.815,13.16,13.16,0,0,1-2.388-4.511,20.943,20.943,0,0,1-.579-8A26.3,26.3,0,0,0,418.8,425.8a42.271,42.271,0,0,1,8.555-17.694c13.161-16.344,16.239-36.029,15.928-51.946-8.467-.518-21.305,2.072-27.176,7.522C410.537,368.851,410.319,377.6,412.485,385.309Zm.184,10.18a43.638,43.638,0,0,0-6.94,14.768c-.169.737-.3,1.485-.413,2.238a12.059,12.059,0,0,1-.757-4.911,16.57,16.57,0,0,1,5.919-11.158,25.682,25.682,0,0,1,2.265-1.749Q412.689,395.082,412.669,395.489Z" transform="translate(-361.78 -356.096)" fill="#c2a9ff" opacity="0.51"/>
            <path id="Trazado_995167" data-name="Trazado 995167" d="M368.786,572.784a18.552,18.552,0,0,0-5.807,4.407l-28.425,35.05,9.351,5.009-32.167,44.5L335.5,678.931l30.639-42.389,3.845-5.319.3.159c1.584,4.7,3.469,9.609,5.322,13.716l13.53-31.248S373.1,595.1,368.786,572.784Z" transform="translate(-311.738 -482.747)" fill="#c2a9ff" opacity="0.51"/>
          </g>
        </g>
        <g id="Grupo_1160903" data-name="Grupo 1160903" transform="translate(28.304 240.636)">
          <path id="Trazado_995168" data-name="Trazado 995168" d="M386.637,862.716h-63.4V851.68h63.4a5.518,5.518,0,0,1,5.518,5.518h0A5.518,5.518,0,0,1,386.637,862.716Z" transform="translate(-258.586 -792.906)" fill="#09066a"/>
          <g id="Grupo_1160902" data-name="Grupo 1160902">
            <g id="Grupo_1160900" data-name="Grupo 1160900">
              <path id="Trazado_995169" data-name="Trazado 995169" d="M256.154,780.043H187.72a7.833,7.833,0,0,1-7.64-6.1l-12.247-54.144a7.833,7.833,0,0,1,7.64-9.561h68.434a7.832,7.832,0,0,1,7.64,6.1l12.246,54.144A7.832,7.832,0,0,1,256.154,780.043Z" transform="translate(-167.638 -710.234)" fill="#7789f2"/>
              <path id="Trazado_995170" data-name="Trazado 995170" d="M378.937,770.482l-12.246-54.144a7.833,7.833,0,0,0-7.64-6.1h-7.858a7.832,7.832,0,0,1,7.64,6.1l12.246,54.144a7.833,7.833,0,0,1-7.64,9.561H371.3A7.832,7.832,0,0,0,378.937,770.482Z" transform="translate(-274.923 -710.233)" fill="#09066a"/>
              <path id="Trazado_995171" data-name="Trazado 995171" d="M262.658,776.561c-96.17,0-72.457-61.276-68.62-66.328H175.474a7.833,7.833,0,0,0-7.64,9.561l12.247,54.144a7.833,7.833,0,0,0,7.64,6.1h68.434A7.794,7.794,0,0,0,262.658,776.561Z" transform="translate(-167.638 -710.233)" fill="#cacffc" opacity="0.85"/>
            </g>
            <g id="Grupo_1160901" data-name="Grupo 1160901" transform="translate(30.61 20.705)">
              <path id="Trazado_995172" data-name="Trazado 995172" d="M267.318,763.207a.99.99,0,0,0-.867-.721c-.31-.027-.617-.041-.926-.041a12.281,12.281,0,0,0-8.574,3.75,11.538,11.538,0,1,0,6.907,7.646,9.565,9.565,0,0,0,.9-.8A10.281,10.281,0,0,0,267.318,763.207Z" transform="translate(-241.306 -761.455)" fill="#f5fdff"/>
              <path id="Trazado_995173" data-name="Trazado 995173" d="M280.912,762.042q.418,0,.838.036a9.323,9.323,0,0,1-2.305,8.873c-1.959,1.981-4.866,2.958-8.266,2.958q-.76,0-1.552-.065c-.354-6.1,5.234-11.8,11.285-11.8m0-1.98h0a13.34,13.34,0,0,0-9.577,4.333,13.014,13.014,0,0,0-3.686,9.566,1.98,1.98,0,0,0,1.815,1.859c.579.048,1.156.072,1.714.072,4.035,0,7.38-1.226,9.675-3.547a11.288,11.288,0,0,0,2.805-10.8,1.98,1.98,0,0,0-1.734-1.442c-.334-.03-.674-.045-1.011-.045Z" transform="translate(-256.692 -760.062)" fill="#7789f2"/>
            </g>
          </g>
        </g>
        <g id="Grupo_1160906" data-name="Grupo 1160906" transform="translate(150.302 277.293)">
          <path id="Trazado_995174" data-name="Trazado 995174" d="M495.21,798.454l-26.392,13.885-7.117,14.5a4.461,4.461,0,0,0,2.2,6.046h0a4.46,4.46,0,0,0,4.386-.443l1.158-.823h0a3.786,3.786,0,0,0,2.424,5.311l.2.052a3.784,3.784,0,0,0,3.056-.49l2.31-1.514h0a2.125,2.125,0,0,0,1.616,2.885h0a6.515,6.515,0,0,0,6.811-3.3l5.445-9.97,6.834-3.512-3.329,10.2a3.906,3.906,0,0,0,1.307,5.648h0a3.906,3.906,0,0,0,5.107-1.189l5.926-8.547,4.487-14.851Z" transform="translate(-461.244 -798.454)" fill="#fcc5be"/>
          <g id="Grupo_1160904" data-name="Grupo 1160904" transform="translate(7.543 12.301)">
            <path id="Trazado_995175" data-name="Trazado 995175" d="M480.057,849.582a.66.66,0,0,1-.571-.99l8.816-15.265a.659.659,0,0,1,.2-.214l7.168-4.938a.66.66,0,1,1,.749,1.087l-7.045,4.854-8.742,15.136A.659.659,0,0,1,480.057,849.582Z" transform="translate(-479.398 -828.058)" fill="#fcc5be"/>
          </g>
          <g id="Grupo_1160905" data-name="Grupo 1160905" transform="translate(15.528 17.57)">
            <path id="Trazado_995176" data-name="Trazado 995176" d="M499.275,860.353a.66.66,0,0,1-.586-.964l5.939-11.48a.677.677,0,0,1,.156-.2l7.933-6.815a.661.661,0,0,1,.861,1l-7.835,6.731L499.862,860A.661.661,0,0,1,499.275,860.353Z" transform="translate(-498.615 -840.738)" fill="#fcc5be"/>
          </g>
        </g>
      </g>
      <g id="Grupo_1160911" data-name="Grupo 1160911" transform="translate(457.505 363.107)" opacity="0.9">
        <g id="Grupo_1160910" data-name="Grupo 1160910">
          <g id="Grupo_1160908" data-name="Grupo 1160908" transform="translate(7.002)">
            <path id="Trazado_995177" data-name="Trazado 995177" d="M1117.807,887.809a.557.557,0,0,1-.557-.557v-14a.557.557,0,1,1,1.114,0v14A.557.557,0,0,1,1117.807,887.809Z" transform="translate(-1117.25 -872.692)" fill="#eddeff"/>
          </g>
          <g id="Grupo_1160909" data-name="Grupo 1160909" transform="translate(0 7.001)">
            <path id="Trazado_995178" data-name="Trazado 995178" d="M1114.959,890.656h-14a.557.557,0,0,1,0-1.114h14a.557.557,0,0,1,0,1.114Z" transform="translate(-1100.399 -889.542)" fill="#eddeff"/>
          </g>
        </g>
        <path id="Trazado_995179" data-name="Trazado 995179" d="M1134.644,915.606l1.177,8.9a1.223,1.223,0,0,0,1.957.809l7.12-5.469a1.223,1.223,0,0,0-.277-2.1l-8.3-3.431A1.223,1.223,0,0,0,1134.644,915.606Z" transform="translate(-1120.408 -896.965)" fill="#eddeff"/>
      </g>
      <g id="Grupo_1160917" data-name="Grupo 1160917" transform="translate(733.298 325.485)">
        <g id="Grupo_1160912" data-name="Grupo 1160912" transform="translate(21.506 9.277)">
          <path id="Trazado_995180" data-name="Trazado 995180" d="M1822.284,808.357a2.515,2.515,0,1,1-2.515-2.515A2.515,2.515,0,0,1,1822.284,808.357Z" transform="translate(-1816.688 -805.274)" fill="#b6f2fc"/>
          <path id="Trazado_995181" data-name="Trazado 995181" d="M1818.974,810.641a3.083,3.083,0,1,1,3.083-3.083A3.087,3.087,0,0,1,1818.974,810.641Zm0-5.03a1.947,1.947,0,1,0,1.947,1.947A1.949,1.949,0,0,0,1818.974,805.611Z" transform="translate(-1815.891 -804.475)" fill="#b6f2fc"/>
        </g>
        <g id="Grupo_1160913" data-name="Grupo 1160913" transform="translate(10.058 22.225)">
          <path id="Trazado_995182" data-name="Trazado 995182" d="M1791.423,841.8a3.083,3.083,0,1,1,3.083-3.083A3.087,3.087,0,0,1,1791.423,841.8Zm0-5.03a1.947,1.947,0,1,0,1.947,1.947A1.949,1.949,0,0,0,1791.423,836.772Z" transform="translate(-1788.34 -835.636)" fill="#b6f2fc"/>
        </g>
        <g id="Grupo_1160916" data-name="Grupo 1160916">
          <g id="Grupo_1160914" data-name="Grupo 1160914" transform="translate(7.138)">
            <path id="Trazado_995183" data-name="Trazado 995183" d="M1781.881,797.565a.568.568,0,0,1-.568-.568V782.716a.568.568,0,1,1,1.136,0V797A.566.566,0,0,1,1781.881,797.565Z" transform="translate(-1781.313 -782.148)" fill="#b6f2fc"/>
          </g>
          <g id="Grupo_1160915" data-name="Grupo 1160915" transform="translate(0 7.14)">
            <path id="Trazado_995184" data-name="Trazado 995184" d="M1778.983,800.468H1764.7a.568.568,0,0,1,0-1.136h14.281a.568.568,0,1,1,0,1.136Z" transform="translate(-1764.134 -799.332)" fill="#b6f2fc"/>
          </g>
        </g>
      </g>
      <g id="Grupo_1160919" data-name="Grupo 1160919" transform="translate(656.725 81.847)">
        <g id="Grupo_1160918" data-name="Grupo 1160918" transform="translate(0 19.624)">
          <path id="Trazado_995185" data-name="Trazado 995185" d="M1582.933,249.192a3.083,3.083,0,1,1,3.083-3.083A3.087,3.087,0,0,1,1582.933,249.192Zm0-5.03a1.947,1.947,0,1,0,1.947,1.947A1.949,1.949,0,0,0,1582.933,244.162Z" transform="translate(-1579.85 -243.026)" fill="#eddeff"/>
        </g>
        <path id="Trazado_995186" data-name="Trazado 995186" d="M1626.553,256.3a3.083,3.083,0,1,0,3.083,3.083A3.087,3.087,0,0,0,1626.553,256.3Z" transform="translate(-1605.345 -231.162)" fill="#eddeff"/>
        <path id="Trazado_995187" data-name="Trazado 995187" d="M1613.772,201.452,1604.329,196a1.485,1.485,0,0,0-2.228,1.286v10.9a1.485,1.485,0,0,0,2.228,1.286l9.444-5.452A1.487,1.487,0,0,0,1613.772,201.452Z" transform="translate(-1592.855 -195.799)" fill="#eddeff"/>
      </g>
    </g>
  </g>
</svg>
