<svg xmlns="http://www.w3.org/2000/svg" xmlns:xlink="http://www.w3.org/1999/xlink" width="110" height="110" viewBox="0 0 110 110">
  <defs>
    <filter id="Trazado_982547" x="0" y="0" width="110" height="110" filterUnits="userSpaceOnUse">
      <feOffset dy="3" input="SourceAlpha"/>
      <feGaussianBlur stdDeviation="3" result="blur"/>
      <feFlood flood-opacity="0.161"/>
      <feComposite operator="in" in2="blur"/>
      <feComposite in="SourceGraphic"/>
    </filter>
  </defs>
  <g id="Grupo_1165213" data-name="Grupo 1165213" transform="translate(-830.228 -3875.151)">
    <g id="Grupo_1163548" data-name="Grupo 1163548" transform="translate(839.228 3881.151)">
      <g id="Grupo_1158890" data-name="Grupo 1158890" transform="translate(0 0)">
        <g id="Grupo_1157405" data-name="Grupo 1157405" transform="translate(0 0)">
          <g id="Grupo_1155792" data-name="Grupo 1155792">
            <g id="Grupo_1154703" data-name="Grupo 1154703">
              <g id="Grupo_1150789" data-name="Grupo 1150789">
                <g id="Grupo_1154212" data-name="Grupo 1154212">
                  <g id="Grupo_1152583" data-name="Grupo 1152583">
                    <g id="Grupo_1146973" data-name="Grupo 1146973">
                      <g id="Grupo_1146954" data-name="Grupo 1146954">
                        <g transform="matrix(1, 0, 0, 1, -9, -6)" filter="url(#Trazado_982547)">
                          <g id="Trazado_982547-2" data-name="Trazado 982547" transform="translate(9 6)" fill="#f5e9fe">
                            <path d="M 46 90.49987030029297 C 39.99187850952148 90.49987030029297 34.16426849365234 89.32350921630859 28.67905426025391 87.00345611572266 C 23.38019943237305 84.76224517822266 18.62104034423828 81.55341339111328 14.53374671936035 77.46613311767578 C 10.44646644592285 73.37885284423828 7.237639904022217 68.61969757080078 4.996413230895996 63.32085418701172 C 2.676359891891479 57.83565521240234 1.5 52.008056640625 1.5 45.99993515014648 C 1.5 39.99181365966797 2.676359891891479 34.16421508789062 4.996413230895996 28.67901420593262 C 7.237639904022217 23.38017463684082 10.44646644592285 18.62101554870605 14.53374671936035 14.53373527526855 C 18.62104034423828 10.44645500183105 23.38019943237305 7.23762845993042 28.67905426025391 4.996415138244629 C 34.16426849365234 2.676361799240112 39.99187850952148 1.500001788139343 46 1.500001788139343 C 52.00812149047852 1.500001788139343 57.83573150634766 2.676361799240112 63.32094573974609 4.996415138244629 C 68.61979675292969 7.23762845993042 73.37895965576172 10.44645500183105 77.46625518798828 14.53373527526855 C 81.55353546142578 18.62101554870605 84.76235961914062 23.38017463684082 87.00358581542969 28.67901420593262 C 89.32363891601562 34.16421508789062 90.5 39.99181365966797 90.5 45.99993515014648 C 90.5 52.008056640625 89.32363891601562 57.83565521240234 87.00358581542969 63.32085418701172 C 84.76235961914062 68.61969757080078 81.55353546142578 73.37885284423828 77.46625518798828 77.46613311767578 C 73.37895965576172 81.55341339111328 68.61979675292969 84.76224517822266 63.32094573974609 87.00345611572266 C 57.83573150634766 89.32350921630859 52.00812149047852 90.49987030029297 46 90.49987030029297 Z" stroke="none"/>
                            <path d="M 46 2.999992370605469 C 40.1937141418457 2.999992370605469 34.56269836425781 4.136489868164062 29.26337051391602 6.377906799316406 C 24.14332580566406 8.543502807617188 19.54441070556641 11.64437866210938 15.59439849853516 15.59437561035156 C 11.64440155029297 19.54439544677734 8.54351806640625 24.14329528808594 6.377914428710938 29.26333618164062 C 4.136497497558594 34.56264877319336 3 40.19366455078125 3 45.99993515014648 C 3 51.80620574951172 4.136497497558594 57.43720626831055 6.377914428710938 62.73651885986328 C 8.54351806640625 67.8565673828125 11.64440155029297 72.45545959472656 15.59439849853516 76.40547943115234 C 19.54441070556641 80.35547637939453 24.14332580566406 83.45635223388672 29.26337051391602 85.6219482421875 C 34.56269836425781 87.86336517333984 40.1937141418457 88.99986267089844 46 88.99986267089844 C 51.8062858581543 88.99986267089844 57.43730163574219 87.86336517333984 62.73661422729492 85.6219482421875 C 67.85667419433594 83.45635223388672 72.45557403564453 80.35547637939453 76.40558624267578 76.40547943115234 C 80.35559844970703 72.45545959472656 83.45647430419922 67.8565673828125 85.6220703125 62.73651885986328 C 87.86350250244141 57.43720626831055 89 51.80620574951172 89 45.99993515014648 C 89 40.19366455078125 87.86350250244141 34.56264877319336 85.6220703125 29.26333618164062 C 83.45647430419922 24.14329528808594 80.35559844970703 19.54439544677734 76.40558624267578 15.59437561035156 C 72.45557403564453 11.64437866210938 67.85667419433594 8.543502807617188 62.73661422729492 6.377906799316406 C 57.43730163574219 4.136489868164062 51.8062858581543 2.999992370605469 46 2.999992370605469 M 46 -7.62939453125e-06 C 71.40509033203125 -7.62939453125e-06 92 20.59486389160156 92 45.99993515014648 C 92 71.40499114990234 71.40509033203125 91.99986267089844 46 91.99986267089844 C 20.59490203857422 91.99986267089844 0 71.40499114990234 0 45.99993515014648 C 0 20.59486389160156 20.59490203857422 -7.62939453125e-06 46 -7.62939453125e-06 Z" stroke="none" fill="#a530fe"/>
                          </g>
                        </g>
                      </g>
                    </g>
                  </g>
                </g>
              </g>
            </g>
          </g>
        </g>
      </g>
    </g>
    <g id="ventas_1_" data-name="ventas (1)" transform="translate(854.419 3893.972)">
      <path id="Trazado_993934" data-name="Trazado 993934" d="M242.067,168.959H233.5V139.04a3.419,3.419,0,0,1,3.419-3.419h1.733a3.419,3.419,0,0,1,3.419,3.419Zm0,0" transform="translate(-202.8 -118.044)" fill="#abebf4"/>
      <path id="Trazado_993935" data-name="Trazado 993935" d="M242.067,280.238a46.577,46.577,0,0,1-8.571,3.053v11.542h8.571Zm0,0" transform="translate(-202.8 -243.918)" fill="#8ed7e8"/>
      <path id="Trazado_993936" data-name="Trazado 993936" d="M147.212,222.618h-8.571V200.252a2.981,2.981,0,0,1,2.981-2.981h2.608a2.982,2.982,0,0,1,2.981,2.981Zm0,0" transform="translate(-120.239 -171.703)" fill="#b2e59c"/>
      <path id="Trazado_993937" data-name="Trazado 993937" d="M336.926,101.315h-8.571V66.792a3.4,3.4,0,0,1,3.4-3.4h1.776a3.4,3.4,0,0,1,3.4,3.4Zm0,0" transform="translate(-285.365 -55.179)" fill="#ffde55"/>
      <path id="Trazado_993938" data-name="Trazado 993938" d="M336.922,218.594a55.922,55.922,0,0,1-8.571,6.056V236.4h8.571Zm0,0" transform="translate(-285.361 -190.263)" fill="#ffcd00"/>
      <path id="Trazado_993939" data-name="Trazado 993939" d="M109.477,245.02l17.233-9.147a2.882,2.882,0,0,1,4.176,3.121,8.35,8.35,0,0,1-2.858,4.956l-1.766,1.431a1.2,1.2,0,0,0,.754,2.129l7.082,0a11.209,11.209,0,0,0,6.452-2.04l7.915-5.566a3.721,3.721,0,0,1,4.5,5.918L142.6,254.344a11.207,11.207,0,0,1-4.45,2.227l-22.724,5.564Zm0,0" transform="translate(-94.854 -205.004)" fill="#ffe2d9"/>
      <path id="Trazado_993940" data-name="Trazado 993940" d="M119.024,305.239c-6.526-1.915-6.04-10.845-6.04-10.845l-3.507,1.862,5.949,17.115,17.321-4.241c-3.649-1.014-9.52-2.657-13.723-3.89Zm0,0" transform="translate(-94.854 -256.239)" fill="#ffcfc2"/>
      <path id="Trazado_993941" data-name="Trazado 993941" d="M23.768,308.758l6.439,17.185a5.02,5.02,0,0,1-3.589,6.657L20.46,334a5.02,5.02,0,0,1-5.97-3.632l-3.317-12.761a5.171,5.171,0,0,1,3.584-6.273Zm0,0" transform="translate(-9.145 -268.741)" fill="#8ed7e8"/>
      <path id="Trazado_993942" data-name="Trazado 993942" d="M30.206,338.727l-1-2.68a16.608,16.608,0,0,0-7.616-1.349,5.036,5.036,0,0,1-5.258-5.187,34.756,34.756,0,0,1,.778-6.066l-2.35.671a5.171,5.171,0,0,0-3.584,6.273l3.317,12.76a5.021,5.021,0,0,0,5.97,3.633l6.158-1.4a5.02,5.02,0,0,0,3.589-6.657Zm0,0" transform="translate(-9.145 -281.525)" fill="#7ac1dd"/>
      <path id="Trazado_993943" data-name="Trazado 993943" d="M77.535,429.6a2.857,2.857,0,1,1-2.857-2.857A2.858,2.858,0,0,1,77.535,429.6Zm0,0" transform="translate(-62.078 -371.431)" fill="#ffeb99"/>
      <path id="Trazado_993944" data-name="Trazado 993944" d="M43.566,7.5H35.793a2.018,2.018,0,0,0,0,4.036h2.766l-8.106,7.8-3.844-1.988a2.019,2.019,0,0,0-2.36.371L8.573,33.519a2.018,2.018,0,0,0,2.865,2.843L26.071,21.617l3.812,1.972a2.019,2.019,0,0,0,2.327-.339l9.338-8.988v3.1a2.018,2.018,0,1,0,4.036,0V9.518s0,0,0-.006A1.869,1.869,0,0,0,43.566,7.5Zm0,0" transform="translate(-6.518 -6.528)" fill="#97f7e5"/>
      <path id="Trazado_993945" data-name="Trazado 993945" d="M61.718,83.317c-3.049-3.036-6.574-.194-6.574-.194V67.142a.972.972,0,0,0-1.944,0V84.49a52.979,52.979,0,0,1-6.627,4.547V60.263A2.428,2.428,0,0,1,49,57.838h1.776A2.428,2.428,0,0,1,53.2,60.263v2.9a.972.972,0,0,0,1.944,0v-2.9a4.374,4.374,0,0,0-4.37-4.369H49a4.374,4.374,0,0,0-4.37,4.369V89.807a10.205,10.205,0,0,1-1.779.331V69.646a4.4,4.4,0,0,0-4.391-4.391H36.726a4.4,4.4,0,0,0-4.391,4.391v9.9l-1.779.945V77.2A3.958,3.958,0,0,0,26.6,73.245H23.994A3.957,3.957,0,0,0,20.041,77.2v8.877L16.868,87.76,7.955,90.307A6.143,6.143,0,0,0,3.7,97.759l1,3.836a.972.972,0,1,0,1.881-.489l-1-3.836A4.174,4.174,0,0,1,8.49,92.176l8.148-2.329,6.124,16.345a4.353,4.353,0,0,1-2.894,5.368l-6.158,1.4A4.03,4.03,0,0,1,8.9,110.03l-1.25-4.811a.972.972,0,0,0-1.882.489l1.25,4.811a5.961,5.961,0,0,0,5.776,4.488c1.964,0,7.509-1.551,7.509-1.551a5.99,5.99,0,0,0,4.535-7.08l21.3-5.216a12.259,12.259,0,0,0,4.836-2.42l10.367-8.519a4.611,4.611,0,0,0,.377-6.906ZM36.726,67.2h1.733a2.45,2.45,0,0,1,2.447,2.447V90.187l-6.133,0c-.563-.005-.173-.377-.143-.4L36.4,88.351a9.237,9.237,0,0,0,3.2-5.517,3.854,3.854,0,0,0-5.315-4.3V69.646A2.45,2.45,0,0,1,36.726,67.2Zm-14.741,10a2.012,2.012,0,0,1,2.009-2.009H26.6A2.012,2.012,0,0,1,28.612,77.2v4.328l-6.627,3.518ZM60.107,88.721,49.74,97.239a10.3,10.3,0,0,1-4.064,2.034l-21.461,5.255-5.772-15.4,16.479-8.747a1.91,1.91,0,0,1,2.768,2.068,7.346,7.346,0,0,1-2.518,4.395l-1.766,1.431a2.17,2.17,0,0,0,1.365,3.857l7.083,0h0a12.121,12.121,0,0,0,7.007-2.217l7.915-5.566a2.739,2.739,0,0,1,3.547.327,2.7,2.7,0,0,1-.221,4.046Zm0,0" transform="translate(-2.611 -48.65)"/>
      <path id="Trazado_993946" data-name="Trazado 993946" d="M71.979,423.068A3.829,3.829,0,1,0,68.15,426.9,3.834,3.834,0,0,0,71.979,423.068Zm-5.715,0a1.885,1.885,0,1,1,1.885,1.885A1.888,1.888,0,0,1,66.264,423.068Zm0,0" transform="translate(-55.55 -364.903)"/>
      <path id="Trazado_993947" data-name="Trazado 993947" d="M5.61,30.519,19.74,16.28l3.178,1.644a2.989,2.989,0,0,0,3.448-.5l7.691-7.4s-.212,3.8,2.991,3.8a2.994,2.994,0,0,0,2.99-2.991V2.99c0-.009,0-.019,0-.028A2.83,2.83,0,0,0,37.047,0H29.275a2.993,2.993,0,0,0-2.99,2.99c0,3.287,3.345,2.99,3.345,2.99l-5.868,5.648L20.537,9.96a2.979,2.979,0,0,0-3.5.549L1.365,26.307a2.994,2.994,0,0,0,.016,4.229,2.948,2.948,0,0,0,4.229-.016ZM2.745,27.676l15.677-15.8a.883.883,0,0,1,1.223-.192l3.843,1.988a.972.972,0,0,0,1.121-.163l8.106-7.8a.972.972,0,0,0-.674-1.672H29.275a1.046,1.046,0,0,1,0-2.092h7.773a.914.914,0,0,1,1.045,1.04c0,.009,0,.017,0,.026v7.821a1.046,1.046,0,1,1-2.092,0v-3.1a.972.972,0,0,0-1.646-.7l-9.338,8.988a1.046,1.046,0,0,1-1.206.176L20,14.226a.973.973,0,0,0-1.137.179L4.23,29.15a1,1,0,0,1-1.479.006,1.047,1.047,0,0,1-.006-1.479Zm0,0" transform="translate(0)"/>
    </g>
  </g>
</svg>
