<svg xmlns="http://www.w3.org/2000/svg" xmlns:xlink="http://www.w3.org/1999/xlink" width="110" height="110" viewBox="0 0 110 110">
  <defs>
    <filter id="Trazado_982547" x="0" y="0" width="110" height="110" filterUnits="userSpaceOnUse">
      <feOffset dy="3" input="SourceAlpha"/>
      <feGaussianBlur stdDeviation="3" result="blur"/>
      <feFlood flood-opacity="0.161"/>
      <feComposite operator="in" in2="blur"/>
      <feComposite in="SourceGraphic"/>
    </filter>
  </defs>
  <g id="Grupo_1165214" data-name="Grupo 1165214" transform="translate(1020 -3710)">
    <g id="Grupo_1163550" data-name="Grupo 1163550" transform="translate(-1011 3716)">
      <g id="Grupo_1158890" data-name="Grupo 1158890" transform="translate(0 0)">
        <g id="Grupo_1157405" data-name="Grupo 1157405" transform="translate(0 0)">
          <g id="Grupo_1155792" data-name="Grupo 1155792">
            <g id="Grupo_1154703" data-name="Grupo 1154703">
              <g id="Grupo_1150789" data-name="Grupo 1150789">
                <g id="Grupo_1154212" data-name="Grupo 1154212">
                  <g id="Grupo_1152583" data-name="Grupo 1152583">
                    <g id="Grupo_1146973" data-name="Grupo 1146973">
                      <g id="Grupo_1146954" data-name="Grupo 1146954">
                        <g transform="matrix(1, 0, 0, 1, -9, -6)" filter="url(#Trazado_982547)">
                          <g id="Trazado_982547-2" data-name="Trazado 982547" transform="translate(9 6)" fill="#f5e9fe">
                            <path d="M 46 90.49987030029297 C 39.99187850952148 90.49987030029297 34.16426849365234 89.32350921630859 28.67905426025391 87.00345611572266 C 23.38019943237305 84.76224517822266 18.62104034423828 81.55341339111328 14.53374671936035 77.46613311767578 C 10.44646644592285 73.37885284423828 7.237639904022217 68.61969757080078 4.996413230895996 63.32085418701172 C 2.676359891891479 57.83565521240234 1.5 52.008056640625 1.5 45.99993515014648 C 1.5 39.99181365966797 2.676359891891479 34.16421508789062 4.996413230895996 28.67901420593262 C 7.237639904022217 23.38017463684082 10.44646644592285 18.62101554870605 14.53374671936035 14.53373527526855 C 18.62104034423828 10.44645500183105 23.38019943237305 7.23762845993042 28.67905426025391 4.996415138244629 C 34.16426849365234 2.676361799240112 39.99187850952148 1.500001788139343 46 1.500001788139343 C 52.00812149047852 1.500001788139343 57.83573150634766 2.676361799240112 63.32094573974609 4.996415138244629 C 68.61979675292969 7.23762845993042 73.37895965576172 10.44645500183105 77.46625518798828 14.53373527526855 C 81.55353546142578 18.62101554870605 84.76235961914062 23.38017463684082 87.00358581542969 28.67901420593262 C 89.32363891601562 34.16421508789062 90.5 39.99181365966797 90.5 45.99993515014648 C 90.5 52.008056640625 89.32363891601562 57.83565521240234 87.00358581542969 63.32085418701172 C 84.76235961914062 68.61969757080078 81.55353546142578 73.37885284423828 77.46625518798828 77.46613311767578 C 73.37895965576172 81.55341339111328 68.61979675292969 84.76224517822266 63.32094573974609 87.00345611572266 C 57.83573150634766 89.32350921630859 52.00812149047852 90.49987030029297 46 90.49987030029297 Z" stroke="none"/>
                            <path d="M 46 2.999992370605469 C 40.1937141418457 2.999992370605469 34.56269836425781 4.136489868164062 29.26337051391602 6.377906799316406 C 24.14332580566406 8.543502807617188 19.54441070556641 11.64437866210938 15.59439849853516 15.59437561035156 C 11.64440155029297 19.54439544677734 8.54351806640625 24.14329528808594 6.377914428710938 29.26333618164062 C 4.136497497558594 34.56264877319336 3 40.19366455078125 3 45.99993515014648 C 3 51.80620574951172 4.136497497558594 57.43720626831055 6.377914428710938 62.73651885986328 C 8.54351806640625 67.8565673828125 11.64440155029297 72.45545959472656 15.59439849853516 76.40547943115234 C 19.54441070556641 80.35547637939453 24.14332580566406 83.45635223388672 29.26337051391602 85.6219482421875 C 34.56269836425781 87.86336517333984 40.1937141418457 88.99986267089844 46 88.99986267089844 C 51.8062858581543 88.99986267089844 57.43730163574219 87.86336517333984 62.73661422729492 85.6219482421875 C 67.85667419433594 83.45635223388672 72.45557403564453 80.35547637939453 76.40558624267578 76.40547943115234 C 80.35559844970703 72.45545959472656 83.45647430419922 67.8565673828125 85.6220703125 62.73651885986328 C 87.86350250244141 57.43720626831055 89 51.80620574951172 89 45.99993515014648 C 89 40.19366455078125 87.86350250244141 34.56264877319336 85.6220703125 29.26333618164062 C 83.45647430419922 24.14329528808594 80.35559844970703 19.54439544677734 76.40558624267578 15.59437561035156 C 72.45557403564453 11.64437866210938 67.85667419433594 8.543502807617188 62.73661422729492 6.377906799316406 C 57.43730163574219 4.136489868164062 51.8062858581543 2.999992370605469 46 2.999992370605469 M 46 -7.62939453125e-06 C 71.40509033203125 -7.62939453125e-06 92 20.59486389160156 92 45.99993515014648 C 92 71.40499114990234 71.40509033203125 91.99986267089844 46 91.99986267089844 C 20.59490203857422 91.99986267089844 0 71.40499114990234 0 45.99993515014648 C 0 20.59486389160156 20.59490203857422 -7.62939453125e-06 46 -7.62939453125e-06 Z" stroke="none" fill="#a530fe"/>
                          </g>
                        </g>
                      </g>
                    </g>
                  </g>
                </g>
              </g>
            </g>
          </g>
        </g>
      </g>
    </g>
    <g id="XMLID_1368_" transform="translate(-994 3732.941)">
      <g id="XMLID_2418_" transform="translate(1.132 7.287)">
        <path id="XMLID_2035_" d="M10,353.115H59.569v3.351a3.4,3.4,0,0,1-3.4,3.4H13.4a3.4,3.4,0,0,1-3.4-3.4Z" transform="translate(-10 -320.387)" fill="#72d8ff"/>
        <path id="XMLID_2034_" d="M10,67.148a3.224,3.224,0,0,1,3.224-3.224H56.345a3.224,3.224,0,0,1,3.224,3.224v29.5H10Z" transform="translate(-10 -63.924)" fill="#fff"/>
        <path id="XMLID_2033_" d="M141.778,468.277H161.53V466.93a2.947,2.947,0,0,0-2.946-2.947H144.724a2.947,2.947,0,0,0-2.946,2.947Z" transform="translate(-126.865 -418.708)" fill="#72d8ff"/>
        <rect id="XMLID_2032_" width="7.243" height="5.797" transform="translate(21.168 39.478)" fill="#c9f3ff"/>
        <rect id="XMLID_1015_" width="6.448" height="7.22" transform="translate(10.982 19.948)" fill="#4dbaf6"/>
        <rect id="XMLID_1009_" width="6.448" height="10.805" transform="translate(21.46 16.364)" fill="#a0e557"/>
        <rect id="XMLID_1008_" width="6.448" height="15.65" transform="translate(31.937 11.519)" fill="#ff5d5d"/>
      </g>
      <g id="XMLID_2646_" transform="translate(0 0.059)">
        <path id="XMLID_2651_" d="M381.932,140.929l9.259,9.259a2.8,2.8,0,0,1,0,3.958h0a2.8,2.8,0,0,1-3.958,0l-9.259-9.259Z" transform="translate(-335.199 -124.987)" fill="#2e9de3"/>
        <g id="XMLID_1946_" transform="translate(0 0)">
          <circle id="XMLID_1957_" cx="10.28" cy="10.28" r="10.28" transform="translate(27.959 1.132)" fill="#ffb954"/>
          <g id="XMLID_1201_">
            <path id="XMLID_1205_" d="M219.372,371.783a1.131,1.131,0,1,0,.8-.332A1.138,1.138,0,0,0,219.372,371.783Z" transform="translate(-194.251 -329.42)"/>
            <path id="XMLID_1339_" d="M340.312,402.761a1.132,1.132,0,1,0,.8.332A1.14,1.14,0,0,0,340.312,402.761Z" transform="translate(-300.795 -357.187)"/>
            <path id="XMLID_1340_" d="M49.2,104.264a1.13,1.13,0,1,0-.8-.33A1.137,1.137,0,0,0,49.2,104.264Z" transform="translate(-42.629 -90.465)"/>
            <path id="XMLID_1353_" d="M89.2,104.259h1.015a1.132,1.132,0,0,0,0-2.263H89.2a1.132,1.132,0,1,0,0,2.263Z" transform="translate(-78.102 -90.46)"/>
            <path id="XMLID_1359_" d="M89.2,146.992h1.015a1.132,1.132,0,1,0,0-2.263H89.2a1.132,1.132,0,1,0,0,2.263Z" transform="translate(-78.102 -128.357)"/>
            <path id="XMLID_1360_" d="M89.2,189.723h1.015a1.132,1.132,0,1,0,0-2.263H89.2a1.132,1.132,0,1,0,0,2.263Z" transform="translate(-78.102 -166.252)"/>
            <path id="XMLID_1364_" d="M56.792,24.46l-8.2-8.2A11.41,11.41,0,0,0,28.143,6.155H4.356A4.361,4.361,0,0,0,0,10.51v33.03A4.361,4.361,0,0,0,4.356,47.9H21.168V51.43H18.992a4.083,4.083,0,0,0-4.078,4.078v1.347a1.132,1.132,0,0,0,1.132,1.132H35.8a1.132,1.132,0,0,0,1.132-1.132V55.508A4.083,4.083,0,0,0,32.85,51.43H30.674V47.9h4.316a1.132,1.132,0,1,0,0-2.263H4.356a2.1,2.1,0,0,1-2.092-2.092V41.146H49.569v2.394a2.1,2.1,0,0,1-2.092,2.092H44.044a1.132,1.132,0,0,0,0,2.263h3.432a4.361,4.361,0,0,0,4.356-4.356V30.51a3.931,3.931,0,0,0,4.96-6.05ZM34.665,55.508v.216H17.177v-.216a1.817,1.817,0,0,1,1.815-1.815H32.85A1.817,1.817,0,0,1,34.665,55.508ZM28.411,47.9V51.43H23.431V47.9ZM38.239,2.322a9.148,9.148,0,1,1-9.148,9.148A9.159,9.159,0,0,1,38.239,2.322ZM34.2,22.144a11.355,11.355,0,0,0,4.038.739l.146,0V33.323H34.2ZM2.263,38.883V10.51A2.1,2.1,0,0,1,4.356,8.418H27.242a11.413,11.413,0,0,0,.714,8l-2.07,2.07-3.444-3.444a1.132,1.132,0,0,0-1.6,0l-4.322,4.322a1.132,1.132,0,1,0,1.6,1.6l3.522-3.522,3.444,3.444a1.132,1.132,0,0,0,1.6,0l2.49-2.49a11.507,11.507,0,0,0,2.76,2.581V33.324H30.171V23.651a1.132,1.132,0,0,0-1.132-1.132H22.591a1.132,1.132,0,0,0-1.132,1.132v9.673H19.693V27.235A1.132,1.132,0,0,0,18.561,26.1H12.113a1.132,1.132,0,0,0-1.132,1.132v6.089H7.7V17.254a1.132,1.132,0,1,0-2.263,0v17.2a1.132,1.132,0,0,0,1.132,1.132H45.26a1.132,1.132,0,0,0,0-2.263H40.649v-10.7a11.317,11.317,0,0,0,2.39-.8l6.53,6.53v10.53Zm25.644-5.559H23.723V24.782h4.185Zm-10.478,0H13.245V28.367H17.43Zm37.762-4.906a1.667,1.667,0,0,1-2.357,0l-7.791-7.791A11.511,11.511,0,0,0,47.4,18.268l7.792,7.792A1.669,1.669,0,0,1,55.192,28.417Z" transform="translate(0 -0.059)"/>
            <path id="XMLID_1388_" d="M309.891,53.092a1.214,1.214,0,0,1-1.309-1.084,1.132,1.132,0,0,0-2.263,0,3.38,3.38,0,0,0,2.443,3.175,1.13,1.13,0,0,0,2.26,0,3.38,3.38,0,0,0,2.443-3.175,3.47,3.47,0,0,0-3.573-3.347,1.1,1.1,0,1,1,1.31-1.084,1.132,1.132,0,0,0,2.263,0,3.38,3.38,0,0,0-2.441-3.174v-.048a1.132,1.132,0,0,0-2.263,0V44.4a3.38,3.38,0,0,0-2.441,3.174,3.47,3.47,0,0,0,3.573,3.347,1.1,1.1,0,1,1,0,2.168Z" transform="translate(-271.652 -38.338)"/>
          </g>
        </g>
      </g>
    </g>
  </g>
</svg>
