<svg xmlns="http://www.w3.org/2000/svg" xmlns:xlink="http://www.w3.org/1999/xlink" width="610" height="438" viewBox="0 0 610 438">
  <defs>
    <clipPath id="clip-path">
      <rect id="Rectángulo_409792" data-name="Rectángulo 409792" width="610" height="438" transform="translate(39)" fill="#fff" stroke="#707070" stroke-width="1" opacity="0.26"/>
    </clipPath>
    <clipPath id="clip-path-2">
      <rect id="Rectángulo_409789" data-name="Rectángulo 409789" width="1077.097" height="707.768" fill="none"/>
    </clipPath>
    <clipPath id="clip-path-3">
      <rect id="Rectángulo_409775" data-name="Rectángulo 409775" width="530.786" height="411.729" fill="#c5b4fe"/>
    </clipPath>
    <clipPath id="clip-path-4">
      <rect id="Rectángulo_409776" data-name="Rectángulo 409776" width="48.674" height="48.673" fill="#c5b4fe"/>
    </clipPath>
    <clipPath id="clip-path-5">
      <rect id="Rectángulo_409777" data-name="Rectángulo 409777" width="30.909" height="30.91" fill="#c5b4fe"/>
    </clipPath>
    <clipPath id="clip-path-6">
      <rect id="Rectángulo_409778" data-name="Rectángulo 409778" width="21.035" height="21.034" fill="#c5b4fe"/>
    </clipPath>
    <clipPath id="clip-path-7">
      <rect id="Rectángulo_409779" data-name="Rectángulo 409779" width="144.757" height="126.343" fill="none"/>
    </clipPath>
    <clipPath id="clip-path-8">
      <rect id="Rectángulo_409781" data-name="Rectángulo 409781" width="133.328" height="92.063" fill="none"/>
    </clipPath>
    <clipPath id="clip-path-11">
      <rect id="Rectángulo_409786" data-name="Rectángulo 409786" width="40.833" height="16.318" fill="none"/>
    </clipPath>
    <clipPath id="clip-path-12">
      <rect id="Rectángulo_409787" data-name="Rectángulo 409787" width="8.225" height="15.676" fill="none"/>
    </clipPath>
    <clipPath id="clip-path-13">
      <rect id="Rectángulo_409788" data-name="Rectángulo 409788" width="9.728" height="4.277" fill="none"/>
    </clipPath>
  </defs>
  <g id="Enmascarar_grupo_1098659" data-name="Enmascarar grupo 1098659" transform="translate(-39)" clip-path="url(#clip-path)">
    <g id="Grupo_1158483" data-name="Grupo 1158483" transform="translate(19.845 -115.382)">
      <g id="Grupo_1158482" data-name="Grupo 1158482">
        <g id="Grupo_1158481" data-name="Grupo 1158481" clip-path="url(#clip-path-2)">
          <g id="Grupo_1158450" data-name="Grupo 1158450" transform="translate(55.653 123.138)" opacity="0.41">
            <g id="Grupo_1158449" data-name="Grupo 1158449">
              <g id="Grupo_1158448" data-name="Grupo 1158448" clip-path="url(#clip-path-3)">
                <path id="Trazado_992561" data-name="Trazado 992561" d="M564.447,370.436c2.932-65.464-29.478-121.691-78.4-153.375a36.444,36.444,0,0,1-16.331-26.575q-.1-.881-.209-1.764c-8.97-71.879-76.15-122.373-147.7-112.636C253.36,85.4,204.088,121.565,211.366,191.217c.033.327.071.8.112,1.408a33.262,33.262,0,0,1-32.588,35.388q-5.962.141-12,.77C85.229,237.315,26,310.7,34.691,392.622a148.525,148.525,0,0,0,47.494,93.989H507.834c32.356-30.964,54.72-73.918,56.613-116.175" transform="translate(-33.843 -74.882)" fill="#c5b4fe"/>
              </g>
            </g>
          </g>
          <g id="Grupo_1158453" data-name="Grupo 1158453" transform="translate(88.124 196.227)" opacity="0.63">
            <g id="Grupo_1158452" data-name="Grupo 1158452">
              <g id="Grupo_1158451" data-name="Grupo 1158451" clip-path="url(#clip-path-4)">
                <path id="Trazado_992562" data-name="Trazado 992562" d="M102.264,143.665a24.337,24.337,0,1,1-24.337-24.337,24.337,24.337,0,0,1,24.337,24.337" transform="translate(-53.59 -119.33)" fill="#c5b4fe"/>
              </g>
            </g>
          </g>
          <g id="Grupo_1158456" data-name="Grupo 1158456" transform="translate(509.5 136.837)" opacity="0.63">
            <g id="Grupo_1158455" data-name="Grupo 1158455">
              <g id="Grupo_1158454" data-name="Grupo 1158454" clip-path="url(#clip-path-5)">
                <path id="Trazado_992563" data-name="Trazado 992563" d="M340.744,98.667a15.454,15.454,0,1,1-15.454-15.454,15.454,15.454,0,0,1,15.454,15.454" transform="translate(-309.835 -83.213)" fill="#c5b4fe"/>
              </g>
            </g>
          </g>
          <g id="Grupo_1158459" data-name="Grupo 1158459" transform="translate(562.945 219.695)" opacity="0.63">
            <g id="Grupo_1158458" data-name="Grupo 1158458">
              <g id="Grupo_1158457" data-name="Grupo 1158457" clip-path="url(#clip-path-6)">
                <path id="Trazado_992564" data-name="Trazado 992564" d="M363.371,144.117A10.517,10.517,0,1,1,352.853,133.6a10.518,10.518,0,0,1,10.518,10.518" transform="translate(-342.335 -133.601)" fill="#c5b4fe"/>
              </g>
            </g>
          </g>
          <path id="Trazado_992565" data-name="Trazado 992565" d="M510.118,363.789c2.5-55.831-25.142-103.784-66.861-130.807a31.081,31.081,0,0,1-13.93-22.663q-.084-.752-.178-1.5c-7.65-61.3-64.943-104.367-125.969-96.064-58.374,7.944-100.4,38.789-94.189,98.192.03.28.063.686.1,1.2a28.366,28.366,0,0,1-27.792,30.18q-5.086.123-10.238.658C101.416,250.256,50.9,312.841,58.314,382.711A126.669,126.669,0,0,0,98.82,462.868H461.836c27.6-26.408,46.667-63.042,48.282-99.08" transform="translate(37.113 71.998)" fill="#c5b4fe"/>
          <path id="Trazado_992566" data-name="Trazado 992566" d="M546.732,327.277H43.916a1.449,1.449,0,0,1,0-2.9H546.732a1.449,1.449,0,1,1,0,2.9" transform="translate(27.367 209.038)" fill="#243762"/>
          <path id="Trazado_992567" data-name="Trazado 992567" d="M255.19,216.558V206.087c0-3.057,3.226-5.534,7.2-5.534H418.323c3.979,0,7.206,2.477,7.206,5.534V309.624c0,3.055-3.226,5.532-7.206,5.532H262.394c-3.978,0-7.2-2.476-7.2-5.532V293.006" transform="translate(164.45 129.241)" fill="#fff"/>
          <path id="Trazado_992568" data-name="Trazado 992568" d="M255.19,216.558V206.087c0-3.057,3.226-5.534,7.2-5.534H418.323c3.979,0,7.206,2.477,7.206,5.534V309.624c0,3.055-3.226,5.532-7.206,5.532H262.394c-3.978,0-7.2-2.476-7.2-5.532V293.006" transform="translate(164.45 129.241)" fill="none" stroke="#243762" stroke-miterlimit="10" stroke-width="1"/>
          <path id="Trazado_992569" data-name="Trazado 992569" d="M255.19,222.363V206.085c0-3.055,3.226-5.532,7.2-5.532H418.323c3.979,0,7.206,2.477,7.206,5.532v15.568" transform="translate(164.45 129.241)" fill="#c5d9ff"/>
          <path id="Trazado_992570" data-name="Trazado 992570" d="M255.19,222.363V206.085c0-3.055,3.226-5.532,7.2-5.532H418.323c3.979,0,7.206,2.477,7.206,5.532v15.568" transform="translate(164.45 129.241)" fill="none" stroke="#243762" stroke-miterlimit="10" stroke-width="1"/>
          <path id="Trazado_992571" data-name="Trazado 992571" d="M424.5,213.384h0Z" transform="translate(164.45 137.509)" fill="#f7a9b4"/>
          <path id="Trazado_992572" data-name="Trazado 992572" d="M424.5,213.384h0Z" transform="translate(164.45 137.509)" fill="none" stroke="#243762" stroke-miterlimit="10" stroke-width="1"/>
          <path id="Trazado_992573" data-name="Trazado 992573" d="M266.394,208.589a2.678,2.678,0,1,1-2.677-2.677A2.677,2.677,0,0,1,266.394,208.589Z" transform="translate(168.219 132.694)" fill="none" stroke="#fff" stroke-miterlimit="10" stroke-width="1"/>
          <path id="Trazado_992574" data-name="Trazado 992574" d="M272.5,208.589a2.678,2.678,0,1,1-2.677-2.677A2.677,2.677,0,0,1,272.5,208.589Z" transform="translate(172.156 132.694)" fill="none" stroke="#fff" stroke-miterlimit="10" stroke-width="1"/>
          <path id="Trazado_992575" data-name="Trazado 992575" d="M278.5,208.589a2.678,2.678,0,1,1-2.677-2.677A2.677,2.677,0,0,1,278.5,208.589Z" transform="translate(176.019 132.694)" fill="none" stroke="#fff" stroke-miterlimit="10" stroke-width="1"/>
          <path id="Trazado_992576" data-name="Trazado 992576" d="M291.625,251.578V224.2A27.373,27.373,0,1,0,319,251.578Z" transform="translate(170.29 144.483)" fill="#af9cda"/>
          <path id="Trazado_992577" data-name="Trazado 992577" d="M306.12,248.184A23.389,23.389,0,0,0,282.731,224.8v23.389Z" transform="translate(182.198 144.863)" fill="#f7a9b4"/>
          <line id="Línea_1088" data-name="Línea 1088" x2="58.038" transform="translate(506.044 379.698)" fill="#f7a9b4"/>
          <line id="Línea_1089" data-name="Línea 1089" x2="58.038" transform="translate(506.044 379.698)" fill="none" stroke="#243762" stroke-linecap="round" stroke-miterlimit="10" stroke-width="1"/>
          <line id="Línea_1090" data-name="Línea 1090" x2="29.019" transform="translate(506.044 406.394)" fill="#f7a9b4"/>
          <line id="Línea_1091" data-name="Línea 1091" x2="29.019" transform="translate(506.044 406.394)" fill="none" stroke="#243762" stroke-linecap="round" stroke-miterlimit="10" stroke-width="1"/>
          <line id="Línea_1092" data-name="Línea 1092" x2="21.667" transform="translate(506.044 393.256)" fill="#f7a9b4"/>
          <line id="Línea_1093" data-name="Línea 1093" x2="21.667" transform="translate(506.044 393.256)" fill="none" stroke="#243762" stroke-linecap="round" stroke-miterlimit="10" stroke-width="1"/>
          <line id="Línea_1094" data-name="Línea 1094" x2="21.669" transform="translate(542.415 393.256)" fill="#f7a9b4"/>
          <line id="Línea_1095" data-name="Línea 1095" x2="21.669" transform="translate(542.415 393.256)" fill="none" stroke="#243762" stroke-linecap="round" stroke-miterlimit="10" stroke-width="1"/>
          <path id="Trazado_992578" data-name="Trazado 992578" d="M306.834,219.26H174.323a6.11,6.11,0,0,1-6.122-6.1V99.016a6.109,6.109,0,0,1,6.122-6.1H306.834a6.11,6.11,0,0,1,6.122,6.1V213.16a6.111,6.111,0,0,1-6.122,6.1" transform="translate(108.392 59.878)" fill="#fff"/>
          <g id="Grupo_1158462" data-name="Grupo 1158462" transform="translate(276.594 152.795)" opacity="0.36">
            <g id="Grupo_1158461" data-name="Grupo 1158461">
              <g id="Grupo_1158460" data-name="Grupo 1158460" clip-path="url(#clip-path-7)">
                <path id="Trazado_992579" data-name="Trazado 992579" d="M306.834,219.26H174.323a6.11,6.11,0,0,1-6.122-6.1V99.016a6.109,6.109,0,0,1,6.122-6.1H306.834a6.11,6.11,0,0,1,6.122,6.1V213.16a6.111,6.111,0,0,1-6.122,6.1" transform="translate(-168.201 -92.917)" fill="#ecf1f7"/>
              </g>
            </g>
          </g>
          <path id="Trazado_992580" data-name="Trazado 992580" d="M168.2,111.451V97.618c0-2.6,2.741-4.7,6.122-4.7H306.834c3.383,0,6.124,2.1,6.124,4.7v13.229" transform="translate(108.392 59.878)" fill="#af9cda"/>
          <path id="Trazado_992581" data-name="Trazado 992581" d="M168.2,111.451V97.618c0-2.6,2.741-4.7,6.122-4.7H306.834c3.383,0,6.124,2.1,6.124,4.7v13.229" transform="translate(108.392 59.878)" fill="none" stroke="#243762" stroke-miterlimit="10" stroke-width="1"/>
          <path id="Trazado_992582" data-name="Trazado 992582" d="M312.083,103.821h0Z" transform="translate(108.393 66.905)" fill="#f7a9b4"/>
          <path id="Trazado_992583" data-name="Trazado 992583" d="M312.083,103.821h0Z" transform="translate(108.393 66.905)" fill="none" stroke="#243762" stroke-miterlimit="10" stroke-width="1"/>
          <path id="Trazado_992584" data-name="Trazado 992584" d="M177.722,99.747a2.276,2.276,0,1,1-2.276-2.276A2.277,2.277,0,0,1,177.722,99.747Z" transform="translate(111.595 62.812)" fill="none" stroke="#fff" stroke-miterlimit="10" stroke-width="1"/>
          <path id="Trazado_992585" data-name="Trazado 992585" d="M182.914,99.747a2.276,2.276,0,1,1-2.276-2.276A2.277,2.277,0,0,1,182.914,99.747Z" transform="translate(114.94 62.812)" fill="none" stroke="#fff" stroke-miterlimit="10" stroke-width="1"/>
          <path id="Trazado_992586" data-name="Trazado 992586" d="M188.008,99.747a2.276,2.276,0,1,1-2.276-2.276A2.277,2.277,0,0,1,188.008,99.747Z" transform="translate(118.223 62.812)" fill="none" stroke="#fff" stroke-miterlimit="10" stroke-width="1"/>
          <g id="Grupo_1158465" data-name="Grupo 1158465" transform="translate(282.308 179.27)" opacity="0.31">
            <g id="Grupo_1158464" data-name="Grupo 1158464">
              <g id="Grupo_1158463" data-name="Grupo 1158463" clip-path="url(#clip-path-8)">
                <path id="Rectángulo_409780" data-name="Rectángulo 409780" d="M3.022,0H128.663a3.021,3.021,0,0,1,3.021,3.021V87.4a3.021,3.021,0,0,1-3.021,3.021H3.021A3.021,3.021,0,0,1,0,87.4V3.022A3.022,3.022,0,0,1,3.022,0Z" transform="translate(0.822 0.822)" fill="none" stroke="#243762" stroke-miterlimit="10" stroke-width="1"/>
                <path id="Trazado_992587" data-name="Trazado 992587" d="M270.933,174.654H187.674V122.406h83.259Z" transform="translate(-161.366 -100.389)" fill="none" stroke="#243762" stroke-miterlimit="10" stroke-width="1"/>
                <line id="Línea_1096" data-name="Línea 1096" x1="81.346" y1="51.4" transform="translate(26.309 22.016)" fill="none" stroke="#243762" stroke-miterlimit="10" stroke-width="1"/>
                <line id="Línea_1097" data-name="Línea 1097" y1="52.248" x2="83.259" transform="translate(26.309 22.017)" fill="none" stroke="#243762" stroke-miterlimit="10" stroke-width="1"/>
              </g>
            </g>
          </g>
          <path id="Trazado_992588" data-name="Trazado 992588" d="M335.364,359.872H202.853a6.112,6.112,0,0,1-6.124-6.1V239.628a6.111,6.111,0,0,1,6.124-6.1H335.364a6.11,6.11,0,0,1,6.122,6.1V353.772a6.111,6.111,0,0,1-6.122,6.1" transform="translate(126.777 150.491)" fill="#fff"/>
          <g id="Grupo_1158468" data-name="Grupo 1158468" transform="translate(323.506 384.02)" opacity="0.36">
            <g id="Grupo_1158467" data-name="Grupo 1158467">
              <g id="Grupo_1158466" data-name="Grupo 1158466" clip-path="url(#clip-path-7)">
                <path id="Trazado_992589" data-name="Trazado 992589" d="M335.364,359.872H202.853a6.112,6.112,0,0,1-6.124-6.1V239.628a6.111,6.111,0,0,1,6.124-6.1H335.364a6.11,6.11,0,0,1,6.122,6.1V353.772a6.111,6.111,0,0,1-6.122,6.1" transform="translate(-196.729 -233.529)" fill="#ecf1f7"/>
              </g>
            </g>
          </g>
          <path id="Trazado_992590" data-name="Trazado 992590" d="M196.729,252.063V238.23c0-2.6,2.741-4.7,6.122-4.7H335.364c3.381,0,6.122,2.1,6.122,4.7V251.46" transform="translate(126.777 150.491)" fill="#af9cda"/>
          <path id="Trazado_992591" data-name="Trazado 992591" d="M196.729,252.063V238.23c0-2.6,2.741-4.7,6.122-4.7H335.364c3.381,0,6.122,2.1,6.122,4.7V251.46" transform="translate(126.777 150.491)" fill="none" stroke="#243762" stroke-miterlimit="10" stroke-width="1"/>
          <path id="Trazado_992592" data-name="Trazado 992592" d="M340.611,244.433h0Z" transform="translate(126.777 157.518)" fill="#f7a9b4"/>
          <path id="Trazado_992593" data-name="Trazado 992593" d="M340.611,244.433h0Z" transform="translate(126.777 157.518)" fill="none" stroke="#243762" stroke-miterlimit="10" stroke-width="1"/>
          <circle id="Elipse_11975" data-name="Elipse 11975" cx="2.276" cy="2.276" r="2.276" transform="translate(331.678 391.509)" fill="none" stroke="#fff" stroke-miterlimit="10" stroke-width="1"/>
          <circle id="Elipse_11976" data-name="Elipse 11976" cx="2.276" cy="2.276" r="2.276" transform="translate(340.216 391.509)" fill="none" stroke="#fff" stroke-miterlimit="10" stroke-width="1"/>
          <circle id="Elipse_11977" data-name="Elipse 11977" cx="2.276" cy="2.276" r="2.276" transform="translate(348.593 391.509)" fill="none" stroke="#fff" stroke-miterlimit="10" stroke-width="1"/>
          <g id="Grupo_1158471" data-name="Grupo 1158471" transform="translate(329.22 410.496)" opacity="0.31">
            <g id="Grupo_1158470" data-name="Grupo 1158470">
              <g id="Grupo_1158469" data-name="Grupo 1158469" clip-path="url(#clip-path-8)">
                <path id="Rectángulo_409783" data-name="Rectángulo 409783" d="M3.022,0H128.663a3.021,3.021,0,0,1,3.021,3.021V87.4a3.022,3.022,0,0,1-3.022,3.022H3.022A3.022,3.022,0,0,1,0,87.4V3.022A3.022,3.022,0,0,1,3.022,0Z" transform="translate(0.823 0.822)" fill="none" stroke="#243762" stroke-miterlimit="10" stroke-width="1"/>
                <path id="Trazado_992594" data-name="Trazado 992594" d="M243.447,315.266H210.8V263.018h32.65Z" transform="translate(-193.378 -241.001)" fill="none" stroke="#243762" stroke-miterlimit="10" stroke-width="1"/>
                <line id="Línea_1098" data-name="Línea 1098" x1="31.902" y1="51.4" transform="translate(17.418 22.016)" fill="none" stroke="#243762" stroke-miterlimit="10" stroke-width="1"/>
                <line id="Línea_1099" data-name="Línea 1099" y1="52.248" x2="32.65" transform="translate(17.418 22.017)" fill="none" stroke="#243762" stroke-miterlimit="10" stroke-width="1"/>
                <path id="Trazado_992595" data-name="Trazado 992595" d="M241.113,293.435v-32.65h52.248v32.65Z" transform="translate(-173.841 -242.44)" fill="none" stroke="#243762" stroke-miterlimit="10" stroke-width="1"/>
                <line id="Línea_1100" data-name="Línea 1100" y1="31.9" x2="51.4" transform="translate(68.122 18.345)" fill="none" stroke="#243762" stroke-miterlimit="10" stroke-width="1"/>
                <line id="Línea_1101" data-name="Línea 1101" x2="52.248" y2="32.65" transform="translate(67.272 18.344)" fill="none" stroke="#243762" stroke-miterlimit="10" stroke-width="1"/>
                <path id="Trazado_992596" data-name="Trazado 992596" d="M241.113,302.189V285.863h52.248v16.326Z" transform="translate(-173.841 -226.279)" fill="none" stroke="#243762" stroke-miterlimit="10" stroke-width="1"/>
                <line id="Línea_1102" data-name="Línea 1102" y1="15.951" x2="51.4" transform="translate(68.122 59.584)" fill="none" stroke="#243762" stroke-miterlimit="10" stroke-width="1"/>
                <line id="Línea_1103" data-name="Línea 1103" x2="52.248" y2="16.326" transform="translate(67.272 59.584)" fill="none" stroke="#243762" stroke-miterlimit="10" stroke-width="1"/>
              </g>
            </g>
          </g>
          <path id="Trazado_992597" data-name="Trazado 992597" d="M195.84,219.317,183.457,231.7a17.511,17.511,0,1,0,0-24.765Z" transform="translate(118.224 130.048)" fill="#af9cda"/>
          <path id="Trazado_992598" data-name="Trazado 992598" d="M289.845,111.55V84.177a27.373,27.373,0,1,0,27.373,27.373Z" transform="translate(169.143 54.246)" fill="#af9cda"/>
          <path id="Trazado_992599" data-name="Trazado 992599" d="M304.34,108.156a23.389,23.389,0,0,0-23.389-23.389v23.389Z" transform="translate(181.051 54.626)" fill="#f7a9b4"/>
          <path id="Trazado_992600" data-name="Trazado 992600" d="M309.84,185.519a27.245,27.245,0,0,1,22.478-26.812l-1.059-6.242A33.526,33.526,0,0,0,303.8,191.119l6.44-1.092a27.173,27.173,0,0,1-.4-4.509" transform="translate(195.472 98.251)" fill="#af9cda"/>
          <path id="Trazado_992601" data-name="Trazado 992601" d="M344.277,175.935a33.682,33.682,0,0,0-.457-6.775,33.682,33.682,0,0,1,.457,6.775" transform="translate(221.565 109.011)" fill="#fff"/>
          <path id="Trazado_992602" data-name="Trazado 992602" d="M336.911,198.056a27.241,27.241,0,0,1-26.854-22.749l-6.439,1.092a33.526,33.526,0,0,0,38.655,27.454l-1.046-6.172a27.249,27.249,0,0,1-4.317.375" transform="translate(195.658 112.972)" fill="#fff"/>
          <path id="Trazado_992603" data-name="Trazado 992603" d="M358.968,180.1h0a33.526,33.526,0,0,0-38.655-27.455l1.059,6.242a27.232,27.232,0,1,1,9.1,53.7l1.044,6.172A33.489,33.489,0,0,0,358.968,180.1" transform="translate(206.417 98.064)" fill="#f7a9b4"/>
          <path id="Trazado_992604" data-name="Trazado 992604" d="M259.873,273.665l41.883,43.206,46.052-43.206,54.013,41.883" transform="translate(167.468 176.356)" fill="none" stroke="#243762" stroke-linecap="round" stroke-miterlimit="10" stroke-width="1"/>
          <path id="Trazado_992605" data-name="Trazado 992605" d="M275.836,278.159a11.469,11.469,0,1,1-11.468-11.468,11.467,11.467,0,0,1,11.468,11.468" transform="translate(162.973 171.862)" fill="#f7a9b4"/>
          <path id="Trazado_992606" data-name="Trazado 992606" d="M329.311,278.159a11.469,11.469,0,1,1-11.468-11.468,11.468,11.468,0,0,1,11.468,11.468" transform="translate(197.434 171.862)" fill="#f7a9b4"/>
          <path id="Trazado_992607" data-name="Trazado 992607" d="M301.306,303.629a11.469,11.469,0,1,1-11.468-11.468,11.467,11.467,0,0,1,11.468,11.468" transform="translate(179.387 188.275)" fill="#af9cda"/>
          <path id="Trazado_992608" data-name="Trazado 992608" d="M362.156,303.629a11.468,11.468,0,1,1-11.468-11.468,11.468,11.468,0,0,1,11.468,11.468" transform="translate(218.601 188.275)" fill="#af9cda"/>
          <path id="Trazado_992609" data-name="Trazado 992609" d="M204.7,213.628a43.423,43.423,0,0,1,.084-19.431l8.151-17.687a6.193,6.193,0,0,1,7.4-3.389l.132.041c4.8,1.565,9.727-1.074,14.272-2.268,2.578-.676,5.42-.919,7.831.217a12.37,12.37,0,0,1,4.552,4.282c3.318,4.7,5.4,10.084,8.168,15.1,2.453,4.445,6.319,9.587,2.363,14.44a10.41,10.41,0,0,1-4.6,3.154l-3.128,1.115,3.317,22.172-45.758-2.384Z" transform="translate(131.229 109.76)" fill="#f9d9eb"/>
          <path id="Trazado_992610" data-name="Trazado 992610" d="M348.2,226.118H215.684c-3.381,0-6.122-2.1-6.122-4.7V133.428c0-2.6,2.741-4.7,6.122-4.7H348.2c3.381,0,6.122,2.1,6.122,4.7v87.988c0,2.6-2.741,4.7-6.122,4.7" transform="translate(135.046 82.955)" fill="#fff"/>
          <rect id="Rectángulo_409785" data-name="Rectángulo 409785" width="37.018" height="44.464" transform="translate(362.963 244.901)" fill="none" stroke="#243762" stroke-miterlimit="10" stroke-width="1"/>
          <line id="Línea_1104" data-name="Línea 1104" x2="37.018" y2="44.464" transform="translate(362.963 244.901)" fill="none" stroke="#243762" stroke-miterlimit="10" stroke-width="1"/>
          <line id="Línea_1105" data-name="Línea 1105" x1="37.018" y2="44.464" transform="translate(362.964 244.901)" fill="none" stroke="#243762" stroke-miterlimit="10" stroke-width="1"/>
          <path id="Trazado_992611" data-name="Trazado 992611" d="M209.562,147.261V133.428c0-2.6,2.741-4.7,6.122-4.7H348.2c3.383,0,6.124,2.1,6.124,4.7v13.229" transform="translate(135.046 82.955)" fill="#f9d9eb"/>
          <path id="Trazado_992612" data-name="Trazado 992612" d="M209.562,147.261V133.428c0-2.6,2.741-4.7,6.122-4.7H348.2c3.383,0,6.124,2.1,6.124,4.7v13.229" transform="translate(135.046 82.955)" fill="none" stroke="#243762" stroke-miterlimit="10" stroke-width="1"/>
          <path id="Trazado_992613" data-name="Trazado 992613" d="M353.444,139.631h0Z" transform="translate(135.047 89.981)" fill="#f7a9b4"/>
          <path id="Trazado_992614" data-name="Trazado 992614" d="M353.444,139.631h0Z" transform="translate(135.047 89.981)" fill="none" stroke="#243762" stroke-miterlimit="10" stroke-width="1"/>
          <path id="Trazado_992615" data-name="Trazado 992615" d="M219.083,135.557a2.276,2.276,0,1,1-2.276-2.276A2.276,2.276,0,0,1,219.083,135.557Z" transform="translate(138.249 85.889)" fill="none" stroke="#243762" stroke-miterlimit="10" stroke-width="1"/>
          <path id="Trazado_992616" data-name="Trazado 992616" d="M224.276,135.557A2.277,2.277,0,1,1,222,133.281,2.278,2.278,0,0,1,224.276,135.557Z" transform="translate(141.594 85.889)" fill="none" stroke="#243762" stroke-miterlimit="10" stroke-width="1"/>
          <path id="Trazado_992617" data-name="Trazado 992617" d="M229.37,135.557a2.276,2.276,0,1,1-2.276-2.276A2.277,2.277,0,0,1,229.37,135.557Z" transform="translate(144.878 85.889)" fill="none" stroke="#243762" stroke-miterlimit="10" stroke-width="1"/>
          <line id="Línea_1106" data-name="Línea 1106" x2="58.038" transform="translate(411.783 253.918)" fill="#f7a9b4"/>
          <line id="Línea_1107" data-name="Línea 1107" x2="58.038" transform="translate(411.783 253.918)" fill="none" stroke="#243762" stroke-linecap="round" stroke-miterlimit="10" stroke-width="1"/>
          <line id="Línea_1108" data-name="Línea 1108" x2="29.019" transform="translate(411.783 280.613)" fill="#f7a9b4"/>
          <line id="Línea_1109" data-name="Línea 1109" x2="29.019" transform="translate(411.783 280.613)" fill="none" stroke="#243762" stroke-linecap="round" stroke-miterlimit="10" stroke-width="1"/>
          <line id="Línea_1110" data-name="Línea 1110" x2="21.667" transform="translate(411.783 267.476)" fill="#f7a9b4"/>
          <line id="Línea_1111" data-name="Línea 1111" x2="21.667" transform="translate(411.783 267.476)" fill="none" stroke="#243762" stroke-linecap="round" stroke-miterlimit="10" stroke-width="1"/>
          <line id="Línea_1112" data-name="Línea 1112" x2="21.669" transform="translate(448.153 267.476)" fill="#f7a9b4"/>
          <line id="Línea_1113" data-name="Línea 1113" x2="21.669" transform="translate(448.153 267.476)" fill="none" stroke="#243762" stroke-linecap="round" stroke-miterlimit="10" stroke-width="1"/>
          <path id="Trazado_992618" data-name="Trazado 992618" d="M230.042,189.611s-3.2,5.632,3.358,7.156" transform="translate(147.741 122.19)" fill="none" stroke="#243762" stroke-linecap="round" stroke-miterlimit="10" stroke-width="1"/>
          <path id="Trazado_992619" data-name="Trazado 992619" d="M227.177,207.908c-2-12.672-9.794-15.643-9.794-15.643s1.74-3.942,4.032-9.61a10.722,10.722,0,0,0-.248-9.131,2.5,2.5,0,0,0-.89-.965c-1.217-.76-4.238-1.861-7.436,2.948a63.057,63.057,0,0,0-4.711,9.036,49.425,49.425,0,0,0-4.272,22.8,30.606,30.606,0,0,0,.834,5.749c2.064,8.028,22.486-5.183,22.486-5.183" transform="translate(131.319 110.765)" fill="#f9d9eb"/>
          <path id="Trazado_992620" data-name="Trazado 992620" d="M225.471,207.908c-2-12.672-9.794-15.643-9.794-15.643s1.74-3.942,4.032-9.61a10.722,10.722,0,0,0-.248-9.131,2.5,2.5,0,0,0-.89-.965c-1.217-.76-4.238-1.861-7.436,2.948a63.051,63.051,0,0,0-4.711,9.036" transform="translate(133.024 110.765)" fill="#f9d9eb"/>
          <path id="Trazado_992621" data-name="Trazado 992621" d="M225.471,207.908c-2-12.672-9.794-15.643-9.794-15.643s1.74-3.942,4.032-9.61a10.722,10.722,0,0,0-.248-9.131,2.5,2.5,0,0,0-.89-.965c-1.217-.76-4.238-1.861-7.436,2.948a63.051,63.051,0,0,0-4.711,9.036" transform="translate(133.024 110.765)" fill="none" stroke="#243762" stroke-linecap="round" stroke-miterlimit="10" stroke-width="1"/>
          <path id="Trazado_992622" data-name="Trazado 992622" d="M354.792,307.767c-1.227-11.9-2.291-23.815-3.276-35.735-.853-10.36-3.845-53.029-4.963-67.058a4.42,4.42,0,0,0-4.854-4.044l-40.782,4.1a4.166,4.166,0,0,0-3.733,4.525l7.125,77.983-58.726-44.579a18.309,18.309,0,0,0-3.7-3.208,46.6,46.6,0,0,0-25.066-7.466l-78.47-.24c-35.107,0-65.609,31.5-65.609,70.357l-10.2,103.52H271.272l-7.964-67.013c14.1,5.367,35.232,15.222,50.359,15.777,7.446.273,14.795-1.945,21.552-5.085,6.277-2.917,12.374-6.842,16.063-12.7,5.53-8.786,4.522-19.314,3.511-29.133" transform="translate(40.298 129.47)" fill="#243762"/>
          <line id="Línea_1114" data-name="Línea 1114" y1="2.518" x2="37.545" transform="translate(350.246 346.846)" fill="none" stroke="#fff" stroke-linecap="round" stroke-miterlimit="10" stroke-width="1"/>
          <path id="Trazado_992623" data-name="Trazado 992623" d="M233.732,207.118a2.236,2.236,0,1,1-2.235-2.235A2.235,2.235,0,0,1,233.732,207.118Z" transform="translate(147.741 132.031)" fill="none" stroke="#fff" stroke-linecap="round" stroke-miterlimit="10" stroke-width="1"/>
          <line id="Línea_1115" data-name="Línea 1115" x1="9.561" y2="110.272" transform="translate(152.719 423.832)" fill="none" stroke="#fff" stroke-linecap="round" stroke-miterlimit="10" stroke-width="1"/>
          <line id="Línea_1116" data-name="Línea 1116" x2="10.945" y2="22.578" transform="translate(148.766 430.87)" fill="none" stroke="#fff" stroke-linecap="round" stroke-miterlimit="10" stroke-width="1"/>
          <line id="Línea_1117" data-name="Línea 1117" x2="11.615" y2="103.298" transform="translate(299.15 430.87)" fill="none" stroke="#fff" stroke-linecap="round" stroke-miterlimit="10" stroke-width="1"/>
          <path id="Trazado_992624" data-name="Trazado 992624" d="M236.453,241a20.851,20.851,0,0,0-6.005-12.721,53.9,53.9,0,0,1-15.081-32.9L214,181.33a38.014,38.014,0,0,0-15.111-26.761,49.546,49.546,0,0,0-54.684-9.646c-1.062.474-2.09.993-3.1,1.533.013-.368.041-.732.035-1.1a19.41,19.41,0,1,0-29.942,16.684c-.533-.345-5.014,6.3-5.42,6.969a38.286,38.286,0,0,0-3.882,8.638c-1.556,5.071-1.519,10.232-1.48,15.477q.049,6.625.349,13.244c.171,3.787.146,7.615-1.34,11.184-2.222,5.407-7.013,9.641-11.018,13.718-12.374,12.6-1.773,28.634,1.649,33.046.035.043.067.087.1.132a26.212,26.212,0,0,0,20.557,10.607l23.017.322c1.447,0,2.763-.044,4.021-.109,12.984-.661,16.273-4.555,16.73-8.308.1-.857,14.561-1.228,15.823-1.038,1.664.25,3.284.735,4.938,1.049,8.373,1.59,17.184-.908,25.566-1.44,5.607-.357,11.212-1.067,16.8-1.613A21.038,21.038,0,0,0,236.453,241" transform="translate(53.204 81.404)" fill="#243762"/>
          <path id="Trazado_992625" data-name="Trazado 992625" d="M197.2,201.35,188.7,164.7a33.191,33.191,0,0,0-1.561-4.83c-8.594,9.286-29.751,25.742-60.163,6.693,0,0,8.352,13.468-7.105,24.2l.016.074-.174.041a13.426,13.426,0,1,0,6.066,26.158l.174-.041.1.419c.38.53,1.161,1.649,2.128,3.144.219.337.446.694.681,1.067.028.044.056.092.084.135q.313.5.641,1.038c.1.161.2.335.3.5.155.258.309.513.467.783.24.408.482.83.724,1.26l.072.125c.355.635.71,1.289,1.061,1.957l.038.074c.288.551.567,1.115.844,1.681.036.077.076.15.112.225.026.053.053.105.077.158.2.414.38.835.569,1.255.1.214.2.426.289.641.056.13.11.26.164.39.27.643.529,1.289.763,1.932a25.1,25.1,0,0,1,1.367,5.282,34.384,34.384,0,0,1,.867,5.088c.076,4.075-2.437,8.761-16.8,9.493-1.878,14.111,7.055,27.317,20.642,29.961,14.132,2.749,27.912-6.967,30.78-21.7l4.172-21.447c15.647-6.139,24.926-22.626,21.1-39.106" transform="translate(70.448 103.024)" fill="#f9d9eb"/>
          <g id="Grupo_1158474" data-name="Grupo 1158474" transform="translate(205.517 336.804)" opacity="0.46">
            <g id="Grupo_1158473" data-name="Grupo 1158473">
              <g id="Grupo_1158472" data-name="Grupo 1158472" clip-path="url(#clip-path-11)">
                <path id="Trazado_992626" data-name="Trazado 992626" d="M157.362,213.934a34.687,34.687,0,0,1-32.384-9.118,25.155,25.155,0,0,1,1.367,5.285,34.078,34.078,0,0,1,.867,5.088,27.992,27.992,0,0,0,16.862,5.93c9.47.288,17.748-3.637,21.739-9.541a35.959,35.959,0,0,1-4.749,1.5Z" transform="translate(-124.978 -204.816)" fill="#ef92c7"/>
              </g>
            </g>
          </g>
          <g id="Grupo_1158477" data-name="Grupo 1158477" transform="translate(187.065 299.535)" opacity="0.46">
            <g id="Grupo_1158476" data-name="Grupo 1158476">
              <g id="Grupo_1158475" data-name="Grupo 1158475" clip-path="url(#clip-path-12)">
                <path id="Trazado_992627" data-name="Trazado 992627" d="M113.941,191.433h0c.8,3.43,4.017,5.8,8.041,6.4l-3.636-15.676c-3.353,2.3-5.2,5.851-4.405,9.281" transform="translate(-113.757 -182.152)" fill="#ef92c7"/>
              </g>
            </g>
          </g>
          <path id="Trazado_992628" data-name="Trazado 992628" d="M115.595,182.526a4.563,4.563,0,0,0-3.281,5.828" transform="translate(72.261 117.624)" fill="none" stroke="#243762" stroke-linecap="round" stroke-miterlimit="10" stroke-width="0.5"/>
          <path id="Trazado_992629" data-name="Trazado 992629" d="M155.918,182.141h0a1.9,1.9,0,0,0,1.422-2.281l-.86-3.7a1.9,1.9,0,0,0-3.7.858l.86,3.7a1.9,1.9,0,0,0,2.281,1.422" transform="translate(98.421 112.571)" fill="#243762"/>
          <path id="Trazado_992630" data-name="Trazado 992630" d="M136.162,187.21h0a1.9,1.9,0,0,0,1.422-2.281l-.86-3.7a1.9,1.9,0,0,0-3.7.858l.86,3.7a1.9,1.9,0,0,0,2.281,1.422" transform="translate(85.69 115.837)" fill="#243762"/>
          <path id="Trazado_992631" data-name="Trazado 992631" d="M150.768,175.124a7.018,7.018,0,0,0,2.529-.571c.867-.306,1.745-.594,2.516-.821s1.671-.462,2.569-.676a6.84,6.84,0,0,0,2.414-.886c.579-.442.6-1.23-.483-1.868a7.915,7.915,0,0,0-5.838-.235c-2.554.76-4.134,2.238-4.548,3.294-.454,1.094.084,1.713.842,1.763" transform="translate(96.509 109.323)" fill="#243762"/>
          <path id="Trazado_992632" data-name="Trazado 992632" d="M128.965,180.633a6.65,6.65,0,0,0,2.511-.7c.85-.358,1.714-.7,2.475-.965s1.651-.552,2.541-.814a6.439,6.439,0,0,0,2.368-1.029c.546-.49.5-1.324-.65-1.959a7.754,7.754,0,0,0-5.926-.025c-2.519.9-3.991,2.526-4.322,3.659-.365,1.172.233,1.809,1,1.832" transform="translate(82.391 112.504)" fill="#243762"/>
          <path id="Trazado_992633" data-name="Trazado 992633" d="M145.806,196.711l4.9-1.8a3.076,3.076,0,0,0,1.256-4.91,20.53,20.53,0,0,1-8.89-14.785l-.288-2.649" transform="translate(92.016 111.204)" fill="none" stroke="#243762" stroke-linecap="round" stroke-miterlimit="10" stroke-width="1"/>
          <g id="Grupo_1158480" data-name="Grupo 1158480" transform="translate(231.201 327.816)" opacity="0.46">
            <g id="Grupo_1158479" data-name="Grupo 1158479">
              <g id="Grupo_1158478" data-name="Grupo 1158478" clip-path="url(#clip-path-13)">
                <path id="Trazado_992634" data-name="Trazado 992634" d="M141.158,203.621a.483.483,0,0,1-.53-.65,5.609,5.609,0,0,1,9.587-1.567.484.484,0,0,1-.747.615,4.643,4.643,0,0,0-7.936,1.3.483.483,0,0,1-.375.306" transform="translate(-140.597 -199.351)" fill="#ef92c7"/>
              </g>
            </g>
          </g>
          <path id="Trazado_992635" data-name="Trazado 992635" d="M133.264,191.122s9.585,7.98,20.44,1.666" transform="translate(85.878 123.163)" fill="none" stroke="#f7a9b4" stroke-linecap="round" stroke-miterlimit="10" stroke-width="1"/>
          <path id="Trazado_992636" data-name="Trazado 992636" d="M151.005,186.826a13.65,13.65,0,1,1-13.649-13.65A13.649,13.649,0,0,1,151.005,186.826Z" transform="translate(79.719 111.598)" fill="none" stroke="#fff" stroke-linecap="round" stroke-miterlimit="10" stroke-width="1"/>
          <path id="Trazado_992637" data-name="Trazado 992637" d="M173.252,181a13.65,13.65,0,1,1-13.649-13.65A13.649,13.649,0,0,1,173.252,181Z" transform="translate(94.055 107.846)" fill="none" stroke="#fff" stroke-linecap="round" stroke-miterlimit="10" stroke-width="1"/>
          <line id="Línea_1118" data-name="Línea 1118" y1="3.281" x2="10.105" transform="translate(230.084 291.009)" fill="none" stroke="#fff" stroke-linecap="round" stroke-miterlimit="10" stroke-width="1"/>
          <line id="Línea_1119" data-name="Línea 1119" x1="15.569" y1="6.694" transform="translate(187.855 292.649)" fill="none" stroke="#fff" stroke-linecap="round" stroke-miterlimit="10" stroke-width="1"/>
          <path id="Trazado_992638" data-name="Trazado 992638" d="M122.466,310.066c11.973-7.084,27.459-4.984,36.662,5.448.066.074.132.15.2.225l14.285,16.477a3.911,3.911,0,0,1-.2,5.51l-.724.673a3.97,3.97,0,0,1-5.594-.2l-13.443-14.453-1.146,1.084L167.357,340.8a3.967,3.967,0,0,1-.2,5.593l-.677.632a3.971,3.971,0,0,1-5.6-.2l-14.8-15.915-1.148,1.085L158.3,346.368a3.974,3.974,0,0,1-.2,5.6l-.679.632a3.967,3.967,0,0,1-5.593-.2l-11.938-12.835a2.017,2.017,0,0,0-2.863-.092,1.31,1.31,0,0,0-.015,1.888l6.356,6.208a4.858,4.858,0,0,1,.783,5.8,4.434,4.434,0,0,1-6.772.712l-7.76-7.581a.047.047,0,0,0-.023-.013l-11.988-3.756a62.7,62.7,0,0,0-21.669-2.664c-23.232,1.079,8.538-19.355,26.525-30" transform="translate(56.551 197.14)" fill="#f9d9eb"/>
          <path id="Trazado_992639" data-name="Trazado 992639" d="M122.466,310.066c11.973-7.084,27.459-4.984,36.662,5.448.066.074.132.15.2.225l14.285,16.477a3.911,3.911,0,0,1-.2,5.51l-.724.673a3.97,3.97,0,0,1-5.594-.2l-13.443-14.453-1.146,1.084L167.357,340.8a3.967,3.967,0,0,1-.2,5.593l-.677.632a3.971,3.971,0,0,1-5.6-.2l-14.8-15.915-1.148,1.085L158.3,346.368a3.974,3.974,0,0,1-.2,5.6l-.679.632a3.967,3.967,0,0,1-5.593-.2l-11.938-12.835a2.017,2.017,0,0,0-2.863-.092,1.31,1.31,0,0,0-.015,1.888l6.356,6.208a4.858,4.858,0,0,1,.783,5.8,4.434,4.434,0,0,1-6.772.712l-7.76-7.581a.047.047,0,0,0-.023-.013l-11.988-3.756a62.7,62.7,0,0,0-21.669-2.664C72.709,341.14,104.479,320.707,122.466,310.066Z" transform="translate(56.551 197.14)" fill="none" stroke="#243762" stroke-linejoin="round" stroke-width="1"/>
        </g>
      </g>
      <rect id="Rectángulo_409791" data-name="Rectángulo 409791" width="1077.097" height="707.768" fill="none"/>
    </g>
  </g>
</svg>
