<svg xmlns="http://www.w3.org/2000/svg" xmlns:xlink="http://www.w3.org/1999/xlink" width="110" height="110" viewBox="0 0 110 110">
  <defs>
    <filter id="Trazado_982547" x="0" y="0" width="110" height="110" filterUnits="userSpaceOnUse">
      <feOffset dy="3" input="SourceAlpha"/>
      <feGaussianBlur stdDeviation="3" result="blur"/>
      <feFlood flood-opacity="0.161"/>
      <feComposite operator="in" in2="blur"/>
      <feComposite in="SourceGraphic"/>
    </filter>
  </defs>
  <g id="Grupo_1165229" data-name="Grupo 1165229" transform="translate(1019.772 -4024.009)">
    <g id="Grupo_1163552" data-name="Grupo 1163552" transform="translate(-1010.772 4030.009)">
      <g id="Grupo_1158890" data-name="Grupo 1158890" transform="translate(0 0)">
        <g id="Grupo_1157405" data-name="Grupo 1157405" transform="translate(0 0)">
          <g id="Grupo_1155792" data-name="Grupo 1155792">
            <g id="Grupo_1154703" data-name="Grupo 1154703">
              <g id="Grupo_1150789" data-name="Grupo 1150789">
                <g id="Grupo_1154212" data-name="Grupo 1154212">
                  <g id="Grupo_1152583" data-name="Grupo 1152583">
                    <g id="Grupo_1146973" data-name="Grupo 1146973">
                      <g id="Grupo_1146954" data-name="Grupo 1146954">
                        <g transform="matrix(1, 0, 0, 1, -9, -6)" filter="url(#Trazado_982547)">
                          <g id="Trazado_982547-2" data-name="Trazado 982547" transform="translate(9 6)" fill="#f5e9fe">
                            <path d="M 46 90.49987030029297 C 39.99187850952148 90.49987030029297 34.16426849365234 89.32350921630859 28.67905426025391 87.00345611572266 C 23.38019943237305 84.76224517822266 18.62104034423828 81.55341339111328 14.53374671936035 77.46613311767578 C 10.44646644592285 73.37885284423828 7.237639904022217 68.61969757080078 4.996413230895996 63.32085418701172 C 2.676359891891479 57.83565521240234 1.5 52.008056640625 1.5 45.99993515014648 C 1.5 39.99181365966797 2.676359891891479 34.16421508789062 4.996413230895996 28.67901420593262 C 7.237639904022217 23.38017463684082 10.44646644592285 18.62101554870605 14.53374671936035 14.53373527526855 C 18.62104034423828 10.44645500183105 23.38019943237305 7.23762845993042 28.67905426025391 4.996415138244629 C 34.16426849365234 2.676361799240112 39.99187850952148 1.500001788139343 46 1.500001788139343 C 52.00812149047852 1.500001788139343 57.83573150634766 2.676361799240112 63.32094573974609 4.996415138244629 C 68.61979675292969 7.23762845993042 73.37895965576172 10.44645500183105 77.46625518798828 14.53373527526855 C 81.55353546142578 18.62101554870605 84.76235961914062 23.38017463684082 87.00358581542969 28.67901420593262 C 89.32363891601562 34.16421508789062 90.5 39.99181365966797 90.5 45.99993515014648 C 90.5 52.008056640625 89.32363891601562 57.83565521240234 87.00358581542969 63.32085418701172 C 84.76235961914062 68.61969757080078 81.55353546142578 73.37885284423828 77.46625518798828 77.46613311767578 C 73.37895965576172 81.55341339111328 68.61979675292969 84.76224517822266 63.32094573974609 87.00345611572266 C 57.83573150634766 89.32350921630859 52.00812149047852 90.49987030029297 46 90.49987030029297 Z" stroke="none"/>
                            <path d="M 46 2.999992370605469 C 40.1937141418457 2.999992370605469 34.56269836425781 4.136489868164062 29.26337051391602 6.377906799316406 C 24.14332580566406 8.543502807617188 19.54441070556641 11.64437866210938 15.59439849853516 15.59437561035156 C 11.64440155029297 19.54439544677734 8.54351806640625 24.14329528808594 6.377914428710938 29.26333618164062 C 4.136497497558594 34.56264877319336 3 40.19366455078125 3 45.99993515014648 C 3 51.80620574951172 4.136497497558594 57.43720626831055 6.377914428710938 62.73651885986328 C 8.54351806640625 67.8565673828125 11.64440155029297 72.45545959472656 15.59439849853516 76.40547943115234 C 19.54441070556641 80.35547637939453 24.14332580566406 83.45635223388672 29.26337051391602 85.6219482421875 C 34.56269836425781 87.86336517333984 40.1937141418457 88.99986267089844 46 88.99986267089844 C 51.8062858581543 88.99986267089844 57.43730163574219 87.86336517333984 62.73661422729492 85.6219482421875 C 67.85667419433594 83.45635223388672 72.45557403564453 80.35547637939453 76.40558624267578 76.40547943115234 C 80.35559844970703 72.45545959472656 83.45647430419922 67.8565673828125 85.6220703125 62.73651885986328 C 87.86350250244141 57.43720626831055 89 51.80620574951172 89 45.99993515014648 C 89 40.19366455078125 87.86350250244141 34.56264877319336 85.6220703125 29.26333618164062 C 83.45647430419922 24.14329528808594 80.35559844970703 19.54439544677734 76.40558624267578 15.59437561035156 C 72.45557403564453 11.64437866210938 67.85667419433594 8.543502807617188 62.73661422729492 6.377906799316406 C 57.43730163574219 4.136489868164062 51.8062858581543 2.999992370605469 46 2.999992370605469 M 46 -7.62939453125e-06 C 71.40509033203125 -7.62939453125e-06 92 20.59486389160156 92 45.99993515014648 C 92 71.40499114990234 71.40509033203125 91.99986267089844 46 91.99986267089844 C 20.59490203857422 91.99986267089844 0 71.40499114990234 0 45.99993515014648 C 0 20.59486389160156 20.59490203857422 -7.62939453125e-06 46 -7.62939453125e-06 Z" stroke="none" fill="#a530fe"/>
                          </g>
                        </g>
                      </g>
                    </g>
                  </g>
                </g>
              </g>
            </g>
          </g>
        </g>
      </g>
    </g>
    <g id="programacion" transform="translate(-997 4044)">
      <g id="Grupo_1158340" data-name="Grupo 1158340">
        <g id="Grupo_1158327" data-name="Grupo 1158327">
          <path id="Trazado_992327" data-name="Trazado 992327" d="M21,16v7H15v2.67A1.336,1.336,0,0,1,13.67,27a1.35,1.35,0,0,1-1.07-.53L10,23H3a1,1,0,0,1-1-1V10A1,1,0,0,1,3,9H21.75A11.066,11.066,0,0,0,21,13Z" fill="#ffeaa7"/>
        </g>
        <g id="Grupo_1158328" data-name="Grupo 1158328">
          <path id="Trazado_992328" data-name="Trazado 992328" d="M43.33,59.56A2.814,2.814,0,0,1,40.54,62H23.46a2.814,2.814,0,0,1-2.79-2.44L20.46,58H43.54Z" fill="#aab2bd"/>
        </g>
        <g id="Grupo_1158329" data-name="Grupo 1158329">
          <path id="Trazado_992329" data-name="Trazado 992329" d="M20.13,55.51l-1.11-8.32c-.01-.13-.02-.25-.02-.38A2.812,2.812,0,0,1,21.81,44H42.19A2.8,2.8,0,0,1,45,46.81c0,.13-.01.25-.02.38l-1.11,8.32L43.54,58H20.46Z" fill="#ccd1d9"/>
        </g>
        <g id="Grupo_1158330" data-name="Grupo 1158330">
          <path id="Trazado_992330" data-name="Trazado 992330" d="M42,44H21.81A2.812,2.812,0,0,0,19,46.81c0,.13.01.25.02.38l1.11,8.32-1.68-.97A8.83,8.83,0,0,1,14,46.87a9.14,9.14,0,0,1,.17-1.73L15.8,37l.01-.04a8.823,8.823,0,0,1,6.86-6.9A15.137,15.137,0,0,0,30,37v1a2,2,0,1,0,4,0V37a15.137,15.137,0,0,0,7.33-6.94,8.79,8.79,0,0,1,6.36,5.26c.09.21.17.43.24.65a7.987,7.987,0,0,1,.26.99l1.64,8.18A9.14,9.14,0,0,1,50,46.87a8.83,8.83,0,0,1-4.45,7.67l-1.68.97,1.11-8.32c.01-.13.02-.25.02-.38A2.8,2.8,0,0,0,42.19,44Z" fill="#ff826e"/>
        </g>
        <g id="Grupo_1158331" data-name="Grupo 1158331">
          <path id="Trazado_992331" data-name="Trazado 992331" d="M42.93,11.8A10.78,10.78,0,0,0,41.3,7.12,11,11,0,0,0,21,13V23.15A15.172,15.172,0,0,0,30,37h4a15.137,15.137,0,0,0,7.33-6.94A11.231,11.231,0,0,0,41.82,29,15.02,15.02,0,0,0,43,23.15V13a9.659,9.659,0,0,0-.07-1.2Z" fill="#aab2bd"/>
        </g>
        <g id="Grupo_1158332" data-name="Grupo 1158332">
          <path id="Trazado_992332" data-name="Trazado 992332" d="M33.41,34.59A1.955,1.955,0,0,1,34,36v2a2,2,0,0,1-4,0V36a2.006,2.006,0,0,1,2-2A1.955,1.955,0,0,1,33.41,34.59Z" fill="#fcd770"/>
        </g>
        <g id="Grupo_1158334" data-name="Grupo 1158334">
          <g id="Grupo_1158333" data-name="Grupo 1158333">
            <path id="Trazado_992333" data-name="Trazado 992333" d="M47,6a14.928,14.928,0,0,0-5.7,1.127A10.764,10.764,0,0,1,42.93,11.8,9.659,9.659,0,0,1,43,13V23.15A15.02,15.02,0,0,1,41.82,29a11.23,11.23,0,0,1-.49,1.06,8.79,8.79,0,0,1,6.36,5.26c.088.205.165.419.234.633A14.99,14.99,0,0,0,47,6Z" fill="#69d6f4"/>
          </g>
        </g>
        <g id="Grupo_1158335" data-name="Grupo 1158335">
          <path id="Trazado_992334" data-name="Trazado 992334" d="M28.94,27.3l-.8,3.99A11.52,11.52,0,0,1,25,23.38V21a6.958,6.958,0,0,0,2.05,4.95Z" fill="#e6e9ed"/>
        </g>
        <g id="Grupo_1158336" data-name="Grupo 1158336">
          <path id="Trazado_992335" data-name="Trazado 992335" d="M39,21v2.38a11.52,11.52,0,0,1-3.14,7.91l-.8-3.99A7.012,7.012,0,0,0,39,21Z" fill="#e6e9ed"/>
        </g>
        <g id="Grupo_1158337" data-name="Grupo 1158337">
          <path id="Trazado_992336" data-name="Trazado 992336" d="M32.99,14a.66.66,0,0,1,.01.14,2.106,2.106,0,0,1-1.84,2.09L25,17V15a7,7,0,0,1,14,0v3a9.326,9.326,0,0,0-5.5-3.87L33,14Z" fill="#b27946"/>
        </g>
        <g id="Grupo_1158338" data-name="Grupo 1158338">
          <path id="Trazado_992337" data-name="Trazado 992337" d="M35.06,27.3l.8,3.99v.01A11.593,11.593,0,0,1,32,34a11.593,11.593,0,0,1-3.86-2.7v-.01l.8-3.99a7.038,7.038,0,0,0,6.12,0Z" fill="#f0d0b4"/>
        </g>
        <g id="Grupo_1158339" data-name="Grupo 1158339">
          <path id="Trazado_992338" data-name="Trazado 992338" d="M39,18v3a7.007,7.007,0,0,1-10.06,6.3l-1.89-1.35A6.958,6.958,0,0,1,25,21V17l6.16-.77A2.106,2.106,0,0,0,33,14.14a.66.66,0,0,0-.01-.14H33l.5.13A9.326,9.326,0,0,1,39,18Z" fill="#f0d0b4"/>
        </g>
      </g>
      <g id="Grupo_1158341" data-name="Grupo 1158341">
        <circle id="Elipse_11959" data-name="Elipse 11959" cx="1" cy="1" r="1" transform="translate(28 18)"/>
        <circle id="Elipse_11960" data-name="Elipse 11960" cx="1" cy="1" r="1" transform="translate(34 18)"/>
        <path id="Trazado_992339" data-name="Trazado 992339" d="M29.9,21.553l-1.789.9.1.211a4.236,4.236,0,0,0,7.578,0l.1-.211-1.789-.9-.1.212a2.236,2.236,0,0,1-4,0Z"/>
        <path id="Trazado_992340" data-name="Trazado 992340" d="M5,48h6V40H5Zm2-6H9v4H7Z"/>
        <path id="Trazado_992341" data-name="Trazado 992341" d="M1,40H3v8H1Z"/>
        <path id="Trazado_992342" data-name="Trazado 992342" d="M7,30H1v8H7ZM5,36H3V32H5Z"/>
        <path id="Trazado_992343" data-name="Trazado 992343" d="M9,30h2v8H9Z"/>
        <path id="Trazado_992344" data-name="Trazado 992344" d="M63,21A15.963,15.963,0,0,0,41.673,5.928,11.969,11.969,0,0,0,21.1,8H3a2,2,0,0,0-2,2V22a2,2,0,0,0,2,2H9.5l2.3,3.066a2.333,2.333,0,0,0,4.2-1.4V24h4.031a16.1,16.1,0,0,0,1.248,5.42A9.751,9.751,0,0,0,19,30.557V30H13v8h1.58l-1.389,6.946a9.832,9.832,0,0,0,4.763,10.465l1.254.717.475,3.563A3.823,3.823,0,0,0,23.462,63H40.536a3.823,3.823,0,0,0,3.779-3.31l.475-3.563,1.254-.717a9.83,9.83,0,0,0,4.765-10.465l-1.621-8.108A16.013,16.013,0,0,0,63,21ZM44.084,30h5.982a18.459,18.459,0,0,1-2.177,3.561A9.764,9.764,0,0,0,44.084,30Zm5.969-18h-6.1A17.755,17.755,0,0,1,47,7.4,17.888,17.888,0,0,1,50.053,12Zm10.9,8H53.963a23.645,23.645,0,0,0-.987-6h6.13A13.867,13.867,0,0,1,60.949,20Zm-8.986,0H44V14h6.858A21.264,21.264,0,0,1,51.963,20Zm-8.716,8A16.087,16.087,0,0,0,44,23.151V22h7.971a21.333,21.333,0,0,1-1.1,6Zm10.724-6h6.981A13.905,13.905,0,0,1,59.1,28H52.969A23.471,23.471,0,0,0,53.971,22Zm3.737-10H52.251a20.611,20.611,0,0,0-2.76-4.765A13.986,13.986,0,0,1,57.708,12ZM44.525,7.227A19.63,19.63,0,0,0,43.3,9a11.976,11.976,0,0,0-.563-1.327A13.79,13.79,0,0,1,44.525,7.227ZM22,13a10,10,0,1,1,20,0V23.151A14.163,14.163,0,0,1,34.937,35.39a2.991,2.991,0,0,0-.746-1.425A12.53,12.53,0,0,0,40,23.384V15a8,8,0,0,0-16,0v8.384a12.53,12.53,0,0,0,5.809,10.581,2.987,2.987,0,0,0-.746,1.425A14.163,14.163,0,0,1,22,23.151Zm16,2.37a10.314,10.314,0,0,0-4.166-2.188A3.136,3.136,0,0,0,30.857,11,2.861,2.861,0,0,0,28,13.857V14h2v-.143A.859.859,0,0,1,30.857,13,1.145,1.145,0,0,1,32,14.143a1.107,1.107,0,0,1-.968,1.1L26,15.867V15a6,6,0,0,1,12,0ZM26,17.883l5.28-.66a3.114,3.114,0,0,0,2.513-1.967A8.293,8.293,0,0,1,38,18.327V21a6,6,0,0,1-12,0ZM36.41,28.949l-.228-1.142a8.066,8.066,0,0,0,1.186-.892A10.621,10.621,0,0,1,36.41,28.949Zm-8.591-1.142-.228,1.142a10.557,10.557,0,0,1-.957-2.034,7.953,7.953,0,0,0,1.185.892Zm1.869.849a7.941,7.941,0,0,0,4.624,0l.46,2.3A10.5,10.5,0,0,1,32,32.9a10.5,10.5,0,0,1-2.771-1.948ZM31,36a.99.99,0,0,1,.861-.972l.139.06.139-.06A.99.99,0,0,1,33,36v2a1,1,0,0,1-2,0ZM14,22v3.667a.347.347,0,0,1-.6.2L10.5,22H3V10H20.4a11.926,11.926,0,0,0-.4,3v.586l-2.293-2.293-1.414,1.414L19.586,16l-3.293,3.293,1.414,1.414L20,18.414V22Zm1,10h2v.339A9.766,9.766,0,0,0,15.04,36H15Zm6.813,13H42.186A1.815,1.815,0,0,1,44,46.813a1.77,1.77,0,0,1-.016.24L42.658,57H21.342l-1.327-9.947a1.921,1.921,0,0,1-.015-.24A1.815,1.815,0,0,1,21.813,45ZM40.537,61H23.463a1.818,1.818,0,0,1-1.8-1.573L21.609,59H42.391l-.057.427A1.818,1.818,0,0,1,40.537,61Zm4.588-7.373.842-6.309A3.893,3.893,0,0,0,46,46.813a3.818,3.818,0,0,0-3-3.722V40.235l.9-1.789-1.789-.9L41,39.764V43H23V39.764l-1.1-2.211-1.789.9L21,40.236v2.856a3.818,3.818,0,0,0-3,3.722,3.866,3.866,0,0,0,.033.5l.842,6.31a7.824,7.824,0,0,1-3.723-8.289l1.635-8.178a7.784,7.784,0,0,1,5.394-5.924A16.146,16.146,0,0,0,29,37.624V38a3,3,0,0,0,6,0v-.376a16.134,16.134,0,0,0,6.818-6.387,7.783,7.783,0,0,1,5.394,5.924l1.635,8.178a7.808,7.808,0,0,1-3.721,8.288Zm4.356-18.856A20.822,20.822,0,0,0,52.25,30H57.7A13.957,13.957,0,0,1,49.481,34.771Z"/>
        <path id="Trazado_992345" data-name="Trazado 992345" d="M8.293,11.293,3.586,16l4.707,4.707,1.414-1.414L6.414,16l3.293-3.293Z"/>
        <path id="Trazado_992346" data-name="Trazado 992346" d="M8.877,15h8.246v2H8.877Z" transform="translate(-5.673 24.736) rotate(-75.992)"/>
      </g>
    </g>
  </g>
</svg>
