<svg xmlns="http://www.w3.org/2000/svg" xmlns:xlink="http://www.w3.org/1999/xlink" width="190" height="150.439" viewBox="0 0 190 150.439">
  <defs>
    <linearGradient id="linear-gradient" y1="0.5" x2="1" y2="0.5" gradientUnits="objectBoundingBox">
      <stop offset="0" stop-color="#d2deff" stop-opacity="0"/>
      <stop offset="1" stop-color="#b7c5ff"/>
    </linearGradient>
  </defs>
  <g id="Grupo_1163555" data-name="Grupo 1163555" transform="translate(-180 -8283.757)">
    <g id="Grupo_1149677" data-name="Grupo 1149677" transform="translate(-1050 8024.477)">
      <rect id="Rect치ngulo_407965" data-name="Rect치ngulo 407965" width="190" height="59" rx="7" transform="translate(1230 305)" fill="#5a1a8a"/>
      <rect id="Rect치ngulo_407966" data-name="Rect치ngulo 407966" width="126" height="101" rx="7" transform="translate(1262 284)" fill="#a530fe"/>
    </g>
    <g id="objetivo_1_" data-name="objetivo (1)" transform="translate(159.3 8283.757)">
      <g id="Grupo_1149813" data-name="Grupo 1149813" transform="translate(55.15 0)">
        <path id="Trazado_984470" data-name="Trazado 984470" d="M172.3,109.054c-7.737-26.124-34.739-52.47-16.132-80.915,3.559-5.441,3.172-14.546.212-18.394-18.6-24.18-59.669.752-59.379,30C97.2,58.97,82.981,71.008,70.453,83.455,3.807,140.647,194.264,187.336,172.3,109.054Z" transform="translate(-56.232 0)" fill="url(#linear-gradient)"/>
      </g>
      <g id="Grupo_1149834" data-name="Grupo 1149834" transform="translate(54.7 11.923)">
        <g id="Grupo_1149827" data-name="Grupo 1149827">
          <path id="Trazado_984471" data-name="Trazado 984471" d="M170.708,108.144h2.106a1.469,1.469,0,0,0,0-2.938h-2.107l4.135-6.68a.882.882,0,0,0-.75-1.345H154.418a38.347,38.347,0,0,0-75.062,8.026H71.2c-.017,0-.034,0-.051,0l2.368-3.826a.881.881,0,0,0-.889-1.334l-8.547,1.375a1.321,1.321,0,0,0-.806.46L60,105.831a1.32,1.32,0,0,0,0,1.686l3.274,3.946a1.321,1.321,0,0,0,.806.46l8.547,1.375a.881.881,0,0,0,.889-1.334l-2.368-3.826c.017,0,.033,0,.051,0h8.06a38.2,38.2,0,0,0,9.719,25.282,75.732,75.732,0,0,1,15.493,26.562,3.391,3.391,0,0,0-2.661,3.31v17.2a3.391,3.391,0,0,0,3.391,3.391h1.1a11.5,11.5,0,0,0,22.59,0H130a3.391,3.391,0,0,0,3.391-3.391V163.3a3.391,3.391,0,0,0-2.664-3.311,75.062,75.062,0,0,1,15.444-26.5,38.235,38.235,0,0,0,8.88-17.315h19.042a.882.882,0,0,0,.75-1.345Z" transform="translate(-58.23 -61.055)" fill="#00c" opacity="0.1"/>
          <g id="Grupo_1149817" data-name="Grupo 1149817" transform="translate(15.652 91.598)" opacity="0.1">
            <g id="Grupo_1149814" data-name="Grupo 1149814" transform="translate(11.753)">
              <path id="Trazado_984472" data-name="Trazado 984472" d="M149.439,355.255h5.46a1.469,1.469,0,0,0,0-2.938h-5.46a1.469,1.469,0,1,0,0,2.938Z" transform="translate(-147.97 -352.317)" fill="#00c"/>
            </g>
            <g id="Grupo_1149815" data-name="Grupo 1149815" transform="translate(0 5.989)">
              <path id="Trazado_984473" data-name="Trazado 984473" d="M109.439,375.637h17.213a1.469,1.469,0,0,0,0-2.938H109.439a1.469,1.469,0,1,0,0,2.938Z" transform="translate(-107.97 -372.699)" fill="#00c"/>
            </g>
            <g id="Grupo_1149816" data-name="Grupo 1149816" transform="translate(0 11.977)">
              <path id="Trazado_984474" data-name="Trazado 984474" d="M109.439,396.018h17.213a1.469,1.469,0,0,0,0-2.938H109.439a1.469,1.469,0,1,0,0,2.938Z" transform="translate(-107.97 -393.08)" fill="#00c"/>
            </g>
          </g>
          <g id="Grupo_1149826" data-name="Grupo 1149826">
            <g id="Grupo_1149821" data-name="Grupo 1149821" transform="translate(21.031 1.469)">
              <path id="Trazado_984475" data-name="Trazado 984475" d="M240.629,427.291a11.5,11.5,0,0,1-23,0Z" transform="translate(-190.789 -315.133)" fill="#fff"/>
              <path id="Trazado_984476" data-name="Trazado 984476" d="M202.959,83.916a38.193,38.193,0,0,1-9.773,25.569,74.343,74.343,0,0,0-17.251,32.976H153.3A74.781,74.781,0,0,0,136,109.426a38.34,38.34,0,1,1,66.963-25.51Z" transform="translate(-126.276 -45.576)" fill="#fff"/>
              <path id="Trazado_984477" data-name="Trazado 984477" d="M224.447,156.493c0,14.64-10.311,33.74-23.03,33.74s-23.03-19.1-23.03-33.74,10.311-19.275,23.03-19.275S224.447,141.853,224.447,156.493Z" transform="translate(-163.075 -110.291)" fill="#6583fe"/>
              <g id="Grupo_1149820" data-name="Grupo 1149820" transform="translate(22.553 90.331)">
                <path id="Trazado_984478" data-name="Trazado 984478" d="M231.218,376.984h-24.8a3.391,3.391,0,0,1-3.391-3.391V356.4a3.391,3.391,0,0,1,3.391-3.391h24.8a3.391,3.391,0,0,1,3.391,3.391v17.2A3.391,3.391,0,0,1,231.218,376.984Z" transform="translate(-203.032 -353.006)" fill="#6583fe"/>
                <g id="Grupo_1149819" data-name="Grupo 1149819" transform="translate(0 5.198)">
                  <g id="Grupo_1149818" data-name="Grupo 1149818">
                    <path id="Trazado_984479" data-name="Trazado 984479" d="M203.032,370.7h31.577v4.278H203.032Z" transform="translate(-203.032 -370.698)" fill="#fff"/>
                  </g>
                  <path id="Trazado_984480" data-name="Trazado 984480" d="M203.032,400.361h31.577v4.278H203.032Z" transform="translate(-203.032 -391.645)" fill="#fff"/>
                </g>
              </g>
            </g>
            <g id="Grupo_1149823" data-name="Grupo 1149823" transform="translate(49.077 28.272)">
              <g id="Grupo_1149822" data-name="Grupo 1149822">
                <path id="Trazado_984481" data-name="Trazado 984481" d="M232.024,157.387a10.3,10.3,0,1,1,10.295-10.3A10.307,10.307,0,0,1,232.024,157.387Z" transform="translate(-221.729 -136.797)" fill="#fff"/>
              </g>
            </g>
            <g id="Grupo_1149824" data-name="Grupo 1149824" transform="translate(89.345 29.073)">
              <path id="Trazado_984482" data-name="Trazado 984482" d="M381,149.016H358.773l5.446-8.8a1.469,1.469,0,0,1,1.249-.7h19.824a.882.882,0,0,1,.75,1.345Z" transform="translate(-358.773 -139.521)" fill="#6583fe"/>
              <path id="Trazado_984483" data-name="Trazado 984483" d="M365.468,181.331h19.824a.882.882,0,0,0,.75-1.345L381,171.836H358.773l5.446,8.8a1.469,1.469,0,0,0,1.249.7Z" transform="translate(-358.773 -162.341)" fill="#6583fe"/>
            </g>
            <path id="Trazado_984484" data-name="Trazado 984484" d="M70.675,155.191l2.844-4.6a.881.881,0,0,0-.889-1.334l-8.547,1.375a1.321,1.321,0,0,0-.806.46L60,155.043a1.32,1.32,0,0,0,0,1.686l3.274,3.946a1.32,1.32,0,0,0,.806.46l8.547,1.375a.881.881,0,0,0,.889-1.334l-2.844-4.6A1.32,1.32,0,0,1,70.675,155.191Z" transform="translate(-58.23 -117.318)" fill="#6583fe"/>
            <g id="Grupo_1149825" data-name="Grupo 1149825">
              <path id="Trazado_984485" data-name="Trazado 984485" d="M154.9,328.317h-5.46a1.469,1.469,0,1,0,0,2.938h5.46a1.469,1.469,0,0,0,0-2.938Z" transform="translate(-120.565 -243.771)" fill="#00c"/>
              <path id="Trazado_984486" data-name="Trazado 984486" d="M126.652,348.7H109.439a1.469,1.469,0,0,0,0,2.938h17.213a1.469,1.469,0,1,0,0-2.938Z" transform="translate(-92.318 -258.164)" fill="#00c"/>
              <path id="Trazado_984487" data-name="Trazado 984487" d="M126.652,369.081H109.439a1.469,1.469,0,0,0,0,2.938h17.213a1.469,1.469,0,1,0,0-2.938Z" transform="translate(-92.318 -272.558)" fill="#00c"/>
              <path id="Trazado_984488" data-name="Trazado 984488" d="M168.906,80.613h.379a1.469,1.469,0,0,0,0-2.938h-.379l3.656-5.907a2.351,2.351,0,0,0-2-3.588h-5.092a1.469,1.469,0,1,0,0,2.938h4.037l-4.058,6.557H146.682l4.058-6.557h6.267a1.469,1.469,0,0,0,0-2.938h-5.033a39.916,39.916,0,0,0-37.907-27.6q-.29,0-.582,0a39.935,39.935,0,0,0-39.13,37.094h-5l1.886-3.048a2.35,2.35,0,0,0-2.372-3.558L60.32,72.444a2.788,2.788,0,0,0-1.7.973l-3.274,3.946a2.791,2.791,0,0,0,0,3.562l3.274,3.946a2.788,2.788,0,0,0,1.7.973l8.547,1.375a2.41,2.41,0,0,0,.385.031,2.352,2.352,0,0,0,1.987-3.589l-1.886-3.048h4.91a39.7,39.7,0,0,0,10.092,26.26,75.375,75.375,0,0,1,12.382,18.883,1.469,1.469,0,1,0,2.673-1.22,78.3,78.3,0,0,0-12.863-19.619,36.87,36.87,0,0,1,26.98-61.4c.181,0,.359,0,.539,0a36.975,36.975,0,0,1,34.99,25.2,2.943,2.943,0,0,0-.814.86l-5.015,8.1h-7.55a21.684,21.684,0,0,0-20.134-20.134V52.827a1.469,1.469,0,0,0-2.938,0V57.54A21.684,21.684,0,0,0,92.47,77.674H87.757a1.469,1.469,0,0,0,0,2.938H92.47A21.684,21.684,0,0,0,112.6,100.747v4.712a1.469,1.469,0,0,0,2.938,0v-4.712a21.684,21.684,0,0,0,20.134-20.134h7.55l5.015,8.1a2.92,2.92,0,0,0,1.453,1.2,36.849,36.849,0,0,1-8.148,15.059,76.188,76.188,0,0,0-15.372,25.934h-4.864c.388-6.82,1.336-15.8,3.627-23.052a1.514,1.514,0,1,0-2.888-.911c-.223.7-.432,1.413-.629,2.136l-2.415-1.739a1.517,1.517,0,0,0-1.8.018l-3.156,2.374-3.317-2.392a1.521,1.521,0,0,0-1.8.018l-2.227,1.675q-.291-1.062-.614-2.089a1.516,1.516,0,1,0-2.891.911c2.289,7.248,3.238,16.23,3.626,23.052h-5.158a4.865,4.865,0,0,0-4.86,4.86v17.2a4.864,4.864,0,0,0,4.8,4.857,12.97,12.97,0,0,0,24.911,0,4.864,4.864,0,0,0,4.8-4.857v-17.2a4.857,4.857,0,0,0-2.3-4.123,73.289,73.289,0,0,1,14.7-24.71,39.784,39.784,0,0,0,8.947-16.826h17.88a2.351,2.351,0,0,0,2-3.588Zm-103.01,0,2.167,3.5-7.222-1.162-3.159-3.808,3.159-3.808,7.222-1.162-2.167,3.5h0A2.774,2.774,0,0,0,65.9,80.612Zm49.581,17.195a1.46,1.46,0,0,0-2.808,0A18.743,18.743,0,0,1,95.41,80.548a1.46,1.46,0,0,0,0-2.808,18.743,18.743,0,0,1,17.258-17.258,1.46,1.46,0,0,0,2.808,0,18.742,18.742,0,0,1,17.252,17.194h-8.468a10.3,10.3,0,1,0,0,2.938h8.468A18.742,18.742,0,0,1,115.477,97.806Zm-1.4-17.194h7.209a7.357,7.357,0,1,1,0-2.938h-7.209a1.469,1.469,0,0,0,0,2.938Zm-4.2,29.839,3.314,2.392a1.521,1.521,0,0,0,1.8-.018l3.156-2.374,2.5,1.8q-.361,1.631-.661,3.288l-.973-.7a1.521,1.521,0,0,0-1.8.018l-3.156,2.374-3.317-2.392a1.517,1.517,0,0,0-1.8.018l-.79.594c-.194-1.078-.411-2.154-.646-3.217Zm-1.166,8.374,1.164-.876,3.317,2.392a1.523,1.523,0,0,0,1.8-.018l3.156-2.374,1.293.934c-.621,4.261-.974,8.443-1.172,12.022h-8.373c-.2-3.6-.554-7.8-1.182-12.081Zm5.368,45.408a10.037,10.037,0,0,1-9.358-6.411H123.43a10.036,10.036,0,0,1-9.358,6.411Zm14.32-11.271a1.924,1.924,0,0,1-1.922,1.922h-24.8a1.924,1.924,0,0,1-1.922-1.922v-17.2a1.924,1.924,0,0,1,1.922-1.922h24.8a1.924,1.924,0,0,1,1.922,1.922ZM151.544,87.17h-.8l-4.058-6.557h18.769l4.058,6.556Z" transform="translate(-54.7 -40.576)" fill="#00c"/>
            </g>
          </g>
        </g>
        <g id="Grupo_1149833" data-name="Grupo 1149833" transform="translate(3.647 2.815)">
          <g id="Grupo_1149828" data-name="Grupo 1149828" transform="translate(76.823 114.002)">
            <path id="Trazado_984489" data-name="Trazado 984489" d="M333.368,447.744a1.469,1.469,0,0,1-1.469-1.469,1.863,1.863,0,0,0-1.861-1.861,1.469,1.469,0,0,1,0-2.938,1.863,1.863,0,0,0,1.861-1.861,1.469,1.469,0,1,1,2.938,0,1.863,1.863,0,0,0,1.861,1.861,1.469,1.469,0,0,1,0,2.938,1.863,1.863,0,0,0-1.861,1.861A1.469,1.469,0,0,1,333.368,447.744Z" transform="translate(-328.569 -438.146)" fill="#8383ff"/>
          </g>
          <g id="Grupo_1149829" data-name="Grupo 1149829" transform="translate(0 53.996)">
            <path id="Trazado_984490" data-name="Trazado 984490" d="M71.911,243.522a1.469,1.469,0,0,1-1.469-1.469,1.863,1.863,0,0,0-1.861-1.861,1.469,1.469,0,1,1,0-2.938,1.863,1.863,0,0,0,1.861-1.861,1.469,1.469,0,1,1,2.938,0,1.863,1.863,0,0,0,1.861,1.861,1.469,1.469,0,1,1,0,2.938,1.863,1.863,0,0,0-1.861,1.861A1.469,1.469,0,0,1,71.911,243.522Z" transform="translate(-67.112 -233.924)" fill="#8383ff"/>
          </g>
          <g id="Grupo_1149830" data-name="Grupo 1149830" transform="translate(101.241 10.199)">
            <path id="Trazado_984491" data-name="Trazado 984491" d="M416.472,94.464A1.469,1.469,0,0,1,415,93a1.863,1.863,0,0,0-1.861-1.861,1.469,1.469,0,1,1,0-2.938A1.863,1.863,0,0,0,415,86.335a1.469,1.469,0,1,1,2.938,0A1.863,1.863,0,0,0,419.8,88.2a1.469,1.469,0,1,1,0,2.938A1.863,1.863,0,0,0,417.941,93,1.469,1.469,0,0,1,416.472,94.464Z" transform="translate(-411.673 -84.866)" fill="#8383ff"/>
          </g>
          <g id="Grupo_1149831" data-name="Grupo 1149831" transform="translate(15.102)">
            <path id="Trazado_984492" data-name="Trazado 984492" d="M123.309,59.753a1.469,1.469,0,0,1-1.469-1.469,1.863,1.863,0,0,0-1.861-1.861,1.469,1.469,0,1,1,0-2.938,1.863,1.863,0,0,0,1.861-1.861,1.469,1.469,0,1,1,2.938,0,1.863,1.863,0,0,0,1.861,1.861,1.469,1.469,0,1,1,0,2.938,1.863,1.863,0,0,0-1.861,1.861A1.469,1.469,0,0,1,123.309,59.753Z" transform="translate(-118.51 -50.155)" fill="#8383ff"/>
          </g>
          <g id="Grupo_1149832" data-name="Grupo 1149832" transform="translate(90.676 104.386)">
            <path id="Trazado_984493" data-name="Trazado 984493" d="M382.472,411a1.464,1.464,0,0,1-1.039-.43l-1.606-1.605-1.606,1.605a1.469,1.469,0,0,1-2.077-2.078l2.644-2.644a1.469,1.469,0,0,1,2.077,0l2.644,2.644A1.469,1.469,0,0,1,382.472,411Z" transform="translate(-375.714 -405.42)" fill="#8383ff"/>
          </g>
        </g>
      </g>
    </g>
  </g>
</svg>
