<svg xmlns="http://www.w3.org/2000/svg" xmlns:xlink="http://www.w3.org/1999/xlink" width="98" height="98" viewBox="0 0 98 98">
  <defs>
    <filter id="Trazado_982548" x="0" y="0" width="98" height="98" filterUnits="userSpaceOnUse">
      <feOffset dy="3" input="SourceAlpha"/>
      <feGaussianBlur stdDeviation="3" result="blur"/>
      <feFlood flood-opacity="0.161"/>
      <feComposite operator="in" in2="blur"/>
      <feComposite in="SourceGraphic"/>
    </filter>
  </defs>
  <g id="Grupo_1165309" data-name="Grupo 1165309" transform="translate(-183 -6342)">
    <g id="Grupo_1160970" data-name="Grupo 1160970" transform="translate(0 4091)">
      <g id="Grupo_1160767" data-name="Grupo 1160767" transform="translate(0 1402)">
        <g id="Grupo_1154380" data-name="Grupo 1154380" transform="translate(-9 -1247)">
          <g id="Grupo_1149886" data-name="Grupo 1149886" transform="translate(0 -2463)">
            <g id="Grupo_1149694" data-name="Grupo 1149694" transform="translate(-9 4104)">
              <g id="Grupo_1149263" data-name="Grupo 1149263" transform="translate(210 461)">
                <g transform="matrix(1, 0, 0, 1, -9, -6)" filter="url(#Trazado_982548)">
                  <g id="Trazado_982548-2" data-name="Trazado 982548" transform="translate(9 6)" fill="#e6fbf1">
                    <path d="M 40 78.5 C 34.80187606811523 78.5 29.76003265380859 77.48227691650391 25.01452255249023 75.47509765625 C 20.43014526367188 73.53606414794922 16.31264495849609 70.75986480712891 12.77638912200928 67.22360992431641 C 9.240133285522461 63.68735504150391 6.46393346786499 59.56985473632812 4.524899959564209 54.98547744750977 C 2.517722129821777 50.23996734619141 1.5 45.19812393188477 1.5 40 C 1.5 34.80187606811523 2.517722129821777 29.76003265380859 4.524899959564209 25.01452255249023 C 6.46393346786499 20.43014526367188 9.240133285522461 16.31264495849609 12.77638912200928 12.77638912200928 C 16.31264495849609 9.240133285522461 20.43014526367188 6.46393346786499 25.01452255249023 4.524899959564209 C 29.76003265380859 2.517722129821777 34.80187606811523 1.5 40 1.5 C 45.19812393188477 1.5 50.23996734619141 2.517722129821777 54.98547744750977 4.524899959564209 C 59.56985473632812 6.46393346786499 63.68735504150391 9.240133285522461 67.22360992431641 12.77638912200928 C 70.75986480712891 16.31264495849609 73.53606414794922 20.43014526367188 75.47509765625 25.01452255249023 C 77.48227691650391 29.76003265380859 78.5 34.80187606811523 78.5 40 C 78.5 45.19812393188477 77.48227691650391 50.23996734619141 75.47509765625 54.98547744750977 C 73.53606414794922 59.56985473632812 70.75986480712891 63.68735504150391 67.22360992431641 67.22360992431641 C 63.68735504150391 70.75986480712891 59.56985473632812 73.53606414794922 54.98547744750977 75.47509765625 C 50.23996734619141 77.48227691650391 45.19812393188477 78.5 40 78.5 Z" stroke="none"/>
                    <path d="M 40 3 C 35.00370788574219 3 30.15846633911133 3.977851867675781 25.59885406494141 5.906410217285156 C 21.19326782226562 7.769813537597656 17.23602676391602 10.43806457519531 13.83704376220703 13.83705139160156 C 10.43806457519531 17.23603820800781 7.769813537597656 21.19327926635742 5.906410217285156 25.59885406494141 C 3.977851867675781 30.15846633911133 3 35.00370788574219 3 40 C 3 44.99629211425781 3.977851867675781 49.84153366088867 5.906410217285156 54.40114593505859 C 7.769813537597656 58.80672073364258 10.43806457519531 62.76396179199219 13.83704376220703 66.16294860839844 C 17.23602676391602 69.56193542480469 21.19326782226562 72.23018646240234 25.59885406494141 74.09358978271484 C 30.15846633911133 76.02214813232422 35.00370788574219 77 40 77 C 44.99629211425781 77 49.84153366088867 76.02214813232422 54.40114593505859 74.09358978271484 C 58.80672073364258 72.23018646240234 62.76396179199219 69.56193542480469 66.16294860839844 66.16294860839844 C 69.56193542480469 62.76396179199219 72.23018646240234 58.80672073364258 74.09358978271484 54.40114593505859 C 76.02214813232422 49.84153366088867 77 44.99629211425781 77 40 C 77 35.00370788574219 76.02214813232422 30.15846633911133 74.09358978271484 25.59885406494141 C 72.23018646240234 21.19327926635742 69.56193542480469 17.23603820800781 66.16294860839844 13.83705139160156 C 62.76396179199219 10.43806457519531 58.80672073364258 7.769813537597656 54.40114593505859 5.906410217285156 C 49.84153366088867 3.977851867675781 44.99629211425781 3 40 3 M 40 0 C 62.09138488769531 0 80 17.90861511230469 80 40 C 80 62.09138488769531 62.09138488769531 80 40 80 C 17.90859985351562 80 0 62.09138488769531 0 40 C 0 17.90861511230469 17.90859985351562 0 40 0 Z" stroke="none" fill="#0b7744"/>
                  </g>
                </g>
              </g>
            </g>
          </g>
        </g>
      </g>
    </g>
    <g id="ganancia" transform="translate(163.221 6352.014)">
      <g id="Grupo_1165306" data-name="Grupo 1165306" transform="translate(45.677 8.688)">
        <path id="Trazado_1014659" data-name="Trazado 1014659" d="M69.838,126.85a1.513,1.513,0,0,1-1.849-2.4l3.273-2.518a1.513,1.513,0,0,1,1.867.015l3.256,2.5a1.513,1.513,0,1,1-1.849,2.4l-.831-.64v5.741a1.518,1.518,0,0,1-3.032,0V126.21Z" transform="translate(-65.758 -109.564)" fill="#8ac9fe" fill-rule="evenodd"/>
        <path id="Trazado_1014660" data-name="Trazado 1014660" d="M143.731,19.469a1.513,1.513,0,0,1-1.849-2.394l3.273-2.518a1.513,1.513,0,0,1,1.867.015l3.256,2.5a1.513,1.513,0,1,1-1.849,2.394l-.831-.639v5.741a1.518,1.518,0,0,1-3.032,0V18.83Z" transform="translate(-131.355 -14.242)" fill="#8ac9fe" fill-rule="evenodd"/>
        <path id="Trazado_1014661" data-name="Trazado 1014661" d="M109.121,347.819,127.342,337.3a2.913,2.913,0,0,0,1.063-3.967,2.976,2.976,0,0,0-3.967-1.062l-14.325,7.215a2.616,2.616,0,0,0,.6-1.095,2.648,2.648,0,0,0-1.867-3.232l-8.925-2.392c-2.224-.6-3.181-3.118-10.555,2.121L87,340.922l5.578,5.951c4.319-2.663,13.274,3.049,16.542.945Z" transform="translate(-83.157 -295.994)" fill="#f6dccd" fill-rule="evenodd"/>
        <path id="Trazado_1014662" data-name="Trazado 1014662" d="M54.046,344.341l2.669-.715a1.719,1.719,0,0,1,2.1,1.213l3.533,13.171a1.718,1.718,0,0,1-1.212,2.1l-2.668.715a1.719,1.719,0,0,1-2.1-1.212l-3.534-13.173a1.719,1.719,0,0,1,1.212-2.1Z" transform="translate(-52.777 -306.589)" fill="#b3b3b3" fill-rule="evenodd"/>
      </g>
      <circle id="Elipse_12197" data-name="Elipse 12197" cx="13.366" cy="13.366" r="13.366" transform="translate(60.979 17.377)" fill="#ffc338"/>
      <circle id="Elipse_12198" data-name="Elipse 12198" cx="9.958" cy="9.958" r="9.958" transform="translate(64.387 20.785)" fill="#ffd064"/>
      <path id="Trazado_1014663" data-name="Trazado 1014663" d="M48.222,24.9a.616.616,0,0,1,.232-.4l3.275-2.519a.614.614,0,0,1,.758,0l.012.01,3.256,2.5A.615.615,0,1,1,55,25.46l-.832-.64a.9.9,0,0,0-1.446.712v5.741a.619.619,0,0,1-1.235,0V25.531a.9.9,0,0,0-1.446-.712l-.831.64a.614.614,0,0,1-.985-.561Zm1.468,2.331v4.042a2.415,2.415,0,0,0,4.828,0V27.227a2.412,2.412,0,0,0,2.331-4.164l-3.247-2.5a2.4,2.4,0,0,0-2.969-.019l-3.275,2.521a2.411,2.411,0,0,0,2.332,4.161Zm7.057-14.8,3.275-2.518a.612.612,0,0,1,.758,0l.012.01,3.256,2.5a.615.615,0,0,1-.752.972l-.832-.64a.9.9,0,0,0-1.445.712v5.747a.62.62,0,1,1-1.235,0V13.474a.9.9,0,0,0-1.446-.712l-.831.64a.6.6,0,0,1-.449.124.614.614,0,0,1-.3-1.095Zm.072,2.877a2.411,2.411,0,0,1-1.169-4.3l3.275-2.519a2.406,2.406,0,0,1,2.969.018l3.25,2.5a2.411,2.411,0,0,1-2.33,4.167v4.042a2.416,2.416,0,0,1-4.828,0V15.174A2.4,2.4,0,0,1,56.819,15.308ZM72.81,33.293v.082a1.536,1.536,0,1,0,1.536-1.536,3.333,3.333,0,0,1-.9-6.542v-.629a.9.9,0,1,1,1.8,0V25.3a3.338,3.338,0,0,1,2.434,3.21c0,.067,0,.135-.006.2a.9.9,0,0,1-1.8-.112c0-.031,0-.063,0-.093a1.536,1.536,0,1,0-1.536,1.535,3.333,3.333,0,0,1,.9,6.543v.629a.9.9,0,1,1-1.8,0v-.629a3.339,3.339,0,0,1-2.434-3.21v-.176a.9.9,0,1,1,1.8.094Zm1.534-11.411A9.059,9.059,0,1,0,83.4,30.941,9.059,9.059,0,0,0,74.344,21.882Zm0,19.914A10.856,10.856,0,1,0,63.489,30.941,10.856,10.856,0,0,0,74.344,41.8Zm0-23.323A12.464,12.464,0,1,0,86.808,30.937,12.464,12.464,0,0,0,74.344,18.473ZM60.083,30.937A14.261,14.261,0,1,0,74.344,16.676,14.261,14.261,0,0,0,60.083,30.937ZM50.356,48.86a1.235,1.235,0,1,1-1.509-.869,1.235,1.235,0,0,1,1.509.869Zm39.062.153L71.192,59.537l-.036.024c-1.2.773-3.93.054-6.573-.641-3.144-.825-6.381-1.676-8.9-.81L52.912,47.756c5.128-3.536,6.564-2.841,7.956-2.167a7.346,7.346,0,0,0,1.338.539l8.928,2.4a1.743,1.743,0,1,1-.9,3.369l-7.455-2.005a.9.9,0,1,0-.46,1.736l7.451,2a3.569,3.569,0,0,0,3.25-.76.825.825,0,0,0,.085-.038l14.266-7.256a2.065,2.065,0,0,1,2.783.712,2.009,2.009,0,0,1-.734,2.74ZM53.8,61.14a.816.816,0,0,0,.576-1l-.139-.54a.016.016,0,0,1,0-.007l-3.39-12.622a.817.817,0,0,0-.786-.6.808.808,0,0,0-.211.028l-2.668.714a.822.822,0,0,0-.576,1l3.529,13.171a.817.817,0,0,0,1,.576l2.669-.714ZM91.708,45.38a3.808,3.808,0,0,1-1.392,5.194L72.11,61.084a4.51,4.51,0,0,1-2.453.6,23.69,23.69,0,0,1-5.528-1.029c-2.807-.739-5.951-1.566-7.972-.8A2.614,2.614,0,0,1,54.27,62.88L51.6,63.6a2.674,2.674,0,0,1-.674.089,2.624,2.624,0,0,1-2.53-1.937l-3.53-13.173a2.617,2.617,0,0,1,1.846-3.2l2.668-.715a2.617,2.617,0,0,1,2.982,1.3,15.146,15.146,0,0,1,5.7-2.656,5.528,5.528,0,0,1,3.593.668,5.951,5.951,0,0,0,1.021.421L71.6,46.786a3.547,3.547,0,0,1,2.624,3.449l12.333-6.272a3.883,3.883,0,0,1,5.152,1.416Z" fill="#242222" fill-rule="evenodd"/>
    </g>
  </g>
</svg>
