<svg xmlns="http://www.w3.org/2000/svg" xmlns:xlink="http://www.w3.org/1999/xlink" width="110" height="110" viewBox="0 0 110 110">
  <defs>
    <filter id="Trazado_982547" x="0" y="0" width="110" height="110" filterUnits="userSpaceOnUse">
      <feOffset dy="3" input="SourceAlpha"/>
      <feGaussianBlur stdDeviation="3" result="blur"/>
      <feFlood flood-opacity="0.161"/>
      <feComposite operator="in" in2="blur"/>
      <feComposite in="SourceGraphic"/>
    </filter>
  </defs>
  <g id="Grupo_1165166" data-name="Grupo 1165166" transform="translate(-692 -1533)">
    <g id="Grupo_1163521" data-name="Grupo 1163521" transform="translate(701 1539)">
      <g id="Grupo_1158891" data-name="Grupo 1158891" transform="translate(0 0)">
        <g id="Grupo_1157406" data-name="Grupo 1157406">
          <g id="Grupo_1155793" data-name="Grupo 1155793">
            <g id="Grupo_1154704" data-name="Grupo 1154704">
              <g id="Grupo_1150790" data-name="Grupo 1150790">
                <g id="Grupo_1154214" data-name="Grupo 1154214">
                  <g id="Grupo_1152583" data-name="Grupo 1152583">
                    <g id="Grupo_1146973" data-name="Grupo 1146973">
                      <g id="Grupo_1146954" data-name="Grupo 1146954">
                        <g transform="matrix(1, 0, 0, 1, -9, -6)" filter="url(#Trazado_982547)">
                          <g id="Trazado_982547-2" data-name="Trazado 982547" transform="translate(9 6)" fill="#f5e9fe">
                            <path d="M 46 90.49987030029297 C 39.99187850952148 90.49987030029297 34.16426849365234 89.32350921630859 28.67905426025391 87.00345611572266 C 23.38019943237305 84.76224517822266 18.62104034423828 81.55341339111328 14.53374671936035 77.46613311767578 C 10.44646644592285 73.37885284423828 7.237639904022217 68.61969757080078 4.996413230895996 63.32085418701172 C 2.676359891891479 57.83565521240234 1.5 52.008056640625 1.5 45.99993515014648 C 1.5 39.99181365966797 2.676359891891479 34.16421508789062 4.996413230895996 28.67901420593262 C 7.237639904022217 23.38017463684082 10.44646644592285 18.62101554870605 14.53374671936035 14.53373527526855 C 18.62104034423828 10.44645500183105 23.38019943237305 7.23762845993042 28.67905426025391 4.996415138244629 C 34.16426849365234 2.676361799240112 39.99187850952148 1.500001788139343 46 1.500001788139343 C 52.00812149047852 1.500001788139343 57.83573150634766 2.676361799240112 63.32094573974609 4.996415138244629 C 68.61979675292969 7.23762845993042 73.37895965576172 10.44645500183105 77.46625518798828 14.53373527526855 C 81.55353546142578 18.62101554870605 84.76235961914062 23.38017463684082 87.00358581542969 28.67901420593262 C 89.32363891601562 34.16421508789062 90.5 39.99181365966797 90.5 45.99993515014648 C 90.5 52.008056640625 89.32363891601562 57.83565521240234 87.00358581542969 63.32085418701172 C 84.76235961914062 68.61969757080078 81.55353546142578 73.37885284423828 77.46625518798828 77.46613311767578 C 73.37895965576172 81.55341339111328 68.61979675292969 84.76224517822266 63.32094573974609 87.00345611572266 C 57.83573150634766 89.32350921630859 52.00812149047852 90.49987030029297 46 90.49987030029297 Z" stroke="none"/>
                            <path d="M 46 2.999992370605469 C 40.1937141418457 2.999992370605469 34.56269836425781 4.136489868164062 29.26337051391602 6.377906799316406 C 24.14332580566406 8.543502807617188 19.54441070556641 11.64437866210938 15.59439849853516 15.59437561035156 C 11.64440155029297 19.54439544677734 8.54351806640625 24.14329528808594 6.377914428710938 29.26333618164062 C 4.136497497558594 34.56264877319336 3 40.19366455078125 3 45.99993515014648 C 3 51.80620574951172 4.136497497558594 57.43720626831055 6.377914428710938 62.73651885986328 C 8.54351806640625 67.8565673828125 11.64440155029297 72.45545959472656 15.59439849853516 76.40547943115234 C 19.54441070556641 80.35547637939453 24.14332580566406 83.45635223388672 29.26337051391602 85.6219482421875 C 34.56269836425781 87.86336517333984 40.1937141418457 88.99986267089844 46 88.99986267089844 C 51.8062858581543 88.99986267089844 57.43730163574219 87.86336517333984 62.73661422729492 85.6219482421875 C 67.85667419433594 83.45635223388672 72.45557403564453 80.35547637939453 76.40558624267578 76.40547943115234 C 80.35559844970703 72.45545959472656 83.45647430419922 67.8565673828125 85.6220703125 62.73651885986328 C 87.86350250244141 57.43720626831055 89 51.80620574951172 89 45.99993515014648 C 89 40.19366455078125 87.86350250244141 34.56264877319336 85.6220703125 29.26333618164062 C 83.45647430419922 24.14329528808594 80.35559844970703 19.54439544677734 76.40558624267578 15.59437561035156 C 72.45557403564453 11.64437866210938 67.85667419433594 8.543502807617188 62.73661422729492 6.377906799316406 C 57.43730163574219 4.136489868164062 51.8062858581543 2.999992370605469 46 2.999992370605469 M 46 -7.62939453125e-06 C 71.40509033203125 -7.62939453125e-06 92 20.59486389160156 92 45.99993515014648 C 92 71.40499114990234 71.40509033203125 91.99986267089844 46 91.99986267089844 C 20.59490203857422 91.99986267089844 0 71.40499114990234 0 45.99993515014648 C 0 20.59486389160156 20.59490203857422 -7.62939453125e-06 46 -7.62939453125e-06 Z" stroke="none" fill="#a530fe"/>
                          </g>
                        </g>
                      </g>
                    </g>
                  </g>
                </g>
              </g>
            </g>
          </g>
        </g>
      </g>
    </g>
    <g id="cuidado_1_" data-name="cuidado (1)" transform="translate(720 1554)">
      <path id="Trazado_1014315" data-name="Trazado 1014315" d="M237.756,129.327l-2.106-.816c-.514.567-1.068,1.174-1.6,1.753a3.356,3.356,0,0,1-4.941,0c-.522-.567-1.067-1.163-1.572-1.721l-2.136.828a4.395,4.395,0,0,0-2.807,4.1v1.887a.775.775,0,0,0,.775.775h16.42a.775.775,0,0,0,.775-.775v-1.93a4.394,4.394,0,0,0-2.808-4.1Zm0,0" transform="translate(-195.809 -113.048)" fill="#f25c5c"/>
      <path id="Trazado_1014316" data-name="Trazado 1014316" d="M232.819,131.341a3.356,3.356,0,0,1-3.711-.847c-.522-.568-1.066-1.163-1.572-1.721l-2.136.828a4.395,4.395,0,0,0-2.807,4.1v1.887a.775.775,0,0,0,.775.775h12.189a8.1,8.1,0,0,0-2.738-5.02Zm0,0" transform="translate(-195.809 -113.278)" fill="#e54a4a"/>
      <path id="Trazado_1014317" data-name="Trazado 1014317" d="M269.707,106.844a.53.53,0,0,1-.338-.494v-1.976a4.469,4.469,0,0,1-2.545.792,4.72,4.72,0,0,1-2.567-.725v1.908a.53.53,0,0,1-.338.494l-1.333.517c.541.6,1.136,1.249,1.7,1.866a3.356,3.356,0,0,0,4.941,0c.577-.627,1.182-1.29,1.731-1.9Zm0,0" transform="translate(-230.989 -91.815)" fill="#f0a479"/>
      <path id="Trazado_1014318" data-name="Trazado 1014318" d="M267.976,110.355a1.238,1.238,0,0,1-.429-.944V105.6a4.474,4.474,0,0,1-.723.059,4.72,4.72,0,0,1-2.567-.725v1.908a.53.53,0,0,1-.338.494l-.52.2-.813.315c1.6,1.773,2.644,3.413,4.961,2.856v0a3.334,3.334,0,0,0,.6-.2c-.056-.051-.113-.1-.171-.15Zm0,0" transform="translate(-230.989 -92.31)" fill="#e5966e"/>
      <path id="Trazado_1014319" data-name="Trazado 1014319" d="M263.938,7.578h-.054a4.572,4.572,0,0,0-4.5,4.587v2.028a.417.417,0,0,1,.447-.416,10.953,10.953,0,0,0,6.591-1.77.417.417,0,0,1,.533.065c1.555,1.671,1.546,1.607,1.546,1.825V12.166a4.572,4.572,0,0,0-4.5-4.587h-.055Zm0,0" transform="translate(-228.168 -6.666)" fill="#5e6377"/>
      <path id="Trazado_1014320" data-name="Trazado 1014320" d="M262.782,12.169a4.6,4.6,0,0,1,2.857-4.258,4.477,4.477,0,0,0-1.648-.329h-.109a4.572,4.572,0,0,0-4.5,4.587V14.2a.417.417,0,0,1,.447-.416,10.127,10.127,0,0,0,2.957-.24Zm0,0" transform="translate(-228.167 -6.67)" fill="#52586d"/>
      <path id="Trazado_1014321" data-name="Trazado 1014321" d="M266.95,43.15a.417.417,0,0,0-.533-.065,10.947,10.947,0,0,1-6.591,1.77.417.417,0,0,0-.447.416v1.623a4.559,4.559,0,0,0,9.117,0V44.976c0-.219.009-.154-1.546-1.826Zm0,0" transform="translate(-228.168 -37.841)" fill="#f7b594"/>
      <path id="Trazado_1014322" data-name="Trazado 1014322" d="M262.782,58.579V56.3a10.128,10.128,0,0,1-2.957.24.417.417,0,0,0-.447.416V58.58a4.6,4.6,0,0,0,6.274,4.178,4.464,4.464,0,0,1-2.871-4.178Zm0,0" transform="translate(-228.167 -49.526)" fill="#f0a479"/>
      <path id="Trazado_1014323" data-name="Trazado 1014323" d="M85.58,129.327l-2.106-.816c-.514.567-1.068,1.174-1.6,1.753a3.356,3.356,0,0,1-4.941,0c-.522-.567-1.067-1.163-1.572-1.721l-2.136.828c-1.692.656-2.35,2.283-2.35,4.1v1.887a.776.776,0,0,0,.775.775H87.613a.775.775,0,0,0,.775-.775v-1.93a4.395,4.395,0,0,0-2.808-4.1Zm0,0" transform="translate(-62.347 -113.048)" fill="#ffc850"/>
      <path id="Trazado_1014324" data-name="Trazado 1014324" d="M73.166,138.177V134.82a4.393,4.393,0,0,1,1.281-3.1l-1.222.473c-1.692.656-2.35,2.284-2.35,4.1v1.886a.775.775,0,0,0,.775.775h2.291A.775.775,0,0,1,73.166,138.177Zm0,0" transform="translate(-62.347 -115.869)" fill="#feb644"/>
      <path id="Trazado_1014325" data-name="Trazado 1014325" d="M114.191,106.844a.53.53,0,0,1-.338-.494v-1.976a4.47,4.47,0,0,1-2.545.792,4.72,4.72,0,0,1-2.567-.725v1.908a.53.53,0,0,1-.338.494l-1.333.517c.541.6,1.136,1.249,1.7,1.866a3.357,3.357,0,0,0,4.941,0c.576-.627,1.182-1.29,1.731-1.9Zm0,0" transform="translate(-94.186 -91.815)" fill="#f0a479"/>
      <path id="Trazado_1014326" data-name="Trazado 1014326" d="M112.031,105.6a4.474,4.474,0,0,1-.723.059,4.72,4.72,0,0,1-2.567-.725v1.908a.53.53,0,0,1-.338.494l-1.333.517c.541.6,1.136,1.249,1.7,1.866a3.353,3.353,0,0,0,3.259.99Zm0,0" transform="translate(-94.187 -92.311)" fill="#e5966e"/>
      <path id="Trazado_1014327" data-name="Trazado 1014327" d="M108.422,7.578h-.054a4.572,4.572,0,0,0-4.5,4.587v2.028a.417.417,0,0,1,.447-.416,10.953,10.953,0,0,0,6.591-1.77.417.417,0,0,1,.533.065c1.555,1.671,1.546,1.607,1.546,1.825V12.166a4.572,4.572,0,0,0-4.5-4.587h-.055Zm0,0" transform="translate(-91.365 -6.666)" fill="#5e6377"/>
      <path id="Trazado_1014328" data-name="Trazado 1014328" d="M107.266,12.169a4.6,4.6,0,0,1,2.857-4.258,4.477,4.477,0,0,0-1.648-.329h-.109a4.572,4.572,0,0,0-4.5,4.587V14.2a.417.417,0,0,1,.447-.416,10.127,10.127,0,0,0,2.957-.24Zm0,0" transform="translate(-91.365 -6.67)" fill="#52586d"/>
      <path id="Trazado_1014329" data-name="Trazado 1014329" d="M111.434,43.15a.417.417,0,0,0-.533-.065,10.947,10.947,0,0,1-6.591,1.77.417.417,0,0,0-.447.416v1.623a4.559,4.559,0,0,0,9.117,0V44.976c0-.219.009-.154-1.546-1.826Zm0,0" transform="translate(-91.365 -37.841)" fill="#f7b594"/>
      <path id="Trazado_1014330" data-name="Trazado 1014330" d="M107.266,58.579V56.3a10.128,10.128,0,0,1-2.957.24.417.417,0,0,0-.447.416V58.58a4.6,4.6,0,0,0,6.274,4.178,4.464,4.464,0,0,1-2.871-4.178Zm0,0" transform="translate(-91.365 -49.526)" fill="#f0a479"/>
      <path id="Trazado_1014331" data-name="Trazado 1014331" d="M149.6,153.713l-2.474-.958c-.6.667-1.255,1.38-1.88,2.059a3.942,3.942,0,0,1-5.8,0c-.613-.667-1.253-1.366-1.847-2.023l-2.509.973a5.163,5.163,0,0,0-3.3,4.814v2.216a.91.91,0,0,0,.91.91h19.288a.91.91,0,0,0,.91-.91v-2.267A5.163,5.163,0,0,0,149.6,153.713Zm0,0" transform="translate(-115.934 -134.373)" fill="#00aaf0"/>
      <path id="Trazado_1014332" data-name="Trazado 1014332" d="M135.019,164.11v-3.943a5.162,5.162,0,0,1,1.505-3.643l-1.435.557a5.163,5.163,0,0,0-3.3,4.814v2.216a.91.91,0,0,0,.91.91h3.227a.91.91,0,0,1-.91-.91Zm0,0" transform="translate(-115.934 -137.689)" fill="#059adb"/>
      <path id="Trazado_1014333" data-name="Trazado 1014333" d="M187.134,127.3a.622.622,0,0,1-.4-.58V124.4a5.249,5.249,0,0,1-2.989.931,5.543,5.543,0,0,1-3.015-.852v2.242a.622.622,0,0,1-.4.58l-1.566.607c.636.7,1.334,1.468,2,2.192a3.942,3.942,0,0,0,5.8,0c.677-.737,1.389-1.514,2.033-2.228Zm0,0" transform="translate(-157.258 -109.433)" fill="#f0a479"/>
      <path id="Trazado_1014334" data-name="Trazado 1014334" d="M184.6,125.845a5.274,5.274,0,0,1-.849.069,5.543,5.543,0,0,1-3.015-.852V127.3a.622.622,0,0,1-.4.58l-1.566.607c.635.7,1.334,1.468,2,2.192a3.938,3.938,0,0,0,3.828,1.163Zm0,0" transform="translate(-157.258 -110.013)" fill="#e5966e"/>
      <path id="Trazado_1014335" data-name="Trazado 1014335" d="M180.359,10.7h-.064A5.371,5.371,0,0,0,175,16.088V18.47a.489.489,0,0,1,.525-.488,12.866,12.866,0,0,0,7.743-2.08.489.489,0,0,1,.626.077c1.827,1.963,1.816,1.888,1.816,2.144V16.088a5.371,5.371,0,0,0-5.291-5.389h-.064Zm0,0" transform="translate(-153.945 -9.412)" fill="#5e6377"/>
      <path id="Trazado_1014336" data-name="Trazado 1014336" d="M179,16.088a5.4,5.4,0,0,1,3.356-5,5.254,5.254,0,0,0-1.935-.386h-.128A5.371,5.371,0,0,0,175,16.088V18.47a.489.489,0,0,1,.525-.488A11.9,11.9,0,0,0,179,17.7Zm0,0" transform="translate(-153.945 -9.412)" fill="#52586d"/>
      <path id="Trazado_1014337" data-name="Trazado 1014337" d="M183.9,52.483a.489.489,0,0,0-.626-.077,12.866,12.866,0,0,1-7.743,2.08.489.489,0,0,0-.525.488v1.907a5.356,5.356,0,0,0,10.71,0V54.628c0-.257.011-.18-1.817-2.145Zm0,0" transform="translate(-153.945 -46.031)" fill="#f7b594"/>
      <path id="Trazado_1014338" data-name="Trazado 1014338" d="M179,70.607V67.93a11.892,11.892,0,0,1-3.473.282A.489.489,0,0,0,175,68.7v1.907a5.4,5.4,0,0,0,7.37,4.908A5.244,5.244,0,0,1,179,70.607Zm0,0" transform="translate(-153.945 -59.756)" fill="#f0a479"/>
      <path id="Trazado_1014339" data-name="Trazado 1014339" d="M365.274,142.264a1.481,1.481,0,0,1,.064.8l.668-.737a1.506,1.506,0,0,0,.394-1.012v-8.344a2.544,2.544,0,0,1,.412-1.388,2.833,2.833,0,0,0-2.778-.545,2.608,2.608,0,0,0-1.67,3.364Zm0,0" transform="translate(-318.622 -115.135)" fill="#f0a479"/>
      <path id="Trazado_1014340" data-name="Trazado 1014340" d="M365.2,134.4a2.585,2.585,0,0,1,1.169-3.137,2.839,2.839,0,0,0-2.336-.227,2.608,2.608,0,0,0-1.67,3.364l2.908,7.863a1.48,1.48,0,0,1,.064.8l.668-.737a1.506,1.506,0,0,0,.394-1.012v-3.671Zm0,0" transform="translate(-318.623 -115.136)" fill="#e5966e"/>
      <path id="Trazado_1014341" data-name="Trazado 1014341" d="M260.828,150.493l6.2-8.533a8.4,8.4,0,0,0,1.669-5.026v-7.924a2.682,2.682,0,0,0-2.685-2.693,2.634,2.634,0,0,0-2.583,2.634v8.343a1.54,1.54,0,0,1-.379,1.012l-3.015,3.465a.1.1,0,0,1-.17-.094,2.9,2.9,0,0,0-.786-3.036,2.974,2.974,0,0,0-4.092.157l-8.193,8.47a5.163,5.163,0,0,0-1.452,3.59v8.226h12.412a17.086,17.086,0,0,1,3.072-8.589Zm0,0" transform="translate(-215.821 -111.116)" fill="#f7b594"/>
      <path id="Trazado_1014342" data-name="Trazado 1014342" d="M248.711,243.758v-8.226a5.163,5.163,0,0,1,1.452-3.589l8.193-8.47a2.877,2.877,0,0,1,.447-.377,2.99,2.99,0,0,0-3.818.377l-8.193,8.47a5.163,5.163,0,0,0-1.452,3.589v8.226h3.371Zm0,0" transform="translate(-215.818 -195.792)" fill="#f0a479"/>
      <path id="Trazado_1014343" data-name="Trazado 1014343" d="M48,142.264a1.48,1.48,0,0,0-.064.8l-.668-.737a1.506,1.506,0,0,1-.394-1.012v-8.344a2.545,2.545,0,0,0-.412-1.388,2.833,2.833,0,0,1,2.778-.545,2.608,2.608,0,0,1,1.67,3.364Zm0,0" transform="translate(-40.87 -115.135)" fill="#f0a479"/>
      <path id="Trazado_1014344" data-name="Trazado 1014344" d="M49.239,131.038a2.832,2.832,0,0,0-2.778.544,2.545,2.545,0,0,1,.412,1.388v8.343a1.506,1.506,0,0,0,.394,1.012l.668.737a1.48,1.48,0,0,1,.064-.8l1.176-3.179V132.97a2.526,2.526,0,0,0-.139-.829.815.815,0,0,1,.43-1.008l.008,0C49.4,131.1,49.32,131.066,49.239,131.038Zm0,0" transform="translate(-40.87 -115.136)" fill="#e5966e"/>
      <path id="Trazado_1014345" data-name="Trazado 1014345" d="M15.383,150.493l-6.2-8.533a8.4,8.4,0,0,1-1.669-5.026v-7.924a2.682,2.682,0,0,1,2.685-2.693,2.634,2.634,0,0,1,2.583,2.634v8.343a1.54,1.54,0,0,0,.379,1.012l3.015,3.465a.1.1,0,0,0,.17-.094,2.9,2.9,0,0,1,.786-3.036,2.974,2.974,0,0,1,4.092.157l8.193,8.47a5.163,5.163,0,0,1,1.452,3.59v8.226H18.455a17.086,17.086,0,0,0-3.072-8.589Zm0,0" transform="translate(-6.608 -111.116)" fill="#f7b594"/>
      <path id="Trazado_1014346" data-name="Trazado 1014346" d="M18.754,150.493l-6.2-8.533a8.4,8.4,0,0,1-1.669-5.026v-7.924a2.725,2.725,0,0,1,.963-2.072,2.623,2.623,0,0,0-1.648-.621,2.682,2.682,0,0,0-2.685,2.693v7.924a8.4,8.4,0,0,0,1.669,5.026l6.2,8.533a17.086,17.086,0,0,1,3.072,8.589h3.37a17.085,17.085,0,0,0-3.072-8.589Zm0,0" transform="translate(-6.608 -111.116)" fill="#f0a479"/>
      <path id="Trazado_1014347" data-name="Trazado 1014347" d="M95.968,431.719V439.3a1.189,1.189,0,0,1-1.19,1.189H79.713a1.189,1.189,0,0,1-1.19-1.189v-7.578Zm0,0" transform="translate(-69.075 -379.77)" fill="#00aaf0"/>
      <path id="Trazado_1014348" data-name="Trazado 1014348" d="M81.9,439.3v-7.578h-3.37V439.3a1.189,1.189,0,0,0,1.189,1.189h3.371A1.189,1.189,0,0,1,81.9,439.3Zm0,0" transform="translate(-69.078 -379.769)" fill="#059adb"/>
      <path id="Trazado_1014349" data-name="Trazado 1014349" d="M79.716,396.746H94.782a1.19,1.19,0,0,1,1.19,1.19v3.243H78.527v-3.243a1.189,1.189,0,0,1,1.189-1.19Zm0,0" transform="translate(-69.078 -349.005)" fill="#e4eaf8"/>
      <path id="Trazado_1014350" data-name="Trazado 1014350" d="M83.087,396.746H79.717a1.189,1.189,0,0,0-1.189,1.19v3.243H81.9v-3.243A1.19,1.19,0,0,1,83.087,396.746Zm0,0" transform="translate(-69.078 -349.005)" fill="#d8dce5"/>
      <path id="Trazado_1014351" data-name="Trazado 1014351" d="M240.9,431.719V439.3a1.189,1.189,0,0,1-1.189,1.189H224.643a1.189,1.189,0,0,1-1.19-1.189v-7.578Zm0,0" transform="translate(-196.565 -379.77)" fill="#00aaf0"/>
      <path id="Trazado_1014352" data-name="Trazado 1014352" d="M226.827,439.3v-7.578h-3.37V439.3a1.189,1.189,0,0,0,1.189,1.189h3.37A1.189,1.189,0,0,1,226.827,439.3Zm0,0" transform="translate(-196.568 -379.769)" fill="#059adb"/>
      <path id="Trazado_1014353" data-name="Trazado 1014353" d="M224.646,396.746h15.065a1.189,1.189,0,0,1,1.189,1.19v3.243H223.457v-3.243a1.189,1.189,0,0,1,1.189-1.19Zm0,0" transform="translate(-196.568 -349.005)" fill="#e4eaf8"/>
      <path id="Trazado_1014354" data-name="Trazado 1014354" d="M228.017,396.746h-3.37a1.189,1.189,0,0,0-1.189,1.19v3.243h3.37v-3.243A1.189,1.189,0,0,1,228.017,396.746Zm0,0" transform="translate(-196.568 -349.005)" fill="#d8dce5"/>
      <path id="Trazado_1014355" data-name="Trazado 1014355" d="M9.922,15.744a3.533,3.533,0,0,0-3.983-.511A3.535,3.535,0,0,0,0,17.825v7.984a9.355,9.355,0,0,0,1.842,5.556l6.2,8.533a15.41,15.41,0,0,1,2.8,6.931h-.2a2.094,2.094,0,0,0-2.092,2.092v10.6a2.094,2.094,0,0,0,2.092,2.092H25.7a2.078,2.078,0,0,0,1.189-.373,2.081,2.081,0,0,0,1.19.373H43.147a2.094,2.094,0,0,0,2.092-2.092v-10.6a2.094,2.094,0,0,0-2.092-2.092h-.2a15.409,15.409,0,0,1,2.8-6.931l6.2-8.524a9.366,9.366,0,0,0,1.848-5.566v-.641a.9.9,0,1,0-1.805,0v.641a7.556,7.556,0,0,1-1.5,4.5l-6.2,8.533a17.208,17.208,0,0,0-3.158,7.993H30.428v-7.1a4.24,4.24,0,0,1,1.2-2.962l8.235-8.513a2,2,0,0,1,3.16,2.388l-5.04,5.525a.9.9,0,1,0,1.334,1.216l5.106-5.6.007-.008.007-.008,3.481-4a2.442,2.442,0,0,0,.6-1.6V17.825h0a1.732,1.732,0,0,1,3.464,0v3.131a.9.9,0,1,0,1.8,0V17.825a3.54,3.54,0,0,0-5.939-2.593,3.533,3.533,0,0,0-4.341.885,11.886,11.886,0,0,0-3.228-1.462l-1.014-.392V13.185A5.383,5.383,0,0,0,41.209,9.04V5.488A5.449,5.449,0,0,0,31.131,2.574a6.22,6.22,0,0,0-9.49,0A5.455,5.455,0,0,0,11.562,5.488V9.04a5.31,5.31,0,0,0,2.056,4.226v1a35.771,35.771,0,0,0-3.7,1.481Zm1.25,1.4,1.426-.553c.387.426.819.9,1.289,1.41a4.268,4.268,0,0,0,3.133,1.375c.1,0,.2-.005.3-.012a6.048,6.048,0,0,0-2.043,2.792H9.971l.923-2.6a3.55,3.55,0,0,0,.024-2.3q.125-.061.254-.11Zm4.251-2.95a5.7,5.7,0,0,0,3.3-.019,2.59,2.59,0,0,0,.038.664,1.442,1.442,0,0,0,.9,1.022c-.869.951-1.386,1.71-2.646,1.71a2.426,2.426,0,0,1-1.8-.792q-.429-.466-.813-.887a1.53,1.53,0,0,0,1.02-1.7ZM29.5,7.424c.753.808,1.144,1.216,1.341,1.441v1.977a4.453,4.453,0,0,1-8.9,0V9.484A13.854,13.854,0,0,0,29.5,7.424Zm7.959,6.754v.341a1.439,1.439,0,0,0,.941,1.345c-.868.95-1.386,1.71-2.646,1.71s-1.773-.755-2.618-1.679a1.453,1.453,0,0,0,1.02-1.376V14.2a5.675,5.675,0,0,0,3.3-.019Zm-7.1,2.911v-.118l.974-.377c.371.408.785.861,1.234,1.35Zm-6-.4a6.581,6.581,0,0,0,4.2-.033c0,.52-.149,1.608.974,2.043l.246.1c-1.138,1.248-1.8,2.233-3.383,2.233s-2.244-.984-3.35-2.2c1.435-.557,1.314-1.2,1.314-2.142ZM8.073,27.556a.6.6,0,0,1,.03-.135L9.33,23.964h5.6c-.006.156,0,.02,0,2.448a1.82,1.82,0,0,0,.034.345A3.8,3.8,0,0,0,8.87,28.472Zm13.4-10.994,1.072.416v.111l-2.409.934c.153-.164.825-.9,1.337-1.461Zm10.875-2.3-1.033.4a6.181,6.181,0,0,0,.881-1.516c.051.042.1.086.152.127ZM20.582,13.141a6.3,6.3,0,0,0,.832,1.464l-.882-.342V13.184l.05-.043ZM9.193,18.955l-1.347,3.8h0l-.771,2.175v-7.1a3.642,3.642,0,0,0-.161-1.056,1.734,1.734,0,0,1,2.28,2.186ZM9.5,38.837,3.295,30.295a7.55,7.55,0,0,1-1.49-4.486V17.825a1.732,1.732,0,0,1,3.464,0v8.344a2.446,2.446,0,0,0,.6,1.6c5.921,6.805,1.583,2.024,8.6,9.617A.9.9,0,1,0,15.8,36.164c-4.684-5.065-3.7-3.977-5.04-5.522a2,2,0,0,1,3.164-2.387l8.234,8.513a4.239,4.239,0,0,1,1.2,2.962v7.1H12.663A17.2,17.2,0,0,0,9.5,38.837Zm.847,10.084a.287.287,0,0,1,.287-.287H25.7a.287.287,0,0,1,.287.287v2.341H10.35ZM25.7,59.8H10.637a.287.287,0,0,1-.287-.287V53.068H25.989v6.45a.287.287,0,0,1-.287.287Zm17.731-.287a.287.287,0,0,1-.287.287H28.082a.287.287,0,0,1-.287-.287V53.068H43.434Zm-.287-10.883a.287.287,0,0,1,.287.287v2.341H27.795V48.922a.287.287,0,0,1,.287-.287Zm.7-21.806A3.786,3.786,0,0,0,38.563,27l-8.234,8.513a6.035,6.035,0,0,0-1.706,4.217v7.1h-.542a2.08,2.08,0,0,0-1.189.373A2.079,2.079,0,0,0,25.7,46.83h-.542v-7.1a6.035,6.035,0,0,0-1.706-4.217l-7.088-7.328a1.822,1.822,0,0,0,.375.039h7.538a.9.9,0,0,0,0-1.8l-7.546-.008V24.2a4.291,4.291,0,0,1,2.44-3.852c.2-.093.11-.055,2.058-.81.474.523,1.006,1.1,1.587,1.736a4.845,4.845,0,0,0,7.133,0c.593-.645,1.136-1.24,1.621-1.774a16.988,16.988,0,0,1,2.341.964,4.294,4.294,0,0,1,2.123,3.684l-.008,2.275H28.491a.9.9,0,1,0,0,1.8h7.538a1.815,1.815,0,0,0,1.813-1.813c0-2.508,0-2.287,0-2.448h6.116a1.659,1.659,0,0,0,.473-.069c1.345,3.79,1.267,3.544,1.282,3.661l-.8.916a3.792,3.792,0,0,0-1.063-1.644Zm3.021-10.059a3.683,3.683,0,0,0-.161,1.056v7.1l-2.118-5.971a1.735,1.735,0,0,1,2.28-2.186Zm-4.141,1.05a3.566,3.566,0,0,0,.16,1.739l.923,2.6h-6.3a6.036,6.036,0,0,0-1.988-2.786A4.264,4.264,0,0,0,38.884,18c.483-.525.924-1.008,1.318-1.441a6.641,6.641,0,0,1,2.528,1.257ZM37.846,12a3.727,3.727,0,0,1-5.2-1.055c0-.079,0,.129,0-2.921A12.058,12.058,0,0,0,38.375,6.3c.532.569.848.9,1.029,1.1V9.039A3.585,3.585,0,0,1,37.846,12Zm-5.6-7.539a3.646,3.646,0,0,1,7.071.22,1.322,1.322,0,0,0-1.591-.1,10.175,10.175,0,0,1-5.1,1.631,6.361,6.361,0,0,0-.384-1.756ZM30.812,6.187c-1.722-1.856-1.954.431-6.31,1.285a11.011,11.011,0,0,1-2.568.2V6.668A4.544,4.544,0,0,1,22.294,4.9,4.446,4.446,0,0,1,30.812,6.187ZM17.067,1.805a3.674,3.674,0,0,1,3.46,2.652l-.049.137c-1.5-1.044-2.406,1.743-7.111,1.624v-.73a3.671,3.671,0,0,1,3.7-3.682Zm-3.7,6.218A11.913,11.913,0,0,0,19.645,6.3l.483.516c0,4.3,0,4.039,0,4.119a3.672,3.672,0,0,1-6.762-1.9Zm0,0" transform="translate(0 0)"/>
    </g>
  </g>
</svg>
