<svg xmlns="http://www.w3.org/2000/svg" xmlns:xlink="http://www.w3.org/1999/xlink" width="110" height="110" viewBox="0 0 110 110">
  <defs>
    <filter id="Trazado_982547" x="0" y="0" width="110" height="110" filterUnits="userSpaceOnUse">
      <feOffset dy="3" input="SourceAlpha"/>
      <feGaussianBlur stdDeviation="3" result="blur"/>
      <feFlood flood-opacity="0.161"/>
      <feComposite operator="in" in2="blur"/>
      <feComposite in="SourceGraphic"/>
    </filter>
  </defs>
  <g id="Grupo_1165184" data-name="Grupo 1165184" transform="translate(1015 -1502)">
    <g id="Grupo_1163522" data-name="Grupo 1163522" transform="translate(-1393 -827)">
      <g id="Grupo_1158890" data-name="Grupo 1158890" transform="translate(-423 -1476)">
        <g id="Grupo_1157405" data-name="Grupo 1157405" transform="translate(1 3016)">
          <g id="Grupo_1155792" data-name="Grupo 1155792" transform="translate(-1 -3894.666)">
            <g id="Grupo_1154703" data-name="Grupo 1154703" transform="translate(0 1465.666)">
              <g id="Grupo_1150789" data-name="Grupo 1150789" transform="translate(3 2320)">
                <g id="Grupo_1154212" data-name="Grupo 1154212" transform="translate(-236 -5809)">
                  <g id="Grupo_1152583" data-name="Grupo 1152583" transform="translate(1043 6713)">
                    <g id="Grupo_1146973" data-name="Grupo 1146973" transform="translate(0 0)">
                      <g id="Grupo_1146954" data-name="Grupo 1146954">
                        <g transform="matrix(1, 0, 0, 1, -9, -6)" filter="url(#Trazado_982547)">
                          <g id="Trazado_982547-2" data-name="Trazado 982547" transform="translate(9 6)" fill="#f5e9fe">
                            <path d="M 46 90.49987030029297 C 39.99187850952148 90.49987030029297 34.16426849365234 89.32350921630859 28.67905426025391 87.00345611572266 C 23.38019943237305 84.76224517822266 18.62104034423828 81.55341339111328 14.53374671936035 77.46613311767578 C 10.44646644592285 73.37885284423828 7.237639904022217 68.61969757080078 4.996413230895996 63.32085418701172 C 2.676359891891479 57.83565521240234 1.5 52.008056640625 1.5 45.99993515014648 C 1.5 39.99181365966797 2.676359891891479 34.16421508789062 4.996413230895996 28.67901420593262 C 7.237639904022217 23.38017463684082 10.44646644592285 18.62101554870605 14.53374671936035 14.53373527526855 C 18.62104034423828 10.44645500183105 23.38019943237305 7.23762845993042 28.67905426025391 4.996415138244629 C 34.16426849365234 2.676361799240112 39.99187850952148 1.500001788139343 46 1.500001788139343 C 52.00812149047852 1.500001788139343 57.83573150634766 2.676361799240112 63.32094573974609 4.996415138244629 C 68.61979675292969 7.23762845993042 73.37895965576172 10.44645500183105 77.46625518798828 14.53373527526855 C 81.55353546142578 18.62101554870605 84.76235961914062 23.38017463684082 87.00358581542969 28.67901420593262 C 89.32363891601562 34.16421508789062 90.5 39.99181365966797 90.5 45.99993515014648 C 90.5 52.008056640625 89.32363891601562 57.83565521240234 87.00358581542969 63.32085418701172 C 84.76235961914062 68.61969757080078 81.55353546142578 73.37885284423828 77.46625518798828 77.46613311767578 C 73.37895965576172 81.55341339111328 68.61979675292969 84.76224517822266 63.32094573974609 87.00345611572266 C 57.83573150634766 89.32350921630859 52.00812149047852 90.49987030029297 46 90.49987030029297 Z" stroke="none"/>
                            <path d="M 46 2.999992370605469 C 40.1937141418457 2.999992370605469 34.56269836425781 4.136489868164062 29.26337051391602 6.377906799316406 C 24.14332580566406 8.543502807617188 19.54441070556641 11.64437866210938 15.59439849853516 15.59437561035156 C 11.64440155029297 19.54439544677734 8.54351806640625 24.14329528808594 6.377914428710938 29.26333618164062 C 4.136497497558594 34.56264877319336 3 40.19366455078125 3 45.99993515014648 C 3 51.80620574951172 4.136497497558594 57.43720626831055 6.377914428710938 62.73651885986328 C 8.54351806640625 67.8565673828125 11.64440155029297 72.45545959472656 15.59439849853516 76.40547943115234 C 19.54441070556641 80.35547637939453 24.14332580566406 83.45635223388672 29.26337051391602 85.6219482421875 C 34.56269836425781 87.86336517333984 40.1937141418457 88.99986267089844 46 88.99986267089844 C 51.8062858581543 88.99986267089844 57.43730163574219 87.86336517333984 62.73661422729492 85.6219482421875 C 67.85667419433594 83.45635223388672 72.45557403564453 80.35547637939453 76.40558624267578 76.40547943115234 C 80.35559844970703 72.45545959472656 83.45647430419922 67.8565673828125 85.6220703125 62.73651885986328 C 87.86350250244141 57.43720626831055 89 51.80620574951172 89 45.99993515014648 C 89 40.19366455078125 87.86350250244141 34.56264877319336 85.6220703125 29.26333618164062 C 83.45647430419922 24.14329528808594 80.35559844970703 19.54439544677734 76.40558624267578 15.59437561035156 C 72.45557403564453 11.64437866210938 67.85667419433594 8.543502807617188 62.73661422729492 6.377906799316406 C 57.43730163574219 4.136489868164062 51.8062858581543 2.999992370605469 46 2.999992370605469 M 46 -7.62939453125e-06 C 71.40509033203125 -7.62939453125e-06 92 20.59486389160156 92 45.99993515014648 C 92 71.40499114990234 71.40509033203125 91.99986267089844 46 91.99986267089844 C 20.59490203857422 91.99986267089844 0 71.40499114990234 0 45.99993515014648 C 0 20.59486389160156 20.59490203857422 -7.62939453125e-06 46 -7.62939453125e-06 Z" stroke="none" fill="#a530fe"/>
                          </g>
                        </g>
                      </g>
                    </g>
                  </g>
                </g>
              </g>
            </g>
          </g>
        </g>
      </g>
    </g>
    <g id="ambientalismo_2_" data-name="ambientalismo (2)" transform="translate(-1021.408 1520.003)">
      <g id="Grupo_1165183" data-name="Grupo 1165183" transform="translate(34.344 3.34)">
        <g id="Grupo_1165176" data-name="Grupo 1165176" transform="translate(1.028 1.763)">
          <g id="Grupo_1165175" data-name="Grupo 1165175">
            <g id="Grupo_1165174" data-name="Grupo 1165174">
              <g id="Grupo_1165173" data-name="Grupo 1165173">
                <g id="Grupo_1165172" data-name="Grupo 1165172">
                  <g id="Grupo_1165171" data-name="Grupo 1165171">
                    <g id="Grupo_1165170" data-name="Grupo 1165170">
                      <g id="Grupo_1165167" data-name="Grupo 1165167" transform="translate(30.377 36.317)">
                        <path id="Trazado_1014356" data-name="Trazado 1014356" d="M291.653,322.985q2.839,1.365,5.681,2.725l6.8-7.595a2.521,2.521,0,0,0-3.611-3.513Z" transform="translate(-291.653 -313.913)" fill="#f89f8e"/>
                      </g>
                      <g id="Grupo_1165168" data-name="Grupo 1165168" transform="translate(34.507 38.808)">
                        <path id="Trazado_1014357" data-name="Trazado 1014357" d="M322.951,341.36q2.772,1.5,5.547,2.987l7.144-7.269A2.521,2.521,0,0,0,332.2,333.4Z" transform="translate(-322.951 -332.79)" fill="#fdb0a0"/>
                      </g>
                      <g id="Grupo_1165169" data-name="Grupo 1165169">
                        <circle id="Elipse_12185" data-name="Elipse 12185" cx="22.266" cy="22.266" r="22.266" transform="translate(1.408 0.001)" fill="#64b9fc"/>
                        <path id="Trazado_1014358" data-name="Trazado 1014358" d="M248.551,60.96a22.266,22.266,0,0,1-22.265,22.266c-.747,0-1.487-.036-2.215-.109a22.269,22.269,0,0,0,0-44.315c.728-.073,1.468-.109,2.215-.109A22.266,22.266,0,0,1,248.551,60.96Z" transform="translate(-202.612 -38.694)" fill="#31a7fb"/>
                        <path id="Trazado_1014359" data-name="Trazado 1014359" d="M175.953,61.846a22.159,22.159,0,0,1-3.98,12.707l-6.512-2.169a1.319,1.319,0,0,0-1.527.538l-1.4,2.175a1.32,1.32,0,0,1-.552.482L158.2,77.344a1.32,1.32,0,0,1-1.317-.116l-4.663-3.278a1.32,1.32,0,0,1-.45-1.608l.7-1.591a1.319,1.319,0,0,1,.888-.751l5.074-1.274a1.32,1.32,0,0,0,.853-.678l1.716-3.349a1.319,1.319,0,0,0-.049-1.29L159.1,60.389a1.32,1.32,0,0,0-1.126-.631H156.51a1.32,1.32,0,0,0-1.11.607l-2.558,3.984a1.32,1.32,0,0,1-1.493.55l-2.068-.627a1.32,1.32,0,0,0-1.324.338L146.791,65.8a1.32,1.32,0,0,1-1.67.176l-2.58-1.707a1.32,1.32,0,0,1-.493-.6l-1.513-3.7a1.32,1.32,0,0,1,.088-1.175l2.32-3.889a1.32,1.32,0,0,1,1.546-.577l3.922,1.293a1.32,1.32,0,0,0,1.017-.08l6.166-3.176a1.32,1.32,0,0,0,.712-1.263l-.187-2.743a1.32,1.32,0,0,0-.62-1.031l-1.341-.833a1.32,1.32,0,0,1-.49-1.7l2.468-5.07A22.268,22.268,0,0,1,175.953,61.846Z" transform="translate(-130.014 -39.58)" fill="#99d53b"/>
                        <path id="Trazado_1014360" data-name="Trazado 1014360" d="M276.6,61.845a22.159,22.159,0,0,1-3.98,12.707l-3.643-1.214a22.277,22.277,0,0,0-12.593-32.8l.4-.825A22.269,22.269,0,0,1,276.6,61.845Z" transform="translate(-230.662 -39.579)" fill="#8dc637"/>
                        <path id="Trazado_1014361" data-name="Trazado 1014361" d="M362.1,154.2a22.238,22.238,0,0,1-1.284,7.469c-2.294-.6-6.625-2.907-5.843-8.308a8.7,8.7,0,0,1,5.386-7.2.662.662,0,0,1,.223-.049A22.194,22.194,0,0,1,362.1,154.2Z" transform="translate(-316.159 -131.932)" fill="#8dc637"/>
                        <path id="Trazado_1014362" data-name="Trazado 1014362" d="M98.57,275.028a2.86,2.86,0,0,0-2.876.724c-.667.629-1.33,1.507-2.2,2.212a22.323,22.323,0,0,1-6.367-8.188,6.935,6.935,0,0,1,5.027-1.018,8.7,8.7,0,0,1,7.2,5.387A.659.659,0,0,1,98.57,275.028Z" transform="translate(-83.735 -238.319)" fill="#31a7fb"/>
                        <path id="Trazado_1014363" data-name="Trazado 1014363" d="M106.676,60.7a8.71,8.71,0,0,1-8.394-1.931,22.339,22.339,0,0,1,10.824-8.875q.505.061,1.039.139a2.35,2.35,0,0,1,.536.143,2.3,2.3,0,0,1,1.422,1.762C112.478,54.2,112.12,59.325,106.676,60.7Z" transform="translate(-93.422 -48.413)" fill="#31a7fb"/>
                        <path id="Trazado_1014364" data-name="Trazado 1014364" d="M115.332,345.583a2.521,2.521,0,0,0-3.108-.888l-8.565,3.8a3.36,3.36,0,0,0-3.321-2.855H93.092a13.221,13.221,0,0,1-4.2-.684l-6.114-2.047a5.476,5.476,0,0,0-3.268-.065L75.542,344a5.475,5.475,0,0,0-3.328,2.732,11.183,11.183,0,0,1-3.844,4.229l-6.922,4.482,8.544,8.544,8.917-6.817,17.2,1.156a5.2,5.2,0,0,0,2.843-.626l15.506-8.486A2.521,2.521,0,0,0,115.332,345.583Z" transform="translate(-61.448 -302.519)" fill="#ffcec0"/>
                        <path id="Trazado_1014365" data-name="Trazado 1014365" d="M152.942,361.617,137.436,370.1a5.2,5.2,0,0,1-2.843.627l-17.2-1.157-8.917,6.817-2.694-2.694,9.31-7.116a.928.928,0,0,1,.625-.188l16.851,1.133a5.2,5.2,0,0,0,2.844-.626l15.505-8.486a2.509,2.509,0,0,0,1.207-1.5,2.521,2.521,0,0,1,.817,4.7Z" transform="translate(-99.933 -314.925)" fill="#fdb0a0"/>
                      </g>
                    </g>
                  </g>
                </g>
              </g>
            </g>
          </g>
        </g>
        <g id="Grupo_1165178" data-name="Grupo 1165178" transform="translate(0 29.429)">
          <g id="Grupo_1165177" data-name="Grupo 1165177">
            <path id="Trazado_1014366" data-name="Trazado 1014366" d="M54.357,256.652a2.3,2.3,0,0,1-.644-2.171c.516-2.233,2.8-6.84,8.356-6.035a8.7,8.7,0,0,1,7.2,5.386.658.658,0,0,1-.784.884,2.861,2.861,0,0,0-2.877.724c-1.923,1.811-3.806,5.7-10.814,1.549A2.362,2.362,0,0,1,54.357,256.652Z" transform="translate(-53.654 -248.353)" fill="#99d53b"/>
            <path id="Trazado_1014367" data-name="Trazado 1014367" d="M68.492,274.122a2.862,2.862,0,0,0-2.877.723c-1.922,1.812-3.8,5.7-10.813,1.549a2.316,2.316,0,0,1-1.129-2.257c6.649,3.733,8.492-.028,10.375-1.8a2.859,2.859,0,0,1,2.877-.723.659.659,0,0,0,.784-.884l-.008-.019a8.77,8.77,0,0,1,1.575,2.529A.658.658,0,0,1,68.492,274.122Z" transform="translate(-53.658 -267.759)" fill="#8dc637"/>
          </g>
        </g>
        <g id="Grupo_1165180" data-name="Grupo 1165180" transform="translate(4.684)">
          <g id="Grupo_1165179" data-name="Grupo 1165179">
            <path id="Trazado_1014368" data-name="Trazado 1014368" d="M102.057,25.67a2.305,2.305,0,0,1,1.422,1.762c.373,2.261.016,7.39-5.429,8.763a8.7,8.7,0,0,1-8.713-2.237.658.658,0,0,1,.389-1.116,2.861,2.861,0,0,0,2.385-1.764c1.088-2.407,1.349-6.719,9.409-5.55A2.349,2.349,0,0,1,102.057,25.67Z" transform="translate(-89.148 -25.33)" fill="#a3e440"/>
            <path id="Trazado_1014369" data-name="Trazado 1014369" d="M107.222,36.524a8.78,8.78,0,0,1-7.508-1.215,9.6,9.6,0,0,0,4.509-.124c5.444-1.372,5.8-6.5,5.428-8.763a2.317,2.317,0,0,0-.243-.712c.4.033.832.08,1.285.147a2.436,2.436,0,0,1,.536.143,2.3,2.3,0,0,1,1.421,1.763C113.024,30.023,112.667,35.152,107.222,36.524Z" transform="translate(-98.32 -25.66)" fill="#8dc637"/>
          </g>
        </g>
        <g id="Grupo_1165182" data-name="Grupo 1165182" transform="translate(41.726 13.383)">
          <g id="Grupo_1165181" data-name="Grupo 1165181">
            <path id="Trazado_1014370" data-name="Trazado 1014370" d="M378.169,141.72a2.3,2.3,0,0,1-2.171.644c-2.233-.516-6.84-2.8-6.035-8.356a8.7,8.7,0,0,1,5.386-7.2.658.658,0,0,1,.884.785,2.861,2.861,0,0,0,.724,2.877c1.811,1.923,5.7,3.806,1.549,10.814A2.361,2.361,0,0,1,378.169,141.72Z" transform="translate(-369.87 -126.754)" fill="#a3e440"/>
            <path id="Trazado_1014371" data-name="Trazado 1014371" d="M395.64,127.589a2.862,2.862,0,0,0,.723,2.877c1.812,1.922,5.7,3.8,1.549,10.813a2.316,2.316,0,0,1-2.257,1.129c3.733-6.649-.028-8.492-1.8-10.375a2.858,2.858,0,0,1-.723-2.877.659.659,0,0,0-.884-.784l-.019.008a8.769,8.769,0,0,1,2.529-1.575A.658.658,0,0,1,395.64,127.589Z" transform="translate(-389.277 -126.754)" fill="#99d53b"/>
          </g>
        </g>
      </g>
      <path id="Trazado_1014372" data-name="Trazado 1014372" d="M90.075,47.612a3.509,3.509,0,0,0-4.327-1.237l-1.521.675a3.507,3.507,0,0,0-4.475-3.975,3.5,3.5,0,0,0-1.324-1.962A3.557,3.557,0,0,0,78,40.844a23.27,23.27,0,0,0,3.566-7.655c.14.04.278.077.411.108a3.239,3.239,0,0,0,.729.083,3.3,3.3,0,0,0,.669-.069,16.039,16.039,0,0,0,2.262,1.846.99.99,0,0,0,1.11-1.639,14.138,14.138,0,0,1-1.577-1.238,3.373,3.373,0,0,0,.388-.529c4-6.755,1.045-9.466-.912-11.26-.283-.259-.549-.5-.768-.736a1.883,1.883,0,0,1-.491-1.929,1.648,1.648,0,0,0-2.211-1.97,9.946,9.946,0,0,0-1.5.771,23.306,23.306,0,0,0-2.968-4.388.99.99,0,0,0-1.5,1.288,21.312,21.312,0,0,1,2.882,4.341,10.051,10.051,0,0,0-2.9,5.967,9.794,9.794,0,0,0-.1,1.288.99.99,0,0,0,.978,1h.012a.99.99,0,0,0,.989-.978,7.824,7.824,0,0,1,.082-1.027,7.7,7.7,0,0,1,4.206-6.169,3.862,3.862,0,0,0,1.088,3.163c.269.285.561.554.871.838,1.833,1.681,3.729,3.419.547,8.792-.018.03-.038.058-.058.086a12.759,12.759,0,0,1-2.764-7.746.99.99,0,1,0-1.979.04A14.858,14.858,0,0,0,81.532,31.1,7.517,7.517,0,0,1,78.2,28.726a.99.99,0,1,0-1.575,1.2,9.156,9.156,0,0,0,3.086,2.523A21.255,21.255,0,0,1,76.926,38.9l-5.794-1.93a2.307,2.307,0,0,0-2.672.941l-1.4,2.175a.33.33,0,0,1-.138.12L63.139,41.97a.329.329,0,0,1-.329-.029l-4.664-3.278a.331.331,0,0,1-.113-.4l.7-1.591a.332.332,0,0,1,.222-.188l5.074-1.274a2.309,2.309,0,0,0,1.493-1.187l1.716-3.349a2.322,2.322,0,0,0-.085-2.257L65.3,25.4a2.323,2.323,0,0,0-1.97-1.1H61.868a2.3,2.3,0,0,0-1.943,1.062l-2.558,3.984a.331.331,0,0,1-.373.137l-2.068-.627a2.3,2.3,0,0,0-2.318.592l-1.164,1.186a.331.331,0,0,1-.418.044l-2.58-1.707a.33.33,0,0,1-.124-.151l-1.513-3.7a.332.332,0,0,1,.022-.294l2.32-3.889a.328.328,0,0,1,.387-.144l3.922,1.293a2.323,2.323,0,0,0,1.78-.14l6.166-3.176a2.307,2.307,0,0,0,1.246-2.21L62.467,13.8A2.315,2.315,0,0,0,61.382,12l-1.341-.833a.329.329,0,0,1-.122-.425l2.159-4.435a21.021,21.021,0,0,1,10.087,4.313.99.99,0,0,0,1.222-1.557A23.022,23.022,0,0,0,59.046,4.114a23.4,23.4,0,0,0-4.891.516,3.3,3.3,0,0,0-.34-.646,16.018,16.018,0,0,0,.846-2.8.99.99,0,1,0-1.938-.4,14.13,14.13,0,0,1-.544,1.929,3.359,3.359,0,0,0-.637-.158c-7.77-1.128-9.151,2.638-10.065,5.13-.132.36-.257.7-.388.991a1.883,1.883,0,0,1-1.6,1.189,1.648,1.648,0,0,0-.98,2.794,9.928,9.928,0,0,0,1.546,1.277,23.023,23.023,0,0,0-4.268,13.431,23.3,23.3,0,0,0,.816,6.123,9.819,9.819,0,0,0-3.168,5.182,3.269,3.269,0,0,0-.013,1.4,16.03,16.03,0,0,0-1.847,2.263.99.99,0,1,0,1.639,1.11,14.151,14.151,0,0,1,1.238-1.577,3.357,3.357,0,0,0,.529.388,11.843,11.843,0,0,0,5.905,1.988,5.829,5.829,0,0,0,1.856-.293,23.329,23.329,0,0,0,3.912,3.1,6.456,6.456,0,0,0-1.4,1.807,10.213,10.213,0,0,1-3.5,3.855l-6.922,4.483a.99.99,0,1,0,1.076,1.661l6.922-4.483a12.193,12.193,0,0,0,4.184-4.6,4.506,4.506,0,0,1,2.726-2.238l3.971-1.156a4.463,4.463,0,0,1,2.677.053l6.114,2.047a14.185,14.185,0,0,0,4.511.735h7.246a2.37,2.37,0,0,1,0,4.739h-8.73a19.927,19.927,0,0,0-4.652.551.99.99,0,1,0,.462,1.924,17.956,17.956,0,0,1,4.19-.5h8.73a4.353,4.353,0,0,0,4.346-4.225l7.942-3.522a1.531,1.531,0,0,1,1.888.539,1.531,1.531,0,0,1-.532,2.2L72.4,59.414a4.191,4.191,0,0,1-2.3.507L52.9,58.765a.99.99,0,0,0-.667.2l-8.917,6.817a.99.99,0,1,0,1.2,1.572l8.621-6.59L69.966,61.9a6.186,6.186,0,0,0,3.385-.746l15.506-8.486a3.511,3.511,0,0,0,1.219-5.053Zm-8.339-2.37a1.531,1.531,0,0,1,.128,2.264l-1.012,1.03-.015.017-2.643,1.172a4.378,4.378,0,0,0-1.538-1.771l3.116-2.682a1.531,1.531,0,0,1,1.963-.029Zm-4.481-2.535a1.526,1.526,0,0,1,.574,1.626l-3.375,2.9c-.063,0-.127,0-.191,0H71.142a23.41,23.41,0,0,0,5.477-4.63c.041-.047.079-.095.119-.142A1.521,1.521,0,0,1,77.255,42.707ZM42.893,9.494c.162-.357.3-.73.443-1.125.856-2.335,1.742-4.75,7.922-3.853.035.005.068.013.1.021a12.76,12.76,0,0,1-6.11,5.5.99.99,0,1,0,.791,1.814,14.858,14.858,0,0,0,6.429-5.325,7.971,7.971,0,0,1-.557,3.244,5.829,5.829,0,0,1-4.224,3.469,7.7,7.7,0,0,1-7.306-1.54A3.862,3.862,0,0,0,42.893,9.494ZM57.019,44.553a6.436,6.436,0,0,0-3.859-.077L49.19,45.632a6.417,6.417,0,0,0-.661.234,21.327,21.327,0,0,1-3.959-2.907,13.411,13.411,0,0,0,1.674-1.614c.259-.283.5-.549.736-.768a1.884,1.884,0,0,1,1.929-.492,1.648,1.648,0,0,0,1.97-2.21,9.435,9.435,0,0,0-4.807-5.068.99.99,0,0,0-.836,1.794,7.428,7.428,0,0,1,3.548,3.447,3.857,3.857,0,0,0-3.162,1.088c-.285.269-.554.561-.838.871-1.681,1.833-3.419,3.729-8.793.546-.03-.018-.057-.038-.086-.057a12.761,12.761,0,0,1,7.746-2.764.99.99,0,0,0-.02-1.979h-.021a14.859,14.859,0,0,0-7.975,2.478,6.342,6.342,0,0,1,5.74-4.47.99.99,0,0,0-.018-1.979H41.34a7.734,7.734,0,0,0-2.967.628,21.351,21.351,0,0,1-.6-5.039,21.065,21.065,0,0,1,4.058-12.5,9.451,9.451,0,0,0,3.515.661,11.554,11.554,0,0,0,2.829-.366,7.812,7.812,0,0,0,5.567-4.627,9.818,9.818,0,0,0,.71-3.944,21.411,21.411,0,0,1,4.6-.5q.464,0,.924.02l-1.83,3.761A2.3,2.3,0,0,0,59,12.846l1.341.833a.331.331,0,0,1,.155.258l.187,2.744A.33.33,0,0,1,60.5,17l-6.166,3.176a.332.332,0,0,1-.254.02L50.158,18.9a2.3,2.3,0,0,0-2.706,1.01L45.132,23.8a2.321,2.321,0,0,0-.155,2.056l1.513,3.7a2.3,2.3,0,0,0,.864,1.053l2.58,1.707a2.313,2.313,0,0,0,2.922-.308l1.164-1.186a.328.328,0,0,1,.331-.085l2.068.627a2.319,2.319,0,0,0,2.613-.962l2.558-3.984a.328.328,0,0,1,.278-.152h1.465a.332.332,0,0,1,.281.158l1.846,3.02a.332.332,0,0,1,.012.322l-1.716,3.349a.33.33,0,0,1-.214.17l-5.074,1.274a2.325,2.325,0,0,0-1.554,1.315l-.7,1.591a2.316,2.316,0,0,0,.788,2.814l4.664,3.278a2.314,2.314,0,0,0,2.3.2L67.76,42a2.306,2.306,0,0,0,.965-.843l1.4-2.174a.33.33,0,0,1,.382-.134l5.213,1.736c-.194.245-.391.486-.6.722A21.382,21.382,0,0,1,66.7,47.226a12.2,12.2,0,0,1-3.568-.626Z" transform="translate(0 0)"/>
    </g>
  </g>
</svg>
