<svg xmlns="http://www.w3.org/2000/svg" xmlns:xlink="http://www.w3.org/1999/xlink" width="110" height="110" viewBox="0 0 110 110">
  <defs>
    <filter id="Trazado_982547" x="0" y="0" width="110" height="110" filterUnits="userSpaceOnUse">
      <feOffset dy="3" input="SourceAlpha"/>
      <feGaussianBlur stdDeviation="3" result="blur"/>
      <feFlood flood-opacity="0.161"/>
      <feComposite operator="in" in2="blur"/>
      <feComposite in="SourceGraphic"/>
    </filter>
  </defs>
  <g id="Grupo_1165194" data-name="Grupo 1165194" transform="translate(700 -1503)">
    <g id="Grupo_1163523" data-name="Grupo 1163523" transform="translate(-1393 -827)">
      <g id="Grupo_1158891" data-name="Grupo 1158891" transform="translate(-423 -1476)">
        <g id="Grupo_1157406" data-name="Grupo 1157406" transform="translate(1 3016)">
          <g id="Grupo_1155793" data-name="Grupo 1155793" transform="translate(-0.999 -3894)">
            <g id="Grupo_1154704" data-name="Grupo 1154704" transform="translate(0 1466)">
              <g id="Grupo_1150790" data-name="Grupo 1150790" transform="translate(3 2320)">
                <g id="Grupo_1154214" data-name="Grupo 1154214" transform="translate(79 -5809)">
                  <g id="Grupo_1152583" data-name="Grupo 1152583" transform="translate(1043 6713)">
                    <g id="Grupo_1146973" data-name="Grupo 1146973" transform="translate(0 0)">
                      <g id="Grupo_1146954" data-name="Grupo 1146954">
                        <g transform="matrix(1, 0, 0, 1, -9, -6)" filter="url(#Trazado_982547)">
                          <g id="Trazado_982547-2" data-name="Trazado 982547" transform="translate(9 6)" fill="#f5e9fe">
                            <path d="M 46 90.49987030029297 C 39.99187850952148 90.49987030029297 34.16426849365234 89.32350921630859 28.67905426025391 87.00345611572266 C 23.38019943237305 84.76224517822266 18.62104034423828 81.55341339111328 14.53374671936035 77.46613311767578 C 10.44646644592285 73.37885284423828 7.237639904022217 68.61969757080078 4.996413230895996 63.32085418701172 C 2.676359891891479 57.83565521240234 1.5 52.008056640625 1.5 45.99993515014648 C 1.5 39.99181365966797 2.676359891891479 34.16421508789062 4.996413230895996 28.67901420593262 C 7.237639904022217 23.38017463684082 10.44646644592285 18.62101554870605 14.53374671936035 14.53373527526855 C 18.62104034423828 10.44645500183105 23.38019943237305 7.23762845993042 28.67905426025391 4.996415138244629 C 34.16426849365234 2.676361799240112 39.99187850952148 1.500001788139343 46 1.500001788139343 C 52.00812149047852 1.500001788139343 57.83573150634766 2.676361799240112 63.32094573974609 4.996415138244629 C 68.61979675292969 7.23762845993042 73.37895965576172 10.44645500183105 77.46625518798828 14.53373527526855 C 81.55353546142578 18.62101554870605 84.76235961914062 23.38017463684082 87.00358581542969 28.67901420593262 C 89.32363891601562 34.16421508789062 90.5 39.99181365966797 90.5 45.99993515014648 C 90.5 52.008056640625 89.32363891601562 57.83565521240234 87.00358581542969 63.32085418701172 C 84.76235961914062 68.61969757080078 81.55353546142578 73.37885284423828 77.46625518798828 77.46613311767578 C 73.37895965576172 81.55341339111328 68.61979675292969 84.76224517822266 63.32094573974609 87.00345611572266 C 57.83573150634766 89.32350921630859 52.00812149047852 90.49987030029297 46 90.49987030029297 Z" stroke="none"/>
                            <path d="M 46 2.999992370605469 C 40.1937141418457 2.999992370605469 34.56269836425781 4.136489868164062 29.26337051391602 6.377906799316406 C 24.14332580566406 8.543502807617188 19.54441070556641 11.64437866210938 15.59439849853516 15.59437561035156 C 11.64440155029297 19.54439544677734 8.54351806640625 24.14329528808594 6.377914428710938 29.26333618164062 C 4.136497497558594 34.56264877319336 3 40.19366455078125 3 45.99993515014648 C 3 51.80620574951172 4.136497497558594 57.43720626831055 6.377914428710938 62.73651885986328 C 8.54351806640625 67.8565673828125 11.64440155029297 72.45545959472656 15.59439849853516 76.40547943115234 C 19.54441070556641 80.35547637939453 24.14332580566406 83.45635223388672 29.26337051391602 85.6219482421875 C 34.56269836425781 87.86336517333984 40.1937141418457 88.99986267089844 46 88.99986267089844 C 51.8062858581543 88.99986267089844 57.43730163574219 87.86336517333984 62.73661422729492 85.6219482421875 C 67.85667419433594 83.45635223388672 72.45557403564453 80.35547637939453 76.40558624267578 76.40547943115234 C 80.35559844970703 72.45545959472656 83.45647430419922 67.8565673828125 85.6220703125 62.73651885986328 C 87.86350250244141 57.43720626831055 89 51.80620574951172 89 45.99993515014648 C 89 40.19366455078125 87.86350250244141 34.56264877319336 85.6220703125 29.26333618164062 C 83.45647430419922 24.14329528808594 80.35559844970703 19.54439544677734 76.40558624267578 15.59437561035156 C 72.45557403564453 11.64437866210938 67.85667419433594 8.543502807617188 62.73661422729492 6.377906799316406 C 57.43730163574219 4.136489868164062 51.8062858581543 2.999992370605469 46 2.999992370605469 M 46 -7.62939453125e-06 C 71.40509033203125 -7.62939453125e-06 92 20.59486389160156 92 45.99993515014648 C 92 71.40499114990234 71.40509033203125 91.99986267089844 46 91.99986267089844 C 20.59490203857422 91.99986267089844 0 71.40499114990234 0 45.99993515014648 C 0 20.59486389160156 20.59490203857422 -7.62939453125e-06 46 -7.62939453125e-06 Z" stroke="none" fill="#a530fe"/>
                          </g>
                        </g>
                      </g>
                    </g>
                  </g>
                </g>
              </g>
            </g>
          </g>
        </g>
      </g>
    </g>
    <g id="bombilla_7_" data-name="bombilla (7)" transform="translate(-677 1523)">
      <g id="Grupo_1165192" data-name="Grupo 1165192" transform="translate(1.006 1.006)">
        <path id="Trazado_1014373" data-name="Trazado 1014373" d="M240.479,471.854h6.854a3.353,3.353,0,0,1-3.352,3.355h-.151A3.353,3.353,0,0,1,240.479,471.854Z" transform="translate(-211.258 -413.55)" fill="#8c808a"/>
        <path id="Trazado_1014374" data-name="Trazado 1014374" d="M227.3,419.974H213.718v3.155a3.365,3.365,0,0,0,3.364,3.366h6.854a3.365,3.365,0,0,0,3.364-3.366v-3.155Z" transform="translate(-187.86 -368.191)" fill="#b2b2b2"/>
        <path id="Trazado_1014375" data-name="Trazado 1014375" d="M42.1,27.627V22.5l-4.19-.6A13.175,13.175,0,0,0,36.374,18.2l2.542-3.386-3.622-3.625L31.911,13.73a13.157,13.157,0,0,0-3.706-1.537L27.611,8H22.489l-.595,4.193a13.155,13.155,0,0,0-3.706,1.537L14.8,11.186,11.183,14.81,13.725,18.2a13.184,13.184,0,0,0-1.535,3.709L8,22.5v5.126l4.19.6a13.175,13.175,0,0,0,1.535,3.709l-2.542,3.386L14.8,38.942,18.188,36.4a13.157,13.157,0,0,0,3.706,1.537l.595,4.193h5.122l.595-4.193A13.155,13.155,0,0,0,31.912,36.4l3.383,2.544,3.622-3.625-2.542-3.386a13.178,13.178,0,0,0,1.535-3.709ZM25.127,30.976a6.527,6.527,0,1,1,6.522-6.527A6.524,6.524,0,0,1,25.127,30.976Z" transform="translate(-8 -8)" fill="#8c808a"/>
        <path id="Trazado_1014376" data-name="Trazado 1014376" d="M143.879,111.976v-5.126l-4.19-.6a13.182,13.182,0,0,0-.573-1.779,17.892,17.892,0,0,0-6.011,2.294,6.52,6.52,0,0,1-7.3,8.462,18.122,18.122,0,0,0-.886,11.246h4.468l.595-4.193a13.156,13.156,0,0,0,3.706-1.537l3.383,2.544,3.622-3.625-2.542-3.386a13.179,13.179,0,0,0,1.535-3.709Z" transform="translate(-109.78 -92.349)" fill="#7b7179"/>
        <path id="Trazado_1014377" data-name="Trazado 1014377" d="M345.207,335.367v-3.432l-2.8-.4a8.822,8.822,0,0,0-1.028-2.483l1.7-2.267-2.425-2.427-2.265,1.7a8.808,8.808,0,0,0-2.481-1.029l-.4-2.807h-3.429l-.4,2.807a8.808,8.808,0,0,0-2.481,1.029l-2.265-1.7-2.425,2.427,1.7,2.267a8.823,8.823,0,0,0-1.028,2.483l-2.805.4v3.432l2.805.4a8.825,8.825,0,0,0,1.028,2.483l-1.7,2.267,2.425,2.427,2.265-1.7a8.8,8.8,0,0,0,2.481,1.029l.4,2.807h3.429l.4-2.807a8.811,8.811,0,0,0,2.481-1.029l2.265,1.7,2.425-2.427-1.7-2.267a8.823,8.823,0,0,0,1.028-2.483Zm-11.414,2.876a4.592,4.592,0,1,1,4.588-4.592A4.59,4.59,0,0,1,333.792,338.243Z" transform="translate(-282.863 -282.731)" fill="#8c808a"/>
        <g id="Grupo_1165191" data-name="Grupo 1165191" transform="translate(50.382 39.496)">
          <g id="Grupo_1165190" data-name="Grupo 1165190">
            <g id="Grupo_1165185" data-name="Grupo 1165185" transform="translate(6.115 2.133)">
              <path id="Trazado_1014378" data-name="Trazado 1014378" d="M460.225,342.914l.971-1.293-2.425-2.427-1.292.971Z" transform="translate(-457.479 -339.194)" fill="#7b7179"/>
            </g>
            <g id="Grupo_1165186" data-name="Grupo 1165186" transform="translate(0)">
              <path id="Trazado_1014379" data-name="Trazado 1014379" d="M411.49,325.034l-.4-2.807h-2.263l.322,2.267a.629.629,0,0,0,.622.54Z" transform="translate(-408.829 -322.227)" fill="#7b7179"/>
            </g>
            <g id="Grupo_1165187" data-name="Grupo 1165187" transform="translate(6.115 16.996)">
              <path id="Trazado_1014380" data-name="Trazado 1014380" d="M457.481,460.194l1.292.971,2.425-2.427-.97-1.292Z" transform="translate(-457.481 -457.446)" fill="#7b7179"/>
            </g>
            <g id="Grupo_1165188" data-name="Grupo 1165188" transform="translate(9.7 9.387)">
              <path id="Trazado_1014381" data-name="Trazado 1014381" d="M486,396.9v4.075l2.262-.321v-3.432Z" transform="translate(-486 -396.905)" fill="#7b7179"/>
            </g>
            <g id="Grupo_1165189" data-name="Grupo 1165189" transform="translate(0 20.041)">
              <path id="Trazado_1014382" data-name="Trazado 1014382" d="M409.151,482.206l-.322,2.267h2.263l.4-2.807h-1.717A.628.628,0,0,0,409.151,482.206Z" transform="translate(-408.829 -481.666)" fill="#7b7179"/>
            </g>
          </g>
        </g>
        <path id="Trazado_1014383" data-name="Trazado 1014383" d="M175.074,138.031a15.56,15.56,0,1,0-26.291,11.275h0a15.675,15.675,0,0,1,3.528,5.5,27.391,27.391,0,0,1,.413,5.049h13.582a27.391,27.391,0,0,1,.413-5.049,15.677,15.677,0,0,1,3.528-5.5A15.534,15.534,0,0,0,175.074,138.031Z" transform="translate(-126.866 -108.072)" fill="#ffdc00"/>
        <path id="Trazado_1014384" data-name="Trazado 1014384" d="M261.04,471.853a3.355,3.355,0,0,1-2.3,3.184,3.341,3.341,0,0,0,1.056.171h.151a3.353,3.353,0,0,0,3.352-3.355H261.04Z" transform="translate(-227.227 -413.549)" fill="#7b7179"/>
        <path id="Trazado_1014385" data-name="Trazado 1014385" d="M280.374,419.974v3.155a3.365,3.365,0,0,1-3.364,3.366h2.262a3.365,3.365,0,0,0,3.364-3.366v-3.155Z" transform="translate(-243.197 -368.191)" fill="#a0a0a0"/>
        <path id="Trazado_1014386" data-name="Trazado 1014386" d="M275.435,138.031a15.566,15.566,0,0,0-15.56-15.572q-.571,0-1.131.041a15.576,15.576,0,0,1,9.6,26.807c-2.974,2.836-2.742,2.741-3.528,5.5a27.392,27.392,0,0,0-.413,5.049h2.263a27.388,27.388,0,0,1,.413-5.049,15.677,15.677,0,0,1,3.528-5.5A15.534,15.534,0,0,0,275.435,138.031Z" transform="translate(-227.227 -108.072)" fill="#ffbf00"/>
      </g>
      <g id="Grupo_1165193" data-name="Grupo 1165193" transform="translate(0 0)">
        <path id="Trazado_1014387" data-name="Trazado 1014387" d="M63.544,49.31,61.343,49a9.756,9.756,0,0,0-.648-1.565l1.336-1.779a.944.944,0,0,0-.087-1.235l-2.429-2.431a.945.945,0,0,0-1.236-.087L56.5,43.236a9.762,9.762,0,0,0-1.563-.648l-.312-2.2a.944.944,0,0,0-.935-.812H50.256a.945.945,0,0,0-.935.812l-.312,2.2a9.768,9.768,0,0,0-1.563.648l-1.54-1.158a16.343,16.343,0,0,0,4.161-9.065h.4a.945.945,0,1,0,0-1.889h-.277c0-.054,0-.108,0-.162a16.6,16.6,0,0,0-.57-4.324.945.945,0,1,0-1.824.492,14.717,14.717,0,0,1,.505,3.831,14.537,14.537,0,0,1-4.544,10.614l-.016.016a16.509,16.509,0,0,0-3.776,5.918,13.929,13.929,0,0,0-.36,2.579.943.943,0,0,0-.014.156V50.3c-.036.582-.055,1.14-.065,1.585H36.849c-.1-1.3-.273-3.937-.223-6.656.026-1.46.109-2.661.227-3.649a10.122,10.122,0,0,0,3.5-1.08A3.371,3.371,0,0,0,41.7,36.081c-.581-1.027-2.007-1.826-4.113-.7-1.077.574-1.826,1.891-2.289,4.025q-.049.227-.095.468c-.642.053-1.2.074-1.546.072s-.9-.018-1.543-.071q-.045-.241-.095-.469c-.463-2.134-1.212-3.45-2.289-4.025-2.106-1.123-3.532-.323-4.113.7a3.111,3.111,0,0,0-.239,2.358,3.5,3.5,0,0,0,1.581,2.06,10.124,10.124,0,0,0,3.5,1.08c.118.988.2,2.19.227,3.649.049,2.719-.12,5.352-.223,6.656H27.786a21.648,21.648,0,0,0-.439-4.374,16.607,16.607,0,0,0-3.774-5.917l-.017-.017A14.653,14.653,0,1,1,46.464,23.846a.945.945,0,1,0,1.651-.918,16.548,16.548,0,0,0-3.692-4.52h1.1a.945.945,0,1,0,0-1.889H44.267a.945.945,0,0,0-.945.945c0,.027,0,.054,0,.08a16.532,16.532,0,0,0-8.761-3.1l-2.9-.412a14.128,14.128,0,0,0-1.159-2.8l2.173-2.894A.944.944,0,0,0,32.59,7.1L28.961,3.469a.945.945,0,0,0-1.236-.087L24.834,5.556a14.107,14.107,0,0,0-2.8-1.16L21.529.812A.945.945,0,0,0,20.593,0H15.462a.945.945,0,0,0-.935.812L14.018,4.4a14.11,14.11,0,0,0-2.8,1.16L8.33,3.381a.945.945,0,0,0-1.236.087L3.465,7.1a.944.944,0,0,0-.087,1.235L5.551,11.23a14.134,14.134,0,0,0-1.159,2.8l-3.581.509A.945.945,0,0,0,0,15.474V20.61a.945.945,0,0,0,.812.935l3.581.509a14.119,14.119,0,0,0,1.159,2.8L3.378,27.748a.944.944,0,0,0,.087,1.235l3.629,3.632A.945.945,0,0,0,8.33,32.7l2.891-2.174a14.11,14.11,0,0,0,2.8,1.16l.508,3.584a.945.945,0,0,0,.935.812h2.461a16.445,16.445,0,0,0,4.319,6.85,14.765,14.765,0,0,1,3.289,5.094,25.5,25.5,0,0,1,.377,4.8h0v3.161a4.324,4.324,0,0,0,3.456,4.232,4.311,4.311,0,0,0,4.217,3.447h.151a4.311,4.311,0,0,0,4.217-3.447,4.324,4.324,0,0,0,3.456-4.232V54.761l1.2.17a9.771,9.771,0,0,0,.648,1.565l-1.336,1.779A.944.944,0,0,0,42,59.51l2.429,2.431a.945.945,0,0,0,1.236.087l1.777-1.336a9.759,9.759,0,0,0,1.563.648l.312,2.2a.945.945,0,0,0,.935.812h3.436a.944.944,0,0,0,.935-.812l.312-2.2a9.763,9.763,0,0,0,1.563-.648l1.777,1.336a.945.945,0,0,0,1.236-.087l2.429-2.431a.945.945,0,0,0,.087-1.235L60.7,56.5a9.784,9.784,0,0,0,.648-1.565l2.2-.313a.945.945,0,0,0,.812-.935V50.246a.945.945,0,0,0-.812-.935ZM38.474,37.044a2.461,2.461,0,0,1,1.029-.321.586.586,0,0,1,.551.288,1.493,1.493,0,0,1-.669,1.867,7.094,7.094,0,0,1-2.2.728c.45-1.921,1.041-2.431,1.287-2.562ZM27.929,38.878a1.492,1.492,0,0,1-.669-1.867.586.586,0,0,1,.551-.288,2.461,2.461,0,0,1,1.029.321c.246.131.838.641,1.288,2.563A7.1,7.1,0,0,1,27.929,38.878ZM16.282,34.194,15.8,30.8a.944.944,0,0,0-.711-.785,12.226,12.226,0,0,1-3.447-1.429.944.944,0,0,0-1.058.052L7.85,30.7l-2.47-2.472L7.436,25.49a.945.945,0,0,0,.052-1.057A12.249,12.249,0,0,1,6.06,20.982a.944.944,0,0,0-.785-.711L1.889,19.79v-3.5l3.386-.481A.945.945,0,0,0,6.06,15.1a12.247,12.247,0,0,1,1.428-3.451.945.945,0,0,0-.052-1.057L5.381,7.856l2.47-2.472,2.734,2.056a.944.944,0,0,0,1.058.052A12.228,12.228,0,0,1,15.09,6.064a.944.944,0,0,0,.711-.785l.481-3.39h3.492l.481,3.389a.945.945,0,0,0,.711.785,12.232,12.232,0,0,1,3.447,1.429.945.945,0,0,0,1.058-.052L28.2,5.385l2.47,2.472-2.055,2.737a.944.944,0,0,0-.052,1.057,12.242,12.242,0,0,1,1.359,3.189,16.42,16.42,0,0,0-4.394,1.716,7.477,7.477,0,0,0-13.657-3.272.945.945,0,0,0,1.573,1.046,5.589,5.589,0,0,1,10.247,3.1c0,.114,0,.23-.012.348a16.666,16.666,0,0,0-4.465,5.134,5.587,5.587,0,0,1-6.7-5.483.945.945,0,1,0-1.889,0A7.49,7.49,0,0,0,18.1,24.91l.164,0a16.475,16.475,0,0,0-1.146,6.055,16.8,16.8,0,0,0,.312,3.232H16.282ZM43.253,47.433A9.77,9.77,0,0,0,42.6,49l-1.017.145a7.472,7.472,0,0,1,.2-1.114,8.1,8.1,0,0,1,.692-1.631ZM32.577,45.21c-.022-1.255-.087-2.4-.193-3.426.718.047,1.213.049,1.271.047s.556,0,1.274-.048c-.106,1.026-.171,2.171-.193,3.426-.049,2.719.109,5.294.217,6.674H32.361c.107-1.38.265-3.955.217-6.674Zm1.155,16.569h-.151a2.417,2.417,0,0,1-2.222-1.472h4.594a2.417,2.417,0,0,1-2.222,1.472Zm5.784-5.79a2.43,2.43,0,0,1-2.426,2.429H30.223A2.43,2.43,0,0,1,27.8,55.989V53.773H39.516v2.216Zm22.95-3.125-2,.284a.944.944,0,0,0-.785.711,7.89,7.89,0,0,1-.92,2.222.945.945,0,0,0,.052,1.057l1.213,1.616-1.27,1.271-1.614-1.213a.944.944,0,0,0-1.058-.052,7.873,7.873,0,0,1-2.22.92.945.945,0,0,0-.711.785l-.284,2h-1.8l-.284-2a.944.944,0,0,0-.711-.785,7.874,7.874,0,0,1-2.22-.92.945.945,0,0,0-1.058.052L45.19,60.026l-1.27-1.271,1.213-1.616a.945.945,0,0,0,.052-1.057,7.893,7.893,0,0,1-.92-2.222.945.945,0,0,0-.785-.711l-2-.284v-1.8l2-.284a.944.944,0,0,0,.785-.711,7.892,7.892,0,0,1,.92-2.222.945.945,0,0,0-.052-1.057l-1.213-1.616L45.19,43.9,46.8,45.117a.945.945,0,0,0,1.058.052,7.873,7.873,0,0,1,2.22-.92.945.945,0,0,0,.711-.785l.284-2h1.8l.284,2a.944.944,0,0,0,.711.785,7.88,7.88,0,0,1,2.22.92.944.944,0,0,0,1.058-.052L58.758,43.9l1.27,1.271-1.213,1.616a.945.945,0,0,0-.052,1.057,7.888,7.888,0,0,1,.92,2.222.945.945,0,0,0,.785.711l2,.284Z" transform="translate(0 0)"/>
        <path id="Trazado_1014388" data-name="Trazado 1014388" d="M374.949,369.3a5.55,5.55,0,0,0-5.542,5.546.945.945,0,1,0,1.889,0,3.654,3.654,0,1,1,1.232,2.738A.945.945,0,0,0,371.275,379a5.544,5.544,0,1,0,3.674-9.7Z" transform="translate(-322.975 -322.881)"/>
        <path id="Trazado_1014389" data-name="Trazado 1014389" d="M380.677,133.309h1.259a.945.945,0,1,0,0-1.889h-1.259a.945.945,0,1,0,0,1.889Z" transform="translate(-332.002 -114.901)"/>
        <path id="Trazado_1014390" data-name="Trazado 1014390" d="M448.785,141.516a6.4,6.4,0,0,1,.885.645.945.945,0,0,0,1.24-1.425,8.294,8.294,0,0,0-1.147-.837.945.945,0,1,0-.978,1.616Z" transform="translate(-391.977 -122.196)"/>
        <path id="Trazado_1014391" data-name="Trazado 1014391" d="M415.745,133.31c.4,0,.791.016,1.189.042a.954.954,0,0,0,1.008-.838.944.944,0,0,0-.835-1.043,12.311,12.311,0,0,0-1.362-.051.945.945,0,1,0,0,1.889Z" transform="translate(-362.662 -114.902)"/>
        <path id="Trazado_1014392" data-name="Trazado 1014392" d="M421.059,246.658a6.408,6.408,0,0,1-1.09.106.945.945,0,0,0,.011,1.889h.011a8.3,8.3,0,0,0,1.413-.138.945.945,0,0,0-.344-1.857Z" transform="translate(-366.365 -215.64)"/>
        <path id="Trazado_1014393" data-name="Trazado 1014393" d="M453.121,230.76a6.407,6.407,0,0,1-.836.708.945.945,0,1,0,1.093,1.541,8.3,8.3,0,0,0,1.083-.918.945.945,0,0,0-1.34-1.331Z" transform="translate(-395.09 -201.511)"/>
        <path id="Trazado_1014394" data-name="Trazado 1014394" d="M473.47,202.916a.954.954,0,0,0,1.212-.562,8.22,8.22,0,0,0,.371-1.372.945.945,0,0,0-1.859-.334,6.326,6.326,0,0,1-.286,1.056A.945.945,0,0,0,473.47,202.916Z" transform="translate(-413.416 -174.748)"/>
        <path id="Trazado_1014395" data-name="Trazado 1014395" d="M471.335,166.927a6.327,6.327,0,0,1,.363,1.032.945.945,0,1,0,1.83-.469,8.224,8.224,0,0,0-.471-1.342.945.945,0,1,0-1.721.778Z" transform="translate(-412.017 -144.779)"/>
        <path id="Trazado_1014396" data-name="Trazado 1014396" d="M24.175,309.6a.945.945,0,0,0-1.219.547,8.234,8.234,0,0,0-.388,1.367.945.945,0,1,0,1.855.357,6.333,6.333,0,0,1,.3-1.052A.945.945,0,0,0,24.175,309.6Z" transform="translate(-19.716 -270.629)"/>
        <path id="Trazado_1014397" data-name="Trazado 1014397" d="M43.407,374.492a6.4,6.4,0,0,1-.877-.656.945.945,0,1,0-1.257,1.41,8.317,8.317,0,0,0,1.137.85.945.945,0,1,0,1-1.6Z" transform="translate(-35.809 -326.637)"/>
        <path id="Trazado_1014398" data-name="Trazado 1014398" d="M109.647,388.3h-1.259a.945.945,0,1,0,0,1.889h1.259a.945.945,0,1,0,0-1.889Z" transform="translate(-93.938 -339.492)"/>
        <path id="Trazado_1014399" data-name="Trazado 1014399" d="M144.716,388.3h-1.259a.945.945,0,1,0,0,1.889h1.259a.945.945,0,1,0,0-1.889Z" transform="translate(-124.599 -339.492)"/>
        <path id="Trazado_1014400" data-name="Trazado 1014400" d="M179.784,388.3h-1.259a.945.945,0,1,0,0,1.889h1.259a.945.945,0,1,0,0-1.889Z" transform="translate(-155.259 -339.492)"/>
        <path id="Trazado_1014401" data-name="Trazado 1014401" d="M25.364,345.759a6.343,6.343,0,0,1-.35-1.037.945.945,0,0,0-1.836.447,8.233,8.233,0,0,0,.455,1.347.945.945,0,1,0,1.731-.757Z" transform="translate(-20.242 -300.762)"/>
        <path id="Trazado_1014402" data-name="Trazado 1014402" d="M74.6,387.915a9.285,9.285,0,0,1-1.141-.048.945.945,0,0,0-.231,1.875,11.2,11.2,0,0,0,1.372.062.945.945,0,1,0,0-1.889Z" transform="translate(-63.296 -339.109)"/>
        <path id="Trazado_1014403" data-name="Trazado 1014403" d="M39.88,285.059a.941.941,0,0,0,.662-.271,6.405,6.405,0,0,1,.844-.7.945.945,0,1,0-1.075-1.554,8.3,8.3,0,0,0-1.094.9A.952.952,0,0,0,39.88,285.059Z" transform="translate(-34.048 -246.876)"/>
        <path id="Trazado_1014404" data-name="Trazado 1014404" d="M70.7,274.082a6.41,6.41,0,0,1,1.092-.093.945.945,0,1,0,0-1.889,8.318,8.318,0,0,0-1.414.121.945.945,0,0,0,.322,1.862Z" transform="translate(-60.844 -237.898)"/>
      </g>
    </g>
  </g>
</svg>
