<svg xmlns="http://www.w3.org/2000/svg" xmlns:xlink="http://www.w3.org/1999/xlink" width="110" height="110" viewBox="0 0 110 110">
  <defs>
    <filter id="Trazado_982547" x="0" y="0" width="110" height="110" filterUnits="userSpaceOnUse">
      <feOffset dy="3" input="SourceAlpha"/>
      <feGaussianBlur stdDeviation="3" result="blur"/>
      <feFlood flood-opacity="0.161"/>
      <feComposite operator="in" in2="blur"/>
      <feComposite in="SourceGraphic"/>
    </filter>
  </defs>
  <g id="Grupo_1165212" data-name="Grupo 1165212" transform="translate(1015 -1863)">
    <g id="Grupo_1163524" data-name="Grupo 1163524" transform="translate(-1393 -466)">
      <g id="Grupo_1158890" data-name="Grupo 1158890" transform="translate(-423 -1476)">
        <g id="Grupo_1157405" data-name="Grupo 1157405" transform="translate(1 3016)">
          <g id="Grupo_1155792" data-name="Grupo 1155792" transform="translate(-1 -3894.666)">
            <g id="Grupo_1154703" data-name="Grupo 1154703" transform="translate(0 1465.666)">
              <g id="Grupo_1150789" data-name="Grupo 1150789" transform="translate(3 2320)">
                <g id="Grupo_1154212" data-name="Grupo 1154212" transform="translate(-236 -5809)">
                  <g id="Grupo_1152583" data-name="Grupo 1152583" transform="translate(1043 6713)">
                    <g id="Grupo_1146973" data-name="Grupo 1146973" transform="translate(0 0)">
                      <g id="Grupo_1146954" data-name="Grupo 1146954">
                        <g transform="matrix(1, 0, 0, 1, -9, -6)" filter="url(#Trazado_982547)">
                          <g id="Trazado_982547-2" data-name="Trazado 982547" transform="translate(9 6)" fill="#f5e9fe">
                            <path d="M 46 90.49987030029297 C 39.99187850952148 90.49987030029297 34.16426849365234 89.32350921630859 28.67905426025391 87.00345611572266 C 23.38019943237305 84.76224517822266 18.62104034423828 81.55341339111328 14.53374671936035 77.46613311767578 C 10.44646644592285 73.37885284423828 7.237639904022217 68.61969757080078 4.996413230895996 63.32085418701172 C 2.676359891891479 57.83565521240234 1.5 52.008056640625 1.5 45.99993515014648 C 1.5 39.99181365966797 2.676359891891479 34.16421508789062 4.996413230895996 28.67901420593262 C 7.237639904022217 23.38017463684082 10.44646644592285 18.62101554870605 14.53374671936035 14.53373527526855 C 18.62104034423828 10.44645500183105 23.38019943237305 7.23762845993042 28.67905426025391 4.996415138244629 C 34.16426849365234 2.676361799240112 39.99187850952148 1.500001788139343 46 1.500001788139343 C 52.00812149047852 1.500001788139343 57.83573150634766 2.676361799240112 63.32094573974609 4.996415138244629 C 68.61979675292969 7.23762845993042 73.37895965576172 10.44645500183105 77.46625518798828 14.53373527526855 C 81.55353546142578 18.62101554870605 84.76235961914062 23.38017463684082 87.00358581542969 28.67901420593262 C 89.32363891601562 34.16421508789062 90.5 39.99181365966797 90.5 45.99993515014648 C 90.5 52.008056640625 89.32363891601562 57.83565521240234 87.00358581542969 63.32085418701172 C 84.76235961914062 68.61969757080078 81.55353546142578 73.37885284423828 77.46625518798828 77.46613311767578 C 73.37895965576172 81.55341339111328 68.61979675292969 84.76224517822266 63.32094573974609 87.00345611572266 C 57.83573150634766 89.32350921630859 52.00812149047852 90.49987030029297 46 90.49987030029297 Z" stroke="none"/>
                            <path d="M 46 2.999992370605469 C 40.1937141418457 2.999992370605469 34.56269836425781 4.136489868164062 29.26337051391602 6.377906799316406 C 24.14332580566406 8.543502807617188 19.54441070556641 11.64437866210938 15.59439849853516 15.59437561035156 C 11.64440155029297 19.54439544677734 8.54351806640625 24.14329528808594 6.377914428710938 29.26333618164062 C 4.136497497558594 34.56264877319336 3 40.19366455078125 3 45.99993515014648 C 3 51.80620574951172 4.136497497558594 57.43720626831055 6.377914428710938 62.73651885986328 C 8.54351806640625 67.8565673828125 11.64440155029297 72.45545959472656 15.59439849853516 76.40547943115234 C 19.54441070556641 80.35547637939453 24.14332580566406 83.45635223388672 29.26337051391602 85.6219482421875 C 34.56269836425781 87.86336517333984 40.1937141418457 88.99986267089844 46 88.99986267089844 C 51.8062858581543 88.99986267089844 57.43730163574219 87.86336517333984 62.73661422729492 85.6219482421875 C 67.85667419433594 83.45635223388672 72.45557403564453 80.35547637939453 76.40558624267578 76.40547943115234 C 80.35559844970703 72.45545959472656 83.45647430419922 67.8565673828125 85.6220703125 62.73651885986328 C 87.86350250244141 57.43720626831055 89 51.80620574951172 89 45.99993515014648 C 89 40.19366455078125 87.86350250244141 34.56264877319336 85.6220703125 29.26333618164062 C 83.45647430419922 24.14329528808594 80.35559844970703 19.54439544677734 76.40558624267578 15.59437561035156 C 72.45557403564453 11.64437866210938 67.85667419433594 8.543502807617188 62.73661422729492 6.377906799316406 C 57.43730163574219 4.136489868164062 51.8062858581543 2.999992370605469 46 2.999992370605469 M 46 -7.62939453125e-06 C 71.40509033203125 -7.62939453125e-06 92 20.59486389160156 92 45.99993515014648 C 92 71.40499114990234 71.40509033203125 91.99986267089844 46 91.99986267089844 C 20.59490203857422 91.99986267089844 0 71.40499114990234 0 45.99993515014648 C 0 20.59486389160156 20.59490203857422 -7.62939453125e-06 46 -7.62939453125e-06 Z" stroke="none" fill="#a530fe"/>
                          </g>
                        </g>
                      </g>
                    </g>
                  </g>
                </g>
              </g>
            </g>
          </g>
        </g>
      </g>
    </g>
    <g id="organizacion_1_" data-name="organizacion (1)" transform="translate(-992 1883)">
      <g id="Grupo_1165210" data-name="Grupo 1165210">
        <g id="Grupo_1165195" data-name="Grupo 1165195">
          <path id="Trazado_1014405" data-name="Trazado 1014405" d="M16,34l2,10H12l2-10Z" fill="#ffeaa7"/>
        </g>
        <g id="Grupo_1165196" data-name="Grupo 1165196">
          <path id="Trazado_1014406" data-name="Trazado 1014406" d="M16.75,31.75,16,34H14l-.75-2.25L15,30Z" fill="#fcd770"/>
        </g>
        <g id="Grupo_1165197" data-name="Grupo 1165197">
          <path id="Trazado_1014407" data-name="Trazado 1014407" d="M18,33l1.87-5.6A10.894,10.894,0,0,1,28,37.93V44H18L16,34l.75-2.25Z" fill="#b4dd7f"/>
        </g>
        <g id="Grupo_1165198" data-name="Grupo 1165198">
          <path id="Trazado_1014408" data-name="Trazado 1014408" d="M12,33l1.25-1.25L14,34,12,44H2V37.93A10.9,10.9,0,0,1,10.13,27.4Z" fill="#b4dd7f"/>
        </g>
        <g id="Grupo_1165199" data-name="Grupo 1165199">
          <path id="Trazado_1014409" data-name="Trazado 1014409" d="M15,29l3.15-2.37a1.964,1.964,0,0,0,1.09.62q.315.06.63.15L18,33l-1.25-1.25L15,30l-1.75,1.75L12,33l-1.87-5.6q.315-.09.63-.15a1.964,1.964,0,0,0,1.09-.62Z" fill="#a0d468"/>
        </g>
        <g id="Grupo_1165200" data-name="Grupo 1165200">
          <path id="Trazado_1014410" data-name="Trazado 1014410" d="M50,12v2h-.34a2,2,0,0,0-1.42,3.41l.25.25-2.83,2.83-.25-.25A2,2,0,0,0,42,21.66V22H38v-.34a2,2,0,0,0-3.41-1.42l-.25.25-2.83-2.83.25-.25A2,2,0,0,0,30.34,14H30V10h.34a2,2,0,0,0,1.42-3.41l-.25-.25,2.83-2.83.25.25A2,2,0,0,0,38,2.34V2h4v.34a2,2,0,0,0,3.41,1.42l.25-.25,2.83,2.83-.25.25A2,2,0,0,0,49.66,10H50Zm-6,0a4,4,0,1,0-4,4A4,4,0,0,0,44,12Z" fill="#fcd770"/>
        </g>
        <g id="Grupo_1165201" data-name="Grupo 1165201">
          <circle id="Elipse_12186" data-name="Elipse 12186" cx="10" cy="10" r="10" transform="translate(42 24)" fill="#69d6f4"/>
        </g>
        <g id="Grupo_1165202" data-name="Grupo 1165202">
          <path id="Trazado_1014411" data-name="Trazado 1014411" d="M59.92,50.61A1.007,1.007,0,0,1,60,51V61a1,1,0,0,1-1,1H49a1,1,0,0,1-1-1V51a1,1,0,0,1,1-1H59a1.016,1.016,0,0,1,.92.6Z" fill="#ff826e"/>
        </g>
        <g id="Grupo_1165203" data-name="Grupo 1165203">
          <path id="Trazado_1014412" data-name="Trazado 1014412" d="M39.92,50.61A1.007,1.007,0,0,1,40,51V61a1,1,0,0,1-1,1H29a1,1,0,0,1-1-1V51a1,1,0,0,1,1-1H39a1.016,1.016,0,0,1,.92.6Z" fill="#ff826e"/>
        </g>
        <g id="Grupo_1165204" data-name="Grupo 1165204">
          <path id="Trazado_1014413" data-name="Trazado 1014413" d="M19.92,50.61A1.007,1.007,0,0,1,20,51V61a1,1,0,0,1-1,1H9a1,1,0,0,1-1-1V51a1,1,0,0,1,1-1H19a1.016,1.016,0,0,1,.92.6Z" fill="#ff826e"/>
        </g>
        <g id="Grupo_1165205" data-name="Grupo 1165205">
          <path id="Trazado_1014414" data-name="Trazado 1014414" d="M15,10H12L9.11,11.45A2,2,0,0,0,8,13.24V14H7l-.78-2.35A4.049,4.049,0,0,1,6,10.31,4.237,4.237,0,0,1,9.21,6.2L10,6a7.383,7.383,0,0,1,2.67-2.92A7.243,7.243,0,0,1,16.47,2h.41a7.132,7.132,0,0,1,6.91,8.85L23.5,12,23,14H22V12.83a2.006,2.006,0,0,0-.59-1.42L20,10Z" fill="#656d78"/>
        </g>
        <g id="Grupo_1165206" data-name="Grupo 1165206">
          <path id="Trazado_1014415" data-name="Trazado 1014415" d="M25.41,17.41A1.955,1.955,0,0,1,24,18H22l-.08-.01A5.365,5.365,0,0,0,22,17V14h2a2.006,2.006,0,0,1,2,2A1.955,1.955,0,0,1,25.41,17.41Z" fill="#f0d0b4"/>
        </g>
        <g id="Grupo_1165207" data-name="Grupo 1165207">
          <path id="Trazado_1014416" data-name="Trazado 1014416" d="M18.15,26.63,15,29l-3.15-2.37a1.942,1.942,0,0,0,.46-.86l.53-2.11a7.031,7.031,0,0,0,4.32,0l.53,2.11a1.942,1.942,0,0,0,.46.86Z" fill="#f0d0b4"/>
        </g>
        <g id="Grupo_1165208" data-name="Grupo 1165208">
          <path id="Trazado_1014417" data-name="Trazado 1014417" d="M15,10h5l1.41,1.41A2.006,2.006,0,0,1,22,12.83V17a5.365,5.365,0,0,1-.08.99,6.992,6.992,0,0,1-11.87,3.96,6.9,6.9,0,0,1-1.97-3.96A5.365,5.365,0,0,1,8,17V13.24a2,2,0,0,1,1.11-1.79L12,10Z" fill="#f0d0b4"/>
        </g>
        <g id="Grupo_1165209" data-name="Grupo 1165209">
          <path id="Trazado_1014418" data-name="Trazado 1014418" d="M8,17a5.365,5.365,0,0,0,.08.99L8,18H6a2.015,2.015,0,0,1-2-2,2.006,2.006,0,0,1,2-2H8Z" fill="#f0d0b4"/>
        </g>
      </g>
      <g id="Grupo_1165211" data-name="Grupo 1165211">
        <circle id="Elipse_12187" data-name="Elipse 12187" cx="1" cy="1" r="1" transform="translate(11 13)"/>
        <circle id="Elipse_12188" data-name="Elipse 12188" cx="1" cy="1" r="1" transform="translate(17 13)"/>
        <path id="Trazado_1014419" data-name="Trazado 1014419" d="M17,17.764a2.236,2.236,0,0,1-4,0l-.1-.211-1.789.9.1.21a4.236,4.236,0,0,0,7.578,0l.1-.211-1.789-.9Z"/>
        <path id="Trazado_1014420" data-name="Trazado 1014420" d="M14,7.172h2v5.657H14Z" transform="translate(-2.678 13.536) rotate(-45)"/>
        <path id="Trazado_1014421" data-name="Trazado 1014421" d="M61.219,47.375l-1.43,1.788A2,2,0,0,0,59,49H55V44.574a10.988,10.988,0,0,0,0-21.148V14a3,3,0,0,0-3-3H51V9H49.657a1,1,0,0,1-.709-1.706l.952-.95L45.658,2.1l-.951.949A1,1,0,0,1,43,2.343V1H37V2.343a1,1,0,0,1-1.708.706l-.95-.948L30.1,6.344l.951.949A1,1,0,0,1,30.343,9H29v2H24.774a8.1,8.1,0,0,0-7.9-10h-.405A8.187,8.187,0,0,0,9.328,5.137l-.357.09a5.239,5.239,0,0,0-3.7,6.743l.356,1.069A2.992,2.992,0,0,0,6,19H7.263a8.017,8.017,0,0,0,4.392,5.257l-.318,1.272a1,1,0,0,1-.774.738A11.928,11.928,0,0,0,1,37.933V45H29V37.933a11.927,11.927,0,0,0-9.563-11.665,1,1,0,0,1-.774-.738l-.318-1.272A8.025,8.025,0,0,0,22.737,19H24a2.992,2.992,0,0,0,.273-5.972L24.28,13H29v2h1.343a1,1,0,0,1,.709,1.706l-.952.95L34.342,21.9l.951-.949A1,1,0,0,1,37,21.657V23h6V21.657a1,1,0,0,1,1.708-.706l.95.948L49.9,17.656l-.951-.949A1,1,0,0,1,49.657,15H51V13h1a1,1,0,0,1,1,1v9.051c-.33-.03-.662-.051-1-.051a11,11,0,0,0,0,22c.338,0,.67-.021,1-.051V49H49a2,2,0,0,0-2,2v4H41V51c0-.045-.01-.087-.013-.132l1.795-2.243-1.563-1.25-1.43,1.788A2,2,0,0,0,39,49H29a2,2,0,0,0-2,2v4H21V51c0-.045-.01-.087-.013-.132l1.8-2.243-1.563-1.25-1.43,1.788A2,2,0,0,0,19,49H9a2,2,0,0,0-2,2V61a2,2,0,0,0,2,2H19a2,2,0,0,0,2-2V57h6v4a2,2,0,0,0,2,2H39a2,2,0,0,0,2-2V57h6v4a2,2,0,0,0,2,2H59a2,2,0,0,0,2-2V51c0-.045-.01-.087-.013-.132l1.795-2.243ZM7,17H6a1,1,0,0,1,0-2H7Zm4.85,10.887,2.2,1.65-1.613,1.612-1.019-3.056a3.016,3.016,0,0,0,.433-.206ZM15,27.75l-1.84-1.38a3.072,3.072,0,0,0,.117-.355l.288-1.151a7.644,7.644,0,0,0,2.871,0l.288,1.151a2.906,2.906,0,0,0,.117.356Zm.606,4.27-.327.98H14.72l-.327-.98L15,31.414ZM11.18,43H9V35.414a4.384,4.384,0,0,0-1.293-3.121L6.293,33.707A2.4,2.4,0,0,1,7,35.414V43H3V37.933a9.926,9.926,0,0,1,6.495-9.286l2.068,6.205,1.25-1.25.154.463Zm2.04,0,1.6-8h.361l1.6,8Zm7.285-14.353A9.924,9.924,0,0,1,27,37.933V43H23V35.414a2.4,2.4,0,0,1,.707-1.707l-1.414-1.414A4.384,4.384,0,0,0,21,35.414V43H18.82l-1.787-8.936.154-.463,1.25,1.25Zm-1.923-.554-1.019,3.056L15.95,29.537l2.2-1.65a3.109,3.109,0,0,0,.432.206Zm4.039-16.7a3.01,3.01,0,0,0-.5-.688L18.707,7.293,17.293,8.707l3.414,3.414a1,1,0,0,1,.293.708V17A6,6,0,0,1,9,17V13.236a.994.994,0,0,1,.553-.894l2.9-1.447-.9-1.789-2.9,1.447A2.981,2.981,0,0,0,7.34,11.858l-.174-.522A3.242,3.242,0,0,1,9.455,7.167l1.233-.309.206-.411A6.2,6.2,0,0,1,16.472,3h.405a6.122,6.122,0,0,1,5.94,7.608ZM25,16a1,1,0,0,1-1,1H23V15h1A1,1,0,0,1,25,16Zm24-2.931a3.008,3.008,0,0,0-1.88,4.539L45.608,19.12A3.008,3.008,0,0,0,41.069,21H38.93a3.008,3.008,0,0,0-4.539-1.88l-1.512-1.512A3.008,3.008,0,0,0,31,13.069V10.93a3.008,3.008,0,0,0,1.88-4.539l1.512-1.512A3.009,3.009,0,0,0,38.931,3H41.07a2.948,2.948,0,0,0,1.782,2.115,2.944,2.944,0,0,0,2.757-.235l1.512,1.512A3.008,3.008,0,0,0,49,10.931v2.138ZM9,61V51h9.319l-4.246,5.308-1.241-1.862-1.664,1.109,2.759,4.138L19,53.351,19,61Zm20,0V51h9.319l-4.246,5.308-1.241-1.862-1.664,1.109,2.759,4.138L39,53.351,39,61ZM51,39v3.941A9.012,9.012,0,0,1,43.059,35H47V33H43.059A9.012,9.012,0,0,1,51,25.059V29h2V25.059A9.012,9.012,0,0,1,60.941,33H57v2h3.941A9.012,9.012,0,0,1,53,42.941V39ZM49,61V51h9.319l-4.246,5.308-1.241-1.862-1.664,1.109,2.759,4.138L59,53.351,59,61Z"/>
        <path id="Trazado_1014422" data-name="Trazado 1014422" d="M56.293,29.293l-4.42,4.42-2.318-1.545-1.11,1.664,3.682,2.455,5.58-5.58Z"/>
        <path id="Trazado_1014423" data-name="Trazado 1014423" d="M40,7a5,5,0,1,0,5,5A5.006,5.006,0,0,0,40,7Zm0,8a3,3,0,1,1,3-3A3,3,0,0,1,40,15Z"/>
      </g>
    </g>
  </g>
</svg>
