<svg xmlns="http://www.w3.org/2000/svg" xmlns:xlink="http://www.w3.org/1999/xlink" width="190" height="188.342" viewBox="0 0 190 188.342">
  <defs>
    <linearGradient id="linear-gradient" x1="0.139" y1="0.835" x2="0.907" y2="0.134" gradientUnits="objectBoundingBox">
      <stop offset="0" stop-color="#fff" stop-opacity="0"/>
      <stop offset="0.278" stop-color="#ebebff" stop-opacity="0.439"/>
      <stop offset="0.629" stop-color="#d6d6ff"/>
    </linearGradient>
  </defs>
  <g id="Grupo_1163526" data-name="Grupo 1163526" transform="translate(-1230 -2661.829)">
    <g id="Grupo_1153334" data-name="Grupo 1153334" transform="translate(0 2395.296)">
      <rect id="Rect치ngulo_407965" data-name="Rect치ngulo 407965" width="190" height="112" rx="7" transform="translate(1230 304.704)" fill="#5a1a8a"/>
      <rect id="Rect치ngulo_407966" data-name="Rect치ngulo 407966" width="126" height="154" rx="7" transform="translate(1262 283.704)" fill="#a530fe"/>
    </g>
    <g id="asignar_1_" data-name="asignar (1)" transform="translate(1221.884 2661.83)">
      <g id="Grupo_1158201" data-name="Grupo 1158201" transform="translate(20.007 0)">
        <path id="Trazado_992469" data-name="Trazado 992469" d="M182.526,82.3C214.4,33.138,157.09,9.321,115.717,1.326c-54.1-10.456-95.71,42.656-95.71,98.48,0,46.773,52.459,99.954,103.173,86.381,21.587-5.778,46.576-19.425,53.742-39.578,9.168-25.784-8.92-41.9,5.6-64.307Z" transform="translate(-20.007 0)" fill="url(#linear-gradient)"/>
      </g>
      <g id="Grupo_1158232" data-name="Grupo 1158232" transform="translate(25.399 20.926)">
        <g id="Grupo_1158225" data-name="Grupo 1158225" transform="translate(7.357)">
          <g id="Grupo_1158202" data-name="Grupo 1158202" transform="translate(2.002 11.403)">
            <path id="Trazado_992470" data-name="Trazado 992470" d="M356.988,412.091H351.68a1.769,1.769,0,0,0-1.769,1.769v5.308a1.769,1.769,0,0,0,1.769,1.769h5.308a1.769,1.769,0,0,0,1.769-1.769V413.86A1.77,1.77,0,0,0,356.988,412.091Z" transform="translate(-243.305 -292.832)" fill="#0000c9" opacity="0.1"/>
            <path id="Trazado_992471" data-name="Trazado 992471" d="M356.988,459H351.68a1.77,1.77,0,0,0-1.769,1.769v5.308a1.769,1.769,0,0,0,1.769,1.769h5.308a1.769,1.769,0,0,0,1.769-1.769v-5.308A1.769,1.769,0,0,0,356.988,459Z" transform="translate(-243.305 -322.483)" fill="#0000c9" opacity="0.1"/>
            <path id="Trazado_992472" data-name="Trazado 992472" d="M403.894,412.091h-5.308a1.769,1.769,0,0,0-1.769,1.769v5.308a1.77,1.77,0,0,0,1.769,1.769h5.308a1.769,1.769,0,0,0,1.769-1.769V413.86A1.77,1.77,0,0,0,403.894,412.091Z" transform="translate(-272.956 -292.832)" fill="#0000c9" opacity="0.1"/>
            <path id="Trazado_992473" data-name="Trazado 992473" d="M310.083,412.091h-5.308a1.769,1.769,0,0,0-1.769,1.769v5.308a1.77,1.77,0,0,0,1.769,1.769h5.308a1.769,1.769,0,0,0,1.769-1.769V413.86A1.77,1.77,0,0,0,310.083,412.091Z" transform="translate(-213.654 -292.832)" fill="#0000c9" opacity="0.1"/>
            <path id="Trazado_992474" data-name="Trazado 992474" d="M198.871,87.888h-72.72a3.678,3.678,0,0,0-3.679,3.679v94.908l-3.972-4.061a10.3,10.3,0,0,0-4.76-2.764l-13.828-3.612a4.566,4.566,0,0,1-3.352-3.685,19.706,19.706,0,0,0,8.885-10.562,5.376,5.376,0,0,0,1.2.422,5.237,5.237,0,0,0,5.918-3.282c1.108-2.789.58-5.665-1.394-7.168a23.038,23.038,0,0,0,.208-6.733,1.844,1.844,0,0,0,1.8-2.018c-1.433-15.538-10.475-20.846-22.1-20.846s-20.668,5.307-22.1,20.846a1.846,1.846,0,0,0,1.482,1.984,23.069,23.069,0,0,0,.2,6.767c-1.974,1.5-2.5,4.379-1.394,7.168a5.237,5.237,0,0,0,5.918,3.282,5.357,5.357,0,0,0,1.2-.422,19.944,19.944,0,0,0,8.432,10.319v.13a4.567,4.567,0,0,1-2.634,4.138l-12.974,6.062a10.3,10.3,0,0,0-5.9,8.462l-3.2,37.8a1.839,1.839,0,0,0,1.833,1.995h51.841a1.839,1.839,0,0,0,1.833-1.992l-2.326-28.027,11.271,11.133a5.334,5.334,0,0,0,7.836-.369l11.646-13.9h54.827a3.678,3.678,0,0,0,3.679-3.679V91.567a3.679,3.679,0,0,0-3.679-3.679Z" transform="translate(-60.105 -87.888)" fill="#0000c9" opacity="0.1"/>
          </g>
          <g id="Grupo_1158219" data-name="Grupo 1158219" transform="translate(1.839 1.839)">
            <g id="Grupo_1158217" data-name="Grupo 1158217">
              <g id="Grupo_1158206" data-name="Grupo 1158206" transform="translate(62.531)">
                <g id="Grupo_1158204" data-name="Grupo 1158204">
                  <path id="Trazado_992475" data-name="Trazado 992475" d="M306.049,171.548H233.33a3.678,3.678,0,0,1-3.679-3.679V65.567a3.678,3.678,0,0,1,3.679-3.679h72.719a3.678,3.678,0,0,1,3.678,3.679v102.3A3.678,3.678,0,0,1,306.049,171.548Z" transform="translate(-229.651 -61.888)" fill="#ff6c6c"/>
                  <path id="Trazado_992476" data-name="Trazado 992476" d="M278.916,283.578l3.145-4.688a3.694,3.694,0,0,0-6.055-4.231l-12.151,16.706-.214-.241a1.128,1.128,0,0,0-1.714.031l-11.485,13.934h21.938l1.141-1.362a1.128,1.128,0,0,0-.02-1.472l-.264-.3c6.532-5.977,8.011-4.7,9.97-9.5C285.3,287.329,278.916,283.578,278.916,283.578Z" transform="translate(-242.793 -195.429)" fill="#ff4d4d"/>
                  <g id="Grupo_1158203" data-name="Grupo 1158203" transform="translate(7.357 7.358)">
                    <path id="Trazado_992477" data-name="Trazado 992477" d="M315.014,96.284v66.155a14.4,14.4,0,0,1-14.4,14.4H278.041l-13.309-15.549-1.512,15.527a14.4,14.4,0,0,1-13.57-14.376V96.284A14.4,14.4,0,0,1,264.044,81.89h36.572A14.4,14.4,0,0,1,315.014,96.284Z" transform="translate(-249.65 -81.89)" fill="#fff"/>
                  </g>
                  <path id="Trazado_992478" data-name="Trazado 992478" d="M291.669,283.578l3.145-4.688a3.694,3.694,0,0,0-6.055-4.231l-12.151,16.706-.214-.241a1.128,1.128,0,0,0-1.714.031l-4.064,4.93a14.325,14.325,0,0,0,6.683,1.646h14c2.34-1.61,3.4-2.182,4.666-5.277C298.051,287.329,291.669,283.578,291.669,283.578Z" transform="translate(-255.546 -195.429)" fill="#d7d7ff"/>
                </g>
                <g id="Grupo_1158205" data-name="Grupo 1158205" transform="translate(20.612 37.087)">
                  <circle id="Elipse_11784" data-name="Elipse 11784" cx="19.427" cy="19.427" r="19.427" transform="translate(0 0)" fill="#ffa966"/>
                  <circle id="Elipse_11785" data-name="Elipse 11785" cx="13.441" cy="13.441" r="13.441" transform="translate(5.985 5.985)" fill="#fff"/>
                  <path id="Trazado_992479" data-name="Trazado 992479" d="M326.231,212.1a1.833,1.833,0,0,1-1.3-.539l-3.26-3.26a1.839,1.839,0,1,1,2.6-2.6l1.959,1.959,4.535-4.535a1.839,1.839,0,1,1,2.6,2.6l-5.835,5.835A1.833,1.833,0,0,1,326.231,212.1Z" transform="translate(-308.092 -187.919)" fill="#6c6cff"/>
                </g>
              </g>
              <g id="Grupo_1158215" data-name="Grupo 1158215" transform="translate(0 34.276)">
                <g id="Grupo_1158207" data-name="Grupo 1158207" transform="translate(10.363 20.554)">
                  <path id="Trazado_992480" data-name="Trazado 992480" d="M88.34,210.942c-.489,2.411-1.84,11.337,3.705,16.21h8.888v-16.21Z" transform="translate(-87.834 -210.942)" fill="#b1b1ff"/>
                  <path id="Trazado_992481" data-name="Trazado 992481" d="M176.89,210.942c.489,2.411,1.84,11.337-3.705,16.21H164.3v-16.21Z" transform="translate(-136.17 -210.942)" fill="#b1b1ff"/>
                </g>
                <g id="Grupo_1158208" data-name="Grupo 1158208" transform="translate(7.697 27.571)">
                  <ellipse id="Elipse_11786" data-name="Elipse 11786" cx="5.819" cy="5.175" rx="5.819" ry="5.175" transform="translate(33.968 11.388) rotate(-77.701)" fill="#ff9292"/>
                  <ellipse id="Elipse_11787" data-name="Elipse 11787" cx="5.175" cy="5.819" rx="5.175" ry="5.819" transform="translate(0 2.205) rotate(-12.299)" fill="#ff9292"/>
                </g>
                <g id="Grupo_1158214" data-name="Grupo 1158214" transform="translate(0 14.347)">
                  <g id="Grupo_1158210" data-name="Grupo 1158210" transform="translate(0 19.522)">
                    <path id="Trazado_992482" data-name="Trazado 992482" d="M283.55,267.062l13.385-18.4a3.694,3.694,0,0,1,6.055,4.231l-3.145,4.688s6.382,3.751,4.292,8.877-3.633,3.328-11.345,10.8Z" transform="translate(-201.192 -247.137)" fill="#ffb1b1"/>
                    <path id="Trazado_992483" data-name="Trazado 992483" d="M141.326,284.627l-14.308,17.358-8.8-9a10.3,10.3,0,0,0-4.76-2.764l-13.828-3.612a4.567,4.567,0,0,1-3.413-4.418V277.94H84.544v4.876a4.567,4.567,0,0,1-2.634,4.138l-12.974,6.061a10.3,10.3,0,0,0-5.9,8.462l-3.371,39.8H115.5l-2.491-30.019,11.271,11.133a5.333,5.333,0,0,0,7.836-.369l20.8-24.822a1.128,1.128,0,0,0-.02-1.472L143.04,284.6a1.127,1.127,0,0,0-1.714.031Z" transform="translate(-59.662 -266.609)" fill="#ffecec"/>
                    <path id="Trazado_992484" data-name="Trazado 992484" d="M239.608,346.279a1.839,1.839,0,0,1-1.839-1.839v-4.294a1.839,1.839,0,0,1,3.679,0v4.294A1.839,1.839,0,0,1,239.608,346.279Z" transform="translate(-172.252 -304.769)" fill="#ffb1b1"/>
                    <path id="Trazado_992485" data-name="Trazado 992485" d="M133.267,288.561l-.269.662a17.385,17.385,0,0,1-16.193,10.918,17.581,17.581,0,0,1-15.715-9.833l-.037-.077,7.022-3.281a4.562,4.562,0,0,0,2.634-4.135v-4.878h11.676v4.256a4.565,4.565,0,0,0,3.414,4.418Z" transform="translate(-85.828 -266.607)" fill="#ff4d4d"/>
                    <path id="Trazado_992486" data-name="Trazado 992486" d="M136.472,287.155a11.952,11.952,0,0,1-21.828.739l2.023-.945a4.562,4.562,0,0,0,2.634-4.135v-4.878h11.676v4.256a4.565,4.565,0,0,0,3.414,4.418Z" transform="translate(-94.419 -266.607)" fill="#ff9292"/>
                    <path id="Trazado_992487" data-name="Trazado 992487" d="M284.221,306.512l-9.861-11.13a1.128,1.128,0,0,0-1.714.031L267.4,301.78l11.27,12.855,5.573-6.65A1.128,1.128,0,0,0,284.221,306.512Z" transform="translate(-190.982 -277.395)" fill="#ff4d4d"/>
                    <g id="Grupo_1158209" data-name="Grupo 1158209" transform="translate(10.102 43.927)">
                      <path id="Trazado_992488" data-name="Trazado 992488" d="M88.965,399.129l-.087,0a1.839,1.839,0,0,1-1.752-1.923l1.342-28.9a1.839,1.839,0,0,1,3.675.171l-1.342,28.9A1.839,1.839,0,0,1,88.965,399.129Z" transform="translate(-87.125 -366.551)" fill="#ffb1b1"/>
                    </g>
                  </g>
                  <g id="Grupo_1158213" data-name="Grupo 1158213" transform="translate(14.969)">
                    <path id="Trazado_992489" data-name="Trazado 992489" d="M132.37,211.588c0,9.676-7.167,19.727-16.007,19.727s-16.007-10.051-16.007-19.727,7.167-17.52,16.007-17.52,16.007,7.844,16.007,17.52Z" transform="translate(-100.356 -194.068)" fill="#ffb1b1"/>
                    <g id="Grupo_1158212" data-name="Grupo 1158212" transform="translate(6.254 15.437)">
                      <path id="Trazado_992490" data-name="Trazado 992490" d="M133.309,265.371a6.875,6.875,0,0,1-5.868-3.267,1.839,1.839,0,0,1,3.123-1.944,3.224,3.224,0,0,0,5.489,0,1.839,1.839,0,0,1,3.123,1.944,6.874,6.874,0,0,1-5.868,3.267Z" transform="translate(-123.556 -250.736)" fill="#ff6c6c"/>
                      <g id="Grupo_1158211" data-name="Grupo 1158211">
                        <path id="Trazado_992491" data-name="Trazado 992491" d="M119.2,241.221a1.839,1.839,0,0,1-1.839-1.839v-1.51a1.839,1.839,0,0,1,3.679,0v1.51A1.839,1.839,0,0,1,119.2,241.221Z" transform="translate(-117.358 -236.032)" fill="#4d4dff"/>
                        <path id="Trazado_992492" data-name="Trazado 992492" d="M162.221,241.221a1.839,1.839,0,0,1-1.839-1.839v-1.51a1.839,1.839,0,1,1,3.679,0v1.51A1.839,1.839,0,0,1,162.221,241.221Z" transform="translate(-144.555 -236.032)" fill="#4d4dff"/>
                      </g>
                    </g>
                  </g>
                </g>
                <path id="Trazado_992493" data-name="Trazado 992493" d="M126.59,177.931a1.845,1.845,0,0,0,1.832-2.019c-1.433-15.539-10.475-20.846-22.1-20.846s-20.668,5.307-22.1,20.846a1.845,1.845,0,0,0,1.832,2.019Z" transform="translate(-75.181 -155.066)" fill="#4d4dff"/>
              </g>
              <g id="Grupo_1158216" data-name="Grupo 1158216" transform="translate(77.578 17.959)">
                <path id="Trazado_992494" data-name="Trazado 992494" d="M310,110.709h-.376a5.024,5.024,0,0,0-5.018,5.018v4.919a5.024,5.024,0,0,0,5.018,5.018H310a5.023,5.023,0,0,0,5.018-5.018v-4.919A5.024,5.024,0,0,0,310,110.709Zm1.339,9.937A1.341,1.341,0,0,1,310,121.986h-.376a1.341,1.341,0,0,1-1.339-1.339v-4.919a1.341,1.341,0,0,1,1.339-1.339H310a1.341,1.341,0,0,1,1.339,1.339Z" transform="translate(-292.08 -110.709)" fill="#6c6cff"/>
                <path id="Trazado_992495" data-name="Trazado 992495" d="M279.127,110.709h-6.733a1.839,1.839,0,0,0,0,3.679h1.527v9.437a1.839,1.839,0,1,0,3.679,0v-9.437h1.527a1.839,1.839,0,0,0,0-3.679Z" transform="translate(-270.555 -110.709)" fill="#6c6cff"/>
                <path id="Trazado_992496" data-name="Trazado 992496" d="M387.853,110.709h-.376a5.024,5.024,0,0,0-5.018,5.018v4.919a5.024,5.024,0,0,0,5.018,5.018h.376a5.024,5.024,0,0,0,5.018-5.018v-4.919A5.023,5.023,0,0,0,387.853,110.709Zm1.339,9.937a1.341,1.341,0,0,1-1.339,1.339h-.376a1.341,1.341,0,0,1-1.339-1.339v-4.919a1.341,1.341,0,0,1,1.339-1.339h.376a1.341,1.341,0,0,1,1.339,1.339Z" transform="translate(-341.295 -110.709)" fill="#6c6cff"/>
                <path id="Trazado_992497" data-name="Trazado 992497" d="M353.178,110.709h-3.555a1.839,1.839,0,0,0-1.839,1.839v11.276a1.839,1.839,0,0,0,1.839,1.839h3.555a5.024,5.024,0,0,0,5.018-5.018v-4.919A5.023,5.023,0,0,0,353.178,110.709Zm1.339,9.937a1.341,1.341,0,0,1-1.339,1.339h-1.715v-7.6h1.715a1.341,1.341,0,0,1,1.339,1.339Z" transform="translate(-319.375 -110.709)" fill="#6c6cff"/>
              </g>
            </g>
            <g id="Grupo_1158218" data-name="Grupo 1158218" transform="translate(107.882 83.035)">
              <path id="Trazado_992498" data-name="Trazado 992498" d="M384.173,291.3h-5.4a1.839,1.839,0,1,1,0-3.679h5.4a1.839,1.839,0,0,1,0,3.679Z" transform="translate(-368.107 -287.617)" fill="#6c6cff"/>
              <path id="Trazado_992499" data-name="Trazado 992499" d="M369,308.872H354.774a1.839,1.839,0,0,1,0-3.679H369a1.839,1.839,0,1,1,0,3.679Z" transform="translate(-352.935 -298.728)" fill="#6c6cff"/>
            </g>
          </g>
          <g id="Grupo_1158224" data-name="Grupo 1158224">
            <g id="Grupo_1158220" data-name="Grupo 1158220" transform="translate(108.608 121.834)">
              <path id="Trazado_992500" data-name="Trazado 992500" d="M349.911,395.169V389.86a1.769,1.769,0,0,1,1.769-1.769h5.308a1.769,1.769,0,0,1,1.769,1.769v5.308a1.77,1.77,0,0,1-1.769,1.769H351.68A1.769,1.769,0,0,1,349.911,395.169Z" transform="translate(-349.911 -388.091)" fill="#ff6c6c"/>
              <path id="Trazado_992501" data-name="Trazado 992501" d="M349.911,442.074v-5.308A1.769,1.769,0,0,1,351.68,435h5.308a1.769,1.769,0,0,1,1.769,1.769v5.308a1.77,1.77,0,0,1-1.769,1.769H351.68A1.769,1.769,0,0,1,349.911,442.074Z" transform="translate(-349.911 -417.742)" fill="#ff6c6c"/>
            </g>
            <g id="Grupo_1158223" data-name="Grupo 1158223">
              <g id="Grupo_1158221" data-name="Grupo 1158221" transform="translate(91.354 121.834)">
                <path id="Trazado_992502" data-name="Trazado 992502" d="M398.585,388.091h5.308a1.769,1.769,0,0,1,1.769,1.769v5.308a1.77,1.77,0,0,1-1.769,1.769h-5.308a1.77,1.77,0,0,1-1.769-1.769V389.86A1.77,1.77,0,0,1,398.585,388.091Z" transform="translate(-362.308 -388.091)" fill="#ff6c6c"/>
                <path id="Trazado_992503" data-name="Trazado 992503" d="M304.775,388.091h5.308a1.769,1.769,0,0,1,1.769,1.769v5.308a1.77,1.77,0,0,1-1.769,1.769h-5.308a1.77,1.77,0,0,1-1.769-1.769V389.86A1.769,1.769,0,0,1,304.775,388.091Z" transform="translate(-303.006 -388.091)" fill="#ff6c6c"/>
              </g>
              <g id="Grupo_1158222" data-name="Grupo 1158222">
                <path id="Trazado_992504" data-name="Trazado 992504" d="M175.574,218.252H144.545l6.626-7.906a2.978,2.978,0,0,0,.615-2.546,44.026,44.026,0,0,1,4.474-3.414,10.792,10.792,0,0,0,4.89-5.8c1.741-4.271-.961-7.967-3.47-10.033l2.148-3.2a5.533,5.533,0,0,0-9.07-6.337l-11.183,15.376a2.869,2.869,0,0,0-.59-.047,2.964,2.964,0,0,0-2.237,1.079L123.741,211.2l-2.869-2.934V140.519a1.839,1.839,0,0,0-3.679,0v63.988l-.818-.836a12.138,12.138,0,0,0-5.611-3.257L96.937,196.8a2.722,2.722,0,0,1-1.553-1.091,21.847,21.847,0,0,0,7.625-9.121,7.22,7.22,0,0,0,1.371.136c3.322,0,6.119-2.394,6.939-6.158A8.173,8.173,0,0,0,110.67,175a6.61,6.61,0,0,0-.966-1.359,24.42,24.42,0,0,0,.182-4.811,3.657,3.657,0,0,0,.739-.616,3.7,3.7,0,0,0,.948-2.828c-1.358-14.73-9.634-22.516-23.933-22.516s-22.574,7.786-23.933,22.516a3.7,3.7,0,0,0,.948,2.828,3.656,3.656,0,0,0,.428.393,24.564,24.564,0,0,0,.166,5.034A6.611,6.611,0,0,0,64.285,175a8.175,8.175,0,0,0-.648,5.569c.82,3.764,3.617,6.158,6.94,6.158a7.216,7.216,0,0,0,1.37-.136,21.929,21.929,0,0,0,7.469,9.013,2.729,2.729,0,0,1-1.445,1.651L65,203.315a12.169,12.169,0,0,0-6.957,9.974l-3.37,39.8a1.839,1.839,0,0,0,1.678,1.988c.053,0,.105.007.157.007a1.84,1.84,0,0,0,1.83-1.684l3.371-39.8a8.482,8.482,0,0,1,4.849-6.951l12.974-6.061a6.409,6.409,0,0,0,3.184-3.3,13.7,13.7,0,0,0,9.357.068,6.393,6.393,0,0,0,3.938,3.01l13.828,3.612a8.461,8.461,0,0,1,3.91,2.27l8.8,9a1.839,1.839,0,0,0,2.734-.116l13.778-16.716,8.9,10.048L127.55,232.806a3.5,3.5,0,0,1-5.134.242l-11.271-11.133a1.839,1.839,0,0,0-3.125,1.46l2.491,30.019a1.84,1.84,0,0,0,1.831,1.687c.051,0,.1,0,.154-.007a1.839,1.839,0,0,0,1.681-1.985l-2.08-25.064,7.734,7.64a7.173,7.173,0,0,0,10.538-.5l11.094-13.238h34.112a1.839,1.839,0,1,0,0-3.679Zm-69.348-48.84a21.686,21.686,0,0,1-.022,2.21c-.037-.009-.072-.022-.109-.03a7.307,7.307,0,0,0-1.417-.164,20.538,20.538,0,0,0-.621-2.017Zm1.5,10.373c-.374,1.715-1.545,3.267-3.371,3.258a23,23,0,0,0,.97-6.469c0-.466-.019-.931-.05-1.395l.038.007a2.985,2.985,0,0,1,2.11,1.539,4.508,4.508,0,0,1,.3,3.06ZM87.641,146.547c12.45,0,19.08,6.272,20.272,19.186h0l-40.539-.011C68.562,152.82,75.192,146.547,87.641,146.547ZM70.277,171.428a7.31,7.31,0,0,0-1.416.164c-.04.009-.078.023-.118.032a21.875,21.875,0,0,1-.017-2.213H70.9a20.457,20.457,0,0,0-.624,2.016Zm-3.045,8.357a4.511,4.511,0,0,1,.3-3.06,2.985,2.985,0,0,1,2.11-1.539l.038-.006c-.031.463-.05.928-.05,1.395a22.994,22.994,0,0,0,.97,6.468c-1.829.009-3-1.543-3.371-3.258Zm6.079-3.21a17.037,17.037,0,0,1,1.567-7.162h25.2a17.042,17.042,0,0,1,1.569,7.162c0,8.272-6.189,17.888-14.168,17.888s-14.167-9.616-14.167-17.888Zm80.422,4.605a1.855,1.855,0,0,1,3.04,2.124l-3.145,4.688a1.844,1.844,0,0,0,.591,2.608c.05.03,4.984,3.022,3.525,6.6-.971,2.381-1.623,2.827-3.559,4.15a48.126,48.126,0,0,0-4.55,3.451l-7.184-8.109Z" transform="translate(-54.663 -108.593)" fill="#0000c9"/>
                <path id="Trazado_992505" data-name="Trazado 992505" d="M302.888,56.888h-72.72a5.524,5.524,0,0,0-5.518,5.518V80.442a1.839,1.839,0,0,0,3.679,0V62.406a1.841,1.841,0,0,1,1.839-1.839h72.72a1.841,1.841,0,0,1,1.839,1.839v102.3a1.841,1.841,0,0,1-1.839,1.839H291.4a1.839,1.839,0,0,0,0,3.679h11.484a5.524,5.524,0,0,0,5.518-5.518V62.406A5.524,5.524,0,0,0,302.888,56.888Z" transform="translate(-162.12 -56.888)" fill="#0000c9"/>
                <path id="Trazado_992506" data-name="Trazado 992506" d="M353.827,383.091h-5.308a3.613,3.613,0,0,0-3.609,3.609v5.308a3.613,3.613,0,0,0,3.609,3.609h5.308a3.613,3.613,0,0,0,3.609-3.609V386.7A3.613,3.613,0,0,0,353.827,383.091Zm-.07,8.847h-5.168V386.77h5.168Z" transform="translate(-238.141 -263.096)" fill="#0000c9"/>
                <path id="Trazado_992507" data-name="Trazado 992507" d="M353.827,430h-5.308a3.613,3.613,0,0,0-3.609,3.609v5.308a3.613,3.613,0,0,0,3.609,3.609h5.308a3.613,3.613,0,0,0,3.609-3.609v-5.308A3.613,3.613,0,0,0,353.827,430Zm-.07,8.847h-5.168v-5.168h5.168Z" transform="translate(-238.141 -292.747)" fill="#0000c9"/>
                <path id="Trazado_992508" data-name="Trazado 992508" d="M400.733,383.091h-5.308a3.613,3.613,0,0,0-3.609,3.609v5.308a3.613,3.613,0,0,0,3.609,3.609h5.308a3.613,3.613,0,0,0,3.609-3.609V386.7A3.613,3.613,0,0,0,400.733,383.091Zm-.07,8.847h-5.168V386.77h5.168Z" transform="translate(-267.793 -263.096)" fill="#0000c9"/>
                <path id="Trazado_992509" data-name="Trazado 992509" d="M306.922,383.091h-5.308a3.613,3.613,0,0,0-3.609,3.609v5.308a3.613,3.613,0,0,0,3.609,3.609h5.308a3.613,3.613,0,0,0,3.609-3.609V386.7A3.613,3.613,0,0,0,306.922,383.091Zm-.07,8.847h-5.168V386.77h5.168Z" transform="translate(-208.491 -263.096)" fill="#0000c9"/>
              </g>
            </g>
          </g>
        </g>
        <path id="Trazado_992510" data-name="Trazado 992510" d="M179.139,77.53h-3.679a3.683,3.683,0,0,1-3.679-3.679V70.173a3.683,3.683,0,0,1,3.679-3.679h3.679a3.683,3.683,0,0,1,3.679,3.679v3.679A3.683,3.683,0,0,1,179.139,77.53Zm-3.679-7.357v3.679h3.681l0-3.679Z" transform="translate(-121.343 -62.96)" fill="#ff9b33"/>
        <path id="Trazado_992511" data-name="Trazado 992511" d="M42.021,292.277H38.343a3.683,3.683,0,0,1-3.679-3.679V284.92a3.683,3.683,0,0,1,3.679-3.679h3.679A3.683,3.683,0,0,1,45.7,284.92V288.6A3.683,3.683,0,0,1,42.021,292.277Zm-3.679-7.357V288.6h3.681l0-3.679Z" transform="translate(-34.664 -198.712)" fill="#6c6cff"/>
        <g id="Grupo_1158227" data-name="Grupo 1158227" transform="translate(32.779 14.284)">
          <g id="Grupo_1158226" data-name="Grupo 1158226">
            <path id="Trazado_992512" data-name="Trazado 992512" d="M129.289,106.753a1.839,1.839,0,0,1-1.839-1.839v-.734a1.1,1.1,0,0,0-1.1-1.1h-.734a1.839,1.839,0,0,1,0-3.679h.734a1.1,1.1,0,0,0,1.1-1.1v-.735a1.839,1.839,0,1,1,3.679,0v.735a1.1,1.1,0,0,0,1.1,1.1h.734a1.839,1.839,0,1,1,0,3.679h-.734a1.1,1.1,0,0,0-1.1,1.1v.735A1.84,1.84,0,0,1,129.289,106.753Z" transform="translate(-123.773 -95.72)" fill="#ff6c6c"/>
          </g>
        </g>
        <g id="Grupo_1158229" data-name="Grupo 1158229" transform="translate(157.198 67.728)">
          <g id="Grupo_1158228" data-name="Grupo 1158228">
            <path id="Trazado_992513" data-name="Trazado 992513" d="M467.517,252.037a1.839,1.839,0,0,1-1.839-1.839v-.734a1.1,1.1,0,0,0-1.1-1.1h-.734a1.839,1.839,0,0,1,0-3.679h.734a1.1,1.1,0,0,0,1.1-1.1v-.734a1.839,1.839,0,1,1,3.679,0v.734a1.1,1.1,0,0,0,1.1,1.1h.734a1.839,1.839,0,0,1,0,3.679h-.734a1.1,1.1,0,0,0-1.1,1.1v.734A1.839,1.839,0,0,1,467.517,252.037Z" transform="translate(-462.001 -241.004)" fill="#ff6c6c"/>
          </g>
        </g>
        <g id="Grupo_1158231" data-name="Grupo 1158231" transform="translate(141.805 142.401)">
          <g id="Grupo_1158230" data-name="Grupo 1158230">
            <path id="Trazado_992514" data-name="Trazado 992514" d="M425.672,455.033a1.839,1.839,0,0,1-1.839-1.839v-.734a1.1,1.1,0,0,0-1.1-1.1H422a1.839,1.839,0,0,1,0-3.679h.734a1.1,1.1,0,0,0,1.1-1.1v-.735a1.839,1.839,0,1,1,3.679,0v.734a1.1,1.1,0,0,0,1.1,1.1h.734a1.839,1.839,0,1,1,0,3.679h-.734a1.1,1.1,0,0,0-1.1,1.1v.734A1.839,1.839,0,0,1,425.672,455.033Z" transform="translate(-420.156 -444)" fill="#6c6cff"/>
          </g>
        </g>
      </g>
    </g>
  </g>
</svg>
