<svg xmlns="http://www.w3.org/2000/svg" xmlns:xlink="http://www.w3.org/1999/xlink" width="108" height="108" viewBox="0 0 108 108">
  <defs>
    <filter id="Trazado_982547" x="0" y="0" width="108" height="108" filterUnits="userSpaceOnUse">
      <feOffset dy="3" input="SourceAlpha"/>
      <feGaussianBlur stdDeviation="3" result="blur"/>
      <feFlood flood-opacity="0.161"/>
      <feComposite operator="in" in2="blur"/>
      <feComposite in="SourceGraphic"/>
    </filter>
  </defs>
  <g id="Grupo_1165346" data-name="Grupo 1165346" transform="translate(-327 -5572)">
    <g id="Grupo_1160998" data-name="Grupo 1160998" transform="translate(0 2304)">
      <g id="Grupo_1160770" data-name="Grupo 1160770" transform="translate(336 3274)">
        <g id="Grupo_1149835" data-name="Grupo 1149835">
          <g id="Grupo_1149673" data-name="Grupo 1149673">
            <g id="Grupo_1148532" data-name="Grupo 1148532">
              <g id="Grupo_1147065" data-name="Grupo 1147065">
                <g transform="matrix(1, 0, 0, 1, -9, -6)" filter="url(#Trazado_982547)">
                  <g id="Trazado_982547-2" data-name="Trazado 982547" transform="translate(9 6)" fill="#f5e9fe">
                    <path d="M 45 88.5 C 39.12687683105469 88.5 33.43022537231445 87.35007476806641 28.06830024719238 85.08217620849609 C 22.88852500915527 82.89131164550781 18.23629951477051 79.75458526611328 14.2408504486084 75.75914764404297 C 10.24541282653809 71.76370239257812 7.108687400817871 67.11147308349609 4.917825222015381 61.93170166015625 C 2.649924993515015 56.56977462768555 1.5 50.87312316894531 1.5 45 C 1.5 39.12687683105469 2.649924993515015 33.43022537231445 4.917825222015381 28.06830024719238 C 7.108687400817871 22.88852500915527 10.24541282653809 18.23629951477051 14.2408504486084 14.2408504486084 C 18.23629951477051 10.24541282653809 22.88852500915527 7.108687400817871 28.06830024719238 4.917825222015381 C 33.43022537231445 2.649924993515015 39.12687683105469 1.5 45 1.5 C 50.87312316894531 1.5 56.56977462768555 2.649924993515015 61.93170166015625 4.917825222015381 C 67.11147308349609 7.108687400817871 71.76370239257812 10.24541282653809 75.75914764404297 14.2408504486084 C 79.75458526611328 18.23629951477051 82.89131164550781 22.88852500915527 85.08217620849609 28.06830024719238 C 87.35007476806641 33.43022537231445 88.5 39.12687683105469 88.5 45 C 88.5 50.87312316894531 87.35007476806641 56.56977462768555 85.08217620849609 61.93170166015625 C 82.89131164550781 67.11147308349609 79.75458526611328 71.76370239257812 75.75914764404297 75.75914764404297 C 71.76370239257812 79.75458526611328 67.11147308349609 82.89131164550781 61.93170166015625 85.08217620849609 C 56.56977462768555 87.35007476806641 50.87312316894531 88.5 45 88.5 Z" stroke="none"/>
                    <path d="M 45 3 C 39.32871246337891 3 33.82865524291992 4.110054016113281 28.65262985229492 6.299339294433594 C 23.65165710449219 8.414573669433594 19.15968322753906 11.44334411621094 15.301513671875 15.301513671875 C 11.44334411621094 19.15968322753906 8.414573669433594 23.65165710449219 6.299339294433594 28.65262985229492 C 4.110054016113281 33.82865524291992 3 39.32871246337891 3 45 C 3 50.67128753662109 4.110054016113281 56.17134475708008 6.299339294433594 61.34737396240234 C 8.414573669433594 66.34834289550781 11.44334411621094 70.84031677246094 15.301513671875 74.698486328125 C 19.15968322753906 78.55665588378906 23.65165710449219 81.58542633056641 28.65262985229492 83.70066070556641 C 33.82865524291992 85.88994598388672 39.32871246337891 87 45 87 C 50.67128753662109 87 56.17134475708008 85.88994598388672 61.34737396240234 83.70066070556641 C 66.34834289550781 81.58542633056641 70.84031677246094 78.55665588378906 74.698486328125 74.698486328125 C 78.55665588378906 70.84031677246094 81.58542633056641 66.34834289550781 83.70066070556641 61.34737396240234 C 85.88994598388672 56.17134475708008 87 50.67128753662109 87 45 C 87 39.32871246337891 85.88994598388672 33.82865524291992 83.70066070556641 28.65262985229492 C 81.58542633056641 23.65165710449219 78.55665588378906 19.15968322753906 74.698486328125 15.301513671875 C 70.84031677246094 11.44334411621094 66.34834289550781 8.414573669433594 61.34737396240234 6.299339294433594 C 56.17134475708008 4.110054016113281 50.67128753662109 3 45 3 M 45 0 C 69.85281372070312 0 90 20.14718627929688 90 45 C 90 69.85281372070312 69.85281372070312 90 45 90 C 20.14718627929688 90 0 69.85281372070312 0 45 C 0 20.14718627929688 20.14718627929688 0 45 0 Z" stroke="none" fill="#a530fe"/>
                  </g>
                </g>
              </g>
            </g>
          </g>
        </g>
      </g>
    </g>
    <g id="red_1_" data-name="red (1)" transform="translate(351 5593)">
      <g id="Grupo_1165318" data-name="Grupo 1165318" transform="translate(43.785 37.254)">
        <g id="Grupo_1165314" data-name="Grupo 1165314" transform="translate(0 9.33)">
          <path id="Trazado_1014664" data-name="Trazado 1014664" d="M379.24,407.683v5.132H393.7v-5.132a4.2,4.2,0,0,0-4.2-4.2h-6.065A4.2,4.2,0,0,0,379.24,407.683Z" transform="translate(-379.24 -403.484)" fill="#e69642"/>
        </g>
        <g id="Grupo_1165315" data-name="Grupo 1165315" transform="translate(7.231 9.33)">
          <path id="Trazado_1014665" data-name="Trazado 1014665" d="M444.9,403.484H441.87a4.2,4.2,0,0,1,4.2,4.2v5.132H449.1v-5.132A4.2,4.2,0,0,0,444.9,403.484Z" transform="translate(-441.87 -403.484)" fill="#e38523"/>
        </g>
        <g id="Grupo_1165316" data-name="Grupo 1165316" transform="translate(2.566)">
          <circle id="Elipse_12199" data-name="Elipse 12199" cx="4.665" cy="4.665" r="4.665" fill="#fed2a4"/>
        </g>
        <g id="Grupo_1165317" data-name="Grupo 1165317" transform="translate(3.113 0.548)">
          <path id="Trazado_1014666" data-name="Trazado 1014666" d="M412.517,327.413a4.665,4.665,0,0,1-6.311,6.311,4.665,4.665,0,1,0,6.311-6.311Z" transform="translate(-406.206 -327.413)" fill="#ffbd86"/>
        </g>
      </g>
      <g id="Grupo_1165323" data-name="Grupo 1165323" transform="translate(0.866 37.254)">
        <g id="Grupo_1165319" data-name="Grupo 1165319" transform="translate(0 9.33)">
          <path id="Trazado_1014667" data-name="Trazado 1014667" d="M7.5,407.683v5.132H21.962v-5.132a4.2,4.2,0,0,0-4.2-4.2H11.7a4.2,4.2,0,0,0-4.2,4.2Z" transform="translate(-7.5 -403.484)" fill="#ad7fdd"/>
        </g>
        <g id="Grupo_1165320" data-name="Grupo 1165320" transform="translate(7.231 9.33)">
          <path id="Trazado_1014668" data-name="Trazado 1014668" d="M73.162,403.484H70.13a4.2,4.2,0,0,1,4.2,4.2v5.132h3.032v-5.132a4.2,4.2,0,0,0-4.2-4.2Z" transform="translate(-70.13 -403.484)" fill="#9d66d6"/>
        </g>
        <g id="Grupo_1165321" data-name="Grupo 1165321" transform="translate(2.566)">
          <circle id="Elipse_12200" data-name="Elipse 12200" cx="4.665" cy="4.665" r="4.665" fill="#fed2a4"/>
        </g>
        <g id="Grupo_1165322" data-name="Grupo 1165322" transform="translate(3.113 0.548)">
          <path id="Trazado_1014669" data-name="Trazado 1014669" d="M40.776,327.413a4.666,4.666,0,0,1-6.311,6.311,4.665,4.665,0,1,0,6.311-6.311Z" transform="translate(-34.465 -327.413)" fill="#ffbd86"/>
        </g>
      </g>
      <g id="Grupo_1165328" data-name="Grupo 1165328" transform="translate(43.785 3.198)">
        <g id="Grupo_1165324" data-name="Grupo 1165324" transform="translate(0 9.33)">
          <path id="Trazado_1014670" data-name="Trazado 1014670" d="M379.24,112.715v5.132H393.7v-5.132a4.2,4.2,0,0,0-4.2-4.2h-6.065A4.2,4.2,0,0,0,379.24,112.715Z" transform="translate(-379.24 -108.516)" fill="#62a4fb"/>
        </g>
        <g id="Grupo_1165325" data-name="Grupo 1165325" transform="translate(7.231 9.33)">
          <path id="Trazado_1014671" data-name="Trazado 1014671" d="M444.9,108.516H441.87a4.2,4.2,0,0,1,4.2,4.2v5.132H449.1v-5.132A4.2,4.2,0,0,0,444.9,108.516Z" transform="translate(-441.87 -108.516)" fill="#5392f9"/>
        </g>
        <g id="Grupo_1165326" data-name="Grupo 1165326" transform="translate(2.566)">
          <circle id="Elipse_12201" data-name="Elipse 12201" cx="4.665" cy="4.665" r="4.665" fill="#fed2a4"/>
        </g>
        <g id="Grupo_1165327" data-name="Grupo 1165327" transform="translate(3.113 0.547)">
          <path id="Trazado_1014672" data-name="Trazado 1014672" d="M412.517,32.445a4.666,4.666,0,0,1-6.311,6.311,4.665,4.665,0,1,0,6.311-6.311Z" transform="translate(-406.206 -32.445)" fill="#ffbd86"/>
        </g>
      </g>
      <g id="Grupo_1165333" data-name="Grupo 1165333" transform="translate(0.866 3.198)">
        <g id="Grupo_1165329" data-name="Grupo 1165329" transform="translate(0 9.33)">
          <path id="Trazado_1014673" data-name="Trazado 1014673" d="M7.5,112.715v5.132H21.962v-5.132a4.2,4.2,0,0,0-4.2-4.2H11.7a4.2,4.2,0,0,0-4.2,4.2Z" transform="translate(-7.5 -108.516)" fill="#e175a5"/>
        </g>
        <g id="Grupo_1165330" data-name="Grupo 1165330" transform="translate(7.231 9.33)">
          <path id="Trazado_1014674" data-name="Trazado 1014674" d="M73.162,108.516H70.13a4.2,4.2,0,0,1,4.2,4.2v5.132h3.032v-5.132a4.2,4.2,0,0,0-4.2-4.2Z" transform="translate(-70.13 -108.516)" fill="#de5791"/>
        </g>
        <g id="Grupo_1165331" data-name="Grupo 1165331" transform="translate(2.566)">
          <circle id="Elipse_12202" data-name="Elipse 12202" cx="4.665" cy="4.665" r="4.665" fill="#fed2a4"/>
        </g>
        <g id="Grupo_1165332" data-name="Grupo 1165332" transform="translate(3.113 0.547)">
          <path id="Trazado_1014675" data-name="Trazado 1014675" d="M40.776,32.445a4.666,4.666,0,0,1-6.311,6.311,4.665,4.665,0,1,0,6.311-6.311Z" transform="translate(-34.465 -32.445)" fill="#ffbd86"/>
        </g>
      </g>
      <g id="Grupo_1165340" data-name="Grupo 1165340" transform="translate(21.081 21.081)">
        <g id="Grupo_1165336" data-name="Grupo 1165336">
          <g id="Grupo_1165334" data-name="Grupo 1165334">
            <circle id="Elipse_12203" data-name="Elipse 12203" cx="8.476" cy="8.476" r="8.476" fill="#a2f5c3"/>
          </g>
          <g id="Grupo_1165335" data-name="Grupo 1165335" transform="translate(1.341 1.341)">
            <path id="Trazado_1014676" data-name="Trazado 1014676" d="M205.912,194.2A8.474,8.474,0,0,1,194.2,205.912,8.475,8.475,0,1,0,205.912,194.2Z" transform="translate(-194.204 -194.204)" fill="#88f2a9"/>
          </g>
        </g>
        <g id="Grupo_1165339" data-name="Grupo 1165339" transform="translate(4.16 4.889)">
          <g id="Grupo_1165338" data-name="Grupo 1165338">
            <g id="Grupo_1165337" data-name="Grupo 1165337">
              <path id="Trazado_1014677" data-name="Trazado 1014677" d="M221.94,232.1a1.866,1.866,0,0,1-1.319-.547l-1.458-1.458a1.866,1.866,0,0,1,2.639-2.639l.139.138,2.123-2.123a1.866,1.866,0,1,1,2.639,2.639l-3.442,3.442A1.865,1.865,0,0,1,221.94,232.1Z" transform="translate(-218.616 -224.93)" fill="#e6f7fe"/>
            </g>
          </g>
        </g>
      </g>
      <g id="Grupo_1165341" data-name="Grupo 1165341" transform="translate(26.524 0.866)">
        <circle id="Elipse_12204" data-name="Elipse 12204" cx="3.032" cy="3.032" r="3.032" fill="#a2f5c3"/>
      </g>
      <g id="Grupo_1165342" data-name="Grupo 1165342" transform="translate(52.183 26.524)">
        <circle id="Elipse_12205" data-name="Elipse 12205" cx="3.032" cy="3.032" r="3.032" fill="#a2f5c3"/>
      </g>
      <g id="Grupo_1165343" data-name="Grupo 1165343" transform="translate(0.866 26.524)">
        <circle id="Elipse_12206" data-name="Elipse 12206" cx="3.032" cy="3.032" r="3.032" fill="#a2f5c3"/>
      </g>
      <g id="Grupo_1165344" data-name="Grupo 1165344" transform="translate(26.524 52.183)">
        <circle id="Elipse_12207" data-name="Elipse 12207" cx="3.032" cy="3.032" r="3.032" fill="#a2f5c3"/>
      </g>
      <g id="Grupo_1165345" data-name="Grupo 1165345" transform="translate(0 0)">
        <path id="Trazado_1014678" data-name="Trazado 1014678" d="M58.247,22.725a.866.866,0,0,0,.866-.866V16.727a5.072,5.072,0,0,0-4.161-4.982,5.53,5.53,0,1,0-9.467-3.882c0,.169.009.336.024.5a26.41,26.41,0,0,0-12.1-5.052,3.9,3.9,0,0,0-7.708,0A26.408,26.408,0,0,0,13.6,8.365c.015-.165.024-.332.024-.5a5.531,5.531,0,1,0-9.466,3.882A5.071,5.071,0,0,0,0,16.727v5.132a.866.866,0,0,0,.866.866H3.922A26.463,26.463,0,0,0,3.311,25.7a3.9,3.9,0,0,0,0,7.708,26.444,26.444,0,0,0,1.045,4.438,5.52,5.52,0,0,0-.2,7.952A5.072,5.072,0,0,0,0,50.783v5.132a.866.866,0,0,0,.866.866H15.328a.866.866,0,0,0,.866-.866V52.471A26.573,26.573,0,0,0,25.7,55.8a3.9,3.9,0,0,0,7.708,0,26.573,26.573,0,0,0,9.509-3.331v3.444a.866.866,0,0,0,.866.866h4.778a.866.866,0,0,0,0-1.732H44.651V50.783a3.337,3.337,0,0,1,3.333-3.333h6.064a3.337,3.337,0,0,1,3.333,3.333v4.266H52.6a.866.866,0,0,0,0,1.732h5.643a.866.866,0,0,0,.866-.866V50.783A5.072,5.072,0,0,0,54.952,45.8a5.52,5.52,0,0,0-.2-7.951A26.447,26.447,0,0,0,55.8,33.411a3.9,3.9,0,0,0,0-7.708,26.46,26.46,0,0,0-.611-2.978Zm-.866-6v4.266H44.651V16.727a3.336,3.336,0,0,1,3.333-3.333h6.065A3.337,3.337,0,0,1,57.381,16.727ZM51.016,4.064a3.8,3.8,0,1,1-3.8,3.8A3.8,3.8,0,0,1,51.016,4.064ZM29.557,1.732A2.166,2.166,0,1,1,27.39,3.9,2.169,2.169,0,0,1,29.557,1.732ZM8.1,4.064a3.8,3.8,0,1,1-3.8,3.8A3.8,3.8,0,0,1,8.1,4.064ZM1.732,29.557A2.166,2.166,0,1,1,3.9,31.723a2.169,2.169,0,0,1-2.166-2.166ZM8.1,38.12a3.8,3.8,0,1,1-3.8,3.8A3.8,3.8,0,0,1,8.1,38.12ZM1.732,55.049V50.783A3.336,3.336,0,0,1,5.065,47.45h6.065a3.336,3.336,0,0,1,3.333,3.333v4.266Zm27.825,2.333a2.166,2.166,0,1,1,2.167-2.166A2.169,2.169,0,0,1,29.557,57.381ZM51.034,45.718H51a3.8,3.8,0,1,1,.036,0Zm6.347-16.161a2.166,2.166,0,1,1-2.167-2.166A2.169,2.169,0,0,1,57.381,29.557ZM54.07,25.83a3.9,3.9,0,0,0,0,7.452,24.729,24.729,0,0,1-.817,3.579A5.528,5.528,0,0,0,47.081,45.8a5.073,5.073,0,0,0-4.147,4.63,24.819,24.819,0,0,1-9.65,3.64,3.9,3.9,0,0,0-7.453,0,24.82,24.82,0,0,1-9.65-3.64A5.073,5.073,0,0,0,12.033,45.8a5.528,5.528,0,0,0-6.172-8.939,24.729,24.729,0,0,1-.817-3.579,3.9,3.9,0,0,0,0-7.452,24.7,24.7,0,0,1,.675-3.105H7.471a.866.866,0,1,0,0-1.732H1.732V16.727A3.336,3.336,0,0,1,5.065,13.4h6.064a3.336,3.336,0,0,1,3.333,3.332v4.266h-2.95a.866.866,0,0,0,0,1.732h3.816a.866.866,0,0,0,.866-.866V16.727a5.072,5.072,0,0,0-3.931-4.934A24.712,24.712,0,0,1,25.831,5.044a3.9,3.9,0,0,0,7.452,0A24.712,24.712,0,0,1,46.85,11.793a5.072,5.072,0,0,0-3.93,4.935v5.132a.866.866,0,0,0,.866.866h9.609a24.7,24.7,0,0,1,.675,3.105Z" transform="translate(0 0)"/>
        <path id="Trazado_1014679" data-name="Trazado 1014679" d="M191.227,179.29a.866.866,0,0,0-.289,1.19,7.6,7.6,0,1,1-2.554-2.554.866.866,0,0,0,.9-1.479,9.337,9.337,0,1,0,3.131,3.131A.866.866,0,0,0,191.227,179.29Z" transform="translate(-154.876 -154.875)"/>
        <path id="Trazado_1014680" data-name="Trazado 1014680" d="M218.749,217.43a2.713,2.713,0,0,0-1.932.8l-1.569,1.569a2.732,2.732,0,0,0-3.331,4.279l1.458,1.458a2.732,2.732,0,0,0,3.864,0l3.442-3.442a2.732,2.732,0,0,0-1.932-4.664Zm.707,3.439-3.442,3.442a1,1,0,0,1-1.414,0l-1.458-1.458a1,1,0,1,1,1.414-1.414l.138.138a.866.866,0,0,0,1.225,0l2.123-2.123a1,1,0,1,1,1.414,1.414Z" transform="translate(-186.742 -192.326)"/>
        <path id="Trazado_1014681" data-name="Trazado 1014681" d="M249.366,93.233a.866.866,0,0,0,.866-.866V85.719a.866.866,0,0,0-1.732,0v6.648A.866.866,0,0,0,249.366,93.233Z" transform="translate(-219.809 -75.056)"/>
        <path id="Trazado_1014682" data-name="Trazado 1014682" d="M354.567,249.366a.866.866,0,0,0,.866.866h6.648a.866.866,0,0,0,0-1.732h-6.648A.866.866,0,0,0,354.567,249.366Z" transform="translate(-313.63 -219.809)"/>
        <path id="Trazado_1014683" data-name="Trazado 1014683" d="M249.366,354.567a.866.866,0,0,0-.866.866v6.648a.866.866,0,0,0,1.732,0v-6.648A.866.866,0,0,0,249.366,354.567Z" transform="translate(-219.809 -313.63)"/>
        <path id="Trazado_1014684" data-name="Trazado 1014684" d="M92.368,248.5H85.72a.866.866,0,0,0,0,1.732h6.648a.866.866,0,0,0,0-1.732Z" transform="translate(-75.057 -219.809)"/>
      </g>
    </g>
  </g>
</svg>
