<svg xmlns="http://www.w3.org/2000/svg" xmlns:xlink="http://www.w3.org/1999/xlink" width="108" height="108" viewBox="0 0 108 108">
  <defs>
    <filter id="Trazado_982548" x="0" y="0" width="108" height="108" filterUnits="userSpaceOnUse">
      <feOffset dy="3" input="SourceAlpha"/>
      <feGaussianBlur stdDeviation="3" result="blur"/>
      <feFlood flood-opacity="0.161"/>
      <feComposite operator="in" in2="blur"/>
      <feComposite in="SourceGraphic"/>
    </filter>
  </defs>
  <g id="Grupo_1165373" data-name="Grupo 1165373" transform="translate(-200 -2894)">
    <g id="Grupo_1163607" data-name="Grupo 1163607" transform="translate(-1 1140)">
      <g id="Grupo_1158958" data-name="Grupo 1158958" transform="translate(-419 -1280)">
        <g id="Grupo_1153335" data-name="Grupo 1153335" transform="translate(629 3040)">
          <g id="Grupo_1149263" data-name="Grupo 1149263" transform="translate(0)">
            <g transform="matrix(1, 0, 0, 1, -9, -6)" filter="url(#Trazado_982548)">
              <g id="Trazado_982548-2" data-name="Trazado 982548" transform="translate(9 6)" fill="#f6f9fc">
                <path d="M 45 88.5 C 39.12687683105469 88.5 33.43022537231445 87.35007476806641 28.06830024719238 85.08217620849609 C 22.88852500915527 82.89131164550781 18.23629951477051 79.75458526611328 14.2408504486084 75.75914764404297 C 10.24541282653809 71.76370239257812 7.108687400817871 67.11147308349609 4.917825222015381 61.93170166015625 C 2.649924993515015 56.56977462768555 1.5 50.87312316894531 1.5 45 C 1.5 39.12687683105469 2.649924993515015 33.43022537231445 4.917825222015381 28.06830024719238 C 7.108687400817871 22.88852500915527 10.24541282653809 18.23629951477051 14.2408504486084 14.2408504486084 C 18.23629951477051 10.24541282653809 22.88852500915527 7.108687400817871 28.06830024719238 4.917825222015381 C 33.43022537231445 2.649924993515015 39.12687683105469 1.5 45 1.5 C 50.87312316894531 1.5 56.56977462768555 2.649924993515015 61.93170166015625 4.917825222015381 C 67.11147308349609 7.108687400817871 71.76370239257812 10.24541282653809 75.75914764404297 14.2408504486084 C 79.75458526611328 18.23629951477051 82.89131164550781 22.88852500915527 85.08217620849609 28.06830024719238 C 87.35007476806641 33.43022537231445 88.5 39.12687683105469 88.5 45 C 88.5 50.87312316894531 87.35007476806641 56.56977462768555 85.08217620849609 61.93170166015625 C 82.89131164550781 67.11147308349609 79.75458526611328 71.76370239257812 75.75914764404297 75.75914764404297 C 71.76370239257812 79.75458526611328 67.11147308349609 82.89131164550781 61.93170166015625 85.08217620849609 C 56.56977462768555 87.35007476806641 50.87312316894531 88.5 45 88.5 Z" stroke="none"/>
                <path d="M 45 3 C 39.32871246337891 3 33.82865524291992 4.110054016113281 28.65262985229492 6.299339294433594 C 23.65165710449219 8.414573669433594 19.15968322753906 11.44334411621094 15.301513671875 15.301513671875 C 11.44334411621094 19.15968322753906 8.414573669433594 23.65165710449219 6.299339294433594 28.65262985229492 C 4.110054016113281 33.82865524291992 3 39.32871246337891 3 45 C 3 50.67128753662109 4.110054016113281 56.17134475708008 6.299339294433594 61.34737396240234 C 8.414573669433594 66.34834289550781 11.44334411621094 70.84031677246094 15.301513671875 74.698486328125 C 19.15968322753906 78.55665588378906 23.65165710449219 81.58542633056641 28.65262985229492 83.70066070556641 C 33.82865524291992 85.88994598388672 39.32871246337891 87 45 87 C 50.67128753662109 87 56.17134475708008 85.88994598388672 61.34737396240234 83.70066070556641 C 66.34834289550781 81.58542633056641 70.84031677246094 78.55665588378906 74.698486328125 74.698486328125 C 78.55665588378906 70.84031677246094 81.58542633056641 66.34834289550781 83.70066070556641 61.34737396240234 C 85.88994598388672 56.17134475708008 87 50.67128753662109 87 45 C 87 39.32871246337891 85.88994598388672 33.82865524291992 83.70066070556641 28.65262985229492 C 81.58542633056641 23.65165710449219 78.55665588378906 19.15968322753906 74.698486328125 15.301513671875 C 70.84031677246094 11.44334411621094 66.34834289550781 8.414573669433594 61.34737396240234 6.299339294433594 C 56.17134475708008 4.110054016113281 50.67128753662109 3 45 3 M 45 0 C 69.85281372070312 0 90 20.14718627929688 90 45 C 90 69.85281372070312 69.85281372070312 90 45 90 C 20.14718627929688 90 0 69.85281372070312 0 45 C 0 20.14718627929688 20.14718627929688 0 45 0 Z" stroke="none" fill="#a530fe"/>
              </g>
            </g>
          </g>
        </g>
      </g>
    </g>
    <g id="gestion-de-equipos_3_" data-name="gestion-de-equipos (3)" transform="translate(225 2915.565)">
      <g id="Grupo_1161461" data-name="Grupo 1161461" transform="translate(16.039 1.283)">
        <g id="Grupo_1161456" data-name="Grupo 1161456" transform="translate(0 0)">
          <circle id="Elipse_12021" data-name="Elipse 12021" cx="12.906" cy="12.906" r="12.906" fill="#f7e365"/>
        </g>
        <g id="Grupo_1161457" data-name="Grupo 1161457" transform="translate(2.547 2.547)">
          <path id="Trazado_994991" data-name="Trazado 994991" d="M182.444,30.468a12.907,12.907,0,0,1-18.058,18.058,12.907,12.907,0,1,0,18.058-18.058Z" transform="translate(-164.386 -30.468)" fill="#f3d332"/>
        </g>
        <g id="Grupo_1161460" data-name="Grupo 1161460" transform="translate(5.217 4.774)">
          <g id="Grupo_1161458" data-name="Grupo 1161458">
            <path id="Trazado_994992" data-name="Trazado 994992" d="M201.393,58.25l1.678-1.822a1.142,1.142,0,0,0,.149-1.345l-.988-1.711a1.142,1.142,0,0,0-1.239-.543l-2.416.542-.077-.045-.739-2.364a1.142,1.142,0,0,0-1.09-.8H194.7a1.142,1.142,0,0,0-1.09.8l-.739,2.364-.077.045-2.416-.542a1.142,1.142,0,0,0-1.239.543l-.988,1.711a1.142,1.142,0,0,0,.149,1.345l1.678,1.822v.088L188.3,60.159a1.142,1.142,0,0,0-.149,1.345l.988,1.711a1.142,1.142,0,0,0,1.239.543l2.416-.542.077.045.739,2.364a1.142,1.142,0,0,0,1.09.8h1.975a1.142,1.142,0,0,0,1.09-.8l.739-2.364.077-.044,2.416.542a1.142,1.142,0,0,0,1.239-.543l.988-1.711a1.142,1.142,0,0,0-.149-1.345l-1.678-1.822V58.25Zm-5.71,1.871a1.827,1.827,0,1,1,1.827-1.827A1.827,1.827,0,0,1,195.684,60.121Z" transform="translate(-187.994 -50.161)" fill="#62a4fb"/>
          </g>
          <g id="Grupo_1161459" data-name="Grupo 1161459" transform="translate(5.007 2.64)">
            <path id="Trazado_994993" data-name="Trazado 994993" d="M240.674,79.044v-.088l1.678-1.822a1.142,1.142,0,0,0,.149-1.345l-.988-1.711a1.142,1.142,0,0,0-1.239-.543l-1.372.308a8.046,8.046,0,0,1-6.62,10.554l.6,1.935a1.142,1.142,0,0,0,1.09.8h1.975a1.142,1.142,0,0,0,1.09-.8l.739-2.364.077-.044,2.416.542a1.142,1.142,0,0,0,1.239-.543l.988-1.711a1.142,1.142,0,0,0-.149-1.345Z" transform="translate(-232.282 -73.507)" fill="#5392f9"/>
          </g>
        </g>
      </g>
      <g id="Grupo_1161477" data-name="Grupo 1161477" transform="translate(12.726 22.322)">
        <g id="Grupo_1161466" data-name="Grupo 1161466" transform="translate(18.276)">
          <g id="Grupo_1161462" data-name="Grupo 1161462" transform="translate(0 9.137)">
            <path id="Trazado_994994" data-name="Trazado 994994" d="M274.2,278.944v10.841h14.163V278.944a4.112,4.112,0,0,0-4.112-4.112H278.31A4.112,4.112,0,0,0,274.2,278.944Z" transform="translate(-274.198 -274.832)" fill="#e175a5"/>
          </g>
          <g id="Grupo_1161463" data-name="Grupo 1161463" transform="translate(0 9.137)">
            <path id="Trazado_994995" data-name="Trazado 994995" d="M281.964,278.943a6.818,6.818,0,0,0-1.374-4.112h-2.28a4.112,4.112,0,0,0-4.112,4.112v10.841h7.766Z" transform="translate(-274.198 -274.831)" fill="#de5791"/>
          </g>
          <g id="Grupo_1161464" data-name="Grupo 1161464" transform="translate(2.513)">
            <circle id="Elipse_12022" data-name="Elipse 12022" cx="4.569" cy="4.569" r="4.569" fill="#fed2a4"/>
          </g>
          <g id="Grupo_1161465" data-name="Grupo 1161465" transform="translate(3.049 0.536)">
            <path id="Trazado_994996" data-name="Trazado 994996" d="M307.344,198.759a4.569,4.569,0,0,1-6.18,6.18,4.569,4.569,0,1,0,6.18-6.18Z" transform="translate(-301.164 -198.759)" fill="#ffbd86"/>
          </g>
        </g>
        <g id="Grupo_1161471" data-name="Grupo 1161471">
          <g id="Grupo_1161467" data-name="Grupo 1161467" transform="translate(0 9.137)">
            <path id="Trazado_994997" data-name="Trazado 994997" d="M112.552,278.944v10.841h14.163V278.944a4.112,4.112,0,0,0-4.112-4.112h-5.939A4.112,4.112,0,0,0,112.552,278.944Z" transform="translate(-112.552 -274.832)" fill="#e175a5"/>
          </g>
          <g id="Grupo_1161468" data-name="Grupo 1161468" transform="translate(6.397 9.137)">
            <path id="Trazado_994998" data-name="Trazado 994998" d="M176.9,289.785V278.944a4.112,4.112,0,0,0-4.112-4.112H170.5a6.817,6.817,0,0,0-1.374,4.112v10.841Z" transform="translate(-169.13 -274.832)" fill="#de5791"/>
          </g>
          <g id="Grupo_1161469" data-name="Grupo 1161469" transform="translate(2.513)">
            <circle id="Elipse_12023" data-name="Elipse 12023" cx="4.569" cy="4.569" r="4.569" fill="#fed2a4"/>
          </g>
          <g id="Grupo_1161470" data-name="Grupo 1161470" transform="translate(3.049 0.536)">
            <path id="Trazado_994999" data-name="Trazado 994999" d="M145.7,198.759a4.569,4.569,0,0,1-6.18,6.18,4.569,4.569,0,1,0,6.18-6.18Z" transform="translate(-139.518 -198.759)" fill="#ffbd86"/>
          </g>
        </g>
        <g id="Grupo_1161476" data-name="Grupo 1161476" transform="translate(9.138)">
          <g id="Grupo_1161472" data-name="Grupo 1161472" transform="translate(0 9.137)">
            <path id="Trazado_995000" data-name="Trazado 995000" d="M193.375,278.944v10.841h14.163V278.944a4.112,4.112,0,0,0-4.112-4.112h-5.939A4.112,4.112,0,0,0,193.375,278.944Z" transform="translate(-193.375 -274.832)" fill="#62a4fb"/>
          </g>
          <g id="Grupo_1161473" data-name="Grupo 1161473" transform="translate(7.081 9.137)">
            <path id="Trazado_995001" data-name="Trazado 995001" d="M258.977,274.832h-2.97a4.112,4.112,0,0,1,4.112,4.112v10.841h2.97V278.944A4.112,4.112,0,0,0,258.977,274.832Z" transform="translate(-256.007 -274.832)" fill="#5392f9"/>
          </g>
          <g id="Grupo_1161474" data-name="Grupo 1161474" transform="translate(2.513)">
            <circle id="Elipse_12024" data-name="Elipse 12024" cx="4.569" cy="4.569" r="4.569" fill="#fed2a4"/>
          </g>
          <g id="Grupo_1161475" data-name="Grupo 1161475" transform="translate(3.049 0.536)">
            <path id="Trazado_995002" data-name="Trazado 995002" d="M226.521,198.759a4.569,4.569,0,0,1-6.18,6.18,4.569,4.569,0,1,0,6.18-6.18Z" transform="translate(-220.341 -198.759)" fill="#ffbd86"/>
          </g>
        </g>
      </g>
      <g id="Grupo_1161483" data-name="Grupo 1161483" transform="translate(0.848 36.993)">
        <g id="Grupo_1161478" data-name="Grupo 1161478" transform="translate(7.31 3.937)">
          <path id="Trazado_995003" data-name="Trazado 995003" d="M72.152,358.6h4.112v14.62H72.152Z" transform="translate(-72.152 -358.597)" fill="#d3effd"/>
        </g>
        <g id="Grupo_1161479" data-name="Grupo 1161479" transform="translate(11.422)">
          <path id="Trazado_995004" data-name="Trazado 995004" d="M152.489,324.578a2.741,2.741,0,0,0-3.877,0L140,333.195h-7.948a2.741,2.741,0,1,0,0-5.482h-8.68l-1.761-1.428a8.953,8.953,0,0,0-11.187-.073l-1.9,1.5v14.62l16.545,1.037a9.137,9.137,0,0,0,3.268-.389l12.853-3.969a4.569,4.569,0,0,0,1.882-1.135l9.422-9.422A2.741,2.741,0,0,0,152.489,324.578Z" transform="translate(-108.519 -323.775)" fill="#fed2a4"/>
        </g>
        <g id="Grupo_1161480" data-name="Grupo 1161480" transform="translate(27.844)">
          <path id="Trazado_995005" data-name="Trazado 995005" d="M281.311,324.578a2.741,2.741,0,0,0-3.877,0l-8.617,8.617h-1.635a33.558,33.558,0,0,1-2.748,3.109,30.683,30.683,0,0,1-10.672,7.059l.123.008a9.136,9.136,0,0,0,3.268-.389l12.853-3.969a4.569,4.569,0,0,0,1.882-1.135l9.422-9.422A2.741,2.741,0,0,0,281.311,324.578Z" transform="translate(-253.763 -323.775)" fill="#ffbd86"/>
        </g>
        <g id="Grupo_1161481" data-name="Grupo 1161481" transform="translate(0 2.11)">
          <path id="Trazado_995006" data-name="Trazado 995006" d="M7.5,342.434h7.31v18.275H7.5Z" transform="translate(-7.5 -342.434)" fill="#62a4fb"/>
        </g>
        <g id="Grupo_1161482" data-name="Grupo 1161482" transform="translate(4.797 2.11)">
          <path id="Trazado_995007" data-name="Trazado 995007" d="M49.928,342.434h2.513v18.275H49.928Z" transform="translate(-49.928 -342.434)" fill="#5392f9"/>
        </g>
      </g>
      <g id="Grupo_1161484" data-name="Grupo 1161484" transform="translate(0 0.435)">
        <circle id="Elipse_12025" data-name="Elipse 12025" cx="0.914" cy="0.914" r="0.914" transform="translate(3.589 41.409)"/>
        <circle id="Elipse_12026" data-name="Elipse 12026" cx="0.914" cy="0.914" r="0.914" transform="translate(3.589 45.064)"/>
        <path id="Trazado_995008" data-name="Trazado 995008" d="M237.694,101.1a2.675,2.675,0,1,0-2.675,2.675A2.679,2.679,0,0,0,237.694,101.1Zm-2.675.979A.979.979,0,1,1,236,101.1.981.981,0,0,1,235.019,102.081Z" transform="translate(-206.073 -87.347)"/>
        <path id="Trazado_995009" data-name="Trazado 995009" d="M56.839,37.2a3.589,3.589,0,0,0-5.076,0l-5.75,5.751V40.157a.848.848,0,0,0-1.7,0v4.487l-.921.921H38.846a3.591,3.591,0,0,0-1.972-5.319V35.571a4.938,4.938,0,0,0-1.23-3.264h5.409a3.267,3.267,0,0,1,3.263,3.264V36.2a.848.848,0,1,0,1.7,0v-.628a4.967,4.967,0,0,0-4.075-4.88A5.41,5.41,0,0,0,40.3,21.951a13.793,13.793,0,0,0,2.4-7.761,13.636,13.636,0,0,0-4.144-9.838.848.848,0,0,0-1.184,1.214A11.953,11.953,0,0,1,41,14.19a12.087,12.087,0,0,1-2.465,7.305c-.15-.013-.3-.021-.456-.021a5.416,5.416,0,0,0-4.569,2.513,5.456,5.456,0,0,0-1.871-1.79,2.012,2.012,0,0,0,.189-.424l.524-1.676,1.713.384a1.981,1.981,0,0,0,2.159-.947l.988-1.711a1.982,1.982,0,0,0-.26-2.343l-1.19-1.291,1.19-1.291a1.981,1.981,0,0,0,.26-2.343l-.988-1.711A1.982,1.982,0,0,0,34.069,7.9l-1.713.384-.524-1.676a1.982,1.982,0,0,0-1.9-1.4H27.957a1.982,1.982,0,0,0-1.9,1.4l-.524,1.676L23.821,7.9a1.982,1.982,0,0,0-2.159.947l-.988,1.711a1.982,1.982,0,0,0,.26,2.343l1.19,1.291-1.19,1.291a1.982,1.982,0,0,0-.26,2.343l.988,1.711a1.982,1.982,0,0,0,2.159.947l1.713-.384.524,1.676a2.007,2.007,0,0,0,.189.424,5.455,5.455,0,0,0-1.871,1.79,5.416,5.416,0,0,0-4.569-2.513c-.154,0-.306.008-.456.021A12.059,12.059,0,0,1,28.945,2.131a11.936,11.936,0,0,1,5.428,1.288.848.848,0,1,0,.764-1.514A13.615,13.615,0,0,0,28.945.435,13.755,13.755,0,0,0,17.589,21.951a5.41,5.41,0,0,0-1.636,8.741,4.967,4.967,0,0,0-4.075,4.879v4.511H9.006V39.1a.848.848,0,0,0-.848-.848H.848A.848.848,0,0,0,0,39.1V57.378a.848.848,0,0,0,.848.848h7.31a.848.848,0,0,0,.848-.848V56.4h3.243l11.121.7a.848.848,0,1,0,.106-1.693l-10.358-.65V41.341L14.7,40.1a8.1,8.1,0,0,1,10.126.067l1.762,1.427a.848.848,0,0,0,.534.189H35.8a1.893,1.893,0,0,1,0,3.787H25.976a.848.848,0,0,0-.6.248l-1.2,1.2a.848.848,0,1,0,1.2,1.2l.951-.951h17.42a.848.848,0,0,0,.6-.248L52.962,38.4a1.893,1.893,0,1,1,2.678,2.678L46.218,50.5a3.733,3.733,0,0,1-1.533.924l-12.854,3.97a8.248,8.248,0,0,1-2.964.353l-1.442-.09a.848.848,0,1,0-.106,1.693l1.442.09q.316.02.63.02a9.924,9.924,0,0,0,2.941-.445l12.853-3.97a5.435,5.435,0,0,0,2.232-1.345l9.422-9.422a3.594,3.594,0,0,0,0-5.077ZM38.083,23.17a3.721,3.721,0,1,1-3.721,3.721,3.725,3.725,0,0,1,3.721-3.721Zm-10.126-1.7a.293.293,0,0,1-.281-.206L26.938,18.9a.848.848,0,0,0-.385-.481l-.077-.044a.848.848,0,0,0-.61-.093l-2.416.542a.293.293,0,0,1-.319-.14l-.988-1.711a.293.293,0,0,1,.038-.346l1.678-1.822a.848.848,0,0,0,.224-.574v-.088a.848.848,0,0,0-.224-.574l-1.678-1.822a.293.293,0,0,1-.038-.346l.988-1.711a.294.294,0,0,1,.319-.14l2.416.542a.847.847,0,0,0,.61-.093l.077-.044a.848.848,0,0,0,.385-.481l.739-2.364a.293.293,0,0,1,.281-.206h1.976a.293.293,0,0,1,.281.206l.739,2.364a.847.847,0,0,0,.385.481l.077.045a.848.848,0,0,0,.61.093l2.416-.542a.293.293,0,0,1,.319.14l.988,1.711a.293.293,0,0,1-.038.346l-1.678,1.822a.848.848,0,0,0-.224.574v.088a.848.848,0,0,0,.224.574l1.678,1.822a.293.293,0,0,1,.038.346l-.988,1.711a.293.293,0,0,1-.319.14l-2.416-.542a.847.847,0,0,0-.609.093l-.078.045a.848.848,0,0,0-.385.481l-.739,2.364a.293.293,0,0,1-.281.206H27.958Zm.988,1.7a3.721,3.721,0,1,1-3.721,3.721,3.725,3.725,0,0,1,3.721-3.721Zm-9.138,0a3.721,3.721,0,1,1-3.721,3.721,3.725,3.725,0,0,1,3.721-3.721ZM7.31,56.53H1.7V39.951H7.31Zm1.7-14.751h2.416V54.7H9.006Zm7.5-4.58a9.776,9.776,0,0,0-2.858,1.566l-.072.057v-3.25a3.267,3.267,0,0,1,3.264-3.264h5.409a4.938,4.938,0,0,0-1.23,3.264v1.173A9.753,9.753,0,0,0,16.5,37.2Zm9.388,1.646a9.805,9.805,0,0,0-3.179-1.716V35.571a3.267,3.267,0,0,1,3.264-3.264h5.939a3.268,3.268,0,0,1,3.264,3.264v4.511h-7.76Z" transform="translate(0 -0.435)"/>
      </g>
    </g>
  </g>
</svg>
