<svg xmlns="http://www.w3.org/2000/svg" xmlns:xlink="http://www.w3.org/1999/xlink" width="108" height="108" viewBox="0 0 108 108">
  <defs>
    <filter id="Trazado_982547" x="0" y="0" width="108" height="108" filterUnits="userSpaceOnUse">
      <feOffset dy="3" input="SourceAlpha"/>
      <feGaussianBlur stdDeviation="3" result="blur"/>
      <feFlood flood-opacity="0.161"/>
      <feComposite operator="in" in2="blur"/>
      <feComposite in="SourceGraphic"/>
    </filter>
  </defs>
  <g id="Grupo_1165363" data-name="Grupo 1165363" transform="translate(-1165 -5572)">
    <g id="Grupo_1161058" data-name="Grupo 1161058" transform="translate(0 2304)">
      <g id="Grupo_1160772" data-name="Grupo 1160772" transform="translate(1174 3274)">
        <g id="Grupo_1149837" data-name="Grupo 1149837">
          <g id="Grupo_1149675" data-name="Grupo 1149675">
            <g id="Grupo_1148534" data-name="Grupo 1148534">
              <g id="Grupo_1147066" data-name="Grupo 1147066">
                <g transform="matrix(1, 0, 0, 1, -9, -6)" filter="url(#Trazado_982547)">
                  <g id="Trazado_982547-2" data-name="Trazado 982547" transform="translate(9 6)" fill="#f5e9fe">
                    <path d="M 45 88.5 C 39.12687683105469 88.5 33.43022537231445 87.35007476806641 28.06830024719238 85.08217620849609 C 22.88852500915527 82.89131164550781 18.23629951477051 79.75458526611328 14.2408504486084 75.75914764404297 C 10.24541282653809 71.76370239257812 7.108687400817871 67.11147308349609 4.917825222015381 61.93170166015625 C 2.649924993515015 56.56977462768555 1.5 50.87312316894531 1.5 45 C 1.5 39.12687683105469 2.649924993515015 33.43022537231445 4.917825222015381 28.06830024719238 C 7.108687400817871 22.88852500915527 10.24541282653809 18.23629951477051 14.2408504486084 14.2408504486084 C 18.23629951477051 10.24541282653809 22.88852500915527 7.108687400817871 28.06830024719238 4.917825222015381 C 33.43022537231445 2.649924993515015 39.12687683105469 1.5 45 1.5 C 50.87312316894531 1.5 56.56977462768555 2.649924993515015 61.93170166015625 4.917825222015381 C 67.11147308349609 7.108687400817871 71.76370239257812 10.24541282653809 75.75914764404297 14.2408504486084 C 79.75458526611328 18.23629951477051 82.89131164550781 22.88852500915527 85.08217620849609 28.06830024719238 C 87.35007476806641 33.43022537231445 88.5 39.12687683105469 88.5 45 C 88.5 50.87312316894531 87.35007476806641 56.56977462768555 85.08217620849609 61.93170166015625 C 82.89131164550781 67.11147308349609 79.75458526611328 71.76370239257812 75.75914764404297 75.75914764404297 C 71.76370239257812 79.75458526611328 67.11147308349609 82.89131164550781 61.93170166015625 85.08217620849609 C 56.56977462768555 87.35007476806641 50.87312316894531 88.5 45 88.5 Z" stroke="none"/>
                    <path d="M 45 3 C 39.32871246337891 3 33.82865524291992 4.110054016113281 28.65262985229492 6.299339294433594 C 23.65165710449219 8.414573669433594 19.15968322753906 11.44334411621094 15.301513671875 15.301513671875 C 11.44334411621094 19.15968322753906 8.414573669433594 23.65165710449219 6.299339294433594 28.65262985229492 C 4.110054016113281 33.82865524291992 3 39.32871246337891 3 45 C 3 50.67128753662109 4.110054016113281 56.17134475708008 6.299339294433594 61.34737396240234 C 8.414573669433594 66.34834289550781 11.44334411621094 70.84031677246094 15.301513671875 74.698486328125 C 19.15968322753906 78.55665588378906 23.65165710449219 81.58542633056641 28.65262985229492 83.70066070556641 C 33.82865524291992 85.88994598388672 39.32871246337891 87 45 87 C 50.67128753662109 87 56.17134475708008 85.88994598388672 61.34737396240234 83.70066070556641 C 66.34834289550781 81.58542633056641 70.84031677246094 78.55665588378906 74.698486328125 74.698486328125 C 78.55665588378906 70.84031677246094 81.58542633056641 66.34834289550781 83.70066070556641 61.34737396240234 C 85.88994598388672 56.17134475708008 87 50.67128753662109 87 45 C 87 39.32871246337891 85.88994598388672 33.82865524291992 83.70066070556641 28.65262985229492 C 81.58542633056641 23.65165710449219 78.55665588378906 19.15968322753906 74.698486328125 15.301513671875 C 70.84031677246094 11.44334411621094 66.34834289550781 8.414573669433594 61.34737396240234 6.299339294433594 C 56.17134475708008 4.110054016113281 50.67128753662109 3 45 3 M 45 0 C 69.85281372070312 0 90 20.14718627929688 90 45 C 90 69.85281372070312 69.85281372070312 90 45 90 C 20.14718627929688 90 0 69.85281372070312 0 45 C 0 20.14718627929688 20.14718627929688 0 45 0 Z" stroke="none" fill="#a530fe"/>
                  </g>
                </g>
              </g>
            </g>
          </g>
        </g>
      </g>
    </g>
    <g id="investigacion-del-consumidor_1_" data-name="investigacion-del-consumidor (1)" transform="translate(1182 5585.959)">
      <path id="Trazado_1014704" data-name="Trazado 1014704" d="M46.9,15.728a14.393,14.393,0,1,0,0,20.357A14.293,14.293,0,0,0,46.9,15.728ZM33.458,37.077v1.18a12.613,12.613,0,0,1-3.293-1.387V28.531h3.293Zm1.622,1.5V24.63h3.29V38.572a12.961,12.961,0,0,1-3.29,0Zm4.912-14.753v-3.06h3.293V36.87a12.61,12.61,0,0,1-3.293,1.387V23.819Zm5.763,11.118q-.409.409-.849.776V19.948a.811.811,0,0,0-.811-.811H39.18a.811.811,0,0,0-.811.811v3.06h-4.1a.811.811,0,0,0-.811.811v3.09h-4.1a.811.811,0,0,0-.811.811v7.993q-.438-.367-.849-.776a12.787,12.787,0,0,1,0-18.064h0a12.772,12.772,0,0,1,18.06,18.064ZM59.716,63.283v1.385a.811.811,0,0,1-1.622,0V63.283a.811.811,0,0,1,1.622,0Zm-10.7,0v1.385a.811.811,0,1,1-1.622,0V63.283a.811.811,0,1,1,1.622,0ZM60.5,57.893a4.82,4.82,0,0,0,1.255-3.228V51.1a1.993,1.993,0,0,0,0-.684V47.829a8.213,8.213,0,0,0-16.425,0v6.836A4.819,4.819,0,0,0,46.6,57.909c-.147.074-.289.151-.425.231A4.258,4.258,0,0,0,43.7,61.862v2.807a.811.811,0,1,0,1.622,0V61.862c0-1.167.957-2.034,2.284-2.636a4.948,4.948,0,0,0,4.817,3.845H54.8a4.946,4.946,0,0,0,4.8-3.789c1.267.6,2.179,1.452,2.179,2.581v2.807a.811.811,0,0,0,1.622,0V61.862C63.407,60.207,62.367,58.836,60.5,57.893Zm-3.749-1.135V55.7a6.845,6.845,0,0,0,1.945-2.77H59.6a2.17,2.17,0,0,0,.529-.068v1.8a3.209,3.209,0,0,1-1.305,2.566,15.441,15.441,0,0,0-2.077-.474Zm-7.343-6.6a5.882,5.882,0,0,0,4.148-2.229A5.882,5.882,0,0,0,57.7,50.155c-.226,2.217-1.424,5.068-4.148,5.068S49.631,52.372,49.406,50.155Zm-1.624.044a9.834,9.834,0,0,0,.164,1.113h-.439a.557.557,0,1,1,0-1.113Zm12.349.725a.565.565,0,0,1-.529.389h-.429A9.847,9.847,0,0,0,59.33,50.2H59.6a.565.565,0,0,1,.529.391ZM53.541,41.24a6.6,6.6,0,0,1,6.589,6.59v.816a2.17,2.17,0,0,0-.529-.068H58.554a4.522,4.522,0,0,1-4.3-2.494.811.811,0,0,0-1.4,0,4.522,4.522,0,0,1-4.3,2.494H47.507a2.171,2.171,0,0,0-.558.075V47.83A6.6,6.6,0,0,1,53.541,41.24ZM46.948,54.665V52.859a2.172,2.172,0,0,0,.558.075h.924a8.035,8.035,0,0,0,.614,1.238,6,6,0,0,0,1.574,1.738v.806a15.628,15.628,0,0,0-2.353.526,3.207,3.207,0,0,1-1.318-2.577ZM54.8,61.448h-2.38a3.323,3.323,0,0,1-3.274-2.77,15.343,15.343,0,0,1,2.366-.443.811.811,0,0,0,.723-.806V56.68a5.2,5.2,0,0,0,1.313.165,5.057,5.057,0,0,0,1.573-.245v.863a.811.811,0,0,0,.712.8,14.708,14.708,0,0,1,2.23.446A3.321,3.321,0,0,1,54.8,61.448Zm-34.1,3.221a.811.811,0,1,1-.811-.811A.813.813,0,0,1,20.706,64.669Zm2.383-9.595v-.549a6.845,6.845,0,0,0,1.945-2.77h.908a2.176,2.176,0,0,0,1.159-4.02l.226-.809c.441-1.586.033-2.284-.512-2.769a3.057,3.057,0,0,0,.092-3c-1.034-1.616-3.927-1.57-6.989-1.521h-.034c-2.127,0-4.954.666-6.521,2.529a4.269,4.269,0,0,0-.956,3.582l.341,1.954a2.176,2.176,0,0,0,1.1,4.056h.924a8.035,8.035,0,0,0,.614,1.238,6,6,0,0,0,1.574,1.738v.3a12.578,12.578,0,0,0-4.449,1.424,4.255,4.255,0,0,0-2.468,3.719v4.491a.811.811,0,1,0,1.622,0V60.178c0-1.653,1.924-2.7,4.1-3.252l1.088,3.614a.811.811,0,0,0,1.314.373l1.859-1.648,1.859,1.648a.811.811,0,0,0,1.314-.374l1.066-3.549c2.058.563,3.861,1.6,3.861,3.188v4.491a.811.811,0,1,0,1.622,0V60.178c0-2.549-2.474-4.43-6.659-5.1ZM20.026,57l-1.391-1.482a5.2,5.2,0,0,0,1.26.153,5.057,5.057,0,0,0,1.573-.245v.036Zm5.917-6.862h-.429a9.847,9.847,0,0,0,.157-1.113h.272a.557.557,0,1,1,0,1.113Zm-12.1,0a.557.557,0,1,1,0-1.113h.275a9.834,9.834,0,0,0,.164,1.113h-.439Zm1.044-3.812a2.449,2.449,0,0,0-.593.826l-.293-1.68a2.625,2.625,0,0,1,.6-2.26,7.129,7.129,0,0,1,5.287-1.951h.053c2.131-.034,5.051-.08,5.6.774.236.369,0,1.049-.247,1.554a1.3,1.3,0,0,0,.391,1.741c.177.146.329.273.08,1.167l-.107.382a1.808,1.808,0,0,0-1.614-1.353c-.351-.026-.731-.058-1.13-.093-2.87-.248-6.441-.557-8.023.895Zm.814,1.888a.866.866,0,0,1,.282-.693,5.348,5.348,0,0,1,3.241-.677c1.2,0,2.5.112,3.547.2.407.035.794.069,1.15.095a.178.178,0,0,1,.169.181l-.01.883v.009c0,2.256-1.137,5.835-4.189,5.835S15.705,50.466,15.705,48.21ZM18.04,58.858l-.675-2.242.071-.009,1.428,1.521Zm3.971,0-.824-.73,1.4-1.489.09.013ZM15.354,62.19v2.479a.811.811,0,1,1-1.622,0V62.19a.811.811,0,1,1,1.622,0Zm10.7,0v2.479a.811.811,0,1,1-1.622,0V62.19a.811.811,0,1,1,1.622,0Zm39.08-30.713L59.542,27.11a.811.811,0,0,0-1.31.639v.791H54.408a18.127,18.127,0,0,0,.192-2.635,17.875,17.875,0,0,0-30.514-12.64,18.049,18.049,0,0,0-2.321,2.849H15.216v-.788a.811.811,0,0,0-1.31-.639L8.312,19.053a.811.811,0,0,0,0,1.278L13.906,24.7a.811.811,0,0,0,1.31-.639v-.788h3.825a18.133,18.133,0,0,0-.192,2.635A17.884,17.884,0,0,0,33.2,43.432v1.515h-.223a.811.811,0,0,0-.811.811v1.306a.811.811,0,0,0-.719.805v2.472a.811.811,0,0,0,.719.805v9.79a4.544,4.544,0,1,0,9.087,0v-9.79a.811.811,0,0,0,.719-.805V47.869a.811.811,0,0,0-.719-.805V45.758a.811.811,0,0,0-.811-.811h-.22V43.433a17.712,17.712,0,0,0,9.136-4.889,18.039,18.039,0,0,0,2.322-2.849h6.547v.791a.811.811,0,0,0,1.31.639l5.595-4.37a.811.811,0,0,0,0-1.278ZM14.405,21.649a.811.811,0,0,0-.808.75l-3.468-2.707L13.6,16.985a.811.811,0,0,0,.808.75h6.412a17.651,17.651,0,0,0-1.46,3.914H14.405ZM33.073,48.68h7.282v.851H33.073Zm6.563-2.111v.49H33.792v-.49Zm0,14.367a2.922,2.922,0,1,1-5.844,0V51.152h5.844ZM48.217,37.4a16.1,16.1,0,0,1-8.927,4.556.811.811,0,0,0-.684.8v2.193H34.826V42.754a.811.811,0,0,0-.683-.8A16.257,16.257,0,1,1,48.217,37.4Zm11.635-2.571a.811.811,0,0,0-.809-.753H52.633a17.643,17.643,0,0,0,1.459-3.911h4.952a.811.811,0,0,0,.809-.753l3.468,2.707ZM20.706,62.079a.811.811,0,1,1-.811-.811A.813.813,0,0,1,20.706,62.079ZM55.658,22.46a.809.809,0,1,1,.811.811A.813.813,0,0,1,55.658,22.46Zm2.216,0a.811.811,0,1,1,.811.811A.813.813,0,0,1,57.875,22.46Zm2.219,0a.809.809,0,1,1,.808.811A.81.81,0,0,1,60.094,22.46Zm2.216,0a.811.811,0,1,1,.811.811A.813.813,0,0,1,62.31,22.46Zm-45.331,7.7a.811.811,0,1,1,.811-.811A.813.813,0,0,1,16.979,30.162Zm-2.216,0a.811.811,0,1,1,.811-.811A.813.813,0,0,1,14.763,30.162Zm-2.219,0a.811.811,0,1,1,.811-.811A.81.81,0,0,1,12.544,30.162Zm-2.216,0a.811.811,0,1,1,.811-.811.813.813,0,0,1-.811.811Z" transform="translate(0 0)"/>
      <path id="Trazado_1014705" data-name="Trazado 1014705" d="M159.208,362.971h.429a.557.557,0,1,0,0-1.113h-.272A9.854,9.854,0,0,1,159.208,362.971Z" transform="translate(-133.694 -312.837)" fill="#fcc9c0"/>
      <path id="Trazado_1014706" data-name="Trazado 1014706" d="M54.221,361.856a.557.557,0,1,0,0,1.113h.439a9.835,9.835,0,0,1-.164-1.113h-.275Z" transform="translate(-40.374 -312.835)" fill="#fcc9c0"/>
      <path id="Trazado_1014707" data-name="Trazado 1014707" d="M82.9,344.387l.01-.883a.179.179,0,0,0-.169-.181c-.356-.026-.743-.059-1.15-.095-1.051-.091-2.349-.2-3.547-.2a5.349,5.349,0,0,0-3.241.677.866.866,0,0,0-.282.693c0,2.256,1.137,5.835,4.189,5.835S82.9,346.652,82.9,344.4Z" transform="translate(-58.82 -296.186)" fill="#ffdbd3"/>
      <path id="Trazado_1014708" data-name="Trazado 1014708" d="M121.86,429.113l.824.73.662-2.206-.09-.013Z" transform="translate(-100.672 -370.986)" fill="#f96353"/>
      <path id="Trazado_1014709" data-name="Trazado 1014709" d="M68.389,298.871c.4.034.779.067,1.13.093a1.807,1.807,0,0,1,1.614,1.353l.107-.382c.249-.895.1-1.021-.08-1.167a1.3,1.3,0,0,1-.391-1.741c.243-.5.483-1.185.247-1.554-.546-.854-3.466-.808-5.6-.774h-.053a7.13,7.13,0,0,0-5.287,1.951,2.625,2.625,0,0,0-.6,2.26l.293,1.68a2.446,2.446,0,0,1,.593-.826C61.948,298.314,65.52,298.623,68.389,298.871Z" transform="translate(-45.474 -253.443)" fill="#656d78"/>
      <path id="Trazado_1014710" data-name="Trazado 1014710" d="M102.648,417.114a5.056,5.056,0,0,1-1.573.245,5.2,5.2,0,0,1-1.26-.153l1.391,1.482,1.442-1.539v-.036Z" transform="translate(-81.181 -361.693)" fill="#fcc9c0"/>
      <path id="Trazado_1014711" data-name="Trazado 1014711" d="M88.859,427.358l.675,2.242.824-.73-1.428-1.521Z" transform="translate(-71.494 -370.742)" fill="#f96353"/>
      <path id="Trazado_1014712" data-name="Trazado 1014712" d="M347.94,398.049a6,6,0,0,1-1.574-1.738,8.044,8.044,0,0,1-.614-1.238h-.924a2.17,2.17,0,0,1-.558-.075V396.8a3.207,3.207,0,0,0,1.318,2.577,15.617,15.617,0,0,1,2.353-.526Z" transform="translate(-297.321 -342.138)" fill="#b27946"/>
      <path id="Trazado_1014713" data-name="Trazado 1014713" d="M399.757,197.195a.811.811,0,0,1,.809.753l3.468-2.709-3.468-2.707a.811.811,0,0,1-.809.753H394.8a17.646,17.646,0,0,1-1.459,3.911Z" transform="translate(-340.714 -163.122)" fill="#b4dd7f"/>
      <path id="Trazado_1014714" data-name="Trazado 1014714" d="M199.363,193.284a12.611,12.611,0,0,0,3.293,1.387v-9.726h-3.293Z" transform="translate(-169.199 -156.415)" fill="#ff826e"/>
      <path id="Trazado_1014715" data-name="Trazado 1014715" d="M230.686,340.682h5.844v.49h-5.844Z" transform="translate(-196.894 -294.113)" fill="#abc5c9"/>
      <path id="Trazado_1014716" data-name="Trazado 1014716" d="M241.8,154.36v10.852a12.962,12.962,0,0,0,3.29,0V151.27H241.8Z" transform="translate(-206.718 -126.64)" fill="#ff826e"/>
      <path id="Trazado_1014717" data-name="Trazado 1014717" d="M350.862,294.675a6.6,6.6,0,0,0-6.593,6.59v.824a2.171,2.171,0,0,1,.558-.075h1.047a4.522,4.522,0,0,0,4.3-2.494.811.811,0,0,1,1.4,0,4.522,4.522,0,0,0,4.3,2.494h1.047a2.169,2.169,0,0,1,.529.068v-.816A6.6,6.6,0,0,0,350.862,294.675Z" transform="translate(-297.321 -253.435)" fill="#b27946"/>
      <path id="Trazado_1014718" data-name="Trazado 1014718" d="M284.2,120.91v14.438a12.615,12.615,0,0,0,3.293-1.387V117.85H284.2Z" transform="translate(-244.212 -97.091)" fill="#ff826e"/>
      <path id="Trazado_1014719" data-name="Trazado 1014719" d="M30.654,89.93h4.952a17.655,17.655,0,0,1,1.46-3.914H30.654a.811.811,0,0,1-.808-.75l-3.468,2.707,3.468,2.707A.811.811,0,0,1,30.654,89.93Z" transform="translate(-16.248 -68.281)" fill="#b4dd7f"/>
      <path id="Trazado_1014720" data-name="Trazado 1014720" d="M149.525,73.805q.409.409.849.776V66.588a.811.811,0,0,1,.811-.811h4.1v-3.09a.811.811,0,0,1,.811-.811h4.1v-3.06a.811.811,0,0,1,.811-.811h4.915a.811.811,0,0,1,.811.811V74.581q.438-.367.849-.776a12.772,12.772,0,1,0-18.06-18.064h0A12.788,12.788,0,0,0,149.525,73.805Z" transform="translate(-121.831 -38.868)" fill="#69d6f4"/>
      <path id="Trazado_1014721" data-name="Trazado 1014721" d="M120.431,49.768a16.135,16.135,0,0,0,8.912,4.557.811.811,0,0,1,.683.8v2.193H133.8V55.125a.811.811,0,0,1,.684-.8,16.252,16.252,0,0,0,8.927-27.541,16.253,16.253,0,1,0-22.985,22.985ZM121.747,28.1a14.393,14.393,0,1,1,0,20.357A14.293,14.293,0,0,1,121.747,28.1Z" transform="translate(-95.199 -12.371)" fill="#cfd2d3"/>
      <path id="Trazado_1014722" data-name="Trazado 1014722" d="M230.686,390.038a2.922,2.922,0,1,0,5.844,0v-9.784h-5.844Z" transform="translate(-196.894 -329.102)" fill="#abc5c9"/>
      <path id="Trazado_1014723" data-name="Trazado 1014723" d="M224.478,358.909h7.282v.851h-7.282Z" transform="translate(-191.405 -310.229)" fill="#bacace"/>
      <path id="Trazado_1014724" data-name="Trazado 1014724" d="M345.266,373.146a9.823,9.823,0,0,1-.164-1.113h-.275a.557.557,0,1,0,0,1.113Z" transform="translate(-297.321 -321.833)" fill="#fcc9c0"/>
      <path id="Trazado_1014725" data-name="Trazado 1014725" d="M369.265,428.154v-.863a5.059,5.059,0,0,1-1.573.245,5.192,5.192,0,0,1-1.313-.165v.749a.811.811,0,0,1-.723.806,15.352,15.352,0,0,0-2.366.443,3.323,3.323,0,0,0,3.274,2.77h2.38a3.321,3.321,0,0,0,3.264-2.735,14.707,14.707,0,0,0-2.23-.446A.811.811,0,0,1,369.265,428.154Z" transform="translate(-314.138 -370.691)" fill="#fcc9c0"/>
      <path id="Trazado_1014726" data-name="Trazado 1014726" d="M369.635,359.7c2.725,0,3.922-2.851,4.148-5.068a5.883,5.883,0,0,1-4.148-2.229,5.883,5.883,0,0,1-4.148,2.229C365.713,356.847,366.911,359.7,369.635,359.7Z" transform="translate(-316.081 -304.475)" fill="#ffdbd3"/>
      <path id="Trazado_1014727" data-name="Trazado 1014727" d="M430.827,395.131a6.845,6.845,0,0,1-1.945,2.77v1.054a15.451,15.451,0,0,1,2.077.474,3.209,3.209,0,0,0,1.305-2.566v-1.8a2.168,2.168,0,0,1-.529.068Z" transform="translate(-372.134 -342.196)" fill="#b27946"/>
      <path id="Trazado_1014728" data-name="Trazado 1014728" d="M450.243,372.033h-.272a9.854,9.854,0,0,1-.157,1.113h.429a.565.565,0,0,0,.529-.389v-.334A.565.565,0,0,0,450.243,372.033Z" transform="translate(-390.641 -321.833)" fill="#fcc9c0"/>
      <g id="Grupo_1165362" data-name="Grupo 1165362" transform="translate(10.853 56.926)">
        <path id="Trazado_1014729" data-name="Trazado 1014729" d="M49.9,437.847v-4.491c0-1.585-1.8-2.625-3.861-3.188l-1.066,3.549a.811.811,0,0,1-1.314.374L41.8,432.443l-1.859,1.648a.811.811,0,0,1-1.314-.373L37.541,430.1c-2.177.547-4.1,1.6-4.1,3.252v4.491a.811.811,0,0,1-.811.811h3.69a.811.811,0,0,1-.811-.811v-2.479a.811.811,0,1,1,1.622,0v2.479a.811.811,0,0,1-.811.811h5.348a.811.811,0,1,1,.007,0h5.348a.811.811,0,0,1-.811-.811v-2.479a.811.811,0,1,1,1.622,0v2.479a.811.811,0,0,1-.811.811h3.69A.811.811,0,0,1,49.9,437.847Zm-8.231-1.78a.811.811,0,1,1,.811-.811A.813.813,0,0,1,41.671,436.068Z" transform="translate(-32.629 -430.104)" fill="#ff826e"/>
        <path id="Trazado_1014730" data-name="Trazado 1014730" d="M340.511,455.4v-2.807c0-1.129-.912-1.981-2.179-2.581a4.945,4.945,0,0,1-4.8,3.789h-2.38a4.948,4.948,0,0,1-4.817-3.845c-1.327.6-2.284,1.47-2.284,2.636V455.4a.811.811,0,0,1-.811.811h3.69a.811.811,0,0,1-.811-.811v-1.385a.811.811,0,1,1,1.622,0V455.4a.811.811,0,0,1-.811.811h10.7a.811.811,0,0,1-.811-.811v-1.385a.811.811,0,1,1,1.622,0V455.4a.811.811,0,0,1-.811.811h3.69A.81.81,0,0,1,340.511,455.4Z" transform="translate(-289.579 -447.658)" fill="#ff826e"/>
      </g>
    </g>
  </g>
</svg>
