<svg xmlns="http://www.w3.org/2000/svg" xmlns:xlink="http://www.w3.org/1999/xlink" width="113" height="113" viewBox="0 0 113 113">
  <defs>
    <filter id="Trazado_982547" x="0" y="0" width="113" height="113" filterUnits="userSpaceOnUse">
      <feOffset dy="3" input="SourceAlpha"/>
      <feGaussianBlur stdDeviation="3" result="blur"/>
      <feFlood flood-opacity="0.161"/>
      <feComposite operator="in" in2="blur"/>
      <feComposite in="SourceGraphic"/>
    </filter>
  </defs>
  <g id="Grupo_1224660" data-name="Grupo 1224660" transform="translate(9 6)">
    <g id="Grupo_1224579" data-name="Grupo 1224579" transform="translate(0 0)">
      <g id="Grupo_1224449" data-name="Grupo 1224449" transform="translate(0)">
        <g id="Grupo_1224084" data-name="Grupo 1224084">
          <g id="Grupo_1223183" data-name="Grupo 1223183">
            <g id="Grupo_1211217" data-name="Grupo 1211217">
              <g id="Grupo_1210736" data-name="Grupo 1210736">
                <g id="Grupo_1210537" data-name="Grupo 1210537">
                  <g id="Grupo_1164202" data-name="Grupo 1164202">
                    <g id="Grupo_1158168" data-name="Grupo 1158168">
                      <g id="Grupo_1152576" data-name="Grupo 1152576">
                        <g id="Grupo_1148633" data-name="Grupo 1148633">
                          <g id="Grupo_1148525" data-name="Grupo 1148525">
                            <g transform="matrix(1, 0, 0, 1, -9, -6)" filter="url(#Trazado_982547)">
                              <g id="Trazado_982547-2" data-name="Trazado 982547" transform="translate(9 6)" fill="#fef9e5">
                                <path d="M 47.5 93.5 C 41.28937149047852 93.5 35.26533508300781 92.28397369384766 29.59518623352051 89.88570404052734 C 24.11771965026855 87.56893157958984 19.19813346862793 84.25196075439453 14.97309303283691 80.02691650390625 C 10.74804019927979 75.80186462402344 7.431066513061523 70.88229370117188 5.114293098449707 65.40481567382812 C 2.716026782989502 59.73468017578125 1.5 53.71062850952148 1.5 47.5 C 1.5 41.28937149047852 2.716026782989502 35.26533508300781 5.114293098449707 29.59518623352051 C 7.431066513061523 24.11771965026855 10.74804019927979 19.19813346862793 14.97309303283691 14.97309303283691 C 19.19813346862793 10.74804019927979 24.11771965026855 7.431066513061523 29.59518623352051 5.114293098449707 C 35.26533508300781 2.716026782989502 41.28937149047852 1.5 47.5 1.5 C 53.71062850952148 1.5 59.73468017578125 2.716026782989502 65.40481567382812 5.114293098449707 C 70.88229370117188 7.431066513061523 75.80186462402344 10.74804019927979 80.02691650390625 14.97309303283691 C 84.25196075439453 19.19813346862793 87.56893157958984 24.11771965026855 89.88570404052734 29.59518623352051 C 92.28397369384766 35.26533508300781 93.5 41.28937149047852 93.5 47.5 C 93.5 53.71062850952148 92.28397369384766 59.73468017578125 89.88570404052734 65.40481567382812 C 87.56893157958984 70.88229370117188 84.25196075439453 75.80186462402344 80.02691650390625 80.02691650390625 C 75.80186462402344 84.25196075439453 70.88229370117188 87.56893157958984 65.40481567382812 89.88570404052734 C 59.73468017578125 92.28397369384766 53.71062850952148 93.5 47.5 93.5 Z" stroke="none"/>
                                <path d="M 47.5 3 C 41.49121475219727 3 35.66376876831055 4.176155090332031 30.17950439453125 6.495796203613281 C 24.88084411621094 8.736953735351562 20.12152099609375 11.94598388671875 16.03375244140625 16.03375244140625 C 11.94598388671875 20.12152099609375 8.736953735351562 24.88084411621094 6.495796203613281 30.17950439453125 C 4.176155090332031 35.66376876831055 3 41.49121475219727 3 47.5 C 3 53.50878524780273 4.176155090332031 59.33623123168945 6.495796203613281 64.82049560546875 C 8.736953735351562 70.11915588378906 11.94598388671875 74.87847900390625 16.03375244140625 78.96624755859375 C 20.12152099609375 83.05401611328125 24.88084411621094 86.26304626464844 30.17950439453125 88.50419616699219 C 35.66376876831055 90.82384490966797 41.49121475219727 92 47.5 92 C 53.50878524780273 92 59.33623123168945 90.82384490966797 64.82049560546875 88.50419616699219 C 70.11915588378906 86.26304626464844 74.87847900390625 83.05401611328125 78.96624755859375 78.96624755859375 C 83.05401611328125 74.87847900390625 86.26304626464844 70.11915588378906 88.50419616699219 64.82049560546875 C 90.82384490966797 59.33623123168945 92 53.50878524780273 92 47.5 C 92 41.49121475219727 90.82384490966797 35.66376876831055 88.50419616699219 30.17950439453125 C 86.26304626464844 24.88084411621094 83.05401611328125 20.12152099609375 78.96624755859375 16.03375244140625 C 74.87847900390625 11.94598388671875 70.11915588378906 8.736953735351562 64.82049560546875 6.495796203613281 C 59.33623123168945 4.176155090332031 53.50878524780273 3 47.5 3 M 47.5 0 C 73.7335205078125 0 95 21.2664794921875 95 47.5 C 95 73.7335205078125 73.7335205078125 95 47.5 95 C 21.2664794921875 95 0 73.7335205078125 0 47.5 C 0 21.2664794921875 21.2664794921875 0 47.5 0 Z" stroke="none" fill="#f6c810"/>
                              </g>
                            </g>
                          </g>
                        </g>
                      </g>
                    </g>
                  </g>
                </g>
              </g>
            </g>
          </g>
        </g>
      </g>
    </g>
    <g id="meta-description_17353811" transform="translate(18.506 19.255)">
      <rect id="Rect치ngulo_422086" data-name="Rect치ngulo 422086" width="48" height="48" rx="4" transform="translate(9.003 8.994)" fill="#0082ed"/>
      <path id="Trazado_1051532" data-name="Trazado 1051532" d="M53.656,12H16a4,4,0,0,0-4,4V53.656A31.993,31.993,0,0,0,53.656,12Z" transform="translate(-3.002 -3.002)" fill="#1aa3ff"/>
      <path id="Trazado_1051533" data-name="Trazado 1051533" d="M55.99,12H16a4,4,0,0,0-4,4v4H59.99V16A4,4,0,0,0,55.99,12Z" transform="translate(-3.002 -3.002)" fill="#ffbf1f"/>
      <path id="Trazado_1051534" data-name="Trazado 1051534" d="M53.656,12H16a4,4,0,0,0-4,4v4H55.732A31.806,31.806,0,0,0,53.656,12Z" transform="translate(-3.002 -3.002)" fill="#ffde17"/>
      <rect id="Rect치ngulo_422087" data-name="Rect치ngulo 422087" width="28" height="28" rx="4" transform="translate(1.003 0.994)" fill="#ffbf1f"/>
      <path id="Trazado_1051535" data-name="Trazado 1051535" d="M25.837,4H8A4,4,0,0,0,4,8V25.837A15.977,15.977,0,0,0,25.837,4Z" transform="translate(-3 -3)" fill="#ffde17"/>
      <ellipse id="Elipse_12838" data-name="Elipse 12838" cx="9.5" cy="10" rx="9.5" ry="10" transform="translate(38.003 22.994)" fill="#ffbf1f"/>
      <path id="Trazado_1051536" data-name="Trazado 1051536" d="M55.76,27.836a9.991,9.991,0,1,0-8.23,17.84A31.863,31.863,0,0,0,55.76,27.836Z" transform="translate(-3.008 -3.005)" fill="#ffde17"/>
      <path id="Trazado_1051537" data-name="Trazado 1051537" d="M49,50h2a1,1,0,0,1,1,1v7a2,2,0,0,1-4,0V51A1,1,0,0,1,49,50Z" transform="translate(-3.01 -3.01)" fill="#ffbf1f"/>
      <g id="Grupo_1224659" data-name="Grupo 1224659">
        <path id="Trazado_1051538" data-name="Trazado 1051538" d="M32,40H18a1,1,0,1,0,0,2H32a1,1,0,1,0,0-2Z" transform="translate(-3.003 -3.008)" fill="#12173a"/>
        <path id="Trazado_1051539" data-name="Trazado 1051539" d="M33,45a1,1,0,0,0-1-1H18a1,1,0,1,0,0,2H32A1,1,0,0,0,33,45Z" transform="translate(-3.003 -3.009)" fill="#12173a"/>
        <path id="Trazado_1051540" data-name="Trazado 1051540" d="M18,48a1,1,0,0,0,0,2H28a1,1,0,0,0,0-2Z" transform="translate(-3.003 -3.01)" fill="#12173a"/>
        <path id="Trazado_1051541" data-name="Trazado 1051541" d="M43.993,58.995H16a3,3,0,0,1-3-3V36a1,1,0,1,0-2,0V56a5,5,0,0,0,5,5H43.993a1,1,0,0,0,0-2Z" transform="translate(-3.002 -3.007)" fill="#12173a"/>
        <path id="Trazado_1051542" data-name="Trazado 1051542" d="M60,44a1,1,0,0,0-1,1V56a3,3,0,0,1-3,3,1,1,0,0,0,0,2,5,5,0,0,0,5-5V45A1,1,0,0,0,60,44Z" transform="translate(-3.011 -3.009)" fill="#12173a"/>
        <path id="Trazado_1051543" data-name="Trazado 1051543" d="M56,11H36a1,1,0,1,0,0,2H56a3,3,0,0,1,3,3v3H36a1,1,0,1,0,0,2H58.995v6a1,1,0,1,0,2,0V16A5,5,0,0,0,56,11Z" transform="translate(-3.007 -3.002)" fill="#12173a"/>
        <path id="Trazado_1051544" data-name="Trazado 1051544" d="M56,17a1,1,0,1,0,0-2H54a1,1,0,1,0,0,2Z" transform="translate(-3.011 -3.003)" fill="#12173a"/>
        <path id="Trazado_1051545" data-name="Trazado 1051545" d="M50,17a1,1,0,0,0,0-2H48a1,1,0,1,0,0,2Z" transform="translate(-3.01 -3.003)" fill="#12173a"/>
        <path id="Trazado_1051546" data-name="Trazado 1051546" d="M44,17a1,1,0,0,0,0-2H42a1,1,0,1,0,0,2Z" transform="translate(-3.008 -3.003)" fill="#12173a"/>
        <path id="Trazado_1051547" data-name="Trazado 1051547" d="M32.993,27.995V8a5,5,0,0,0-5-5H8A5,5,0,0,0,3,8,1,1,0,1,0,5,8,3,3,0,0,1,8,5h20a3,3,0,0,1,3,3v20a3,3,0,0,1-3,3H8a3,3,0,0,1-3-3V12a1,1,0,0,0-2,0v16a5,5,0,0,0,5,5h20A5,5,0,0,0,32.993,27.995Z" transform="translate(-3 -3)" fill="#12173a"/>
        <path id="Trazado_1051548" data-name="Trazado 1051548" d="M51,30a1,1,0,0,0-1-1,7.007,7.007,0,0,0-7,7,1,1,0,0,0,2,0,5,5,0,0,1,5-5A1,1,0,0,0,51,30Z" transform="translate(-3.009 -3.006)" fill="#12173a"/>
        <path id="Trazado_1051549" data-name="Trazado 1051549" d="M50,25a11,11,0,0,0-4.4,21.079,1,1,0,0,0,.8-1.832A9,9,0,1,1,50,45a1,1,0,0,0-1,1v3H48a1,1,0,0,0-1,1v8a3,3,0,0,0,6,0v-8a1,1,0,0,0-1-1H51V46.944A10.995,10.995,0,0,0,50,25Zm1,32.993a1,1,0,0,1-2,0v-7h2Z" transform="translate(-3.008 -3.005)" fill="#12173a"/>
        <path id="Trazado_1051550" data-name="Trazado 1051550" d="M22.293,21.705a1,1,0,0,0,1.414,0l3-3a1,1,0,0,0,0-1.414l-3-3a1,1,0,0,0-1.414,1.414L24.585,18l-2.292,2.292a1,1,0,0,0,0,1.414Z" transform="translate(-3.004 -3.002)" fill="#12173a"/>
        <path id="Trazado_1051551" data-name="Trazado 1051551" d="M13.706,14.293a1,1,0,0,0-1.414,0l-3,3a1,1,0,0,0,0,1.414l3,3a1,1,0,0,0,1.414-1.414L11.413,18l2.292-2.292a1,1,0,0,0,0-1.414Z" transform="translate(-3.001 -3.002)" fill="#12173a"/>
        <path id="Trazado_1051552" data-name="Trazado 1051552" d="M17,23a1,1,0,0,0,.969-.757l2-8a1,1,0,1,0-1.94-.485l-2,8a1,1,0,0,0,.728,1.213A.968.968,0,0,0,17,23Z" transform="translate(-3.003 -3.002)" fill="#12173a"/>
      </g>
    </g>
  </g>
</svg>
