<svg xmlns="http://www.w3.org/2000/svg" xmlns:xlink="http://www.w3.org/1999/xlink" width="110" height="110" viewBox="0 0 110 110">
  <defs>
    <filter id="Trazado_982547" x="0" y="0" width="110" height="110" filterUnits="userSpaceOnUse">
      <feOffset dy="3" input="SourceAlpha"/>
      <feGaussianBlur stdDeviation="3" result="blur"/>
      <feFlood flood-opacity="0.161"/>
      <feComposite operator="in" in2="blur"/>
      <feComposite in="SourceGraphic"/>
    </filter>
  </defs>
  <g id="Grupo_1165228" data-name="Grupo 1165228" transform="translate(-1145.228 -3876.151)">
    <g id="Grupo_1163549" data-name="Grupo 1163549" transform="translate(1154.228 3882.151)">
      <g id="Grupo_1158891" data-name="Grupo 1158891" transform="translate(0 0)">
        <g id="Grupo_1157406" data-name="Grupo 1157406" transform="translate(0 0)">
          <g id="Grupo_1155793" data-name="Grupo 1155793">
            <g id="Grupo_1154704" data-name="Grupo 1154704">
              <g id="Grupo_1150790" data-name="Grupo 1150790">
                <g id="Grupo_1154214" data-name="Grupo 1154214">
                  <g id="Grupo_1152583" data-name="Grupo 1152583">
                    <g id="Grupo_1146973" data-name="Grupo 1146973">
                      <g id="Grupo_1146954" data-name="Grupo 1146954">
                        <g transform="matrix(1, 0, 0, 1, -9, -6)" filter="url(#Trazado_982547)">
                          <g id="Trazado_982547-2" data-name="Trazado 982547" transform="translate(9 6)" fill="#f5e9fe">
                            <path d="M 46 90.49987030029297 C 39.99187850952148 90.49987030029297 34.16426849365234 89.32350921630859 28.67905426025391 87.00345611572266 C 23.38019943237305 84.76224517822266 18.62104034423828 81.55341339111328 14.53374671936035 77.46613311767578 C 10.44646644592285 73.37885284423828 7.237639904022217 68.61969757080078 4.996413230895996 63.32085418701172 C 2.676359891891479 57.83565521240234 1.5 52.008056640625 1.5 45.99993515014648 C 1.5 39.99181365966797 2.676359891891479 34.16421508789062 4.996413230895996 28.67901420593262 C 7.237639904022217 23.38017463684082 10.44646644592285 18.62101554870605 14.53374671936035 14.53373527526855 C 18.62104034423828 10.44645500183105 23.38019943237305 7.23762845993042 28.67905426025391 4.996415138244629 C 34.16426849365234 2.676361799240112 39.99187850952148 1.500001788139343 46 1.500001788139343 C 52.00812149047852 1.500001788139343 57.83573150634766 2.676361799240112 63.32094573974609 4.996415138244629 C 68.61979675292969 7.23762845993042 73.37895965576172 10.44645500183105 77.46625518798828 14.53373527526855 C 81.55353546142578 18.62101554870605 84.76235961914062 23.38017463684082 87.00358581542969 28.67901420593262 C 89.32363891601562 34.16421508789062 90.5 39.99181365966797 90.5 45.99993515014648 C 90.5 52.008056640625 89.32363891601562 57.83565521240234 87.00358581542969 63.32085418701172 C 84.76235961914062 68.61969757080078 81.55353546142578 73.37885284423828 77.46625518798828 77.46613311767578 C 73.37895965576172 81.55341339111328 68.61979675292969 84.76224517822266 63.32094573974609 87.00345611572266 C 57.83573150634766 89.32350921630859 52.00812149047852 90.49987030029297 46 90.49987030029297 Z" stroke="none"/>
                            <path d="M 46 2.999992370605469 C 40.1937141418457 2.999992370605469 34.56269836425781 4.136489868164062 29.26337051391602 6.377906799316406 C 24.14332580566406 8.543502807617188 19.54441070556641 11.64437866210938 15.59439849853516 15.59437561035156 C 11.64440155029297 19.54439544677734 8.54351806640625 24.14329528808594 6.377914428710938 29.26333618164062 C 4.136497497558594 34.56264877319336 3 40.19366455078125 3 45.99993515014648 C 3 51.80620574951172 4.136497497558594 57.43720626831055 6.377914428710938 62.73651885986328 C 8.54351806640625 67.8565673828125 11.64440155029297 72.45545959472656 15.59439849853516 76.40547943115234 C 19.54441070556641 80.35547637939453 24.14332580566406 83.45635223388672 29.26337051391602 85.6219482421875 C 34.56269836425781 87.86336517333984 40.1937141418457 88.99986267089844 46 88.99986267089844 C 51.8062858581543 88.99986267089844 57.43730163574219 87.86336517333984 62.73661422729492 85.6219482421875 C 67.85667419433594 83.45635223388672 72.45557403564453 80.35547637939453 76.40558624267578 76.40547943115234 C 80.35559844970703 72.45545959472656 83.45647430419922 67.8565673828125 85.6220703125 62.73651885986328 C 87.86350250244141 57.43720626831055 89 51.80620574951172 89 45.99993515014648 C 89 40.19366455078125 87.86350250244141 34.56264877319336 85.6220703125 29.26333618164062 C 83.45647430419922 24.14329528808594 80.35559844970703 19.54439544677734 76.40558624267578 15.59437561035156 C 72.45557403564453 11.64437866210938 67.85667419433594 8.543502807617188 62.73661422729492 6.377906799316406 C 57.43730163574219 4.136489868164062 51.8062858581543 2.999992370605469 46 2.999992370605469 M 46 -7.62939453125e-06 C 71.40509033203125 -7.62939453125e-06 92 20.59486389160156 92 45.99993515014648 C 92 71.40499114990234 71.40509033203125 91.99986267089844 46 91.99986267089844 C 20.59490203857422 91.99986267089844 0 71.40499114990234 0 45.99993515014648 C 0 20.59486389160156 20.59490203857422 -7.62939453125e-06 46 -7.62939453125e-06 Z" stroke="none" fill="#a530fe"/>
                          </g>
                        </g>
                      </g>
                    </g>
                  </g>
                </g>
              </g>
            </g>
          </g>
        </g>
      </g>
    </g>
    <g id="limite-de-tiempo_1_" data-name="limite-de-tiempo (1)" transform="translate(1163.377 3872.173)">
      <g id="Grupo_1165226" data-name="Grupo 1165226" transform="translate(1.072 28.203)">
        <g id="Grupo_1165215" data-name="Grupo 1165215" transform="translate(11.527 0)">
          <path id="Trazado_1014424" data-name="Trazado 1014424" d="M153.608,68.43a24.483,24.483,0,0,0-17.646,7.481l2.6,4.5a19.614,19.614,0,0,1,32.685,21.16,13.275,13.275,0,0,1,5.556-.5A24.57,24.57,0,0,0,153.608,68.43Z" transform="translate(-129.154 -68.43)" fill="#fe646f"/>
          <path id="Trazado_1014425" data-name="Trazado 1014425" d="M121.587,271.448A19.619,19.619,0,0,1,93.239,256.2H88.268a24.574,24.574,0,0,0,32.91,20.818,13.251,13.251,0,0,1,.41-5.565Z" transform="translate(-88.268 -229.393)" fill="#fe646f"/>
        </g>
        <g id="Grupo_1165218" data-name="Grupo 1165218" transform="translate(44.167 32.402)">
          <g id="Grupo_1165216" data-name="Grupo 1165216">
            <path id="Trazado_1014426" data-name="Trazado 1014426" d="M330.317,295.426a13.377,13.377,0,0,0-4.043.622,19.6,19.6,0,0,1-8.783,8.924,13.389,13.389,0,1,0,12.827-9.546Z" transform="translate(-316.93 -295.426)" fill="#05e39c"/>
          </g>
          <g id="Grupo_1165217" data-name="Grupo 1165217" transform="translate(10.395)">
            <path id="Trazado_1014427" data-name="Trazado 1014427" d="M392.743,295.426a13.424,13.424,0,0,0-2.993.336,13.39,13.39,0,0,1,0,26.1,13.388,13.388,0,1,0,2.993-26.438Z" transform="translate(-389.75 -295.426)" fill="#0ed290"/>
          </g>
        </g>
        <g id="Grupo_1165221" data-name="Grupo 1165221" transform="translate(16.498 4.946)">
          <g id="Grupo_1165219" data-name="Grupo 1165219">
            <path id="Trazado_1014428" data-name="Trazado 1014428" d="M142.576,103.077a19.57,19.57,0,0,0-15.048,7.036l6.007,10.4a2.944,2.944,0,0,1-2.55,4.416h-7.892a19.612,19.612,0,1,0,19.483-21.856Z" transform="translate(-123.093 -103.077)" fill="#fff"/>
          </g>
          <g id="Grupo_1165220" data-name="Grupo 1165220" transform="translate(16.487 0)">
            <path id="Trazado_1014429" data-name="Trazado 1014429" d="M241.592,103.077a19.763,19.763,0,0,0-3,.228,19.615,19.615,0,0,1,0,38.768,19.613,19.613,0,1,0,3-39Z" transform="translate(-238.596 -103.077)" fill="#f3f0f3"/>
          </g>
        </g>
        <g id="Grupo_1165222" data-name="Grupo 1165222" transform="translate(33.594 22.17)">
          <circle id="Elipse_12189" data-name="Elipse 12189" cx="2.388" cy="2.388" r="2.388" fill="#fe646f"/>
        </g>
        <g id="Grupo_1165225" data-name="Grupo 1165225" transform="translate(0 2.324)">
          <g id="Grupo_1165223" data-name="Grupo 1165223" transform="translate(0 0)">
            <path id="Trazado_1014430" data-name="Trazado 1014430" d="M18.583,86.253,7.933,104.7a3.087,3.087,0,0,0,2.673,4.63h21.3a3.087,3.087,0,0,0,2.673-4.63L23.93,86.253A3.087,3.087,0,0,0,18.583,86.253Z" transform="translate(-7.514 -84.709)" fill="#ffd15b"/>
          </g>
          <g id="Grupo_1165224" data-name="Grupo 1165224" transform="translate(10.78)">
            <path id="Trazado_1014431" data-name="Trazado 1014431" d="M99.322,104.7,88.671,86.253a3.087,3.087,0,0,0-5.347,0l-.288.5L93.4,104.7a3.087,3.087,0,0,1-2.673,4.63h5.924A3.087,3.087,0,0,0,99.322,104.7Z" transform="translate(-83.036 -84.709)" fill="#ffc344"/>
          </g>
        </g>
      </g>
      <g id="Grupo_1165227" data-name="Grupo 1165227" transform="translate(-0.001 21.505)">
        <path id="Trazado_1014432" data-name="Trazado 1014432" d="M345.61,44.995c.492.241.983.5,1.461.768a1.071,1.071,0,0,0,1.05-1.866c-.512-.288-1.04-.566-1.568-.824a1.071,1.071,0,1,0-.942,1.923Z" transform="translate(-295.762 -39.9)"/>
        <path id="Trazado_1014433" data-name="Trazado 1014433" d="M381.048,66.967c.435.334.867.684,1.282,1.042a1.071,1.071,0,0,0,1.4-1.623c-.445-.383-.908-.759-1.375-1.118a1.071,1.071,0,1,0-1.3,1.7Z" transform="translate(-326.297 -58.832)"/>
        <path id="Trazado_1014434" data-name="Trazado 1014434" d="M306.53,30.473c.53.139,1.063.294,1.585.463a1.071,1.071,0,1,0,.659-2.037c-.561-.181-1.133-.349-1.7-.5a1.071,1.071,0,0,0-.542,2.072Z" transform="translate(-262.089 -27.387)"/>
        <path id="Trazado_1014435" data-name="Trazado 1014435" d="M436.522,130.888a1.071,1.071,0,0,0,1.915-.959c-.264-.527-.546-1.053-.84-1.564a1.071,1.071,0,0,0-1.857,1.066c.273.475.536.965.782,1.456Z" transform="translate(-373.419 -112.651)"/>
        <path id="Trazado_1014436" data-name="Trazado 1014436" d="M463.046,248.929a1.069,1.069,0,0,0-1.147.988c-.041.547-.1,1.1-.17,1.643a1.071,1.071,0,1,0,2.123.28c.077-.583.138-1.176.182-1.764A1.07,1.07,0,0,0,463.046,248.929Z" transform="translate(-395.813 -216.463)"/>
        <path id="Trazado_1014437" data-name="Trazado 1014437" d="M412.54,96.758a1.071,1.071,0,1,0,1.688-1.318c-.362-.464-.743-.924-1.13-1.366a1.071,1.071,0,1,0-1.611,1.411c.361.413.715.841,1.053,1.274Z" transform="translate(-352.523 -83.402)"/>
        <path id="Trazado_1014438" data-name="Trazado 1014438" d="M462.91,207.022a1.071,1.071,0,0,0-.933,1.193c.067.543.118,1.1.154,1.645a1.071,1.071,0,0,0,1.067,1l.071,0a1.071,1.071,0,0,0,1-1.138c-.039-.588-.094-1.182-.166-1.765A1.07,1.07,0,0,0,462.91,207.022Z" transform="translate(-396.027 -180.533)"/>
        <path id="Trazado_1014439" data-name="Trazado 1014439" d="M452.811,167.508c.173.521.334,1.053.477,1.583a1.071,1.071,0,1,0,2.067-.559c-.154-.569-.327-1.141-.513-1.7a1.071,1.071,0,1,0-2.031.677Z" transform="translate(-388.128 -145.459)"/>
        <path id="Trazado_1014440" data-name="Trazado 1014440" d="M66.877,62.128q.142-.452.27-.905a1.071,1.071,0,1,0-2.061-.579c-.034.121-.072.243-.108.364a14.348,14.348,0,0,0-3.3-1.146,25.662,25.662,0,0,0-4.431-22.875A1.071,1.071,0,0,0,55.564,38.3a23.522,23.522,0,0,1,3.973,21.26c-.3-.019-.606-.03-.912-.03a14.446,14.446,0,0,0-2.085.151A20.68,20.68,0,0,0,22.3,38.268l-1.448-2.509a23.478,23.478,0,0,1,31.4-.9,1.071,1.071,0,1,0,1.387-1.632,25.622,25.622,0,0,0-33.885.629l-1.339-2.32a4.244,4.244,0,0,0-.51-.7,28.977,28.977,0,0,1,19.148-7.185,1.071,1.071,0,1,0,0-2.141,31.113,31.113,0,0,0-21.026,8.13,4.209,4.209,0,0,0-1.213-.179,4.115,4.115,0,0,0-3.6,2.079L7.155,38.563A1.071,1.071,0,0,0,9.01,39.634l4.058-7.028a2.016,2.016,0,0,1,3.492,0L27.21,51.053a2.016,2.016,0,0,1-1.746,3.024H4.163a2.016,2.016,0,0,1-1.746-3.024l4.095-7.092A1.071,1.071,0,0,0,4.658,42.89L.563,49.982a4.157,4.157,0,0,0,3.6,6.236H5.99a31.256,31.256,0,0,0,31.063,27.8,1.071,1.071,0,1,0,0-2.141A29.116,29.116,0,0,1,8.144,56.218H11.66A25.642,25.642,0,0,0,44.542,77.274a14.365,14.365,0,0,0,2.2,4.953A1.071,1.071,0,1,0,48.5,81.006a12.241,12.241,0,0,1-2.192-7.014,12.37,12.37,0,0,1,.349-2.92,20.824,20.824,0,0,0,8.859-9,12.317,12.317,0,1,1-3.738,22.159,1.071,1.071,0,0,0-1.192,1.779,14.455,14.455,0,0,0,16.29-23.883ZM44.213,75.133A23.494,23.494,0,0,1,13.821,56.218H16.66A20.684,20.684,0,0,0,44.288,72.135a14.583,14.583,0,0,0-.12,1.857q0,.574.045,1.141ZM37.053,71.3A18.549,18.549,0,0,1,18.835,56.219h6.629a4.157,4.157,0,0,0,3.6-6.236L23.418,40.2A18.54,18.54,0,1,1,37.053,71.3Z" transform="translate(0.001 -21.505)"/>
        <path id="Trazado_1014441" data-name="Trazado 1014441" d="M365.763,360.222h.018a1.071,1.071,0,0,0,.793-.37l7.839-9.071a1.071,1.071,0,0,0-1.62-1.4l-7.055,8.165-4.471-4.844a1.071,1.071,0,1,0-1.573,1.452l5.284,5.725A1.071,1.071,0,0,0,365.763,360.222Z" transform="translate(-308.105 -302.261)"/>
        <path id="Trazado_1014442" data-name="Trazado 1014442" d="M253.155,125.452a1.071,1.071,0,0,0,1.071-1.071v-.853a1.071,1.071,0,1,0-2.141,0v.853A1.071,1.071,0,0,0,253.155,125.452Z" transform="translate(-216.101 -108.048)"/>
        <path id="Trazado_1014443" data-name="Trazado 1014443" d="M253.155,337.506a1.071,1.071,0,0,0-1.071,1.071v.853a1.071,1.071,0,1,0,2.141,0v-.853A1.071,1.071,0,0,0,253.155,337.506Z" transform="translate(-216.101 -292.399)"/>
        <path id="Trazado_1014444" data-name="Trazado 1014444" d="M356.622,234.04a1.071,1.071,0,0,0,1.071,1.071h.853a1.071,1.071,0,0,0,0-2.141h-.853A1.07,1.07,0,0,0,356.622,234.04Z" transform="translate(-305.717 -202.784)"/>
        <path id="Trazado_1014445" data-name="Trazado 1014445" d="M198.826,137.8a1.071,1.071,0,1,0-1.854,1.071l.426.738a1.071,1.071,0,1,0,1.854-1.071Z" transform="translate(-168.732 -120.739)"/>
        <path id="Trazado_1014446" data-name="Trazado 1014446" d="M306.35,324.035a1.071,1.071,0,0,0-1.854,1.071l.426.738a1.071,1.071,0,0,0,1.854-1.071Z" transform="translate(-260.908 -280.392)"/>
        <path id="Trazado_1014447" data-name="Trazado 1014447" d="M157.652,285.379l-.738.426a1.071,1.071,0,1,0,1.071,1.854l.738-.426a1.071,1.071,0,0,0-1.071-1.854Z" transform="translate(-134.056 -247.59)"/>
        <path id="Trazado_1014448" data-name="Trazado 1014448" d="M342.759,179.745a1.07,1.07,0,0,0,1.463.392l.738-.426a1.071,1.071,0,0,0-1.071-1.854l-.738.426A1.071,1.071,0,0,0,342.759,179.745Z" transform="translate(-293.709 -155.415)"/>
        <path id="Trazado_1014449" data-name="Trazado 1014449" d="M344.96,285.805l-.738-.426a1.071,1.071,0,1,0-1.071,1.854l.738.426a1.071,1.071,0,0,0,1.071-1.854Z" transform="translate(-293.709 -247.59)"/>
        <path id="Trazado_1014450" data-name="Trazado 1014450" d="M198.859,323.643a1.071,1.071,0,0,0-1.463.392l-.426.738a1.071,1.071,0,1,0,1.854,1.071l.426-.738A1.071,1.071,0,0,0,198.859,323.643Z" transform="translate(-168.731 -280.392)"/>
        <path id="Trazado_1014451" data-name="Trazado 1014451" d="M304.888,140a1.07,1.07,0,0,0,1.462-.392l.426-.738a1.071,1.071,0,0,0-1.854-1.07l-.426.738a1.07,1.07,0,0,0,.392,1.462Z" transform="translate(-260.908 -120.739)"/>
        <path id="Trazado_1014452" data-name="Trazado 1014452" d="M97.356,131.608a1.071,1.071,0,0,0,1.071-1.071v-8.087a1.071,1.071,0,0,0-2.141,0v8.087A1.071,1.071,0,0,0,97.356,131.608Z" transform="translate(-82.541 -107.124)"/>
        <path id="Trazado_1014453" data-name="Trazado 1014453" d="M96.285,209.674a1.071,1.071,0,1,0,2.141,0v-.985a1.071,1.071,0,1,0-2.141,0Z" transform="translate(-82.541 -181.052)"/>
        <path id="Trazado_1014454" data-name="Trazado 1014454" d="M247.855,165.373H242.1a3.473,3.473,0,0,0-2.217-2.217v-7.968a1.071,1.071,0,1,0-2.141,0v7.968a3.458,3.458,0,1,0,4.358,4.358h5.751a1.071,1.071,0,1,0,0-2.141Zm-9.038,2.388a1.317,1.317,0,1,1,1.317-1.317A1.318,1.318,0,0,1,238.816,167.761Z" transform="translate(-201.762 -135.188)"/>
      </g>
    </g>
  </g>
</svg>
