<svg xmlns="http://www.w3.org/2000/svg" xmlns:xlink="http://www.w3.org/1999/xlink" width="113" height="113" viewBox="0 0 113 113">
  <defs>
    <filter id="Trazado_982547" x="0" y="0" width="113" height="113" filterUnits="userSpaceOnUse">
      <feOffset dy="3" input="SourceAlpha"/>
      <feGaussianBlur stdDeviation="3" result="blur"/>
      <feFlood flood-opacity="0.161"/>
      <feComposite operator="in" in2="blur"/>
      <feComposite in="SourceGraphic"/>
    </filter>
  </defs>
  <g id="Grupo_1224676" data-name="Grupo 1224676" transform="translate(-4971.49 -6461.751)">
    <g id="Grupo_1224580" data-name="Grupo 1224580" transform="translate(4616 -602)">
      <g id="Grupo_1224449" data-name="Grupo 1224449" transform="translate(364.49 7069.751)">
        <g id="Grupo_1224084" data-name="Grupo 1224084" transform="translate(0 0)">
          <g id="Grupo_1223183" data-name="Grupo 1223183">
            <g id="Grupo_1211217" data-name="Grupo 1211217">
              <g id="Grupo_1210736" data-name="Grupo 1210736">
                <g id="Grupo_1210537" data-name="Grupo 1210537">
                  <g id="Grupo_1164202" data-name="Grupo 1164202">
                    <g id="Grupo_1158168" data-name="Grupo 1158168">
                      <g id="Grupo_1152576" data-name="Grupo 1152576">
                        <g id="Grupo_1148633" data-name="Grupo 1148633">
                          <g id="Grupo_1148525" data-name="Grupo 1148525">
                            <g transform="matrix(1, 0, 0, 1, -9, -6)" filter="url(#Trazado_982547)">
                              <g id="Trazado_982547-2" data-name="Trazado 982547" transform="translate(9 6)" fill="#fef9e5">
                                <path d="M 47.49999618530273 93.5 C 41.28936767578125 93.5 35.26533126831055 92.28396606445312 29.59518241882324 89.88570404052734 C 24.11771583557129 87.56893157958984 19.19812965393066 84.251953125 14.97308921813965 80.02690124511719 C 10.74803638458252 75.80186462402344 7.431062698364258 70.88227844238281 5.114289283752441 65.40480804443359 C 2.716022968292236 59.73466110229492 1.499996185302734 53.71062469482422 1.499996185302734 47.49999618530273 C 1.499996185302734 41.28936767578125 2.716022968292236 35.26533126831055 5.114289283752441 29.59518241882324 C 7.431062698364258 24.11771583557129 10.74803638458252 19.19812965393066 14.97308921813965 14.97308921813965 C 19.19812965393066 10.74803638458252 24.11771583557129 7.431062698364258 29.59518241882324 5.114289283752441 C 35.26533126831055 2.716022968292236 41.28936767578125 1.499996185302734 47.49999618530273 1.499996185302734 C 53.71062469482422 1.499996185302734 59.73466110229492 2.716022968292236 65.40480804443359 5.114289283752441 C 70.88227844238281 7.431062698364258 75.80186462402344 10.74803638458252 80.02690124511719 14.97308921813965 C 84.251953125 19.19812965393066 87.56893157958984 24.11771583557129 89.88570404052734 29.59518241882324 C 92.28396606445312 35.26533126831055 93.5 41.28936767578125 93.5 47.49999618530273 C 93.5 53.71062469482422 92.28396606445312 59.73466110229492 89.88570404052734 65.40480804443359 C 87.56893157958984 70.88227844238281 84.251953125 75.80186462402344 80.02690124511719 80.02690124511719 C 75.80186462402344 84.251953125 70.88227844238281 87.56893157958984 65.40480804443359 89.88570404052734 C 59.73466110229492 92.28396606445312 53.71062469482422 93.5 47.49999618530273 93.5 Z" stroke="none"/>
                                <path d="M 47.49999618530273 2.999992370605469 C 41.4912109375 2.999992370605469 35.66376495361328 4.1761474609375 30.17950439453125 6.495796203613281 C 24.88084411621094 8.736953735351562 20.12152099609375 11.94598388671875 16.03375244140625 16.03375244140625 C 11.94598388671875 20.12152099609375 8.736953735351562 24.88084411621094 6.495796203613281 30.17950439453125 C 4.1761474609375 35.66376495361328 2.999992370605469 41.4912109375 2.999992370605469 47.49999618530273 C 2.999992370605469 53.50878143310547 4.1761474609375 59.33622741699219 6.495796203613281 64.82048797607422 C 8.736953735351562 70.11914825439453 11.94598388671875 74.87847137451172 16.03375244140625 78.96623992919922 C 20.12152099609375 83.05400848388672 24.88084411621094 86.26304626464844 30.17950439453125 88.50419616699219 C 35.66376495361328 90.82384490966797 41.4912109375 92 47.49999618530273 92 C 53.50878143310547 92 59.33622741699219 90.82384490966797 64.82048797607422 88.50419616699219 C 70.11914825439453 86.26304626464844 74.87847137451172 83.05400848388672 78.96623992919922 78.96623992919922 C 83.05400848388672 74.87847137451172 86.26304626464844 70.11914825439453 88.50419616699219 64.82048797607422 C 90.82384490966797 59.33622741699219 92 53.50878143310547 92 47.49999618530273 C 92 41.4912109375 90.82384490966797 35.66376495361328 88.50419616699219 30.17950439453125 C 86.26304626464844 24.88084411621094 83.05400848388672 20.12152099609375 78.96623992919922 16.03375244140625 C 74.87847137451172 11.94598388671875 70.11914825439453 8.736953735351562 64.82048797607422 6.495796203613281 C 59.33622741699219 4.1761474609375 53.50878143310547 2.999992370605469 47.49999618530273 2.999992370605469 M 47.49999618530273 -7.62939453125e-06 C 73.7335205078125 -7.62939453125e-06 95 21.26647186279297 95 47.49999618530273 C 95 73.7335205078125 73.7335205078125 95 47.49999618530273 95 C 21.26647186279297 95 -7.62939453125e-06 73.7335205078125 -7.62939453125e-06 47.49999618530273 C -7.62939453125e-06 21.26647186279297 21.26647186279297 -7.62939453125e-06 47.49999618530273 -7.62939453125e-06 Z" stroke="none" fill="#f6c810"/>
                              </g>
                            </g>
                          </g>
                        </g>
                      </g>
                    </g>
                  </g>
                </g>
              </g>
            </g>
          </g>
        </g>
      </g>
    </g>
    <g id="header_3316400" transform="translate(4996 6483)">
      <g id="Grupo_1224674" data-name="Grupo 1224674">
        <g id="Grupo_1224661" data-name="Grupo 1224661">
          <path id="Trazado_1051585" data-name="Trazado 1051585" d="M54,54H2v4a4,4,0,0,0,4,4H54a4,4,0,0,0,4-4V54Z" fill="#969faa"/>
        </g>
        <g id="Grupo_1224662" data-name="Grupo 1224662">
          <path id="Trazado_1051586" data-name="Trazado 1051586" d="M54,41.2V54H6V22a4,4,0,0,1,4-4H38.69a11.862,11.862,0,0,0,2.36,4H11a1,1,0,0,0-1,1V49a1,1,0,0,0,1,1H49a1,1,0,0,0,1-1V46a1.8,1.8,0,0,0,1.53-.85Z" fill="#ccd1d9"/>
        </g>
        <g id="Grupo_1224663" data-name="Grupo 1224663">
          <path id="Trazado_1051587" data-name="Trazado 1051587" d="M10,49V23a1,1,0,0,1,1-1H41.05A12.18,12.18,0,0,0,44,24.4V38l4.47,7.15A1.8,1.8,0,0,0,50,46v3a1,1,0,0,1-1,1H11A1,1,0,0,1,10,49Z" fill="#69d6f4"/>
        </g>
        <g id="Grupo_1224664" data-name="Grupo 1224664">
          <path id="Trazado_1051588" data-name="Trazado 1051588" d="M14,26H26V38H14Z" fill="#ff826e"/>
        </g>
        <g id="Grupo_1224665" data-name="Grupo 1224665">
          <path id="Trazado_1051589" data-name="Trazado 1051589" d="M30,42H40v4H30Z" fill="#fcd770"/>
        </g>
        <g id="Grupo_1224666" data-name="Grupo 1224666">
          <path id="Trazado_1051590" data-name="Trazado 1051590" d="M56,24.4V38H52V25.83A11.875,11.875,0,0,0,56,24.4Z" fill="#ff826e"/>
        </g>
        <g id="Grupo_1224667" data-name="Grupo 1224667">
          <path id="Trazado_1051591" data-name="Trazado 1051591" d="M48,25.83V38H44V24.4A11.875,11.875,0,0,0,48,25.83Z" fill="#ff826e"/>
        </g>
        <g id="Grupo_1224668" data-name="Grupo 1224668">
          <path id="Trazado_1051592" data-name="Trazado 1051592" d="M52,25.83V38H48V25.83a11.85,11.85,0,0,0,4,0Z" fill="#b4dd7f"/>
        </g>
        <g id="Grupo_1224669" data-name="Grupo 1224669">
          <path id="Trazado_1051593" data-name="Trazado 1051593" d="M56,38l-2,3.2-2.47,3.95a1.8,1.8,0,0,1-3.06,0L44,38H56Z" fill="#cf9e76"/>
        </g>
        <g id="Grupo_1224670" data-name="Grupo 1224670">
          <path id="Trazado_1051594" data-name="Trazado 1051594" d="M41.05,22A12.081,12.081,0,0,1,38,14,12,12,0,1,1,56,24.4a11.875,11.875,0,0,1-4,1.43,11.85,11.85,0,0,1-4,0,11.875,11.875,0,0,1-4-1.43A12.18,12.18,0,0,1,41.05,22Z" fill="#fcd770"/>
        </g>
        <g id="Grupo_1224671" data-name="Grupo 1224671">
          <path id="Trazado_1051595" data-name="Trazado 1051595" d="M52,60v2H48V58h2A2.006,2.006,0,0,1,52,60Z" fill="#ff826e"/>
        </g>
        <g id="Grupo_1224672" data-name="Grupo 1224672">
          <path id="Trazado_1051596" data-name="Trazado 1051596" d="M44,58h4v4H44Z" fill="#ff826e"/>
        </g>
        <g id="Grupo_1224673" data-name="Grupo 1224673">
          <path id="Trazado_1051597" data-name="Trazado 1051597" d="M44,58v4H40V60a2.006,2.006,0,0,1,2-2Z" fill="#ff826e"/>
        </g>
      </g>
      <g id="Grupo_1224675" data-name="Grupo 1224675">
        <path id="Trazado_1051598" data-name="Trazado 1051598" d="M40.78,13H59.219v2H40.78Z" transform="matrix(0.217, -0.976, 0.976, 0.217, 25.492, 59.775)"/>
        <path id="Trazado_1051599" data-name="Trazado 1051599" d="M54.781,19.625,59.281,14l-4.5-5.625-1.562,1.25L56.719,14l-3.5,4.375Z"/>
        <path id="Trazado_1051600" data-name="Trazado 1051600" d="M46.781,18.375,43.281,14l3.5-4.375-1.562-1.25L40.719,14l4.5,5.625Z"/>
        <path id="Trazado_1051601" data-name="Trazado 1051601" d="M57,38.287V24.937A13.02,13.02,0,1,0,37.363,17H10a5.006,5.006,0,0,0-5,5V53H1v5a5.006,5.006,0,0,0,5,5H54a5.006,5.006,0,0,0,5-5V53H55V41.487ZM43,24.937v13.35l4.622,7.4A2.768,2.768,0,0,0,49,46.795V49H11V23H40.641A13.038,13.038,0,0,0,43,24.937ZM49,37V26.949c.331.026.662.051,1,.051s.669-.025,1-.051V37Zm-2,0H45V26a12.985,12.985,0,0,0,2,.64Zm3.682,7.622a.831.831,0,0,1-1.363,0L45.8,39H54.2ZM55,37H53V26.637A12.772,12.772,0,0,0,55,26ZM50,3A11,11,0,1,1,39,14,11.013,11.013,0,0,1,50,3Zm1,58H49V59h1a1,1,0,0,1,1,1Zm-4,0H45V59h2Zm-4,0H41V60a1,1,0,0,1,1-1h1Zm14-6v3a3,3,0,0,1-3,3H53V60a3,3,0,0,0-3-3H42a3,3,0,0,0-3,3v1H6a3,3,0,0,1-3-3V55H57Zm-4-2H7V22a3,3,0,0,1,3-3H38a12.862,12.862,0,0,0,1.06,2H11a2,2,0,0,0-2,2V49a2,2,0,0,0,2,2H49a2,2,0,0,0,2-2V46.794a2.767,2.767,0,0,0,1.378-1.113L53,44.686Z"/>
        <path id="Trazado_1051602" data-name="Trazado 1051602" d="M27,25H13V39H27ZM25,37H15V27H25Z"/>
        <path id="Trazado_1051603" data-name="Trazado 1051603" d="M29,25H41v2H29Z"/>
        <path id="Trazado_1051604" data-name="Trazado 1051604" d="M29,29H41v2H29Z"/>
        <path id="Trazado_1051605" data-name="Trazado 1051605" d="M29,33H41v2H29Z"/>
        <path id="Trazado_1051606" data-name="Trazado 1051606" d="M29,37H41v2H29Z"/>
        <path id="Trazado_1051607" data-name="Trazado 1051607" d="M41,41H29v6H41Zm-2,4H31V43h8Z"/>
        <path id="Trazado_1051608" data-name="Trazado 1051608" d="M13,41H27v2H13Z"/>
        <path id="Trazado_1051609" data-name="Trazado 1051609" d="M13,45H27v2H13Z"/>
      </g>
    </g>
  </g>
</svg>
