<svg xmlns="http://www.w3.org/2000/svg" xmlns:xlink="http://www.w3.org/1999/xlink" width="110" height="110" viewBox="0 0 110 110">
  <defs>
    <filter id="Trazado_982547" x="0" y="0" width="110" height="110" filterUnits="userSpaceOnUse">
      <feOffset dy="3" input="SourceAlpha"/>
      <feGaussianBlur stdDeviation="3" result="blur"/>
      <feFlood flood-opacity="0.161"/>
      <feComposite operator="in" in2="blur"/>
      <feComposite in="SourceGraphic"/>
    </filter>
  </defs>
  <g id="Grupo_1165241" data-name="Grupo 1165241" transform="translate(705 -3711.009)">
    <g id="Grupo_1163551" data-name="Grupo 1163551" transform="translate(-696 3717.009)">
      <g id="Grupo_1158891" data-name="Grupo 1158891" transform="translate(0 0)">
        <g id="Grupo_1157406" data-name="Grupo 1157406" transform="translate(0 0)">
          <g id="Grupo_1155793" data-name="Grupo 1155793">
            <g id="Grupo_1154704" data-name="Grupo 1154704">
              <g id="Grupo_1150790" data-name="Grupo 1150790">
                <g id="Grupo_1154214" data-name="Grupo 1154214">
                  <g id="Grupo_1152583" data-name="Grupo 1152583">
                    <g id="Grupo_1146973" data-name="Grupo 1146973">
                      <g id="Grupo_1146954" data-name="Grupo 1146954">
                        <g transform="matrix(1, 0, 0, 1, -9, -6)" filter="url(#Trazado_982547)">
                          <g id="Trazado_982547-2" data-name="Trazado 982547" transform="translate(9 6)" fill="#f5e9fe">
                            <path d="M 46 90.49987030029297 C 39.99187850952148 90.49987030029297 34.16426849365234 89.32350921630859 28.67905426025391 87.00345611572266 C 23.38019943237305 84.76224517822266 18.62104034423828 81.55341339111328 14.53374671936035 77.46613311767578 C 10.44646644592285 73.37885284423828 7.237639904022217 68.61969757080078 4.996413230895996 63.32085418701172 C 2.676359891891479 57.83565521240234 1.5 52.008056640625 1.5 45.99993515014648 C 1.5 39.99181365966797 2.676359891891479 34.16421508789062 4.996413230895996 28.67901420593262 C 7.237639904022217 23.38017463684082 10.44646644592285 18.62101554870605 14.53374671936035 14.53373527526855 C 18.62104034423828 10.44645500183105 23.38019943237305 7.23762845993042 28.67905426025391 4.996415138244629 C 34.16426849365234 2.676361799240112 39.99187850952148 1.500001788139343 46 1.500001788139343 C 52.00812149047852 1.500001788139343 57.83573150634766 2.676361799240112 63.32094573974609 4.996415138244629 C 68.61979675292969 7.23762845993042 73.37895965576172 10.44645500183105 77.46625518798828 14.53373527526855 C 81.55353546142578 18.62101554870605 84.76235961914062 23.38017463684082 87.00358581542969 28.67901420593262 C 89.32363891601562 34.16421508789062 90.5 39.99181365966797 90.5 45.99993515014648 C 90.5 52.008056640625 89.32363891601562 57.83565521240234 87.00358581542969 63.32085418701172 C 84.76235961914062 68.61969757080078 81.55353546142578 73.37885284423828 77.46625518798828 77.46613311767578 C 73.37895965576172 81.55341339111328 68.61979675292969 84.76224517822266 63.32094573974609 87.00345611572266 C 57.83573150634766 89.32350921630859 52.00812149047852 90.49987030029297 46 90.49987030029297 Z" stroke="none"/>
                            <path d="M 46 2.999992370605469 C 40.1937141418457 2.999992370605469 34.56269836425781 4.136489868164062 29.26337051391602 6.377906799316406 C 24.14332580566406 8.543502807617188 19.54441070556641 11.64437866210938 15.59439849853516 15.59437561035156 C 11.64440155029297 19.54439544677734 8.54351806640625 24.14329528808594 6.377914428710938 29.26333618164062 C 4.136497497558594 34.56264877319336 3 40.19366455078125 3 45.99993515014648 C 3 51.80620574951172 4.136497497558594 57.43720626831055 6.377914428710938 62.73651885986328 C 8.54351806640625 67.8565673828125 11.64440155029297 72.45545959472656 15.59439849853516 76.40547943115234 C 19.54441070556641 80.35547637939453 24.14332580566406 83.45635223388672 29.26337051391602 85.6219482421875 C 34.56269836425781 87.86336517333984 40.1937141418457 88.99986267089844 46 88.99986267089844 C 51.8062858581543 88.99986267089844 57.43730163574219 87.86336517333984 62.73661422729492 85.6219482421875 C 67.85667419433594 83.45635223388672 72.45557403564453 80.35547637939453 76.40558624267578 76.40547943115234 C 80.35559844970703 72.45545959472656 83.45647430419922 67.8565673828125 85.6220703125 62.73651885986328 C 87.86350250244141 57.43720626831055 89 51.80620574951172 89 45.99993515014648 C 89 40.19366455078125 87.86350250244141 34.56264877319336 85.6220703125 29.26333618164062 C 83.45647430419922 24.14329528808594 80.35559844970703 19.54439544677734 76.40558624267578 15.59437561035156 C 72.45557403564453 11.64437866210938 67.85667419433594 8.543502807617188 62.73661422729492 6.377906799316406 C 57.43730163574219 4.136489868164062 51.8062858581543 2.999992370605469 46 2.999992370605469 M 46 -7.62939453125e-06 C 71.40509033203125 -7.62939453125e-06 92 20.59486389160156 92 45.99993515014648 C 92 71.40499114990234 71.40509033203125 91.99986267089844 46 91.99986267089844 C 20.59490203857422 91.99986267089844 0 71.40499114990234 0 45.99993515014648 C 0 20.59486389160156 20.59490203857422 -7.62939453125e-06 46 -7.62939453125e-06 Z" stroke="none" fill="#a530fe"/>
                          </g>
                        </g>
                      </g>
                    </g>
                  </g>
                </g>
              </g>
            </g>
          </g>
        </g>
      </g>
    </g>
    <g id="patentar" transform="translate(-708.32 3733.639)">
      <g id="Grupo_1165230" data-name="Grupo 1165230" transform="translate(32.215 0.896)">
        <path id="Trazado_1014455" data-name="Trazado 1014455" d="M80.8,7.5H41.228a2.413,2.413,0,0,0-2.413,2.413V64.449a2.412,2.412,0,0,0,2.413,2.413H80.8a2.412,2.412,0,0,0,2.413-2.413V9.913A2.413,2.413,0,0,0,80.8,7.5Z" transform="translate(-38.815 -7.5)" fill="#f1f6f7"/>
      </g>
      <g id="Grupo_1165231" data-name="Grupo 1165231" transform="translate(54.746 0.896)">
        <path id="Trazado_1014456" data-name="Trazado 1014456" d="M246.909,7.5h-3.62A2.413,2.413,0,0,1,245.7,9.913V23.735a16.243,16.243,0,0,0-11.293,29.447l.478.992a5.8,5.8,0,0,0,.324,9.553v.461a5.772,5.772,0,0,0,.655,2.674h11.044a2.412,2.412,0,0,0,2.413-2.413V9.913A2.413,2.413,0,0,0,246.909,7.5Z" transform="translate(-227.452 -7.5)" fill="#deecf1"/>
      </g>
      <g id="Grupo_1165232" data-name="Grupo 1165232" transform="translate(42.35 6.446)">
        <path id="Trazado_1014457" data-name="Trazado 1014457" d="M0,0H3.861V24.131H0Z" transform="translate(24.131) rotate(90)" fill="#62a4fb"/>
      </g>
      <g id="Grupo_1165233" data-name="Grupo 1165233" transform="translate(36.159 50.304)">
        <path id="Trazado_1014458" data-name="Trazado 1014458" d="M0,0H3.861V18.257H0Z" transform="translate(18.257) rotate(90)" fill="#e175a5"/>
      </g>
      <g id="Grupo_1165239" data-name="Grupo 1165239" transform="translate(57.883 20.143)">
        <g id="Grupo_1165234" data-name="Grupo 1165234">
          <path id="Trazado_1014459" data-name="Trazado 1014459" d="M279.93,181.754a13.107,13.107,0,1,0-19.944,11.183l2.469,5.127h8.738l2.469-5.127A13.1,13.1,0,0,0,279.93,181.754Z" transform="translate(-253.717 -168.647)" fill="#ffd064"/>
        </g>
        <g id="Grupo_1165235" data-name="Grupo 1165235" transform="translate(4.812 1.223)">
          <path id="Trazado_1014460" data-name="Trazado 1014460" d="M307.832,178.889a15.012,15.012,0,0,1-13.261,22.041c-.19,0-.379,0-.568-.012a13.144,13.144,0,0,0,1.457,1.037l2.469,5.127h8.738l2.469-5.127a13.11,13.11,0,0,0-1.3-23.067Z" transform="translate(-294.003 -178.889)" fill="#ffc250"/>
        </g>
        <g id="Grupo_1165236" data-name="Grupo 1165236" transform="translate(5.084 29.417)">
          <path id="Trazado_1014461" data-name="Trazado 1014461" d="M296.28,417.613a2.674,2.674,0,0,1,2.674-2.674h10.7a2.674,2.674,0,0,1,0,5.349h-10.7A2.674,2.674,0,0,1,296.28,417.613Z" transform="translate(-296.28 -414.939)" fill="#acacac"/>
        </g>
        <g id="Grupo_1165237" data-name="Grupo 1165237" transform="translate(13.775 29.417)">
          <path id="Trazado_1014462" data-name="Trazado 1014462" d="M373.728,414.939h-4.68a2.674,2.674,0,0,1,0,5.349h4.68a2.674,2.674,0,0,0,0-5.349Z" transform="translate(-369.048 -414.939)" fill="#9c9c9c"/>
        </g>
        <g id="Grupo_1165238" data-name="Grupo 1165238" transform="translate(7.758 34.766)">
          <path id="Trazado_1014463" data-name="Trazado 1014463" d="M318.67,462.394V459.72h10.7v2.674a2.674,2.674,0,0,1-2.674,2.674h-5.349A2.674,2.674,0,0,1,318.67,462.394Z" transform="translate(-318.67 -459.72)" fill="#5a5a5a"/>
        </g>
      </g>
      <g id="Grupo_1165240" data-name="Grupo 1165240" transform="translate(31.32 0)">
        <path id="Trazado_1014464" data-name="Trazado 1014464" d="M86.23,194.368a.9.9,0,0,0-.9-.9h-20.8a.9.9,0,0,0,0,1.792h20.8A.9.9,0,0,0,86.23,194.368Z" transform="translate(-59.781 -170.364)"/>
        <path id="Trazado_1014465" data-name="Trazado 1014465" d="M137.734,129.717a.9.9,0,0,0-.9-.9h-31.9a.9.9,0,1,0,0,1.792h31.9A.9.9,0,0,0,137.734,129.717Z" transform="translate(-95.36 -113.435)"/>
        <path id="Trazado_1014466" data-name="Trazado 1014466" d="M89.729,162.042a.9.9,0,0,0-.9-.9h-24.3a.9.9,0,0,0,0,1.792h24.3A.9.9,0,0,0,89.729,162.042Z" transform="translate(-59.781 -141.899)"/>
        <path id="Trazado_1014467" data-name="Trazado 1014467" d="M64.537,227.589h3.8a.9.9,0,1,0,0-1.792h-3.8a.9.9,0,0,0,0,1.792Z" transform="translate(-59.781 -198.828)"/>
        <path id="Trazado_1014468" data-name="Trazado 1014468" d="M139.181,227.589a.9.9,0,1,0,0-1.792H128.712a.9.9,0,0,0,0,1.792Z" transform="translate(-116.291 -198.828)"/>
        <path id="Trazado_1014469" data-name="Trazado 1014469" d="M32.216,43.08a.9.9,0,0,0,.9-.9V3.308a1.519,1.519,0,0,1,1.517-1.517H74.2a1.519,1.519,0,0,1,1.517,1.517V8.6a.9.9,0,1,0,1.792,0V3.308A3.312,3.312,0,0,0,74.2,0H34.628A3.312,3.312,0,0,0,31.32,3.308V42.184A.9.9,0,0,0,32.216,43.08Z" transform="translate(-31.32 0)"/>
        <path id="Trazado_1014470" data-name="Trazado 1014470" d="M141.2,52.12a.9.9,0,0,0,.9-.9V47.364a.9.9,0,0,0-.9-.9H117.065a.9.9,0,0,0-.9.9v3.861a.9.9,0,0,0,.9.9ZM117.961,48.26H140.3v2.069H117.961Z" transform="translate(-106.035 -40.918)"/>
        <path id="Trazado_1014471" data-name="Trazado 1014471" d="M65.228,419.319H83.485a.9.9,0,0,0,.9-.9v-3.861a.9.9,0,0,0-.9-.9H65.228a.9.9,0,0,0-.9.9v3.861A.9.9,0,0,0,65.228,419.319Zm.9-3.861H82.589v2.069H66.124Z" transform="translate(-60.389 -364.259)"/>
        <path id="Trazado_1014472" data-name="Trazado 1014472" d="M84.992,120.865a13.845,13.845,0,0,0-1.457-6.222.9.9,0,1,0-1.6.8,12.217,12.217,0,0,1-4.571,15.843.9.9,0,0,0-.339.375L74.8,136.28H71.886V123.136a1.732,1.732,0,0,1,3.464,0,.9.9,0,1,0,1.792,0,3.522,3.522,0,0,0-6.151-2.345,3.522,3.522,0,0,0-6.151,2.345.9.9,0,0,0,1.792,0,1.732,1.732,0,1,1,3.464,0V136.28h-2.91l-2.225-4.62a.9.9,0,0,0-.339-.375,12.211,12.211,0,1,1,15.051-19,.9.9,0,0,0,1.274-1.259,14.029,14.029,0,0,0-3.435-2.554V100.4a.9.9,0,1,0-1.792,0v7.282a14.007,14.007,0,0,0-12.262,24.992l1.751,3.637a3.57,3.57,0,0,0-.463,7V145.2a3.546,3.546,0,0,0,.477,1.779H34.629a1.519,1.519,0,0,1-1.517-1.517V133.98a.9.9,0,0,0-1.792,0v11.481a3.312,3.312,0,0,0,3.308,3.308H73.665a3.574,3.574,0,0,0,3.57-3.57v-1.892a3.57,3.57,0,0,0-.463-7l1.751-3.637a13.913,13.913,0,0,0,6.469-11.805ZM75.443,145.2a1.781,1.781,0,0,1-1.779,1.779H68.316a1.781,1.781,0,0,1-1.778-1.779V143.42h8.906Zm2.674-5.349a1.781,1.781,0,0,1-1.779,1.779h-10.7a1.779,1.779,0,1,1,0-3.557h10.7A1.781,1.781,0,0,1,78.118,139.85Z" transform="translate(-31.321 -87.616)"/>
      </g>
    </g>
  </g>
</svg>
