<svg xmlns="http://www.w3.org/2000/svg" xmlns:xlink="http://www.w3.org/1999/xlink" width="108" height="108" viewBox="0 0 108 108">
  <defs>
    <filter id="Trazado_982547" x="0" y="0" width="108" height="108" filterUnits="userSpaceOnUse">
      <feOffset dy="3" input="SourceAlpha"/>
      <feGaussianBlur stdDeviation="3" result="blur"/>
      <feFlood flood-opacity="0.161"/>
      <feComposite operator="in" in2="blur"/>
      <feComposite in="SourceGraphic"/>
    </filter>
  </defs>
  <g id="Grupo_1165305" data-name="Grupo 1165305" transform="translate(-171 -5744)">
    <g id="Grupo_1163556" data-name="Grupo 1163556" transform="translate(0 5434)">
      <g id="Grupo_1158951" data-name="Grupo 1158951" transform="translate(-33 -11275)">
        <g id="Grupo_1153311" data-name="Grupo 1153311" transform="translate(12 1399)">
          <g id="Grupo_1149261" data-name="Grupo 1149261" transform="translate(-83 6759)">
            <g id="Grupo_1147065" data-name="Grupo 1147065" transform="translate(-341 -556)">
              <g transform="matrix(1, 0, 0, 1, 616, 3983)" filter="url(#Trazado_982547)">
                <g id="Trazado_982547-2" data-name="Trazado 982547" transform="translate(9 6)" fill="#f5e9fe">
                  <path d="M 45 88.5 C 39.12687683105469 88.5 33.43022537231445 87.35007476806641 28.06830024719238 85.08217620849609 C 22.88852500915527 82.89131164550781 18.23629951477051 79.75458526611328 14.2408504486084 75.75914764404297 C 10.24541282653809 71.76370239257812 7.108687400817871 67.11147308349609 4.917825222015381 61.93170166015625 C 2.649924993515015 56.56977462768555 1.5 50.87312316894531 1.5 45 C 1.5 39.12687683105469 2.649924993515015 33.43022537231445 4.917825222015381 28.06830024719238 C 7.108687400817871 22.88852500915527 10.24541282653809 18.23629951477051 14.2408504486084 14.2408504486084 C 18.23629951477051 10.24541282653809 22.88852500915527 7.108687400817871 28.06830024719238 4.917825222015381 C 33.43022537231445 2.649924993515015 39.12687683105469 1.5 45 1.5 C 50.87312316894531 1.5 56.56977462768555 2.649924993515015 61.93170166015625 4.917825222015381 C 67.11147308349609 7.108687400817871 71.76370239257812 10.24541282653809 75.75914764404297 14.2408504486084 C 79.75458526611328 18.23629951477051 82.89131164550781 22.88852500915527 85.08217620849609 28.06830024719238 C 87.35007476806641 33.43022537231445 88.5 39.12687683105469 88.5 45 C 88.5 50.87312316894531 87.35007476806641 56.56977462768555 85.08217620849609 61.93170166015625 C 82.89131164550781 67.11147308349609 79.75458526611328 71.76370239257812 75.75914764404297 75.75914764404297 C 71.76370239257812 79.75458526611328 67.11147308349609 82.89131164550781 61.93170166015625 85.08217620849609 C 56.56977462768555 87.35007476806641 50.87312316894531 88.5 45 88.5 Z" stroke="none"/>
                  <path d="M 45 3 C 39.32871246337891 3 33.82865524291992 4.110054016113281 28.65262985229492 6.299339294433594 C 23.65165710449219 8.414573669433594 19.15968322753906 11.44334411621094 15.301513671875 15.301513671875 C 11.44334411621094 19.15968322753906 8.414573669433594 23.65165710449219 6.299339294433594 28.65262985229492 C 4.110054016113281 33.82865524291992 3 39.32871246337891 3 45 C 3 50.67128753662109 4.110054016113281 56.17134475708008 6.299339294433594 61.34737396240234 C 8.414573669433594 66.34834289550781 11.44334411621094 70.84031677246094 15.301513671875 74.698486328125 C 19.15968322753906 78.55665588378906 23.65165710449219 81.58542633056641 28.65262985229492 83.70066070556641 C 33.82865524291992 85.88994598388672 39.32871246337891 87 45 87 C 50.67128753662109 87 56.17134475708008 85.88994598388672 61.34737396240234 83.70066070556641 C 66.34834289550781 81.58542633056641 70.84031677246094 78.55665588378906 74.698486328125 74.698486328125 C 78.55665588378906 70.84031677246094 81.58542633056641 66.34834289550781 83.70066070556641 61.34737396240234 C 85.88994598388672 56.17134475708008 87 50.67128753662109 87 45 C 87 39.32871246337891 85.88994598388672 33.82865524291992 83.70066070556641 28.65262985229492 C 81.58542633056641 23.65165710449219 78.55665588378906 19.15968322753906 74.698486328125 15.301513671875 C 70.84031677246094 11.44334411621094 66.34834289550781 8.414573669433594 61.34737396240234 6.299339294433594 C 56.17134475708008 4.110054016113281 50.67128753662109 3 45 3 M 45 0 C 69.85281372070312 0 90 20.14718627929688 90 45 C 90 69.85281372070312 69.85281372070312 90 45 90 C 20.14718627929688 90 0 69.85281372070312 0 45 C 0 20.14718627929688 20.14718627929688 0 45 0 Z" stroke="none" fill="#a530fe"/>
                </g>
              </g>
            </g>
          </g>
        </g>
      </g>
    </g>
    <g id="idea_8_" data-name="idea (8)" transform="translate(187.033 5765.001)">
      <g id="Grupo_1165303" data-name="Grupo 1165303" transform="translate(10.332 0.447)">
        <g id="Grupo_1165302" data-name="Grupo 1165302" transform="translate(0)">
          <path id="Trazado_1014637" data-name="Trazado 1014637" d="M234.246,224.6h-6.4v4.792a1.667,1.667,0,0,0,1.667,1.667h3.067a1.667,1.667,0,0,0,1.667-1.667Z" transform="translate(-203.843 -199.015)" fill="#a59ca6"/>
          <path id="Trazado_1014638" data-name="Trazado 1014638" d="M233.825,230.069h-3.067a1.667,1.667,0,0,1-1.667-1.667v-.415a.646.646,0,0,1,.646-.646h4.508V224.6h-6.4v4.792a1.667,1.667,0,0,0,1.667,1.667h3.067a1.667,1.667,0,0,0,1.535-1.016A1.675,1.675,0,0,1,233.825,230.069Z" transform="translate(-203.842 -199.016)" fill="#8f8390"/>
          <path id="Trazado_1014639" data-name="Trazado 1014639" d="M295.756,275.8l5.091-4.291a2.463,2.463,0,0,0,.289-3.484,2.5,2.5,0,0,0-3.5-.288l-10.582,8.919-3.982,3.451,5.574,2.192Z" transform="translate(-252.665 -236.632)" fill="#ffe0d1"/>
          <path id="Trazado_1014640" data-name="Trazado 1014640" d="M284.846,280.622l3.982-3.451,10.582-8.919a2.481,2.481,0,0,1,1.368-.573,2.5,2.5,0,0,0-3.144.057l-10.582,8.919-3.982,3.451,5.574,2.192.14-.128Z" transform="translate(-252.665 -236.635)" fill="#ffd1c2"/>
          <path id="Trazado_1014641" data-name="Trazado 1014641" d="M259.227,264.92l8.032-6.718a2.448,2.448,0,0,0,.109-3.315,2.528,2.528,0,0,0-3.53-.288l-7.157,5.986-5.339,4.136,3.182,4.041Z" transform="translate(-224.616 -225.021)" fill="#ffe0d1"/>
          <path id="Trazado_1014642" data-name="Trazado 1014642" d="M253.147,265.555l5.339-4.136,7.157-5.986a2.519,2.519,0,0,1,1.691-.584,2.529,2.529,0,0,0-3.5-.248l-7.157,5.986-5.339,4.136,3.182,4.041.7-.572Z" transform="translate(-224.617 -225.023)" fill="#ffd1c2"/>
          <path id="Trazado_1014643" data-name="Trazado 1014643" d="M183.455,14.723a10.863,10.863,0,1,0-19.748,6.252l5.227,8.138v1.058a1.206,1.206,0,0,0,1.206,1.206h4.9a1.206,1.206,0,0,0,1.206-1.206V29.113l5.227-8.138A10.811,10.811,0,0,0,183.455,14.723Z" transform="translate(-145.389 -3.86)" fill="#fbe88c"/>
          <path id="Trazado_1014644" data-name="Trazado 1014644" d="M168.289,22.361A11.963,11.963,0,0,1,166.22,15.6a11.667,11.667,0,0,1,8.857-11.457,10.865,10.865,0,0,0-11.369,16.829l5.227,8.138v1.058a1.206,1.206,0,0,0,1.206,1.206h3.1Z" transform="translate(-145.389 -3.86)" fill="#fbe372"/>
          <g id="Grupo_1165300" data-name="Grupo 1165300" transform="translate(0 32.044)">
            <g id="XMLID_250_">
              <g id="Grupo_1165299" data-name="Grupo 1165299" transform="translate(0 0)">
                <path id="Trazado_1014645" data-name="Trazado 1014645" d="M54.13,288.288l.2.022h7.578a2.439,2.439,0,0,0,1.577-.578l8.04-6.814a2.472,2.472,0,0,1,3.2,3.771L62.027,295.447a8.779,8.779,0,0,1-4.626,2.017l-14.172,1.7-5.5,6.586a.728.728,0,0,1-.781.227l-15.694-5.02a.728.728,0,0,1-.349-1.146l6.058-7.646.451-.952a13.354,13.354,0,0,1,12.065-7.631h12a3.1,3.1,0,0,1,2.647,4.7Z" transform="translate(-20.747 -280.333)" fill="#ffe0d1"/>
              </g>
              <path id="Trazado_1014646" data-name="Trazado 1014646" d="M203.567,280.333a2.464,2.464,0,0,0-1.6.585l-8.04,6.814a2.439,2.439,0,0,1-1.577.578h-7.578l-.2-.022a3.118,3.118,0,0,0,.158-.3H168.3v.594a2.931,2.931,0,0,0,2.931,2.931h10.707a4.862,4.862,0,0,0,3.529-1.538,1.072,1.072,0,0,1,.782-.338h6.909a2.522,2.522,0,0,0,1.66-.627l8.459-7.388a2.526,2.526,0,0,1,2-.614A2.47,2.47,0,0,0,203.567,280.333Z" transform="translate(-151.195 -280.333)" fill="#ffd1c2"/>
              <path id="Trazado_1014647" data-name="Trazado 1014647" d="M172.3,311.5a3.093,3.093,0,0,1-3.163,3.095H154l-.107-5.778a13.4,13.4,0,0,1,3.3-.413h12a3.094,3.094,0,0,1,3.1,3.1Z" transform="translate(-138.465 -305.15)" fill="#ffe0d1"/>
            </g>
          </g>
          <g id="Grupo_1165301" data-name="Grupo 1165301" transform="translate(0 35.297)">
            <path id="Trazado_1014648" data-name="Trazado 1014648" d="M28.688,319.444l.451-.952A13.354,13.354,0,0,1,41.2,310.862h12a3.089,3.089,0,0,1,1.354.312,3.1,3.1,0,0,0-3.08-2.77h-12a13.354,13.354,0,0,0-12.065,7.631l-.451.952L20.9,324.631a.728.728,0,0,0,.349,1.146l1.928.617Z" transform="translate(-20.747 -308.403)" fill="#ffd1c2"/>
          </g>
        </g>
      </g>
      <g id="Grupo_1165304" data-name="Grupo 1165304" transform="translate(8.967 -0.001)">
        <path id="Trazado_1014649" data-name="Trazado 1014649" d="M19.376,332.018a14.156,14.156,0,0,0-3.163,4.315l-.409.862-6.65,8.394a.869.869,0,1,0,1.363,1.079l6.711-8.472a.874.874,0,0,0,.1-.167l.451-.952a12.423,12.423,0,0,1,2.776-3.788.869.869,0,1,0-1.184-1.273Z" transform="translate(-8.967 -293.33)"/>
        <path id="Trazado_1014650" data-name="Trazado 1014650" d="M165.786,250.757a3.345,3.345,0,0,0-4.709-.389l-.449.381a3.339,3.339,0,0,0-5.438-1.908l-.4.338a3.346,3.346,0,0,0-5.432-1.86l-6.681,5.662a3.95,3.95,0,0,0-1.078-.15h-12a14.283,14.283,0,0,0-6.442,1.544.869.869,0,0,0,.788,1.55,12.538,12.538,0,0,1,5.654-1.356h12a2.226,2.226,0,1,1-.049,4.451h-7.767a.869.869,0,0,0,0,1.739H141.6a3.931,3.931,0,0,0,2.768-1.13,4.042,4.042,0,0,0,.307-.337h7.345a3.311,3.311,0,0,0,2.139-.784l8.04-6.814a1.6,1.6,0,0,1,2.072,2.445L151.582,264.9a7.884,7.884,0,0,1-4.167,1.818l-1.566.188a.869.869,0,0,0,.1,1.732.884.884,0,0,0,.105-.006l1.566-.188a9.615,9.615,0,0,0,5.083-2.218L165.4,255.466a3.345,3.345,0,0,0,.389-4.709Zm-15.3-2.112a1.6,1.6,0,0,1,2.216,2.307L145.558,257q.005-.1.006-.209a3.954,3.954,0,0,0-1.27-2.9Zm-2.885,8.909,8.716-7.387a1.6,1.6,0,0,1,2.072,2.445l-5.349,4.57a1.572,1.572,0,0,1-1.015.372Z" transform="translate(-109.498 -217.955)"/>
        <path id="Trazado_1014651" data-name="Trazado 1014651" d="M172.549,426.1l-8.914,1.072a.87.87,0,0,0-.563.306l-5.815,6.962a.869.869,0,0,0,1.334,1.115l5.594-6.7,8.571-1.031a.869.869,0,1,0-.208-1.726Z" transform="translate(-139.891 -376.71)"/>
        <path id="Trazado_1014652" data-name="Trazado 1014652" d="M166.592,24.873s-5.08-7.908-5.087-7.918a9.663,9.663,0,0,1-1.651-4.116.869.869,0,0,0-1.719.257,11.406,11.406,0,0,0,1.939,4.845l4.918,7.657v1.268a1.533,1.533,0,0,0,.345.969v2.988a2.539,2.539,0,0,0,2.536,2.536h3.067a2.539,2.539,0,0,0,2.536-2.536V27.835a1.533,1.533,0,0,0,.345-.969V25.6l4.919-7.657a11.4,11.4,0,0,0-2.909-15.961A11.619,11.619,0,0,0,164.893.87a10.6,10.6,0,0,0-5.988,5.948,13,13,0,0,0-.67,2.269.869.869,0,0,0,1.706.336,11.257,11.257,0,0,1,.581-1.965,8.856,8.856,0,0,1,5-4.969,9.906,9.906,0,0,1,9.323.925,9.662,9.662,0,0,1,2.458,13.54c-.007.01-5.087,7.918-5.087,7.918a.87.87,0,0,0-.138.47v1.326h-.212l.5-8.4h.829a2.421,2.421,0,0,0,2.418-2.418v-.1a2.418,2.418,0,0,0-4.832-.142l-.054.918h-2.63l-.054-.918a2.418,2.418,0,0,0-4.832.142v.1a2.421,2.421,0,0,0,2.418,2.418h.829l.5,8.4h-.221V25.343a.869.869,0,0,0-.138-.47Zm5.922-9.162a.679.679,0,0,1,1.358.04v.1a.68.68,0,0,1-.679.679h-.726Zm-6.888.815a.68.68,0,0,1-.679-.679v-.1a.679.679,0,0,1,1.358-.04l.048.815h-.726Zm6.11,14.3a.8.8,0,0,1-.8.8h-3.067a.8.8,0,0,1-.8-.8V28.407h4.662ZM168.2,18.265h2.425l-.5,8.4h-1.435Z" transform="translate(-140.837 0.001)"/>
        <path id="Trazado_1014653" data-name="Trazado 1014653" d="M385.353,99.845a.869.869,0,0,0,.869.869h2.049a.869.869,0,0,0,0-1.739h-2.049A.869.869,0,0,0,385.353,99.845Z" transform="translate(-341.729 -87.504)"/>
        <path id="Trazado_1014654" data-name="Trazado 1014654" d="M374.356,48.124a.866.866,0,0,0,.3-.054l1.921-.712a.869.869,0,1,0-.6-1.63l-1.921.712a.869.869,0,0,0,.3,1.685Z" transform="translate(-331.238 -40.379)"/>
        <path id="Trazado_1014655" data-name="Trazado 1014655" d="M374.055,147.817l1.921.712a.869.869,0,0,0,.6-1.63l-1.921-.712a.869.869,0,1,0-.6,1.63Z" transform="translate(-331.239 -129.195)"/>
        <path id="Trazado_1014656" data-name="Trazado 1014656" d="M93.751,100.715H95.8a.869.869,0,0,0,0-1.739H93.751a.869.869,0,0,0,0,1.739Z" transform="translate(-83.156 -87.504)"/>
        <path id="Trazado_1014657" data-name="Trazado 1014657" d="M106.413,47.359l1.921.712a.869.869,0,0,0,.6-1.63l-1.921-.712a.869.869,0,1,0-.6,1.63Z" transform="translate(-94.617 -40.381)"/>
        <path id="Trazado_1014658" data-name="Trazado 1014658" d="M109.452,146.7a.869.869,0,0,0-1.117-.513l-1.921.712a.869.869,0,1,0,.6,1.63l1.921-.712A.869.869,0,0,0,109.452,146.7Z" transform="translate(-94.617 -129.194)"/>
      </g>
    </g>
  </g>
</svg>
