<svg xmlns="http://www.w3.org/2000/svg" xmlns:xlink="http://www.w3.org/1999/xlink" width="110" height="110" viewBox="0 0 110 110">
  <defs>
    <filter id="Trazado_982547" x="0" y="0" width="110" height="110" filterUnits="userSpaceOnUse">
      <feOffset dy="3" input="SourceAlpha"/>
      <feGaussianBlur stdDeviation="3" result="blur"/>
      <feFlood flood-opacity="0.161"/>
      <feComposite operator="in" in2="blur"/>
      <feComposite in="SourceGraphic"/>
    </filter>
  </defs>
  <g id="Grupo_1165165" data-name="Grupo 1165165" transform="translate(-377 -1532)">
    <g id="Grupo_1163520" data-name="Grupo 1163520" transform="translate(386 1538)">
      <g id="Grupo_1158890" data-name="Grupo 1158890" transform="translate(0 0)">
        <g id="Grupo_1157405" data-name="Grupo 1157405">
          <g id="Grupo_1155792" data-name="Grupo 1155792">
            <g id="Grupo_1154703" data-name="Grupo 1154703">
              <g id="Grupo_1150789" data-name="Grupo 1150789">
                <g id="Grupo_1154212" data-name="Grupo 1154212">
                  <g id="Grupo_1152583" data-name="Grupo 1152583">
                    <g id="Grupo_1146973" data-name="Grupo 1146973">
                      <g id="Grupo_1146954" data-name="Grupo 1146954">
                        <g transform="matrix(1, 0, 0, 1, -9, -6)" filter="url(#Trazado_982547)">
                          <g id="Trazado_982547-2" data-name="Trazado 982547" transform="translate(9 6)" fill="#f5e9fe">
                            <path d="M 46 90.49987030029297 C 39.99187850952148 90.49987030029297 34.16426849365234 89.32350921630859 28.67905426025391 87.00345611572266 C 23.38019943237305 84.76224517822266 18.62104034423828 81.55341339111328 14.53374671936035 77.46613311767578 C 10.44646644592285 73.37885284423828 7.237639904022217 68.61969757080078 4.996413230895996 63.32085418701172 C 2.676359891891479 57.83565521240234 1.5 52.008056640625 1.5 45.99993515014648 C 1.5 39.99181365966797 2.676359891891479 34.16421508789062 4.996413230895996 28.67901420593262 C 7.237639904022217 23.38017463684082 10.44646644592285 18.62101554870605 14.53374671936035 14.53373527526855 C 18.62104034423828 10.44645500183105 23.38019943237305 7.23762845993042 28.67905426025391 4.996415138244629 C 34.16426849365234 2.676361799240112 39.99187850952148 1.500001788139343 46 1.500001788139343 C 52.00812149047852 1.500001788139343 57.83573150634766 2.676361799240112 63.32094573974609 4.996415138244629 C 68.61979675292969 7.23762845993042 73.37895965576172 10.44645500183105 77.46625518798828 14.53373527526855 C 81.55353546142578 18.62101554870605 84.76235961914062 23.38017463684082 87.00358581542969 28.67901420593262 C 89.32363891601562 34.16421508789062 90.5 39.99181365966797 90.5 45.99993515014648 C 90.5 52.008056640625 89.32363891601562 57.83565521240234 87.00358581542969 63.32085418701172 C 84.76235961914062 68.61969757080078 81.55353546142578 73.37885284423828 77.46625518798828 77.46613311767578 C 73.37895965576172 81.55341339111328 68.61979675292969 84.76224517822266 63.32094573974609 87.00345611572266 C 57.83573150634766 89.32350921630859 52.00812149047852 90.49987030029297 46 90.49987030029297 Z" stroke="none"/>
                            <path d="M 46 2.999992370605469 C 40.1937141418457 2.999992370605469 34.56269836425781 4.136489868164062 29.26337051391602 6.377906799316406 C 24.14332580566406 8.543502807617188 19.54441070556641 11.64437866210938 15.59439849853516 15.59437561035156 C 11.64440155029297 19.54439544677734 8.54351806640625 24.14329528808594 6.377914428710938 29.26333618164062 C 4.136497497558594 34.56264877319336 3 40.19366455078125 3 45.99993515014648 C 3 51.80620574951172 4.136497497558594 57.43720626831055 6.377914428710938 62.73651885986328 C 8.54351806640625 67.8565673828125 11.64440155029297 72.45545959472656 15.59439849853516 76.40547943115234 C 19.54441070556641 80.35547637939453 24.14332580566406 83.45635223388672 29.26337051391602 85.6219482421875 C 34.56269836425781 87.86336517333984 40.1937141418457 88.99986267089844 46 88.99986267089844 C 51.8062858581543 88.99986267089844 57.43730163574219 87.86336517333984 62.73661422729492 85.6219482421875 C 67.85667419433594 83.45635223388672 72.45557403564453 80.35547637939453 76.40558624267578 76.40547943115234 C 80.35559844970703 72.45545959472656 83.45647430419922 67.8565673828125 85.6220703125 62.73651885986328 C 87.86350250244141 57.43720626831055 89 51.80620574951172 89 45.99993515014648 C 89 40.19366455078125 87.86350250244141 34.56264877319336 85.6220703125 29.26333618164062 C 83.45647430419922 24.14329528808594 80.35559844970703 19.54439544677734 76.40558624267578 15.59437561035156 C 72.45557403564453 11.64437866210938 67.85667419433594 8.543502807617188 62.73661422729492 6.377906799316406 C 57.43730163574219 4.136489868164062 51.8062858581543 2.999992370605469 46 2.999992370605469 M 46 -7.62939453125e-06 C 71.40509033203125 -7.62939453125e-06 92 20.59486389160156 92 45.99993515014648 C 92 71.40499114990234 71.40509033203125 91.99986267089844 46 91.99986267089844 C 20.59490203857422 91.99986267089844 0 71.40499114990234 0 45.99993515014648 C 0 20.59486389160156 20.59490203857422 -7.62939453125e-06 46 -7.62939453125e-06 Z" stroke="none" fill="#a530fe"/>
                          </g>
                        </g>
                      </g>
                    </g>
                  </g>
                </g>
              </g>
            </g>
          </g>
        </g>
      </g>
    </g>
    <g id="economico_2_" data-name="economico (2)" transform="translate(386 1538)">
      <path id="Trazado_1014305" data-name="Trazado 1014305" d="M93.595,46.783a22.8,22.8,0,1,1-45.595,0q0-1,.085-1.982a22.8,22.8,0,0,1,45.509,1.982Z" transform="translate(-28.035 -6.994)" fill="#9ce6ed"/>
      <path id="Trazado_1014306" data-name="Trazado 1014306" d="M247.789,87.361a22.782,22.782,0,0,1-10.831,19.408l-5.028-5.531v-7.93h-3.965L224,87.361l3.965-2.974h4.956l2.974-3.965-1.982-4.956,6.2-5.167A22.744,22.744,0,0,1,247.789,87.361Z" transform="translate(-182.229 -47.572)" fill="#02c26a"/>
      <rect id="Rectángulo_413344" data-name="Rectángulo 413344" width="7.219" height="9.625" transform="translate(50.892 64.127)" fill="#4367e0"/>
      <rect id="Rectángulo_413345" data-name="Rectángulo 413345" width="8.422" height="18.048" transform="translate(58.111 55.704)" fill="#4976f2"/>
      <rect id="Rectángulo_413346" data-name="Rectángulo 413346" width="8.422" height="27.673" transform="translate(66.533 46.079)" fill="#548aff"/>
      <path id="Trazado_1014307" data-name="Trazado 1014307" d="M117.5,25.855l-7.057,7.057v5.947L104.5,42.824l-3.965-3.965H95.576V34.894L90.99,32.143A22.817,22.817,0,0,1,117.5,25.855Z" transform="translate(-65.699 -7)" fill="#02c26a"/>
      <path id="Trazado_1014308" data-name="Trazado 1014308" d="M67.824,200.921l-3.965,2.974V215.7A22.807,22.807,0,0,1,48,193.982q0-1,.085-1.982h5.862l2.974,3.965h7.93Z" transform="translate(-28.035 -154.194)" fill="#02c26a"/>
      <path id="Trazado_1014309" data-name="Trazado 1014309" d="M33.912,257.982c0-1.095-2.219-1.982-4.956-1.982S24,256.888,24,257.982v24.78c0,1.095,2.219,1.982,4.956,1.982s4.956-.888,4.956-1.982Z" transform="translate(-7.009 -210.264)" fill="#ffc431"/>
      <ellipse id="Elipse_12182" data-name="Elipse 12182" cx="4.813" cy="1.805" rx="4.813" ry="1.805" transform="translate(17.203 46.079)" fill="#ffd873"/>
      <path id="Trazado_1014310" data-name="Trazado 1014310" d="M113.912,337.982c0-1.095-2.219-1.982-4.956-1.982s-4.956.888-4.956,1.982V352.85c0,1.095,2.219,1.982,4.956,1.982s4.956-.888,4.956-1.982Z" transform="translate(-77.097 -280.352)" fill="#ffc431"/>
      <ellipse id="Elipse_12183" data-name="Elipse 12183" cx="4.813" cy="1.805" rx="4.813" ry="1.805" transform="translate(26.829 55.704)" fill="#ffd873"/>
      <path id="Trazado_1014311" data-name="Trazado 1014311" d="M193.912,377.982c0-1.095-2.219-1.982-4.956-1.982s-4.956.888-4.956,1.982v9.912c0,1.095,2.219,1.982,4.956,1.982s4.956-.888,4.956-1.982Z" transform="translate(-147.185 -315.396)" fill="#ffc431"/>
      <ellipse id="Elipse_12184" data-name="Elipse 12184" cx="5.414" cy="1.805" rx="5.414" ry="1.805" transform="translate(36.454 60.517)" fill="#ffd873"/>
      <path id="Trazado_1014312" data-name="Trazado 1014312" d="M74.48,248h-7.93a.991.991,0,0,0-.991.991v8.921H58.621a.991.991,0,0,0-.991.991v6.938H50.692a.991.991,0,0,0-.991.991v8.921H47.718v-9.912c0-.557-.27-1.6-2.075-2.322a11.834,11.834,0,0,0-7.745,0l-.092.038v-2.672c0-.557-.27-1.6-2.075-2.322a10.755,10.755,0,0,0-3.873-.652,10.756,10.756,0,0,0-3.873.652l-.092.038v-7.628c0-.557-.27-1.6-2.075-2.322A10.755,10.755,0,0,0,21.947,248a10.755,10.755,0,0,0-3.873.652c-1.805.722-2.075,1.765-2.075,2.322v24.78c0,.557.27,1.6,2.075,2.322a10.755,10.755,0,0,0,3.873.652,10.756,10.756,0,0,0,3.873-.652,4.775,4.775,0,0,0,1.083-.587,4.775,4.775,0,0,0,1.083.587,10.755,10.755,0,0,0,3.873.652,10.756,10.756,0,0,0,3.873-.652,4.774,4.774,0,0,0,1.083-.587,4.775,4.775,0,0,0,1.083.587,11.834,11.834,0,0,0,7.745,0,5.4,5.4,0,0,0,.7-.34H74.48a.991.991,0,0,0,.991-.991V248.991A.991.991,0,0,0,74.48,248Zm-56.5,20.125.092.038a10.754,10.754,0,0,0,3.873.652,10.756,10.756,0,0,0,3.873-.652l.092-.038v2.635c-.172.307-1.544,1.029-3.965,1.029s-3.793-.722-3.965-1.029Zm0-4.956.092.038a10.754,10.754,0,0,0,3.873.652,10.754,10.754,0,0,0,3.873-.652l.092-.038V265.8c-.172.307-1.544,1.029-3.965,1.029s-3.793-.722-3.965-1.029Zm0-4.956.092.038a10.754,10.754,0,0,0,3.873.652,10.755,10.755,0,0,0,3.873-.652l.092-.038v2.635c-.172.307-1.544,1.029-3.965,1.029s-3.793-.722-3.965-1.029Zm0-4.956.092.038a10.755,10.755,0,0,0,3.873.652,10.756,10.756,0,0,0,3.873-.652l.092-.038v2.635c-.172.307-1.544,1.029-3.965,1.029s-3.793-.722-3.965-1.029Zm13.877,13.576c-2.421,0-3.793-.722-3.965-1.029v-2.635l.092.038a10.754,10.754,0,0,0,3.873.652,10.754,10.754,0,0,0,3.873-.652l.092-.038V265.8C35.652,266.111,34.28,266.833,31.859,266.833Zm-3.965,1.292.092.038a10.755,10.755,0,0,0,3.873.652,10.756,10.756,0,0,0,3.873-.652l.092-.038v2.635c-.172.307-1.544,1.029-3.965,1.029s-3.793-.722-3.965-1.029Zm9.912,0,.092.038a11.834,11.834,0,0,0,7.745,0l.092-.038v2.635c-.172.307-1.544,1.029-3.965,1.029s-3.793-.722-3.965-1.029Zm3.965-3.275c2.332,0,3.688.669,3.939.993-.258.325-1.615.99-3.939.99s-3.681-.665-3.939-.99C38.083,265.519,39.439,264.85,41.771,264.85Zm-9.912-4.956c2.332,0,3.688.669,3.939.993-.258.325-1.615.99-3.939.99s-3.685-.667-3.94-.991C28.174,260.561,29.532,259.894,31.859,259.894Zm-9.912-9.912c2.332,0,3.688.669,3.939.993-.258.325-1.615.99-3.939.99s-3.681-.665-3.939-.99C18.259,250.651,19.615,249.982,21.947,249.982Zm0,26.762c-2.417,0-3.789-.72-3.965-1.027v-2.636l.092.038a10.754,10.754,0,0,0,3.873.652,10.754,10.754,0,0,0,3.873-.652l.092-.038v2.636C25.736,276.025,24.364,276.745,21.947,276.745Zm9.912,0c-2.421,0-3.793-.722-3.965-1.029v-2.635l.092.038a10.754,10.754,0,0,0,3.873.652,10.754,10.754,0,0,0,3.873-.652l.092-.038v2.636C35.648,276.025,34.276,276.745,31.859,276.745Zm9.912,0c-2.417,0-3.789-.72-3.965-1.027v-2.636l.092.038a11.833,11.833,0,0,0,7.745,0l.092-.038v2.636C45.56,276.025,44.188,276.745,41.771,276.745Zm9.912-8.921H57.63v7.93H51.683Zm7.93-7.93H65.56v15.859H59.612Zm7.93,15.859V249.982h5.947v25.771Z" transform="translate(0 -203.256)"/>
      <rect id="Rectángulo_413347" data-name="Rectángulo 413347" width="2.406" height="2.406" transform="translate(41.267 55.704)"/>
      <path id="Trazado_1014313" data-name="Trazado 1014313" d="M256,181.806v1.982h4.956a.991.991,0,0,0,.7-.29l20.114-20.114v1.572h1.982v-3.965a.991.991,0,0,0-.991-.991H278.8v1.982h1.572l-19.824,19.824Z" transform="translate(-210.264 -126.159)"/>
      <path id="Trazado_1014314" data-name="Trazado 1014314" d="M79.911,22.3A23.789,23.789,0,0,0,40,39.788a24.094,24.094,0,0,0,.2,3.1l1.966-.256a22.106,22.106,0,0,1-.184-2.846c0-.332.009-.663.023-.991h4.437l2.676,3.568a.991.991,0,0,0,.793.4H57.28l2.225,3.708-3.25,2.437a.991.991,0,0,0-.4.793v2.974h1.982V50.2L61.41,47.52a.991.991,0,0,0,.255-1.3l-2.974-4.956a.991.991,0,0,0-.85-.481H50.408l-2.676-3.568a.991.991,0,0,0-.793-.4H42.186a21.7,21.7,0,0,1,4.37-10.373l3.356,2.013v3.4a.991.991,0,0,0,.991.991h4.545l3.675,3.675a.991.991,0,0,0,1.251.124l5.947-3.965a.991.991,0,0,0,.441-.825V26.322l6.283-6.283a21.756,21.756,0,0,1,4.321,2.684l-5.291,4.409a.991.991,0,0,0-.286,1.129L73.565,32.7l-2.342,3.123h-4.46a.991.991,0,0,0-.595.2L62.2,39a.991.991,0,0,0-.23,1.343l3.965,5.947a.991.991,0,0,0,.825.441h2.974v5.947h1.982V45.736a.991.991,0,0,0-.991-.991H67.293l-3.15-4.726,2.95-2.213h4.626a.991.991,0,0,0,.793-.4l2.974-3.965a.991.991,0,0,0,.127-.963L73.9,28.195l4.979-4.149a21.726,21.726,0,0,1,6.637,13.846l1.975-.17A23.711,23.711,0,0,0,79.911,22.3ZM65.07,25.211a.991.991,0,0,0-.29.7v5.417l-4.83,3.22-3.39-3.39a.991.991,0,0,0-.7-.29H51.894V27.894a.991.991,0,0,0-.481-.85L47.86,24.913a21.8,21.8,0,0,1,23.2-5.687Z" transform="translate(-21.026 0)"/>
    </g>
  </g>
</svg>
