<svg xmlns="http://www.w3.org/2000/svg" xmlns:xlink="http://www.w3.org/1999/xlink" width="113" height="113" viewBox="0 0 113 113">
  <defs>
    <filter id="Trazado_982547" x="0" y="0" width="113" height="113" filterUnits="userSpaceOnUse">
      <feOffset dy="3" input="SourceAlpha"/>
      <feGaussianBlur stdDeviation="3" result="blur"/>
      <feFlood flood-opacity="0.161"/>
      <feComposite operator="in" in2="blur"/>
      <feComposite in="SourceGraphic"/>
    </filter>
  </defs>
  <g id="Grupo_1224784" data-name="Grupo 1224784" transform="translate(-8361 -1614.135)">
    <g id="Grupo_1224590" data-name="Grupo 1224590" transform="translate(7687 -5449.616)">
      <g id="Grupo_1224450" data-name="Grupo 1224450" transform="translate(683 7069.751)">
        <g id="Grupo_1224085" data-name="Grupo 1224085" transform="translate(0 0)">
          <g id="Grupo_1223184" data-name="Grupo 1223184">
            <g id="Grupo_1211216" data-name="Grupo 1211216">
              <g id="Grupo_1210737" data-name="Grupo 1210737">
                <g id="Grupo_1210537" data-name="Grupo 1210537">
                  <g id="Grupo_1164202" data-name="Grupo 1164202">
                    <g id="Grupo_1158168" data-name="Grupo 1158168">
                      <g id="Grupo_1152576" data-name="Grupo 1152576">
                        <g id="Grupo_1148633" data-name="Grupo 1148633">
                          <g id="Grupo_1148525" data-name="Grupo 1148525">
                            <g transform="matrix(1, 0, 0, 1, -9, -6)" filter="url(#Trazado_982547)">
                              <g id="Trazado_982547-2" data-name="Trazado 982547" transform="translate(9 6)" fill="#fef9e5">
                                <path d="M 47.49999618530273 93.5 C 41.28936767578125 93.5 35.26533126831055 92.28396606445312 29.59518241882324 89.88570404052734 C 24.11771583557129 87.56893157958984 19.19812965393066 84.251953125 14.97308921813965 80.02690124511719 C 10.74803638458252 75.80186462402344 7.431062698364258 70.88227844238281 5.114289283752441 65.40480804443359 C 2.716022968292236 59.73466110229492 1.499996185302734 53.71062469482422 1.499996185302734 47.49999618530273 C 1.499996185302734 41.28936767578125 2.716022968292236 35.26533126831055 5.114289283752441 29.59518241882324 C 7.431062698364258 24.11771583557129 10.74803638458252 19.19812965393066 14.97308921813965 14.97308921813965 C 19.19812965393066 10.74803638458252 24.11771583557129 7.431062698364258 29.59518241882324 5.114289283752441 C 35.26533126831055 2.716022968292236 41.28936767578125 1.499996185302734 47.49999618530273 1.499996185302734 C 53.71062469482422 1.499996185302734 59.73466110229492 2.716022968292236 65.40480804443359 5.114289283752441 C 70.88227844238281 7.431062698364258 75.80186462402344 10.74803638458252 80.02690124511719 14.97308921813965 C 84.251953125 19.19812965393066 87.56893157958984 24.11771583557129 89.88570404052734 29.59518241882324 C 92.28396606445312 35.26533126831055 93.5 41.28936767578125 93.5 47.49999618530273 C 93.5 53.71062469482422 92.28396606445312 59.73466110229492 89.88570404052734 65.40480804443359 C 87.56893157958984 70.88227844238281 84.251953125 75.80186462402344 80.02690124511719 80.02690124511719 C 75.80186462402344 84.251953125 70.88227844238281 87.56893157958984 65.40480804443359 89.88570404052734 C 59.73466110229492 92.28396606445312 53.71062469482422 93.5 47.49999618530273 93.5 Z" stroke="none"/>
                                <path d="M 47.49999618530273 2.999992370605469 C 41.4912109375 2.999992370605469 35.66376495361328 4.1761474609375 30.17950439453125 6.495796203613281 C 24.88084411621094 8.736953735351562 20.12152099609375 11.94598388671875 16.03375244140625 16.03375244140625 C 11.94598388671875 20.12152099609375 8.736953735351562 24.88084411621094 6.495796203613281 30.17950439453125 C 4.1761474609375 35.66376495361328 2.999992370605469 41.4912109375 2.999992370605469 47.49999618530273 C 2.999992370605469 53.50878143310547 4.1761474609375 59.33622741699219 6.495796203613281 64.82048797607422 C 8.736953735351562 70.11914825439453 11.94598388671875 74.87847137451172 16.03375244140625 78.96623992919922 C 20.12152099609375 83.05400848388672 24.88084411621094 86.26304626464844 30.17950439453125 88.50419616699219 C 35.66376495361328 90.82384490966797 41.4912109375 92 47.49999618530273 92 C 53.50878143310547 92 59.33622741699219 90.82384490966797 64.82048797607422 88.50419616699219 C 70.11914825439453 86.26304626464844 74.87847137451172 83.05400848388672 78.96623992919922 78.96623992919922 C 83.05400848388672 74.87847137451172 86.26304626464844 70.11914825439453 88.50419616699219 64.82048797607422 C 90.82384490966797 59.33622741699219 92 53.50878143310547 92 47.49999618530273 C 92 41.4912109375 90.82384490966797 35.66376495361328 88.50419616699219 30.17950439453125 C 86.26304626464844 24.88084411621094 83.05400848388672 20.12152099609375 78.96623992919922 16.03375244140625 C 74.87847137451172 11.94598388671875 70.11914825439453 8.736953735351562 64.82048797607422 6.495796203613281 C 59.33622741699219 4.1761474609375 53.50878143310547 2.999992370605469 47.49999618530273 2.999992370605469 M 47.49999618530273 -7.62939453125e-06 C 73.7335205078125 -7.62939453125e-06 95 21.26647186279297 95 47.49999618530273 C 95 73.7335205078125 73.7335205078125 95 47.49999618530273 95 C 21.26647186279297 95 -7.62939453125e-06 73.7335205078125 -7.62939453125e-06 47.49999618530273 C -7.62939453125e-06 21.26647186279297 21.26647186279297 -7.62939453125e-06 47.49999618530273 -7.62939453125e-06 Z" stroke="none" fill="#f6c810"/>
                              </g>
                            </g>
                          </g>
                        </g>
                      </g>
                    </g>
                  </g>
                </g>
              </g>
            </g>
          </g>
        </g>
      </g>
    </g>
    <g id="clarity_17835360" transform="translate(8377.992 1627.634)">
      <g id="Grupo_1224783" data-name="Grupo 1224783" transform="translate(8.061 14.935)">
        <g id="Grupo_1224779" data-name="Grupo 1224779" transform="translate(27.709 13.243)">
          <path id="Trazado_1051707" data-name="Trazado 1051707" d="M226.235,209.911h17.818q1.121-6.283,7.577-4.818,4.306.749,4.216-1.206c.016-2.018.36-2.753.881-3.144,1.153-.887-.13-2.031-1.451-2.747,1.11-.087,2.536-.98,2.229-1.7-.493-1.68-.26-2.356.5-2.75q2.214-1.084.9-2.759a15.822,15.822,0,0,1-2.415-3.364,5.59,5.59,0,0,1-.626-3.268c.053-.543.081-1.091.081-1.649A16.359,16.359,0,1,0,227.1,193.082a5.559,5.559,0,0,1,1.342,3.122c.419,3.81-.527,8.231-2.71,12.922a.552.552,0,0,0,.5.784Z" transform="translate(-223.228 -166.149)" fill="#f6dccd" fill-rule="evenodd"/>
          <path id="Trazado_1051708" data-name="Trazado 1051708" d="M226.235,209.911h3.308a.552.552,0,0,1-.5-.784c2.183-4.691,3.128-9.112,2.71-12.922a5.559,5.559,0,0,0-1.343-3.122,16.36,16.36,0,0,1,10.83-26.849,16.13,16.13,0,0,0-1.652-.084A16.36,16.36,0,0,0,227.1,193.082a5.559,5.559,0,0,1,1.342,3.122c.419,3.81-.527,8.231-2.71,12.922a.552.552,0,0,0,.5.784Zm24.921-4.917c.158.031.316.062.474.1a7.059,7.059,0,0,0,3.389.012l-.081-.012A8.135,8.135,0,0,0,251.156,204.994Z" transform="translate(-223.228 -166.149)" fill="#f1cbbc" fill-rule="evenodd"/>
        </g>
        <g id="Grupo_1224780" data-name="Grupo 1224780" transform="translate(33.825)">
          <path id="Trazado_1051709" data-name="Trazado 1051709" d="M341.943,328.12H335.53v2.951a1.951,1.951,0,0,0,1.946,1.946H340a1.951,1.951,0,0,0,1.943-1.946Z" transform="translate(-326.702 -293.323)" fill="#b1b1b5" fill-rule="evenodd"/>
          <path id="Trazado_1051710" data-name="Trazado 1051710" d="M320.206,299.637l.044,2.85a1.962,1.962,0,0,0,1.946,1.945h6.514a1.94,1.94,0,0,0,1.943-1.945l-.042-2.85C327.215,299.745,323.626,299.637,320.206,299.637Z" transform="translate(-313.418 -268.63)" fill="#d1d1d6" fill-rule="evenodd"/>
          <path id="Trazado_1051711" data-name="Trazado 1051711" d="M288.311,94.648c.574-9.8,4.822-9.4,4.822-16.049a11.97,11.97,0,1,0-23.939,0c0,6.648,4.245,6.252,4.822,16.049.258,1.936,1.362,2.372,2,2.372C285.542,97.021,287.23,97.963,288.311,94.648Z" transform="translate(-269.193 -66.628)" fill="#ffe177" fill-rule="evenodd"/>
          <path id="Trazado_1051712" data-name="Trazado 1051712" d="M361.962,94.648c.574-9.8,4.822-9.4,4.822-16.049a11.971,11.971,0,0,0-11.971-11.971c-.223,0-.443.007-.663.019A11.973,11.973,0,0,1,365.454,78.6c0,6.648-4.247,6.252-4.824,16.049-.64,1.967-1.5,2.435-4.079,2.489C360.194,97.192,361.221,96.92,361.962,94.648Z" transform="translate(-342.844 -66.628)" fill="#ffd064" fill-rule="evenodd"/>
          <path id="Trazado_1051713" data-name="Trazado 1051713" d="M374.107,304.433h1.331a1.94,1.94,0,0,0,1.943-1.945l-.042-2.85c-.441.014-.884.023-1.329.033l.042,2.818A1.941,1.941,0,0,1,374.107,304.433Z" transform="translate(-360.146 -268.63)" fill="#b1b1b5" fill-rule="evenodd"/>
          <path id="Trazado_1051714" data-name="Trazado 1051714" d="M305.427,277.2v1.945a1.951,1.951,0,0,0,1.945,1.945h10.405a1.951,1.951,0,0,0,1.945-1.945V277.2Z" transform="translate(-300.605 -249.176)" fill="#eceff1" fill-rule="evenodd"/>
          <path id="Trazado_1051715" data-name="Trazado 1051715" d="M388.234,281.087h1.331a1.951,1.951,0,0,0,1.945-1.945V277.2H390.18v1.945A1.95,1.95,0,0,1,388.234,281.087Z" transform="translate(-372.393 -249.176)" fill="#d1d1d6" fill-rule="evenodd"/>
        </g>
        <g id="Grupo_1224781" data-name="Grupo 1224781" transform="translate(0 18.864)">
          <path id="Trazado_1051716" data-name="Trazado 1051716" d="M77.617,343.88a12,12,0,0,0,2.034,2.242l-5.534,5.425-2.107-2.172Z" transform="translate(-64.425 -325.85)" fill="#a79ba7" fill-rule="evenodd"/>
          <path id="Trazado_1051717" data-name="Trazado 1051717" d="M77.579,343.607a1.391,1.391,0,0,0,.6.807l-5.5,5.463-.674-.739Z" transform="translate(-64.425 -325.614)" fill="#837683" fill-rule="evenodd"/>
          <path id="Trazado_1051718" data-name="Trazado 1051718" d="M17.687,384.772l-2.377-2.452a1.094,1.094,0,0,1,.022-1.542l6.587-6.391a1.094,1.094,0,0,1,1.542.024l2.377,2.45a1.094,1.094,0,0,1-.022,1.542l-6.587,6.391a1.094,1.094,0,0,1-1.542-.022Z" transform="translate(-15.002 -352.033)" fill="#f1ba84" fill-rule="evenodd"/>
          <path id="Trazado_1051719" data-name="Trazado 1051719" d="M22.893,374.389l-6.587,6.391a1.094,1.094,0,0,0-.022,1.542l2.377,2.452a1.106,1.106,0,0,0,.295.214,1.1,1.1,0,0,1-1.269-.214l-2.377-2.452a1.094,1.094,0,0,1,.022-1.542l6.587-6.391a1.1,1.1,0,0,1,1.247-.192,1.1,1.1,0,0,0-.272.192Z" transform="translate(-15.002 -352.035)" fill="#e3a76f" fill-rule="evenodd"/>
          <path id="Trazado_1051720" data-name="Trazado 1051720" d="M103.538,208.391a11.994,11.994,0,1,0,11.994,11.994A11.993,11.993,0,0,0,103.538,208.391Z" transform="translate(-81.359 -208.391)" fill="#a79ba7" fill-rule="evenodd"/>
          <path id="Trazado_1051721" data-name="Trazado 1051721" d="M103.538,208.391a11.994,11.994,0,1,0,0,23.987c.2,0,.389-.006.583-.014a11.994,11.994,0,0,1,0-23.959C103.927,208.395,103.733,208.391,103.538,208.391Z" transform="translate(-81.359 -208.391)" fill="#837683" fill-rule="evenodd"/>
          <path id="Trazado_1051722" data-name="Trazado 1051722" d="M123.545,231.47a8.922,8.922,0,1,0,8.922,8.922A8.923,8.923,0,0,0,123.545,231.47Z" transform="translate(-101.366 -228.399)" fill="#eceff1" fill-rule="evenodd"/>
          <path id="Trazado_1051723" data-name="Trazado 1051723" d="M177.744,231.47c-.2,0-.4.006-.6.019a8.922,8.922,0,0,1,0,17.8c.2.014.4.021.6.021a8.922,8.922,0,1,0,0-17.845Z" transform="translate(-155.565 -228.399)" fill="#d1d1d6" fill-rule="evenodd"/>
        </g>
        <g id="Grupo_1224782" data-name="Grupo 1224782" transform="translate(15.737 27.307)">
          <path id="Trazado_1051724" data-name="Trazado 1051724" d="M139.7,271.835a7.772,7.772,0,0,1,6.418,3.471.14.14,0,0,1,0,.16,7.669,7.669,0,0,1-12.835,0,.14.14,0,0,1,0-.16A7.772,7.772,0,0,1,139.7,271.835Z" transform="translate(-133.261 -271.835)" fill="#8ac9fe" fill-rule="evenodd"/>
          <path id="Trazado_1051725" data-name="Trazado 1051725" d="M179.125,271.843q.169-.008.34-.008a7.772,7.772,0,0,1,6.418,3.471.14.14,0,0,1,0,.16,7.772,7.772,0,0,1-6.418,3.471q-.171,0-.34-.008a7.791,7.791,0,0,0,6.078-3.463.14.14,0,0,0,0-.16A7.791,7.791,0,0,0,179.125,271.843Z" transform="translate(-173.022 -271.835)" fill="#60b7ff" fill-rule="evenodd"/>
        </g>
      </g>
      <path id="Trazado_1051726" data-name="Trazado 1051726" d="M20.133,58.641a2.157,2.157,0,0,1-.522,2.294l-6.582,6.391,0,0a2.163,2.163,0,0,1-3.043-.05h0L7.6,64.831h0a2.158,2.158,0,0,1,.044-3.046l6.586-6.392h0a2.167,2.167,0,0,1,2.308-.448l2.5-2.427A13.06,13.06,0,0,1,37.56,34.98a17.509,17.509,0,0,1,3.845-4.174,11.781,11.781,0,0,1-.588-3.9,13.037,13.037,0,0,1,26.074,0,11.364,11.364,0,0,1-1.642,6.173,17.361,17.361,0,0,1,4.3,11.46A17.1,17.1,0,0,1,69.46,46.3a4.533,4.533,0,0,0,.514,2.666l0,0a14.566,14.566,0,0,0,2.251,3.13c.019.021.038.042.055.065a2.638,2.638,0,0,1,.606,2.518,3.368,3.368,0,0,1-1.862,1.851c-.155.085-.187.232-.172.472a4.835,4.835,0,0,0,.195.981,1.684,1.684,0,0,1-.288,1.648,3.089,3.089,0,0,1-.759.686,3.419,3.419,0,0,1,.338.4,2.17,2.17,0,0,1,.434,1.44,2.019,2.019,0,0,1-.855,1.455l-.019.014a1.033,1.033,0,0,0-.31.65,8.065,8.065,0,0,0-.143,1.618,2.192,2.192,0,0,1-.456,1.484,2.5,2.5,0,0,1-1.322.834,8.787,8.787,0,0,1-3.682-.049l-.053-.011a5.626,5.626,0,0,0-4.314.334,5.09,5.09,0,0,0-1.978,3.634A1.064,1.064,0,0,1,56.593,73H37.9a1.065,1.065,0,0,1-.955-1.534c2.346-4.77,3.407-9.266,2.983-13.116h0a4.527,4.527,0,0,0-1.1-2.548l0,0-.084-.1a13.061,13.061,0,0,1-16.227.626Zm-1.975-2.3.624.643,2.123-2.06q-.314-.321-.605-.662Zm21.07-20.02A13.059,13.059,0,0,1,40.25,54.177q.1.125.2.247a6.568,6.568,0,0,1,1.593,3.7c.415,3.776-.433,8.131-2.473,12.753h16.16a6.651,6.651,0,0,1,2.742-4.179,7.635,7.635,0,0,1,5.9-.62,8.518,8.518,0,0,0,2.4.156c.307-.04.556-.028.545-.264q0-.03,0-.061c.024-2.539.615-3.449,1.272-3.954a2.037,2.037,0,0,0-.207-.248,3.786,3.786,0,0,0-.415-.336,6.523,6.523,0,0,0-.661-.408,1.065,1.065,0,0,1,.424-2,3.578,3.578,0,0,0,1.229-.544,4.046,4.046,0,0,1-.044-2.594,2.312,2.312,0,0,1,1.141-1.191l.019-.01c.4-.2.706-.354.788-.607.054-.165-.077-.314-.231-.508a16.641,16.641,0,0,1-2.546-3.559,6.574,6.574,0,0,1-.745-3.866v0a14.946,14.946,0,0,0,.075-1.542,15.233,15.233,0,0,0-3.3-9.489,17.743,17.743,0,0,0-2.053,7.967s0,.005,0,.008l0,1.876a3.021,3.021,0,0,1-1.942,2.814v1.077a3.024,3.024,0,0,1-2,2.834v1.058A3.021,3.021,0,0,1,55.118,55.7H52.59a3.026,3.026,0,0,1-3.011-3.011V51.626a3.02,3.02,0,0,1-1.994-2.833V47.716A3.019,3.019,0,0,1,45.64,44.9V42.986a18.367,18.367,0,0,0-3.153-9.857q-.09-.158-.177-.318a15.371,15.371,0,0,0-3.083,3.51Zm20.709,7.7H47.769V44.9a.883.883,0,0,0,.881.881H59.058a.882.882,0,0,0,.877-.882Zm-1.943,3.892H49.715v.881a.883.883,0,0,0,.881.881h6.516a.884.884,0,0,0,.881-.881ZM56,51.8H51.709v.881a.886.886,0,0,0,.881.881h2.528A.883.883,0,0,0,56,52.685Zm.99-9.913h3.03a18.733,18.733,0,0,1,2.695-8.675c1.047-1.806,2.053-3.241,2.053-6.31a10.908,10.908,0,0,0-21.816,0c0,3.069,1.006,4.5,2.053,6.31a18.733,18.733,0,0,1,2.695,8.675h3.03V30.839H49a3.847,3.847,0,1,1,3.849-3.845V28.71h2V26.994A3.847,3.847,0,1,1,58.7,30.839h-1.72Zm-4.133,0h2V30.839h-2ZM50.723,28.71V26.994A1.718,1.718,0,1,0,49,28.71Zm6.262,0H58.7a1.718,1.718,0,1,0-1.72-1.716ZM11.51,65.8a.028.028,0,0,0,.039,0l6.579-6.388,0,0a.022.022,0,0,0,0-.03l0,0-2.377-2.449h0a.026.026,0,0,0-.036,0L9.13,63.312h0a.026.026,0,0,0,0,.036L11.509,65.8ZM30.239,34.865A10.928,10.928,0,1,0,41.167,45.793,10.928,10.928,0,0,0,30.239,34.865Zm0,.942a9.987,9.987,0,1,1-9.987,9.987A9.987,9.987,0,0,1,30.239,35.806Zm0,2.129A7.858,7.858,0,1,0,38.1,45.793,7.857,7.857,0,0,0,30.239,37.936Zm0,3.242a8.831,8.831,0,0,1,7.3,3.936l.01.015a1.193,1.193,0,0,1-.013,1.351,8.733,8.733,0,0,1-14.586,0,1.194,1.194,0,0,1-.015-1.352l.01-.015a8.831,8.831,0,0,1,7.3-3.936Zm-5.149,4.614a6.574,6.574,0,0,0,10.3,0,6.575,6.575,0,0,0-10.3,0ZM30.239,47.6a1.805,1.805,0,1,1,1.714-1.8A1.766,1.766,0,0,1,30.239,47.6Zm24.68-36.713a1.065,1.065,0,0,1-2.129,0V8.065a1.065,1.065,0,0,1,2.129,0Zm-9.174,1.888A1.065,1.065,0,1,1,43.9,13.836l-1.408-2.443a1.065,1.065,0,1,1,1.845-1.063Zm-7,6.222a1.065,1.065,0,0,1-1.065,1.843l-2.444-1.412A1.065,1.065,0,0,1,36.3,17.583ZM63.8,13.837a1.065,1.065,0,0,1-1.843-1.065l1.412-2.443a1.065,1.065,0,1,1,1.843,1.065Zm6.224,7A1.065,1.065,0,1,1,68.96,19L71.4,17.583a1.065,1.065,0,0,1,1.067,1.843Z" fill-rule="evenodd"/>
    </g>
  </g>
</svg>
