<svg xmlns="http://www.w3.org/2000/svg" xmlns:xlink="http://www.w3.org/1999/xlink" width="108" height="108" viewBox="0 0 108 108">
  <defs>
    <filter id="Trazado_982547" x="0" y="0" width="108" height="108" filterUnits="userSpaceOnUse">
      <feOffset dy="3" input="SourceAlpha"/>
      <feGaussianBlur stdDeviation="3" result="blur"/>
      <feFlood flood-opacity="0.161"/>
      <feComposite operator="in" in2="blur"/>
      <feComposite in="SourceGraphic"/>
    </filter>
  </defs>
  <g id="Grupo_1165367" data-name="Grupo 1165367" transform="translate(-903 -2509)">
    <g id="Grupo_1163604" data-name="Grupo 1163604" transform="translate(0 -5075)">
      <g id="Grupo_1154906" data-name="Grupo 1154906" transform="translate(0 6700)">
        <g id="Grupo_1149837" data-name="Grupo 1149837" transform="translate(0 -3975)">
          <g id="Grupo_1149675" data-name="Grupo 1149675" transform="translate(157 -2821)">
            <g id="Grupo_1148534" data-name="Grupo 1148534" transform="translate(156 4253)">
              <g id="Grupo_1147066" data-name="Grupo 1147066" transform="translate(-26 -556)">
                <g transform="matrix(1, 0, 0, 1, 616, 3983)" filter="url(#Trazado_982547)">
                  <g id="Trazado_982547-2" data-name="Trazado 982547" transform="translate(9 6)" fill="#e6fbf1">
                    <path d="M 45 88.5 C 39.12687683105469 88.5 33.43022537231445 87.35007476806641 28.06830024719238 85.08217620849609 C 22.88852500915527 82.89131164550781 18.23629951477051 79.75458526611328 14.2408504486084 75.75914764404297 C 10.24541282653809 71.76370239257812 7.108687400817871 67.11147308349609 4.917825222015381 61.93170166015625 C 2.649924993515015 56.56977462768555 1.5 50.87312316894531 1.5 45 C 1.5 39.12687683105469 2.649924993515015 33.43022537231445 4.917825222015381 28.06830024719238 C 7.108687400817871 22.88852500915527 10.24541282653809 18.23629951477051 14.2408504486084 14.2408504486084 C 18.23629951477051 10.24541282653809 22.88852500915527 7.108687400817871 28.06830024719238 4.917825222015381 C 33.43022537231445 2.649924993515015 39.12687683105469 1.5 45 1.5 C 50.87312316894531 1.5 56.56977462768555 2.649924993515015 61.93170166015625 4.917825222015381 C 67.11147308349609 7.108687400817871 71.76370239257812 10.24541282653809 75.75914764404297 14.2408504486084 C 79.75458526611328 18.23629951477051 82.89131164550781 22.88852500915527 85.08217620849609 28.06830024719238 C 87.35007476806641 33.43022537231445 88.5 39.12687683105469 88.5 45 C 88.5 50.87312316894531 87.35007476806641 56.56977462768555 85.08217620849609 61.93170166015625 C 82.89131164550781 67.11147308349609 79.75458526611328 71.76370239257812 75.75914764404297 75.75914764404297 C 71.76370239257812 79.75458526611328 67.11147308349609 82.89131164550781 61.93170166015625 85.08217620849609 C 56.56977462768555 87.35007476806641 50.87312316894531 88.5 45 88.5 Z" stroke="none"/>
                    <path d="M 45 3 C 39.32871246337891 3 33.82865524291992 4.110054016113281 28.65262985229492 6.299339294433594 C 23.65165710449219 8.414573669433594 19.15968322753906 11.44334411621094 15.301513671875 15.301513671875 C 11.44334411621094 19.15968322753906 8.414573669433594 23.65165710449219 6.299339294433594 28.65262985229492 C 4.110054016113281 33.82865524291992 3 39.32871246337891 3 45 C 3 50.67128753662109 4.110054016113281 56.17134475708008 6.299339294433594 61.34737396240234 C 8.414573669433594 66.34834289550781 11.44334411621094 70.84031677246094 15.301513671875 74.698486328125 C 19.15968322753906 78.55665588378906 23.65165710449219 81.58542633056641 28.65262985229492 83.70066070556641 C 33.82865524291992 85.88994598388672 39.32871246337891 87 45 87 C 50.67128753662109 87 56.17134475708008 85.88994598388672 61.34737396240234 83.70066070556641 C 66.34834289550781 81.58542633056641 70.84031677246094 78.55665588378906 74.698486328125 74.698486328125 C 78.55665588378906 70.84031677246094 81.58542633056641 66.34834289550781 83.70066070556641 61.34737396240234 C 85.88994598388672 56.17134475708008 87 50.67128753662109 87 45 C 87 39.32871246337891 85.88994598388672 33.82865524291992 83.70066070556641 28.65262985229492 C 81.58542633056641 23.65165710449219 78.55665588378906 19.15968322753906 74.698486328125 15.301513671875 C 70.84031677246094 11.44334411621094 66.34834289550781 8.414573669433594 61.34737396240234 6.299339294433594 C 56.17134475708008 4.110054016113281 50.67128753662109 3 45 3 M 45 0 C 69.85281372070312 0 90 20.14718627929688 90 45 C 90 69.85281372070312 69.85281372070312 90 45 90 C 20.14718627929688 90 0 69.85281372070312 0 45 C 0 20.14718627929688 20.14718627929688 0 45 0 Z" stroke="none" fill="#0b7744"/>
                  </g>
                </g>
              </g>
            </g>
          </g>
        </g>
      </g>
    </g>
    <g id="Linear_OK" data-name="Linear OK" transform="translate(925.002 2528.003)">
      <path id="Trazado_994646" data-name="Trazado 994646" d="M38,56a6,6,0,1,1-12,0Z" fill="#808285"/>
      <path id="Trazado_994647" data-name="Trazado 994647" d="M38,56a5.931,5.931,0,0,1-1.54,4H27.54A5.931,5.931,0,0,1,26,56Z" fill="#231f20" opacity="0.1"/>
      <path id="Trazado_994648" data-name="Trazado 994648" d="M39.921,46a2.605,2.605,0,0,0,2.565-2.277,14.981,14.981,0,0,1,3.942-8.292A19.53,19.53,0,0,0,52,21.768,19.9,19.9,0,0,0,31.03,2.023c-10.012.467-18.857,9.5-19.03,19.4a19.516,19.516,0,0,0,5.385,13.813,15.9,15.9,0,0,1,4.12,8.505A2.6,2.6,0,0,0,24.068,46Z" fill="#d4eef9"/>
      <path id="Trazado_994649" data-name="Trazado 994649" d="M43.347,30.4c-4.023,4.024-10.928,2.186-10.928,2.186s-1.838-6.91,2.181-10.933S46.99,18.01,46.99,18.01s.381,8.362-3.643,12.39Z" fill="#88d392"/>
      <path id="Trazado_994650" data-name="Trazado 994650" d="M46.99,18.01s.381,8.362-3.643,12.385-10.928,2.186-10.928,2.186Z" fill="#39b54a"/>
      <path id="Trazado_994651" data-name="Trazado 994651" d="M20.653,26.4c4.023,4.024,10.928,2.186,10.928,2.186s1.838-6.905-2.186-10.928S17.01,14.01,17.01,14.01s-.381,8.362,3.643,12.39Z" fill="#88d392"/>
      <path id="Trazado_994652" data-name="Trazado 994652" d="M17.01,14.01s-.381,8.362,3.643,12.385,10.928,2.186,10.928,2.186Z" fill="#39b54a"/>
      <rect id="Rectángulo_412956" data-name="Rectángulo 412956" width="16" height="4" rx="2" transform="translate(24 50)" fill="#c9c9c9"/>
      <rect id="Rectángulo_412957" data-name="Rectángulo 412957" width="16" height="4" rx="2" transform="translate(24 46)" fill="#a5a5a5"/>
      <path id="Trazado_994653" data-name="Trazado 994653" d="M38,46H36.723A1.988,1.988,0,0,1,35,49H24.277A1.994,1.994,0,0,0,26,50H38a2,2,0,0,0,0-4Z" fill="#231f20" opacity="0.1"/>
      <path id="Trazado_994654" data-name="Trazado 994654" d="M38,50H36.723A1.988,1.988,0,0,1,35,53H24.277A1.994,1.994,0,0,0,26,54H38a2,2,0,0,0,0-4Z" fill="#231f20" opacity="0.1"/>
      <rect id="Rectángulo_412958" data-name="Rectángulo 412958" width="16" height="4" rx="2" transform="translate(24 54)" fill="#a5a5a5"/>
      <g id="Grupo_1160686" data-name="Grupo 1160686">
        <path id="Trazado_994655" data-name="Trazado 994655" d="M38,54H36.723A1.988,1.988,0,0,1,35,57H24.277A1.994,1.994,0,0,0,26,58H38a2,2,0,0,0,0-4Z" fill="#231f20" opacity="0.1"/>
        <path id="Trazado_994656" data-name="Trazado 994656" d="M26.508,43.744a15.9,15.9,0,0,0-4.12-8.505A19.516,19.516,0,0,1,17,21.426c.161-9.394,8.126-17.987,17.488-19.249a20.341,20.341,0,0,0-3.461-.154C21.018,2.49,12.173,11.52,12,21.426a19.516,19.516,0,0,0,5.385,13.813,15.9,15.9,0,0,1,4.12,8.505A2.6,2.6,0,0,0,24.068,46h5a2.6,2.6,0,0,1-2.56-2.256Z" fill="#231f20" opacity="0.05"/>
        <path id="Trazado_994657" data-name="Trazado 994657" d="M32,63a6.979,6.979,0,0,1-6.6-4.671,1,1,0,1,1,1.889-.658,4.991,4.991,0,0,0,9.412,0,1,1,0,0,1,1.889.658A6.979,6.979,0,0,1,32,63Z" fill="#231f20"/>
        <path id="Trazado_994658" data-name="Trazado 994658" d="M39.922,47H24.067a3.593,3.593,0,0,1-3.548-3.108,14.891,14.891,0,0,0-3.858-7.966A20.5,20.5,0,0,1,11,21.409c.178-10.371,9.515-19.9,19.98-20.386a20.967,20.967,0,0,1,15.6,5.8,20.574,20.574,0,0,1,.565,29.305,13.957,13.957,0,0,0-3.669,7.737A3.594,3.594,0,0,1,39.922,47ZM32.011,3c-.311,0-.621.007-.934.021C21.609,3.464,13.163,12.072,13,21.443a18.5,18.5,0,0,0,5.111,13.108A16.917,16.917,0,0,1,22.5,43.6,1.6,1.6,0,0,0,24.067,45H39.922A1.607,1.607,0,0,0,41.5,43.581a15.986,15.986,0,0,1,4.216-8.848A18.573,18.573,0,0,0,45.2,8.27,18.944,18.944,0,0,0,32.011,3Z" fill="#231f20"/>
        <path id="Trazado_994659" data-name="Trazado 994659" d="M44,12.348a1,1,0,0,1-.745-.333,15.074,15.074,0,0,0-6.57-4.278,1,1,0,0,1,.617-1.9,17.089,17.089,0,0,1,7.443,4.847A1,1,0,0,1,44,12.348Z" fill="#231f20"/>
        <path id="Trazado_994660" data-name="Trazado 994660" d="M38,55H26a3,3,0,0,1,0-6H38a3,3,0,0,1,0,6ZM26,51a1,1,0,0,0,0,2H38a1,1,0,0,0,0-2Z" fill="#231f20"/>
        <path id="Trazado_994661" data-name="Trazado 994661" d="M38,51H26a3,3,0,0,1,0-6H38a3,3,0,0,1,0,6ZM26,47a1,1,0,0,0,0,2H38a1,1,0,0,0,0-2Z" fill="#231f20"/>
        <path id="Trazado_994662" data-name="Trazado 994662" d="M38,59H26a3,3,0,1,1,0-6H38a3,3,0,0,1,0,6ZM26,55a1,1,0,0,0,0,2H38a1,1,0,0,0,0-2Z" fill="#231f20"/>
        <circle id="Elipse_11811" data-name="Elipse 11811" cx="1" cy="1" r="1" transform="translate(45 13)" fill="#231f20"/>
        <path id="Trazado_994663" data-name="Trazado 994663" d="M32,47a1,1,0,0,1-1-1V27a1,1,0,0,1,2,0V46A1,1,0,0,1,32,47Z" fill="#231f20"/>
        <path id="Trazado_994664" data-name="Trazado 994664" d="M36.082,34.006a16.511,16.511,0,0,1-3.92-.459,1,1,0,0,1-.71-.709c-.081-.3-1.935-7.512,2.445-11.893,4.29-4.288,12.779-3.951,13.139-3.934a1,1,0,0,1,.953.953c.017.36.352,8.852-3.934,13.139a11.07,11.07,0,0,1-7.973,2.9ZM33.26,31.738c1.66.306,6.458.874,9.381-2.05,2.9-2.9,3.31-8.46,3.353-10.682-2.222.043-7.781.453-10.682,3.353C32.378,25.294,32.951,30.082,33.26,31.738Z" fill="#231f20"/>
        <path id="Trazado_994665" data-name="Trazado 994665" d="M32.419,33.581a1,1,0,0,1-.707-1.707L42.293,21.293a1,1,0,1,1,1.414,1.414L33.126,33.288a1,1,0,0,1-.707.293Z" fill="#231f20"/>
        <path id="Trazado_994666" data-name="Trazado 994666" d="M36,30a1,1,0,0,1-1-1V25a1,1,0,0,1,2,0v4A1,1,0,0,1,36,30Z" fill="#231f20"/>
        <path id="Trazado_994667" data-name="Trazado 994667" d="M42,27H39a1,1,0,0,1,0-2h3a1,1,0,0,1,0,2Z" fill="#231f20"/>
        <path id="Trazado_994668" data-name="Trazado 994668" d="M27.918,30.006a11.066,11.066,0,0,1-7.973-2.9c-4.286-4.287-3.951-12.779-3.934-13.139a1,1,0,0,1,.953-.953c.362-.017,8.851-.352,13.139,3.934,4.38,4.381,2.526,11.589,2.445,11.893a1,1,0,0,1-.71.709,16.511,16.511,0,0,1-3.92.456Zm-6.559-4.318c2.922,2.922,7.718,2.356,9.379,2.05.306-1.659.872-6.456-2.05-9.379C25.78,15.452,20.226,15.046,18.006,15c.043,2.221.453,7.782,3.353,10.683Z" fill="#231f20"/>
        <path id="Trazado_994669" data-name="Trazado 994669" d="M31.581,29.581a1,1,0,0,1-.707-.293L20.293,18.707a1,1,0,1,1,1.414-1.414L32.288,27.874a1,1,0,0,1-.707,1.707Z" fill="#231f20"/>
        <path id="Trazado_994670" data-name="Trazado 994670" d="M28,26a1,1,0,0,1-1-1V21a1,1,0,0,1,2,0v4A1,1,0,0,1,28,26Z" fill="#231f20"/>
        <path id="Trazado_994671" data-name="Trazado 994671" d="M25,23H22a1,1,0,0,1,0-2h3a1,1,0,0,1,0,2Z" fill="#231f20"/>
      </g>
    </g>
  </g>
</svg>
