<svg xmlns="http://www.w3.org/2000/svg" xmlns:xlink="http://www.w3.org/1999/xlink" width="1328" height="426" viewBox="0 0 1328 426">
  <defs>
    <clipPath id="clip-path">
      <rect id="Rectángulo_412961" data-name="Rectángulo 412961" width="62" height="49" fill="#15da7e" stroke="#707070" stroke-width="1" opacity="0.6"/>
    </clipPath>
    <clipPath id="clip-path-2">
      <rect id="Rectángulo_412960" data-name="Rectángulo 412960" width="143.726" height="140.991" fill="#15da7e"/>
    </clipPath>
    <clipPath id="clip-path-3">
      <rect id="Rectángulo_412963" data-name="Rectángulo 412963" width="88" height="58" fill="#15da7e" stroke="#707070" stroke-width="1" opacity="0.67"/>
    </clipPath>
    <clipPath id="clip-path-4">
      <rect id="Rectángulo_412962" data-name="Rectángulo 412962" width="258.682" height="258.682" fill="#15da7e"/>
    </clipPath>
  </defs>
  <g id="Grupo_1160922" data-name="Grupo 1160922" transform="translate(-136 -6110)">
    <rect id="Rectángulo_412869" data-name="Rectángulo 412869" width="1328" height="424" transform="translate(136 6112)" fill="#cff7e4"/>
    <g id="Enmascarar_grupo_1098788" data-name="Enmascarar grupo 1098788" transform="translate(136 6110)" opacity="0.33" clip-path="url(#clip-path)">
      <g id="POST_4" transform="translate(0.142 0.005)">
        <g id="Grupo_1160690" data-name="Grupo 1160690">
          <g id="Grupo_1160689" data-name="Grupo 1160689" opacity="0.67" clip-path="url(#clip-path-2)">
            <path id="Trazado_994672" data-name="Trazado 994672" d="M39.068,88.323l2.219-8.686a.412.412,0,0,1,.426-.313,32.377,32.377,0,0,0,13.7-1.931.406.406,0,0,1,.493.183l4.429,7.747a2.583,2.583,0,0,0,1.579,1.225,2.52,2.52,0,0,0,1.962-.277l5.553-3.329a2.69,2.69,0,0,0,.925-3.626l-4.428-7.746a.423.423,0,0,1,.086-.53,33.835,33.835,0,0,0,8.35-11.287.407.407,0,0,1,.475-.227L83.32,61.8a2.586,2.586,0,0,0,3.159-1.893l1.628-6.374a2.656,2.656,0,0,0-1.85-3.234l-8.482-2.272a.426.426,0,0,1-.306-.436,34.487,34.487,0,0,0-1.885-14.027.423.423,0,0,1,.179-.505l7.565-4.534a2.689,2.689,0,0,0,.926-3.626L81,19.212a2.576,2.576,0,0,0-1.578-1.225,2.523,2.523,0,0,0-1.962.277L69.9,22.8a.4.4,0,0,1-.517-.088A33.186,33.186,0,0,0,58.359,14.16a.426.426,0,0,1-.222-.486l2.218-8.686a2.686,2.686,0,0,0-.27-2.01,2.574,2.574,0,0,0-1.577-1.224L52.281.086A2.587,2.587,0,0,0,49.123,1.98L46.9,10.666a.412.412,0,0,1-.426.313,32.358,32.358,0,0,0-13.7,1.93.405.405,0,0,1-.493-.183L27.857,4.978a2.557,2.557,0,0,0-3.541-.948L18.763,7.359a2.628,2.628,0,0,0-1.2,1.616,2.689,2.689,0,0,0,.27,2.009l4.429,7.747a.425.425,0,0,1,.056.229.42.42,0,0,1-.142.3,33.817,33.817,0,0,0-8.35,11.286.407.407,0,0,1-.475.227L4.872,28.5a2.518,2.518,0,0,0-1.962.277,2.623,2.623,0,0,0-1.2,1.616L.084,36.769a2.705,2.705,0,0,0,.27,2.009A2.581,2.581,0,0,0,1.933,40l8.484,2.272a.423.423,0,0,1,.306.437A34.461,34.461,0,0,0,12.607,56.74a.422.422,0,0,1-.179.5L4.862,61.779A2.69,2.69,0,0,0,3.936,65.4L7.187,71.09a2.581,2.581,0,0,0,1.578,1.225,2.522,2.522,0,0,0,1.962-.277L18.293,67.5a.4.4,0,0,1,.517.088,33.168,33.168,0,0,0,11.022,8.55.423.423,0,0,1,.222.486l-2.219,8.687a2.66,2.66,0,0,0,1.849,3.234l6.224,1.667a2.518,2.518,0,0,0,1.962-.277A2.631,2.631,0,0,0,39.068,88.323Zm1.287-25.339a18.2,18.2,0,0,1-14.06-18.561,18.7,18.7,0,0,1,.384-3.1,17.841,17.841,0,0,1,21.156-14,18.4,18.4,0,0,1,5.931,33.151A17.359,17.359,0,0,1,40.355,62.984Z" transform="translate(-27.809 -41.932)" fill="#15da7e"/>
          </g>
        </g>
      </g>
    </g>
    <path id="Trazado_994675" data-name="Trazado 994675" d="M-64.146,895.263l-1.322-5.052a.245.245,0,0,0-.254-.182,19.7,19.7,0,0,1-8.159-1.123.244.244,0,0,0-.294.106l-2.638,4.506a1.534,1.534,0,0,1-.941.713,1.532,1.532,0,0,1-1.168-.161l-3.307-1.936a1.544,1.544,0,0,1-.551-2.109l2.637-4.506a.242.242,0,0,0-.051-.308,19.719,19.719,0,0,1-4.973-6.565.244.244,0,0,0-.283-.132l-5.053,1.321a1.543,1.543,0,0,1-1.881-1.1l-.97-3.707a1.541,1.541,0,0,1,1.1-1.881l5.052-1.322a.248.248,0,0,0,.182-.254,19.625,19.625,0,0,1,1.122-8.159.243.243,0,0,0-.106-.294l-4.506-2.637a1.543,1.543,0,0,1-.552-2.109l1.936-3.307a1.53,1.53,0,0,1,.94-.713,1.535,1.535,0,0,1,1.169.161l4.506,2.638a.244.244,0,0,0,.308-.051,19.714,19.714,0,0,1,6.564-4.973.245.245,0,0,0,.132-.283l-1.321-5.052a1.531,1.531,0,0,1,.161-1.169,1.529,1.529,0,0,1,.939-.712l3.708-.97a1.544,1.544,0,0,1,1.881,1.1l1.322,5.052a.245.245,0,0,0,.254.182A19.7,19.7,0,0,1-60.4,851.4a.244.244,0,0,0,.294-.106l2.638-4.506a1.543,1.543,0,0,1,2.109-.552l3.307,1.936a1.532,1.532,0,0,1,.713.94,1.532,1.532,0,0,1-.161,1.169l-2.638,4.506a.242.242,0,0,0-.033.133.242.242,0,0,0,.084.175,19.707,19.707,0,0,1,4.973,6.565.244.244,0,0,0,.283.132l5.052-1.321a1.531,1.531,0,0,1,1.169.161,1.53,1.53,0,0,1,.713.94l.97,3.707a1.541,1.541,0,0,1-.161,1.169,1.532,1.532,0,0,1-.94.713l-5.053,1.321a.246.246,0,0,0-.182.254,19.61,19.61,0,0,1-1.122,8.159.243.243,0,0,0,.106.294l4.506,2.638a1.544,1.544,0,0,1,.552,2.109l-1.936,3.307a1.532,1.532,0,0,1-.94.713,1.533,1.533,0,0,1-1.169-.161l-4.506-2.637a.244.244,0,0,0-.308.051,19.7,19.7,0,0,1-6.564,4.973.245.245,0,0,0-.132.283l1.322,5.052a1.544,1.544,0,0,1-1.1,1.881l-3.707.97a1.531,1.531,0,0,1-1.169-.161A1.529,1.529,0,0,1-64.146,895.263Zm-.767-14.737a10.627,10.627,0,0,0,8.374-10.8,10.64,10.64,0,0,0-.229-1.8,10.622,10.622,0,0,0-12.6-8.145,10.625,10.625,0,0,0-8.145,12.6,10.54,10.54,0,0,0,4.613,6.682A10.545,10.545,0,0,0-64.913,880.526Z" transform="translate(973.149 5293.609)" fill="#15da7e" opacity="0.33"/>
    <path id="Trazado_994673" data-name="Trazado 994673" d="M-58.451,905.263l-1.579-6.036a.293.293,0,0,0-.3-.218,23.542,23.542,0,0,1-9.747-1.341.292.292,0,0,0-.351.127l-3.151,5.383a1.832,1.832,0,0,1-1.124.851,1.829,1.829,0,0,1-1.4-.192l-3.951-2.313a1.845,1.845,0,0,1-.658-2.519l3.15-5.383a.289.289,0,0,0-.061-.368,23.556,23.556,0,0,1-5.941-7.843.292.292,0,0,0-.338-.158l-6.036,1.579a1.843,1.843,0,0,1-2.247-1.315l-1.158-4.429a1.841,1.841,0,0,1,1.316-2.247l6.035-1.579a.3.3,0,0,0,.218-.3,23.444,23.444,0,0,1,1.341-9.747.29.29,0,0,0-.127-.351l-5.383-3.151a1.844,1.844,0,0,1-.659-2.52l2.313-3.951a1.827,1.827,0,0,1,1.123-.851,1.833,1.833,0,0,1,1.4.192l5.383,3.151a.292.292,0,0,0,.368-.061,23.547,23.547,0,0,1,7.842-5.941.294.294,0,0,0,.158-.338l-1.578-6.035a1.829,1.829,0,0,1,.192-1.4,1.826,1.826,0,0,1,1.122-.85l4.429-1.159a1.844,1.844,0,0,1,2.247,1.316l1.579,6.035a.292.292,0,0,0,.3.218,23.532,23.532,0,0,1,9.747,1.341.292.292,0,0,0,.351-.127l3.151-5.383a1.843,1.843,0,0,1,2.519-.659L-44,849a1.83,1.83,0,0,1,.851,1.123,1.83,1.83,0,0,1-.192,1.4l-3.151,5.383a.289.289,0,0,0-.04.159.289.289,0,0,0,.1.209,23.544,23.544,0,0,1,5.941,7.842.292.292,0,0,0,.338.158l6.035-1.579a1.829,1.829,0,0,1,1.4.192,1.827,1.827,0,0,1,.851,1.123l1.159,4.429a1.841,1.841,0,0,1-.192,1.4,1.831,1.831,0,0,1-1.123.851l-6.036,1.579a.294.294,0,0,0-.218.3,23.427,23.427,0,0,1-1.341,9.747.29.29,0,0,0,.127.351l5.383,3.151a1.844,1.844,0,0,1,.659,2.519l-2.313,3.951a1.83,1.83,0,0,1-1.123.851,1.831,1.831,0,0,1-1.4-.192l-5.383-3.15a.292.292,0,0,0-.368.061A23.533,23.533,0,0,1-51.88,896.8a.292.292,0,0,0-.158.338l1.579,6.036a1.844,1.844,0,0,1-1.316,2.247l-4.428,1.158a1.829,1.829,0,0,1-1.4-.192A1.827,1.827,0,0,1-58.451,905.263Zm-.916-17.606a12.7,12.7,0,0,0,10-12.9,12.708,12.708,0,0,0-.273-2.155,12.69,12.69,0,0,0-15.052-9.731,12.693,12.693,0,0,0-9.731,15.053,12.591,12.591,0,0,0,5.511,7.983A12.6,12.6,0,0,0-59.367,887.657Z" transform="translate(1487.655 5597.361)" fill="#15da7e" opacity="0.33"/>
    <g id="Enmascarar_grupo_1098789" data-name="Enmascarar grupo 1098789" transform="translate(630 6478)" opacity="0.53" clip-path="url(#clip-path-3)">
      <g id="POST_1" transform="translate(244.517 -200.624) rotate(90)">
        <g id="Grupo_1160692" data-name="Grupo 1160692" opacity="0.41">
          <g id="Grupo_1160691" data-name="Grupo 1160691" opacity="0.67" clip-path="url(#clip-path-4)">
            <path id="Trazado_994674" data-name="Trazado 994674" d="M37.4,1.852l2.124,8.121a.393.393,0,0,0,.408.293,31.681,31.681,0,0,1,13.115,1.8.392.392,0,0,0,.472-.171l4.24-7.243a2.478,2.478,0,0,1,3.39-.887l5.317,3.112a2.482,2.482,0,0,1,.886,3.39l-4.239,7.243a.389.389,0,0,0,.082.5,31.7,31.7,0,0,1,7.994,10.553.393.393,0,0,0,.455.213l8.122-2.124a2.48,2.48,0,0,1,3.024,1.77L84.35,34.38A2.477,2.477,0,0,1,82.58,37.4l-8.12,2.124a.4.4,0,0,0-.293.408,31.543,31.543,0,0,1-1.8,13.115.39.39,0,0,0,.171.472l7.243,4.239a2.481,2.481,0,0,1,.887,3.39L77.55,66.469a2.477,2.477,0,0,1-3.39.887l-7.243-4.24a.393.393,0,0,0-.5.082A31.688,31.688,0,0,1,55.87,71.192a.4.4,0,0,0-.213.455l2.124,8.121a2.477,2.477,0,0,1-1.769,3.024l-5.96,1.559a2.482,2.482,0,0,1-3.024-1.77L44.9,74.46a.393.393,0,0,0-.408-.293,31.664,31.664,0,0,1-13.115-1.8.393.393,0,0,0-.472.171l-4.239,7.243a2.48,2.48,0,0,1-3.39.887l-5.317-3.112a2.477,2.477,0,0,1-.887-3.39l4.24-7.243a.392.392,0,0,0-.082-.5,31.683,31.683,0,0,1-7.995-10.552.392.392,0,0,0-.455-.213L4.664,57.782a2.478,2.478,0,0,1-3.024-1.77L.08,50.053a2.478,2.478,0,0,1,1.77-3.024L9.972,44.9a.4.4,0,0,0,.293-.408,31.527,31.527,0,0,1,1.8-13.115.39.39,0,0,0-.171-.472l-7.243-4.24a2.482,2.482,0,0,1-.887-3.39L6.88,17.964a2.477,2.477,0,0,1,3.39-.887l7.243,4.239a.392.392,0,0,0,.5-.082,31.669,31.669,0,0,1,10.552-7.994.393.393,0,0,0,.213-.455L26.649,4.664A2.482,2.482,0,0,1,28.42,1.64L34.378.082A2.478,2.478,0,0,1,37.4,1.852Zm1.233,23.691A17.055,17.055,0,1,0,51.474,27.9,17.082,17.082,0,0,0,38.635,25.543Z" transform="translate(201.464 158.018)" fill="#15da7e"/>
          </g>
        </g>
      </g>
    </g>
    <g id="Enmascarar_grupo_1098790" data-name="Enmascarar grupo 1098790" transform="translate(1402 6112)" opacity="0.33" clip-path="url(#clip-path)">
      <g id="POST_4-2" data-name="POST_4" transform="translate(-81.868 0.005)">
        <g id="Grupo_1160694" data-name="Grupo 1160694">
          <g id="Grupo_1160693" data-name="Grupo 1160693" opacity="0.67" clip-path="url(#clip-path-2)">
            <path id="Trazado_994676" data-name="Trazado 994676" d="M49.124,88.323l-2.219-8.686a.412.412,0,0,0-.426-.313,32.377,32.377,0,0,1-13.7-1.931.406.406,0,0,0-.493.183l-4.429,7.747a2.583,2.583,0,0,1-1.579,1.225,2.52,2.52,0,0,1-1.962-.277l-5.553-3.329a2.69,2.69,0,0,1-.925-3.626l4.428-7.746a.423.423,0,0,0-.086-.53,33.835,33.835,0,0,1-8.35-11.287.407.407,0,0,0-.475-.227L4.872,61.8a2.586,2.586,0,0,1-3.159-1.893L.086,53.533A2.656,2.656,0,0,1,1.935,50.3l8.482-2.272a.426.426,0,0,0,.306-.436,34.487,34.487,0,0,1,1.885-14.027.423.423,0,0,0-.179-.505L4.863,28.524A2.689,2.689,0,0,1,3.937,24.9l3.251-5.686a2.576,2.576,0,0,1,1.578-1.225,2.523,2.523,0,0,1,1.962.277L18.294,22.8a.4.4,0,0,0,.517-.088A33.186,33.186,0,0,1,29.833,14.16a.426.426,0,0,0,.222-.486L27.837,4.988a2.686,2.686,0,0,1,.27-2.01,2.574,2.574,0,0,1,1.577-1.224L35.91.086A2.587,2.587,0,0,1,39.069,1.98l2.219,8.686a.412.412,0,0,0,.426.313,32.358,32.358,0,0,1,13.7,1.93.405.405,0,0,0,.493-.183l4.429-7.748a2.557,2.557,0,0,1,3.541-.948l5.553,3.329a2.628,2.628,0,0,1,1.2,1.616,2.689,2.689,0,0,1-.27,2.009l-4.429,7.747a.425.425,0,0,0-.056.229.42.42,0,0,0,.142.3,33.817,33.817,0,0,1,8.35,11.286.407.407,0,0,0,.475.227L83.32,28.5a2.518,2.518,0,0,1,1.962.277,2.623,2.623,0,0,1,1.2,1.616l1.629,6.374a2.705,2.705,0,0,1-.27,2.009A2.581,2.581,0,0,1,86.259,40l-8.484,2.272a.423.423,0,0,0-.306.437A34.461,34.461,0,0,1,75.585,56.74a.422.422,0,0,0,.179.5l7.566,4.535a2.69,2.69,0,0,1,.926,3.626L81.005,71.09a2.581,2.581,0,0,1-1.578,1.225,2.522,2.522,0,0,1-1.962-.277L69.9,67.5a.4.4,0,0,0-.517.088,33.168,33.168,0,0,1-11.022,8.55.423.423,0,0,0-.222.486l2.219,8.687a2.66,2.66,0,0,1-1.849,3.234l-6.224,1.667a2.518,2.518,0,0,1-1.962-.277A2.631,2.631,0,0,1,49.124,88.323ZM47.837,62.984A18.2,18.2,0,0,0,61.9,44.423a18.7,18.7,0,0,0-.384-3.1,17.841,17.841,0,0,0-21.156-14,18.4,18.4,0,0,0-5.931,33.151A17.359,17.359,0,0,0,47.837,62.984Z" transform="translate(83.343 -41.932)" fill="#15da7e"/>
          </g>
        </g>
      </g>
    </g>
    <path id="Trazado_994677" data-name="Trazado 994677" d="M-77.25,872.254l-.73-2.789a.135.135,0,0,0-.14-.1,10.88,10.88,0,0,1-4.5-.62.135.135,0,0,0-.162.059l-1.456,2.488a.847.847,0,0,1-.519.393.846.846,0,0,1-.645-.089l-1.826-1.069a.853.853,0,0,1-.3-1.164l1.456-2.488a.134.134,0,0,0-.028-.17,10.887,10.887,0,0,1-2.746-3.625.135.135,0,0,0-.156-.073l-2.79.73a.852.852,0,0,1-1.039-.608l-.535-2.047a.851.851,0,0,1,.608-1.039l2.789-.73a.137.137,0,0,0,.1-.14,10.835,10.835,0,0,1,.62-4.5.134.134,0,0,0-.059-.162l-2.488-1.456a.852.852,0,0,1-.3-1.164l1.069-1.826a.845.845,0,0,1,.519-.393.847.847,0,0,1,.645.089l2.488,1.456a.135.135,0,0,0,.17-.028,10.885,10.885,0,0,1,3.624-2.746.136.136,0,0,0,.073-.156l-.729-2.789a.845.845,0,0,1,.089-.646.845.845,0,0,1,.519-.393l2.047-.536a.852.852,0,0,1,1.039.608l.73,2.789a.135.135,0,0,0,.14.1,10.875,10.875,0,0,1,4.5.62.135.135,0,0,0,.162-.059l1.456-2.488a.852.852,0,0,1,1.164-.3l1.826,1.069a.846.846,0,0,1,.393.519.846.846,0,0,1-.089.645l-1.456,2.488a.134.134,0,0,0-.018.074.134.134,0,0,0,.047.1A10.879,10.879,0,0,1-68.95,853.7a.135.135,0,0,0,.156.073l2.789-.73a.845.845,0,0,1,.645.089.844.844,0,0,1,.393.519l.536,2.047a.851.851,0,0,1-.089.645.846.846,0,0,1-.519.393l-2.79.73a.136.136,0,0,0-.1.14,10.828,10.828,0,0,1-.62,4.5.134.134,0,0,0,.059.162L-66,863.73a.853.853,0,0,1,.3,1.164l-1.069,1.826a.846.846,0,0,1-.519.393.847.847,0,0,1-.645-.089l-2.488-1.456a.135.135,0,0,0-.17.028,10.878,10.878,0,0,1-3.624,2.746.135.135,0,0,0-.073.156l.73,2.79a.852.852,0,0,1-.608,1.039l-2.047.535a.846.846,0,0,1-.645-.089A.844.844,0,0,1-77.25,872.254Zm-.423-8.137a5.867,5.867,0,0,0,4.623-5.961,5.875,5.875,0,0,0-.126-1,5.865,5.865,0,0,0-6.957-4.5,5.866,5.866,0,0,0-4.5,6.957,5.819,5.819,0,0,0,2.547,3.689A5.822,5.822,0,0,0-77.673,864.118Z" transform="translate(291.403 5634.109)" fill="#15da7e" opacity="0.33"/>
  </g>
</svg>
